<?xml version="1.0" encoding="utf-8" standalone="no"?>
<!DOCTYPE svg PUBLIC "-//W3C//DTD SVG 1.1//EN"
  "http://www.w3.org/Graphics/SVG/1.1/DTD/svg11.dtd">
<svg xmlns:xlink="http://www.w3.org/1999/xlink" width="1000.032688pt" height="713.249937pt" viewBox="0 0 1000.032688 713.249937" xmlns="http://www.w3.org/2000/svg" version="1.1">
 <metadata>
  <rdf:RDF xmlns:dc="http://purl.org/dc/elements/1.1/" xmlns:cc="http://creativecommons.org/ns#" xmlns:rdf="http://www.w3.org/1999/02/22-rdf-syntax-ns#">
   <cc:Work>
    <dc:type rdf:resource="http://purl.org/dc/dcmitype/StillImage"/>
    <dc:date>2025-11-30T21:18:01.919122</dc:date>
    <dc:format>image/svg+xml</dc:format>
    <dc:creator>
     <cc:Agent>
      <dc:title>Matplotlib v3.10.3, https://matplotlib.org/</dc:title>
     </cc:Agent>
    </dc:creator>
   </cc:Work>
  </rdf:RDF>
 </metadata>
 <defs>
  <style type="text/css">*{stroke-linejoin: round; stroke-linecap: butt}</style>
 </defs>
 <g id="figure_1">
  <g id="patch_1">
   <path d="M 0 713.249937 
L 1000.032688 713.249937 
L 1000.032688 0 
L 0 0 
z
" style="fill: #ffffff"/>
  </g>
  <g id="axes_1">
   <g id="patch_2">
    <path d="M 56.8593 671.7504 
L 987.4497 671.7504 
L 987.4497 73.5365 
L 56.8593 73.5365 
z
" style="fill: #ffffff"/>
   </g>
   <g id="matplotlib.axis_1">
    <g id="xtick_1">
     <g id="line2d_1">
      <path d="M 56.8593 671.7504 
L 56.8593 73.5365 
" clip-path="url(#pd47fabdc2e)" style="fill: none; stroke: #cccccc; stroke-opacity: 0.3; stroke-width: 0.8; stroke-linecap: round"/>
     </g>
     <g id="line2d_2">
      <defs>
       <path id="med543415c9" d="M 0 0 
L 0 4.8 
" style="stroke: #262626"/>
      </defs>
      <g>
       <use xlink:href="#med543415c9" x="56.8593" y="671.7504" style="fill: #262626; stroke: #262626"/>
      </g>
     </g>
     <g id="text_1">
      <!-- 0 -->
      <g style="fill: #262626" transform="translate(54.167806 686.979163) scale(0.0968 -0.0968)">
       <defs>
        <path id="ArialMT-30" d="M 266 2259 
Q 266 3072 433 3567 
Q 600 4063 929 4331 
Q 1259 4600 1759 4600 
Q 2128 4600 2406 4451 
Q 2684 4303 2865 4023 
Q 3047 3744 3150 3342 
Q 3253 2941 3253 2259 
Q 3253 1453 3087 958 
Q 2922 463 2592 192 
Q 2263 -78 1759 -78 
Q 1097 -78 719 397 
Q 266 969 266 2259 
z
M 844 2259 
Q 844 1131 1108 757 
Q 1372 384 1759 384 
Q 2147 384 2411 759 
Q 2675 1134 2675 2259 
Q 2675 3391 2411 3762 
Q 2147 4134 1753 4134 
Q 1366 4134 1134 3806 
Q 844 3388 844 2259 
z
" transform="scale(0.015625)"/>
       </defs>
       <use xlink:href="#ArialMT-30"/>
      </g>
     </g>
    </g>
    <g id="xtick_2">
     <g id="line2d_3">
      <path d="M 242.97738 671.7504 
L 242.97738 73.5365 
" clip-path="url(#pd47fabdc2e)" style="fill: none; stroke: #cccccc; stroke-opacity: 0.3; stroke-width: 0.8; stroke-linecap: round"/>
     </g>
     <g id="line2d_4">
      <g>
       <use xlink:href="#med543415c9" x="242.97738" y="671.7504" style="fill: #262626; stroke: #262626"/>
      </g>
     </g>
     <g id="text_2">
      <!-- 2 -->
      <g style="fill: #262626" transform="translate(240.285886 686.979163) scale(0.0968 -0.0968)">
       <defs>
        <path id="ArialMT-32" d="M 3222 541 
L 3222 0 
L 194 0 
Q 188 203 259 391 
Q 375 700 629 1000 
Q 884 1300 1366 1694 
Q 2113 2306 2375 2664 
Q 2638 3022 2638 3341 
Q 2638 3675 2398 3904 
Q 2159 4134 1775 4134 
Q 1369 4134 1125 3890 
Q 881 3647 878 3216 
L 300 3275 
Q 359 3922 746 4261 
Q 1134 4600 1788 4600 
Q 2447 4600 2831 4234 
Q 3216 3869 3216 3328 
Q 3216 3053 3103 2787 
Q 2991 2522 2730 2228 
Q 2469 1934 1863 1422 
Q 1356 997 1212 845 
Q 1069 694 975 541 
L 3222 541 
z
" transform="scale(0.015625)"/>
       </defs>
       <use xlink:href="#ArialMT-32"/>
      </g>
     </g>
    </g>
    <g id="xtick_3">
     <g id="line2d_5">
      <path d="M 429.09546 671.7504 
L 429.09546 73.5365 
" clip-path="url(#pd47fabdc2e)" style="fill: none; stroke: #cccccc; stroke-opacity: 0.3; stroke-width: 0.8; stroke-linecap: round"/>
     </g>
     <g id="line2d_6">
      <g>
       <use xlink:href="#med543415c9" x="429.09546" y="671.7504" style="fill: #262626; stroke: #262626"/>
      </g>
     </g>
     <g id="text_3">
      <!-- 4 -->
      <g style="fill: #262626" transform="translate(426.403966 686.979163) scale(0.0968 -0.0968)">
       <defs>
        <path id="ArialMT-34" d="M 2069 0 
L 2069 1097 
L 81 1097 
L 81 1613 
L 2172 4581 
L 2631 4581 
L 2631 1613 
L 3250 1613 
L 3250 1097 
L 2631 1097 
L 2631 0 
L 2069 0 
z
M 2069 1613 
L 2069 3678 
L 634 1613 
L 2069 1613 
z
" transform="scale(0.015625)"/>
       </defs>
       <use xlink:href="#ArialMT-34"/>
      </g>
     </g>
    </g>
    <g id="xtick_4">
     <g id="line2d_7">
      <path d="M 615.21354 671.7504 
L 615.21354 73.5365 
" clip-path="url(#pd47fabdc2e)" style="fill: none; stroke: #cccccc; stroke-opacity: 0.3; stroke-width: 0.8; stroke-linecap: round"/>
     </g>
     <g id="line2d_8">
      <g>
       <use xlink:href="#med543415c9" x="615.21354" y="671.7504" style="fill: #262626; stroke: #262626"/>
      </g>
     </g>
     <g id="text_4">
      <!-- 6 -->
      <g style="fill: #262626" transform="translate(612.522046 686.979163) scale(0.0968 -0.0968)">
       <defs>
        <path id="ArialMT-36" d="M 3184 3459 
L 2625 3416 
Q 2550 3747 2413 3897 
Q 2184 4138 1850 4138 
Q 1581 4138 1378 3988 
Q 1113 3794 959 3422 
Q 806 3050 800 2363 
Q 1003 2672 1297 2822 
Q 1591 2972 1913 2972 
Q 2475 2972 2870 2558 
Q 3266 2144 3266 1488 
Q 3266 1056 3080 686 
Q 2894 316 2569 119 
Q 2244 -78 1831 -78 
Q 1128 -78 684 439 
Q 241 956 241 2144 
Q 241 3472 731 4075 
Q 1159 4600 1884 4600 
Q 2425 4600 2770 4297 
Q 3116 3994 3184 3459 
z
M 888 1484 
Q 888 1194 1011 928 
Q 1134 663 1356 523 
Q 1578 384 1822 384 
Q 2178 384 2434 671 
Q 2691 959 2691 1453 
Q 2691 1928 2437 2201 
Q 2184 2475 1800 2475 
Q 1419 2475 1153 2201 
Q 888 1928 888 1484 
z
" transform="scale(0.015625)"/>
       </defs>
       <use xlink:href="#ArialMT-36"/>
      </g>
     </g>
    </g>
    <g id="xtick_5">
     <g id="line2d_9">
      <path d="M 801.33162 671.7504 
L 801.33162 73.5365 
" clip-path="url(#pd47fabdc2e)" style="fill: none; stroke: #cccccc; stroke-opacity: 0.3; stroke-width: 0.8; stroke-linecap: round"/>
     </g>
     <g id="line2d_10">
      <g>
       <use xlink:href="#med543415c9" x="801.33162" y="671.7504" style="fill: #262626; stroke: #262626"/>
      </g>
     </g>
     <g id="text_5">
      <!-- 8 -->
      <g style="fill: #262626" transform="translate(798.640126 686.979163) scale(0.0968 -0.0968)">
       <defs>
        <path id="ArialMT-38" d="M 1131 2484 
Q 781 2613 612 2850 
Q 444 3088 444 3419 
Q 444 3919 803 4259 
Q 1163 4600 1759 4600 
Q 2359 4600 2725 4251 
Q 3091 3903 3091 3403 
Q 3091 3084 2923 2848 
Q 2756 2613 2416 2484 
Q 2838 2347 3058 2040 
Q 3278 1734 3278 1309 
Q 3278 722 2862 322 
Q 2447 -78 1769 -78 
Q 1091 -78 675 323 
Q 259 725 259 1325 
Q 259 1772 486 2073 
Q 713 2375 1131 2484 
z
M 1019 3438 
Q 1019 3113 1228 2906 
Q 1438 2700 1772 2700 
Q 2097 2700 2305 2904 
Q 2513 3109 2513 3406 
Q 2513 3716 2298 3927 
Q 2084 4138 1766 4138 
Q 1444 4138 1231 3931 
Q 1019 3725 1019 3438 
z
M 838 1322 
Q 838 1081 952 856 
Q 1066 631 1291 507 
Q 1516 384 1775 384 
Q 2178 384 2440 643 
Q 2703 903 2703 1303 
Q 2703 1709 2433 1975 
Q 2163 2241 1756 2241 
Q 1359 2241 1098 1978 
Q 838 1716 838 1322 
z
" transform="scale(0.015625)"/>
       </defs>
       <use xlink:href="#ArialMT-38"/>
      </g>
     </g>
    </g>
    <g id="xtick_6">
     <g id="line2d_11">
      <path d="M 987.4497 671.7504 
L 987.4497 73.5365 
" clip-path="url(#pd47fabdc2e)" style="fill: none; stroke: #cccccc; stroke-opacity: 0.3; stroke-width: 0.8; stroke-linecap: round"/>
     </g>
     <g id="line2d_12">
      <g>
       <use xlink:href="#med543415c9" x="987.4497" y="671.7504" style="fill: #262626; stroke: #262626"/>
      </g>
     </g>
     <g id="text_6">
      <!-- 10 -->
      <g style="fill: #262626" transform="translate(982.066712 686.979163) scale(0.0968 -0.0968)">
       <defs>
        <path id="ArialMT-31" d="M 2384 0 
L 1822 0 
L 1822 3584 
Q 1619 3391 1289 3197 
Q 959 3003 697 2906 
L 697 3450 
Q 1169 3672 1522 3987 
Q 1875 4303 2022 4600 
L 2384 4600 
L 2384 0 
z
" transform="scale(0.015625)"/>
       </defs>
       <use xlink:href="#ArialMT-31"/>
       <use xlink:href="#ArialMT-30" transform="translate(55.615234 0)"/>
      </g>
     </g>
    </g>
    <g id="text_7">
     <!-- Generation Output (GW) -->
     <g style="fill: #262626" transform="translate(445.908094 703.103375) scale(0.14 -0.14)">
      <defs>
       <path id="ArialMT-47" d="M 2638 1797 
L 2638 2334 
L 4578 2338 
L 4578 638 
Q 4131 281 3656 101 
Q 3181 -78 2681 -78 
Q 2006 -78 1454 211 
Q 903 500 622 1047 
Q 341 1594 341 2269 
Q 341 2938 620 3517 
Q 900 4097 1425 4378 
Q 1950 4659 2634 4659 
Q 3131 4659 3532 4498 
Q 3934 4338 4162 4050 
Q 4391 3763 4509 3300 
L 3963 3150 
Q 3859 3500 3706 3700 
Q 3553 3900 3268 4020 
Q 2984 4141 2638 4141 
Q 2222 4141 1919 4014 
Q 1616 3888 1430 3681 
Q 1244 3475 1141 3228 
Q 966 2803 966 2306 
Q 966 1694 1177 1281 
Q 1388 869 1791 669 
Q 2194 469 2647 469 
Q 3041 469 3416 620 
Q 3791 772 3984 944 
L 3984 1797 
L 2638 1797 
z
" transform="scale(0.015625)"/>
       <path id="ArialMT-65" d="M 2694 1069 
L 3275 997 
Q 3138 488 2766 206 
Q 2394 -75 1816 -75 
Q 1088 -75 661 373 
Q 234 822 234 1631 
Q 234 2469 665 2931 
Q 1097 3394 1784 3394 
Q 2450 3394 2872 2941 
Q 3294 2488 3294 1666 
Q 3294 1616 3291 1516 
L 816 1516 
Q 847 969 1125 678 
Q 1403 388 1819 388 
Q 2128 388 2347 550 
Q 2566 713 2694 1069 
z
M 847 1978 
L 2700 1978 
Q 2663 2397 2488 2606 
Q 2219 2931 1791 2931 
Q 1403 2931 1139 2672 
Q 875 2413 847 1978 
z
" transform="scale(0.015625)"/>
       <path id="ArialMT-6e" d="M 422 0 
L 422 3319 
L 928 3319 
L 928 2847 
Q 1294 3394 1984 3394 
Q 2284 3394 2536 3286 
Q 2788 3178 2913 3003 
Q 3038 2828 3088 2588 
Q 3119 2431 3119 2041 
L 3119 0 
L 2556 0 
L 2556 2019 
Q 2556 2363 2490 2533 
Q 2425 2703 2258 2804 
Q 2091 2906 1866 2906 
Q 1506 2906 1245 2678 
Q 984 2450 984 1813 
L 984 0 
L 422 0 
z
" transform="scale(0.015625)"/>
       <path id="ArialMT-72" d="M 416 0 
L 416 3319 
L 922 3319 
L 922 2816 
Q 1116 3169 1280 3281 
Q 1444 3394 1641 3394 
Q 1925 3394 2219 3213 
L 2025 2691 
Q 1819 2813 1613 2813 
Q 1428 2813 1281 2702 
Q 1134 2591 1072 2394 
Q 978 2094 978 1738 
L 978 0 
L 416 0 
z
" transform="scale(0.015625)"/>
       <path id="ArialMT-61" d="M 2588 409 
Q 2275 144 1986 34 
Q 1697 -75 1366 -75 
Q 819 -75 525 192 
Q 231 459 231 875 
Q 231 1119 342 1320 
Q 453 1522 633 1644 
Q 813 1766 1038 1828 
Q 1203 1872 1538 1913 
Q 2219 1994 2541 2106 
Q 2544 2222 2544 2253 
Q 2544 2597 2384 2738 
Q 2169 2928 1744 2928 
Q 1347 2928 1158 2789 
Q 969 2650 878 2297 
L 328 2372 
Q 403 2725 575 2942 
Q 747 3159 1072 3276 
Q 1397 3394 1825 3394 
Q 2250 3394 2515 3294 
Q 2781 3194 2906 3042 
Q 3031 2891 3081 2659 
Q 3109 2516 3109 2141 
L 3109 1391 
Q 3109 606 3145 398 
Q 3181 191 3288 0 
L 2700 0 
Q 2613 175 2588 409 
z
M 2541 1666 
Q 2234 1541 1622 1453 
Q 1275 1403 1131 1340 
Q 988 1278 909 1158 
Q 831 1038 831 891 
Q 831 666 1001 516 
Q 1172 366 1500 366 
Q 1825 366 2078 508 
Q 2331 650 2450 897 
Q 2541 1088 2541 1459 
L 2541 1666 
z
" transform="scale(0.015625)"/>
       <path id="ArialMT-74" d="M 1650 503 
L 1731 6 
Q 1494 -44 1306 -44 
Q 1000 -44 831 53 
Q 663 150 594 308 
Q 525 466 525 972 
L 525 2881 
L 113 2881 
L 113 3319 
L 525 3319 
L 525 4141 
L 1084 4478 
L 1084 3319 
L 1650 3319 
L 1650 2881 
L 1084 2881 
L 1084 941 
Q 1084 700 1114 631 
Q 1144 563 1211 522 
Q 1278 481 1403 481 
Q 1497 481 1650 503 
z
" transform="scale(0.015625)"/>
       <path id="ArialMT-69" d="M 425 3934 
L 425 4581 
L 988 4581 
L 988 3934 
L 425 3934 
z
M 425 0 
L 425 3319 
L 988 3319 
L 988 0 
L 425 0 
z
" transform="scale(0.015625)"/>
       <path id="ArialMT-6f" d="M 213 1659 
Q 213 2581 725 3025 
Q 1153 3394 1769 3394 
Q 2453 3394 2887 2945 
Q 3322 2497 3322 1706 
Q 3322 1066 3130 698 
Q 2938 331 2570 128 
Q 2203 -75 1769 -75 
Q 1072 -75 642 372 
Q 213 819 213 1659 
z
M 791 1659 
Q 791 1022 1069 705 
Q 1347 388 1769 388 
Q 2188 388 2466 706 
Q 2744 1025 2744 1678 
Q 2744 2294 2464 2611 
Q 2184 2928 1769 2928 
Q 1347 2928 1069 2612 
Q 791 2297 791 1659 
z
" transform="scale(0.015625)"/>
       <path id="ArialMT-20" transform="scale(0.015625)"/>
       <path id="ArialMT-4f" d="M 309 2231 
Q 309 3372 921 4017 
Q 1534 4663 2503 4663 
Q 3138 4663 3647 4359 
Q 4156 4056 4423 3514 
Q 4691 2972 4691 2284 
Q 4691 1588 4409 1038 
Q 4128 488 3612 205 
Q 3097 -78 2500 -78 
Q 1853 -78 1343 234 
Q 834 547 571 1087 
Q 309 1628 309 2231 
z
M 934 2222 
Q 934 1394 1379 917 
Q 1825 441 2497 441 
Q 3181 441 3623 922 
Q 4066 1403 4066 2288 
Q 4066 2847 3877 3264 
Q 3688 3681 3323 3911 
Q 2959 4141 2506 4141 
Q 1863 4141 1398 3698 
Q 934 3256 934 2222 
z
" transform="scale(0.015625)"/>
       <path id="ArialMT-75" d="M 2597 0 
L 2597 488 
Q 2209 -75 1544 -75 
Q 1250 -75 995 37 
Q 741 150 617 320 
Q 494 491 444 738 
Q 409 903 409 1263 
L 409 3319 
L 972 3319 
L 972 1478 
Q 972 1038 1006 884 
Q 1059 663 1231 536 
Q 1403 409 1656 409 
Q 1909 409 2131 539 
Q 2353 669 2445 892 
Q 2538 1116 2538 1541 
L 2538 3319 
L 3100 3319 
L 3100 0 
L 2597 0 
z
" transform="scale(0.015625)"/>
       <path id="ArialMT-70" d="M 422 -1272 
L 422 3319 
L 934 3319 
L 934 2888 
Q 1116 3141 1344 3267 
Q 1572 3394 1897 3394 
Q 2322 3394 2647 3175 
Q 2972 2956 3137 2557 
Q 3303 2159 3303 1684 
Q 3303 1175 3120 767 
Q 2938 359 2589 142 
Q 2241 -75 1856 -75 
Q 1575 -75 1351 44 
Q 1128 163 984 344 
L 984 -1272 
L 422 -1272 
z
M 931 1641 
Q 931 1000 1190 694 
Q 1450 388 1819 388 
Q 2194 388 2461 705 
Q 2728 1022 2728 1688 
Q 2728 2322 2467 2637 
Q 2206 2953 1844 2953 
Q 1484 2953 1207 2617 
Q 931 2281 931 1641 
z
" transform="scale(0.015625)"/>
       <path id="ArialMT-28" d="M 1497 -1347 
Q 1031 -759 709 28 
Q 388 816 388 1659 
Q 388 2403 628 3084 
Q 909 3875 1497 4659 
L 1900 4659 
Q 1522 4009 1400 3731 
Q 1209 3300 1100 2831 
Q 966 2247 966 1656 
Q 966 153 1900 -1347 
L 1497 -1347 
z
" transform="scale(0.015625)"/>
       <path id="ArialMT-57" d="M 1294 0 
L 78 4581 
L 700 4581 
L 1397 1578 
Q 1509 1106 1591 641 
Q 1766 1375 1797 1488 
L 2669 4581 
L 3400 4581 
L 4056 2263 
Q 4303 1400 4413 641 
Q 4500 1075 4641 1638 
L 5359 4581 
L 5969 4581 
L 4713 0 
L 4128 0 
L 3163 3491 
Q 3041 3928 3019 4028 
Q 2947 3713 2884 3491 
L 1913 0 
L 1294 0 
z
" transform="scale(0.015625)"/>
       <path id="ArialMT-29" d="M 791 -1347 
L 388 -1347 
Q 1322 153 1322 1656 
Q 1322 2244 1188 2822 
Q 1081 3291 891 3722 
Q 769 4003 388 4659 
L 791 4659 
Q 1378 3875 1659 3084 
Q 1900 2403 1900 1659 
Q 1900 816 1576 28 
Q 1253 -759 791 -1347 
z
" transform="scale(0.015625)"/>
      </defs>
      <use xlink:href="#ArialMT-47"/>
      <use xlink:href="#ArialMT-65" transform="translate(77.783203 0)"/>
      <use xlink:href="#ArialMT-6e" transform="translate(133.398438 0)"/>
      <use xlink:href="#ArialMT-65" transform="translate(189.013672 0)"/>
      <use xlink:href="#ArialMT-72" transform="translate(244.628906 0)"/>
      <use xlink:href="#ArialMT-61" transform="translate(277.929688 0)"/>
      <use xlink:href="#ArialMT-74" transform="translate(333.544922 0)"/>
      <use xlink:href="#ArialMT-69" transform="translate(361.328125 0)"/>
      <use xlink:href="#ArialMT-6f" transform="translate(383.544922 0)"/>
      <use xlink:href="#ArialMT-6e" transform="translate(439.160156 0)"/>
      <use xlink:href="#ArialMT-20" transform="translate(494.775391 0)"/>
      <use xlink:href="#ArialMT-4f" transform="translate(522.558594 0)"/>
      <use xlink:href="#ArialMT-75" transform="translate(600.341797 0)"/>
      <use xlink:href="#ArialMT-74" transform="translate(655.957031 0)"/>
      <use xlink:href="#ArialMT-70" transform="translate(683.740234 0)"/>
      <use xlink:href="#ArialMT-75" transform="translate(739.355469 0)"/>
      <use xlink:href="#ArialMT-74" transform="translate(794.970703 0)"/>
      <use xlink:href="#ArialMT-20" transform="translate(822.753906 0)"/>
      <use xlink:href="#ArialMT-28" transform="translate(850.537109 0)"/>
      <use xlink:href="#ArialMT-47" transform="translate(883.837891 0)"/>
      <use xlink:href="#ArialMT-57" transform="translate(961.621094 0)"/>
      <use xlink:href="#ArialMT-29" transform="translate(1056.005859 0)"/>
     </g>
    </g>
   </g>
   <g id="matplotlib.axis_2">
    <g id="ytick_1">
     <g id="line2d_13">
      <path d="M 56.8593 671.7504 
L 987.4497 671.7504 
" clip-path="url(#pd47fabdc2e)" style="fill: none; stroke: #cccccc; stroke-opacity: 0.3; stroke-width: 0.8; stroke-linecap: round"/>
     </g>
     <g id="line2d_14">
      <defs>
       <path id="mf90629b0a2" d="M 0 0 
L -4.8 0 
" style="stroke: #262626"/>
      </defs>
      <g>
       <use xlink:href="#mf90629b0a2" x="56.8593" y="671.7504" style="fill: #262626; stroke: #262626"/>
      </g>
     </g>
     <g id="text_8">
      <!-- 0.000 -->
      <g style="fill: #262626" transform="translate(24.338125 675.214781) scale(0.0968 -0.0968)">
       <defs>
        <path id="ArialMT-2e" d="M 581 0 
L 581 641 
L 1222 641 
L 1222 0 
L 581 0 
z
" transform="scale(0.015625)"/>
       </defs>
       <use xlink:href="#ArialMT-30"/>
       <use xlink:href="#ArialMT-2e" transform="translate(55.615234 0)"/>
       <use xlink:href="#ArialMT-30" transform="translate(83.398438 0)"/>
       <use xlink:href="#ArialMT-30" transform="translate(139.013672 0)"/>
       <use xlink:href="#ArialMT-30" transform="translate(194.628906 0)"/>
      </g>
     </g>
    </g>
    <g id="ytick_2">
     <g id="line2d_15">
      <path d="M 56.8593 605.196084 
L 987.4497 605.196084 
" clip-path="url(#pd47fabdc2e)" style="fill: none; stroke: #cccccc; stroke-opacity: 0.3; stroke-width: 0.8; stroke-linecap: round"/>
     </g>
     <g id="line2d_16">
      <g>
       <use xlink:href="#mf90629b0a2" x="56.8593" y="605.196084" style="fill: #262626; stroke: #262626"/>
      </g>
     </g>
     <g id="text_9">
      <!-- 0.020 -->
      <g style="fill: #262626" transform="translate(24.338125 608.660465) scale(0.0968 -0.0968)">
       <use xlink:href="#ArialMT-30"/>
       <use xlink:href="#ArialMT-2e" transform="translate(55.615234 0)"/>
       <use xlink:href="#ArialMT-30" transform="translate(83.398438 0)"/>
       <use xlink:href="#ArialMT-32" transform="translate(139.013672 0)"/>
       <use xlink:href="#ArialMT-30" transform="translate(194.628906 0)"/>
      </g>
     </g>
    </g>
    <g id="ytick_3">
     <g id="line2d_17">
      <path d="M 56.8593 538.641767 
L 987.4497 538.641767 
" clip-path="url(#pd47fabdc2e)" style="fill: none; stroke: #cccccc; stroke-opacity: 0.3; stroke-width: 0.8; stroke-linecap: round"/>
     </g>
     <g id="line2d_18">
      <g>
       <use xlink:href="#mf90629b0a2" x="56.8593" y="538.641767" style="fill: #262626; stroke: #262626"/>
      </g>
     </g>
     <g id="text_10">
      <!-- 0.040 -->
      <g style="fill: #262626" transform="translate(24.338125 542.106148) scale(0.0968 -0.0968)">
       <use xlink:href="#ArialMT-30"/>
       <use xlink:href="#ArialMT-2e" transform="translate(55.615234 0)"/>
       <use xlink:href="#ArialMT-30" transform="translate(83.398438 0)"/>
       <use xlink:href="#ArialMT-34" transform="translate(139.013672 0)"/>
       <use xlink:href="#ArialMT-30" transform="translate(194.628906 0)"/>
      </g>
     </g>
    </g>
    <g id="ytick_4">
     <g id="line2d_19">
      <path d="M 56.8593 472.087451 
L 987.4497 472.087451 
" clip-path="url(#pd47fabdc2e)" style="fill: none; stroke: #cccccc; stroke-opacity: 0.3; stroke-width: 0.8; stroke-linecap: round"/>
     </g>
     <g id="line2d_20">
      <g>
       <use xlink:href="#mf90629b0a2" x="56.8593" y="472.087451" style="fill: #262626; stroke: #262626"/>
      </g>
     </g>
     <g id="text_11">
      <!-- 0.060 -->
      <g style="fill: #262626" transform="translate(24.338125 475.551832) scale(0.0968 -0.0968)">
       <use xlink:href="#ArialMT-30"/>
       <use xlink:href="#ArialMT-2e" transform="translate(55.615234 0)"/>
       <use xlink:href="#ArialMT-30" transform="translate(83.398438 0)"/>
       <use xlink:href="#ArialMT-36" transform="translate(139.013672 0)"/>
       <use xlink:href="#ArialMT-30" transform="translate(194.628906 0)"/>
      </g>
     </g>
    </g>
    <g id="ytick_5">
     <g id="line2d_21">
      <path d="M 56.8593 405.533134 
L 987.4497 405.533134 
" clip-path="url(#pd47fabdc2e)" style="fill: none; stroke: #cccccc; stroke-opacity: 0.3; stroke-width: 0.8; stroke-linecap: round"/>
     </g>
     <g id="line2d_22">
      <g>
       <use xlink:href="#mf90629b0a2" x="56.8593" y="405.533134" style="fill: #262626; stroke: #262626"/>
      </g>
     </g>
     <g id="text_12">
      <!-- 0.080 -->
      <g style="fill: #262626" transform="translate(24.338125 408.997516) scale(0.0968 -0.0968)">
       <use xlink:href="#ArialMT-30"/>
       <use xlink:href="#ArialMT-2e" transform="translate(55.615234 0)"/>
       <use xlink:href="#ArialMT-30" transform="translate(83.398438 0)"/>
       <use xlink:href="#ArialMT-38" transform="translate(139.013672 0)"/>
       <use xlink:href="#ArialMT-30" transform="translate(194.628906 0)"/>
      </g>
     </g>
    </g>
    <g id="ytick_6">
     <g id="line2d_23">
      <path d="M 56.8593 338.978818 
L 987.4497 338.978818 
" clip-path="url(#pd47fabdc2e)" style="fill: none; stroke: #cccccc; stroke-opacity: 0.3; stroke-width: 0.8; stroke-linecap: round"/>
     </g>
     <g id="line2d_24">
      <g>
       <use xlink:href="#mf90629b0a2" x="56.8593" y="338.978818" style="fill: #262626; stroke: #262626"/>
      </g>
     </g>
     <g id="text_13">
      <!-- 0.100 -->
      <g style="fill: #262626" transform="translate(24.338125 342.443199) scale(0.0968 -0.0968)">
       <use xlink:href="#ArialMT-30"/>
       <use xlink:href="#ArialMT-2e" transform="translate(55.615234 0)"/>
       <use xlink:href="#ArialMT-31" transform="translate(83.398438 0)"/>
       <use xlink:href="#ArialMT-30" transform="translate(139.013672 0)"/>
       <use xlink:href="#ArialMT-30" transform="translate(194.628906 0)"/>
      </g>
     </g>
    </g>
    <g id="ytick_7">
     <g id="line2d_25">
      <path d="M 56.8593 272.424502 
L 987.4497 272.424502 
" clip-path="url(#pd47fabdc2e)" style="fill: none; stroke: #cccccc; stroke-opacity: 0.3; stroke-width: 0.8; stroke-linecap: round"/>
     </g>
     <g id="line2d_26">
      <g>
       <use xlink:href="#mf90629b0a2" x="56.8593" y="272.424502" style="fill: #262626; stroke: #262626"/>
      </g>
     </g>
     <g id="text_14">
      <!-- 0.120 -->
      <g style="fill: #262626" transform="translate(24.338125 275.888883) scale(0.0968 -0.0968)">
       <use xlink:href="#ArialMT-30"/>
       <use xlink:href="#ArialMT-2e" transform="translate(55.615234 0)"/>
       <use xlink:href="#ArialMT-31" transform="translate(83.398438 0)"/>
       <use xlink:href="#ArialMT-32" transform="translate(139.013672 0)"/>
       <use xlink:href="#ArialMT-30" transform="translate(194.628906 0)"/>
      </g>
     </g>
    </g>
    <g id="ytick_8">
     <g id="line2d_27">
      <path d="M 56.8593 205.870185 
L 987.4497 205.870185 
" clip-path="url(#pd47fabdc2e)" style="fill: none; stroke: #cccccc; stroke-opacity: 0.3; stroke-width: 0.8; stroke-linecap: round"/>
     </g>
     <g id="line2d_28">
      <g>
       <use xlink:href="#mf90629b0a2" x="56.8593" y="205.870185" style="fill: #262626; stroke: #262626"/>
      </g>
     </g>
     <g id="text_15">
      <!-- 0.140 -->
      <g style="fill: #262626" transform="translate(24.338125 209.334567) scale(0.0968 -0.0968)">
       <use xlink:href="#ArialMT-30"/>
       <use xlink:href="#ArialMT-2e" transform="translate(55.615234 0)"/>
       <use xlink:href="#ArialMT-31" transform="translate(83.398438 0)"/>
       <use xlink:href="#ArialMT-34" transform="translate(139.013672 0)"/>
       <use xlink:href="#ArialMT-30" transform="translate(194.628906 0)"/>
      </g>
     </g>
    </g>
    <g id="ytick_9">
     <g id="line2d_29">
      <path d="M 56.8593 139.315869 
L 987.4497 139.315869 
" clip-path="url(#pd47fabdc2e)" style="fill: none; stroke: #cccccc; stroke-opacity: 0.3; stroke-width: 0.8; stroke-linecap: round"/>
     </g>
     <g id="line2d_30">
      <g>
       <use xlink:href="#mf90629b0a2" x="56.8593" y="139.315869" style="fill: #262626; stroke: #262626"/>
      </g>
     </g>
     <g id="text_16">
      <!-- 0.160 -->
      <g style="fill: #262626" transform="translate(24.338125 142.78025) scale(0.0968 -0.0968)">
       <use xlink:href="#ArialMT-30"/>
       <use xlink:href="#ArialMT-2e" transform="translate(55.615234 0)"/>
       <use xlink:href="#ArialMT-31" transform="translate(83.398438 0)"/>
       <use xlink:href="#ArialMT-36" transform="translate(139.013672 0)"/>
       <use xlink:href="#ArialMT-30" transform="translate(194.628906 0)"/>
      </g>
     </g>
    </g>
    <g id="text_17">
     <!-- Long-Run Marginal Cost (M€/GWh) -->
     <g style="fill: #262626" transform="translate(17.391562 482.729388) rotate(-90) scale(0.14 -0.14)">
      <defs>
       <path id="ArialMT-4c" d="M 469 0 
L 469 4581 
L 1075 4581 
L 1075 541 
L 3331 541 
L 3331 0 
L 469 0 
z
" transform="scale(0.015625)"/>
       <path id="ArialMT-67" d="M 319 -275 
L 866 -356 
Q 900 -609 1056 -725 
Q 1266 -881 1628 -881 
Q 2019 -881 2231 -725 
Q 2444 -569 2519 -288 
Q 2563 -116 2559 434 
Q 2191 0 1641 0 
Q 956 0 581 494 
Q 206 988 206 1678 
Q 206 2153 378 2554 
Q 550 2956 876 3175 
Q 1203 3394 1644 3394 
Q 2231 3394 2613 2919 
L 2613 3319 
L 3131 3319 
L 3131 450 
Q 3131 -325 2973 -648 
Q 2816 -972 2473 -1159 
Q 2131 -1347 1631 -1347 
Q 1038 -1347 672 -1080 
Q 306 -813 319 -275 
z
M 784 1719 
Q 784 1066 1043 766 
Q 1303 466 1694 466 
Q 2081 466 2343 764 
Q 2606 1063 2606 1700 
Q 2606 2309 2336 2618 
Q 2066 2928 1684 2928 
Q 1309 2928 1046 2623 
Q 784 2319 784 1719 
z
" transform="scale(0.015625)"/>
       <path id="ArialMT-2d" d="M 203 1375 
L 203 1941 
L 1931 1941 
L 1931 1375 
L 203 1375 
z
" transform="scale(0.015625)"/>
       <path id="ArialMT-52" d="M 503 0 
L 503 4581 
L 2534 4581 
Q 3147 4581 3465 4457 
Q 3784 4334 3975 4021 
Q 4166 3709 4166 3331 
Q 4166 2844 3850 2509 
Q 3534 2175 2875 2084 
Q 3116 1969 3241 1856 
Q 3506 1613 3744 1247 
L 4541 0 
L 3778 0 
L 3172 953 
Q 2906 1366 2734 1584 
Q 2563 1803 2427 1890 
Q 2291 1978 2150 2013 
Q 2047 2034 1813 2034 
L 1109 2034 
L 1109 0 
L 503 0 
z
M 1109 2559 
L 2413 2559 
Q 2828 2559 3062 2645 
Q 3297 2731 3419 2920 
Q 3541 3109 3541 3331 
Q 3541 3656 3305 3865 
Q 3069 4075 2559 4075 
L 1109 4075 
L 1109 2559 
z
" transform="scale(0.015625)"/>
       <path id="ArialMT-4d" d="M 475 0 
L 475 4581 
L 1388 4581 
L 2472 1338 
Q 2622 884 2691 659 
Q 2769 909 2934 1394 
L 4031 4581 
L 4847 4581 
L 4847 0 
L 4263 0 
L 4263 3834 
L 2931 0 
L 2384 0 
L 1059 3900 
L 1059 0 
L 475 0 
z
" transform="scale(0.015625)"/>
       <path id="ArialMT-6c" d="M 409 0 
L 409 4581 
L 972 4581 
L 972 0 
L 409 0 
z
" transform="scale(0.015625)"/>
       <path id="ArialMT-43" d="M 3763 1606 
L 4369 1453 
Q 4178 706 3683 314 
Q 3188 -78 2472 -78 
Q 1731 -78 1267 223 
Q 803 525 561 1097 
Q 319 1669 319 2325 
Q 319 3041 592 3573 
Q 866 4106 1370 4382 
Q 1875 4659 2481 4659 
Q 3169 4659 3637 4309 
Q 4106 3959 4291 3325 
L 3694 3184 
Q 3534 3684 3231 3912 
Q 2928 4141 2469 4141 
Q 1941 4141 1586 3887 
Q 1231 3634 1087 3207 
Q 944 2781 944 2328 
Q 944 1744 1114 1308 
Q 1284 872 1643 656 
Q 2003 441 2422 441 
Q 2931 441 3284 734 
Q 3638 1028 3763 1606 
z
" transform="scale(0.015625)"/>
       <path id="ArialMT-73" d="M 197 991 
L 753 1078 
Q 800 744 1014 566 
Q 1228 388 1613 388 
Q 2000 388 2187 545 
Q 2375 703 2375 916 
Q 2375 1106 2209 1216 
Q 2094 1291 1634 1406 
Q 1016 1563 777 1677 
Q 538 1791 414 1992 
Q 291 2194 291 2438 
Q 291 2659 392 2848 
Q 494 3038 669 3163 
Q 800 3259 1026 3326 
Q 1253 3394 1513 3394 
Q 1903 3394 2198 3281 
Q 2494 3169 2634 2976 
Q 2775 2784 2828 2463 
L 2278 2388 
Q 2241 2644 2061 2787 
Q 1881 2931 1553 2931 
Q 1166 2931 1000 2803 
Q 834 2675 834 2503 
Q 834 2394 903 2306 
Q 972 2216 1119 2156 
Q 1203 2125 1616 2013 
Q 2213 1853 2448 1751 
Q 2684 1650 2818 1456 
Q 2953 1263 2953 975 
Q 2953 694 2789 445 
Q 2625 197 2315 61 
Q 2006 -75 1616 -75 
Q 969 -75 630 194 
Q 291 463 197 991 
z
" transform="scale(0.015625)"/>
       <path id="ArialMT-20ac" d="M 2469 4141 
Q 1944 4141 1588 3888 
Q 1375 3738 1203 3463 
Q 1028 3178 997 2922 
L 3128 2922 
L 3044 2503 
L 947 2503 
Q 944 2438 944 2378 
Q 944 2138 947 2091 
L 2959 2091 
L 2872 1672 
L 1013 1672 
Q 1144 956 1644 656 
Q 2003 441 2422 441 
Q 3006 441 3334 747 
L 3334 103 
Q 2944 -78 2472 -78 
Q 1059 -78 563 1097 
Q 463 1334 391 1672 
L -88 1672 
L 0 2091 
L 328 2091 
Q 319 2222 319 2375 
Q 319 2438 322 2503 
L -88 2503 
L 0 2922 
L 363 2922 
Q 556 3941 1372 4384 
Q 1875 4659 2481 4659 
Q 3063 4659 3459 4406 
L 3334 3825 
Q 2953 4141 2469 4141 
z
" transform="scale(0.015625)"/>
       <path id="ArialMT-2f" d="M 0 -78 
L 1328 4659 
L 1778 4659 
L 453 -78 
L 0 -78 
z
" transform="scale(0.015625)"/>
       <path id="ArialMT-68" d="M 422 0 
L 422 4581 
L 984 4581 
L 984 2938 
Q 1378 3394 1978 3394 
Q 2347 3394 2619 3248 
Q 2891 3103 3008 2847 
Q 3125 2591 3125 2103 
L 3125 0 
L 2563 0 
L 2563 2103 
Q 2563 2525 2380 2717 
Q 2197 2909 1863 2909 
Q 1613 2909 1392 2779 
Q 1172 2650 1078 2428 
Q 984 2206 984 1816 
L 984 0 
L 422 0 
z
" transform="scale(0.015625)"/>
      </defs>
      <use xlink:href="#ArialMT-4c"/>
      <use xlink:href="#ArialMT-6f" transform="translate(55.615234 0)"/>
      <use xlink:href="#ArialMT-6e" transform="translate(111.230469 0)"/>
      <use xlink:href="#ArialMT-67" transform="translate(166.845703 0)"/>
      <use xlink:href="#ArialMT-2d" transform="translate(222.460938 0)"/>
      <use xlink:href="#ArialMT-52" transform="translate(255.761719 0)"/>
      <use xlink:href="#ArialMT-75" transform="translate(327.978516 0)"/>
      <use xlink:href="#ArialMT-6e" transform="translate(383.59375 0)"/>
      <use xlink:href="#ArialMT-20" transform="translate(439.208984 0)"/>
      <use xlink:href="#ArialMT-4d" transform="translate(466.992188 0)"/>
      <use xlink:href="#ArialMT-61" transform="translate(550.292969 0)"/>
      <use xlink:href="#ArialMT-72" transform="translate(605.908203 0)"/>
      <use xlink:href="#ArialMT-67" transform="translate(639.208984 0)"/>
      <use xlink:href="#ArialMT-69" transform="translate(694.824219 0)"/>
      <use xlink:href="#ArialMT-6e" transform="translate(717.041016 0)"/>
      <use xlink:href="#ArialMT-61" transform="translate(772.65625 0)"/>
      <use xlink:href="#ArialMT-6c" transform="translate(828.271484 0)"/>
      <use xlink:href="#ArialMT-20" transform="translate(850.488281 0)"/>
      <use xlink:href="#ArialMT-43" transform="translate(878.271484 0)"/>
      <use xlink:href="#ArialMT-6f" transform="translate(950.488281 0)"/>
      <use xlink:href="#ArialMT-73" transform="translate(1006.103516 0)"/>
      <use xlink:href="#ArialMT-74" transform="translate(1056.103516 0)"/>
      <use xlink:href="#ArialMT-20" transform="translate(1083.886719 0)"/>
      <use xlink:href="#ArialMT-28" transform="translate(1111.669922 0)"/>
      <use xlink:href="#ArialMT-4d" transform="translate(1144.970703 0)"/>
      <use xlink:href="#ArialMT-20ac" transform="translate(1228.271484 0)"/>
      <use xlink:href="#ArialMT-2f" transform="translate(1283.886719 0)"/>
      <use xlink:href="#ArialMT-47" transform="translate(1311.669922 0)"/>
      <use xlink:href="#ArialMT-57" transform="translate(1389.453125 0)"/>
      <use xlink:href="#ArialMT-68" transform="translate(1483.837891 0)"/>
      <use xlink:href="#ArialMT-29" transform="translate(1539.453125 0)"/>
     </g>
    </g>
   </g>
   <g id="line2d_31">
    <path d="M 56.8593 392.324295 
L 66.259203 391.483963 
L 75.659106 390.643631 
L 85.059009 389.803298 
L 94.458912 388.962966 
L 103.858815 388.122634 
L 113.258718 387.282301 
L 122.658621 386.441969 
L 132.058524 385.601637 
L 141.458427 384.761305 
L 150.85833 383.920972 
L 160.258233 383.08064 
L 169.658136 382.240308 
L 179.058039 381.399975 
L 188.457942 380.559643 
L 197.857845 379.719311 
L 207.257748 378.878979 
L 216.657652 378.038646 
L 226.057555 377.198314 
L 235.457458 376.357982 
L 244.857361 375.51765 
L 254.257264 374.677317 
L 263.657167 373.836985 
L 273.05707 372.996653 
L 282.456973 372.15632 
L 291.856876 371.315988 
L 301.256779 370.475656 
L 310.656682 369.635324 
L 320.056585 368.794991 
L 329.456488 367.954659 
L 338.856391 367.114327 
L 348.256294 366.273994 
L 357.656197 365.433662 
L 367.0561 364.59333 
L 376.456003 363.752998 
L 385.855906 362.912665 
L 395.255809 362.072333 
L 404.655712 361.232001 
L 414.055615 360.391669 
L 423.455518 359.551336 
L 432.855421 358.711004 
L 442.255324 357.870672 
L 451.655227 357.030339 
L 461.05513 356.190007 
L 470.455033 355.349675 
L 479.854936 354.509343 
L 489.254839 353.66901 
L 498.654742 352.828678 
L 508.054645 351.988346 
L 517.454548 351.148013 
L 526.854452 350.307681 
L 536.254355 349.467349 
L 545.654258 348.627017 
L 555.054161 347.786684 
L 564.454064 346.946352 
L 573.853967 346.10602 
L 583.25387 345.265688 
L 592.653773 344.425355 
L 602.053676 343.585023 
L 611.453579 342.744691 
L 620.853482 341.904358 
L 630.253385 341.064026 
L 639.653288 340.223694 
L 649.053191 339.383362 
L 658.453094 338.543029 
L 667.852997 337.702697 
L 677.2529 336.862365 
L 686.652803 336.022032 
L 696.052706 335.1817 
L 705.452609 334.341368 
L 714.852512 333.501036 
L 724.252415 332.660703 
L 733.652318 331.820371 
L 743.052221 330.980039 
L 752.452124 330.139707 
L 761.852027 329.299374 
L 771.25193 328.459042 
L 780.651833 327.61871 
L 790.051736 326.778377 
L 799.451639 325.938045 
L 808.851542 325.097713 
L 818.251445 324.257381 
L 827.651348 323.417048 
L 837.051252 322.576716 
L 846.451155 321.736384 
L 855.851058 320.896051 
L 865.250961 320.055719 
L 874.650864 319.215387 
L 884.050767 318.375055 
L 893.45067 317.534722 
L 902.850573 316.69439 
L 912.250476 315.854058 
L 921.650379 315.013726 
L 931.050282 314.173393 
L 940.450185 313.333061 
L 949.850088 312.492729 
L 959.249991 311.652396 
L 968.649894 310.812064 
L 978.049797 309.971732 
L 987.4497 309.1314 
" clip-path="url(#pd47fabdc2e)" style="fill: none; stroke: #8b4513; stroke-opacity: 0.8; stroke-width: 2.5; stroke-linecap: round"/>
   </g>
   <g id="line2d_32">
    <path d="M 56.8593 392.324295 
L 987.4497 392.324295 
" clip-path="url(#pd47fabdc2e)" style="fill: none; stroke-dasharray: 3.7,1.6; stroke-dashoffset: 0; stroke: #8b4513; stroke-opacity: 0.2"/>
   </g>
   <g id="line2d_33">
    <path d="M 56.8593 315.236553 
L 66.259203 314.564288 
L 75.659106 313.892022 
L 85.059009 313.219756 
L 94.458912 312.54749 
L 103.858815 311.875224 
L 113.258718 311.202958 
L 122.658621 310.530693 
L 132.058524 309.858427 
L 141.458427 309.186161 
L 150.85833 308.513895 
L 160.258233 307.841629 
L 169.658136 307.169363 
L 179.058039 306.497098 
L 188.457942 305.824832 
L 197.857845 305.152566 
L 207.257748 304.4803 
L 216.657652 303.808034 
L 226.057555 303.135769 
L 235.457458 302.463503 
L 244.857361 301.791237 
L 254.257264 301.118971 
L 263.657167 300.446705 
L 273.05707 299.774439 
L 282.456973 299.102174 
L 291.856876 298.429908 
L 301.256779 297.757642 
L 310.656682 297.085376 
L 320.056585 296.41311 
L 329.456488 295.740845 
L 338.856391 295.068579 
L 348.256294 294.396313 
L 357.656197 293.724047 
L 367.0561 293.051781 
L 376.456003 292.379515 
L 385.855906 291.70725 
L 395.255809 291.034984 
L 404.655712 290.362718 
L 414.055615 289.690452 
L 423.455518 289.018186 
L 432.855421 288.34592 
L 442.255324 287.673655 
L 451.655227 287.001389 
L 461.05513 286.329123 
L 470.455033 285.656857 
L 479.854936 284.984591 
L 489.254839 284.312326 
L 498.654742 283.64006 
L 508.054645 282.967794 
L 517.454548 282.295528 
L 526.854452 281.623262 
L 536.254355 280.950996 
L 545.654258 280.278731 
L 555.054161 279.606465 
L 564.454064 278.934199 
L 573.853967 278.261933 
L 583.25387 277.589667 
L 592.653773 276.917401 
L 602.053676 276.245136 
L 611.453579 275.57287 
L 620.853482 274.900604 
L 630.253385 274.228338 
L 639.653288 273.556072 
L 649.053191 272.883807 
L 658.453094 272.211541 
L 667.852997 271.539275 
L 677.2529 270.867009 
L 686.652803 270.194743 
L 696.052706 269.522477 
L 705.452609 268.850212 
L 714.852512 268.177946 
L 724.252415 267.50568 
L 733.652318 266.833414 
L 743.052221 266.161148 
L 752.452124 265.488883 
L 761.852027 264.816617 
L 771.25193 264.144351 
L 780.651833 263.472085 
L 790.051736 262.799819 
L 799.451639 262.127553 
L 808.851542 261.455288 
L 818.251445 260.783022 
L 827.651348 260.110756 
L 837.051252 259.43849 
L 846.451155 258.766224 
L 855.851058 258.093958 
L 865.250961 257.421693 
L 874.650864 256.749427 
L 884.050767 256.077161 
L 893.45067 255.404895 
L 902.850573 254.732629 
L 912.250476 254.060364 
L 921.650379 253.388098 
L 931.050282 252.715832 
L 940.450185 252.043566 
L 949.850088 251.3713 
L 959.249991 250.699034 
L 968.649894 250.026769 
L 978.049797 249.354503 
L 987.4497 248.682237 
" clip-path="url(#pd47fabdc2e)" style="fill: none; stroke: #ff8c00; stroke-opacity: 0.8; stroke-width: 2.5; stroke-linecap: round"/>
   </g>
   <g id="line2d_34">
    <path d="M 56.8593 315.236553 
L 987.4497 315.236553 
" clip-path="url(#pd47fabdc2e)" style="fill: none; stroke-dasharray: 3.7,1.6; stroke-dashoffset: 0; stroke: #ff8c00; stroke-opacity: 0.2"/>
   </g>
   <g id="line2d_35">
    <path d="M 56.8593 161.19674 
L 66.259203 160.524474 
L 75.659106 159.852208 
L 85.059009 159.179943 
L 94.458912 158.507677 
L 103.858815 157.835411 
L 113.258718 157.163145 
L 122.658621 156.490879 
L 132.058524 155.818613 
L 141.458427 155.146348 
L 150.85833 154.474082 
L 160.258233 153.801816 
L 169.658136 153.12955 
L 179.058039 152.457284 
L 188.457942 151.785019 
L 197.857845 151.112753 
L 207.257748 150.440487 
L 216.657652 149.768221 
L 226.057555 149.095955 
L 235.457458 148.423689 
L 244.857361 147.751424 
L 254.257264 147.079158 
L 263.657167 146.406892 
L 273.05707 145.734626 
L 282.456973 145.06236 
L 291.856876 144.390094 
L 301.256779 143.717829 
L 310.656682 143.045563 
L 320.056585 142.373297 
L 329.456488 141.701031 
L 338.856391 141.028765 
L 348.256294 140.3565 
L 357.656197 139.684234 
L 367.0561 139.011968 
L 376.456003 138.339702 
L 385.855906 137.667436 
L 395.255809 136.99517 
L 404.655712 136.322905 
L 414.055615 135.650639 
L 423.455518 134.978373 
L 432.855421 134.306107 
L 442.255324 133.633841 
L 451.655227 132.961575 
L 461.05513 132.28931 
L 470.455033 131.617044 
L 479.854936 130.944778 
L 489.254839 130.272512 
L 498.654742 129.600246 
L 508.054645 128.927981 
L 517.454548 128.255715 
L 526.854452 127.583449 
L 536.254355 126.911183 
L 545.654258 126.238917 
L 555.054161 125.566651 
L 564.454064 124.894386 
L 573.853967 124.22212 
L 583.25387 123.549854 
L 592.653773 122.877588 
L 602.053676 122.205322 
L 611.453579 121.533057 
L 620.853482 120.860791 
L 630.253385 120.188525 
L 639.653288 119.516259 
L 649.053191 118.843993 
L 658.453094 118.171727 
L 667.852997 117.499462 
L 677.2529 116.827196 
L 686.652803 116.15493 
L 696.052706 115.482664 
L 705.452609 114.810398 
L 714.852512 114.138132 
L 724.252415 113.465867 
L 733.652318 112.793601 
L 743.052221 112.121335 
L 752.452124 111.449069 
L 761.852027 110.776803 
L 771.25193 110.104538 
L 780.651833 109.432272 
L 790.051736 108.760006 
L 799.451639 108.08774 
L 808.851542 107.415474 
L 818.251445 106.743208 
L 827.651348 106.070943 
L 837.051252 105.398677 
L 846.451155 104.726411 
L 855.851058 104.054145 
L 865.250961 103.381879 
L 874.650864 102.709613 
L 884.050767 102.037348 
L 893.45067 101.365082 
L 902.850573 100.692816 
L 912.250476 100.02055 
L 921.650379 99.348284 
L 931.050282 98.676019 
L 940.450185 98.003753 
L 949.850088 97.331487 
L 959.249991 96.659221 
L 968.649894 95.986955 
L 978.049797 95.314689 
L 987.4497 94.642424 
" clip-path="url(#pd47fabdc2e)" style="fill: none; stroke: #dc143c; stroke-opacity: 0.8; stroke-width: 2.5; stroke-linecap: round"/>
   </g>
   <g id="line2d_36">
    <path d="M 56.8593 161.19674 
L 987.4497 161.19674 
" clip-path="url(#pd47fabdc2e)" style="fill: none; stroke-dasharray: 3.7,1.6; stroke-dashoffset: 0; stroke: #dc143c; stroke-opacity: 0.2"/>
   </g>
   <g id="line2d_37">
    <path d="M 56.8593 643.259682 
L 66.259203 643.259682 
L 75.659106 643.259682 
L 85.059009 643.259682 
L 94.458912 643.259682 
L 103.858815 643.259682 
L 113.258718 643.259682 
L 122.658621 643.259682 
L 132.058524 643.259682 
L 141.458427 643.259682 
L 150.85833 643.259682 
L 160.258233 643.259682 
L 169.658136 643.259682 
L 179.058039 643.259682 
L 188.457942 643.259682 
L 197.857845 643.259682 
L 207.257748 643.259682 
L 216.657652 643.259682 
L 226.057555 643.259682 
L 235.457458 643.259682 
L 244.857361 643.259682 
L 254.257264 643.259682 
L 263.657167 643.259682 
L 273.05707 643.259682 
L 282.456973 643.259682 
L 291.856876 643.259682 
L 301.256779 643.259682 
L 310.656682 643.259682 
L 320.056585 643.259682 
L 329.456488 643.259682 
L 338.856391 643.259682 
L 348.256294 643.259682 
L 357.656197 643.259682 
L 367.0561 643.259682 
L 376.456003 643.259682 
L 385.855906 643.259682 
L 395.255809 643.259682 
L 404.655712 643.259682 
L 414.055615 643.259682 
L 423.455518 643.259682 
L 432.855421 643.259682 
L 442.255324 643.259682 
L 451.655227 643.259682 
L 461.05513 643.259682 
L 470.455033 643.259682 
L 479.854936 643.259682 
L 489.254839 643.259682 
L 498.654742 643.259682 
L 508.054645 643.259682 
L 517.454548 643.259682 
L 526.854452 643.259682 
L 536.254355 643.259682 
L 545.654258 643.259682 
L 555.054161 643.259682 
L 564.454064 643.259682 
L 573.853967 643.259682 
L 583.25387 643.259682 
L 592.653773 643.259682 
L 602.053676 643.259682 
L 611.453579 643.259682 
L 620.853482 643.259682 
L 630.253385 643.259682 
L 639.653288 643.259682 
L 649.053191 643.259682 
L 658.453094 643.259682 
L 667.852997 643.259682 
L 677.2529 643.259682 
L 686.652803 643.259682 
L 696.052706 643.259682 
L 705.452609 643.259682 
L 714.852512 643.259682 
L 724.252415 643.259682 
L 733.652318 643.259682 
L 743.052221 643.259682 
L 752.452124 643.259682 
L 761.852027 643.259682 
L 771.25193 643.259682 
L 780.651833 643.259682 
L 790.051736 643.259682 
L 799.451639 643.259682 
L 808.851542 643.259682 
L 818.251445 643.259682 
L 827.651348 643.259682 
L 837.051252 643.259682 
L 846.451155 643.259682 
L 855.851058 643.259682 
L 865.250961 643.259682 
L 874.650864 643.259682 
L 884.050767 643.259682 
L 893.45067 643.259682 
L 902.850573 643.259682 
L 912.250476 643.259682 
L 921.650379 643.259682 
L 931.050282 643.259682 
L 940.450185 643.259682 
L 949.850088 643.259682 
L 959.249991 643.259682 
L 968.649894 643.259682 
L 978.049797 643.259682 
L 987.4497 643.259682 
" clip-path="url(#pd47fabdc2e)" style="fill: none; stroke: #2e8b57; stroke-opacity: 0.8; stroke-width: 2.5; stroke-linecap: round"/>
   </g>
   <g id="line2d_38">
    <path d="M 56.8593 643.259682 
L 987.4497 643.259682 
" clip-path="url(#pd47fabdc2e)" style="fill: none; stroke-dasharray: 3.7,1.6; stroke-dashoffset: 0; stroke: #2e8b57; stroke-opacity: 0.2"/>
   </g>
   <g id="patch_3">
    <path d="M 56.8593 671.7504 
L 56.8593 73.5365 
" style="fill: none; stroke: #cccccc; stroke-linejoin: miter; stroke-linecap: square"/>
   </g>
   <g id="patch_4">
    <path d="M 987.4497 671.7504 
L 987.4497 73.5365 
" style="fill: none; stroke: #cccccc; stroke-linejoin: miter; stroke-linecap: square"/>
   </g>
   <g id="patch_5">
    <path d="M 56.8593 671.7504 
L 987.4497 671.7504 
" style="fill: none; stroke: #cccccc; stroke-linejoin: miter; stroke-linecap: square"/>
   </g>
   <g id="patch_6">
    <path d="M 56.8593 73.5365 
L 987.4497 73.5365 
" style="fill: none; stroke: #cccccc; stroke-linejoin: miter; stroke-linecap: square"/>
   </g>
   <g id="text_18">
    <g id="patch_7">
     <path d="M 809.277736 499.929363 
L 968.837892 499.929363 
Q 972.137892 499.929363 972.137892 496.629363 
L 972.137892 427.992801 
Q 972.137892 424.692801 968.837892 424.692801 
L 809.277736 424.692801 
Q 805.977736 424.692801 805.977736 427.992801 
L 805.977736 496.629363 
Q 805.977736 499.929363 809.277736 499.929363 
z
" style="fill: #f5deb3; opacity: 0.8; stroke: #000000; stroke-width: 0.8; stroke-linejoin: miter"/>
    </g>
    <!-- Merit Order @ 1GW: -->
    <g style="fill: #262626" transform="translate(868.026329 436.141394) scale(0.11 -0.11)">
     <defs>
      <path id="ArialMT-64" d="M 2575 0 
L 2575 419 
Q 2259 -75 1647 -75 
Q 1250 -75 917 144 
Q 584 363 401 755 
Q 219 1147 219 1656 
Q 219 2153 384 2558 
Q 550 2963 881 3178 
Q 1213 3394 1622 3394 
Q 1922 3394 2156 3267 
Q 2391 3141 2538 2938 
L 2538 4581 
L 3097 4581 
L 3097 0 
L 2575 0 
z
M 797 1656 
Q 797 1019 1065 703 
Q 1334 388 1700 388 
Q 2069 388 2326 689 
Q 2584 991 2584 1609 
Q 2584 2291 2321 2609 
Q 2059 2928 1675 2928 
Q 1300 2928 1048 2622 
Q 797 2316 797 1656 
z
" transform="scale(0.015625)"/>
      <path id="ArialMT-40" d="M 3628 509 
Q 3425 275 3173 133 
Q 2922 -9 2669 -9 
Q 2391 -9 2128 153 
Q 1866 316 1702 653 
Q 1538 991 1538 1394 
Q 1538 1891 1792 2389 
Q 2047 2888 2425 3138 
Q 2803 3388 3159 3388 
Q 3431 3388 3678 3245 
Q 3925 3103 4103 2813 
L 4209 3297 
L 4769 3297 
L 4319 1200 
Q 4225 763 4225 716 
Q 4225 631 4289 570 
Q 4353 509 4444 509 
Q 4609 509 4878 700 
Q 5234 950 5442 1370 
Q 5650 1791 5650 2238 
Q 5650 2759 5383 3212 
Q 5116 3666 4586 3937 
Q 4056 4209 3416 4209 
Q 2684 4209 2079 3867 
Q 1475 3525 1142 2886 
Q 809 2247 809 1516 
Q 809 750 1142 197 
Q 1475 -356 2104 -620 
Q 2734 -884 3500 -884 
Q 4319 -884 4872 -609 
Q 5425 -334 5700 59 
L 6266 59 
Q 6106 -269 5718 -609 
Q 5331 -950 4797 -1148 
Q 4263 -1347 3509 -1347 
Q 2816 -1347 2230 -1169 
Q 1644 -991 1231 -633 
Q 819 -275 609 191 
Q 347 781 347 1466 
Q 347 2228 659 2919 
Q 1041 3766 1742 4216 
Q 2444 4666 3444 4666 
Q 4219 4666 4836 4348 
Q 5453 4031 5809 3403 
Q 6113 2863 6113 2228 
Q 6113 1322 5475 619 
Q 4906 -13 4231 -13 
Q 4016 -13 3883 53 
Q 3750 119 3688 241 
Q 3647 319 3628 509 
z
M 2116 1356 
Q 2116 928 2319 690 
Q 2522 453 2784 453 
Q 2959 453 3153 558 
Q 3347 663 3523 869 
Q 3700 1075 3812 1392 
Q 3925 1709 3925 2028 
Q 3925 2453 3714 2687 
Q 3503 2922 3200 2922 
Q 3000 2922 2823 2820 
Q 2647 2719 2481 2494 
Q 2316 2269 2216 1947 
Q 2116 1625 2116 1356 
z
" transform="scale(0.015625)"/>
      <path id="ArialMT-3a" d="M 578 2678 
L 578 3319 
L 1219 3319 
L 1219 2678 
L 578 2678 
z
M 578 0 
L 578 641 
L 1219 641 
L 1219 0 
L 578 0 
z
" transform="scale(0.015625)"/>
     </defs>
     <use xlink:href="#ArialMT-4d"/>
     <use xlink:href="#ArialMT-65" transform="translate(83.300781 0)"/>
     <use xlink:href="#ArialMT-72" transform="translate(138.916016 0)"/>
     <use xlink:href="#ArialMT-69" transform="translate(172.216797 0)"/>
     <use xlink:href="#ArialMT-74" transform="translate(194.433594 0)"/>
     <use xlink:href="#ArialMT-20" transform="translate(222.216797 0)"/>
     <use xlink:href="#ArialMT-4f" transform="translate(250 0)"/>
     <use xlink:href="#ArialMT-72" transform="translate(327.783203 0)"/>
     <use xlink:href="#ArialMT-64" transform="translate(361.083984 0)"/>
     <use xlink:href="#ArialMT-65" transform="translate(416.699219 0)"/>
     <use xlink:href="#ArialMT-72" transform="translate(472.314453 0)"/>
     <use xlink:href="#ArialMT-20" transform="translate(505.615234 0)"/>
     <use xlink:href="#ArialMT-40" transform="translate(533.398438 0)"/>
     <use xlink:href="#ArialMT-20" transform="translate(634.912109 0)"/>
     <use xlink:href="#ArialMT-31" transform="translate(662.695312 0)"/>
     <use xlink:href="#ArialMT-47" transform="translate(718.310547 0)"/>
     <use xlink:href="#ArialMT-57" transform="translate(796.09375 0)"/>
     <use xlink:href="#ArialMT-3a" transform="translate(888.728516 0)"/>
    </g>
    <!-- 1. WindOnshore: 0.009 M€/GWh -->
    <g style="fill: #262626" transform="translate(809.277736 447.904863) scale(0.11 -0.11)">
     <defs>
      <path id="ArialMT-39" d="M 350 1059 
L 891 1109 
Q 959 728 1153 556 
Q 1347 384 1650 384 
Q 1909 384 2104 503 
Q 2300 622 2425 820 
Q 2550 1019 2634 1356 
Q 2719 1694 2719 2044 
Q 2719 2081 2716 2156 
Q 2547 1888 2255 1720 
Q 1963 1553 1622 1553 
Q 1053 1553 659 1965 
Q 266 2378 266 3053 
Q 266 3750 677 4175 
Q 1088 4600 1706 4600 
Q 2153 4600 2523 4359 
Q 2894 4119 3086 3673 
Q 3278 3228 3278 2384 
Q 3278 1506 3087 986 
Q 2897 466 2520 194 
Q 2144 -78 1638 -78 
Q 1100 -78 759 220 
Q 419 519 350 1059 
z
M 2653 3081 
Q 2653 3566 2395 3850 
Q 2138 4134 1775 4134 
Q 1400 4134 1122 3828 
Q 844 3522 844 3034 
Q 844 2597 1108 2323 
Q 1372 2050 1759 2050 
Q 2150 2050 2401 2323 
Q 2653 2597 2653 3081 
z
" transform="scale(0.015625)"/>
     </defs>
     <use xlink:href="#ArialMT-31"/>
     <use xlink:href="#ArialMT-2e" transform="translate(55.615234 0)"/>
     <use xlink:href="#ArialMT-20" transform="translate(83.398438 0)"/>
     <use xlink:href="#ArialMT-57" transform="translate(111.181641 0)"/>
     <use xlink:href="#ArialMT-69" transform="translate(205.566406 0)"/>
     <use xlink:href="#ArialMT-6e" transform="translate(227.783203 0)"/>
     <use xlink:href="#ArialMT-64" transform="translate(283.398438 0)"/>
     <use xlink:href="#ArialMT-4f" transform="translate(339.013672 0)"/>
     <use xlink:href="#ArialMT-6e" transform="translate(416.796875 0)"/>
     <use xlink:href="#ArialMT-73" transform="translate(472.412109 0)"/>
     <use xlink:href="#ArialMT-68" transform="translate(522.412109 0)"/>
     <use xlink:href="#ArialMT-6f" transform="translate(578.027344 0)"/>
     <use xlink:href="#ArialMT-72" transform="translate(633.642578 0)"/>
     <use xlink:href="#ArialMT-65" transform="translate(666.943359 0)"/>
     <use xlink:href="#ArialMT-3a" transform="translate(722.558594 0)"/>
     <use xlink:href="#ArialMT-20" transform="translate(750.341797 0)"/>
     <use xlink:href="#ArialMT-30" transform="translate(778.125 0)"/>
     <use xlink:href="#ArialMT-2e" transform="translate(833.740234 0)"/>
     <use xlink:href="#ArialMT-30" transform="translate(861.523438 0)"/>
     <use xlink:href="#ArialMT-30" transform="translate(917.138672 0)"/>
     <use xlink:href="#ArialMT-39" transform="translate(972.753906 0)"/>
     <use xlink:href="#ArialMT-20" transform="translate(1028.369141 0)"/>
     <use xlink:href="#ArialMT-4d" transform="translate(1056.152344 0)"/>
     <use xlink:href="#ArialMT-20ac" transform="translate(1139.453125 0)"/>
     <use xlink:href="#ArialMT-2f" transform="translate(1195.068359 0)"/>
     <use xlink:href="#ArialMT-47" transform="translate(1222.851562 0)"/>
     <use xlink:href="#ArialMT-57" transform="translate(1300.634766 0)"/>
     <use xlink:href="#ArialMT-68" transform="translate(1395.019531 0)"/>
    </g>
    <!-- 2. Baseload: 0.086 M€/GWh -->
    <g style="fill: #262626" transform="translate(830.658986 459.539426) scale(0.11 -0.11)">
     <defs>
      <path id="ArialMT-42" d="M 469 0 
L 469 4581 
L 2188 4581 
Q 2713 4581 3030 4442 
Q 3347 4303 3526 4014 
Q 3706 3725 3706 3409 
Q 3706 3116 3547 2856 
Q 3388 2597 3066 2438 
Q 3481 2316 3704 2022 
Q 3928 1728 3928 1328 
Q 3928 1006 3792 729 
Q 3656 453 3456 303 
Q 3256 153 2954 76 
Q 2653 0 2216 0 
L 469 0 
z
M 1075 2656 
L 2066 2656 
Q 2469 2656 2644 2709 
Q 2875 2778 2992 2937 
Q 3109 3097 3109 3338 
Q 3109 3566 3000 3739 
Q 2891 3913 2687 3977 
Q 2484 4041 1991 4041 
L 1075 4041 
L 1075 2656 
z
M 1075 541 
L 2216 541 
Q 2509 541 2628 563 
Q 2838 600 2978 687 
Q 3119 775 3209 942 
Q 3300 1109 3300 1328 
Q 3300 1584 3169 1773 
Q 3038 1963 2805 2039 
Q 2572 2116 2134 2116 
L 1075 2116 
L 1075 541 
z
" transform="scale(0.015625)"/>
     </defs>
     <use xlink:href="#ArialMT-32"/>
     <use xlink:href="#ArialMT-2e" transform="translate(55.615234 0)"/>
     <use xlink:href="#ArialMT-20" transform="translate(83.398438 0)"/>
     <use xlink:href="#ArialMT-42" transform="translate(111.181641 0)"/>
     <use xlink:href="#ArialMT-61" transform="translate(177.880859 0)"/>
     <use xlink:href="#ArialMT-73" transform="translate(233.496094 0)"/>
     <use xlink:href="#ArialMT-65" transform="translate(283.496094 0)"/>
     <use xlink:href="#ArialMT-6c" transform="translate(339.111328 0)"/>
     <use xlink:href="#ArialMT-6f" transform="translate(361.328125 0)"/>
     <use xlink:href="#ArialMT-61" transform="translate(416.943359 0)"/>
     <use xlink:href="#ArialMT-64" transform="translate(472.558594 0)"/>
     <use xlink:href="#ArialMT-3a" transform="translate(528.173828 0)"/>
     <use xlink:href="#ArialMT-20" transform="translate(555.957031 0)"/>
     <use xlink:href="#ArialMT-30" transform="translate(583.740234 0)"/>
     <use xlink:href="#ArialMT-2e" transform="translate(639.355469 0)"/>
     <use xlink:href="#ArialMT-30" transform="translate(667.138672 0)"/>
     <use xlink:href="#ArialMT-38" transform="translate(722.753906 0)"/>
     <use xlink:href="#ArialMT-36" transform="translate(778.369141 0)"/>
     <use xlink:href="#ArialMT-20" transform="translate(833.984375 0)"/>
     <use xlink:href="#ArialMT-4d" transform="translate(861.767578 0)"/>
     <use xlink:href="#ArialMT-20ac" transform="translate(945.068359 0)"/>
     <use xlink:href="#ArialMT-2f" transform="translate(1000.683594 0)"/>
     <use xlink:href="#ArialMT-47" transform="translate(1028.466797 0)"/>
     <use xlink:href="#ArialMT-57" transform="translate(1106.25 0)"/>
     <use xlink:href="#ArialMT-68" transform="translate(1200.634766 0)"/>
    </g>
    <!-- 3. MidMerit: 0.109 M€/GWh -->
    <g style="fill: #262626" transform="translate(834.359454 471.173988) scale(0.11 -0.11)">
     <defs>
      <path id="ArialMT-33" d="M 269 1209 
L 831 1284 
Q 928 806 1161 595 
Q 1394 384 1728 384 
Q 2125 384 2398 659 
Q 2672 934 2672 1341 
Q 2672 1728 2419 1979 
Q 2166 2231 1775 2231 
Q 1616 2231 1378 2169 
L 1441 2663 
Q 1497 2656 1531 2656 
Q 1891 2656 2178 2843 
Q 2466 3031 2466 3422 
Q 2466 3731 2256 3934 
Q 2047 4138 1716 4138 
Q 1388 4138 1169 3931 
Q 950 3725 888 3313 
L 325 3413 
Q 428 3978 793 4289 
Q 1159 4600 1703 4600 
Q 2078 4600 2393 4439 
Q 2709 4278 2876 4000 
Q 3044 3722 3044 3409 
Q 3044 3113 2884 2869 
Q 2725 2625 2413 2481 
Q 2819 2388 3044 2092 
Q 3269 1797 3269 1353 
Q 3269 753 2831 336 
Q 2394 -81 1725 -81 
Q 1122 -81 723 278 
Q 325 638 269 1209 
z
" transform="scale(0.015625)"/>
     </defs>
     <use xlink:href="#ArialMT-33"/>
     <use xlink:href="#ArialMT-2e" transform="translate(55.615234 0)"/>
     <use xlink:href="#ArialMT-20" transform="translate(83.398438 0)"/>
     <use xlink:href="#ArialMT-4d" transform="translate(111.181641 0)"/>
     <use xlink:href="#ArialMT-69" transform="translate(194.482422 0)"/>
     <use xlink:href="#ArialMT-64" transform="translate(216.699219 0)"/>
     <use xlink:href="#ArialMT-4d" transform="translate(272.314453 0)"/>
     <use xlink:href="#ArialMT-65" transform="translate(355.615234 0)"/>
     <use xlink:href="#ArialMT-72" transform="translate(411.230469 0)"/>
     <use xlink:href="#ArialMT-69" transform="translate(444.53125 0)"/>
     <use xlink:href="#ArialMT-74" transform="translate(466.748047 0)"/>
     <use xlink:href="#ArialMT-3a" transform="translate(494.53125 0)"/>
     <use xlink:href="#ArialMT-20" transform="translate(522.314453 0)"/>
     <use xlink:href="#ArialMT-30" transform="translate(550.097656 0)"/>
     <use xlink:href="#ArialMT-2e" transform="translate(605.712891 0)"/>
     <use xlink:href="#ArialMT-31" transform="translate(633.496094 0)"/>
     <use xlink:href="#ArialMT-30" transform="translate(689.111328 0)"/>
     <use xlink:href="#ArialMT-39" transform="translate(744.726562 0)"/>
     <use xlink:href="#ArialMT-20" transform="translate(800.341797 0)"/>
     <use xlink:href="#ArialMT-4d" transform="translate(828.125 0)"/>
     <use xlink:href="#ArialMT-20ac" transform="translate(911.425781 0)"/>
     <use xlink:href="#ArialMT-2f" transform="translate(967.041016 0)"/>
     <use xlink:href="#ArialMT-47" transform="translate(994.824219 0)"/>
     <use xlink:href="#ArialMT-57" transform="translate(1072.607422 0)"/>
     <use xlink:href="#ArialMT-68" transform="translate(1166.992188 0)"/>
    </g>
    <!-- 4. Peak: 0.155 M€/GWh -->
    <g style="fill: #262626" transform="translate(851.454142 482.808551) scale(0.11 -0.11)">
     <defs>
      <path id="ArialMT-50" d="M 494 0 
L 494 4581 
L 2222 4581 
Q 2678 4581 2919 4538 
Q 3256 4481 3484 4323 
Q 3713 4166 3852 3881 
Q 3991 3597 3991 3256 
Q 3991 2672 3619 2267 
Q 3247 1863 2275 1863 
L 1100 1863 
L 1100 0 
L 494 0 
z
M 1100 2403 
L 2284 2403 
Q 2872 2403 3119 2622 
Q 3366 2841 3366 3238 
Q 3366 3525 3220 3729 
Q 3075 3934 2838 4000 
Q 2684 4041 2272 4041 
L 1100 4041 
L 1100 2403 
z
" transform="scale(0.015625)"/>
      <path id="ArialMT-6b" d="M 425 0 
L 425 4581 
L 988 4581 
L 988 1969 
L 2319 3319 
L 3047 3319 
L 1778 2088 
L 3175 0 
L 2481 0 
L 1384 1697 
L 988 1316 
L 988 0 
L 425 0 
z
" transform="scale(0.015625)"/>
      <path id="ArialMT-35" d="M 266 1200 
L 856 1250 
Q 922 819 1161 601 
Q 1400 384 1738 384 
Q 2144 384 2425 690 
Q 2706 997 2706 1503 
Q 2706 1984 2436 2262 
Q 2166 2541 1728 2541 
Q 1456 2541 1237 2417 
Q 1019 2294 894 2097 
L 366 2166 
L 809 4519 
L 3088 4519 
L 3088 3981 
L 1259 3981 
L 1013 2750 
Q 1425 3038 1878 3038 
Q 2478 3038 2890 2622 
Q 3303 2206 3303 1553 
Q 3303 931 2941 478 
Q 2500 -78 1738 -78 
Q 1113 -78 717 272 
Q 322 622 266 1200 
z
" transform="scale(0.015625)"/>
     </defs>
     <use xlink:href="#ArialMT-34"/>
     <use xlink:href="#ArialMT-2e" transform="translate(55.615234 0)"/>
     <use xlink:href="#ArialMT-20" transform="translate(83.398438 0)"/>
     <use xlink:href="#ArialMT-50" transform="translate(111.181641 0)"/>
     <use xlink:href="#ArialMT-65" transform="translate(177.880859 0)"/>
     <use xlink:href="#ArialMT-61" transform="translate(233.496094 0)"/>
     <use xlink:href="#ArialMT-6b" transform="translate(289.111328 0)"/>
     <use xlink:href="#ArialMT-3a" transform="translate(339.111328 0)"/>
     <use xlink:href="#ArialMT-20" transform="translate(366.894531 0)"/>
     <use xlink:href="#ArialMT-30" transform="translate(394.677734 0)"/>
     <use xlink:href="#ArialMT-2e" transform="translate(450.292969 0)"/>
     <use xlink:href="#ArialMT-31" transform="translate(478.076172 0)"/>
     <use xlink:href="#ArialMT-35" transform="translate(533.691406 0)"/>
     <use xlink:href="#ArialMT-35" transform="translate(589.306641 0)"/>
     <use xlink:href="#ArialMT-20" transform="translate(644.921875 0)"/>
     <use xlink:href="#ArialMT-4d" transform="translate(672.705078 0)"/>
     <use xlink:href="#ArialMT-20ac" transform="translate(756.005859 0)"/>
     <use xlink:href="#ArialMT-2f" transform="translate(811.621094 0)"/>
     <use xlink:href="#ArialMT-47" transform="translate(839.404297 0)"/>
     <use xlink:href="#ArialMT-57" transform="translate(917.1875 0)"/>
     <use xlink:href="#ArialMT-68" transform="translate(1011.572266 0)"/>
    </g>
    <!--  -->
    <g style="fill: #262626" transform="translate(968.837892 494.443113) scale(0.11 -0.11)"/>
   </g>
   <g id="text_19">
    <!-- Long-Run Marginal Cost (LRMC) -->
    <g style="fill: #262626" transform="translate(405.232 18.8475) scale(0.16 -0.16)">
     <use xlink:href="#ArialMT-4c"/>
     <use xlink:href="#ArialMT-6f" transform="translate(55.615234 0)"/>
     <use xlink:href="#ArialMT-6e" transform="translate(111.230469 0)"/>
     <use xlink:href="#ArialMT-67" transform="translate(166.845703 0)"/>
     <use xlink:href="#ArialMT-2d" transform="translate(222.460938 0)"/>
     <use xlink:href="#ArialMT-52" transform="translate(255.761719 0)"/>
     <use xlink:href="#ArialMT-75" transform="translate(327.978516 0)"/>
     <use xlink:href="#ArialMT-6e" transform="translate(383.59375 0)"/>
     <use xlink:href="#ArialMT-20" transform="translate(439.208984 0)"/>
     <use xlink:href="#ArialMT-4d" transform="translate(466.992188 0)"/>
     <use xlink:href="#ArialMT-61" transform="translate(550.292969 0)"/>
     <use xlink:href="#ArialMT-72" transform="translate(605.908203 0)"/>
     <use xlink:href="#ArialMT-67" transform="translate(639.208984 0)"/>
     <use xlink:href="#ArialMT-69" transform="translate(694.824219 0)"/>
     <use xlink:href="#ArialMT-6e" transform="translate(717.041016 0)"/>
     <use xlink:href="#ArialMT-61" transform="translate(772.65625 0)"/>
     <use xlink:href="#ArialMT-6c" transform="translate(828.271484 0)"/>
     <use xlink:href="#ArialMT-20" transform="translate(850.488281 0)"/>
     <use xlink:href="#ArialMT-43" transform="translate(878.271484 0)"/>
     <use xlink:href="#ArialMT-6f" transform="translate(950.488281 0)"/>
     <use xlink:href="#ArialMT-73" transform="translate(1006.103516 0)"/>
     <use xlink:href="#ArialMT-74" transform="translate(1056.103516 0)"/>
     <use xlink:href="#ArialMT-20" transform="translate(1083.886719 0)"/>
     <use xlink:href="#ArialMT-28" transform="translate(1111.669922 0)"/>
     <use xlink:href="#ArialMT-4c" transform="translate(1144.970703 0)"/>
     <use xlink:href="#ArialMT-52" transform="translate(1200.585938 0)"/>
     <use xlink:href="#ArialMT-4d" transform="translate(1272.802734 0)"/>
     <use xlink:href="#ArialMT-43" transform="translate(1356.103516 0)"/>
     <use xlink:href="#ArialMT-29" transform="translate(1428.320312 0)"/>
    </g>
    <!-- LRMC(q) = A×q + B + INV_h -->
    <g style="fill: #262626" transform="translate(420.77075 36.192) scale(0.16 -0.16)">
     <defs>
      <path id="ArialMT-71" d="M 2538 -1272 
L 2538 353 
Q 2406 169 2170 47 
Q 1934 -75 1669 -75 
Q 1078 -75 651 397 
Q 225 869 225 1691 
Q 225 2191 398 2587 
Q 572 2984 901 3189 
Q 1231 3394 1625 3394 
Q 2241 3394 2594 2875 
L 2594 3319 
L 3100 3319 
L 3100 -1272 
L 2538 -1272 
z
M 803 1669 
Q 803 1028 1072 708 
Q 1341 388 1716 388 
Q 2075 388 2334 692 
Q 2594 997 2594 1619 
Q 2594 2281 2320 2615 
Q 2047 2950 1678 2950 
Q 1313 2950 1058 2639 
Q 803 2328 803 1669 
z
" transform="scale(0.015625)"/>
      <path id="ArialMT-3d" d="M 3381 2694 
L 356 2694 
L 356 3219 
L 3381 3219 
L 3381 2694 
z
M 3381 1303 
L 356 1303 
L 356 1828 
L 3381 1828 
L 3381 1303 
z
" transform="scale(0.015625)"/>
      <path id="ArialMT-41" d="M -9 0 
L 1750 4581 
L 2403 4581 
L 4278 0 
L 3588 0 
L 3053 1388 
L 1138 1388 
L 634 0 
L -9 0 
z
M 1313 1881 
L 2866 1881 
L 2388 3150 
Q 2169 3728 2063 4100 
Q 1975 3659 1816 3225 
L 1313 1881 
z
" transform="scale(0.015625)"/>
      <path id="ArialMT-d7" d="M 503 1278 
L 1488 2263 
L 506 3244 
L 888 3625 
L 1869 2644 
L 2847 3622 
L 3222 3244 
L 2247 2266 
L 3228 1284 
L 2847 903 
L 1866 1884 
L 881 900 
L 503 1278 
z
" transform="scale(0.015625)"/>
      <path id="ArialMT-2b" d="M 1603 741 
L 1603 1997 
L 356 1997 
L 356 2522 
L 1603 2522 
L 1603 3769 
L 2134 3769 
L 2134 2522 
L 3381 2522 
L 3381 1997 
L 2134 1997 
L 2134 741 
L 1603 741 
z
" transform="scale(0.015625)"/>
      <path id="ArialMT-49" d="M 597 0 
L 597 4581 
L 1203 4581 
L 1203 0 
L 597 0 
z
" transform="scale(0.015625)"/>
      <path id="ArialMT-4e" d="M 488 0 
L 488 4581 
L 1109 4581 
L 3516 984 
L 3516 4581 
L 4097 4581 
L 4097 0 
L 3475 0 
L 1069 3600 
L 1069 0 
L 488 0 
z
" transform="scale(0.015625)"/>
      <path id="ArialMT-56" d="M 1803 0 
L 28 4581 
L 684 4581 
L 1875 1253 
Q 2019 853 2116 503 
Q 2222 878 2363 1253 
L 3600 4581 
L 4219 4581 
L 2425 0 
L 1803 0 
z
" transform="scale(0.015625)"/>
      <path id="ArialMT-5f" d="M -97 -1272 
L -97 -866 
L 3631 -866 
L 3631 -1272 
L -97 -1272 
z
" transform="scale(0.015625)"/>
     </defs>
     <use xlink:href="#ArialMT-4c"/>
     <use xlink:href="#ArialMT-52" transform="translate(55.615234 0)"/>
     <use xlink:href="#ArialMT-4d" transform="translate(127.832031 0)"/>
     <use xlink:href="#ArialMT-43" transform="translate(211.132812 0)"/>
     <use xlink:href="#ArialMT-28" transform="translate(283.349609 0)"/>
     <use xlink:href="#ArialMT-71" transform="translate(316.650391 0)"/>
     <use xlink:href="#ArialMT-29" transform="translate(372.265625 0)"/>
     <use xlink:href="#ArialMT-20" transform="translate(405.566406 0)"/>
     <use xlink:href="#ArialMT-3d" transform="translate(433.349609 0)"/>
     <use xlink:href="#ArialMT-20" transform="translate(491.748047 0)"/>
     <use xlink:href="#ArialMT-41" transform="translate(514.03125 0)"/>
     <use xlink:href="#ArialMT-d7" transform="translate(580.730469 0)"/>
     <use xlink:href="#ArialMT-71" transform="translate(639.128906 0)"/>
     <use xlink:href="#ArialMT-20" transform="translate(694.744141 0)"/>
     <use xlink:href="#ArialMT-2b" transform="translate(722.527344 0)"/>
     <use xlink:href="#ArialMT-20" transform="translate(780.925781 0)"/>
     <use xlink:href="#ArialMT-42" transform="translate(808.708984 0)"/>
     <use xlink:href="#ArialMT-20" transform="translate(875.408203 0)"/>
     <use xlink:href="#ArialMT-2b" transform="translate(903.191406 0)"/>
     <use xlink:href="#ArialMT-20" transform="translate(961.589844 0)"/>
     <use xlink:href="#ArialMT-49" transform="translate(989.373047 0)"/>
     <use xlink:href="#ArialMT-4e" transform="translate(1017.15625 0)"/>
     <use xlink:href="#ArialMT-56" transform="translate(1089.373047 0)"/>
     <use xlink:href="#ArialMT-5f" transform="translate(1156.072266 0)"/>
     <use xlink:href="#ArialMT-68" transform="translate(1211.6875 0)"/>
    </g>
    <!-- (Including Annualized Investment Cost) -->
    <g style="fill: #262626" transform="translate(383.4195 53.5365) scale(0.16 -0.16)">
     <defs>
      <path id="ArialMT-63" d="M 2588 1216 
L 3141 1144 
Q 3050 572 2676 248 
Q 2303 -75 1759 -75 
Q 1078 -75 664 370 
Q 250 816 250 1647 
Q 250 2184 428 2587 
Q 606 2991 970 3192 
Q 1334 3394 1763 3394 
Q 2303 3394 2647 3120 
Q 2991 2847 3088 2344 
L 2541 2259 
Q 2463 2594 2264 2762 
Q 2066 2931 1784 2931 
Q 1359 2931 1093 2626 
Q 828 2322 828 1663 
Q 828 994 1084 691 
Q 1341 388 1753 388 
Q 2084 388 2306 591 
Q 2528 794 2588 1216 
z
" transform="scale(0.015625)"/>
      <path id="ArialMT-7a" d="M 125 0 
L 125 456 
L 2238 2881 
Q 1878 2863 1603 2863 
L 250 2863 
L 250 3319 
L 2963 3319 
L 2963 2947 
L 1166 841 
L 819 456 
Q 1197 484 1528 484 
L 3063 484 
L 3063 0 
L 125 0 
z
" transform="scale(0.015625)"/>
      <path id="ArialMT-76" d="M 1344 0 
L 81 3319 
L 675 3319 
L 1388 1331 
Q 1503 1009 1600 663 
Q 1675 925 1809 1294 
L 2547 3319 
L 3125 3319 
L 1869 0 
L 1344 0 
z
" transform="scale(0.015625)"/>
      <path id="ArialMT-6d" d="M 422 0 
L 422 3319 
L 925 3319 
L 925 2853 
Q 1081 3097 1340 3245 
Q 1600 3394 1931 3394 
Q 2300 3394 2536 3241 
Q 2772 3088 2869 2813 
Q 3263 3394 3894 3394 
Q 4388 3394 4653 3120 
Q 4919 2847 4919 2278 
L 4919 0 
L 4359 0 
L 4359 2091 
Q 4359 2428 4304 2576 
Q 4250 2725 4106 2815 
Q 3963 2906 3769 2906 
Q 3419 2906 3187 2673 
Q 2956 2441 2956 1928 
L 2956 0 
L 2394 0 
L 2394 2156 
Q 2394 2531 2256 2718 
Q 2119 2906 1806 2906 
Q 1569 2906 1367 2781 
Q 1166 2656 1075 2415 
Q 984 2175 984 1722 
L 984 0 
L 422 0 
z
" transform="scale(0.015625)"/>
     </defs>
     <use xlink:href="#ArialMT-28"/>
     <use xlink:href="#ArialMT-49" transform="translate(33.300781 0)"/>
     <use xlink:href="#ArialMT-6e" transform="translate(61.083984 0)"/>
     <use xlink:href="#ArialMT-63" transform="translate(116.699219 0)"/>
     <use xlink:href="#ArialMT-6c" transform="translate(166.699219 0)"/>
     <use xlink:href="#ArialMT-75" transform="translate(188.916016 0)"/>
     <use xlink:href="#ArialMT-64" transform="translate(244.53125 0)"/>
     <use xlink:href="#ArialMT-69" transform="translate(300.146484 0)"/>
     <use xlink:href="#ArialMT-6e" transform="translate(322.363281 0)"/>
     <use xlink:href="#ArialMT-67" transform="translate(377.978516 0)"/>
     <use xlink:href="#ArialMT-20" transform="translate(433.59375 0)"/>
     <use xlink:href="#ArialMT-41" transform="translate(455.876953 0)"/>
     <use xlink:href="#ArialMT-6e" transform="translate(522.576172 0)"/>
     <use xlink:href="#ArialMT-6e" transform="translate(578.191406 0)"/>
     <use xlink:href="#ArialMT-75" transform="translate(633.806641 0)"/>
     <use xlink:href="#ArialMT-61" transform="translate(689.421875 0)"/>
     <use xlink:href="#ArialMT-6c" transform="translate(745.037109 0)"/>
     <use xlink:href="#ArialMT-69" transform="translate(767.253906 0)"/>
     <use xlink:href="#ArialMT-7a" transform="translate(789.470703 0)"/>
     <use xlink:href="#ArialMT-65" transform="translate(839.470703 0)"/>
     <use xlink:href="#ArialMT-64" transform="translate(895.085938 0)"/>
     <use xlink:href="#ArialMT-20" transform="translate(950.701172 0)"/>
     <use xlink:href="#ArialMT-49" transform="translate(978.484375 0)"/>
     <use xlink:href="#ArialMT-6e" transform="translate(1006.267578 0)"/>
     <use xlink:href="#ArialMT-76" transform="translate(1061.882812 0)"/>
     <use xlink:href="#ArialMT-65" transform="translate(1111.882812 0)"/>
     <use xlink:href="#ArialMT-73" transform="translate(1167.498047 0)"/>
     <use xlink:href="#ArialMT-74" transform="translate(1217.498047 0)"/>
     <use xlink:href="#ArialMT-6d" transform="translate(1245.28125 0)"/>
     <use xlink:href="#ArialMT-65" transform="translate(1328.582031 0)"/>
     <use xlink:href="#ArialMT-6e" transform="translate(1384.197266 0)"/>
     <use xlink:href="#ArialMT-74" transform="translate(1439.8125 0)"/>
     <use xlink:href="#ArialMT-20" transform="translate(1467.595703 0)"/>
     <use xlink:href="#ArialMT-43" transform="translate(1495.378906 0)"/>
     <use xlink:href="#ArialMT-6f" transform="translate(1567.595703 0)"/>
     <use xlink:href="#ArialMT-73" transform="translate(1623.210938 0)"/>
     <use xlink:href="#ArialMT-74" transform="translate(1673.210938 0)"/>
     <use xlink:href="#ArialMT-29" transform="translate(1700.994141 0)"/>
    </g>
   </g>
   <g id="legend_1">
    <g id="line2d_39">
     <path d="M 67.6593 88.725875 
L 79.6593 88.725875 
L 91.6593 88.725875 
" style="fill: none; stroke: #8b4513; stroke-opacity: 0.8; stroke-width: 2.5; stroke-linecap: round"/>
    </g>
    <g id="text_20">
     <!-- Baseload -->
     <g style="fill: #262626" transform="translate(101.2593 92.925875) scale(0.12 -0.12)">
      <use xlink:href="#ArialMT-42"/>
      <use xlink:href="#ArialMT-61" transform="translate(66.699219 0)"/>
      <use xlink:href="#ArialMT-73" transform="translate(122.314453 0)"/>
      <use xlink:href="#ArialMT-65" transform="translate(172.314453 0)"/>
      <use xlink:href="#ArialMT-6c" transform="translate(227.929688 0)"/>
      <use xlink:href="#ArialMT-6f" transform="translate(250.146484 0)"/>
      <use xlink:href="#ArialMT-61" transform="translate(305.761719 0)"/>
      <use xlink:href="#ArialMT-64" transform="translate(361.376953 0)"/>
     </g>
    </g>
    <g id="line2d_40">
     <path d="M 67.6593 105.70025 
L 79.6593 105.70025 
L 91.6593 105.70025 
" style="fill: none; stroke: #ff8c00; stroke-opacity: 0.8; stroke-width: 2.5; stroke-linecap: round"/>
    </g>
    <g id="text_21">
     <!-- MidMerit -->
     <g style="fill: #262626" transform="translate(101.2593 109.90025) scale(0.12 -0.12)">
      <use xlink:href="#ArialMT-4d"/>
      <use xlink:href="#ArialMT-69" transform="translate(83.300781 0)"/>
      <use xlink:href="#ArialMT-64" transform="translate(105.517578 0)"/>
      <use xlink:href="#ArialMT-4d" transform="translate(161.132812 0)"/>
      <use xlink:href="#ArialMT-65" transform="translate(244.433594 0)"/>
      <use xlink:href="#ArialMT-72" transform="translate(300.048828 0)"/>
      <use xlink:href="#ArialMT-69" transform="translate(333.349609 0)"/>
      <use xlink:href="#ArialMT-74" transform="translate(355.566406 0)"/>
     </g>
    </g>
    <g id="line2d_41">
     <path d="M 67.6593 122.674625 
L 79.6593 122.674625 
L 91.6593 122.674625 
" style="fill: none; stroke: #dc143c; stroke-opacity: 0.8; stroke-width: 2.5; stroke-linecap: round"/>
    </g>
    <g id="text_22">
     <!-- Peak -->
     <g style="fill: #262626" transform="translate(101.2593 126.874625) scale(0.12 -0.12)">
      <use xlink:href="#ArialMT-50"/>
      <use xlink:href="#ArialMT-65" transform="translate(66.699219 0)"/>
      <use xlink:href="#ArialMT-61" transform="translate(122.314453 0)"/>
      <use xlink:href="#ArialMT-6b" transform="translate(177.929688 0)"/>
     </g>
    </g>
    <g id="line2d_42">
     <path d="M 67.6593 139.649 
L 79.6593 139.649 
L 91.6593 139.649 
" style="fill: none; stroke: #2e8b57; stroke-opacity: 0.8; stroke-width: 2.5; stroke-linecap: round"/>
    </g>
    <g id="text_23">
     <!-- WindOnshore -->
     <g style="fill: #262626" transform="translate(101.2593 143.849) scale(0.12 -0.12)">
      <use xlink:href="#ArialMT-57"/>
      <use xlink:href="#ArialMT-69" transform="translate(94.384766 0)"/>
      <use xlink:href="#ArialMT-6e" transform="translate(116.601562 0)"/>
      <use xlink:href="#ArialMT-64" transform="translate(172.216797 0)"/>
      <use xlink:href="#ArialMT-4f" transform="translate(227.832031 0)"/>
      <use xlink:href="#ArialMT-6e" transform="translate(305.615234 0)"/>
      <use xlink:href="#ArialMT-73" transform="translate(361.230469 0)"/>
      <use xlink:href="#ArialMT-68" transform="translate(411.230469 0)"/>
      <use xlink:href="#ArialMT-6f" transform="translate(466.845703 0)"/>
      <use xlink:href="#ArialMT-72" transform="translate(522.460938 0)"/>
      <use xlink:href="#ArialMT-65" transform="translate(555.761719 0)"/>
     </g>
    </g>
   </g>
  </g>
 </g>
 <defs>
  <clipPath id="pd47fabdc2e">
   <rect x="56.8593" y="73.5365" width="930.5904" height="598.2139"/>
  </clipPath>
 </defs>
</svg>
