<?xml version="1.0" encoding="utf-8" standalone="no"?>
<!DOCTYPE svg PUBLIC "-//W3C//DTD SVG 1.1//EN"
  "http://www.w3.org/Graphics/SVG/1.1/DTD/svg11.dtd">
<svg xmlns:xlink="http://www.w3.org/1999/xlink" width="1144.22285pt" height="566.945512pt" viewBox="0 0 1144.22285 566.945512" xmlns="http://www.w3.org/2000/svg" version="1.1">
 <metadata>
  <rdf:RDF xmlns:dc="http://purl.org/dc/elements/1.1/" xmlns:cc="http://creativecommons.org/ns#" xmlns:rdf="http://www.w3.org/1999/02/22-rdf-syntax-ns#">
   <cc:Work>
    <dc:type rdf:resource="http://purl.org/dc/dcmitype/StillImage"/>
    <dc:date>2025-11-30T21:17:59.737002</dc:date>
    <dc:format>image/svg+xml</dc:format>
    <dc:creator>
     <cc:Agent>
      <dc:title>Matplotlib v3.10.3, https://matplotlib.org/</dc:title>
     </cc:Agent>
    </dc:creator>
   </cc:Work>
  </rdf:RDF>
 </metadata>
 <defs>
  <style type="text/css">*{stroke-linejoin: round; stroke-linecap: butt}</style>
 </defs>
 <g id="figure_1">
  <g id="patch_1">
   <path d="M 0 566.945512 
L 1144.22285 566.945512 
L 1144.22285 0 
L 0 0 
z
" style="fill: #ffffff"/>
  </g>
  <g id="axes_1">
   <g id="patch_2">
    <path d="M 56.93795 271.595625 
L 1137.02285 271.595625 
L 1137.02285 53.0371 
L 56.93795 53.0371 
z
" style="fill: #ffffff"/>
   </g>
   <g id="matplotlib.axis_1">
    <g id="xtick_1">
     <g id="line2d_1">
      <path d="M 102.098294 271.595625 
L 102.098294 53.0371 
" clip-path="url(#p0774144c70)" style="fill: none; stroke: #cccccc; stroke-opacity: 0.3; stroke-width: 0.8; stroke-linecap: round"/>
     </g>
     <g id="line2d_2">
      <defs>
       <path id="m45d72efd83" d="M 0 0 
L 0 4.8 
" style="stroke: #262626"/>
      </defs>
      <g>
       <use xlink:href="#m45d72efd83" x="102.098294" y="271.595625" style="fill: #262626; stroke: #262626"/>
      </g>
     </g>
    </g>
    <g id="xtick_2">
     <g id="line2d_3">
      <path d="M 192.418983 271.595625 
L 192.418983 53.0371 
" clip-path="url(#p0774144c70)" style="fill: none; stroke: #cccccc; stroke-opacity: 0.3; stroke-width: 0.8; stroke-linecap: round"/>
     </g>
     <g id="line2d_4">
      <g>
       <use xlink:href="#m45d72efd83" x="192.418983" y="271.595625" style="fill: #262626; stroke: #262626"/>
      </g>
     </g>
    </g>
    <g id="xtick_3">
     <g id="line2d_5">
      <path d="M 282.739671 271.595625 
L 282.739671 53.0371 
" clip-path="url(#p0774144c70)" style="fill: none; stroke: #cccccc; stroke-opacity: 0.3; stroke-width: 0.8; stroke-linecap: round"/>
     </g>
     <g id="line2d_6">
      <g>
       <use xlink:href="#m45d72efd83" x="282.739671" y="271.595625" style="fill: #262626; stroke: #262626"/>
      </g>
     </g>
    </g>
    <g id="xtick_4">
     <g id="line2d_7">
      <path d="M 373.06036 271.595625 
L 373.06036 53.0371 
" clip-path="url(#p0774144c70)" style="fill: none; stroke: #cccccc; stroke-opacity: 0.3; stroke-width: 0.8; stroke-linecap: round"/>
     </g>
     <g id="line2d_8">
      <g>
       <use xlink:href="#m45d72efd83" x="373.06036" y="271.595625" style="fill: #262626; stroke: #262626"/>
      </g>
     </g>
    </g>
    <g id="xtick_5">
     <g id="line2d_9">
      <path d="M 463.381048 271.595625 
L 463.381048 53.0371 
" clip-path="url(#p0774144c70)" style="fill: none; stroke: #cccccc; stroke-opacity: 0.3; stroke-width: 0.8; stroke-linecap: round"/>
     </g>
     <g id="line2d_10">
      <g>
       <use xlink:href="#m45d72efd83" x="463.381048" y="271.595625" style="fill: #262626; stroke: #262626"/>
      </g>
     </g>
    </g>
    <g id="xtick_6">
     <g id="line2d_11">
      <path d="M 553.701737 271.595625 
L 553.701737 53.0371 
" clip-path="url(#p0774144c70)" style="fill: none; stroke: #cccccc; stroke-opacity: 0.3; stroke-width: 0.8; stroke-linecap: round"/>
     </g>
     <g id="line2d_12">
      <g>
       <use xlink:href="#m45d72efd83" x="553.701737" y="271.595625" style="fill: #262626; stroke: #262626"/>
      </g>
     </g>
    </g>
    <g id="xtick_7">
     <g id="line2d_13">
      <path d="M 644.022425 271.595625 
L 644.022425 53.0371 
" clip-path="url(#p0774144c70)" style="fill: none; stroke: #cccccc; stroke-opacity: 0.3; stroke-width: 0.8; stroke-linecap: round"/>
     </g>
     <g id="line2d_14">
      <g>
       <use xlink:href="#m45d72efd83" x="644.022425" y="271.595625" style="fill: #262626; stroke: #262626"/>
      </g>
     </g>
    </g>
    <g id="xtick_8">
     <g id="line2d_15">
      <path d="M 734.343114 271.595625 
L 734.343114 53.0371 
" clip-path="url(#p0774144c70)" style="fill: none; stroke: #cccccc; stroke-opacity: 0.3; stroke-width: 0.8; stroke-linecap: round"/>
     </g>
     <g id="line2d_16">
      <g>
       <use xlink:href="#m45d72efd83" x="734.343114" y="271.595625" style="fill: #262626; stroke: #262626"/>
      </g>
     </g>
    </g>
    <g id="xtick_9">
     <g id="line2d_17">
      <path d="M 824.663802 271.595625 
L 824.663802 53.0371 
" clip-path="url(#p0774144c70)" style="fill: none; stroke: #cccccc; stroke-opacity: 0.3; stroke-width: 0.8; stroke-linecap: round"/>
     </g>
     <g id="line2d_18">
      <g>
       <use xlink:href="#m45d72efd83" x="824.663802" y="271.595625" style="fill: #262626; stroke: #262626"/>
      </g>
     </g>
    </g>
    <g id="xtick_10">
     <g id="line2d_19">
      <path d="M 914.984491 271.595625 
L 914.984491 53.0371 
" clip-path="url(#p0774144c70)" style="fill: none; stroke: #cccccc; stroke-opacity: 0.3; stroke-width: 0.8; stroke-linecap: round"/>
     </g>
     <g id="line2d_20">
      <g>
       <use xlink:href="#m45d72efd83" x="914.984491" y="271.595625" style="fill: #262626; stroke: #262626"/>
      </g>
     </g>
    </g>
    <g id="xtick_11">
     <g id="line2d_21">
      <path d="M 1005.305179 271.595625 
L 1005.305179 53.0371 
" clip-path="url(#p0774144c70)" style="fill: none; stroke: #cccccc; stroke-opacity: 0.3; stroke-width: 0.8; stroke-linecap: round"/>
     </g>
     <g id="line2d_22">
      <g>
       <use xlink:href="#m45d72efd83" x="1005.305179" y="271.595625" style="fill: #262626; stroke: #262626"/>
      </g>
     </g>
    </g>
    <g id="xtick_12">
     <g id="line2d_23">
      <path d="M 1095.625868 271.595625 
L 1095.625868 53.0371 
" clip-path="url(#p0774144c70)" style="fill: none; stroke: #cccccc; stroke-opacity: 0.3; stroke-width: 0.8; stroke-linecap: round"/>
     </g>
     <g id="line2d_24">
      <g>
       <use xlink:href="#m45d72efd83" x="1095.625868" y="271.595625" style="fill: #262626; stroke: #262626"/>
      </g>
     </g>
    </g>
   </g>
   <g id="matplotlib.axis_2">
    <g id="ytick_1">
     <g id="line2d_25">
      <path d="M 56.93795 271.595625 
L 1137.02285 271.595625 
" clip-path="url(#p0774144c70)" style="fill: none; stroke: #cccccc; stroke-opacity: 0.3; stroke-width: 0.8; stroke-linecap: round"/>
     </g>
     <g id="line2d_26">
      <defs>
       <path id="m6a47a5a7c8" d="M 0 0 
L -4.8 0 
" style="stroke: #262626"/>
      </defs>
      <g>
       <use xlink:href="#m6a47a5a7c8" x="56.93795" y="271.595625" style="fill: #262626; stroke: #262626"/>
      </g>
     </g>
     <g id="text_1">
      <!-- 0.0 -->
      <g style="fill: #262626" transform="translate(35.18275 275.060006) scale(0.0968 -0.0968)">
       <defs>
        <path id="ArialMT-30" d="M 266 2259 
Q 266 3072 433 3567 
Q 600 4063 929 4331 
Q 1259 4600 1759 4600 
Q 2128 4600 2406 4451 
Q 2684 4303 2865 4023 
Q 3047 3744 3150 3342 
Q 3253 2941 3253 2259 
Q 3253 1453 3087 958 
Q 2922 463 2592 192 
Q 2263 -78 1759 -78 
Q 1097 -78 719 397 
Q 266 969 266 2259 
z
M 844 2259 
Q 844 1131 1108 757 
Q 1372 384 1759 384 
Q 2147 384 2411 759 
Q 2675 1134 2675 2259 
Q 2675 3391 2411 3762 
Q 2147 4134 1753 4134 
Q 1366 4134 1134 3806 
Q 844 3388 844 2259 
z
" transform="scale(0.015625)"/>
        <path id="ArialMT-2e" d="M 581 0 
L 581 641 
L 1222 641 
L 1222 0 
L 581 0 
z
" transform="scale(0.015625)"/>
       </defs>
       <use xlink:href="#ArialMT-30"/>
       <use xlink:href="#ArialMT-2e" transform="translate(55.615234 0)"/>
       <use xlink:href="#ArialMT-30" transform="translate(83.398438 0)"/>
      </g>
     </g>
    </g>
    <g id="ytick_2">
     <g id="line2d_27">
      <path d="M 56.93795 227.88392 
L 1137.02285 227.88392 
" clip-path="url(#p0774144c70)" style="fill: none; stroke: #cccccc; stroke-opacity: 0.3; stroke-width: 0.8; stroke-linecap: round"/>
     </g>
     <g id="line2d_28">
      <g>
       <use xlink:href="#m6a47a5a7c8" x="56.93795" y="227.88392" style="fill: #262626; stroke: #262626"/>
      </g>
     </g>
     <g id="text_2">
      <!-- 0.2 -->
      <g style="fill: #262626" transform="translate(35.18275 231.348301) scale(0.0968 -0.0968)">
       <defs>
        <path id="ArialMT-32" d="M 3222 541 
L 3222 0 
L 194 0 
Q 188 203 259 391 
Q 375 700 629 1000 
Q 884 1300 1366 1694 
Q 2113 2306 2375 2664 
Q 2638 3022 2638 3341 
Q 2638 3675 2398 3904 
Q 2159 4134 1775 4134 
Q 1369 4134 1125 3890 
Q 881 3647 878 3216 
L 300 3275 
Q 359 3922 746 4261 
Q 1134 4600 1788 4600 
Q 2447 4600 2831 4234 
Q 3216 3869 3216 3328 
Q 3216 3053 3103 2787 
Q 2991 2522 2730 2228 
Q 2469 1934 1863 1422 
Q 1356 997 1212 845 
Q 1069 694 975 541 
L 3222 541 
z
" transform="scale(0.015625)"/>
       </defs>
       <use xlink:href="#ArialMT-30"/>
       <use xlink:href="#ArialMT-2e" transform="translate(55.615234 0)"/>
       <use xlink:href="#ArialMT-32" transform="translate(83.398438 0)"/>
      </g>
     </g>
    </g>
    <g id="ytick_3">
     <g id="line2d_29">
      <path d="M 56.93795 184.172215 
L 1137.02285 184.172215 
" clip-path="url(#p0774144c70)" style="fill: none; stroke: #cccccc; stroke-opacity: 0.3; stroke-width: 0.8; stroke-linecap: round"/>
     </g>
     <g id="line2d_30">
      <g>
       <use xlink:href="#m6a47a5a7c8" x="56.93795" y="184.172215" style="fill: #262626; stroke: #262626"/>
      </g>
     </g>
     <g id="text_3">
      <!-- 0.4 -->
      <g style="fill: #262626" transform="translate(35.18275 187.636596) scale(0.0968 -0.0968)">
       <defs>
        <path id="ArialMT-34" d="M 2069 0 
L 2069 1097 
L 81 1097 
L 81 1613 
L 2172 4581 
L 2631 4581 
L 2631 1613 
L 3250 1613 
L 3250 1097 
L 2631 1097 
L 2631 0 
L 2069 0 
z
M 2069 1613 
L 2069 3678 
L 634 1613 
L 2069 1613 
z
" transform="scale(0.015625)"/>
       </defs>
       <use xlink:href="#ArialMT-30"/>
       <use xlink:href="#ArialMT-2e" transform="translate(55.615234 0)"/>
       <use xlink:href="#ArialMT-34" transform="translate(83.398438 0)"/>
      </g>
     </g>
    </g>
    <g id="ytick_4">
     <g id="line2d_31">
      <path d="M 56.93795 140.46051 
L 1137.02285 140.46051 
" clip-path="url(#p0774144c70)" style="fill: none; stroke: #cccccc; stroke-opacity: 0.3; stroke-width: 0.8; stroke-linecap: round"/>
     </g>
     <g id="line2d_32">
      <g>
       <use xlink:href="#m6a47a5a7c8" x="56.93795" y="140.46051" style="fill: #262626; stroke: #262626"/>
      </g>
     </g>
     <g id="text_4">
      <!-- 0.6 -->
      <g style="fill: #262626" transform="translate(35.18275 143.924891) scale(0.0968 -0.0968)">
       <defs>
        <path id="ArialMT-36" d="M 3184 3459 
L 2625 3416 
Q 2550 3747 2413 3897 
Q 2184 4138 1850 4138 
Q 1581 4138 1378 3988 
Q 1113 3794 959 3422 
Q 806 3050 800 2363 
Q 1003 2672 1297 2822 
Q 1591 2972 1913 2972 
Q 2475 2972 2870 2558 
Q 3266 2144 3266 1488 
Q 3266 1056 3080 686 
Q 2894 316 2569 119 
Q 2244 -78 1831 -78 
Q 1128 -78 684 439 
Q 241 956 241 2144 
Q 241 3472 731 4075 
Q 1159 4600 1884 4600 
Q 2425 4600 2770 4297 
Q 3116 3994 3184 3459 
z
M 888 1484 
Q 888 1194 1011 928 
Q 1134 663 1356 523 
Q 1578 384 1822 384 
Q 2178 384 2434 671 
Q 2691 959 2691 1453 
Q 2691 1928 2437 2201 
Q 2184 2475 1800 2475 
Q 1419 2475 1153 2201 
Q 888 1928 888 1484 
z
" transform="scale(0.015625)"/>
       </defs>
       <use xlink:href="#ArialMT-30"/>
       <use xlink:href="#ArialMT-2e" transform="translate(55.615234 0)"/>
       <use xlink:href="#ArialMT-36" transform="translate(83.398438 0)"/>
      </g>
     </g>
    </g>
    <g id="ytick_5">
     <g id="line2d_33">
      <path d="M 56.93795 96.748805 
L 1137.02285 96.748805 
" clip-path="url(#p0774144c70)" style="fill: none; stroke: #cccccc; stroke-opacity: 0.3; stroke-width: 0.8; stroke-linecap: round"/>
     </g>
     <g id="line2d_34">
      <g>
       <use xlink:href="#m6a47a5a7c8" x="56.93795" y="96.748805" style="fill: #262626; stroke: #262626"/>
      </g>
     </g>
     <g id="text_5">
      <!-- 0.8 -->
      <g style="fill: #262626" transform="translate(35.18275 100.213186) scale(0.0968 -0.0968)">
       <defs>
        <path id="ArialMT-38" d="M 1131 2484 
Q 781 2613 612 2850 
Q 444 3088 444 3419 
Q 444 3919 803 4259 
Q 1163 4600 1759 4600 
Q 2359 4600 2725 4251 
Q 3091 3903 3091 3403 
Q 3091 3084 2923 2848 
Q 2756 2613 2416 2484 
Q 2838 2347 3058 2040 
Q 3278 1734 3278 1309 
Q 3278 722 2862 322 
Q 2447 -78 1769 -78 
Q 1091 -78 675 323 
Q 259 725 259 1325 
Q 259 1772 486 2073 
Q 713 2375 1131 2484 
z
M 1019 3438 
Q 1019 3113 1228 2906 
Q 1438 2700 1772 2700 
Q 2097 2700 2305 2904 
Q 2513 3109 2513 3406 
Q 2513 3716 2298 3927 
Q 2084 4138 1766 4138 
Q 1444 4138 1231 3931 
Q 1019 3725 1019 3438 
z
M 838 1322 
Q 838 1081 952 856 
Q 1066 631 1291 507 
Q 1516 384 1775 384 
Q 2178 384 2440 643 
Q 2703 903 2703 1303 
Q 2703 1709 2433 1975 
Q 2163 2241 1756 2241 
Q 1359 2241 1098 1978 
Q 838 1716 838 1322 
z
" transform="scale(0.015625)"/>
       </defs>
       <use xlink:href="#ArialMT-30"/>
       <use xlink:href="#ArialMT-2e" transform="translate(55.615234 0)"/>
       <use xlink:href="#ArialMT-38" transform="translate(83.398438 0)"/>
      </g>
     </g>
    </g>
    <g id="ytick_6">
     <g id="line2d_35">
      <path d="M 56.93795 53.0371 
L 1137.02285 53.0371 
" clip-path="url(#p0774144c70)" style="fill: none; stroke: #cccccc; stroke-opacity: 0.3; stroke-width: 0.8; stroke-linecap: round"/>
     </g>
     <g id="line2d_36">
      <g>
       <use xlink:href="#m6a47a5a7c8" x="56.93795" y="53.0371" style="fill: #262626; stroke: #262626"/>
      </g>
     </g>
     <g id="text_6">
      <!-- 1.0 -->
      <g style="fill: #262626" transform="translate(35.18275 56.501481) scale(0.0968 -0.0968)">
       <defs>
        <path id="ArialMT-31" d="M 2384 0 
L 1822 0 
L 1822 3584 
Q 1619 3391 1289 3197 
Q 959 3003 697 2906 
L 697 3450 
Q 1169 3672 1522 3987 
Q 1875 4303 2022 4600 
L 2384 4600 
L 2384 0 
z
" transform="scale(0.015625)"/>
       </defs>
       <use xlink:href="#ArialMT-31"/>
       <use xlink:href="#ArialMT-2e" transform="translate(55.615234 0)"/>
       <use xlink:href="#ArialMT-30" transform="translate(83.398438 0)"/>
      </g>
     </g>
    </g>
    <g id="text_7">
     <!-- Wind Onshore -->
     <g style="fill: #262626" transform="translate(15.789375 200.663862) rotate(-90) scale(0.12 -0.12)">
      <defs>
       <path id="ArialMT-57" d="M 1294 0 
L 78 4581 
L 700 4581 
L 1397 1578 
Q 1509 1106 1591 641 
Q 1766 1375 1797 1488 
L 2669 4581 
L 3400 4581 
L 4056 2263 
Q 4303 1400 4413 641 
Q 4500 1075 4641 1638 
L 5359 4581 
L 5969 4581 
L 4713 0 
L 4128 0 
L 3163 3491 
Q 3041 3928 3019 4028 
Q 2947 3713 2884 3491 
L 1913 0 
L 1294 0 
z
" transform="scale(0.015625)"/>
       <path id="ArialMT-69" d="M 425 3934 
L 425 4581 
L 988 4581 
L 988 3934 
L 425 3934 
z
M 425 0 
L 425 3319 
L 988 3319 
L 988 0 
L 425 0 
z
" transform="scale(0.015625)"/>
       <path id="ArialMT-6e" d="M 422 0 
L 422 3319 
L 928 3319 
L 928 2847 
Q 1294 3394 1984 3394 
Q 2284 3394 2536 3286 
Q 2788 3178 2913 3003 
Q 3038 2828 3088 2588 
Q 3119 2431 3119 2041 
L 3119 0 
L 2556 0 
L 2556 2019 
Q 2556 2363 2490 2533 
Q 2425 2703 2258 2804 
Q 2091 2906 1866 2906 
Q 1506 2906 1245 2678 
Q 984 2450 984 1813 
L 984 0 
L 422 0 
z
" transform="scale(0.015625)"/>
       <path id="ArialMT-64" d="M 2575 0 
L 2575 419 
Q 2259 -75 1647 -75 
Q 1250 -75 917 144 
Q 584 363 401 755 
Q 219 1147 219 1656 
Q 219 2153 384 2558 
Q 550 2963 881 3178 
Q 1213 3394 1622 3394 
Q 1922 3394 2156 3267 
Q 2391 3141 2538 2938 
L 2538 4581 
L 3097 4581 
L 3097 0 
L 2575 0 
z
M 797 1656 
Q 797 1019 1065 703 
Q 1334 388 1700 388 
Q 2069 388 2326 689 
Q 2584 991 2584 1609 
Q 2584 2291 2321 2609 
Q 2059 2928 1675 2928 
Q 1300 2928 1048 2622 
Q 797 2316 797 1656 
z
" transform="scale(0.015625)"/>
       <path id="ArialMT-20" transform="scale(0.015625)"/>
       <path id="ArialMT-4f" d="M 309 2231 
Q 309 3372 921 4017 
Q 1534 4663 2503 4663 
Q 3138 4663 3647 4359 
Q 4156 4056 4423 3514 
Q 4691 2972 4691 2284 
Q 4691 1588 4409 1038 
Q 4128 488 3612 205 
Q 3097 -78 2500 -78 
Q 1853 -78 1343 234 
Q 834 547 571 1087 
Q 309 1628 309 2231 
z
M 934 2222 
Q 934 1394 1379 917 
Q 1825 441 2497 441 
Q 3181 441 3623 922 
Q 4066 1403 4066 2288 
Q 4066 2847 3877 3264 
Q 3688 3681 3323 3911 
Q 2959 4141 2506 4141 
Q 1863 4141 1398 3698 
Q 934 3256 934 2222 
z
" transform="scale(0.015625)"/>
       <path id="ArialMT-73" d="M 197 991 
L 753 1078 
Q 800 744 1014 566 
Q 1228 388 1613 388 
Q 2000 388 2187 545 
Q 2375 703 2375 916 
Q 2375 1106 2209 1216 
Q 2094 1291 1634 1406 
Q 1016 1563 777 1677 
Q 538 1791 414 1992 
Q 291 2194 291 2438 
Q 291 2659 392 2848 
Q 494 3038 669 3163 
Q 800 3259 1026 3326 
Q 1253 3394 1513 3394 
Q 1903 3394 2198 3281 
Q 2494 3169 2634 2976 
Q 2775 2784 2828 2463 
L 2278 2388 
Q 2241 2644 2061 2787 
Q 1881 2931 1553 2931 
Q 1166 2931 1000 2803 
Q 834 2675 834 2503 
Q 834 2394 903 2306 
Q 972 2216 1119 2156 
Q 1203 2125 1616 2013 
Q 2213 1853 2448 1751 
Q 2684 1650 2818 1456 
Q 2953 1263 2953 975 
Q 2953 694 2789 445 
Q 2625 197 2315 61 
Q 2006 -75 1616 -75 
Q 969 -75 630 194 
Q 291 463 197 991 
z
" transform="scale(0.015625)"/>
       <path id="ArialMT-68" d="M 422 0 
L 422 4581 
L 984 4581 
L 984 2938 
Q 1378 3394 1978 3394 
Q 2347 3394 2619 3248 
Q 2891 3103 3008 2847 
Q 3125 2591 3125 2103 
L 3125 0 
L 2563 0 
L 2563 2103 
Q 2563 2525 2380 2717 
Q 2197 2909 1863 2909 
Q 1613 2909 1392 2779 
Q 1172 2650 1078 2428 
Q 984 2206 984 1816 
L 984 0 
L 422 0 
z
" transform="scale(0.015625)"/>
       <path id="ArialMT-6f" d="M 213 1659 
Q 213 2581 725 3025 
Q 1153 3394 1769 3394 
Q 2453 3394 2887 2945 
Q 3322 2497 3322 1706 
Q 3322 1066 3130 698 
Q 2938 331 2570 128 
Q 2203 -75 1769 -75 
Q 1072 -75 642 372 
Q 213 819 213 1659 
z
M 791 1659 
Q 791 1022 1069 705 
Q 1347 388 1769 388 
Q 2188 388 2466 706 
Q 2744 1025 2744 1678 
Q 2744 2294 2464 2611 
Q 2184 2928 1769 2928 
Q 1347 2928 1069 2612 
Q 791 2297 791 1659 
z
" transform="scale(0.015625)"/>
       <path id="ArialMT-72" d="M 416 0 
L 416 3319 
L 922 3319 
L 922 2816 
Q 1116 3169 1280 3281 
Q 1444 3394 1641 3394 
Q 1925 3394 2219 3213 
L 2025 2691 
Q 1819 2813 1613 2813 
Q 1428 2813 1281 2702 
Q 1134 2591 1072 2394 
Q 978 2094 978 1738 
L 978 0 
L 416 0 
z
" transform="scale(0.015625)"/>
       <path id="ArialMT-65" d="M 2694 1069 
L 3275 997 
Q 3138 488 2766 206 
Q 2394 -75 1816 -75 
Q 1088 -75 661 373 
Q 234 822 234 1631 
Q 234 2469 665 2931 
Q 1097 3394 1784 3394 
Q 2450 3394 2872 2941 
Q 3294 2488 3294 1666 
Q 3294 1616 3291 1516 
L 816 1516 
Q 847 969 1125 678 
Q 1403 388 1819 388 
Q 2128 388 2347 550 
Q 2566 713 2694 1069 
z
M 847 1978 
L 2700 1978 
Q 2663 2397 2488 2606 
Q 2219 2931 1791 2931 
Q 1403 2931 1139 2672 
Q 875 2413 847 1978 
z
" transform="scale(0.015625)"/>
      </defs>
      <use xlink:href="#ArialMT-57"/>
      <use xlink:href="#ArialMT-69" transform="translate(94.384766 0)"/>
      <use xlink:href="#ArialMT-6e" transform="translate(116.601562 0)"/>
      <use xlink:href="#ArialMT-64" transform="translate(172.216797 0)"/>
      <use xlink:href="#ArialMT-20" transform="translate(227.832031 0)"/>
      <use xlink:href="#ArialMT-4f" transform="translate(255.615234 0)"/>
      <use xlink:href="#ArialMT-6e" transform="translate(333.398438 0)"/>
      <use xlink:href="#ArialMT-73" transform="translate(389.013672 0)"/>
      <use xlink:href="#ArialMT-68" transform="translate(439.013672 0)"/>
      <use xlink:href="#ArialMT-6f" transform="translate(494.628906 0)"/>
      <use xlink:href="#ArialMT-72" transform="translate(550.244141 0)"/>
      <use xlink:href="#ArialMT-65" transform="translate(583.544922 0)"/>
     </g>
     <!-- Capacity Factor -->
     <g style="fill: #262626" transform="translate(28.657125 204.32855) rotate(-90) scale(0.12 -0.12)">
      <defs>
       <path id="ArialMT-43" d="M 3763 1606 
L 4369 1453 
Q 4178 706 3683 314 
Q 3188 -78 2472 -78 
Q 1731 -78 1267 223 
Q 803 525 561 1097 
Q 319 1669 319 2325 
Q 319 3041 592 3573 
Q 866 4106 1370 4382 
Q 1875 4659 2481 4659 
Q 3169 4659 3637 4309 
Q 4106 3959 4291 3325 
L 3694 3184 
Q 3534 3684 3231 3912 
Q 2928 4141 2469 4141 
Q 1941 4141 1586 3887 
Q 1231 3634 1087 3207 
Q 944 2781 944 2328 
Q 944 1744 1114 1308 
Q 1284 872 1643 656 
Q 2003 441 2422 441 
Q 2931 441 3284 734 
Q 3638 1028 3763 1606 
z
" transform="scale(0.015625)"/>
       <path id="ArialMT-61" d="M 2588 409 
Q 2275 144 1986 34 
Q 1697 -75 1366 -75 
Q 819 -75 525 192 
Q 231 459 231 875 
Q 231 1119 342 1320 
Q 453 1522 633 1644 
Q 813 1766 1038 1828 
Q 1203 1872 1538 1913 
Q 2219 1994 2541 2106 
Q 2544 2222 2544 2253 
Q 2544 2597 2384 2738 
Q 2169 2928 1744 2928 
Q 1347 2928 1158 2789 
Q 969 2650 878 2297 
L 328 2372 
Q 403 2725 575 2942 
Q 747 3159 1072 3276 
Q 1397 3394 1825 3394 
Q 2250 3394 2515 3294 
Q 2781 3194 2906 3042 
Q 3031 2891 3081 2659 
Q 3109 2516 3109 2141 
L 3109 1391 
Q 3109 606 3145 398 
Q 3181 191 3288 0 
L 2700 0 
Q 2613 175 2588 409 
z
M 2541 1666 
Q 2234 1541 1622 1453 
Q 1275 1403 1131 1340 
Q 988 1278 909 1158 
Q 831 1038 831 891 
Q 831 666 1001 516 
Q 1172 366 1500 366 
Q 1825 366 2078 508 
Q 2331 650 2450 897 
Q 2541 1088 2541 1459 
L 2541 1666 
z
" transform="scale(0.015625)"/>
       <path id="ArialMT-70" d="M 422 -1272 
L 422 3319 
L 934 3319 
L 934 2888 
Q 1116 3141 1344 3267 
Q 1572 3394 1897 3394 
Q 2322 3394 2647 3175 
Q 2972 2956 3137 2557 
Q 3303 2159 3303 1684 
Q 3303 1175 3120 767 
Q 2938 359 2589 142 
Q 2241 -75 1856 -75 
Q 1575 -75 1351 44 
Q 1128 163 984 344 
L 984 -1272 
L 422 -1272 
z
M 931 1641 
Q 931 1000 1190 694 
Q 1450 388 1819 388 
Q 2194 388 2461 705 
Q 2728 1022 2728 1688 
Q 2728 2322 2467 2637 
Q 2206 2953 1844 2953 
Q 1484 2953 1207 2617 
Q 931 2281 931 1641 
z
" transform="scale(0.015625)"/>
       <path id="ArialMT-63" d="M 2588 1216 
L 3141 1144 
Q 3050 572 2676 248 
Q 2303 -75 1759 -75 
Q 1078 -75 664 370 
Q 250 816 250 1647 
Q 250 2184 428 2587 
Q 606 2991 970 3192 
Q 1334 3394 1763 3394 
Q 2303 3394 2647 3120 
Q 2991 2847 3088 2344 
L 2541 2259 
Q 2463 2594 2264 2762 
Q 2066 2931 1784 2931 
Q 1359 2931 1093 2626 
Q 828 2322 828 1663 
Q 828 994 1084 691 
Q 1341 388 1753 388 
Q 2084 388 2306 591 
Q 2528 794 2588 1216 
z
" transform="scale(0.015625)"/>
       <path id="ArialMT-74" d="M 1650 503 
L 1731 6 
Q 1494 -44 1306 -44 
Q 1000 -44 831 53 
Q 663 150 594 308 
Q 525 466 525 972 
L 525 2881 
L 113 2881 
L 113 3319 
L 525 3319 
L 525 4141 
L 1084 4478 
L 1084 3319 
L 1650 3319 
L 1650 2881 
L 1084 2881 
L 1084 941 
Q 1084 700 1114 631 
Q 1144 563 1211 522 
Q 1278 481 1403 481 
Q 1497 481 1650 503 
z
" transform="scale(0.015625)"/>
       <path id="ArialMT-79" d="M 397 -1278 
L 334 -750 
Q 519 -800 656 -800 
Q 844 -800 956 -737 
Q 1069 -675 1141 -563 
Q 1194 -478 1313 -144 
Q 1328 -97 1363 -6 
L 103 3319 
L 709 3319 
L 1400 1397 
Q 1534 1031 1641 628 
Q 1738 1016 1872 1384 
L 2581 3319 
L 3144 3319 
L 1881 -56 
Q 1678 -603 1566 -809 
Q 1416 -1088 1222 -1217 
Q 1028 -1347 759 -1347 
Q 597 -1347 397 -1278 
z
" transform="scale(0.015625)"/>
       <path id="ArialMT-46" d="M 525 0 
L 525 4581 
L 3616 4581 
L 3616 4041 
L 1131 4041 
L 1131 2622 
L 3281 2622 
L 3281 2081 
L 1131 2081 
L 1131 0 
L 525 0 
z
" transform="scale(0.015625)"/>
      </defs>
      <use xlink:href="#ArialMT-43"/>
      <use xlink:href="#ArialMT-61" transform="translate(72.216797 0)"/>
      <use xlink:href="#ArialMT-70" transform="translate(127.832031 0)"/>
      <use xlink:href="#ArialMT-61" transform="translate(183.447266 0)"/>
      <use xlink:href="#ArialMT-63" transform="translate(239.0625 0)"/>
      <use xlink:href="#ArialMT-69" transform="translate(289.0625 0)"/>
      <use xlink:href="#ArialMT-74" transform="translate(311.279297 0)"/>
      <use xlink:href="#ArialMT-79" transform="translate(339.0625 0)"/>
      <use xlink:href="#ArialMT-20" transform="translate(389.0625 0)"/>
      <use xlink:href="#ArialMT-46" transform="translate(416.845703 0)"/>
      <use xlink:href="#ArialMT-61" transform="translate(477.929688 0)"/>
      <use xlink:href="#ArialMT-63" transform="translate(533.544922 0)"/>
      <use xlink:href="#ArialMT-74" transform="translate(583.544922 0)"/>
      <use xlink:href="#ArialMT-6f" transform="translate(611.328125 0)"/>
      <use xlink:href="#ArialMT-72" transform="translate(666.943359 0)"/>
     </g>
    </g>
   </g>
   <g id="line2d_37">
    <path d="M 56.93795 256.296528 
L 60.701312 260.667699 
L 71.991398 267.224454 
L 75.75476 265.038869 
L 79.518122 265.038869 
L 83.281484 268.754364 
L 87.044846 265.038869 
L 90.808208 266.35022 
L 94.57157 264.164635 
L 98.334932 265.038869 
L 105.861656 269.41004 
L 109.625018 268.317247 
L 113.38838 269.41004 
L 117.151742 269.41004 
L 120.915104 265.038869 
L 135.968552 256.296528 
L 139.731914 256.296528 
L 143.495276 254.110943 
L 147.258639 203.842482 
L 158.548725 210.399238 
L 162.312087 203.842482 
L 166.075449 203.842482 
L 169.838811 197.285726 
L 173.602173 192.914556 
L 177.365535 190.728971 
L 184.892259 190.728971 
L 188.655621 188.543385 
L 199.945707 175.429874 
L 203.709069 175.429874 
L 207.472431 173.244289 
L 211.235793 173.244289 
L 218.762517 168.873118 
L 222.525879 173.244289 
L 226.289241 192.914556 
L 230.052603 201.656897 
L 233.815965 203.842482 
L 237.579327 197.285726 
L 245.106051 201.656897 
L 248.869413 201.656897 
L 252.632775 203.842482 
L 256.396137 208.213653 
L 260.159499 210.399238 
L 263.922861 208.213653 
L 267.686223 208.213653 
L 271.449585 212.584823 
L 275.212947 221.327164 
L 278.976309 227.88392 
L 282.739671 232.25509 
L 286.503033 230.069505 
L 290.266395 221.327164 
L 297.793119 212.584823 
L 305.319843 208.213653 
L 320.373291 208.213653 
L 324.136653 210.399238 
L 327.900016 227.88392 
L 331.663378 227.88392 
L 335.42674 223.512749 
L 342.953464 219.141579 
L 354.24355 219.141579 
L 361.770274 223.512749 
L 365.533636 227.88392 
L 369.296998 236.626261 
L 373.06036 247.554187 
L 376.823722 254.110943 
L 380.587084 256.296528 
L 384.350446 256.296528 
L 388.113808 254.110943 
L 391.87717 249.739772 
L 395.640532 236.626261 
L 403.167256 214.770408 
L 406.930618 212.584823 
L 410.69398 212.584823 
L 414.457342 214.770408 
L 418.220704 177.615459 
L 421.984066 175.429874 
L 425.747428 175.429874 
L 429.51079 171.058703 
L 433.274152 168.873118 
L 440.800876 168.873118 
L 444.564238 164.501948 
L 448.3276 168.873118 
L 452.090962 175.429874 
L 455.854324 184.172215 
L 459.617686 203.842482 
L 463.381048 238.811846 
L 467.14441 245.368602 
L 470.907772 247.554187 
L 474.671134 245.368602 
L 478.434496 249.739772 
L 482.197858 249.739772 
L 485.96122 245.368602 
L 489.724582 232.25509 
L 493.487944 230.069505 
L 497.251306 232.25509 
L 504.77803 240.997431 
L 508.541393 219.141579 
L 512.304755 221.327164 
L 516.068117 221.327164 
L 519.831479 223.512749 
L 523.594841 223.512749 
L 527.358203 225.698335 
L 531.121565 225.698335 
L 534.884927 227.88392 
L 538.648289 232.25509 
L 542.411651 234.440676 
L 546.175013 245.368602 
L 549.938375 254.110943 
L 553.701737 256.296528 
L 557.465099 256.296528 
L 564.991823 251.925358 
L 568.755185 251.925358 
L 572.518547 247.554187 
L 580.045271 251.925358 
L 583.808633 247.554187 
L 587.571995 249.739772 
L 591.335357 249.739772 
L 595.098719 251.925358 
L 598.862081 223.512749 
L 602.625443 214.770408 
L 606.388805 212.584823 
L 610.152167 212.584823 
L 613.915529 214.770408 
L 621.442253 206.028067 
L 625.205615 199.471312 
L 628.968977 197.285726 
L 632.732339 206.028067 
L 636.495701 203.842482 
L 640.259063 210.399238 
L 644.022425 214.770408 
L 647.785787 216.955994 
L 655.312511 225.698335 
L 659.075873 223.512749 
L 674.129321 232.25509 
L 677.892683 230.069505 
L 685.419407 230.069505 
L 689.18277 208.213653 
L 700.472856 214.770408 
L 704.236218 210.399238 
L 711.762942 206.028067 
L 715.526304 201.656897 
L 719.289666 203.842482 
L 723.053028 212.584823 
L 726.81639 212.584823 
L 730.579752 208.213653 
L 734.343114 210.399238 
L 738.106476 210.399238 
L 741.869838 208.213653 
L 745.6332 201.656897 
L 749.396562 197.285726 
L 753.159924 199.471312 
L 756.923286 199.471312 
L 760.686648 203.842482 
L 764.45001 214.770408 
L 768.213372 227.88392 
L 771.976734 232.25509 
L 775.740096 234.440676 
L 779.503458 232.25509 
L 783.26682 234.440676 
L 790.793544 230.069505 
L 794.556906 230.069505 
L 798.320268 227.88392 
L 802.08363 230.069505 
L 805.846992 227.88392 
L 813.373716 227.88392 
L 817.137078 225.698335 
L 820.90044 221.327164 
L 824.663802 219.141579 
L 828.427164 221.327164 
L 832.190526 221.327164 
L 835.953888 216.955994 
L 839.71725 216.955994 
L 843.480612 214.770408 
L 847.243974 214.770408 
L 851.007336 216.955994 
L 854.770698 221.327164 
L 858.53406 219.141579 
L 866.060784 232.25509 
L 869.824147 245.368602 
L 877.350871 249.739772 
L 881.114233 249.739772 
L 884.877595 243.183017 
L 888.640957 240.997431 
L 896.167681 240.997431 
L 907.457767 254.110943 
L 911.221129 254.110943 
L 914.984491 251.925358 
L 922.511215 238.811846 
L 926.274577 230.069505 
L 930.037939 225.698335 
L 941.328025 225.698335 
L 956.381473 234.440676 
L 960.144835 223.512749 
L 971.434921 230.069505 
L 975.198283 227.88392 
L 978.961645 223.512749 
L 986.488369 210.399238 
L 994.015093 206.028067 
L 997.778455 206.028067 
L 1001.541817 203.842482 
L 1005.305179 210.399238 
L 1009.068541 212.584823 
L 1012.831903 210.399238 
L 1016.595265 195.100141 
L 1024.121989 186.3578 
L 1031.648713 199.471312 
L 1035.412075 197.285726 
L 1039.175437 197.285726 
L 1046.702161 201.656897 
L 1050.465524 166.687533 
L 1054.228886 171.058703 
L 1057.992248 168.873118 
L 1061.75561 175.429874 
L 1065.518972 179.801044 
L 1076.809058 199.471312 
L 1080.57242 203.842482 
L 1095.625868 238.811846 
L 1099.38923 243.183017 
L 1106.915954 243.183017 
L 1110.679316 240.997431 
L 1114.442678 240.997431 
L 1118.20604 238.811846 
L 1125.732764 238.811846 
L 1129.496126 236.626261 
L 1133.259488 238.811846 
L 1137.02285 236.626261 
L 1137.02285 236.626261 
" clip-path="url(#p0774144c70)" style="fill: none; stroke: #1f77b4; stroke-opacity: 0.8; stroke-width: 1.5; stroke-linecap: round"/>
   </g>
   <g id="line2d_38">
    <path d="M 147.258639 271.595625 
L 147.258639 53.0371 
" clip-path="url(#p0774144c70)" style="fill: none; stroke-dasharray: 3.7,1.6; stroke-dashoffset: 0; stroke: #808080; stroke-opacity: 0.6"/>
   </g>
   <g id="line2d_39">
    <path d="M 237.579327 271.595625 
L 237.579327 53.0371 
" clip-path="url(#p0774144c70)" style="fill: none; stroke-dasharray: 3.7,1.6; stroke-dashoffset: 0; stroke: #808080; stroke-opacity: 0.6"/>
   </g>
   <g id="line2d_40">
    <path d="M 327.900016 271.595625 
L 327.900016 53.0371 
" clip-path="url(#p0774144c70)" style="fill: none; stroke-dasharray: 3.7,1.6; stroke-dashoffset: 0; stroke: #808080; stroke-opacity: 0.6"/>
   </g>
   <g id="line2d_41">
    <path d="M 418.220704 271.595625 
L 418.220704 53.0371 
" clip-path="url(#p0774144c70)" style="fill: none; stroke-dasharray: 3.7,1.6; stroke-dashoffset: 0; stroke: #808080; stroke-opacity: 0.6"/>
   </g>
   <g id="line2d_42">
    <path d="M 508.541393 271.595625 
L 508.541393 53.0371 
" clip-path="url(#p0774144c70)" style="fill: none; stroke-dasharray: 3.7,1.6; stroke-dashoffset: 0; stroke: #808080; stroke-opacity: 0.6"/>
   </g>
   <g id="line2d_43">
    <path d="M 598.862081 271.595625 
L 598.862081 53.0371 
" clip-path="url(#p0774144c70)" style="fill: none; stroke-dasharray: 3.7,1.6; stroke-dashoffset: 0; stroke: #808080; stroke-opacity: 0.6"/>
   </g>
   <g id="line2d_44">
    <path d="M 689.18277 271.595625 
L 689.18277 53.0371 
" clip-path="url(#p0774144c70)" style="fill: none; stroke-dasharray: 3.7,1.6; stroke-dashoffset: 0; stroke: #808080; stroke-opacity: 0.6"/>
   </g>
   <g id="line2d_45">
    <path d="M 779.503458 271.595625 
L 779.503458 53.0371 
" clip-path="url(#p0774144c70)" style="fill: none; stroke-dasharray: 3.7,1.6; stroke-dashoffset: 0; stroke: #808080; stroke-opacity: 0.6"/>
   </g>
   <g id="line2d_46">
    <path d="M 869.824147 271.595625 
L 869.824147 53.0371 
" clip-path="url(#p0774144c70)" style="fill: none; stroke-dasharray: 3.7,1.6; stroke-dashoffset: 0; stroke: #808080; stroke-opacity: 0.6"/>
   </g>
   <g id="line2d_47">
    <path d="M 960.144835 271.595625 
L 960.144835 53.0371 
" clip-path="url(#p0774144c70)" style="fill: none; stroke-dasharray: 3.7,1.6; stroke-dashoffset: 0; stroke: #808080; stroke-opacity: 0.6"/>
   </g>
   <g id="line2d_48">
    <path d="M 1050.465524 271.595625 
L 1050.465524 53.0371 
" clip-path="url(#p0774144c70)" style="fill: none; stroke-dasharray: 3.7,1.6; stroke-dashoffset: 0; stroke: #808080; stroke-opacity: 0.6"/>
   </g>
   <g id="patch_3">
    <path d="M 56.93795 271.595625 
L 56.93795 53.0371 
" style="fill: none; stroke: #cccccc; stroke-linejoin: miter; stroke-linecap: square"/>
   </g>
   <g id="patch_4">
    <path d="M 1137.02285 271.595625 
L 1137.02285 53.0371 
" style="fill: none; stroke: #cccccc; stroke-linejoin: miter; stroke-linecap: square"/>
   </g>
   <g id="patch_5">
    <path d="M 56.93795 271.595625 
L 1137.02285 271.595625 
" style="fill: none; stroke: #cccccc; stroke-linejoin: miter; stroke-linecap: square"/>
   </g>
   <g id="patch_6">
    <path d="M 56.93795 53.0371 
L 1137.02285 53.0371 
" style="fill: none; stroke: #cccccc; stroke-linejoin: miter; stroke-linecap: square"/>
   </g>
   <g id="text_8">
    <!-- Wind Onshore Generation Profile -->
    <g style="fill: #262626" transform="translate(493.880244 43.0371) scale(0.14 -0.14)">
     <defs>
      <path id="ArialMT-47" d="M 2638 1797 
L 2638 2334 
L 4578 2338 
L 4578 638 
Q 4131 281 3656 101 
Q 3181 -78 2681 -78 
Q 2006 -78 1454 211 
Q 903 500 622 1047 
Q 341 1594 341 2269 
Q 341 2938 620 3517 
Q 900 4097 1425 4378 
Q 1950 4659 2634 4659 
Q 3131 4659 3532 4498 
Q 3934 4338 4162 4050 
Q 4391 3763 4509 3300 
L 3963 3150 
Q 3859 3500 3706 3700 
Q 3553 3900 3268 4020 
Q 2984 4141 2638 4141 
Q 2222 4141 1919 4014 
Q 1616 3888 1430 3681 
Q 1244 3475 1141 3228 
Q 966 2803 966 2306 
Q 966 1694 1177 1281 
Q 1388 869 1791 669 
Q 2194 469 2647 469 
Q 3041 469 3416 620 
Q 3791 772 3984 944 
L 3984 1797 
L 2638 1797 
z
" transform="scale(0.015625)"/>
      <path id="ArialMT-50" d="M 494 0 
L 494 4581 
L 2222 4581 
Q 2678 4581 2919 4538 
Q 3256 4481 3484 4323 
Q 3713 4166 3852 3881 
Q 3991 3597 3991 3256 
Q 3991 2672 3619 2267 
Q 3247 1863 2275 1863 
L 1100 1863 
L 1100 0 
L 494 0 
z
M 1100 2403 
L 2284 2403 
Q 2872 2403 3119 2622 
Q 3366 2841 3366 3238 
Q 3366 3525 3220 3729 
Q 3075 3934 2838 4000 
Q 2684 4041 2272 4041 
L 1100 4041 
L 1100 2403 
z
" transform="scale(0.015625)"/>
      <path id="ArialMT-66" d="M 556 0 
L 556 2881 
L 59 2881 
L 59 3319 
L 556 3319 
L 556 3672 
Q 556 4006 616 4169 
Q 697 4388 901 4523 
Q 1106 4659 1475 4659 
Q 1713 4659 2000 4603 
L 1916 4113 
Q 1741 4144 1584 4144 
Q 1328 4144 1222 4034 
Q 1116 3925 1116 3625 
L 1116 3319 
L 1763 3319 
L 1763 2881 
L 1116 2881 
L 1116 0 
L 556 0 
z
" transform="scale(0.015625)"/>
      <path id="ArialMT-6c" d="M 409 0 
L 409 4581 
L 972 4581 
L 972 0 
L 409 0 
z
" transform="scale(0.015625)"/>
     </defs>
     <use xlink:href="#ArialMT-57"/>
     <use xlink:href="#ArialMT-69" transform="translate(94.384766 0)"/>
     <use xlink:href="#ArialMT-6e" transform="translate(116.601562 0)"/>
     <use xlink:href="#ArialMT-64" transform="translate(172.216797 0)"/>
     <use xlink:href="#ArialMT-20" transform="translate(227.832031 0)"/>
     <use xlink:href="#ArialMT-4f" transform="translate(255.615234 0)"/>
     <use xlink:href="#ArialMT-6e" transform="translate(333.398438 0)"/>
     <use xlink:href="#ArialMT-73" transform="translate(389.013672 0)"/>
     <use xlink:href="#ArialMT-68" transform="translate(439.013672 0)"/>
     <use xlink:href="#ArialMT-6f" transform="translate(494.628906 0)"/>
     <use xlink:href="#ArialMT-72" transform="translate(550.244141 0)"/>
     <use xlink:href="#ArialMT-65" transform="translate(583.544922 0)"/>
     <use xlink:href="#ArialMT-20" transform="translate(639.160156 0)"/>
     <use xlink:href="#ArialMT-47" transform="translate(666.943359 0)"/>
     <use xlink:href="#ArialMT-65" transform="translate(744.726562 0)"/>
     <use xlink:href="#ArialMT-6e" transform="translate(800.341797 0)"/>
     <use xlink:href="#ArialMT-65" transform="translate(855.957031 0)"/>
     <use xlink:href="#ArialMT-72" transform="translate(911.572266 0)"/>
     <use xlink:href="#ArialMT-61" transform="translate(944.873047 0)"/>
     <use xlink:href="#ArialMT-74" transform="translate(1000.488281 0)"/>
     <use xlink:href="#ArialMT-69" transform="translate(1028.271484 0)"/>
     <use xlink:href="#ArialMT-6f" transform="translate(1050.488281 0)"/>
     <use xlink:href="#ArialMT-6e" transform="translate(1106.103516 0)"/>
     <use xlink:href="#ArialMT-20" transform="translate(1161.71875 0)"/>
     <use xlink:href="#ArialMT-50" transform="translate(1189.501953 0)"/>
     <use xlink:href="#ArialMT-72" transform="translate(1256.201172 0)"/>
     <use xlink:href="#ArialMT-6f" transform="translate(1289.501953 0)"/>
     <use xlink:href="#ArialMT-66" transform="translate(1345.117188 0)"/>
     <use xlink:href="#ArialMT-69" transform="translate(1372.900391 0)"/>
     <use xlink:href="#ArialMT-6c" transform="translate(1395.117188 0)"/>
     <use xlink:href="#ArialMT-65" transform="translate(1417.333984 0)"/>
    </g>
   </g>
  </g>
  <g id="axes_2">
   <g id="patch_7">
    <path d="M 56.93795 527.03895 
L 1137.02285 527.03895 
L 1137.02285 308.480425 
L 56.93795 308.480425 
z
" style="fill: #ffffff"/>
   </g>
   <g id="matplotlib.axis_3">
    <g id="xtick_13">
     <g id="line2d_49">
      <path d="M 102.098294 527.03895 
L 102.098294 308.480425 
" clip-path="url(#p1f75ab0b9d)" style="fill: none; stroke: #cccccc; stroke-opacity: 0.3; stroke-width: 0.8; stroke-linecap: round"/>
     </g>
     <g id="line2d_50">
      <g>
       <use xlink:href="#m45d72efd83" x="102.098294" y="527.03895" style="fill: #262626; stroke: #262626"/>
      </g>
     </g>
     <g id="text_9">
      <!-- D1 -->
      <g style="fill: #262626" transform="translate(95.706888 542.496762) scale(0.1 -0.1)">
       <defs>
        <path id="ArialMT-44" d="M 494 0 
L 494 4581 
L 2072 4581 
Q 2606 4581 2888 4516 
Q 3281 4425 3559 4188 
Q 3922 3881 4101 3404 
Q 4281 2928 4281 2316 
Q 4281 1794 4159 1391 
Q 4038 988 3847 723 
Q 3656 459 3429 307 
Q 3203 156 2883 78 
Q 2563 0 2147 0 
L 494 0 
z
M 1100 541 
L 2078 541 
Q 2531 541 2789 625 
Q 3047 709 3200 863 
Q 3416 1078 3536 1442 
Q 3656 1806 3656 2325 
Q 3656 3044 3420 3430 
Q 3184 3816 2847 3947 
Q 2603 4041 2063 4041 
L 1100 4041 
L 1100 541 
z
" transform="scale(0.015625)"/>
       </defs>
       <use xlink:href="#ArialMT-44"/>
       <use xlink:href="#ArialMT-31" transform="translate(72.216797 0)"/>
      </g>
     </g>
    </g>
    <g id="xtick_14">
     <g id="line2d_51">
      <path d="M 192.418983 527.03895 
L 192.418983 308.480425 
" clip-path="url(#p1f75ab0b9d)" style="fill: none; stroke: #cccccc; stroke-opacity: 0.3; stroke-width: 0.8; stroke-linecap: round"/>
     </g>
     <g id="line2d_52">
      <g>
       <use xlink:href="#m45d72efd83" x="192.418983" y="527.03895" style="fill: #262626; stroke: #262626"/>
      </g>
     </g>
     <g id="text_10">
      <!-- D2 -->
      <g style="fill: #262626" transform="translate(186.027577 542.496762) scale(0.1 -0.1)">
       <use xlink:href="#ArialMT-44"/>
       <use xlink:href="#ArialMT-32" transform="translate(72.216797 0)"/>
      </g>
     </g>
    </g>
    <g id="xtick_15">
     <g id="line2d_53">
      <path d="M 282.739671 527.03895 
L 282.739671 308.480425 
" clip-path="url(#p1f75ab0b9d)" style="fill: none; stroke: #cccccc; stroke-opacity: 0.3; stroke-width: 0.8; stroke-linecap: round"/>
     </g>
     <g id="line2d_54">
      <g>
       <use xlink:href="#m45d72efd83" x="282.739671" y="527.03895" style="fill: #262626; stroke: #262626"/>
      </g>
     </g>
     <g id="text_11">
      <!-- D3 -->
      <g style="fill: #262626" transform="translate(276.348265 542.496762) scale(0.1 -0.1)">
       <defs>
        <path id="ArialMT-33" d="M 269 1209 
L 831 1284 
Q 928 806 1161 595 
Q 1394 384 1728 384 
Q 2125 384 2398 659 
Q 2672 934 2672 1341 
Q 2672 1728 2419 1979 
Q 2166 2231 1775 2231 
Q 1616 2231 1378 2169 
L 1441 2663 
Q 1497 2656 1531 2656 
Q 1891 2656 2178 2843 
Q 2466 3031 2466 3422 
Q 2466 3731 2256 3934 
Q 2047 4138 1716 4138 
Q 1388 4138 1169 3931 
Q 950 3725 888 3313 
L 325 3413 
Q 428 3978 793 4289 
Q 1159 4600 1703 4600 
Q 2078 4600 2393 4439 
Q 2709 4278 2876 4000 
Q 3044 3722 3044 3409 
Q 3044 3113 2884 2869 
Q 2725 2625 2413 2481 
Q 2819 2388 3044 2092 
Q 3269 1797 3269 1353 
Q 3269 753 2831 336 
Q 2394 -81 1725 -81 
Q 1122 -81 723 278 
Q 325 638 269 1209 
z
" transform="scale(0.015625)"/>
       </defs>
       <use xlink:href="#ArialMT-44"/>
       <use xlink:href="#ArialMT-33" transform="translate(72.216797 0)"/>
      </g>
     </g>
    </g>
    <g id="xtick_16">
     <g id="line2d_55">
      <path d="M 373.06036 527.03895 
L 373.06036 308.480425 
" clip-path="url(#p1f75ab0b9d)" style="fill: none; stroke: #cccccc; stroke-opacity: 0.3; stroke-width: 0.8; stroke-linecap: round"/>
     </g>
     <g id="line2d_56">
      <g>
       <use xlink:href="#m45d72efd83" x="373.06036" y="527.03895" style="fill: #262626; stroke: #262626"/>
      </g>
     </g>
     <g id="text_12">
      <!-- D4 -->
      <g style="fill: #262626" transform="translate(366.668954 542.496762) scale(0.1 -0.1)">
       <use xlink:href="#ArialMT-44"/>
       <use xlink:href="#ArialMT-34" transform="translate(72.216797 0)"/>
      </g>
     </g>
    </g>
    <g id="xtick_17">
     <g id="line2d_57">
      <path d="M 463.381048 527.03895 
L 463.381048 308.480425 
" clip-path="url(#p1f75ab0b9d)" style="fill: none; stroke: #cccccc; stroke-opacity: 0.3; stroke-width: 0.8; stroke-linecap: round"/>
     </g>
     <g id="line2d_58">
      <g>
       <use xlink:href="#m45d72efd83" x="463.381048" y="527.03895" style="fill: #262626; stroke: #262626"/>
      </g>
     </g>
     <g id="text_13">
      <!-- D5 -->
      <g style="fill: #262626" transform="translate(456.989642 542.496762) scale(0.1 -0.1)">
       <defs>
        <path id="ArialMT-35" d="M 266 1200 
L 856 1250 
Q 922 819 1161 601 
Q 1400 384 1738 384 
Q 2144 384 2425 690 
Q 2706 997 2706 1503 
Q 2706 1984 2436 2262 
Q 2166 2541 1728 2541 
Q 1456 2541 1237 2417 
Q 1019 2294 894 2097 
L 366 2166 
L 809 4519 
L 3088 4519 
L 3088 3981 
L 1259 3981 
L 1013 2750 
Q 1425 3038 1878 3038 
Q 2478 3038 2890 2622 
Q 3303 2206 3303 1553 
Q 3303 931 2941 478 
Q 2500 -78 1738 -78 
Q 1113 -78 717 272 
Q 322 622 266 1200 
z
" transform="scale(0.015625)"/>
       </defs>
       <use xlink:href="#ArialMT-44"/>
       <use xlink:href="#ArialMT-35" transform="translate(72.216797 0)"/>
      </g>
     </g>
    </g>
    <g id="xtick_18">
     <g id="line2d_59">
      <path d="M 553.701737 527.03895 
L 553.701737 308.480425 
" clip-path="url(#p1f75ab0b9d)" style="fill: none; stroke: #cccccc; stroke-opacity: 0.3; stroke-width: 0.8; stroke-linecap: round"/>
     </g>
     <g id="line2d_60">
      <g>
       <use xlink:href="#m45d72efd83" x="553.701737" y="527.03895" style="fill: #262626; stroke: #262626"/>
      </g>
     </g>
     <g id="text_14">
      <!-- D6 -->
      <g style="fill: #262626" transform="translate(547.310331 542.496762) scale(0.1 -0.1)">
       <use xlink:href="#ArialMT-44"/>
       <use xlink:href="#ArialMT-36" transform="translate(72.216797 0)"/>
      </g>
     </g>
    </g>
    <g id="xtick_19">
     <g id="line2d_61">
      <path d="M 644.022425 527.03895 
L 644.022425 308.480425 
" clip-path="url(#p1f75ab0b9d)" style="fill: none; stroke: #cccccc; stroke-opacity: 0.3; stroke-width: 0.8; stroke-linecap: round"/>
     </g>
     <g id="line2d_62">
      <g>
       <use xlink:href="#m45d72efd83" x="644.022425" y="527.03895" style="fill: #262626; stroke: #262626"/>
      </g>
     </g>
     <g id="text_15">
      <!-- D7 -->
      <g style="fill: #262626" transform="translate(637.631019 542.496762) scale(0.1 -0.1)">
       <defs>
        <path id="ArialMT-37" d="M 303 3981 
L 303 4522 
L 3269 4522 
L 3269 4084 
Q 2831 3619 2401 2847 
Q 1972 2075 1738 1259 
Q 1569 684 1522 0 
L 944 0 
Q 953 541 1156 1306 
Q 1359 2072 1739 2783 
Q 2119 3494 2547 3981 
L 303 3981 
z
" transform="scale(0.015625)"/>
       </defs>
       <use xlink:href="#ArialMT-44"/>
       <use xlink:href="#ArialMT-37" transform="translate(72.216797 0)"/>
      </g>
     </g>
    </g>
    <g id="xtick_20">
     <g id="line2d_63">
      <path d="M 734.343114 527.03895 
L 734.343114 308.480425 
" clip-path="url(#p1f75ab0b9d)" style="fill: none; stroke: #cccccc; stroke-opacity: 0.3; stroke-width: 0.8; stroke-linecap: round"/>
     </g>
     <g id="line2d_64">
      <g>
       <use xlink:href="#m45d72efd83" x="734.343114" y="527.03895" style="fill: #262626; stroke: #262626"/>
      </g>
     </g>
     <g id="text_16">
      <!-- D8 -->
      <g style="fill: #262626" transform="translate(727.951708 542.496762) scale(0.1 -0.1)">
       <use xlink:href="#ArialMT-44"/>
       <use xlink:href="#ArialMT-38" transform="translate(72.216797 0)"/>
      </g>
     </g>
    </g>
    <g id="xtick_21">
     <g id="line2d_65">
      <path d="M 824.663802 527.03895 
L 824.663802 308.480425 
" clip-path="url(#p1f75ab0b9d)" style="fill: none; stroke: #cccccc; stroke-opacity: 0.3; stroke-width: 0.8; stroke-linecap: round"/>
     </g>
     <g id="line2d_66">
      <g>
       <use xlink:href="#m45d72efd83" x="824.663802" y="527.03895" style="fill: #262626; stroke: #262626"/>
      </g>
     </g>
     <g id="text_17">
      <!-- D9 -->
      <g style="fill: #262626" transform="translate(818.272396 542.496762) scale(0.1 -0.1)">
       <defs>
        <path id="ArialMT-39" d="M 350 1059 
L 891 1109 
Q 959 728 1153 556 
Q 1347 384 1650 384 
Q 1909 384 2104 503 
Q 2300 622 2425 820 
Q 2550 1019 2634 1356 
Q 2719 1694 2719 2044 
Q 2719 2081 2716 2156 
Q 2547 1888 2255 1720 
Q 1963 1553 1622 1553 
Q 1053 1553 659 1965 
Q 266 2378 266 3053 
Q 266 3750 677 4175 
Q 1088 4600 1706 4600 
Q 2153 4600 2523 4359 
Q 2894 4119 3086 3673 
Q 3278 3228 3278 2384 
Q 3278 1506 3087 986 
Q 2897 466 2520 194 
Q 2144 -78 1638 -78 
Q 1100 -78 759 220 
Q 419 519 350 1059 
z
M 2653 3081 
Q 2653 3566 2395 3850 
Q 2138 4134 1775 4134 
Q 1400 4134 1122 3828 
Q 844 3522 844 3034 
Q 844 2597 1108 2323 
Q 1372 2050 1759 2050 
Q 2150 2050 2401 2323 
Q 2653 2597 2653 3081 
z
" transform="scale(0.015625)"/>
       </defs>
       <use xlink:href="#ArialMT-44"/>
       <use xlink:href="#ArialMT-39" transform="translate(72.216797 0)"/>
      </g>
     </g>
    </g>
    <g id="xtick_22">
     <g id="line2d_67">
      <path d="M 914.984491 527.03895 
L 914.984491 308.480425 
" clip-path="url(#p1f75ab0b9d)" style="fill: none; stroke: #cccccc; stroke-opacity: 0.3; stroke-width: 0.8; stroke-linecap: round"/>
     </g>
     <g id="line2d_68">
      <g>
       <use xlink:href="#m45d72efd83" x="914.984491" y="527.03895" style="fill: #262626; stroke: #262626"/>
      </g>
     </g>
     <g id="text_18">
      <!-- D10 -->
      <g style="fill: #262626" transform="translate(905.812616 542.496762) scale(0.1 -0.1)">
       <use xlink:href="#ArialMT-44"/>
       <use xlink:href="#ArialMT-31" transform="translate(72.216797 0)"/>
       <use xlink:href="#ArialMT-30" transform="translate(127.832031 0)"/>
      </g>
     </g>
    </g>
    <g id="xtick_23">
     <g id="line2d_69">
      <path d="M 1005.305179 527.03895 
L 1005.305179 308.480425 
" clip-path="url(#p1f75ab0b9d)" style="fill: none; stroke: #cccccc; stroke-opacity: 0.3; stroke-width: 0.8; stroke-linecap: round"/>
     </g>
     <g id="line2d_70">
      <g>
       <use xlink:href="#m45d72efd83" x="1005.305179" y="527.03895" style="fill: #262626; stroke: #262626"/>
      </g>
     </g>
     <g id="text_19">
      <!-- D11 -->
      <g style="fill: #262626" transform="translate(996.502054 542.496762) scale(0.1 -0.1)">
       <use xlink:href="#ArialMT-44"/>
       <use xlink:href="#ArialMT-31" transform="translate(72.216797 0)"/>
       <use xlink:href="#ArialMT-31" transform="translate(120.457031 0)"/>
      </g>
     </g>
    </g>
    <g id="xtick_24">
     <g id="line2d_71">
      <path d="M 1095.625868 527.03895 
L 1095.625868 308.480425 
" clip-path="url(#p1f75ab0b9d)" style="fill: none; stroke: #cccccc; stroke-opacity: 0.3; stroke-width: 0.8; stroke-linecap: round"/>
     </g>
     <g id="line2d_72">
      <g>
       <use xlink:href="#m45d72efd83" x="1095.625868" y="527.03895" style="fill: #262626; stroke: #262626"/>
      </g>
     </g>
     <g id="text_20">
      <!-- D12 -->
      <g style="fill: #262626" transform="translate(1086.453993 542.496762) scale(0.1 -0.1)">
       <use xlink:href="#ArialMT-44"/>
       <use xlink:href="#ArialMT-31" transform="translate(72.216797 0)"/>
       <use xlink:href="#ArialMT-32" transform="translate(127.832031 0)"/>
      </g>
     </g>
    </g>
    <g id="text_21">
     <!-- Time (Hours across 12 Representative Days) -->
     <g style="fill: #262626" transform="translate(477.17165 557.219887) scale(0.12 -0.12)">
      <defs>
       <path id="ArialMT-54" d="M 1659 0 
L 1659 4041 
L 150 4041 
L 150 4581 
L 3781 4581 
L 3781 4041 
L 2266 4041 
L 2266 0 
L 1659 0 
z
" transform="scale(0.015625)"/>
       <path id="ArialMT-6d" d="M 422 0 
L 422 3319 
L 925 3319 
L 925 2853 
Q 1081 3097 1340 3245 
Q 1600 3394 1931 3394 
Q 2300 3394 2536 3241 
Q 2772 3088 2869 2813 
Q 3263 3394 3894 3394 
Q 4388 3394 4653 3120 
Q 4919 2847 4919 2278 
L 4919 0 
L 4359 0 
L 4359 2091 
Q 4359 2428 4304 2576 
Q 4250 2725 4106 2815 
Q 3963 2906 3769 2906 
Q 3419 2906 3187 2673 
Q 2956 2441 2956 1928 
L 2956 0 
L 2394 0 
L 2394 2156 
Q 2394 2531 2256 2718 
Q 2119 2906 1806 2906 
Q 1569 2906 1367 2781 
Q 1166 2656 1075 2415 
Q 984 2175 984 1722 
L 984 0 
L 422 0 
z
" transform="scale(0.015625)"/>
       <path id="ArialMT-28" d="M 1497 -1347 
Q 1031 -759 709 28 
Q 388 816 388 1659 
Q 388 2403 628 3084 
Q 909 3875 1497 4659 
L 1900 4659 
Q 1522 4009 1400 3731 
Q 1209 3300 1100 2831 
Q 966 2247 966 1656 
Q 966 153 1900 -1347 
L 1497 -1347 
z
" transform="scale(0.015625)"/>
       <path id="ArialMT-48" d="M 513 0 
L 513 4581 
L 1119 4581 
L 1119 2700 
L 3500 2700 
L 3500 4581 
L 4106 4581 
L 4106 0 
L 3500 0 
L 3500 2159 
L 1119 2159 
L 1119 0 
L 513 0 
z
" transform="scale(0.015625)"/>
       <path id="ArialMT-75" d="M 2597 0 
L 2597 488 
Q 2209 -75 1544 -75 
Q 1250 -75 995 37 
Q 741 150 617 320 
Q 494 491 444 738 
Q 409 903 409 1263 
L 409 3319 
L 972 3319 
L 972 1478 
Q 972 1038 1006 884 
Q 1059 663 1231 536 
Q 1403 409 1656 409 
Q 1909 409 2131 539 
Q 2353 669 2445 892 
Q 2538 1116 2538 1541 
L 2538 3319 
L 3100 3319 
L 3100 0 
L 2597 0 
z
" transform="scale(0.015625)"/>
       <path id="ArialMT-52" d="M 503 0 
L 503 4581 
L 2534 4581 
Q 3147 4581 3465 4457 
Q 3784 4334 3975 4021 
Q 4166 3709 4166 3331 
Q 4166 2844 3850 2509 
Q 3534 2175 2875 2084 
Q 3116 1969 3241 1856 
Q 3506 1613 3744 1247 
L 4541 0 
L 3778 0 
L 3172 953 
Q 2906 1366 2734 1584 
Q 2563 1803 2427 1890 
Q 2291 1978 2150 2013 
Q 2047 2034 1813 2034 
L 1109 2034 
L 1109 0 
L 503 0 
z
M 1109 2559 
L 2413 2559 
Q 2828 2559 3062 2645 
Q 3297 2731 3419 2920 
Q 3541 3109 3541 3331 
Q 3541 3656 3305 3865 
Q 3069 4075 2559 4075 
L 1109 4075 
L 1109 2559 
z
" transform="scale(0.015625)"/>
       <path id="ArialMT-76" d="M 1344 0 
L 81 3319 
L 675 3319 
L 1388 1331 
Q 1503 1009 1600 663 
Q 1675 925 1809 1294 
L 2547 3319 
L 3125 3319 
L 1869 0 
L 1344 0 
z
" transform="scale(0.015625)"/>
       <path id="ArialMT-29" d="M 791 -1347 
L 388 -1347 
Q 1322 153 1322 1656 
Q 1322 2244 1188 2822 
Q 1081 3291 891 3722 
Q 769 4003 388 4659 
L 791 4659 
Q 1378 3875 1659 3084 
Q 1900 2403 1900 1659 
Q 1900 816 1576 28 
Q 1253 -759 791 -1347 
z
" transform="scale(0.015625)"/>
      </defs>
      <use xlink:href="#ArialMT-54"/>
      <use xlink:href="#ArialMT-69" transform="translate(57.333984 0)"/>
      <use xlink:href="#ArialMT-6d" transform="translate(79.550781 0)"/>
      <use xlink:href="#ArialMT-65" transform="translate(162.851562 0)"/>
      <use xlink:href="#ArialMT-20" transform="translate(218.466797 0)"/>
      <use xlink:href="#ArialMT-28" transform="translate(246.25 0)"/>
      <use xlink:href="#ArialMT-48" transform="translate(279.550781 0)"/>
      <use xlink:href="#ArialMT-6f" transform="translate(351.767578 0)"/>
      <use xlink:href="#ArialMT-75" transform="translate(407.382812 0)"/>
      <use xlink:href="#ArialMT-72" transform="translate(462.998047 0)"/>
      <use xlink:href="#ArialMT-73" transform="translate(496.298828 0)"/>
      <use xlink:href="#ArialMT-20" transform="translate(546.298828 0)"/>
      <use xlink:href="#ArialMT-61" transform="translate(574.082031 0)"/>
      <use xlink:href="#ArialMT-63" transform="translate(629.697266 0)"/>
      <use xlink:href="#ArialMT-72" transform="translate(679.697266 0)"/>
      <use xlink:href="#ArialMT-6f" transform="translate(712.998047 0)"/>
      <use xlink:href="#ArialMT-73" transform="translate(768.613281 0)"/>
      <use xlink:href="#ArialMT-73" transform="translate(818.613281 0)"/>
      <use xlink:href="#ArialMT-20" transform="translate(868.613281 0)"/>
      <use xlink:href="#ArialMT-31" transform="translate(896.396484 0)"/>
      <use xlink:href="#ArialMT-32" transform="translate(952.011719 0)"/>
      <use xlink:href="#ArialMT-20" transform="translate(1007.626953 0)"/>
      <use xlink:href="#ArialMT-52" transform="translate(1035.410156 0)"/>
      <use xlink:href="#ArialMT-65" transform="translate(1107.626953 0)"/>
      <use xlink:href="#ArialMT-70" transform="translate(1163.242188 0)"/>
      <use xlink:href="#ArialMT-72" transform="translate(1218.857422 0)"/>
      <use xlink:href="#ArialMT-65" transform="translate(1252.158203 0)"/>
      <use xlink:href="#ArialMT-73" transform="translate(1307.773438 0)"/>
      <use xlink:href="#ArialMT-65" transform="translate(1357.773438 0)"/>
      <use xlink:href="#ArialMT-6e" transform="translate(1413.388672 0)"/>
      <use xlink:href="#ArialMT-74" transform="translate(1469.003906 0)"/>
      <use xlink:href="#ArialMT-61" transform="translate(1496.787109 0)"/>
      <use xlink:href="#ArialMT-74" transform="translate(1552.402344 0)"/>
      <use xlink:href="#ArialMT-69" transform="translate(1580.185547 0)"/>
      <use xlink:href="#ArialMT-76" transform="translate(1602.402344 0)"/>
      <use xlink:href="#ArialMT-65" transform="translate(1652.402344 0)"/>
      <use xlink:href="#ArialMT-20" transform="translate(1708.017578 0)"/>
      <use xlink:href="#ArialMT-44" transform="translate(1735.800781 0)"/>
      <use xlink:href="#ArialMT-61" transform="translate(1808.017578 0)"/>
      <use xlink:href="#ArialMT-79" transform="translate(1863.632812 0)"/>
      <use xlink:href="#ArialMT-73" transform="translate(1913.632812 0)"/>
      <use xlink:href="#ArialMT-29" transform="translate(1963.632812 0)"/>
     </g>
    </g>
   </g>
   <g id="matplotlib.axis_4">
    <g id="ytick_7">
     <g id="line2d_73">
      <path d="M 56.93795 527.03895 
L 1137.02285 527.03895 
" clip-path="url(#p1f75ab0b9d)" style="fill: none; stroke: #cccccc; stroke-opacity: 0.3; stroke-width: 0.8; stroke-linecap: round"/>
     </g>
     <g id="line2d_74">
      <g>
       <use xlink:href="#m6a47a5a7c8" x="56.93795" y="527.03895" style="fill: #262626; stroke: #262626"/>
      </g>
     </g>
     <g id="text_22">
      <!-- 0.0 -->
      <g style="fill: #262626" transform="translate(35.18275 530.503331) scale(0.0968 -0.0968)">
       <use xlink:href="#ArialMT-30"/>
       <use xlink:href="#ArialMT-2e" transform="translate(55.615234 0)"/>
       <use xlink:href="#ArialMT-30" transform="translate(83.398438 0)"/>
      </g>
     </g>
    </g>
    <g id="ytick_8">
     <g id="line2d_75">
      <path d="M 56.93795 483.327245 
L 1137.02285 483.327245 
" clip-path="url(#p1f75ab0b9d)" style="fill: none; stroke: #cccccc; stroke-opacity: 0.3; stroke-width: 0.8; stroke-linecap: round"/>
     </g>
     <g id="line2d_76">
      <g>
       <use xlink:href="#m6a47a5a7c8" x="56.93795" y="483.327245" style="fill: #262626; stroke: #262626"/>
      </g>
     </g>
     <g id="text_23">
      <!-- 0.2 -->
      <g style="fill: #262626" transform="translate(35.18275 486.791626) scale(0.0968 -0.0968)">
       <use xlink:href="#ArialMT-30"/>
       <use xlink:href="#ArialMT-2e" transform="translate(55.615234 0)"/>
       <use xlink:href="#ArialMT-32" transform="translate(83.398438 0)"/>
      </g>
     </g>
    </g>
    <g id="ytick_9">
     <g id="line2d_77">
      <path d="M 56.93795 439.61554 
L 1137.02285 439.61554 
" clip-path="url(#p1f75ab0b9d)" style="fill: none; stroke: #cccccc; stroke-opacity: 0.3; stroke-width: 0.8; stroke-linecap: round"/>
     </g>
     <g id="line2d_78">
      <g>
       <use xlink:href="#m6a47a5a7c8" x="56.93795" y="439.61554" style="fill: #262626; stroke: #262626"/>
      </g>
     </g>
     <g id="text_24">
      <!-- 0.4 -->
      <g style="fill: #262626" transform="translate(35.18275 443.079921) scale(0.0968 -0.0968)">
       <use xlink:href="#ArialMT-30"/>
       <use xlink:href="#ArialMT-2e" transform="translate(55.615234 0)"/>
       <use xlink:href="#ArialMT-34" transform="translate(83.398438 0)"/>
      </g>
     </g>
    </g>
    <g id="ytick_10">
     <g id="line2d_79">
      <path d="M 56.93795 395.903835 
L 1137.02285 395.903835 
" clip-path="url(#p1f75ab0b9d)" style="fill: none; stroke: #cccccc; stroke-opacity: 0.3; stroke-width: 0.8; stroke-linecap: round"/>
     </g>
     <g id="line2d_80">
      <g>
       <use xlink:href="#m6a47a5a7c8" x="56.93795" y="395.903835" style="fill: #262626; stroke: #262626"/>
      </g>
     </g>
     <g id="text_25">
      <!-- 0.6 -->
      <g style="fill: #262626" transform="translate(35.18275 399.368216) scale(0.0968 -0.0968)">
       <use xlink:href="#ArialMT-30"/>
       <use xlink:href="#ArialMT-2e" transform="translate(55.615234 0)"/>
       <use xlink:href="#ArialMT-36" transform="translate(83.398438 0)"/>
      </g>
     </g>
    </g>
    <g id="ytick_11">
     <g id="line2d_81">
      <path d="M 56.93795 352.19213 
L 1137.02285 352.19213 
" clip-path="url(#p1f75ab0b9d)" style="fill: none; stroke: #cccccc; stroke-opacity: 0.3; stroke-width: 0.8; stroke-linecap: round"/>
     </g>
     <g id="line2d_82">
      <g>
       <use xlink:href="#m6a47a5a7c8" x="56.93795" y="352.19213" style="fill: #262626; stroke: #262626"/>
      </g>
     </g>
     <g id="text_26">
      <!-- 0.8 -->
      <g style="fill: #262626" transform="translate(35.18275 355.656511) scale(0.0968 -0.0968)">
       <use xlink:href="#ArialMT-30"/>
       <use xlink:href="#ArialMT-2e" transform="translate(55.615234 0)"/>
       <use xlink:href="#ArialMT-38" transform="translate(83.398438 0)"/>
      </g>
     </g>
    </g>
    <g id="ytick_12">
     <g id="line2d_83">
      <path d="M 56.93795 308.480425 
L 1137.02285 308.480425 
" clip-path="url(#p1f75ab0b9d)" style="fill: none; stroke: #cccccc; stroke-opacity: 0.3; stroke-width: 0.8; stroke-linecap: round"/>
     </g>
     <g id="line2d_84">
      <g>
       <use xlink:href="#m6a47a5a7c8" x="56.93795" y="308.480425" style="fill: #262626; stroke: #262626"/>
      </g>
     </g>
     <g id="text_27">
      <!-- 1.0 -->
      <g style="fill: #262626" transform="translate(35.18275 311.944806) scale(0.0968 -0.0968)">
       <use xlink:href="#ArialMT-31"/>
       <use xlink:href="#ArialMT-2e" transform="translate(55.615234 0)"/>
       <use xlink:href="#ArialMT-30" transform="translate(83.398438 0)"/>
      </g>
     </g>
    </g>
    <g id="text_28">
     <!-- Solar PV -->
     <g style="fill: #262626" transform="translate(15.789375 441.437187) rotate(-90) scale(0.12 -0.12)">
      <defs>
       <path id="ArialMT-53" d="M 288 1472 
L 859 1522 
Q 900 1178 1048 958 
Q 1197 738 1509 602 
Q 1822 466 2213 466 
Q 2559 466 2825 569 
Q 3091 672 3220 851 
Q 3350 1031 3350 1244 
Q 3350 1459 3225 1620 
Q 3100 1781 2813 1891 
Q 2628 1963 1997 2114 
Q 1366 2266 1113 2400 
Q 784 2572 623 2826 
Q 463 3081 463 3397 
Q 463 3744 659 4045 
Q 856 4347 1234 4503 
Q 1613 4659 2075 4659 
Q 2584 4659 2973 4495 
Q 3363 4331 3572 4012 
Q 3781 3694 3797 3291 
L 3216 3247 
Q 3169 3681 2898 3903 
Q 2628 4125 2100 4125 
Q 1550 4125 1298 3923 
Q 1047 3722 1047 3438 
Q 1047 3191 1225 3031 
Q 1400 2872 2139 2705 
Q 2878 2538 3153 2413 
Q 3553 2228 3743 1945 
Q 3934 1663 3934 1294 
Q 3934 928 3725 604 
Q 3516 281 3123 101 
Q 2731 -78 2241 -78 
Q 1619 -78 1198 103 
Q 778 284 539 648 
Q 300 1013 288 1472 
z
" transform="scale(0.015625)"/>
       <path id="ArialMT-56" d="M 1803 0 
L 28 4581 
L 684 4581 
L 1875 1253 
Q 2019 853 2116 503 
Q 2222 878 2363 1253 
L 3600 4581 
L 4219 4581 
L 2425 0 
L 1803 0 
z
" transform="scale(0.015625)"/>
      </defs>
      <use xlink:href="#ArialMT-53"/>
      <use xlink:href="#ArialMT-6f" transform="translate(66.699219 0)"/>
      <use xlink:href="#ArialMT-6c" transform="translate(122.314453 0)"/>
      <use xlink:href="#ArialMT-61" transform="translate(144.53125 0)"/>
      <use xlink:href="#ArialMT-72" transform="translate(200.146484 0)"/>
      <use xlink:href="#ArialMT-20" transform="translate(233.447266 0)"/>
      <use xlink:href="#ArialMT-50" transform="translate(261.230469 0)"/>
      <use xlink:href="#ArialMT-56" transform="translate(327.929688 0)"/>
     </g>
     <!-- Capacity Factor -->
     <g style="fill: #262626" transform="translate(28.657125 459.771875) rotate(-90) scale(0.12 -0.12)">
      <use xlink:href="#ArialMT-43"/>
      <use xlink:href="#ArialMT-61" transform="translate(72.216797 0)"/>
      <use xlink:href="#ArialMT-70" transform="translate(127.832031 0)"/>
      <use xlink:href="#ArialMT-61" transform="translate(183.447266 0)"/>
      <use xlink:href="#ArialMT-63" transform="translate(239.0625 0)"/>
      <use xlink:href="#ArialMT-69" transform="translate(289.0625 0)"/>
      <use xlink:href="#ArialMT-74" transform="translate(311.279297 0)"/>
      <use xlink:href="#ArialMT-79" transform="translate(339.0625 0)"/>
      <use xlink:href="#ArialMT-20" transform="translate(389.0625 0)"/>
      <use xlink:href="#ArialMT-46" transform="translate(416.845703 0)"/>
      <use xlink:href="#ArialMT-61" transform="translate(477.929688 0)"/>
      <use xlink:href="#ArialMT-63" transform="translate(533.544922 0)"/>
      <use xlink:href="#ArialMT-74" transform="translate(583.544922 0)"/>
      <use xlink:href="#ArialMT-6f" transform="translate(611.328125 0)"/>
      <use xlink:href="#ArialMT-72" transform="translate(666.943359 0)"/>
     </g>
    </g>
   </g>
   <g id="line2d_85">
    <path d="M 56.93795 527.03895 
L 83.281484 527.03895 
L 94.57157 520.482194 
L 98.334932 511.739853 
L 102.098294 505.183097 
L 105.861656 500.811927 
L 113.38838 509.554268 
L 117.151742 511.739853 
L 120.915104 516.111024 
L 124.678466 527.03895 
L 177.365535 527.03895 
L 181.128897 516.111024 
L 184.892259 481.14166 
L 188.655621 443.98671 
L 192.418983 433.058784 
L 196.182345 433.058784 
L 203.709069 446.172296 
L 207.472431 472.399319 
L 211.235793 509.554268 
L 214.999155 527.03895 
L 263.922861 527.03895 
L 267.686223 524.853365 
L 271.449585 494.255171 
L 275.212947 452.729051 
L 278.976309 428.687614 
L 282.739671 406.831761 
L 286.503033 395.903835 
L 290.266395 406.831761 
L 294.029757 433.058784 
L 301.556481 494.255171 
L 305.319843 520.482194 
L 309.083205 527.03895 
L 346.716826 527.03895 
L 350.480188 524.853365 
L 358.006912 524.853365 
L 361.770274 498.626342 
L 365.533636 463.656978 
L 369.296998 435.244369 
L 373.06036 435.244369 
L 376.823722 419.945273 
L 380.587084 413.388517 
L 384.350446 417.759687 
L 388.113808 430.873199 
L 391.87717 448.357881 
L 399.403894 500.811927 
L 403.167256 522.667779 
L 406.930618 527.03895 
L 444.564238 527.03895 
L 448.3276 520.482194 
L 452.090962 485.51283 
L 455.854324 441.801125 
L 459.617686 417.759687 
L 463.381048 419.945273 
L 467.14441 411.202932 
L 470.907772 406.831761 
L 474.671134 413.388517 
L 478.434496 426.502028 
L 482.197858 443.98671 
L 485.96122 465.842563 
L 489.724582 494.255171 
L 493.487944 520.482194 
L 497.251306 527.03895 
L 531.121565 527.03895 
L 534.884927 524.853365 
L 538.648289 509.554268 
L 542.411651 468.028148 
L 546.175013 435.244369 
L 553.701737 404.646176 
L 557.465099 398.08942 
L 561.228461 415.574102 
L 564.991823 413.388517 
L 572.518547 435.244369 
L 576.281909 457.100222 
L 580.045271 487.698415 
L 583.808633 513.925438 
L 587.571995 527.03895 
L 621.442253 527.03895 
L 625.205615 524.853365 
L 628.968977 507.368683 
L 636.495701 433.058784 
L 640.259063 400.275005 
L 644.022425 382.790323 
L 647.785787 369.676812 
L 651.549149 365.305641 
L 655.312511 371.862397 
L 659.075873 389.347079 
L 662.839235 411.202932 
L 666.602597 441.801125 
L 670.365959 476.770489 
L 674.129321 507.368683 
L 677.892683 522.667779 
L 681.656045 527.03895 
L 711.762942 527.03895 
L 715.526304 524.853365 
L 719.289666 509.554268 
L 723.053028 472.399319 
L 726.81639 430.873199 
L 730.579752 395.903835 
L 734.343114 369.676812 
L 738.106476 358.748886 
L 741.869838 356.5633 
L 745.6332 360.934471 
L 749.396562 376.233568 
L 753.159924 400.275005 
L 756.923286 430.873199 
L 760.686648 470.213733 
L 764.45001 505.183097 
L 768.213372 522.667779 
L 771.976734 527.03895 
L 805.846992 527.03895 
L 809.610354 516.111024 
L 813.373716 476.770489 
L 817.137078 422.130858 
L 820.90044 380.604738 
L 824.663802 354.377715 
L 828.427164 343.449789 
L 835.953888 347.820959 
L 839.71725 363.120056 
L 843.480612 391.532664 
L 847.243974 430.873199 
L 851.007336 478.956074 
L 854.770698 516.111024 
L 858.53406 527.03895 
L 896.167681 527.03895 
L 899.931043 522.667779 
L 903.694405 485.51283 
L 907.457767 428.687614 
L 911.221129 382.790323 
L 914.984491 360.934471 
L 918.747853 356.5633 
L 922.511215 358.748886 
L 926.274577 367.491227 
L 930.037939 380.604738 
L 933.801301 402.460591 
L 937.564663 446.172296 
L 941.328025 494.255171 
L 945.091387 524.853365 
L 948.854749 527.03895 
L 986.488369 527.03895 
L 990.251731 524.853365 
L 994.015093 494.255171 
L 997.778455 437.429955 
L 1001.541817 391.532664 
L 1005.305179 365.305641 
L 1009.068541 358.748886 
L 1012.831903 356.5633 
L 1016.595265 374.047982 
L 1020.358627 402.460591 
L 1024.121989 450.543466 
L 1027.885351 494.255171 
L 1031.648713 520.482194 
L 1035.412075 527.03895 
L 1080.57242 527.03895 
L 1084.335782 522.667779 
L 1088.099144 487.698415 
L 1091.862506 439.61554 
L 1095.625868 406.831761 
L 1099.38923 389.347079 
L 1103.152592 380.604738 
L 1106.915954 382.790323 
L 1110.679316 402.460591 
L 1114.442678 446.172296 
L 1118.20604 505.183097 
L 1121.969402 527.03895 
L 1137.02285 527.03895 
L 1137.02285 527.03895 
" clip-path="url(#p1f75ab0b9d)" style="fill: none; stroke: #ff7f0e; stroke-opacity: 0.8; stroke-width: 1.5; stroke-linecap: round"/>
   </g>
   <g id="line2d_86">
    <path d="M 147.258639 527.03895 
L 147.258639 308.480425 
" clip-path="url(#p1f75ab0b9d)" style="fill: none; stroke-dasharray: 3.7,1.6; stroke-dashoffset: 0; stroke: #808080; stroke-opacity: 0.6"/>
   </g>
   <g id="line2d_87">
    <path d="M 237.579327 527.03895 
L 237.579327 308.480425 
" clip-path="url(#p1f75ab0b9d)" style="fill: none; stroke-dasharray: 3.7,1.6; stroke-dashoffset: 0; stroke: #808080; stroke-opacity: 0.6"/>
   </g>
   <g id="line2d_88">
    <path d="M 327.900016 527.03895 
L 327.900016 308.480425 
" clip-path="url(#p1f75ab0b9d)" style="fill: none; stroke-dasharray: 3.7,1.6; stroke-dashoffset: 0; stroke: #808080; stroke-opacity: 0.6"/>
   </g>
   <g id="line2d_89">
    <path d="M 418.220704 527.03895 
L 418.220704 308.480425 
" clip-path="url(#p1f75ab0b9d)" style="fill: none; stroke-dasharray: 3.7,1.6; stroke-dashoffset: 0; stroke: #808080; stroke-opacity: 0.6"/>
   </g>
   <g id="line2d_90">
    <path d="M 508.541393 527.03895 
L 508.541393 308.480425 
" clip-path="url(#p1f75ab0b9d)" style="fill: none; stroke-dasharray: 3.7,1.6; stroke-dashoffset: 0; stroke: #808080; stroke-opacity: 0.6"/>
   </g>
   <g id="line2d_91">
    <path d="M 598.862081 527.03895 
L 598.862081 308.480425 
" clip-path="url(#p1f75ab0b9d)" style="fill: none; stroke-dasharray: 3.7,1.6; stroke-dashoffset: 0; stroke: #808080; stroke-opacity: 0.6"/>
   </g>
   <g id="line2d_92">
    <path d="M 689.18277 527.03895 
L 689.18277 308.480425 
" clip-path="url(#p1f75ab0b9d)" style="fill: none; stroke-dasharray: 3.7,1.6; stroke-dashoffset: 0; stroke: #808080; stroke-opacity: 0.6"/>
   </g>
   <g id="line2d_93">
    <path d="M 779.503458 527.03895 
L 779.503458 308.480425 
" clip-path="url(#p1f75ab0b9d)" style="fill: none; stroke-dasharray: 3.7,1.6; stroke-dashoffset: 0; stroke: #808080; stroke-opacity: 0.6"/>
   </g>
   <g id="line2d_94">
    <path d="M 869.824147 527.03895 
L 869.824147 308.480425 
" clip-path="url(#p1f75ab0b9d)" style="fill: none; stroke-dasharray: 3.7,1.6; stroke-dashoffset: 0; stroke: #808080; stroke-opacity: 0.6"/>
   </g>
   <g id="line2d_95">
    <path d="M 960.144835 527.03895 
L 960.144835 308.480425 
" clip-path="url(#p1f75ab0b9d)" style="fill: none; stroke-dasharray: 3.7,1.6; stroke-dashoffset: 0; stroke: #808080; stroke-opacity: 0.6"/>
   </g>
   <g id="line2d_96">
    <path d="M 1050.465524 527.03895 
L 1050.465524 308.480425 
" clip-path="url(#p1f75ab0b9d)" style="fill: none; stroke-dasharray: 3.7,1.6; stroke-dashoffset: 0; stroke: #808080; stroke-opacity: 0.6"/>
   </g>
   <g id="patch_8">
    <path d="M 56.93795 527.03895 
L 56.93795 308.480425 
" style="fill: none; stroke: #cccccc; stroke-linejoin: miter; stroke-linecap: square"/>
   </g>
   <g id="patch_9">
    <path d="M 1137.02285 527.03895 
L 1137.02285 308.480425 
" style="fill: none; stroke: #cccccc; stroke-linejoin: miter; stroke-linecap: square"/>
   </g>
   <g id="patch_10">
    <path d="M 56.93795 527.03895 
L 1137.02285 527.03895 
" style="fill: none; stroke: #cccccc; stroke-linejoin: miter; stroke-linecap: square"/>
   </g>
   <g id="patch_11">
    <path d="M 56.93795 308.480425 
L 1137.02285 308.480425 
" style="fill: none; stroke: #cccccc; stroke-linejoin: miter; stroke-linecap: square"/>
   </g>
   <g id="text_29">
    <!-- Solar PV Generation Profile -->
    <g style="fill: #262626" transform="translate(510.995244 298.480425) scale(0.14 -0.14)">
     <use xlink:href="#ArialMT-53"/>
     <use xlink:href="#ArialMT-6f" transform="translate(66.699219 0)"/>
     <use xlink:href="#ArialMT-6c" transform="translate(122.314453 0)"/>
     <use xlink:href="#ArialMT-61" transform="translate(144.53125 0)"/>
     <use xlink:href="#ArialMT-72" transform="translate(200.146484 0)"/>
     <use xlink:href="#ArialMT-20" transform="translate(233.447266 0)"/>
     <use xlink:href="#ArialMT-50" transform="translate(261.230469 0)"/>
     <use xlink:href="#ArialMT-56" transform="translate(327.929688 0)"/>
     <use xlink:href="#ArialMT-20" transform="translate(394.628906 0)"/>
     <use xlink:href="#ArialMT-47" transform="translate(422.412109 0)"/>
     <use xlink:href="#ArialMT-65" transform="translate(500.195312 0)"/>
     <use xlink:href="#ArialMT-6e" transform="translate(555.810547 0)"/>
     <use xlink:href="#ArialMT-65" transform="translate(611.425781 0)"/>
     <use xlink:href="#ArialMT-72" transform="translate(667.041016 0)"/>
     <use xlink:href="#ArialMT-61" transform="translate(700.341797 0)"/>
     <use xlink:href="#ArialMT-74" transform="translate(755.957031 0)"/>
     <use xlink:href="#ArialMT-69" transform="translate(783.740234 0)"/>
     <use xlink:href="#ArialMT-6f" transform="translate(805.957031 0)"/>
     <use xlink:href="#ArialMT-6e" transform="translate(861.572266 0)"/>
     <use xlink:href="#ArialMT-20" transform="translate(917.1875 0)"/>
     <use xlink:href="#ArialMT-50" transform="translate(944.970703 0)"/>
     <use xlink:href="#ArialMT-72" transform="translate(1011.669922 0)"/>
     <use xlink:href="#ArialMT-6f" transform="translate(1044.970703 0)"/>
     <use xlink:href="#ArialMT-66" transform="translate(1100.585938 0)"/>
     <use xlink:href="#ArialMT-69" transform="translate(1128.369141 0)"/>
     <use xlink:href="#ArialMT-6c" transform="translate(1150.585938 0)"/>
     <use xlink:href="#ArialMT-65" transform="translate(1172.802734 0)"/>
    </g>
   </g>
  </g>
  <g id="text_30">
   <!-- Weather Profiles for 12 Representative Days -->
   <g style="fill: #262626" transform="translate(414.2839 18.8475) scale(0.16 -0.16)">
    <use xlink:href="#ArialMT-57"/>
    <use xlink:href="#ArialMT-65" transform="translate(92.634766 0)"/>
    <use xlink:href="#ArialMT-61" transform="translate(148.25 0)"/>
    <use xlink:href="#ArialMT-74" transform="translate(203.865234 0)"/>
    <use xlink:href="#ArialMT-68" transform="translate(231.648438 0)"/>
    <use xlink:href="#ArialMT-65" transform="translate(287.263672 0)"/>
    <use xlink:href="#ArialMT-72" transform="translate(342.878906 0)"/>
    <use xlink:href="#ArialMT-20" transform="translate(376.179688 0)"/>
    <use xlink:href="#ArialMT-50" transform="translate(403.962891 0)"/>
    <use xlink:href="#ArialMT-72" transform="translate(470.662109 0)"/>
    <use xlink:href="#ArialMT-6f" transform="translate(503.962891 0)"/>
    <use xlink:href="#ArialMT-66" transform="translate(559.578125 0)"/>
    <use xlink:href="#ArialMT-69" transform="translate(587.361328 0)"/>
    <use xlink:href="#ArialMT-6c" transform="translate(609.578125 0)"/>
    <use xlink:href="#ArialMT-65" transform="translate(631.794922 0)"/>
    <use xlink:href="#ArialMT-73" transform="translate(687.410156 0)"/>
    <use xlink:href="#ArialMT-20" transform="translate(737.410156 0)"/>
    <use xlink:href="#ArialMT-66" transform="translate(765.193359 0)"/>
    <use xlink:href="#ArialMT-6f" transform="translate(792.976562 0)"/>
    <use xlink:href="#ArialMT-72" transform="translate(848.591797 0)"/>
    <use xlink:href="#ArialMT-20" transform="translate(881.892578 0)"/>
    <use xlink:href="#ArialMT-31" transform="translate(909.675781 0)"/>
    <use xlink:href="#ArialMT-32" transform="translate(965.291016 0)"/>
    <use xlink:href="#ArialMT-20" transform="translate(1020.90625 0)"/>
    <use xlink:href="#ArialMT-52" transform="translate(1048.689453 0)"/>
    <use xlink:href="#ArialMT-65" transform="translate(1120.90625 0)"/>
    <use xlink:href="#ArialMT-70" transform="translate(1176.521484 0)"/>
    <use xlink:href="#ArialMT-72" transform="translate(1232.136719 0)"/>
    <use xlink:href="#ArialMT-65" transform="translate(1265.4375 0)"/>
    <use xlink:href="#ArialMT-73" transform="translate(1321.052734 0)"/>
    <use xlink:href="#ArialMT-65" transform="translate(1371.052734 0)"/>
    <use xlink:href="#ArialMT-6e" transform="translate(1426.667969 0)"/>
    <use xlink:href="#ArialMT-74" transform="translate(1482.283203 0)"/>
    <use xlink:href="#ArialMT-61" transform="translate(1510.066406 0)"/>
    <use xlink:href="#ArialMT-74" transform="translate(1565.681641 0)"/>
    <use xlink:href="#ArialMT-69" transform="translate(1593.464844 0)"/>
    <use xlink:href="#ArialMT-76" transform="translate(1615.681641 0)"/>
    <use xlink:href="#ArialMT-65" transform="translate(1665.681641 0)"/>
    <use xlink:href="#ArialMT-20" transform="translate(1721.296875 0)"/>
    <use xlink:href="#ArialMT-44" transform="translate(1749.080078 0)"/>
    <use xlink:href="#ArialMT-61" transform="translate(1821.296875 0)"/>
    <use xlink:href="#ArialMT-79" transform="translate(1876.912109 0)"/>
    <use xlink:href="#ArialMT-73" transform="translate(1926.912109 0)"/>
   </g>
  </g>
 </g>
 <defs>
  <clipPath id="p0774144c70">
   <rect x="56.93795" y="53.0371" width="1080.0849" height="218.558525"/>
  </clipPath>
  <clipPath id="p1f75ab0b9d">
   <rect x="56.93795" y="308.480425" width="1080.0849" height="218.558525"/>
  </clipPath>
 </defs>
</svg>
