<?xml version="1.0" encoding="utf-8" standalone="no"?>
<!DOCTYPE svg PUBLIC "-//W3C//DTD SVG 1.1//EN"
  "http://www.w3.org/Graphics/SVG/1.1/DTD/svg11.dtd">
<svg xmlns:xlink="http://www.w3.org/1999/xlink" width="1012.928282pt" height="726.508687pt" viewBox="0 0 1012.928282 726.508687" xmlns="http://www.w3.org/2000/svg" version="1.1">
 <metadata>
  <rdf:RDF xmlns:dc="http://purl.org/dc/elements/1.1/" xmlns:cc="http://creativecommons.org/ns#" xmlns:rdf="http://www.w3.org/1999/02/22-rdf-syntax-ns#">
   <cc:Work>
    <dc:type rdf:resource="http://purl.org/dc/dcmitype/StillImage"/>
    <dc:date>2025-11-30T21:17:27.433782</dc:date>
    <dc:format>image/svg+xml</dc:format>
    <dc:creator>
     <cc:Agent>
      <dc:title>Matplotlib v3.10.3, https://matplotlib.org/</dc:title>
     </cc:Agent>
    </dc:creator>
   </cc:Work>
  </rdf:RDF>
 </metadata>
 <defs>
  <style type="text/css">*{stroke-linejoin: round; stroke-linecap: butt}</style>
 </defs>
 <g id="figure_1">
  <g id="patch_1">
   <path d="M 0 726.508687 
L 1012.928282 726.508687 
L 1012.928282 0 
L 0 0 
z
" style="fill: #ffffff"/>
  </g>
  <g id="axes_1">
   <g id="patch_2">
    <path d="M 64.0593 331.96655 
L 814.5997 331.96655 
L 814.5997 41.0475 
L 64.0593 41.0475 
z
" style="fill: #ffffff"/>
   </g>
   <g id="matplotlib.axis_1">
    <g id="xtick_1">
     <g id="line2d_1">
      <path d="M 98.174773 331.96655 
L 98.174773 41.0475 
" clip-path="url(#pf67a33b617)" style="fill: none; stroke: #cccccc; stroke-opacity: 0.3; stroke-width: 0.8; stroke-linecap: round"/>
     </g>
     <g id="line2d_2">
      <defs>
       <path id="ma9a8872f59" d="M 0 0 
L 0 4.8 
" style="stroke: #262626"/>
      </defs>
      <g>
       <use xlink:href="#ma9a8872f59" x="98.174773" y="331.96655" style="fill: #262626; stroke: #262626"/>
      </g>
     </g>
     <g id="text_1">
      <!-- 0 -->
      <g style="fill: #262626" transform="translate(95.483279 347.195312) scale(0.0968 -0.0968)">
       <defs>
        <path id="ArialMT-30" d="M 266 2259 
Q 266 3072 433 3567 
Q 600 4063 929 4331 
Q 1259 4600 1759 4600 
Q 2128 4600 2406 4451 
Q 2684 4303 2865 4023 
Q 3047 3744 3150 3342 
Q 3253 2941 3253 2259 
Q 3253 1453 3087 958 
Q 2922 463 2592 192 
Q 2263 -78 1759 -78 
Q 1097 -78 719 397 
Q 266 969 266 2259 
z
M 844 2259 
Q 844 1131 1108 757 
Q 1372 384 1759 384 
Q 2147 384 2411 759 
Q 2675 1134 2675 2259 
Q 2675 3391 2411 3762 
Q 2147 4134 1753 4134 
Q 1366 4134 1134 3806 
Q 844 3388 844 2259 
z
" transform="scale(0.015625)"/>
       </defs>
       <use xlink:href="#ArialMT-30"/>
      </g>
     </g>
    </g>
    <g id="xtick_2">
     <g id="line2d_3">
      <path d="M 157.50603 331.96655 
L 157.50603 41.0475 
" clip-path="url(#pf67a33b617)" style="fill: none; stroke: #cccccc; stroke-opacity: 0.3; stroke-width: 0.8; stroke-linecap: round"/>
     </g>
     <g id="line2d_4">
      <g>
       <use xlink:href="#ma9a8872f59" x="157.50603" y="331.96655" style="fill: #262626; stroke: #262626"/>
      </g>
     </g>
     <g id="text_2">
      <!-- 2 -->
      <g style="fill: #262626" transform="translate(154.814536 347.195312) scale(0.0968 -0.0968)">
       <defs>
        <path id="ArialMT-32" d="M 3222 541 
L 3222 0 
L 194 0 
Q 188 203 259 391 
Q 375 700 629 1000 
Q 884 1300 1366 1694 
Q 2113 2306 2375 2664 
Q 2638 3022 2638 3341 
Q 2638 3675 2398 3904 
Q 2159 4134 1775 4134 
Q 1369 4134 1125 3890 
Q 881 3647 878 3216 
L 300 3275 
Q 359 3922 746 4261 
Q 1134 4600 1788 4600 
Q 2447 4600 2831 4234 
Q 3216 3869 3216 3328 
Q 3216 3053 3103 2787 
Q 2991 2522 2730 2228 
Q 2469 1934 1863 1422 
Q 1356 997 1212 845 
Q 1069 694 975 541 
L 3222 541 
z
" transform="scale(0.015625)"/>
       </defs>
       <use xlink:href="#ArialMT-32"/>
      </g>
     </g>
    </g>
    <g id="xtick_3">
     <g id="line2d_5">
      <path d="M 216.837287 331.96655 
L 216.837287 41.0475 
" clip-path="url(#pf67a33b617)" style="fill: none; stroke: #cccccc; stroke-opacity: 0.3; stroke-width: 0.8; stroke-linecap: round"/>
     </g>
     <g id="line2d_6">
      <g>
       <use xlink:href="#ma9a8872f59" x="216.837287" y="331.96655" style="fill: #262626; stroke: #262626"/>
      </g>
     </g>
     <g id="text_3">
      <!-- 4 -->
      <g style="fill: #262626" transform="translate(214.145793 347.195312) scale(0.0968 -0.0968)">
       <defs>
        <path id="ArialMT-34" d="M 2069 0 
L 2069 1097 
L 81 1097 
L 81 1613 
L 2172 4581 
L 2631 4581 
L 2631 1613 
L 3250 1613 
L 3250 1097 
L 2631 1097 
L 2631 0 
L 2069 0 
z
M 2069 1613 
L 2069 3678 
L 634 1613 
L 2069 1613 
z
" transform="scale(0.015625)"/>
       </defs>
       <use xlink:href="#ArialMT-34"/>
      </g>
     </g>
    </g>
    <g id="xtick_4">
     <g id="line2d_7">
      <path d="M 276.168543 331.96655 
L 276.168543 41.0475 
" clip-path="url(#pf67a33b617)" style="fill: none; stroke: #cccccc; stroke-opacity: 0.3; stroke-width: 0.8; stroke-linecap: round"/>
     </g>
     <g id="line2d_8">
      <g>
       <use xlink:href="#ma9a8872f59" x="276.168543" y="331.96655" style="fill: #262626; stroke: #262626"/>
      </g>
     </g>
     <g id="text_4">
      <!-- 6 -->
      <g style="fill: #262626" transform="translate(273.47705 347.195312) scale(0.0968 -0.0968)">
       <defs>
        <path id="ArialMT-36" d="M 3184 3459 
L 2625 3416 
Q 2550 3747 2413 3897 
Q 2184 4138 1850 4138 
Q 1581 4138 1378 3988 
Q 1113 3794 959 3422 
Q 806 3050 800 2363 
Q 1003 2672 1297 2822 
Q 1591 2972 1913 2972 
Q 2475 2972 2870 2558 
Q 3266 2144 3266 1488 
Q 3266 1056 3080 686 
Q 2894 316 2569 119 
Q 2244 -78 1831 -78 
Q 1128 -78 684 439 
Q 241 956 241 2144 
Q 241 3472 731 4075 
Q 1159 4600 1884 4600 
Q 2425 4600 2770 4297 
Q 3116 3994 3184 3459 
z
M 888 1484 
Q 888 1194 1011 928 
Q 1134 663 1356 523 
Q 1578 384 1822 384 
Q 2178 384 2434 671 
Q 2691 959 2691 1453 
Q 2691 1928 2437 2201 
Q 2184 2475 1800 2475 
Q 1419 2475 1153 2201 
Q 888 1928 888 1484 
z
" transform="scale(0.015625)"/>
       </defs>
       <use xlink:href="#ArialMT-36"/>
      </g>
     </g>
    </g>
    <g id="xtick_5">
     <g id="line2d_9">
      <path d="M 335.4998 331.96655 
L 335.4998 41.0475 
" clip-path="url(#pf67a33b617)" style="fill: none; stroke: #cccccc; stroke-opacity: 0.3; stroke-width: 0.8; stroke-linecap: round"/>
     </g>
     <g id="line2d_10">
      <g>
       <use xlink:href="#ma9a8872f59" x="335.4998" y="331.96655" style="fill: #262626; stroke: #262626"/>
      </g>
     </g>
     <g id="text_5">
      <!-- 8 -->
      <g style="fill: #262626" transform="translate(332.808307 347.195312) scale(0.0968 -0.0968)">
       <defs>
        <path id="ArialMT-38" d="M 1131 2484 
Q 781 2613 612 2850 
Q 444 3088 444 3419 
Q 444 3919 803 4259 
Q 1163 4600 1759 4600 
Q 2359 4600 2725 4251 
Q 3091 3903 3091 3403 
Q 3091 3084 2923 2848 
Q 2756 2613 2416 2484 
Q 2838 2347 3058 2040 
Q 3278 1734 3278 1309 
Q 3278 722 2862 322 
Q 2447 -78 1769 -78 
Q 1091 -78 675 323 
Q 259 725 259 1325 
Q 259 1772 486 2073 
Q 713 2375 1131 2484 
z
M 1019 3438 
Q 1019 3113 1228 2906 
Q 1438 2700 1772 2700 
Q 2097 2700 2305 2904 
Q 2513 3109 2513 3406 
Q 2513 3716 2298 3927 
Q 2084 4138 1766 4138 
Q 1444 4138 1231 3931 
Q 1019 3725 1019 3438 
z
M 838 1322 
Q 838 1081 952 856 
Q 1066 631 1291 507 
Q 1516 384 1775 384 
Q 2178 384 2440 643 
Q 2703 903 2703 1303 
Q 2703 1709 2433 1975 
Q 2163 2241 1756 2241 
Q 1359 2241 1098 1978 
Q 838 1716 838 1322 
z
" transform="scale(0.015625)"/>
       </defs>
       <use xlink:href="#ArialMT-38"/>
      </g>
     </g>
    </g>
    <g id="xtick_6">
     <g id="line2d_11">
      <path d="M 394.831057 331.96655 
L 394.831057 41.0475 
" clip-path="url(#pf67a33b617)" style="fill: none; stroke: #cccccc; stroke-opacity: 0.3; stroke-width: 0.8; stroke-linecap: round"/>
     </g>
     <g id="line2d_12">
      <g>
       <use xlink:href="#ma9a8872f59" x="394.831057" y="331.96655" style="fill: #262626; stroke: #262626"/>
      </g>
     </g>
     <g id="text_6">
      <!-- 10 -->
      <g style="fill: #262626" transform="translate(389.44807 347.195312) scale(0.0968 -0.0968)">
       <defs>
        <path id="ArialMT-31" d="M 2384 0 
L 1822 0 
L 1822 3584 
Q 1619 3391 1289 3197 
Q 959 3003 697 2906 
L 697 3450 
Q 1169 3672 1522 3987 
Q 1875 4303 2022 4600 
L 2384 4600 
L 2384 0 
z
" transform="scale(0.015625)"/>
       </defs>
       <use xlink:href="#ArialMT-31"/>
       <use xlink:href="#ArialMT-30" transform="translate(55.615234 0)"/>
      </g>
     </g>
    </g>
    <g id="xtick_7">
     <g id="line2d_13">
      <path d="M 454.162314 331.96655 
L 454.162314 41.0475 
" clip-path="url(#pf67a33b617)" style="fill: none; stroke: #cccccc; stroke-opacity: 0.3; stroke-width: 0.8; stroke-linecap: round"/>
     </g>
     <g id="line2d_14">
      <g>
       <use xlink:href="#ma9a8872f59" x="454.162314" y="331.96655" style="fill: #262626; stroke: #262626"/>
      </g>
     </g>
     <g id="text_7">
      <!-- 12 -->
      <g style="fill: #262626" transform="translate(448.779327 347.195312) scale(0.0968 -0.0968)">
       <use xlink:href="#ArialMT-31"/>
       <use xlink:href="#ArialMT-32" transform="translate(55.615234 0)"/>
      </g>
     </g>
    </g>
    <g id="xtick_8">
     <g id="line2d_15">
      <path d="M 513.493571 331.96655 
L 513.493571 41.0475 
" clip-path="url(#pf67a33b617)" style="fill: none; stroke: #cccccc; stroke-opacity: 0.3; stroke-width: 0.8; stroke-linecap: round"/>
     </g>
     <g id="line2d_16">
      <g>
       <use xlink:href="#ma9a8872f59" x="513.493571" y="331.96655" style="fill: #262626; stroke: #262626"/>
      </g>
     </g>
     <g id="text_8">
      <!-- 14 -->
      <g style="fill: #262626" transform="translate(508.110584 347.195312) scale(0.0968 -0.0968)">
       <use xlink:href="#ArialMT-31"/>
       <use xlink:href="#ArialMT-34" transform="translate(55.615234 0)"/>
      </g>
     </g>
    </g>
    <g id="xtick_9">
     <g id="line2d_17">
      <path d="M 572.824828 331.96655 
L 572.824828 41.0475 
" clip-path="url(#pf67a33b617)" style="fill: none; stroke: #cccccc; stroke-opacity: 0.3; stroke-width: 0.8; stroke-linecap: round"/>
     </g>
     <g id="line2d_18">
      <g>
       <use xlink:href="#ma9a8872f59" x="572.824828" y="331.96655" style="fill: #262626; stroke: #262626"/>
      </g>
     </g>
     <g id="text_9">
      <!-- 16 -->
      <g style="fill: #262626" transform="translate(567.441841 347.195312) scale(0.0968 -0.0968)">
       <use xlink:href="#ArialMT-31"/>
       <use xlink:href="#ArialMT-36" transform="translate(55.615234 0)"/>
      </g>
     </g>
    </g>
    <g id="xtick_10">
     <g id="line2d_19">
      <path d="M 632.156085 331.96655 
L 632.156085 41.0475 
" clip-path="url(#pf67a33b617)" style="fill: none; stroke: #cccccc; stroke-opacity: 0.3; stroke-width: 0.8; stroke-linecap: round"/>
     </g>
     <g id="line2d_20">
      <g>
       <use xlink:href="#ma9a8872f59" x="632.156085" y="331.96655" style="fill: #262626; stroke: #262626"/>
      </g>
     </g>
     <g id="text_10">
      <!-- 18 -->
      <g style="fill: #262626" transform="translate(626.773097 347.195312) scale(0.0968 -0.0968)">
       <use xlink:href="#ArialMT-31"/>
       <use xlink:href="#ArialMT-38" transform="translate(55.615234 0)"/>
      </g>
     </g>
    </g>
    <g id="xtick_11">
     <g id="line2d_21">
      <path d="M 691.487342 331.96655 
L 691.487342 41.0475 
" clip-path="url(#pf67a33b617)" style="fill: none; stroke: #cccccc; stroke-opacity: 0.3; stroke-width: 0.8; stroke-linecap: round"/>
     </g>
     <g id="line2d_22">
      <g>
       <use xlink:href="#ma9a8872f59" x="691.487342" y="331.96655" style="fill: #262626; stroke: #262626"/>
      </g>
     </g>
     <g id="text_11">
      <!-- 20 -->
      <g style="fill: #262626" transform="translate(686.104354 347.195312) scale(0.0968 -0.0968)">
       <use xlink:href="#ArialMT-32"/>
       <use xlink:href="#ArialMT-30" transform="translate(55.615234 0)"/>
      </g>
     </g>
    </g>
    <g id="xtick_12">
     <g id="line2d_23">
      <path d="M 750.818599 331.96655 
L 750.818599 41.0475 
" clip-path="url(#pf67a33b617)" style="fill: none; stroke: #cccccc; stroke-opacity: 0.3; stroke-width: 0.8; stroke-linecap: round"/>
     </g>
     <g id="line2d_24">
      <g>
       <use xlink:href="#ma9a8872f59" x="750.818599" y="331.96655" style="fill: #262626; stroke: #262626"/>
      </g>
     </g>
     <g id="text_12">
      <!-- 22 -->
      <g style="fill: #262626" transform="translate(745.435611 347.195312) scale(0.0968 -0.0968)">
       <use xlink:href="#ArialMT-32"/>
       <use xlink:href="#ArialMT-32" transform="translate(55.615234 0)"/>
      </g>
     </g>
    </g>
   </g>
   <g id="matplotlib.axis_2">
    <g id="ytick_1">
     <g id="line2d_25">
      <path d="M 64.0593 330.109929 
L 814.5997 330.109929 
" clip-path="url(#pf67a33b617)" style="fill: none; stroke: #cccccc; stroke-opacity: 0.3; stroke-width: 0.8; stroke-linecap: round"/>
     </g>
     <g id="line2d_26">
      <defs>
       <path id="me78c3b8548" d="M 0 0 
L -4.8 0 
" style="stroke: #262626"/>
      </defs>
      <g>
       <use xlink:href="#me78c3b8548" x="64.0593" y="330.109929" style="fill: #262626; stroke: #262626"/>
      </g>
     </g>
     <g id="text_13">
      <!-- 0.080 -->
      <g style="fill: #262626" transform="translate(31.538125 333.57431) scale(0.0968 -0.0968)">
       <defs>
        <path id="ArialMT-2e" d="M 581 0 
L 581 641 
L 1222 641 
L 1222 0 
L 581 0 
z
" transform="scale(0.015625)"/>
       </defs>
       <use xlink:href="#ArialMT-30"/>
       <use xlink:href="#ArialMT-2e" transform="translate(55.615234 0)"/>
       <use xlink:href="#ArialMT-30" transform="translate(83.398438 0)"/>
       <use xlink:href="#ArialMT-38" transform="translate(139.013672 0)"/>
       <use xlink:href="#ArialMT-30" transform="translate(194.628906 0)"/>
      </g>
     </g>
    </g>
    <g id="ytick_2">
     <g id="line2d_27">
      <path d="M 64.0593 272.458339 
L 814.5997 272.458339 
" clip-path="url(#pf67a33b617)" style="fill: none; stroke: #cccccc; stroke-opacity: 0.3; stroke-width: 0.8; stroke-linecap: round"/>
     </g>
     <g id="line2d_28">
      <g>
       <use xlink:href="#me78c3b8548" x="64.0593" y="272.458339" style="fill: #262626; stroke: #262626"/>
      </g>
     </g>
     <g id="text_14">
      <!-- 0.100 -->
      <g style="fill: #262626" transform="translate(31.538125 275.92272) scale(0.0968 -0.0968)">
       <use xlink:href="#ArialMT-30"/>
       <use xlink:href="#ArialMT-2e" transform="translate(55.615234 0)"/>
       <use xlink:href="#ArialMT-31" transform="translate(83.398438 0)"/>
       <use xlink:href="#ArialMT-30" transform="translate(139.013672 0)"/>
       <use xlink:href="#ArialMT-30" transform="translate(194.628906 0)"/>
      </g>
     </g>
    </g>
    <g id="ytick_3">
     <g id="line2d_29">
      <path d="M 64.0593 214.806749 
L 814.5997 214.806749 
" clip-path="url(#pf67a33b617)" style="fill: none; stroke: #cccccc; stroke-opacity: 0.3; stroke-width: 0.8; stroke-linecap: round"/>
     </g>
     <g id="line2d_30">
      <g>
       <use xlink:href="#me78c3b8548" x="64.0593" y="214.806749" style="fill: #262626; stroke: #262626"/>
      </g>
     </g>
     <g id="text_15">
      <!-- 0.120 -->
      <g style="fill: #262626" transform="translate(31.538125 218.27113) scale(0.0968 -0.0968)">
       <use xlink:href="#ArialMT-30"/>
       <use xlink:href="#ArialMT-2e" transform="translate(55.615234 0)"/>
       <use xlink:href="#ArialMT-31" transform="translate(83.398438 0)"/>
       <use xlink:href="#ArialMT-32" transform="translate(139.013672 0)"/>
       <use xlink:href="#ArialMT-30" transform="translate(194.628906 0)"/>
      </g>
     </g>
    </g>
    <g id="ytick_4">
     <g id="line2d_31">
      <path d="M 64.0593 157.155159 
L 814.5997 157.155159 
" clip-path="url(#pf67a33b617)" style="fill: none; stroke: #cccccc; stroke-opacity: 0.3; stroke-width: 0.8; stroke-linecap: round"/>
     </g>
     <g id="line2d_32">
      <g>
       <use xlink:href="#me78c3b8548" x="64.0593" y="157.155159" style="fill: #262626; stroke: #262626"/>
      </g>
     </g>
     <g id="text_16">
      <!-- 0.140 -->
      <g style="fill: #262626" transform="translate(31.538125 160.619541) scale(0.0968 -0.0968)">
       <use xlink:href="#ArialMT-30"/>
       <use xlink:href="#ArialMT-2e" transform="translate(55.615234 0)"/>
       <use xlink:href="#ArialMT-31" transform="translate(83.398438 0)"/>
       <use xlink:href="#ArialMT-34" transform="translate(139.013672 0)"/>
       <use xlink:href="#ArialMT-30" transform="translate(194.628906 0)"/>
      </g>
     </g>
    </g>
    <g id="ytick_5">
     <g id="line2d_33">
      <path d="M 64.0593 99.50357 
L 814.5997 99.50357 
" clip-path="url(#pf67a33b617)" style="fill: none; stroke: #cccccc; stroke-opacity: 0.3; stroke-width: 0.8; stroke-linecap: round"/>
     </g>
     <g id="line2d_34">
      <g>
       <use xlink:href="#me78c3b8548" x="64.0593" y="99.50357" style="fill: #262626; stroke: #262626"/>
      </g>
     </g>
     <g id="text_17">
      <!-- 0.160 -->
      <g style="fill: #262626" transform="translate(31.538125 102.967951) scale(0.0968 -0.0968)">
       <use xlink:href="#ArialMT-30"/>
       <use xlink:href="#ArialMT-2e" transform="translate(55.615234 0)"/>
       <use xlink:href="#ArialMT-31" transform="translate(83.398438 0)"/>
       <use xlink:href="#ArialMT-36" transform="translate(139.013672 0)"/>
       <use xlink:href="#ArialMT-30" transform="translate(194.628906 0)"/>
      </g>
     </g>
    </g>
    <g id="ytick_6">
     <g id="line2d_35">
      <path d="M 64.0593 41.85198 
L 814.5997 41.85198 
" clip-path="url(#pf67a33b617)" style="fill: none; stroke: #cccccc; stroke-opacity: 0.3; stroke-width: 0.8; stroke-linecap: round"/>
     </g>
     <g id="line2d_36">
      <g>
       <use xlink:href="#me78c3b8548" x="64.0593" y="41.85198" style="fill: #262626; stroke: #262626"/>
      </g>
     </g>
     <g id="text_18">
      <!-- 0.180 -->
      <g style="fill: #262626" transform="translate(31.538125 45.316361) scale(0.0968 -0.0968)">
       <use xlink:href="#ArialMT-30"/>
       <use xlink:href="#ArialMT-2e" transform="translate(55.615234 0)"/>
       <use xlink:href="#ArialMT-31" transform="translate(83.398438 0)"/>
       <use xlink:href="#ArialMT-38" transform="translate(139.013672 0)"/>
       <use xlink:href="#ArialMT-30" transform="translate(194.628906 0)"/>
      </g>
     </g>
    </g>
    <g id="text_19">
     <!-- Price (M€/GWh) -->
     <g style="fill: #262626" transform="translate(24.591563 236.674056) rotate(-90) scale(0.14 -0.14)">
      <defs>
       <path id="ArialMT-50" d="M 494 0 
L 494 4581 
L 2222 4581 
Q 2678 4581 2919 4538 
Q 3256 4481 3484 4323 
Q 3713 4166 3852 3881 
Q 3991 3597 3991 3256 
Q 3991 2672 3619 2267 
Q 3247 1863 2275 1863 
L 1100 1863 
L 1100 0 
L 494 0 
z
M 1100 2403 
L 2284 2403 
Q 2872 2403 3119 2622 
Q 3366 2841 3366 3238 
Q 3366 3525 3220 3729 
Q 3075 3934 2838 4000 
Q 2684 4041 2272 4041 
L 1100 4041 
L 1100 2403 
z
" transform="scale(0.015625)"/>
       <path id="ArialMT-72" d="M 416 0 
L 416 3319 
L 922 3319 
L 922 2816 
Q 1116 3169 1280 3281 
Q 1444 3394 1641 3394 
Q 1925 3394 2219 3213 
L 2025 2691 
Q 1819 2813 1613 2813 
Q 1428 2813 1281 2702 
Q 1134 2591 1072 2394 
Q 978 2094 978 1738 
L 978 0 
L 416 0 
z
" transform="scale(0.015625)"/>
       <path id="ArialMT-69" d="M 425 3934 
L 425 4581 
L 988 4581 
L 988 3934 
L 425 3934 
z
M 425 0 
L 425 3319 
L 988 3319 
L 988 0 
L 425 0 
z
" transform="scale(0.015625)"/>
       <path id="ArialMT-63" d="M 2588 1216 
L 3141 1144 
Q 3050 572 2676 248 
Q 2303 -75 1759 -75 
Q 1078 -75 664 370 
Q 250 816 250 1647 
Q 250 2184 428 2587 
Q 606 2991 970 3192 
Q 1334 3394 1763 3394 
Q 2303 3394 2647 3120 
Q 2991 2847 3088 2344 
L 2541 2259 
Q 2463 2594 2264 2762 
Q 2066 2931 1784 2931 
Q 1359 2931 1093 2626 
Q 828 2322 828 1663 
Q 828 994 1084 691 
Q 1341 388 1753 388 
Q 2084 388 2306 591 
Q 2528 794 2588 1216 
z
" transform="scale(0.015625)"/>
       <path id="ArialMT-65" d="M 2694 1069 
L 3275 997 
Q 3138 488 2766 206 
Q 2394 -75 1816 -75 
Q 1088 -75 661 373 
Q 234 822 234 1631 
Q 234 2469 665 2931 
Q 1097 3394 1784 3394 
Q 2450 3394 2872 2941 
Q 3294 2488 3294 1666 
Q 3294 1616 3291 1516 
L 816 1516 
Q 847 969 1125 678 
Q 1403 388 1819 388 
Q 2128 388 2347 550 
Q 2566 713 2694 1069 
z
M 847 1978 
L 2700 1978 
Q 2663 2397 2488 2606 
Q 2219 2931 1791 2931 
Q 1403 2931 1139 2672 
Q 875 2413 847 1978 
z
" transform="scale(0.015625)"/>
       <path id="ArialMT-20" transform="scale(0.015625)"/>
       <path id="ArialMT-28" d="M 1497 -1347 
Q 1031 -759 709 28 
Q 388 816 388 1659 
Q 388 2403 628 3084 
Q 909 3875 1497 4659 
L 1900 4659 
Q 1522 4009 1400 3731 
Q 1209 3300 1100 2831 
Q 966 2247 966 1656 
Q 966 153 1900 -1347 
L 1497 -1347 
z
" transform="scale(0.015625)"/>
       <path id="ArialMT-4d" d="M 475 0 
L 475 4581 
L 1388 4581 
L 2472 1338 
Q 2622 884 2691 659 
Q 2769 909 2934 1394 
L 4031 4581 
L 4847 4581 
L 4847 0 
L 4263 0 
L 4263 3834 
L 2931 0 
L 2384 0 
L 1059 3900 
L 1059 0 
L 475 0 
z
" transform="scale(0.015625)"/>
       <path id="ArialMT-20ac" d="M 2469 4141 
Q 1944 4141 1588 3888 
Q 1375 3738 1203 3463 
Q 1028 3178 997 2922 
L 3128 2922 
L 3044 2503 
L 947 2503 
Q 944 2438 944 2378 
Q 944 2138 947 2091 
L 2959 2091 
L 2872 1672 
L 1013 1672 
Q 1144 956 1644 656 
Q 2003 441 2422 441 
Q 3006 441 3334 747 
L 3334 103 
Q 2944 -78 2472 -78 
Q 1059 -78 563 1097 
Q 463 1334 391 1672 
L -88 1672 
L 0 2091 
L 328 2091 
Q 319 2222 319 2375 
Q 319 2438 322 2503 
L -88 2503 
L 0 2922 
L 363 2922 
Q 556 3941 1372 4384 
Q 1875 4659 2481 4659 
Q 3063 4659 3459 4406 
L 3334 3825 
Q 2953 4141 2469 4141 
z
" transform="scale(0.015625)"/>
       <path id="ArialMT-2f" d="M 0 -78 
L 1328 4659 
L 1778 4659 
L 453 -78 
L 0 -78 
z
" transform="scale(0.015625)"/>
       <path id="ArialMT-47" d="M 2638 1797 
L 2638 2334 
L 4578 2338 
L 4578 638 
Q 4131 281 3656 101 
Q 3181 -78 2681 -78 
Q 2006 -78 1454 211 
Q 903 500 622 1047 
Q 341 1594 341 2269 
Q 341 2938 620 3517 
Q 900 4097 1425 4378 
Q 1950 4659 2634 4659 
Q 3131 4659 3532 4498 
Q 3934 4338 4162 4050 
Q 4391 3763 4509 3300 
L 3963 3150 
Q 3859 3500 3706 3700 
Q 3553 3900 3268 4020 
Q 2984 4141 2638 4141 
Q 2222 4141 1919 4014 
Q 1616 3888 1430 3681 
Q 1244 3475 1141 3228 
Q 966 2803 966 2306 
Q 966 1694 1177 1281 
Q 1388 869 1791 669 
Q 2194 469 2647 469 
Q 3041 469 3416 620 
Q 3791 772 3984 944 
L 3984 1797 
L 2638 1797 
z
" transform="scale(0.015625)"/>
       <path id="ArialMT-57" d="M 1294 0 
L 78 4581 
L 700 4581 
L 1397 1578 
Q 1509 1106 1591 641 
Q 1766 1375 1797 1488 
L 2669 4581 
L 3400 4581 
L 4056 2263 
Q 4303 1400 4413 641 
Q 4500 1075 4641 1638 
L 5359 4581 
L 5969 4581 
L 4713 0 
L 4128 0 
L 3163 3491 
Q 3041 3928 3019 4028 
Q 2947 3713 2884 3491 
L 1913 0 
L 1294 0 
z
" transform="scale(0.015625)"/>
       <path id="ArialMT-68" d="M 422 0 
L 422 4581 
L 984 4581 
L 984 2938 
Q 1378 3394 1978 3394 
Q 2347 3394 2619 3248 
Q 2891 3103 3008 2847 
Q 3125 2591 3125 2103 
L 3125 0 
L 2563 0 
L 2563 2103 
Q 2563 2525 2380 2717 
Q 2197 2909 1863 2909 
Q 1613 2909 1392 2779 
Q 1172 2650 1078 2428 
Q 984 2206 984 1816 
L 984 0 
L 422 0 
z
" transform="scale(0.015625)"/>
       <path id="ArialMT-29" d="M 791 -1347 
L 388 -1347 
Q 1322 153 1322 1656 
Q 1322 2244 1188 2822 
Q 1081 3291 891 3722 
Q 769 4003 388 4659 
L 791 4659 
Q 1378 3875 1659 3084 
Q 1900 2403 1900 1659 
Q 1900 816 1576 28 
Q 1253 -759 791 -1347 
z
" transform="scale(0.015625)"/>
      </defs>
      <use xlink:href="#ArialMT-50"/>
      <use xlink:href="#ArialMT-72" transform="translate(66.699219 0)"/>
      <use xlink:href="#ArialMT-69" transform="translate(100 0)"/>
      <use xlink:href="#ArialMT-63" transform="translate(122.216797 0)"/>
      <use xlink:href="#ArialMT-65" transform="translate(172.216797 0)"/>
      <use xlink:href="#ArialMT-20" transform="translate(227.832031 0)"/>
      <use xlink:href="#ArialMT-28" transform="translate(255.615234 0)"/>
      <use xlink:href="#ArialMT-4d" transform="translate(288.916016 0)"/>
      <use xlink:href="#ArialMT-20ac" transform="translate(372.216797 0)"/>
      <use xlink:href="#ArialMT-2f" transform="translate(427.832031 0)"/>
      <use xlink:href="#ArialMT-47" transform="translate(455.615234 0)"/>
      <use xlink:href="#ArialMT-57" transform="translate(533.398438 0)"/>
      <use xlink:href="#ArialMT-68" transform="translate(627.783203 0)"/>
      <use xlink:href="#ArialMT-29" transform="translate(683.398438 0)"/>
     </g>
    </g>
   </g>
   <g id="line2d_37">
    <path d="M 98.174773 306.021173 
L 127.840401 317.380938 
L 157.50603 317.938237 
L 187.171658 318.742957 
L 216.837287 310.472356 
L 246.502915 300.998278 
L 276.168543 272.107625 
L 305.834172 262.484614 
L 335.4998 238.268544 
L 365.165429 238.640877 
L 394.831057 252.582953 
L 424.496686 254.005026 
L 454.162314 249.854111 
L 483.827943 240.999788 
L 513.493571 257.168657 
L 543.1592 261.141812 
L 572.824828 192.706973 
L 602.490457 68.467797 
L 632.156085 54.292713 
L 661.821713 61.650497 
L 691.487342 236.747983 
L 721.15297 266.522627 
L 750.818599 277.32029 
L 780.484227 288.221244 
" clip-path="url(#pf67a33b617)" style="fill: none; stroke: #1f77b4; stroke-width: 2.5; stroke-linecap: round"/>
    <defs>
     <path id="mf333aae156" d="M 0 2.4 
C 0.636487 2.4 1.246992 2.147121 1.697056 1.697056 
C 2.147121 1.246992 2.4 0.636487 2.4 0 
C 2.4 -0.636487 2.147121 -1.246992 1.697056 -1.697056 
C 1.246992 -2.147121 0.636487 -2.4 0 -2.4 
C -0.636487 -2.4 -1.246992 -2.147121 -1.697056 -1.697056 
C -2.147121 -1.246992 -2.4 -0.636487 -2.4 0 
C -2.4 0.636487 -2.147121 1.246992 -1.697056 1.697056 
C -1.246992 2.147121 -0.636487 2.4 0 2.4 
z
" style="stroke: #1f77b4"/>
    </defs>
    <g clip-path="url(#pf67a33b617)">
     <use xlink:href="#mf333aae156" x="98.174773" y="306.021173" style="fill: #1f77b4; stroke: #1f77b4"/>
     <use xlink:href="#mf333aae156" x="127.840401" y="317.380938" style="fill: #1f77b4; stroke: #1f77b4"/>
     <use xlink:href="#mf333aae156" x="157.50603" y="317.938237" style="fill: #1f77b4; stroke: #1f77b4"/>
     <use xlink:href="#mf333aae156" x="187.171658" y="318.742957" style="fill: #1f77b4; stroke: #1f77b4"/>
     <use xlink:href="#mf333aae156" x="216.837287" y="310.472356" style="fill: #1f77b4; stroke: #1f77b4"/>
     <use xlink:href="#mf333aae156" x="246.502915" y="300.998278" style="fill: #1f77b4; stroke: #1f77b4"/>
     <use xlink:href="#mf333aae156" x="276.168543" y="272.107625" style="fill: #1f77b4; stroke: #1f77b4"/>
     <use xlink:href="#mf333aae156" x="305.834172" y="262.484614" style="fill: #1f77b4; stroke: #1f77b4"/>
     <use xlink:href="#mf333aae156" x="335.4998" y="238.268544" style="fill: #1f77b4; stroke: #1f77b4"/>
     <use xlink:href="#mf333aae156" x="365.165429" y="238.640877" style="fill: #1f77b4; stroke: #1f77b4"/>
     <use xlink:href="#mf333aae156" x="394.831057" y="252.582953" style="fill: #1f77b4; stroke: #1f77b4"/>
     <use xlink:href="#mf333aae156" x="424.496686" y="254.005026" style="fill: #1f77b4; stroke: #1f77b4"/>
     <use xlink:href="#mf333aae156" x="454.162314" y="249.854111" style="fill: #1f77b4; stroke: #1f77b4"/>
     <use xlink:href="#mf333aae156" x="483.827943" y="240.999788" style="fill: #1f77b4; stroke: #1f77b4"/>
     <use xlink:href="#mf333aae156" x="513.493571" y="257.168657" style="fill: #1f77b4; stroke: #1f77b4"/>
     <use xlink:href="#mf333aae156" x="543.1592" y="261.141812" style="fill: #1f77b4; stroke: #1f77b4"/>
     <use xlink:href="#mf333aae156" x="572.824828" y="192.706973" style="fill: #1f77b4; stroke: #1f77b4"/>
     <use xlink:href="#mf333aae156" x="602.490457" y="68.467797" style="fill: #1f77b4; stroke: #1f77b4"/>
     <use xlink:href="#mf333aae156" x="632.156085" y="54.292713" style="fill: #1f77b4; stroke: #1f77b4"/>
     <use xlink:href="#mf333aae156" x="661.821713" y="61.650497" style="fill: #1f77b4; stroke: #1f77b4"/>
     <use xlink:href="#mf333aae156" x="691.487342" y="236.747983" style="fill: #1f77b4; stroke: #1f77b4"/>
     <use xlink:href="#mf333aae156" x="721.15297" y="266.522627" style="fill: #1f77b4; stroke: #1f77b4"/>
     <use xlink:href="#mf333aae156" x="750.818599" y="277.32029" style="fill: #1f77b4; stroke: #1f77b4"/>
     <use xlink:href="#mf333aae156" x="780.484227" y="288.221244" style="fill: #1f77b4; stroke: #1f77b4"/>
    </g>
   </g>
   <g id="line2d_38">
    <path d="M 98.174773 306.059607 
L 127.840401 317.364123 
L 157.50603 317.93103 
L 187.171658 318.728544 
L 216.837287 310.54442 
L 246.502915 301.094364 
L 276.168543 271.819367 
L 305.834172 262.198758 
L 335.4998 238.110002 
L 365.165429 238.477531 
L 394.831057 252.359553 
L 424.496686 253.781626 
L 454.162314 249.683559 
L 483.827943 240.83404 
L 513.493571 256.940453 
L 543.1592 260.98327 
L 572.824828 194.395684 
L 602.490457 69.949923 
L 632.156085 56.137563 
L 661.821713 63.807627 
L 691.487342 236.615865 
L 721.15297 266.241576 
L 750.818599 277.080075 
L 780.484227 288.233255 
" clip-path="url(#pf67a33b617)" style="fill: none; stroke: #ff7f0e; stroke-width: 2.5; stroke-linecap: round"/>
    <defs>
     <path id="m13e114b5ab" d="M 0 2.4 
C 0.636487 2.4 1.246992 2.147121 1.697056 1.697056 
C 2.147121 1.246992 2.4 0.636487 2.4 0 
C 2.4 -0.636487 2.147121 -1.246992 1.697056 -1.697056 
C 1.246992 -2.147121 0.636487 -2.4 0 -2.4 
C -0.636487 -2.4 -1.246992 -2.147121 -1.697056 -1.697056 
C -2.147121 -1.246992 -2.4 -0.636487 -2.4 0 
C -2.4 0.636487 -2.147121 1.246992 -1.697056 1.697056 
C -1.246992 2.147121 -0.636487 2.4 0 2.4 
z
" style="stroke: #ff7f0e"/>
    </defs>
    <g clip-path="url(#pf67a33b617)">
     <use xlink:href="#m13e114b5ab" x="98.174773" y="306.059607" style="fill: #ff7f0e; stroke: #ff7f0e"/>
     <use xlink:href="#m13e114b5ab" x="127.840401" y="317.364123" style="fill: #ff7f0e; stroke: #ff7f0e"/>
     <use xlink:href="#m13e114b5ab" x="157.50603" y="317.93103" style="fill: #ff7f0e; stroke: #ff7f0e"/>
     <use xlink:href="#m13e114b5ab" x="187.171658" y="318.728544" style="fill: #ff7f0e; stroke: #ff7f0e"/>
     <use xlink:href="#m13e114b5ab" x="216.837287" y="310.54442" style="fill: #ff7f0e; stroke: #ff7f0e"/>
     <use xlink:href="#m13e114b5ab" x="246.502915" y="301.094364" style="fill: #ff7f0e; stroke: #ff7f0e"/>
     <use xlink:href="#m13e114b5ab" x="276.168543" y="271.819367" style="fill: #ff7f0e; stroke: #ff7f0e"/>
     <use xlink:href="#m13e114b5ab" x="305.834172" y="262.198758" style="fill: #ff7f0e; stroke: #ff7f0e"/>
     <use xlink:href="#m13e114b5ab" x="335.4998" y="238.110002" style="fill: #ff7f0e; stroke: #ff7f0e"/>
     <use xlink:href="#m13e114b5ab" x="365.165429" y="238.477531" style="fill: #ff7f0e; stroke: #ff7f0e"/>
     <use xlink:href="#m13e114b5ab" x="394.831057" y="252.359553" style="fill: #ff7f0e; stroke: #ff7f0e"/>
     <use xlink:href="#m13e114b5ab" x="424.496686" y="253.781626" style="fill: #ff7f0e; stroke: #ff7f0e"/>
     <use xlink:href="#m13e114b5ab" x="454.162314" y="249.683559" style="fill: #ff7f0e; stroke: #ff7f0e"/>
     <use xlink:href="#m13e114b5ab" x="483.827943" y="240.83404" style="fill: #ff7f0e; stroke: #ff7f0e"/>
     <use xlink:href="#m13e114b5ab" x="513.493571" y="256.940453" style="fill: #ff7f0e; stroke: #ff7f0e"/>
     <use xlink:href="#m13e114b5ab" x="543.1592" y="260.98327" style="fill: #ff7f0e; stroke: #ff7f0e"/>
     <use xlink:href="#m13e114b5ab" x="572.824828" y="194.395684" style="fill: #ff7f0e; stroke: #ff7f0e"/>
     <use xlink:href="#m13e114b5ab" x="602.490457" y="69.949923" style="fill: #ff7f0e; stroke: #ff7f0e"/>
     <use xlink:href="#m13e114b5ab" x="632.156085" y="56.137563" style="fill: #ff7f0e; stroke: #ff7f0e"/>
     <use xlink:href="#m13e114b5ab" x="661.821713" y="63.807627" style="fill: #ff7f0e; stroke: #ff7f0e"/>
     <use xlink:href="#m13e114b5ab" x="691.487342" y="236.615865" style="fill: #ff7f0e; stroke: #ff7f0e"/>
     <use xlink:href="#m13e114b5ab" x="721.15297" y="266.241576" style="fill: #ff7f0e; stroke: #ff7f0e"/>
     <use xlink:href="#m13e114b5ab" x="750.818599" y="277.080075" style="fill: #ff7f0e; stroke: #ff7f0e"/>
     <use xlink:href="#m13e114b5ab" x="780.484227" y="288.233255" style="fill: #ff7f0e; stroke: #ff7f0e"/>
    </g>
   </g>
   <g id="line2d_39">
    <path d="M 98.174773 305.994749 
L 127.840401 317.330493 
L 157.50603 317.892596 
L 187.171658 318.694914 
L 216.837287 310.44353 
L 246.502915 300.983865 
L 276.168543 272.078799 
L 305.834172 262.462994 
L 335.4998 238.251729 
L 365.165429 238.619258 
L 394.831057 252.558932 
L 424.496686 253.981004 
L 454.162314 249.861318 
L 483.827943 240.973364 
L 513.493571 257.142233 
L 543.1592 261.120193 
L 572.824828 192.680549 
L 602.490457 68.443776 
L 632.156085 54.271093 
L 661.821713 61.628877 
L 691.487342 236.764798 
L 721.15297 266.501008 
L 750.818599 277.289062 
L 780.484227 288.187614 
" clip-path="url(#pf67a33b617)" style="fill: none; stroke: #2ca02c; stroke-width: 2.5; stroke-linecap: round"/>
    <defs>
     <path id="m8750a20c3e" d="M 0 2.4 
C 0.636487 2.4 1.246992 2.147121 1.697056 1.697056 
C 2.147121 1.246992 2.4 0.636487 2.4 0 
C 2.4 -0.636487 2.147121 -1.246992 1.697056 -1.697056 
C 1.246992 -2.147121 0.636487 -2.4 0 -2.4 
C -0.636487 -2.4 -1.246992 -2.147121 -1.697056 -1.697056 
C -2.147121 -1.246992 -2.4 -0.636487 -2.4 0 
C -2.4 0.636487 -2.147121 1.246992 -1.697056 1.697056 
C -1.246992 2.147121 -0.636487 2.4 0 2.4 
z
" style="stroke: #2ca02c"/>
    </defs>
    <g clip-path="url(#pf67a33b617)">
     <use xlink:href="#m8750a20c3e" x="98.174773" y="305.994749" style="fill: #2ca02c; stroke: #2ca02c"/>
     <use xlink:href="#m8750a20c3e" x="127.840401" y="317.330493" style="fill: #2ca02c; stroke: #2ca02c"/>
     <use xlink:href="#m8750a20c3e" x="157.50603" y="317.892596" style="fill: #2ca02c; stroke: #2ca02c"/>
     <use xlink:href="#m8750a20c3e" x="187.171658" y="318.694914" style="fill: #2ca02c; stroke: #2ca02c"/>
     <use xlink:href="#m8750a20c3e" x="216.837287" y="310.44353" style="fill: #2ca02c; stroke: #2ca02c"/>
     <use xlink:href="#m8750a20c3e" x="246.502915" y="300.983865" style="fill: #2ca02c; stroke: #2ca02c"/>
     <use xlink:href="#m8750a20c3e" x="276.168543" y="272.078799" style="fill: #2ca02c; stroke: #2ca02c"/>
     <use xlink:href="#m8750a20c3e" x="305.834172" y="262.462994" style="fill: #2ca02c; stroke: #2ca02c"/>
     <use xlink:href="#m8750a20c3e" x="335.4998" y="238.251729" style="fill: #2ca02c; stroke: #2ca02c"/>
     <use xlink:href="#m8750a20c3e" x="365.165429" y="238.619258" style="fill: #2ca02c; stroke: #2ca02c"/>
     <use xlink:href="#m8750a20c3e" x="394.831057" y="252.558932" style="fill: #2ca02c; stroke: #2ca02c"/>
     <use xlink:href="#m8750a20c3e" x="424.496686" y="253.981004" style="fill: #2ca02c; stroke: #2ca02c"/>
     <use xlink:href="#m8750a20c3e" x="454.162314" y="249.861318" style="fill: #2ca02c; stroke: #2ca02c"/>
     <use xlink:href="#m8750a20c3e" x="483.827943" y="240.973364" style="fill: #2ca02c; stroke: #2ca02c"/>
     <use xlink:href="#m8750a20c3e" x="513.493571" y="257.142233" style="fill: #2ca02c; stroke: #2ca02c"/>
     <use xlink:href="#m8750a20c3e" x="543.1592" y="261.120193" style="fill: #2ca02c; stroke: #2ca02c"/>
     <use xlink:href="#m8750a20c3e" x="572.824828" y="192.680549" style="fill: #2ca02c; stroke: #2ca02c"/>
     <use xlink:href="#m8750a20c3e" x="602.490457" y="68.443776" style="fill: #2ca02c; stroke: #2ca02c"/>
     <use xlink:href="#m8750a20c3e" x="632.156085" y="54.271093" style="fill: #2ca02c; stroke: #2ca02c"/>
     <use xlink:href="#m8750a20c3e" x="661.821713" y="61.628877" style="fill: #2ca02c; stroke: #2ca02c"/>
     <use xlink:href="#m8750a20c3e" x="691.487342" y="236.764798" style="fill: #2ca02c; stroke: #2ca02c"/>
     <use xlink:href="#m8750a20c3e" x="721.15297" y="266.501008" style="fill: #2ca02c; stroke: #2ca02c"/>
     <use xlink:href="#m8750a20c3e" x="750.818599" y="277.289062" style="fill: #2ca02c; stroke: #2ca02c"/>
     <use xlink:href="#m8750a20c3e" x="780.484227" y="288.187614" style="fill: #2ca02c; stroke: #2ca02c"/>
    </g>
   </g>
   <g id="patch_3">
    <path d="M 64.0593 331.96655 
L 64.0593 41.0475 
" style="fill: none; stroke: #cccccc; stroke-linejoin: miter; stroke-linecap: square"/>
   </g>
   <g id="patch_4">
    <path d="M 814.5997 331.96655 
L 814.5997 41.0475 
" style="fill: none; stroke: #cccccc; stroke-linejoin: miter; stroke-linecap: square"/>
   </g>
   <g id="patch_5">
    <path d="M 64.0593 331.96655 
L 814.5997 331.96655 
" style="fill: none; stroke: #cccccc; stroke-linejoin: miter; stroke-linecap: square"/>
   </g>
   <g id="patch_6">
    <path d="M 64.0593 41.0475 
L 814.5997 41.0475 
" style="fill: none; stroke: #cccccc; stroke-linejoin: miter; stroke-linecap: square"/>
   </g>
   <g id="text_20">
    <!-- Average Hourly Price Profile -->
    <g style="fill: #262626" transform="translate(338.9895 26.0475) scale(0.16 -0.16)">
     <defs>
      <path id="ArialMT-41" d="M -9 0 
L 1750 4581 
L 2403 4581 
L 4278 0 
L 3588 0 
L 3053 1388 
L 1138 1388 
L 634 0 
L -9 0 
z
M 1313 1881 
L 2866 1881 
L 2388 3150 
Q 2169 3728 2063 4100 
Q 1975 3659 1816 3225 
L 1313 1881 
z
" transform="scale(0.015625)"/>
      <path id="ArialMT-76" d="M 1344 0 
L 81 3319 
L 675 3319 
L 1388 1331 
Q 1503 1009 1600 663 
Q 1675 925 1809 1294 
L 2547 3319 
L 3125 3319 
L 1869 0 
L 1344 0 
z
" transform="scale(0.015625)"/>
      <path id="ArialMT-61" d="M 2588 409 
Q 2275 144 1986 34 
Q 1697 -75 1366 -75 
Q 819 -75 525 192 
Q 231 459 231 875 
Q 231 1119 342 1320 
Q 453 1522 633 1644 
Q 813 1766 1038 1828 
Q 1203 1872 1538 1913 
Q 2219 1994 2541 2106 
Q 2544 2222 2544 2253 
Q 2544 2597 2384 2738 
Q 2169 2928 1744 2928 
Q 1347 2928 1158 2789 
Q 969 2650 878 2297 
L 328 2372 
Q 403 2725 575 2942 
Q 747 3159 1072 3276 
Q 1397 3394 1825 3394 
Q 2250 3394 2515 3294 
Q 2781 3194 2906 3042 
Q 3031 2891 3081 2659 
Q 3109 2516 3109 2141 
L 3109 1391 
Q 3109 606 3145 398 
Q 3181 191 3288 0 
L 2700 0 
Q 2613 175 2588 409 
z
M 2541 1666 
Q 2234 1541 1622 1453 
Q 1275 1403 1131 1340 
Q 988 1278 909 1158 
Q 831 1038 831 891 
Q 831 666 1001 516 
Q 1172 366 1500 366 
Q 1825 366 2078 508 
Q 2331 650 2450 897 
Q 2541 1088 2541 1459 
L 2541 1666 
z
" transform="scale(0.015625)"/>
      <path id="ArialMT-67" d="M 319 -275 
L 866 -356 
Q 900 -609 1056 -725 
Q 1266 -881 1628 -881 
Q 2019 -881 2231 -725 
Q 2444 -569 2519 -288 
Q 2563 -116 2559 434 
Q 2191 0 1641 0 
Q 956 0 581 494 
Q 206 988 206 1678 
Q 206 2153 378 2554 
Q 550 2956 876 3175 
Q 1203 3394 1644 3394 
Q 2231 3394 2613 2919 
L 2613 3319 
L 3131 3319 
L 3131 450 
Q 3131 -325 2973 -648 
Q 2816 -972 2473 -1159 
Q 2131 -1347 1631 -1347 
Q 1038 -1347 672 -1080 
Q 306 -813 319 -275 
z
M 784 1719 
Q 784 1066 1043 766 
Q 1303 466 1694 466 
Q 2081 466 2343 764 
Q 2606 1063 2606 1700 
Q 2606 2309 2336 2618 
Q 2066 2928 1684 2928 
Q 1309 2928 1046 2623 
Q 784 2319 784 1719 
z
" transform="scale(0.015625)"/>
      <path id="ArialMT-48" d="M 513 0 
L 513 4581 
L 1119 4581 
L 1119 2700 
L 3500 2700 
L 3500 4581 
L 4106 4581 
L 4106 0 
L 3500 0 
L 3500 2159 
L 1119 2159 
L 1119 0 
L 513 0 
z
" transform="scale(0.015625)"/>
      <path id="ArialMT-6f" d="M 213 1659 
Q 213 2581 725 3025 
Q 1153 3394 1769 3394 
Q 2453 3394 2887 2945 
Q 3322 2497 3322 1706 
Q 3322 1066 3130 698 
Q 2938 331 2570 128 
Q 2203 -75 1769 -75 
Q 1072 -75 642 372 
Q 213 819 213 1659 
z
M 791 1659 
Q 791 1022 1069 705 
Q 1347 388 1769 388 
Q 2188 388 2466 706 
Q 2744 1025 2744 1678 
Q 2744 2294 2464 2611 
Q 2184 2928 1769 2928 
Q 1347 2928 1069 2612 
Q 791 2297 791 1659 
z
" transform="scale(0.015625)"/>
      <path id="ArialMT-75" d="M 2597 0 
L 2597 488 
Q 2209 -75 1544 -75 
Q 1250 -75 995 37 
Q 741 150 617 320 
Q 494 491 444 738 
Q 409 903 409 1263 
L 409 3319 
L 972 3319 
L 972 1478 
Q 972 1038 1006 884 
Q 1059 663 1231 536 
Q 1403 409 1656 409 
Q 1909 409 2131 539 
Q 2353 669 2445 892 
Q 2538 1116 2538 1541 
L 2538 3319 
L 3100 3319 
L 3100 0 
L 2597 0 
z
" transform="scale(0.015625)"/>
      <path id="ArialMT-6c" d="M 409 0 
L 409 4581 
L 972 4581 
L 972 0 
L 409 0 
z
" transform="scale(0.015625)"/>
      <path id="ArialMT-79" d="M 397 -1278 
L 334 -750 
Q 519 -800 656 -800 
Q 844 -800 956 -737 
Q 1069 -675 1141 -563 
Q 1194 -478 1313 -144 
Q 1328 -97 1363 -6 
L 103 3319 
L 709 3319 
L 1400 1397 
Q 1534 1031 1641 628 
Q 1738 1016 1872 1384 
L 2581 3319 
L 3144 3319 
L 1881 -56 
Q 1678 -603 1566 -809 
Q 1416 -1088 1222 -1217 
Q 1028 -1347 759 -1347 
Q 597 -1347 397 -1278 
z
" transform="scale(0.015625)"/>
      <path id="ArialMT-66" d="M 556 0 
L 556 2881 
L 59 2881 
L 59 3319 
L 556 3319 
L 556 3672 
Q 556 4006 616 4169 
Q 697 4388 901 4523 
Q 1106 4659 1475 4659 
Q 1713 4659 2000 4603 
L 1916 4113 
Q 1741 4144 1584 4144 
Q 1328 4144 1222 4034 
Q 1116 3925 1116 3625 
L 1116 3319 
L 1763 3319 
L 1763 2881 
L 1116 2881 
L 1116 0 
L 556 0 
z
" transform="scale(0.015625)"/>
     </defs>
     <use xlink:href="#ArialMT-41"/>
     <use xlink:href="#ArialMT-76" transform="translate(64.949219 0)"/>
     <use xlink:href="#ArialMT-65" transform="translate(114.949219 0)"/>
     <use xlink:href="#ArialMT-72" transform="translate(170.564453 0)"/>
     <use xlink:href="#ArialMT-61" transform="translate(203.865234 0)"/>
     <use xlink:href="#ArialMT-67" transform="translate(259.480469 0)"/>
     <use xlink:href="#ArialMT-65" transform="translate(315.095703 0)"/>
     <use xlink:href="#ArialMT-20" transform="translate(370.710938 0)"/>
     <use xlink:href="#ArialMT-48" transform="translate(398.494141 0)"/>
     <use xlink:href="#ArialMT-6f" transform="translate(470.710938 0)"/>
     <use xlink:href="#ArialMT-75" transform="translate(526.326172 0)"/>
     <use xlink:href="#ArialMT-72" transform="translate(581.941406 0)"/>
     <use xlink:href="#ArialMT-6c" transform="translate(615.242188 0)"/>
     <use xlink:href="#ArialMT-79" transform="translate(637.458984 0)"/>
     <use xlink:href="#ArialMT-20" transform="translate(687.458984 0)"/>
     <use xlink:href="#ArialMT-50" transform="translate(715.242188 0)"/>
     <use xlink:href="#ArialMT-72" transform="translate(781.941406 0)"/>
     <use xlink:href="#ArialMT-69" transform="translate(815.242188 0)"/>
     <use xlink:href="#ArialMT-63" transform="translate(837.458984 0)"/>
     <use xlink:href="#ArialMT-65" transform="translate(887.458984 0)"/>
     <use xlink:href="#ArialMT-20" transform="translate(943.074219 0)"/>
     <use xlink:href="#ArialMT-50" transform="translate(970.857422 0)"/>
     <use xlink:href="#ArialMT-72" transform="translate(1037.556641 0)"/>
     <use xlink:href="#ArialMT-6f" transform="translate(1070.857422 0)"/>
     <use xlink:href="#ArialMT-66" transform="translate(1126.472656 0)"/>
     <use xlink:href="#ArialMT-69" transform="translate(1154.255859 0)"/>
     <use xlink:href="#ArialMT-6c" transform="translate(1176.472656 0)"/>
     <use xlink:href="#ArialMT-65" transform="translate(1198.689453 0)"/>
    </g>
   </g>
   <g id="legend_1">
    <g id="line2d_40">
     <path d="M 861.12672 53.705312 
L 871.12672 53.705312 
L 881.12672 53.705312 
" style="fill: none; stroke: #1f77b4; stroke-width: 2.5; stroke-linecap: round"/>
     <g>
      <use xlink:href="#mf333aae156" x="871.12672" y="53.705312" style="fill: #1f77b4; stroke: #1f77b4"/>
     </g>
    </g>
    <g id="text_21">
     <!-- 3.EOM El.+ CVAR -->
     <g style="fill: #262626" transform="translate(889.12672 57.205312) scale(0.1 -0.1)">
      <defs>
       <path id="ArialMT-33" d="M 269 1209 
L 831 1284 
Q 928 806 1161 595 
Q 1394 384 1728 384 
Q 2125 384 2398 659 
Q 2672 934 2672 1341 
Q 2672 1728 2419 1979 
Q 2166 2231 1775 2231 
Q 1616 2231 1378 2169 
L 1441 2663 
Q 1497 2656 1531 2656 
Q 1891 2656 2178 2843 
Q 2466 3031 2466 3422 
Q 2466 3731 2256 3934 
Q 2047 4138 1716 4138 
Q 1388 4138 1169 3931 
Q 950 3725 888 3313 
L 325 3413 
Q 428 3978 793 4289 
Q 1159 4600 1703 4600 
Q 2078 4600 2393 4439 
Q 2709 4278 2876 4000 
Q 3044 3722 3044 3409 
Q 3044 3113 2884 2869 
Q 2725 2625 2413 2481 
Q 2819 2388 3044 2092 
Q 3269 1797 3269 1353 
Q 3269 753 2831 336 
Q 2394 -81 1725 -81 
Q 1122 -81 723 278 
Q 325 638 269 1209 
z
" transform="scale(0.015625)"/>
       <path id="ArialMT-45" d="M 506 0 
L 506 4581 
L 3819 4581 
L 3819 4041 
L 1113 4041 
L 1113 2638 
L 3647 2638 
L 3647 2100 
L 1113 2100 
L 1113 541 
L 3925 541 
L 3925 0 
L 506 0 
z
" transform="scale(0.015625)"/>
       <path id="ArialMT-4f" d="M 309 2231 
Q 309 3372 921 4017 
Q 1534 4663 2503 4663 
Q 3138 4663 3647 4359 
Q 4156 4056 4423 3514 
Q 4691 2972 4691 2284 
Q 4691 1588 4409 1038 
Q 4128 488 3612 205 
Q 3097 -78 2500 -78 
Q 1853 -78 1343 234 
Q 834 547 571 1087 
Q 309 1628 309 2231 
z
M 934 2222 
Q 934 1394 1379 917 
Q 1825 441 2497 441 
Q 3181 441 3623 922 
Q 4066 1403 4066 2288 
Q 4066 2847 3877 3264 
Q 3688 3681 3323 3911 
Q 2959 4141 2506 4141 
Q 1863 4141 1398 3698 
Q 934 3256 934 2222 
z
" transform="scale(0.015625)"/>
       <path id="ArialMT-2b" d="M 1603 741 
L 1603 1997 
L 356 1997 
L 356 2522 
L 1603 2522 
L 1603 3769 
L 2134 3769 
L 2134 2522 
L 3381 2522 
L 3381 1997 
L 2134 1997 
L 2134 741 
L 1603 741 
z
" transform="scale(0.015625)"/>
       <path id="ArialMT-43" d="M 3763 1606 
L 4369 1453 
Q 4178 706 3683 314 
Q 3188 -78 2472 -78 
Q 1731 -78 1267 223 
Q 803 525 561 1097 
Q 319 1669 319 2325 
Q 319 3041 592 3573 
Q 866 4106 1370 4382 
Q 1875 4659 2481 4659 
Q 3169 4659 3637 4309 
Q 4106 3959 4291 3325 
L 3694 3184 
Q 3534 3684 3231 3912 
Q 2928 4141 2469 4141 
Q 1941 4141 1586 3887 
Q 1231 3634 1087 3207 
Q 944 2781 944 2328 
Q 944 1744 1114 1308 
Q 1284 872 1643 656 
Q 2003 441 2422 441 
Q 2931 441 3284 734 
Q 3638 1028 3763 1606 
z
" transform="scale(0.015625)"/>
       <path id="ArialMT-56" d="M 1803 0 
L 28 4581 
L 684 4581 
L 1875 1253 
Q 2019 853 2116 503 
Q 2222 878 2363 1253 
L 3600 4581 
L 4219 4581 
L 2425 0 
L 1803 0 
z
" transform="scale(0.015625)"/>
       <path id="ArialMT-52" d="M 503 0 
L 503 4581 
L 2534 4581 
Q 3147 4581 3465 4457 
Q 3784 4334 3975 4021 
Q 4166 3709 4166 3331 
Q 4166 2844 3850 2509 
Q 3534 2175 2875 2084 
Q 3116 1969 3241 1856 
Q 3506 1613 3744 1247 
L 4541 0 
L 3778 0 
L 3172 953 
Q 2906 1366 2734 1584 
Q 2563 1803 2427 1890 
Q 2291 1978 2150 2013 
Q 2047 2034 1813 2034 
L 1109 2034 
L 1109 0 
L 503 0 
z
M 1109 2559 
L 2413 2559 
Q 2828 2559 3062 2645 
Q 3297 2731 3419 2920 
Q 3541 3109 3541 3331 
Q 3541 3656 3305 3865 
Q 3069 4075 2559 4075 
L 1109 4075 
L 1109 2559 
z
" transform="scale(0.015625)"/>
      </defs>
      <use xlink:href="#ArialMT-33"/>
      <use xlink:href="#ArialMT-2e" transform="translate(55.615234 0)"/>
      <use xlink:href="#ArialMT-45" transform="translate(83.398438 0)"/>
      <use xlink:href="#ArialMT-4f" transform="translate(150.097656 0)"/>
      <use xlink:href="#ArialMT-4d" transform="translate(227.880859 0)"/>
      <use xlink:href="#ArialMT-20" transform="translate(311.181641 0)"/>
      <use xlink:href="#ArialMT-45" transform="translate(338.964844 0)"/>
      <use xlink:href="#ArialMT-6c" transform="translate(405.664062 0)"/>
      <use xlink:href="#ArialMT-2e" transform="translate(427.880859 0)"/>
      <use xlink:href="#ArialMT-2b" transform="translate(455.664062 0)"/>
      <use xlink:href="#ArialMT-20" transform="translate(514.0625 0)"/>
      <use xlink:href="#ArialMT-43" transform="translate(541.845703 0)"/>
      <use xlink:href="#ArialMT-56" transform="translate(614.0625 0)"/>
      <use xlink:href="#ArialMT-41" transform="translate(673.386719 0)"/>
      <use xlink:href="#ArialMT-52" transform="translate(740.085938 0)"/>
     </g>
    </g>
    <g id="line2d_41">
     <path d="M 861.12672 67.850625 
L 871.12672 67.850625 
L 881.12672 67.850625 
" style="fill: none; stroke: #ff7f0e; stroke-width: 2.5; stroke-linecap: round"/>
     <g>
      <use xlink:href="#m13e114b5ab" x="871.12672" y="67.850625" style="fill: #ff7f0e; stroke: #ff7f0e"/>
     </g>
    </g>
    <g id="text_22">
     <!-- 5.EOM El.+ CM+ CVAR -->
     <g style="fill: #262626" transform="translate(889.12672 71.350625) scale(0.1 -0.1)">
      <defs>
       <path id="ArialMT-35" d="M 266 1200 
L 856 1250 
Q 922 819 1161 601 
Q 1400 384 1738 384 
Q 2144 384 2425 690 
Q 2706 997 2706 1503 
Q 2706 1984 2436 2262 
Q 2166 2541 1728 2541 
Q 1456 2541 1237 2417 
Q 1019 2294 894 2097 
L 366 2166 
L 809 4519 
L 3088 4519 
L 3088 3981 
L 1259 3981 
L 1013 2750 
Q 1425 3038 1878 3038 
Q 2478 3038 2890 2622 
Q 3303 2206 3303 1553 
Q 3303 931 2941 478 
Q 2500 -78 1738 -78 
Q 1113 -78 717 272 
Q 322 622 266 1200 
z
" transform="scale(0.015625)"/>
      </defs>
      <use xlink:href="#ArialMT-35"/>
      <use xlink:href="#ArialMT-2e" transform="translate(55.615234 0)"/>
      <use xlink:href="#ArialMT-45" transform="translate(83.398438 0)"/>
      <use xlink:href="#ArialMT-4f" transform="translate(150.097656 0)"/>
      <use xlink:href="#ArialMT-4d" transform="translate(227.880859 0)"/>
      <use xlink:href="#ArialMT-20" transform="translate(311.181641 0)"/>
      <use xlink:href="#ArialMT-45" transform="translate(338.964844 0)"/>
      <use xlink:href="#ArialMT-6c" transform="translate(405.664062 0)"/>
      <use xlink:href="#ArialMT-2e" transform="translate(427.880859 0)"/>
      <use xlink:href="#ArialMT-2b" transform="translate(455.664062 0)"/>
      <use xlink:href="#ArialMT-20" transform="translate(514.0625 0)"/>
      <use xlink:href="#ArialMT-43" transform="translate(541.845703 0)"/>
      <use xlink:href="#ArialMT-4d" transform="translate(614.0625 0)"/>
      <use xlink:href="#ArialMT-2b" transform="translate(697.363281 0)"/>
      <use xlink:href="#ArialMT-20" transform="translate(755.761719 0)"/>
      <use xlink:href="#ArialMT-43" transform="translate(783.544922 0)"/>
      <use xlink:href="#ArialMT-56" transform="translate(855.761719 0)"/>
      <use xlink:href="#ArialMT-41" transform="translate(915.085938 0)"/>
      <use xlink:href="#ArialMT-52" transform="translate(981.785156 0)"/>
     </g>
    </g>
    <g id="line2d_42">
     <path d="M 861.12672 81.995937 
L 871.12672 81.995937 
L 881.12672 81.995937 
" style="fill: none; stroke: #2ca02c; stroke-width: 2.5; stroke-linecap: round"/>
     <g>
      <use xlink:href="#m8750a20c3e" x="871.12672" y="81.995937" style="fill: #2ca02c; stroke: #2ca02c"/>
     </g>
    </g>
    <g id="text_23">
     <!-- 7.EOM El.+ RO+ CVAR -->
     <g style="fill: #262626" transform="translate(889.12672 85.495937) scale(0.1 -0.1)">
      <defs>
       <path id="ArialMT-37" d="M 303 3981 
L 303 4522 
L 3269 4522 
L 3269 4084 
Q 2831 3619 2401 2847 
Q 1972 2075 1738 1259 
Q 1569 684 1522 0 
L 944 0 
Q 953 541 1156 1306 
Q 1359 2072 1739 2783 
Q 2119 3494 2547 3981 
L 303 3981 
z
" transform="scale(0.015625)"/>
      </defs>
      <use xlink:href="#ArialMT-37"/>
      <use xlink:href="#ArialMT-2e" transform="translate(55.615234 0)"/>
      <use xlink:href="#ArialMT-45" transform="translate(83.398438 0)"/>
      <use xlink:href="#ArialMT-4f" transform="translate(150.097656 0)"/>
      <use xlink:href="#ArialMT-4d" transform="translate(227.880859 0)"/>
      <use xlink:href="#ArialMT-20" transform="translate(311.181641 0)"/>
      <use xlink:href="#ArialMT-45" transform="translate(338.964844 0)"/>
      <use xlink:href="#ArialMT-6c" transform="translate(405.664062 0)"/>
      <use xlink:href="#ArialMT-2e" transform="translate(427.880859 0)"/>
      <use xlink:href="#ArialMT-2b" transform="translate(455.664062 0)"/>
      <use xlink:href="#ArialMT-20" transform="translate(514.0625 0)"/>
      <use xlink:href="#ArialMT-52" transform="translate(541.845703 0)"/>
      <use xlink:href="#ArialMT-4f" transform="translate(614.0625 0)"/>
      <use xlink:href="#ArialMT-2b" transform="translate(691.845703 0)"/>
      <use xlink:href="#ArialMT-20" transform="translate(750.244141 0)"/>
      <use xlink:href="#ArialMT-43" transform="translate(778.027344 0)"/>
      <use xlink:href="#ArialMT-56" transform="translate(850.244141 0)"/>
      <use xlink:href="#ArialMT-41" transform="translate(909.568359 0)"/>
      <use xlink:href="#ArialMT-52" transform="translate(976.267578 0)"/>
     </g>
    </g>
   </g>
  </g>
  <g id="axes_2">
   <g id="patch_7">
    <path d="M 64.0593 677.8179 
L 814.5997 677.8179 
L 814.5997 386.89885 
L 64.0593 386.89885 
z
" style="fill: #ffffff"/>
   </g>
   <g id="matplotlib.axis_3">
    <g id="xtick_13">
     <g id="line2d_43">
      <path d="M 98.174773 677.8179 
L 98.174773 386.89885 
" clip-path="url(#pb2ed96af1a)" style="fill: none; stroke: #cccccc; stroke-opacity: 0.3; stroke-width: 0.8; stroke-linecap: round"/>
     </g>
     <g id="line2d_44">
      <g>
       <use xlink:href="#ma9a8872f59" x="98.174773" y="677.8179" style="fill: #262626; stroke: #262626"/>
      </g>
     </g>
     <g id="text_24">
      <!-- 0 -->
      <g style="fill: #262626" transform="translate(95.483279 693.046662) scale(0.0968 -0.0968)">
       <use xlink:href="#ArialMT-30"/>
      </g>
     </g>
    </g>
    <g id="xtick_14">
     <g id="line2d_45">
      <path d="M 157.50603 677.8179 
L 157.50603 386.89885 
" clip-path="url(#pb2ed96af1a)" style="fill: none; stroke: #cccccc; stroke-opacity: 0.3; stroke-width: 0.8; stroke-linecap: round"/>
     </g>
     <g id="line2d_46">
      <g>
       <use xlink:href="#ma9a8872f59" x="157.50603" y="677.8179" style="fill: #262626; stroke: #262626"/>
      </g>
     </g>
     <g id="text_25">
      <!-- 2 -->
      <g style="fill: #262626" transform="translate(154.814536 693.046662) scale(0.0968 -0.0968)">
       <use xlink:href="#ArialMT-32"/>
      </g>
     </g>
    </g>
    <g id="xtick_15">
     <g id="line2d_47">
      <path d="M 216.837287 677.8179 
L 216.837287 386.89885 
" clip-path="url(#pb2ed96af1a)" style="fill: none; stroke: #cccccc; stroke-opacity: 0.3; stroke-width: 0.8; stroke-linecap: round"/>
     </g>
     <g id="line2d_48">
      <g>
       <use xlink:href="#ma9a8872f59" x="216.837287" y="677.8179" style="fill: #262626; stroke: #262626"/>
      </g>
     </g>
     <g id="text_26">
      <!-- 4 -->
      <g style="fill: #262626" transform="translate(214.145793 693.046662) scale(0.0968 -0.0968)">
       <use xlink:href="#ArialMT-34"/>
      </g>
     </g>
    </g>
    <g id="xtick_16">
     <g id="line2d_49">
      <path d="M 276.168543 677.8179 
L 276.168543 386.89885 
" clip-path="url(#pb2ed96af1a)" style="fill: none; stroke: #cccccc; stroke-opacity: 0.3; stroke-width: 0.8; stroke-linecap: round"/>
     </g>
     <g id="line2d_50">
      <g>
       <use xlink:href="#ma9a8872f59" x="276.168543" y="677.8179" style="fill: #262626; stroke: #262626"/>
      </g>
     </g>
     <g id="text_27">
      <!-- 6 -->
      <g style="fill: #262626" transform="translate(273.47705 693.046662) scale(0.0968 -0.0968)">
       <use xlink:href="#ArialMT-36"/>
      </g>
     </g>
    </g>
    <g id="xtick_17">
     <g id="line2d_51">
      <path d="M 335.4998 677.8179 
L 335.4998 386.89885 
" clip-path="url(#pb2ed96af1a)" style="fill: none; stroke: #cccccc; stroke-opacity: 0.3; stroke-width: 0.8; stroke-linecap: round"/>
     </g>
     <g id="line2d_52">
      <g>
       <use xlink:href="#ma9a8872f59" x="335.4998" y="677.8179" style="fill: #262626; stroke: #262626"/>
      </g>
     </g>
     <g id="text_28">
      <!-- 8 -->
      <g style="fill: #262626" transform="translate(332.808307 693.046662) scale(0.0968 -0.0968)">
       <use xlink:href="#ArialMT-38"/>
      </g>
     </g>
    </g>
    <g id="xtick_18">
     <g id="line2d_53">
      <path d="M 394.831057 677.8179 
L 394.831057 386.89885 
" clip-path="url(#pb2ed96af1a)" style="fill: none; stroke: #cccccc; stroke-opacity: 0.3; stroke-width: 0.8; stroke-linecap: round"/>
     </g>
     <g id="line2d_54">
      <g>
       <use xlink:href="#ma9a8872f59" x="394.831057" y="677.8179" style="fill: #262626; stroke: #262626"/>
      </g>
     </g>
     <g id="text_29">
      <!-- 10 -->
      <g style="fill: #262626" transform="translate(389.44807 693.046662) scale(0.0968 -0.0968)">
       <use xlink:href="#ArialMT-31"/>
       <use xlink:href="#ArialMT-30" transform="translate(55.615234 0)"/>
      </g>
     </g>
    </g>
    <g id="xtick_19">
     <g id="line2d_55">
      <path d="M 454.162314 677.8179 
L 454.162314 386.89885 
" clip-path="url(#pb2ed96af1a)" style="fill: none; stroke: #cccccc; stroke-opacity: 0.3; stroke-width: 0.8; stroke-linecap: round"/>
     </g>
     <g id="line2d_56">
      <g>
       <use xlink:href="#ma9a8872f59" x="454.162314" y="677.8179" style="fill: #262626; stroke: #262626"/>
      </g>
     </g>
     <g id="text_30">
      <!-- 12 -->
      <g style="fill: #262626" transform="translate(448.779327 693.046662) scale(0.0968 -0.0968)">
       <use xlink:href="#ArialMT-31"/>
       <use xlink:href="#ArialMT-32" transform="translate(55.615234 0)"/>
      </g>
     </g>
    </g>
    <g id="xtick_20">
     <g id="line2d_57">
      <path d="M 513.493571 677.8179 
L 513.493571 386.89885 
" clip-path="url(#pb2ed96af1a)" style="fill: none; stroke: #cccccc; stroke-opacity: 0.3; stroke-width: 0.8; stroke-linecap: round"/>
     </g>
     <g id="line2d_58">
      <g>
       <use xlink:href="#ma9a8872f59" x="513.493571" y="677.8179" style="fill: #262626; stroke: #262626"/>
      </g>
     </g>
     <g id="text_31">
      <!-- 14 -->
      <g style="fill: #262626" transform="translate(508.110584 693.046662) scale(0.0968 -0.0968)">
       <use xlink:href="#ArialMT-31"/>
       <use xlink:href="#ArialMT-34" transform="translate(55.615234 0)"/>
      </g>
     </g>
    </g>
    <g id="xtick_21">
     <g id="line2d_59">
      <path d="M 572.824828 677.8179 
L 572.824828 386.89885 
" clip-path="url(#pb2ed96af1a)" style="fill: none; stroke: #cccccc; stroke-opacity: 0.3; stroke-width: 0.8; stroke-linecap: round"/>
     </g>
     <g id="line2d_60">
      <g>
       <use xlink:href="#ma9a8872f59" x="572.824828" y="677.8179" style="fill: #262626; stroke: #262626"/>
      </g>
     </g>
     <g id="text_32">
      <!-- 16 -->
      <g style="fill: #262626" transform="translate(567.441841 693.046662) scale(0.0968 -0.0968)">
       <use xlink:href="#ArialMT-31"/>
       <use xlink:href="#ArialMT-36" transform="translate(55.615234 0)"/>
      </g>
     </g>
    </g>
    <g id="xtick_22">
     <g id="line2d_61">
      <path d="M 632.156085 677.8179 
L 632.156085 386.89885 
" clip-path="url(#pb2ed96af1a)" style="fill: none; stroke: #cccccc; stroke-opacity: 0.3; stroke-width: 0.8; stroke-linecap: round"/>
     </g>
     <g id="line2d_62">
      <g>
       <use xlink:href="#ma9a8872f59" x="632.156085" y="677.8179" style="fill: #262626; stroke: #262626"/>
      </g>
     </g>
     <g id="text_33">
      <!-- 18 -->
      <g style="fill: #262626" transform="translate(626.773097 693.046662) scale(0.0968 -0.0968)">
       <use xlink:href="#ArialMT-31"/>
       <use xlink:href="#ArialMT-38" transform="translate(55.615234 0)"/>
      </g>
     </g>
    </g>
    <g id="xtick_23">
     <g id="line2d_63">
      <path d="M 691.487342 677.8179 
L 691.487342 386.89885 
" clip-path="url(#pb2ed96af1a)" style="fill: none; stroke: #cccccc; stroke-opacity: 0.3; stroke-width: 0.8; stroke-linecap: round"/>
     </g>
     <g id="line2d_64">
      <g>
       <use xlink:href="#ma9a8872f59" x="691.487342" y="677.8179" style="fill: #262626; stroke: #262626"/>
      </g>
     </g>
     <g id="text_34">
      <!-- 20 -->
      <g style="fill: #262626" transform="translate(686.104354 693.046662) scale(0.0968 -0.0968)">
       <use xlink:href="#ArialMT-32"/>
       <use xlink:href="#ArialMT-30" transform="translate(55.615234 0)"/>
      </g>
     </g>
    </g>
    <g id="xtick_24">
     <g id="line2d_65">
      <path d="M 750.818599 677.8179 
L 750.818599 386.89885 
" clip-path="url(#pb2ed96af1a)" style="fill: none; stroke: #cccccc; stroke-opacity: 0.3; stroke-width: 0.8; stroke-linecap: round"/>
     </g>
     <g id="line2d_66">
      <g>
       <use xlink:href="#ma9a8872f59" x="750.818599" y="677.8179" style="fill: #262626; stroke: #262626"/>
      </g>
     </g>
     <g id="text_35">
      <!-- 22 -->
      <g style="fill: #262626" transform="translate(745.435611 693.046662) scale(0.0968 -0.0968)">
       <use xlink:href="#ArialMT-32"/>
       <use xlink:href="#ArialMT-32" transform="translate(55.615234 0)"/>
      </g>
     </g>
    </g>
    <g id="text_36">
     <!-- Hour of Day -->
     <g style="fill: #262626" transform="translate(401.983406 709.162125) scale(0.14 -0.14)">
      <defs>
       <path id="ArialMT-44" d="M 494 0 
L 494 4581 
L 2072 4581 
Q 2606 4581 2888 4516 
Q 3281 4425 3559 4188 
Q 3922 3881 4101 3404 
Q 4281 2928 4281 2316 
Q 4281 1794 4159 1391 
Q 4038 988 3847 723 
Q 3656 459 3429 307 
Q 3203 156 2883 78 
Q 2563 0 2147 0 
L 494 0 
z
M 1100 541 
L 2078 541 
Q 2531 541 2789 625 
Q 3047 709 3200 863 
Q 3416 1078 3536 1442 
Q 3656 1806 3656 2325 
Q 3656 3044 3420 3430 
Q 3184 3816 2847 3947 
Q 2603 4041 2063 4041 
L 1100 4041 
L 1100 541 
z
" transform="scale(0.015625)"/>
      </defs>
      <use xlink:href="#ArialMT-48"/>
      <use xlink:href="#ArialMT-6f" transform="translate(72.216797 0)"/>
      <use xlink:href="#ArialMT-75" transform="translate(127.832031 0)"/>
      <use xlink:href="#ArialMT-72" transform="translate(183.447266 0)"/>
      <use xlink:href="#ArialMT-20" transform="translate(216.748047 0)"/>
      <use xlink:href="#ArialMT-6f" transform="translate(244.53125 0)"/>
      <use xlink:href="#ArialMT-66" transform="translate(300.146484 0)"/>
      <use xlink:href="#ArialMT-20" transform="translate(327.929688 0)"/>
      <use xlink:href="#ArialMT-44" transform="translate(355.712891 0)"/>
      <use xlink:href="#ArialMT-61" transform="translate(427.929688 0)"/>
      <use xlink:href="#ArialMT-79" transform="translate(483.544922 0)"/>
     </g>
    </g>
   </g>
   <g id="matplotlib.axis_4">
    <g id="ytick_7">
     <g id="line2d_67">
      <path d="M 64.0593 654.648234 
L 814.5997 654.648234 
" clip-path="url(#pb2ed96af1a)" style="fill: none; stroke: #cccccc; stroke-opacity: 0.3; stroke-width: 0.8; stroke-linecap: round"/>
     </g>
     <g id="line2d_68">
      <g>
       <use xlink:href="#me78c3b8548" x="64.0593" y="654.648234" style="fill: #262626; stroke: #262626"/>
      </g>
     </g>
     <g id="text_37">
      <!-- 5 -->
      <g style="fill: #262626" transform="translate(50.376313 658.112615) scale(0.0968 -0.0968)">
       <use xlink:href="#ArialMT-35"/>
      </g>
     </g>
    </g>
    <g id="ytick_8">
     <g id="line2d_69">
      <path d="M 64.0593 621.431917 
L 814.5997 621.431917 
" clip-path="url(#pb2ed96af1a)" style="fill: none; stroke: #cccccc; stroke-opacity: 0.3; stroke-width: 0.8; stroke-linecap: round"/>
     </g>
     <g id="line2d_70">
      <g>
       <use xlink:href="#me78c3b8548" x="64.0593" y="621.431917" style="fill: #262626; stroke: #262626"/>
      </g>
     </g>
     <g id="text_38">
      <!-- 6 -->
      <g style="fill: #262626" transform="translate(50.376313 624.896298) scale(0.0968 -0.0968)">
       <use xlink:href="#ArialMT-36"/>
      </g>
     </g>
    </g>
    <g id="ytick_9">
     <g id="line2d_71">
      <path d="M 64.0593 588.215599 
L 814.5997 588.215599 
" clip-path="url(#pb2ed96af1a)" style="fill: none; stroke: #cccccc; stroke-opacity: 0.3; stroke-width: 0.8; stroke-linecap: round"/>
     </g>
     <g id="line2d_72">
      <g>
       <use xlink:href="#me78c3b8548" x="64.0593" y="588.215599" style="fill: #262626; stroke: #262626"/>
      </g>
     </g>
     <g id="text_39">
      <!-- 7 -->
      <g style="fill: #262626" transform="translate(50.376313 591.67998) scale(0.0968 -0.0968)">
       <use xlink:href="#ArialMT-37"/>
      </g>
     </g>
    </g>
    <g id="ytick_10">
     <g id="line2d_73">
      <path d="M 64.0593 554.999281 
L 814.5997 554.999281 
" clip-path="url(#pb2ed96af1a)" style="fill: none; stroke: #cccccc; stroke-opacity: 0.3; stroke-width: 0.8; stroke-linecap: round"/>
     </g>
     <g id="line2d_74">
      <g>
       <use xlink:href="#me78c3b8548" x="64.0593" y="554.999281" style="fill: #262626; stroke: #262626"/>
      </g>
     </g>
     <g id="text_40">
      <!-- 8 -->
      <g style="fill: #262626" transform="translate(50.376313 558.463663) scale(0.0968 -0.0968)">
       <use xlink:href="#ArialMT-38"/>
      </g>
     </g>
    </g>
    <g id="ytick_11">
     <g id="line2d_75">
      <path d="M 64.0593 521.782964 
L 814.5997 521.782964 
" clip-path="url(#pb2ed96af1a)" style="fill: none; stroke: #cccccc; stroke-opacity: 0.3; stroke-width: 0.8; stroke-linecap: round"/>
     </g>
     <g id="line2d_76">
      <g>
       <use xlink:href="#me78c3b8548" x="64.0593" y="521.782964" style="fill: #262626; stroke: #262626"/>
      </g>
     </g>
     <g id="text_41">
      <!-- 9 -->
      <g style="fill: #262626" transform="translate(50.376313 525.247345) scale(0.0968 -0.0968)">
       <defs>
        <path id="ArialMT-39" d="M 350 1059 
L 891 1109 
Q 959 728 1153 556 
Q 1347 384 1650 384 
Q 1909 384 2104 503 
Q 2300 622 2425 820 
Q 2550 1019 2634 1356 
Q 2719 1694 2719 2044 
Q 2719 2081 2716 2156 
Q 2547 1888 2255 1720 
Q 1963 1553 1622 1553 
Q 1053 1553 659 1965 
Q 266 2378 266 3053 
Q 266 3750 677 4175 
Q 1088 4600 1706 4600 
Q 2153 4600 2523 4359 
Q 2894 4119 3086 3673 
Q 3278 3228 3278 2384 
Q 3278 1506 3087 986 
Q 2897 466 2520 194 
Q 2144 -78 1638 -78 
Q 1100 -78 759 220 
Q 419 519 350 1059 
z
M 2653 3081 
Q 2653 3566 2395 3850 
Q 2138 4134 1775 4134 
Q 1400 4134 1122 3828 
Q 844 3522 844 3034 
Q 844 2597 1108 2323 
Q 1372 2050 1759 2050 
Q 2150 2050 2401 2323 
Q 2653 2597 2653 3081 
z
" transform="scale(0.015625)"/>
       </defs>
       <use xlink:href="#ArialMT-39"/>
      </g>
     </g>
    </g>
    <g id="ytick_12">
     <g id="line2d_77">
      <path d="M 64.0593 488.566646 
L 814.5997 488.566646 
" clip-path="url(#pb2ed96af1a)" style="fill: none; stroke: #cccccc; stroke-opacity: 0.3; stroke-width: 0.8; stroke-linecap: round"/>
     </g>
     <g id="line2d_78">
      <g>
       <use xlink:href="#me78c3b8548" x="64.0593" y="488.566646" style="fill: #262626; stroke: #262626"/>
      </g>
     </g>
     <g id="text_42">
      <!-- 10 -->
      <g style="fill: #262626" transform="translate(44.993325 492.031027) scale(0.0968 -0.0968)">
       <use xlink:href="#ArialMT-31"/>
       <use xlink:href="#ArialMT-30" transform="translate(55.615234 0)"/>
      </g>
     </g>
    </g>
    <g id="ytick_13">
     <g id="line2d_79">
      <path d="M 64.0593 455.350329 
L 814.5997 455.350329 
" clip-path="url(#pb2ed96af1a)" style="fill: none; stroke: #cccccc; stroke-opacity: 0.3; stroke-width: 0.8; stroke-linecap: round"/>
     </g>
     <g id="line2d_80">
      <g>
       <use xlink:href="#me78c3b8548" x="64.0593" y="455.350329" style="fill: #262626; stroke: #262626"/>
      </g>
     </g>
     <g id="text_43">
      <!-- 11 -->
      <g style="fill: #262626" transform="translate(45.707225 458.81471) scale(0.0968 -0.0968)">
       <use xlink:href="#ArialMT-31"/>
       <use xlink:href="#ArialMT-31" transform="translate(48.240234 0)"/>
      </g>
     </g>
    </g>
    <g id="ytick_14">
     <g id="line2d_81">
      <path d="M 64.0593 422.134011 
L 814.5997 422.134011 
" clip-path="url(#pb2ed96af1a)" style="fill: none; stroke: #cccccc; stroke-opacity: 0.3; stroke-width: 0.8; stroke-linecap: round"/>
     </g>
     <g id="line2d_82">
      <g>
       <use xlink:href="#me78c3b8548" x="64.0593" y="422.134011" style="fill: #262626; stroke: #262626"/>
      </g>
     </g>
     <g id="text_44">
      <!-- 12 -->
      <g style="fill: #262626" transform="translate(44.993325 425.598392) scale(0.0968 -0.0968)">
       <use xlink:href="#ArialMT-31"/>
       <use xlink:href="#ArialMT-32" transform="translate(55.615234 0)"/>
      </g>
     </g>
    </g>
    <g id="ytick_15">
     <g id="line2d_83">
      <path d="M 64.0593 388.917693 
L 814.5997 388.917693 
" clip-path="url(#pb2ed96af1a)" style="fill: none; stroke: #cccccc; stroke-opacity: 0.3; stroke-width: 0.8; stroke-linecap: round"/>
     </g>
     <g id="line2d_84">
      <g>
       <use xlink:href="#me78c3b8548" x="64.0593" y="388.917693" style="fill: #262626; stroke: #262626"/>
      </g>
     </g>
     <g id="text_45">
      <!-- 13 -->
      <g style="fill: #262626" transform="translate(44.993325 392.382075) scale(0.0968 -0.0968)">
       <use xlink:href="#ArialMT-31"/>
       <use xlink:href="#ArialMT-33" transform="translate(55.615234 0)"/>
      </g>
     </g>
    </g>
    <g id="text_46">
     <!-- Load (GW) -->
     <g style="fill: #262626" transform="translate(38.046763 566.587281) rotate(-90) scale(0.14 -0.14)">
      <defs>
       <path id="ArialMT-4c" d="M 469 0 
L 469 4581 
L 1075 4581 
L 1075 541 
L 3331 541 
L 3331 0 
L 469 0 
z
" transform="scale(0.015625)"/>
       <path id="ArialMT-64" d="M 2575 0 
L 2575 419 
Q 2259 -75 1647 -75 
Q 1250 -75 917 144 
Q 584 363 401 755 
Q 219 1147 219 1656 
Q 219 2153 384 2558 
Q 550 2963 881 3178 
Q 1213 3394 1622 3394 
Q 1922 3394 2156 3267 
Q 2391 3141 2538 2938 
L 2538 4581 
L 3097 4581 
L 3097 0 
L 2575 0 
z
M 797 1656 
Q 797 1019 1065 703 
Q 1334 388 1700 388 
Q 2069 388 2326 689 
Q 2584 991 2584 1609 
Q 2584 2291 2321 2609 
Q 2059 2928 1675 2928 
Q 1300 2928 1048 2622 
Q 797 2316 797 1656 
z
" transform="scale(0.015625)"/>
      </defs>
      <use xlink:href="#ArialMT-4c"/>
      <use xlink:href="#ArialMT-6f" transform="translate(55.615234 0)"/>
      <use xlink:href="#ArialMT-61" transform="translate(111.230469 0)"/>
      <use xlink:href="#ArialMT-64" transform="translate(166.845703 0)"/>
      <use xlink:href="#ArialMT-20" transform="translate(222.460938 0)"/>
      <use xlink:href="#ArialMT-28" transform="translate(250.244141 0)"/>
      <use xlink:href="#ArialMT-47" transform="translate(283.544922 0)"/>
      <use xlink:href="#ArialMT-57" transform="translate(361.328125 0)"/>
      <use xlink:href="#ArialMT-29" transform="translate(455.712891 0)"/>
     </g>
    </g>
   </g>
   <g id="line2d_85">
    <path d="M 98.174773 613.03915 
L 127.840401 657.690157 
L 157.50603 660.396069 
L 187.171658 664.593698 
L 216.837287 626.195524 
L 246.502915 598.513294 
L 276.168543 538.061755 
L 305.834172 481.529686 
L 335.4998 459.586295 
L 365.165429 449.759939 
L 394.831057 451.467867 
L 424.496686 445.420809 
L 454.162314 418.720176 
L 483.827943 421.663391 
L 513.493571 454.164838 
L 543.1592 468.64372 
L 572.824828 408.604368 
L 602.490457 425.39267 
L 632.156085 402.702825 
L 661.821713 400.183783 
L 691.487342 459.650181 
L 721.15297 512.07627 
L 750.818599 566.089324 
L 780.484227 589.637036 
" clip-path="url(#pb2ed96af1a)" style="fill: none; stroke: #1f77b4; stroke-width: 2.5; stroke-linecap: round"/>
    <defs>
     <path id="me128fbfd47" d="M -2.4 2.4 
L 2.4 2.4 
L 2.4 -2.4 
L -2.4 -2.4 
z
" style="stroke: #1f77b4; stroke-linejoin: miter"/>
    </defs>
    <g clip-path="url(#pb2ed96af1a)">
     <use xlink:href="#me128fbfd47" x="98.174773" y="613.03915" style="fill: #1f77b4; stroke: #1f77b4; stroke-linejoin: miter"/>
     <use xlink:href="#me128fbfd47" x="127.840401" y="657.690157" style="fill: #1f77b4; stroke: #1f77b4; stroke-linejoin: miter"/>
     <use xlink:href="#me128fbfd47" x="157.50603" y="660.396069" style="fill: #1f77b4; stroke: #1f77b4; stroke-linejoin: miter"/>
     <use xlink:href="#me128fbfd47" x="187.171658" y="664.593698" style="fill: #1f77b4; stroke: #1f77b4; stroke-linejoin: miter"/>
     <use xlink:href="#me128fbfd47" x="216.837287" y="626.195524" style="fill: #1f77b4; stroke: #1f77b4; stroke-linejoin: miter"/>
     <use xlink:href="#me128fbfd47" x="246.502915" y="598.513294" style="fill: #1f77b4; stroke: #1f77b4; stroke-linejoin: miter"/>
     <use xlink:href="#me128fbfd47" x="276.168543" y="538.061755" style="fill: #1f77b4; stroke: #1f77b4; stroke-linejoin: miter"/>
     <use xlink:href="#me128fbfd47" x="305.834172" y="481.529686" style="fill: #1f77b4; stroke: #1f77b4; stroke-linejoin: miter"/>
     <use xlink:href="#me128fbfd47" x="335.4998" y="459.586295" style="fill: #1f77b4; stroke: #1f77b4; stroke-linejoin: miter"/>
     <use xlink:href="#me128fbfd47" x="365.165429" y="449.759939" style="fill: #1f77b4; stroke: #1f77b4; stroke-linejoin: miter"/>
     <use xlink:href="#me128fbfd47" x="394.831057" y="451.467867" style="fill: #1f77b4; stroke: #1f77b4; stroke-linejoin: miter"/>
     <use xlink:href="#me128fbfd47" x="424.496686" y="445.420809" style="fill: #1f77b4; stroke: #1f77b4; stroke-linejoin: miter"/>
     <use xlink:href="#me128fbfd47" x="454.162314" y="418.720176" style="fill: #1f77b4; stroke: #1f77b4; stroke-linejoin: miter"/>
     <use xlink:href="#me128fbfd47" x="483.827943" y="421.663391" style="fill: #1f77b4; stroke: #1f77b4; stroke-linejoin: miter"/>
     <use xlink:href="#me128fbfd47" x="513.493571" y="454.164838" style="fill: #1f77b4; stroke: #1f77b4; stroke-linejoin: miter"/>
     <use xlink:href="#me128fbfd47" x="543.1592" y="468.64372" style="fill: #1f77b4; stroke: #1f77b4; stroke-linejoin: miter"/>
     <use xlink:href="#me128fbfd47" x="572.824828" y="408.604368" style="fill: #1f77b4; stroke: #1f77b4; stroke-linejoin: miter"/>
     <use xlink:href="#me128fbfd47" x="602.490457" y="425.39267" style="fill: #1f77b4; stroke: #1f77b4; stroke-linejoin: miter"/>
     <use xlink:href="#me128fbfd47" x="632.156085" y="402.702825" style="fill: #1f77b4; stroke: #1f77b4; stroke-linejoin: miter"/>
     <use xlink:href="#me128fbfd47" x="661.821713" y="400.183783" style="fill: #1f77b4; stroke: #1f77b4; stroke-linejoin: miter"/>
     <use xlink:href="#me128fbfd47" x="691.487342" y="459.650181" style="fill: #1f77b4; stroke: #1f77b4; stroke-linejoin: miter"/>
     <use xlink:href="#me128fbfd47" x="721.15297" y="512.07627" style="fill: #1f77b4; stroke: #1f77b4; stroke-linejoin: miter"/>
     <use xlink:href="#me128fbfd47" x="750.818599" y="566.089324" style="fill: #1f77b4; stroke: #1f77b4; stroke-linejoin: miter"/>
     <use xlink:href="#me128fbfd47" x="780.484227" y="589.637036" style="fill: #1f77b4; stroke: #1f77b4; stroke-linejoin: miter"/>
    </g>
   </g>
   <g id="line2d_86">
    <path d="M 98.174773 613.038513 
L 127.840401 657.690434 
L 157.50603 660.396207 
L 187.171658 664.593947 
L 216.837287 626.1945 
L 246.502915 598.51155 
L 276.168543 538.067789 
L 305.834172 481.536606 
L 335.4998 459.590558 
L 365.165429 449.764313 
L 394.831057 451.473818 
L 424.496686 445.426981 
L 454.162314 418.725325 
L 483.827943 421.668069 
L 513.493571 454.170928 
L 543.1592 468.647679 
L 572.824828 408.555208 
L 602.490457 425.348299 
L 632.156085 402.647852 
L 661.821713 400.122443 
L 691.487342 459.653281 
L 721.15297 512.082304 
L 750.818599 566.093587 
L 780.484227 589.636731 
" clip-path="url(#pb2ed96af1a)" style="fill: none; stroke: #ff7f0e; stroke-width: 2.5; stroke-linecap: round"/>
    <defs>
     <path id="m3c965bbde2" d="M -2.4 2.4 
L 2.4 2.4 
L 2.4 -2.4 
L -2.4 -2.4 
z
" style="stroke: #ff7f0e; stroke-linejoin: miter"/>
    </defs>
    <g clip-path="url(#pb2ed96af1a)">
     <use xlink:href="#m3c965bbde2" x="98.174773" y="613.038513" style="fill: #ff7f0e; stroke: #ff7f0e; stroke-linejoin: miter"/>
     <use xlink:href="#m3c965bbde2" x="127.840401" y="657.690434" style="fill: #ff7f0e; stroke: #ff7f0e; stroke-linejoin: miter"/>
     <use xlink:href="#m3c965bbde2" x="157.50603" y="660.396207" style="fill: #ff7f0e; stroke: #ff7f0e; stroke-linejoin: miter"/>
     <use xlink:href="#m3c965bbde2" x="187.171658" y="664.593947" style="fill: #ff7f0e; stroke: #ff7f0e; stroke-linejoin: miter"/>
     <use xlink:href="#m3c965bbde2" x="216.837287" y="626.1945" style="fill: #ff7f0e; stroke: #ff7f0e; stroke-linejoin: miter"/>
     <use xlink:href="#m3c965bbde2" x="246.502915" y="598.51155" style="fill: #ff7f0e; stroke: #ff7f0e; stroke-linejoin: miter"/>
     <use xlink:href="#m3c965bbde2" x="276.168543" y="538.067789" style="fill: #ff7f0e; stroke: #ff7f0e; stroke-linejoin: miter"/>
     <use xlink:href="#m3c965bbde2" x="305.834172" y="481.536606" style="fill: #ff7f0e; stroke: #ff7f0e; stroke-linejoin: miter"/>
     <use xlink:href="#m3c965bbde2" x="335.4998" y="459.590558" style="fill: #ff7f0e; stroke: #ff7f0e; stroke-linejoin: miter"/>
     <use xlink:href="#m3c965bbde2" x="365.165429" y="449.764313" style="fill: #ff7f0e; stroke: #ff7f0e; stroke-linejoin: miter"/>
     <use xlink:href="#m3c965bbde2" x="394.831057" y="451.473818" style="fill: #ff7f0e; stroke: #ff7f0e; stroke-linejoin: miter"/>
     <use xlink:href="#m3c965bbde2" x="424.496686" y="445.426981" style="fill: #ff7f0e; stroke: #ff7f0e; stroke-linejoin: miter"/>
     <use xlink:href="#m3c965bbde2" x="454.162314" y="418.725325" style="fill: #ff7f0e; stroke: #ff7f0e; stroke-linejoin: miter"/>
     <use xlink:href="#m3c965bbde2" x="483.827943" y="421.668069" style="fill: #ff7f0e; stroke: #ff7f0e; stroke-linejoin: miter"/>
     <use xlink:href="#m3c965bbde2" x="513.493571" y="454.170928" style="fill: #ff7f0e; stroke: #ff7f0e; stroke-linejoin: miter"/>
     <use xlink:href="#m3c965bbde2" x="543.1592" y="468.647679" style="fill: #ff7f0e; stroke: #ff7f0e; stroke-linejoin: miter"/>
     <use xlink:href="#m3c965bbde2" x="572.824828" y="408.555208" style="fill: #ff7f0e; stroke: #ff7f0e; stroke-linejoin: miter"/>
     <use xlink:href="#m3c965bbde2" x="602.490457" y="425.348299" style="fill: #ff7f0e; stroke: #ff7f0e; stroke-linejoin: miter"/>
     <use xlink:href="#m3c965bbde2" x="632.156085" y="402.647852" style="fill: #ff7f0e; stroke: #ff7f0e; stroke-linejoin: miter"/>
     <use xlink:href="#m3c965bbde2" x="661.821713" y="400.122443" style="fill: #ff7f0e; stroke: #ff7f0e; stroke-linejoin: miter"/>
     <use xlink:href="#m3c965bbde2" x="691.487342" y="459.653281" style="fill: #ff7f0e; stroke: #ff7f0e; stroke-linejoin: miter"/>
     <use xlink:href="#m3c965bbde2" x="721.15297" y="512.082304" style="fill: #ff7f0e; stroke: #ff7f0e; stroke-linejoin: miter"/>
     <use xlink:href="#m3c965bbde2" x="750.818599" y="566.093587" style="fill: #ff7f0e; stroke: #ff7f0e; stroke-linejoin: miter"/>
     <use xlink:href="#m3c965bbde2" x="780.484227" y="589.636731" style="fill: #ff7f0e; stroke: #ff7f0e; stroke-linejoin: miter"/>
    </g>
   </g>
   <g id="line2d_87">
    <path d="M 98.174773 613.039565 
L 127.840401 657.690766 
L 157.50603 660.39665 
L 187.171658 664.594307 
L 216.837287 626.19605 
L 246.502915 598.513626 
L 276.168543 538.062309 
L 305.834172 481.530102 
L 335.4998 459.586904 
L 365.165429 449.760604 
L 394.831057 451.468504 
L 424.496686 445.421418 
L 454.162314 418.720093 
L 483.827943 421.664028 
L 513.493571 454.165558 
L 543.1592 468.644302 
L 572.824828 408.605143 
L 602.490457 425.393362 
L 632.156085 402.703462 
L 661.821713 400.184336 
L 691.487342 459.649683 
L 721.15297 512.076824 
L 750.818599 566.089795 
L 780.484227 589.637562 
" clip-path="url(#pb2ed96af1a)" style="fill: none; stroke: #2ca02c; stroke-width: 2.5; stroke-linecap: round"/>
    <defs>
     <path id="m894beb532d" d="M -2.4 2.4 
L 2.4 2.4 
L 2.4 -2.4 
L -2.4 -2.4 
z
" style="stroke: #2ca02c; stroke-linejoin: miter"/>
    </defs>
    <g clip-path="url(#pb2ed96af1a)">
     <use xlink:href="#m894beb532d" x="98.174773" y="613.039565" style="fill: #2ca02c; stroke: #2ca02c; stroke-linejoin: miter"/>
     <use xlink:href="#m894beb532d" x="127.840401" y="657.690766" style="fill: #2ca02c; stroke: #2ca02c; stroke-linejoin: miter"/>
     <use xlink:href="#m894beb532d" x="157.50603" y="660.39665" style="fill: #2ca02c; stroke: #2ca02c; stroke-linejoin: miter"/>
     <use xlink:href="#m894beb532d" x="187.171658" y="664.594307" style="fill: #2ca02c; stroke: #2ca02c; stroke-linejoin: miter"/>
     <use xlink:href="#m894beb532d" x="216.837287" y="626.19605" style="fill: #2ca02c; stroke: #2ca02c; stroke-linejoin: miter"/>
     <use xlink:href="#m894beb532d" x="246.502915" y="598.513626" style="fill: #2ca02c; stroke: #2ca02c; stroke-linejoin: miter"/>
     <use xlink:href="#m894beb532d" x="276.168543" y="538.062309" style="fill: #2ca02c; stroke: #2ca02c; stroke-linejoin: miter"/>
     <use xlink:href="#m894beb532d" x="305.834172" y="481.530102" style="fill: #2ca02c; stroke: #2ca02c; stroke-linejoin: miter"/>
     <use xlink:href="#m894beb532d" x="335.4998" y="459.586904" style="fill: #2ca02c; stroke: #2ca02c; stroke-linejoin: miter"/>
     <use xlink:href="#m894beb532d" x="365.165429" y="449.760604" style="fill: #2ca02c; stroke: #2ca02c; stroke-linejoin: miter"/>
     <use xlink:href="#m894beb532d" x="394.831057" y="451.468504" style="fill: #2ca02c; stroke: #2ca02c; stroke-linejoin: miter"/>
     <use xlink:href="#m894beb532d" x="424.496686" y="445.421418" style="fill: #2ca02c; stroke: #2ca02c; stroke-linejoin: miter"/>
     <use xlink:href="#m894beb532d" x="454.162314" y="418.720093" style="fill: #2ca02c; stroke: #2ca02c; stroke-linejoin: miter"/>
     <use xlink:href="#m894beb532d" x="483.827943" y="421.664028" style="fill: #2ca02c; stroke: #2ca02c; stroke-linejoin: miter"/>
     <use xlink:href="#m894beb532d" x="513.493571" y="454.165558" style="fill: #2ca02c; stroke: #2ca02c; stroke-linejoin: miter"/>
     <use xlink:href="#m894beb532d" x="543.1592" y="468.644302" style="fill: #2ca02c; stroke: #2ca02c; stroke-linejoin: miter"/>
     <use xlink:href="#m894beb532d" x="572.824828" y="408.605143" style="fill: #2ca02c; stroke: #2ca02c; stroke-linejoin: miter"/>
     <use xlink:href="#m894beb532d" x="602.490457" y="425.393362" style="fill: #2ca02c; stroke: #2ca02c; stroke-linejoin: miter"/>
     <use xlink:href="#m894beb532d" x="632.156085" y="402.703462" style="fill: #2ca02c; stroke: #2ca02c; stroke-linejoin: miter"/>
     <use xlink:href="#m894beb532d" x="661.821713" y="400.184336" style="fill: #2ca02c; stroke: #2ca02c; stroke-linejoin: miter"/>
     <use xlink:href="#m894beb532d" x="691.487342" y="459.649683" style="fill: #2ca02c; stroke: #2ca02c; stroke-linejoin: miter"/>
     <use xlink:href="#m894beb532d" x="721.15297" y="512.076824" style="fill: #2ca02c; stroke: #2ca02c; stroke-linejoin: miter"/>
     <use xlink:href="#m894beb532d" x="750.818599" y="566.089795" style="fill: #2ca02c; stroke: #2ca02c; stroke-linejoin: miter"/>
     <use xlink:href="#m894beb532d" x="780.484227" y="589.637562" style="fill: #2ca02c; stroke: #2ca02c; stroke-linejoin: miter"/>
    </g>
   </g>
   <g id="patch_8">
    <path d="M 64.0593 677.8179 
L 64.0593 386.89885 
" style="fill: none; stroke: #cccccc; stroke-linejoin: miter; stroke-linecap: square"/>
   </g>
   <g id="patch_9">
    <path d="M 814.5997 677.8179 
L 814.5997 386.89885 
" style="fill: none; stroke: #cccccc; stroke-linejoin: miter; stroke-linecap: square"/>
   </g>
   <g id="patch_10">
    <path d="M 64.0593 677.8179 
L 814.5997 677.8179 
" style="fill: none; stroke: #cccccc; stroke-linejoin: miter; stroke-linecap: square"/>
   </g>
   <g id="patch_11">
    <path d="M 64.0593 386.89885 
L 814.5997 386.89885 
" style="fill: none; stroke: #cccccc; stroke-linejoin: miter; stroke-linecap: square"/>
   </g>
   <g id="text_47">
    <!-- Average Hourly Load Profile (Total System) -->
    <g style="fill: #262626" transform="translate(286.08325 371.89885) scale(0.16 -0.16)">
     <defs>
      <path id="ArialMT-54" d="M 1659 0 
L 1659 4041 
L 150 4041 
L 150 4581 
L 3781 4581 
L 3781 4041 
L 2266 4041 
L 2266 0 
L 1659 0 
z
" transform="scale(0.015625)"/>
      <path id="ArialMT-74" d="M 1650 503 
L 1731 6 
Q 1494 -44 1306 -44 
Q 1000 -44 831 53 
Q 663 150 594 308 
Q 525 466 525 972 
L 525 2881 
L 113 2881 
L 113 3319 
L 525 3319 
L 525 4141 
L 1084 4478 
L 1084 3319 
L 1650 3319 
L 1650 2881 
L 1084 2881 
L 1084 941 
Q 1084 700 1114 631 
Q 1144 563 1211 522 
Q 1278 481 1403 481 
Q 1497 481 1650 503 
z
" transform="scale(0.015625)"/>
      <path id="ArialMT-53" d="M 288 1472 
L 859 1522 
Q 900 1178 1048 958 
Q 1197 738 1509 602 
Q 1822 466 2213 466 
Q 2559 466 2825 569 
Q 3091 672 3220 851 
Q 3350 1031 3350 1244 
Q 3350 1459 3225 1620 
Q 3100 1781 2813 1891 
Q 2628 1963 1997 2114 
Q 1366 2266 1113 2400 
Q 784 2572 623 2826 
Q 463 3081 463 3397 
Q 463 3744 659 4045 
Q 856 4347 1234 4503 
Q 1613 4659 2075 4659 
Q 2584 4659 2973 4495 
Q 3363 4331 3572 4012 
Q 3781 3694 3797 3291 
L 3216 3247 
Q 3169 3681 2898 3903 
Q 2628 4125 2100 4125 
Q 1550 4125 1298 3923 
Q 1047 3722 1047 3438 
Q 1047 3191 1225 3031 
Q 1400 2872 2139 2705 
Q 2878 2538 3153 2413 
Q 3553 2228 3743 1945 
Q 3934 1663 3934 1294 
Q 3934 928 3725 604 
Q 3516 281 3123 101 
Q 2731 -78 2241 -78 
Q 1619 -78 1198 103 
Q 778 284 539 648 
Q 300 1013 288 1472 
z
" transform="scale(0.015625)"/>
      <path id="ArialMT-73" d="M 197 991 
L 753 1078 
Q 800 744 1014 566 
Q 1228 388 1613 388 
Q 2000 388 2187 545 
Q 2375 703 2375 916 
Q 2375 1106 2209 1216 
Q 2094 1291 1634 1406 
Q 1016 1563 777 1677 
Q 538 1791 414 1992 
Q 291 2194 291 2438 
Q 291 2659 392 2848 
Q 494 3038 669 3163 
Q 800 3259 1026 3326 
Q 1253 3394 1513 3394 
Q 1903 3394 2198 3281 
Q 2494 3169 2634 2976 
Q 2775 2784 2828 2463 
L 2278 2388 
Q 2241 2644 2061 2787 
Q 1881 2931 1553 2931 
Q 1166 2931 1000 2803 
Q 834 2675 834 2503 
Q 834 2394 903 2306 
Q 972 2216 1119 2156 
Q 1203 2125 1616 2013 
Q 2213 1853 2448 1751 
Q 2684 1650 2818 1456 
Q 2953 1263 2953 975 
Q 2953 694 2789 445 
Q 2625 197 2315 61 
Q 2006 -75 1616 -75 
Q 969 -75 630 194 
Q 291 463 197 991 
z
" transform="scale(0.015625)"/>
      <path id="ArialMT-6d" d="M 422 0 
L 422 3319 
L 925 3319 
L 925 2853 
Q 1081 3097 1340 3245 
Q 1600 3394 1931 3394 
Q 2300 3394 2536 3241 
Q 2772 3088 2869 2813 
Q 3263 3394 3894 3394 
Q 4388 3394 4653 3120 
Q 4919 2847 4919 2278 
L 4919 0 
L 4359 0 
L 4359 2091 
Q 4359 2428 4304 2576 
Q 4250 2725 4106 2815 
Q 3963 2906 3769 2906 
Q 3419 2906 3187 2673 
Q 2956 2441 2956 1928 
L 2956 0 
L 2394 0 
L 2394 2156 
Q 2394 2531 2256 2718 
Q 2119 2906 1806 2906 
Q 1569 2906 1367 2781 
Q 1166 2656 1075 2415 
Q 984 2175 984 1722 
L 984 0 
L 422 0 
z
" transform="scale(0.015625)"/>
     </defs>
     <use xlink:href="#ArialMT-41"/>
     <use xlink:href="#ArialMT-76" transform="translate(64.949219 0)"/>
     <use xlink:href="#ArialMT-65" transform="translate(114.949219 0)"/>
     <use xlink:href="#ArialMT-72" transform="translate(170.564453 0)"/>
     <use xlink:href="#ArialMT-61" transform="translate(203.865234 0)"/>
     <use xlink:href="#ArialMT-67" transform="translate(259.480469 0)"/>
     <use xlink:href="#ArialMT-65" transform="translate(315.095703 0)"/>
     <use xlink:href="#ArialMT-20" transform="translate(370.710938 0)"/>
     <use xlink:href="#ArialMT-48" transform="translate(398.494141 0)"/>
     <use xlink:href="#ArialMT-6f" transform="translate(470.710938 0)"/>
     <use xlink:href="#ArialMT-75" transform="translate(526.326172 0)"/>
     <use xlink:href="#ArialMT-72" transform="translate(581.941406 0)"/>
     <use xlink:href="#ArialMT-6c" transform="translate(615.242188 0)"/>
     <use xlink:href="#ArialMT-79" transform="translate(637.458984 0)"/>
     <use xlink:href="#ArialMT-20" transform="translate(687.458984 0)"/>
     <use xlink:href="#ArialMT-4c" transform="translate(715.242188 0)"/>
     <use xlink:href="#ArialMT-6f" transform="translate(770.857422 0)"/>
     <use xlink:href="#ArialMT-61" transform="translate(826.472656 0)"/>
     <use xlink:href="#ArialMT-64" transform="translate(882.087891 0)"/>
     <use xlink:href="#ArialMT-20" transform="translate(937.703125 0)"/>
     <use xlink:href="#ArialMT-50" transform="translate(965.486328 0)"/>
     <use xlink:href="#ArialMT-72" transform="translate(1032.185547 0)"/>
     <use xlink:href="#ArialMT-6f" transform="translate(1065.486328 0)"/>
     <use xlink:href="#ArialMT-66" transform="translate(1121.101562 0)"/>
     <use xlink:href="#ArialMT-69" transform="translate(1148.884766 0)"/>
     <use xlink:href="#ArialMT-6c" transform="translate(1171.101562 0)"/>
     <use xlink:href="#ArialMT-65" transform="translate(1193.318359 0)"/>
     <use xlink:href="#ArialMT-20" transform="translate(1248.933594 0)"/>
     <use xlink:href="#ArialMT-28" transform="translate(1276.716797 0)"/>
     <use xlink:href="#ArialMT-54" transform="translate(1310.017578 0)"/>
     <use xlink:href="#ArialMT-6f" transform="translate(1359.976562 0)"/>
     <use xlink:href="#ArialMT-74" transform="translate(1415.591797 0)"/>
     <use xlink:href="#ArialMT-61" transform="translate(1443.375 0)"/>
     <use xlink:href="#ArialMT-6c" transform="translate(1498.990234 0)"/>
     <use xlink:href="#ArialMT-20" transform="translate(1521.207031 0)"/>
     <use xlink:href="#ArialMT-53" transform="translate(1548.990234 0)"/>
     <use xlink:href="#ArialMT-79" transform="translate(1615.689453 0)"/>
     <use xlink:href="#ArialMT-73" transform="translate(1665.689453 0)"/>
     <use xlink:href="#ArialMT-74" transform="translate(1715.689453 0)"/>
     <use xlink:href="#ArialMT-65" transform="translate(1743.472656 0)"/>
     <use xlink:href="#ArialMT-6d" transform="translate(1799.087891 0)"/>
     <use xlink:href="#ArialMT-29" transform="translate(1882.388672 0)"/>
    </g>
   </g>
   <g id="legend_2">
    <g id="line2d_88">
     <path d="M 861.12672 399.556662 
L 871.12672 399.556662 
L 881.12672 399.556662 
" style="fill: none; stroke: #1f77b4; stroke-width: 2.5; stroke-linecap: round"/>
     <g>
      <use xlink:href="#me128fbfd47" x="871.12672" y="399.556662" style="fill: #1f77b4; stroke: #1f77b4; stroke-linejoin: miter"/>
     </g>
    </g>
    <g id="text_48">
     <!-- 3.EOM El.+ CVAR -->
     <g style="fill: #262626" transform="translate(889.12672 403.056662) scale(0.1 -0.1)">
      <use xlink:href="#ArialMT-33"/>
      <use xlink:href="#ArialMT-2e" transform="translate(55.615234 0)"/>
      <use xlink:href="#ArialMT-45" transform="translate(83.398438 0)"/>
      <use xlink:href="#ArialMT-4f" transform="translate(150.097656 0)"/>
      <use xlink:href="#ArialMT-4d" transform="translate(227.880859 0)"/>
      <use xlink:href="#ArialMT-20" transform="translate(311.181641 0)"/>
      <use xlink:href="#ArialMT-45" transform="translate(338.964844 0)"/>
      <use xlink:href="#ArialMT-6c" transform="translate(405.664062 0)"/>
      <use xlink:href="#ArialMT-2e" transform="translate(427.880859 0)"/>
      <use xlink:href="#ArialMT-2b" transform="translate(455.664062 0)"/>
      <use xlink:href="#ArialMT-20" transform="translate(514.0625 0)"/>
      <use xlink:href="#ArialMT-43" transform="translate(541.845703 0)"/>
      <use xlink:href="#ArialMT-56" transform="translate(614.0625 0)"/>
      <use xlink:href="#ArialMT-41" transform="translate(673.386719 0)"/>
      <use xlink:href="#ArialMT-52" transform="translate(740.085938 0)"/>
     </g>
    </g>
    <g id="line2d_89">
     <path d="M 861.12672 413.701975 
L 871.12672 413.701975 
L 881.12672 413.701975 
" style="fill: none; stroke: #ff7f0e; stroke-width: 2.5; stroke-linecap: round"/>
     <g>
      <use xlink:href="#m3c965bbde2" x="871.12672" y="413.701975" style="fill: #ff7f0e; stroke: #ff7f0e; stroke-linejoin: miter"/>
     </g>
    </g>
    <g id="text_49">
     <!-- 5.EOM El.+ CM+ CVAR -->
     <g style="fill: #262626" transform="translate(889.12672 417.201975) scale(0.1 -0.1)">
      <use xlink:href="#ArialMT-35"/>
      <use xlink:href="#ArialMT-2e" transform="translate(55.615234 0)"/>
      <use xlink:href="#ArialMT-45" transform="translate(83.398438 0)"/>
      <use xlink:href="#ArialMT-4f" transform="translate(150.097656 0)"/>
      <use xlink:href="#ArialMT-4d" transform="translate(227.880859 0)"/>
      <use xlink:href="#ArialMT-20" transform="translate(311.181641 0)"/>
      <use xlink:href="#ArialMT-45" transform="translate(338.964844 0)"/>
      <use xlink:href="#ArialMT-6c" transform="translate(405.664062 0)"/>
      <use xlink:href="#ArialMT-2e" transform="translate(427.880859 0)"/>
      <use xlink:href="#ArialMT-2b" transform="translate(455.664062 0)"/>
      <use xlink:href="#ArialMT-20" transform="translate(514.0625 0)"/>
      <use xlink:href="#ArialMT-43" transform="translate(541.845703 0)"/>
      <use xlink:href="#ArialMT-4d" transform="translate(614.0625 0)"/>
      <use xlink:href="#ArialMT-2b" transform="translate(697.363281 0)"/>
      <use xlink:href="#ArialMT-20" transform="translate(755.761719 0)"/>
      <use xlink:href="#ArialMT-43" transform="translate(783.544922 0)"/>
      <use xlink:href="#ArialMT-56" transform="translate(855.761719 0)"/>
      <use xlink:href="#ArialMT-41" transform="translate(915.085938 0)"/>
      <use xlink:href="#ArialMT-52" transform="translate(981.785156 0)"/>
     </g>
    </g>
    <g id="line2d_90">
     <path d="M 861.12672 427.847287 
L 871.12672 427.847287 
L 881.12672 427.847287 
" style="fill: none; stroke: #2ca02c; stroke-width: 2.5; stroke-linecap: round"/>
     <g>
      <use xlink:href="#m894beb532d" x="871.12672" y="427.847287" style="fill: #2ca02c; stroke: #2ca02c; stroke-linejoin: miter"/>
     </g>
    </g>
    <g id="text_50">
     <!-- 7.EOM El.+ RO+ CVAR -->
     <g style="fill: #262626" transform="translate(889.12672 431.347287) scale(0.1 -0.1)">
      <use xlink:href="#ArialMT-37"/>
      <use xlink:href="#ArialMT-2e" transform="translate(55.615234 0)"/>
      <use xlink:href="#ArialMT-45" transform="translate(83.398438 0)"/>
      <use xlink:href="#ArialMT-4f" transform="translate(150.097656 0)"/>
      <use xlink:href="#ArialMT-4d" transform="translate(227.880859 0)"/>
      <use xlink:href="#ArialMT-20" transform="translate(311.181641 0)"/>
      <use xlink:href="#ArialMT-45" transform="translate(338.964844 0)"/>
      <use xlink:href="#ArialMT-6c" transform="translate(405.664062 0)"/>
      <use xlink:href="#ArialMT-2e" transform="translate(427.880859 0)"/>
      <use xlink:href="#ArialMT-2b" transform="translate(455.664062 0)"/>
      <use xlink:href="#ArialMT-20" transform="translate(514.0625 0)"/>
      <use xlink:href="#ArialMT-52" transform="translate(541.845703 0)"/>
      <use xlink:href="#ArialMT-4f" transform="translate(614.0625 0)"/>
      <use xlink:href="#ArialMT-2b" transform="translate(691.845703 0)"/>
      <use xlink:href="#ArialMT-20" transform="translate(750.244141 0)"/>
      <use xlink:href="#ArialMT-43" transform="translate(778.027344 0)"/>
      <use xlink:href="#ArialMT-56" transform="translate(850.244141 0)"/>
      <use xlink:href="#ArialMT-41" transform="translate(909.568359 0)"/>
      <use xlink:href="#ArialMT-52" transform="translate(976.267578 0)"/>
     </g>
    </g>
   </g>
  </g>
 </g>
 <defs>
  <clipPath id="pf67a33b617">
   <rect x="64.0593" y="41.0475" width="750.5404" height="290.91905"/>
  </clipPath>
  <clipPath id="pb2ed96af1a">
   <rect x="64.0593" y="386.89885" width="750.5404" height="290.91905"/>
  </clipPath>
 </defs>
</svg>
