<?xml version="1.0" encoding="utf-8" standalone="no"?>
<!DOCTYPE svg PUBLIC "-//W3C//DTD SVG 1.1//EN"
  "http://www.w3.org/Graphics/SVG/1.1/DTD/svg11.dtd">
<svg xmlns:xlink="http://www.w3.org/1999/xlink" width="1276.237088pt" height="556.435178pt" viewBox="0 0 1276.237088 556.435178" xmlns="http://www.w3.org/2000/svg" version="1.1">
 <metadata>
  <rdf:RDF xmlns:dc="http://purl.org/dc/elements/1.1/" xmlns:cc="http://creativecommons.org/ns#" xmlns:rdf="http://www.w3.org/1999/02/22-rdf-syntax-ns#">
   <cc:Work>
    <dc:type rdf:resource="http://purl.org/dc/dcmitype/StillImage"/>
    <dc:date>2025-11-30T21:17:53.758519</dc:date>
    <dc:format>image/svg+xml</dc:format>
    <dc:creator>
     <cc:Agent>
      <dc:title>Matplotlib v3.10.3, https://matplotlib.org/</dc:title>
     </cc:Agent>
    </dc:creator>
   </cc:Work>
  </rdf:RDF>
 </metadata>
 <defs>
  <style type="text/css">*{stroke-linejoin: round; stroke-linecap: butt}</style>
 </defs>
 <g id="figure_1">
  <g id="patch_1">
   <path d="M 0 556.435178 
L 1276.237088 556.435178 
L 1276.237088 0 
L 0 0 
z
" style="fill: #ffffff"/>
  </g>
  <g id="axes_1">
   <g id="patch_2">
    <path d="M 63.187088 412.371432 
L 543.718451 412.371432 
L 543.718451 39.2475 
L 63.187088 39.2475 
z
" style="fill: #ffffff"/>
   </g>
   <g id="matplotlib.axis_1">
    <g id="xtick_1">
     <g id="line2d_1">
      <path d="M 135.43481 412.371432 
L 135.43481 39.2475 
" clip-path="url(#p38030f568a)" style="fill: none; stroke: #cccccc; stroke-width: 0.8; stroke-linecap: round"/>
     </g>
     <g id="line2d_2">
      <defs>
       <path id="md8f68c0365" d="M 0 0 
L 0 4.8 
" style="stroke: #262626"/>
      </defs>
      <g>
       <use xlink:href="#md8f68c0365" x="135.43481" y="412.371432" style="fill: #262626; stroke: #262626"/>
      </g>
     </g>
     <g id="text_1">
      <!-- 3.EOM El.+ CVAR -->
      <g style="fill: #262626" transform="translate(103.164887 495.672039) rotate(-45) scale(0.12 -0.12)">
       <defs>
        <path id="ArialMT-33" d="M 269 1209 
L 831 1284 
Q 928 806 1161 595 
Q 1394 384 1728 384 
Q 2125 384 2398 659 
Q 2672 934 2672 1341 
Q 2672 1728 2419 1979 
Q 2166 2231 1775 2231 
Q 1616 2231 1378 2169 
L 1441 2663 
Q 1497 2656 1531 2656 
Q 1891 2656 2178 2843 
Q 2466 3031 2466 3422 
Q 2466 3731 2256 3934 
Q 2047 4138 1716 4138 
Q 1388 4138 1169 3931 
Q 950 3725 888 3313 
L 325 3413 
Q 428 3978 793 4289 
Q 1159 4600 1703 4600 
Q 2078 4600 2393 4439 
Q 2709 4278 2876 4000 
Q 3044 3722 3044 3409 
Q 3044 3113 2884 2869 
Q 2725 2625 2413 2481 
Q 2819 2388 3044 2092 
Q 3269 1797 3269 1353 
Q 3269 753 2831 336 
Q 2394 -81 1725 -81 
Q 1122 -81 723 278 
Q 325 638 269 1209 
z
" transform="scale(0.015625)"/>
        <path id="ArialMT-2e" d="M 581 0 
L 581 641 
L 1222 641 
L 1222 0 
L 581 0 
z
" transform="scale(0.015625)"/>
        <path id="ArialMT-45" d="M 506 0 
L 506 4581 
L 3819 4581 
L 3819 4041 
L 1113 4041 
L 1113 2638 
L 3647 2638 
L 3647 2100 
L 1113 2100 
L 1113 541 
L 3925 541 
L 3925 0 
L 506 0 
z
" transform="scale(0.015625)"/>
        <path id="ArialMT-4f" d="M 309 2231 
Q 309 3372 921 4017 
Q 1534 4663 2503 4663 
Q 3138 4663 3647 4359 
Q 4156 4056 4423 3514 
Q 4691 2972 4691 2284 
Q 4691 1588 4409 1038 
Q 4128 488 3612 205 
Q 3097 -78 2500 -78 
Q 1853 -78 1343 234 
Q 834 547 571 1087 
Q 309 1628 309 2231 
z
M 934 2222 
Q 934 1394 1379 917 
Q 1825 441 2497 441 
Q 3181 441 3623 922 
Q 4066 1403 4066 2288 
Q 4066 2847 3877 3264 
Q 3688 3681 3323 3911 
Q 2959 4141 2506 4141 
Q 1863 4141 1398 3698 
Q 934 3256 934 2222 
z
" transform="scale(0.015625)"/>
        <path id="ArialMT-4d" d="M 475 0 
L 475 4581 
L 1388 4581 
L 2472 1338 
Q 2622 884 2691 659 
Q 2769 909 2934 1394 
L 4031 4581 
L 4847 4581 
L 4847 0 
L 4263 0 
L 4263 3834 
L 2931 0 
L 2384 0 
L 1059 3900 
L 1059 0 
L 475 0 
z
" transform="scale(0.015625)"/>
        <path id="ArialMT-20" transform="scale(0.015625)"/>
        <path id="ArialMT-6c" d="M 409 0 
L 409 4581 
L 972 4581 
L 972 0 
L 409 0 
z
" transform="scale(0.015625)"/>
        <path id="ArialMT-2b" d="M 1603 741 
L 1603 1997 
L 356 1997 
L 356 2522 
L 1603 2522 
L 1603 3769 
L 2134 3769 
L 2134 2522 
L 3381 2522 
L 3381 1997 
L 2134 1997 
L 2134 741 
L 1603 741 
z
" transform="scale(0.015625)"/>
        <path id="ArialMT-43" d="M 3763 1606 
L 4369 1453 
Q 4178 706 3683 314 
Q 3188 -78 2472 -78 
Q 1731 -78 1267 223 
Q 803 525 561 1097 
Q 319 1669 319 2325 
Q 319 3041 592 3573 
Q 866 4106 1370 4382 
Q 1875 4659 2481 4659 
Q 3169 4659 3637 4309 
Q 4106 3959 4291 3325 
L 3694 3184 
Q 3534 3684 3231 3912 
Q 2928 4141 2469 4141 
Q 1941 4141 1586 3887 
Q 1231 3634 1087 3207 
Q 944 2781 944 2328 
Q 944 1744 1114 1308 
Q 1284 872 1643 656 
Q 2003 441 2422 441 
Q 2931 441 3284 734 
Q 3638 1028 3763 1606 
z
" transform="scale(0.015625)"/>
        <path id="ArialMT-56" d="M 1803 0 
L 28 4581 
L 684 4581 
L 1875 1253 
Q 2019 853 2116 503 
Q 2222 878 2363 1253 
L 3600 4581 
L 4219 4581 
L 2425 0 
L 1803 0 
z
" transform="scale(0.015625)"/>
        <path id="ArialMT-41" d="M -9 0 
L 1750 4581 
L 2403 4581 
L 4278 0 
L 3588 0 
L 3053 1388 
L 1138 1388 
L 634 0 
L -9 0 
z
M 1313 1881 
L 2866 1881 
L 2388 3150 
Q 2169 3728 2063 4100 
Q 1975 3659 1816 3225 
L 1313 1881 
z
" transform="scale(0.015625)"/>
        <path id="ArialMT-52" d="M 503 0 
L 503 4581 
L 2534 4581 
Q 3147 4581 3465 4457 
Q 3784 4334 3975 4021 
Q 4166 3709 4166 3331 
Q 4166 2844 3850 2509 
Q 3534 2175 2875 2084 
Q 3116 1969 3241 1856 
Q 3506 1613 3744 1247 
L 4541 0 
L 3778 0 
L 3172 953 
Q 2906 1366 2734 1584 
Q 2563 1803 2427 1890 
Q 2291 1978 2150 2013 
Q 2047 2034 1813 2034 
L 1109 2034 
L 1109 0 
L 503 0 
z
M 1109 2559 
L 2413 2559 
Q 2828 2559 3062 2645 
Q 3297 2731 3419 2920 
Q 3541 3109 3541 3331 
Q 3541 3656 3305 3865 
Q 3069 4075 2559 4075 
L 1109 4075 
L 1109 2559 
z
" transform="scale(0.015625)"/>
       </defs>
       <use xlink:href="#ArialMT-33"/>
       <use xlink:href="#ArialMT-2e" transform="translate(55.615234 0)"/>
       <use xlink:href="#ArialMT-45" transform="translate(83.398438 0)"/>
       <use xlink:href="#ArialMT-4f" transform="translate(150.097656 0)"/>
       <use xlink:href="#ArialMT-4d" transform="translate(227.880859 0)"/>
       <use xlink:href="#ArialMT-20" transform="translate(311.181641 0)"/>
       <use xlink:href="#ArialMT-45" transform="translate(338.964844 0)"/>
       <use xlink:href="#ArialMT-6c" transform="translate(405.664062 0)"/>
       <use xlink:href="#ArialMT-2e" transform="translate(427.880859 0)"/>
       <use xlink:href="#ArialMT-2b" transform="translate(455.664062 0)"/>
       <use xlink:href="#ArialMT-20" transform="translate(514.0625 0)"/>
       <use xlink:href="#ArialMT-43" transform="translate(541.845703 0)"/>
       <use xlink:href="#ArialMT-56" transform="translate(614.0625 0)"/>
       <use xlink:href="#ArialMT-41" transform="translate(673.386719 0)"/>
       <use xlink:href="#ArialMT-52" transform="translate(740.085938 0)"/>
      </g>
     </g>
    </g>
    <g id="xtick_2">
     <g id="line2d_3">
      <path d="M 303.452769 412.371432 
L 303.452769 39.2475 
" clip-path="url(#p38030f568a)" style="fill: none; stroke: #cccccc; stroke-width: 0.8; stroke-linecap: round"/>
     </g>
     <g id="line2d_4">
      <g>
       <use xlink:href="#md8f68c0365" x="303.452769" y="412.371432" style="fill: #262626; stroke: #262626"/>
      </g>
     </g>
     <g id="text_2">
      <!-- 5.EOM El.+ CM+ CVAR -->
      <g style="fill: #262626" transform="translate(260.928251 516.181229) rotate(-45) scale(0.12 -0.12)">
       <defs>
        <path id="ArialMT-35" d="M 266 1200 
L 856 1250 
Q 922 819 1161 601 
Q 1400 384 1738 384 
Q 2144 384 2425 690 
Q 2706 997 2706 1503 
Q 2706 1984 2436 2262 
Q 2166 2541 1728 2541 
Q 1456 2541 1237 2417 
Q 1019 2294 894 2097 
L 366 2166 
L 809 4519 
L 3088 4519 
L 3088 3981 
L 1259 3981 
L 1013 2750 
Q 1425 3038 1878 3038 
Q 2478 3038 2890 2622 
Q 3303 2206 3303 1553 
Q 3303 931 2941 478 
Q 2500 -78 1738 -78 
Q 1113 -78 717 272 
Q 322 622 266 1200 
z
" transform="scale(0.015625)"/>
       </defs>
       <use xlink:href="#ArialMT-35"/>
       <use xlink:href="#ArialMT-2e" transform="translate(55.615234 0)"/>
       <use xlink:href="#ArialMT-45" transform="translate(83.398438 0)"/>
       <use xlink:href="#ArialMT-4f" transform="translate(150.097656 0)"/>
       <use xlink:href="#ArialMT-4d" transform="translate(227.880859 0)"/>
       <use xlink:href="#ArialMT-20" transform="translate(311.181641 0)"/>
       <use xlink:href="#ArialMT-45" transform="translate(338.964844 0)"/>
       <use xlink:href="#ArialMT-6c" transform="translate(405.664062 0)"/>
       <use xlink:href="#ArialMT-2e" transform="translate(427.880859 0)"/>
       <use xlink:href="#ArialMT-2b" transform="translate(455.664062 0)"/>
       <use xlink:href="#ArialMT-20" transform="translate(514.0625 0)"/>
       <use xlink:href="#ArialMT-43" transform="translate(541.845703 0)"/>
       <use xlink:href="#ArialMT-4d" transform="translate(614.0625 0)"/>
       <use xlink:href="#ArialMT-2b" transform="translate(697.363281 0)"/>
       <use xlink:href="#ArialMT-20" transform="translate(755.761719 0)"/>
       <use xlink:href="#ArialMT-43" transform="translate(783.544922 0)"/>
       <use xlink:href="#ArialMT-56" transform="translate(855.761719 0)"/>
       <use xlink:href="#ArialMT-41" transform="translate(915.085938 0)"/>
       <use xlink:href="#ArialMT-52" transform="translate(981.785156 0)"/>
      </g>
     </g>
    </g>
    <g id="xtick_3">
     <g id="line2d_5">
      <path d="M 471.470729 412.371432 
L 471.470729 39.2475 
" clip-path="url(#p38030f568a)" style="fill: none; stroke: #cccccc; stroke-width: 0.8; stroke-linecap: round"/>
     </g>
     <g id="line2d_6">
      <g>
       <use xlink:href="#md8f68c0365" x="471.470729" y="412.371432" style="fill: #262626; stroke: #262626"/>
      </g>
     </g>
     <g id="text_3">
      <!-- 7.EOM El.+ RO+ CVAR -->
      <g style="fill: #262626" transform="translate(429.180219 515.713212) rotate(-45) scale(0.12 -0.12)">
       <defs>
        <path id="ArialMT-37" d="M 303 3981 
L 303 4522 
L 3269 4522 
L 3269 4084 
Q 2831 3619 2401 2847 
Q 1972 2075 1738 1259 
Q 1569 684 1522 0 
L 944 0 
Q 953 541 1156 1306 
Q 1359 2072 1739 2783 
Q 2119 3494 2547 3981 
L 303 3981 
z
" transform="scale(0.015625)"/>
       </defs>
       <use xlink:href="#ArialMT-37"/>
       <use xlink:href="#ArialMT-2e" transform="translate(55.615234 0)"/>
       <use xlink:href="#ArialMT-45" transform="translate(83.398438 0)"/>
       <use xlink:href="#ArialMT-4f" transform="translate(150.097656 0)"/>
       <use xlink:href="#ArialMT-4d" transform="translate(227.880859 0)"/>
       <use xlink:href="#ArialMT-20" transform="translate(311.181641 0)"/>
       <use xlink:href="#ArialMT-45" transform="translate(338.964844 0)"/>
       <use xlink:href="#ArialMT-6c" transform="translate(405.664062 0)"/>
       <use xlink:href="#ArialMT-2e" transform="translate(427.880859 0)"/>
       <use xlink:href="#ArialMT-2b" transform="translate(455.664062 0)"/>
       <use xlink:href="#ArialMT-20" transform="translate(514.0625 0)"/>
       <use xlink:href="#ArialMT-52" transform="translate(541.845703 0)"/>
       <use xlink:href="#ArialMT-4f" transform="translate(614.0625 0)"/>
       <use xlink:href="#ArialMT-2b" transform="translate(691.845703 0)"/>
       <use xlink:href="#ArialMT-20" transform="translate(750.244141 0)"/>
       <use xlink:href="#ArialMT-43" transform="translate(778.027344 0)"/>
       <use xlink:href="#ArialMT-56" transform="translate(850.244141 0)"/>
       <use xlink:href="#ArialMT-41" transform="translate(909.568359 0)"/>
       <use xlink:href="#ArialMT-52" transform="translate(976.267578 0)"/>
      </g>
     </g>
    </g>
    <g id="text_4">
     <!-- Market Design -->
     <g style="fill: #262626" transform="translate(258.327926 531.888616) scale(0.14 -0.14)">
      <defs>
       <path id="ArialMT-61" d="M 2588 409 
Q 2275 144 1986 34 
Q 1697 -75 1366 -75 
Q 819 -75 525 192 
Q 231 459 231 875 
Q 231 1119 342 1320 
Q 453 1522 633 1644 
Q 813 1766 1038 1828 
Q 1203 1872 1538 1913 
Q 2219 1994 2541 2106 
Q 2544 2222 2544 2253 
Q 2544 2597 2384 2738 
Q 2169 2928 1744 2928 
Q 1347 2928 1158 2789 
Q 969 2650 878 2297 
L 328 2372 
Q 403 2725 575 2942 
Q 747 3159 1072 3276 
Q 1397 3394 1825 3394 
Q 2250 3394 2515 3294 
Q 2781 3194 2906 3042 
Q 3031 2891 3081 2659 
Q 3109 2516 3109 2141 
L 3109 1391 
Q 3109 606 3145 398 
Q 3181 191 3288 0 
L 2700 0 
Q 2613 175 2588 409 
z
M 2541 1666 
Q 2234 1541 1622 1453 
Q 1275 1403 1131 1340 
Q 988 1278 909 1158 
Q 831 1038 831 891 
Q 831 666 1001 516 
Q 1172 366 1500 366 
Q 1825 366 2078 508 
Q 2331 650 2450 897 
Q 2541 1088 2541 1459 
L 2541 1666 
z
" transform="scale(0.015625)"/>
       <path id="ArialMT-72" d="M 416 0 
L 416 3319 
L 922 3319 
L 922 2816 
Q 1116 3169 1280 3281 
Q 1444 3394 1641 3394 
Q 1925 3394 2219 3213 
L 2025 2691 
Q 1819 2813 1613 2813 
Q 1428 2813 1281 2702 
Q 1134 2591 1072 2394 
Q 978 2094 978 1738 
L 978 0 
L 416 0 
z
" transform="scale(0.015625)"/>
       <path id="ArialMT-6b" d="M 425 0 
L 425 4581 
L 988 4581 
L 988 1969 
L 2319 3319 
L 3047 3319 
L 1778 2088 
L 3175 0 
L 2481 0 
L 1384 1697 
L 988 1316 
L 988 0 
L 425 0 
z
" transform="scale(0.015625)"/>
       <path id="ArialMT-65" d="M 2694 1069 
L 3275 997 
Q 3138 488 2766 206 
Q 2394 -75 1816 -75 
Q 1088 -75 661 373 
Q 234 822 234 1631 
Q 234 2469 665 2931 
Q 1097 3394 1784 3394 
Q 2450 3394 2872 2941 
Q 3294 2488 3294 1666 
Q 3294 1616 3291 1516 
L 816 1516 
Q 847 969 1125 678 
Q 1403 388 1819 388 
Q 2128 388 2347 550 
Q 2566 713 2694 1069 
z
M 847 1978 
L 2700 1978 
Q 2663 2397 2488 2606 
Q 2219 2931 1791 2931 
Q 1403 2931 1139 2672 
Q 875 2413 847 1978 
z
" transform="scale(0.015625)"/>
       <path id="ArialMT-74" d="M 1650 503 
L 1731 6 
Q 1494 -44 1306 -44 
Q 1000 -44 831 53 
Q 663 150 594 308 
Q 525 466 525 972 
L 525 2881 
L 113 2881 
L 113 3319 
L 525 3319 
L 525 4141 
L 1084 4478 
L 1084 3319 
L 1650 3319 
L 1650 2881 
L 1084 2881 
L 1084 941 
Q 1084 700 1114 631 
Q 1144 563 1211 522 
Q 1278 481 1403 481 
Q 1497 481 1650 503 
z
" transform="scale(0.015625)"/>
       <path id="ArialMT-44" d="M 494 0 
L 494 4581 
L 2072 4581 
Q 2606 4581 2888 4516 
Q 3281 4425 3559 4188 
Q 3922 3881 4101 3404 
Q 4281 2928 4281 2316 
Q 4281 1794 4159 1391 
Q 4038 988 3847 723 
Q 3656 459 3429 307 
Q 3203 156 2883 78 
Q 2563 0 2147 0 
L 494 0 
z
M 1100 541 
L 2078 541 
Q 2531 541 2789 625 
Q 3047 709 3200 863 
Q 3416 1078 3536 1442 
Q 3656 1806 3656 2325 
Q 3656 3044 3420 3430 
Q 3184 3816 2847 3947 
Q 2603 4041 2063 4041 
L 1100 4041 
L 1100 541 
z
" transform="scale(0.015625)"/>
       <path id="ArialMT-73" d="M 197 991 
L 753 1078 
Q 800 744 1014 566 
Q 1228 388 1613 388 
Q 2000 388 2187 545 
Q 2375 703 2375 916 
Q 2375 1106 2209 1216 
Q 2094 1291 1634 1406 
Q 1016 1563 777 1677 
Q 538 1791 414 1992 
Q 291 2194 291 2438 
Q 291 2659 392 2848 
Q 494 3038 669 3163 
Q 800 3259 1026 3326 
Q 1253 3394 1513 3394 
Q 1903 3394 2198 3281 
Q 2494 3169 2634 2976 
Q 2775 2784 2828 2463 
L 2278 2388 
Q 2241 2644 2061 2787 
Q 1881 2931 1553 2931 
Q 1166 2931 1000 2803 
Q 834 2675 834 2503 
Q 834 2394 903 2306 
Q 972 2216 1119 2156 
Q 1203 2125 1616 2013 
Q 2213 1853 2448 1751 
Q 2684 1650 2818 1456 
Q 2953 1263 2953 975 
Q 2953 694 2789 445 
Q 2625 197 2315 61 
Q 2006 -75 1616 -75 
Q 969 -75 630 194 
Q 291 463 197 991 
z
" transform="scale(0.015625)"/>
       <path id="ArialMT-69" d="M 425 3934 
L 425 4581 
L 988 4581 
L 988 3934 
L 425 3934 
z
M 425 0 
L 425 3319 
L 988 3319 
L 988 0 
L 425 0 
z
" transform="scale(0.015625)"/>
       <path id="ArialMT-67" d="M 319 -275 
L 866 -356 
Q 900 -609 1056 -725 
Q 1266 -881 1628 -881 
Q 2019 -881 2231 -725 
Q 2444 -569 2519 -288 
Q 2563 -116 2559 434 
Q 2191 0 1641 0 
Q 956 0 581 494 
Q 206 988 206 1678 
Q 206 2153 378 2554 
Q 550 2956 876 3175 
Q 1203 3394 1644 3394 
Q 2231 3394 2613 2919 
L 2613 3319 
L 3131 3319 
L 3131 450 
Q 3131 -325 2973 -648 
Q 2816 -972 2473 -1159 
Q 2131 -1347 1631 -1347 
Q 1038 -1347 672 -1080 
Q 306 -813 319 -275 
z
M 784 1719 
Q 784 1066 1043 766 
Q 1303 466 1694 466 
Q 2081 466 2343 764 
Q 2606 1063 2606 1700 
Q 2606 2309 2336 2618 
Q 2066 2928 1684 2928 
Q 1309 2928 1046 2623 
Q 784 2319 784 1719 
z
" transform="scale(0.015625)"/>
       <path id="ArialMT-6e" d="M 422 0 
L 422 3319 
L 928 3319 
L 928 2847 
Q 1294 3394 1984 3394 
Q 2284 3394 2536 3286 
Q 2788 3178 2913 3003 
Q 3038 2828 3088 2588 
Q 3119 2431 3119 2041 
L 3119 0 
L 2556 0 
L 2556 2019 
Q 2556 2363 2490 2533 
Q 2425 2703 2258 2804 
Q 2091 2906 1866 2906 
Q 1506 2906 1245 2678 
Q 984 2450 984 1813 
L 984 0 
L 422 0 
z
" transform="scale(0.015625)"/>
      </defs>
      <use xlink:href="#ArialMT-4d"/>
      <use xlink:href="#ArialMT-61" transform="translate(83.300781 0)"/>
      <use xlink:href="#ArialMT-72" transform="translate(138.916016 0)"/>
      <use xlink:href="#ArialMT-6b" transform="translate(172.216797 0)"/>
      <use xlink:href="#ArialMT-65" transform="translate(222.216797 0)"/>
      <use xlink:href="#ArialMT-74" transform="translate(277.832031 0)"/>
      <use xlink:href="#ArialMT-20" transform="translate(305.615234 0)"/>
      <use xlink:href="#ArialMT-44" transform="translate(333.398438 0)"/>
      <use xlink:href="#ArialMT-65" transform="translate(405.615234 0)"/>
      <use xlink:href="#ArialMT-73" transform="translate(461.230469 0)"/>
      <use xlink:href="#ArialMT-69" transform="translate(511.230469 0)"/>
      <use xlink:href="#ArialMT-67" transform="translate(533.447266 0)"/>
      <use xlink:href="#ArialMT-6e" transform="translate(589.0625 0)"/>
     </g>
    </g>
   </g>
   <g id="matplotlib.axis_2">
    <g id="ytick_1">
     <g id="line2d_7">
      <path d="M 63.187088 412.371432 
L 543.718451 412.371432 
" clip-path="url(#p38030f568a)" style="fill: none; stroke: #cccccc; stroke-width: 0.8; stroke-linecap: round"/>
     </g>
     <g id="line2d_8">
      <defs>
       <path id="mf119b7c7bd" d="M 0 0 
L -4.8 0 
" style="stroke: #262626"/>
      </defs>
      <g>
       <use xlink:href="#mf119b7c7bd" x="63.187088" y="412.371432" style="fill: #262626; stroke: #262626"/>
      </g>
     </g>
     <g id="text_5">
      <!-- 0 -->
      <g style="fill: #262626" transform="translate(49.5041 415.835813) scale(0.0968 -0.0968)">
       <defs>
        <path id="ArialMT-30" d="M 266 2259 
Q 266 3072 433 3567 
Q 600 4063 929 4331 
Q 1259 4600 1759 4600 
Q 2128 4600 2406 4451 
Q 2684 4303 2865 4023 
Q 3047 3744 3150 3342 
Q 3253 2941 3253 2259 
Q 3253 1453 3087 958 
Q 2922 463 2592 192 
Q 2263 -78 1759 -78 
Q 1097 -78 719 397 
Q 266 969 266 2259 
z
M 844 2259 
Q 844 1131 1108 757 
Q 1372 384 1759 384 
Q 2147 384 2411 759 
Q 2675 1134 2675 2259 
Q 2675 3391 2411 3762 
Q 2147 4134 1753 4134 
Q 1366 4134 1134 3806 
Q 844 3388 844 2259 
z
" transform="scale(0.015625)"/>
       </defs>
       <use xlink:href="#ArialMT-30"/>
      </g>
     </g>
    </g>
    <g id="ytick_2">
     <g id="line2d_9">
      <path d="M 63.187088 343.056532 
L 543.718451 343.056532 
" clip-path="url(#p38030f568a)" style="fill: none; stroke: #cccccc; stroke-width: 0.8; stroke-linecap: round"/>
     </g>
     <g id="line2d_10">
      <g>
       <use xlink:href="#mf119b7c7bd" x="63.187088" y="343.056532" style="fill: #262626; stroke: #262626"/>
      </g>
     </g>
     <g id="text_6">
      <!-- 50 -->
      <g style="fill: #262626" transform="translate(44.121113 346.520913) scale(0.0968 -0.0968)">
       <use xlink:href="#ArialMT-35"/>
       <use xlink:href="#ArialMT-30" transform="translate(55.615234 0)"/>
      </g>
     </g>
    </g>
    <g id="ytick_3">
     <g id="line2d_11">
      <path d="M 63.187088 273.741631 
L 543.718451 273.741631 
" clip-path="url(#p38030f568a)" style="fill: none; stroke: #cccccc; stroke-width: 0.8; stroke-linecap: round"/>
     </g>
     <g id="line2d_12">
      <g>
       <use xlink:href="#mf119b7c7bd" x="63.187088" y="273.741631" style="fill: #262626; stroke: #262626"/>
      </g>
     </g>
     <g id="text_7">
      <!-- 100 -->
      <g style="fill: #262626" transform="translate(38.738125 277.206013) scale(0.0968 -0.0968)">
       <defs>
        <path id="ArialMT-31" d="M 2384 0 
L 1822 0 
L 1822 3584 
Q 1619 3391 1289 3197 
Q 959 3003 697 2906 
L 697 3450 
Q 1169 3672 1522 3987 
Q 1875 4303 2022 4600 
L 2384 4600 
L 2384 0 
z
" transform="scale(0.015625)"/>
       </defs>
       <use xlink:href="#ArialMT-31"/>
       <use xlink:href="#ArialMT-30" transform="translate(55.615234 0)"/>
       <use xlink:href="#ArialMT-30" transform="translate(111.230469 0)"/>
      </g>
     </g>
    </g>
    <g id="ytick_4">
     <g id="line2d_13">
      <path d="M 63.187088 204.426731 
L 543.718451 204.426731 
" clip-path="url(#p38030f568a)" style="fill: none; stroke: #cccccc; stroke-width: 0.8; stroke-linecap: round"/>
     </g>
     <g id="line2d_14">
      <g>
       <use xlink:href="#mf119b7c7bd" x="63.187088" y="204.426731" style="fill: #262626; stroke: #262626"/>
      </g>
     </g>
     <g id="text_8">
      <!-- 150 -->
      <g style="fill: #262626" transform="translate(38.738125 207.891112) scale(0.0968 -0.0968)">
       <use xlink:href="#ArialMT-31"/>
       <use xlink:href="#ArialMT-35" transform="translate(55.615234 0)"/>
       <use xlink:href="#ArialMT-30" transform="translate(111.230469 0)"/>
      </g>
     </g>
    </g>
    <g id="ytick_5">
     <g id="line2d_15">
      <path d="M 63.187088 135.111831 
L 543.718451 135.111831 
" clip-path="url(#p38030f568a)" style="fill: none; stroke: #cccccc; stroke-width: 0.8; stroke-linecap: round"/>
     </g>
     <g id="line2d_16">
      <g>
       <use xlink:href="#mf119b7c7bd" x="63.187088" y="135.111831" style="fill: #262626; stroke: #262626"/>
      </g>
     </g>
     <g id="text_9">
      <!-- 200 -->
      <g style="fill: #262626" transform="translate(38.738125 138.576212) scale(0.0968 -0.0968)">
       <defs>
        <path id="ArialMT-32" d="M 3222 541 
L 3222 0 
L 194 0 
Q 188 203 259 391 
Q 375 700 629 1000 
Q 884 1300 1366 1694 
Q 2113 2306 2375 2664 
Q 2638 3022 2638 3341 
Q 2638 3675 2398 3904 
Q 2159 4134 1775 4134 
Q 1369 4134 1125 3890 
Q 881 3647 878 3216 
L 300 3275 
Q 359 3922 746 4261 
Q 1134 4600 1788 4600 
Q 2447 4600 2831 4234 
Q 3216 3869 3216 3328 
Q 3216 3053 3103 2787 
Q 2991 2522 2730 2228 
Q 2469 1934 1863 1422 
Q 1356 997 1212 845 
Q 1069 694 975 541 
L 3222 541 
z
" transform="scale(0.015625)"/>
       </defs>
       <use xlink:href="#ArialMT-32"/>
       <use xlink:href="#ArialMT-30" transform="translate(55.615234 0)"/>
       <use xlink:href="#ArialMT-30" transform="translate(111.230469 0)"/>
      </g>
     </g>
    </g>
    <g id="ytick_6">
     <g id="line2d_17">
      <path d="M 63.187088 65.79693 
L 543.718451 65.79693 
" clip-path="url(#p38030f568a)" style="fill: none; stroke: #cccccc; stroke-width: 0.8; stroke-linecap: round"/>
     </g>
     <g id="line2d_18">
      <g>
       <use xlink:href="#mf119b7c7bd" x="63.187088" y="65.79693" style="fill: #262626; stroke: #262626"/>
      </g>
     </g>
     <g id="text_10">
      <!-- 250 -->
      <g style="fill: #262626" transform="translate(38.738125 69.261311) scale(0.0968 -0.0968)">
       <use xlink:href="#ArialMT-32"/>
       <use xlink:href="#ArialMT-35" transform="translate(55.615234 0)"/>
       <use xlink:href="#ArialMT-30" transform="translate(111.230469 0)"/>
      </g>
     </g>
    </g>
    <g id="text_11">
     <!-- Cost (M€/12 days) -->
     <g style="fill: #262626" transform="translate(31.791562 282.99181) rotate(-90) scale(0.14 -0.14)">
      <defs>
       <path id="ArialMT-6f" d="M 213 1659 
Q 213 2581 725 3025 
Q 1153 3394 1769 3394 
Q 2453 3394 2887 2945 
Q 3322 2497 3322 1706 
Q 3322 1066 3130 698 
Q 2938 331 2570 128 
Q 2203 -75 1769 -75 
Q 1072 -75 642 372 
Q 213 819 213 1659 
z
M 791 1659 
Q 791 1022 1069 705 
Q 1347 388 1769 388 
Q 2188 388 2466 706 
Q 2744 1025 2744 1678 
Q 2744 2294 2464 2611 
Q 2184 2928 1769 2928 
Q 1347 2928 1069 2612 
Q 791 2297 791 1659 
z
" transform="scale(0.015625)"/>
       <path id="ArialMT-28" d="M 1497 -1347 
Q 1031 -759 709 28 
Q 388 816 388 1659 
Q 388 2403 628 3084 
Q 909 3875 1497 4659 
L 1900 4659 
Q 1522 4009 1400 3731 
Q 1209 3300 1100 2831 
Q 966 2247 966 1656 
Q 966 153 1900 -1347 
L 1497 -1347 
z
" transform="scale(0.015625)"/>
       <path id="ArialMT-20ac" d="M 2469 4141 
Q 1944 4141 1588 3888 
Q 1375 3738 1203 3463 
Q 1028 3178 997 2922 
L 3128 2922 
L 3044 2503 
L 947 2503 
Q 944 2438 944 2378 
Q 944 2138 947 2091 
L 2959 2091 
L 2872 1672 
L 1013 1672 
Q 1144 956 1644 656 
Q 2003 441 2422 441 
Q 3006 441 3334 747 
L 3334 103 
Q 2944 -78 2472 -78 
Q 1059 -78 563 1097 
Q 463 1334 391 1672 
L -88 1672 
L 0 2091 
L 328 2091 
Q 319 2222 319 2375 
Q 319 2438 322 2503 
L -88 2503 
L 0 2922 
L 363 2922 
Q 556 3941 1372 4384 
Q 1875 4659 2481 4659 
Q 3063 4659 3459 4406 
L 3334 3825 
Q 2953 4141 2469 4141 
z
" transform="scale(0.015625)"/>
       <path id="ArialMT-2f" d="M 0 -78 
L 1328 4659 
L 1778 4659 
L 453 -78 
L 0 -78 
z
" transform="scale(0.015625)"/>
       <path id="ArialMT-64" d="M 2575 0 
L 2575 419 
Q 2259 -75 1647 -75 
Q 1250 -75 917 144 
Q 584 363 401 755 
Q 219 1147 219 1656 
Q 219 2153 384 2558 
Q 550 2963 881 3178 
Q 1213 3394 1622 3394 
Q 1922 3394 2156 3267 
Q 2391 3141 2538 2938 
L 2538 4581 
L 3097 4581 
L 3097 0 
L 2575 0 
z
M 797 1656 
Q 797 1019 1065 703 
Q 1334 388 1700 388 
Q 2069 388 2326 689 
Q 2584 991 2584 1609 
Q 2584 2291 2321 2609 
Q 2059 2928 1675 2928 
Q 1300 2928 1048 2622 
Q 797 2316 797 1656 
z
" transform="scale(0.015625)"/>
       <path id="ArialMT-79" d="M 397 -1278 
L 334 -750 
Q 519 -800 656 -800 
Q 844 -800 956 -737 
Q 1069 -675 1141 -563 
Q 1194 -478 1313 -144 
Q 1328 -97 1363 -6 
L 103 3319 
L 709 3319 
L 1400 1397 
Q 1534 1031 1641 628 
Q 1738 1016 1872 1384 
L 2581 3319 
L 3144 3319 
L 1881 -56 
Q 1678 -603 1566 -809 
Q 1416 -1088 1222 -1217 
Q 1028 -1347 759 -1347 
Q 597 -1347 397 -1278 
z
" transform="scale(0.015625)"/>
       <path id="ArialMT-29" d="M 791 -1347 
L 388 -1347 
Q 1322 153 1322 1656 
Q 1322 2244 1188 2822 
Q 1081 3291 891 3722 
Q 769 4003 388 4659 
L 791 4659 
Q 1378 3875 1659 3084 
Q 1900 2403 1900 1659 
Q 1900 816 1576 28 
Q 1253 -759 791 -1347 
z
" transform="scale(0.015625)"/>
      </defs>
      <use xlink:href="#ArialMT-43"/>
      <use xlink:href="#ArialMT-6f" transform="translate(72.216797 0)"/>
      <use xlink:href="#ArialMT-73" transform="translate(127.832031 0)"/>
      <use xlink:href="#ArialMT-74" transform="translate(177.832031 0)"/>
      <use xlink:href="#ArialMT-20" transform="translate(205.615234 0)"/>
      <use xlink:href="#ArialMT-28" transform="translate(233.398438 0)"/>
      <use xlink:href="#ArialMT-4d" transform="translate(266.699219 0)"/>
      <use xlink:href="#ArialMT-20ac" transform="translate(350 0)"/>
      <use xlink:href="#ArialMT-2f" transform="translate(405.615234 0)"/>
      <use xlink:href="#ArialMT-31" transform="translate(433.398438 0)"/>
      <use xlink:href="#ArialMT-32" transform="translate(489.013672 0)"/>
      <use xlink:href="#ArialMT-20" transform="translate(544.628906 0)"/>
      <use xlink:href="#ArialMT-64" transform="translate(572.412109 0)"/>
      <use xlink:href="#ArialMT-61" transform="translate(628.027344 0)"/>
      <use xlink:href="#ArialMT-79" transform="translate(683.642578 0)"/>
      <use xlink:href="#ArialMT-73" transform="translate(733.642578 0)"/>
      <use xlink:href="#ArialMT-29" transform="translate(783.642578 0)"/>
     </g>
    </g>
   </g>
   <g id="patch_3">
    <path d="M 85.029422 412.371432 
L 185.840198 412.371432 
L 185.840198 354.92724 
L 85.029422 354.92724 
z
" clip-path="url(#p38030f568a)" style="fill: #4169e1; opacity: 0.8; stroke: #ffffff; stroke-width: 0.5; stroke-linejoin: miter"/>
   </g>
   <g id="patch_4">
    <path d="M 253.047382 412.371432 
L 353.858157 412.371432 
L 353.858157 355.026318 
L 253.047382 355.026318 
z
" clip-path="url(#p38030f568a)" style="fill: #4169e1; opacity: 0.8; stroke: #ffffff; stroke-width: 0.5; stroke-linejoin: miter"/>
   </g>
   <g id="patch_5">
    <path d="M 421.065341 412.371432 
L 521.876116 412.371432 
L 521.876116 354.924131 
L 421.065341 354.924131 
z
" clip-path="url(#p38030f568a)" style="fill: #4169e1; opacity: 0.8; stroke: #ffffff; stroke-width: 0.5; stroke-linejoin: miter"/>
   </g>
   <g id="patch_6">
    <path d="M 85.029422 354.92724 
L 185.840198 354.92724 
L 185.840198 172.080936 
L 85.029422 172.080936 
z
" clip-path="url(#p38030f568a)" style="fill: #8b0000; opacity: 0.8; stroke: #ffffff; stroke-width: 0.5; stroke-linejoin: miter"/>
   </g>
   <g id="patch_7">
    <path d="M 253.047382 355.026318 
L 353.858157 355.026318 
L 353.858157 172.260324 
L 253.047382 172.260324 
z
" clip-path="url(#p38030f568a)" style="fill: #8b0000; opacity: 0.8; stroke: #ffffff; stroke-width: 0.5; stroke-linejoin: miter"/>
   </g>
   <g id="patch_8">
    <path d="M 421.065341 354.924131 
L 521.876116 354.924131 
L 521.876116 172.065078 
L 421.065341 172.065078 
z
" clip-path="url(#p38030f568a)" style="fill: #8b0000; opacity: 0.8; stroke: #ffffff; stroke-width: 0.5; stroke-linejoin: miter"/>
   </g>
   <g id="patch_9">
    <path d="M 85.029422 172.080936 
L 185.840198 172.080936 
L 185.840198 74.825367 
L 85.029422 74.825367 
z
" clip-path="url(#p38030f568a)" style="fill: #191970; opacity: 0.8; stroke: #ffffff; stroke-width: 0.5; stroke-linejoin: miter"/>
   </g>
   <g id="patch_10">
    <path d="M 253.047382 172.260324 
L 353.858157 172.260324 
L 353.858157 75.060181 
L 253.047382 75.060181 
z
" clip-path="url(#p38030f568a)" style="fill: #191970; opacity: 0.8; stroke: #ffffff; stroke-width: 0.5; stroke-linejoin: miter"/>
   </g>
   <g id="patch_11">
    <path d="M 421.065341 172.065078 
L 521.876116 172.065078 
L 521.876116 74.804197 
L 421.065341 74.804197 
z
" clip-path="url(#p38030f568a)" style="fill: #191970; opacity: 0.8; stroke: #ffffff; stroke-width: 0.5; stroke-linejoin: miter"/>
   </g>
   <g id="patch_12">
    <path d="M 85.029422 74.825367 
L 185.840198 74.825367 
L 185.840198 57.037268 
L 85.029422 57.037268 
z
" clip-path="url(#p38030f568a)" style="fill: #87ceeb; opacity: 0.8; stroke: #ffffff; stroke-width: 0.5; stroke-linejoin: miter"/>
   </g>
   <g id="patch_13">
    <path d="M 253.047382 75.060181 
L 353.858157 75.060181 
L 353.858157 57.312069 
L 253.047382 57.312069 
z
" clip-path="url(#p38030f568a)" style="fill: #87ceeb; opacity: 0.8; stroke: #ffffff; stroke-width: 0.5; stroke-linejoin: miter"/>
   </g>
   <g id="patch_14">
    <path d="M 421.065341 74.804197 
L 521.876116 74.804197 
L 521.876116 57.015306 
L 421.065341 57.015306 
z
" clip-path="url(#p38030f568a)" style="fill: #87ceeb; opacity: 0.8; stroke: #ffffff; stroke-width: 0.5; stroke-linejoin: miter"/>
   </g>
   <g id="patch_15">
    <path d="M 63.187088 412.371432 
L 63.187088 39.2475 
" style="fill: none; stroke: #cccccc; stroke-linejoin: miter; stroke-linecap: square"/>
   </g>
   <g id="patch_16">
    <path d="M 543.718451 412.371432 
L 543.718451 39.2475 
" style="fill: none; stroke: #cccccc; stroke-linejoin: miter; stroke-linecap: square"/>
   </g>
   <g id="patch_17">
    <path d="M 63.187088 412.371432 
L 543.718451 412.371432 
" style="fill: none; stroke: #cccccc; stroke-linejoin: miter; stroke-linecap: square"/>
   </g>
   <g id="patch_18">
    <path d="M 63.187088 39.2475 
L 543.718451 39.2475 
" style="fill: none; stroke: #cccccc; stroke-linejoin: miter; stroke-linecap: square"/>
   </g>
   <g id="text_12">
    <!-- 41.4 -->
    <g style="fill: #262626" transform="translate(127.650435 385.723086) scale(0.08 -0.08)">
     <defs>
      <path id="Arial-BoldMT-34" d="M 1994 0 
L 1994 922 
L 119 922 
L 119 1691 
L 2106 4600 
L 2844 4600 
L 2844 1694 
L 3413 1694 
L 3413 922 
L 2844 922 
L 2844 0 
L 1994 0 
z
M 1994 1694 
L 1994 3259 
L 941 1694 
L 1994 1694 
z
" transform="scale(0.015625)"/>
      <path id="Arial-BoldMT-31" d="M 2519 0 
L 1641 0 
L 1641 3309 
Q 1159 2859 506 2644 
L 506 3441 
Q 850 3553 1253 3867 
Q 1656 4181 1806 4600 
L 2519 4600 
L 2519 0 
z
" transform="scale(0.015625)"/>
      <path id="Arial-BoldMT-2e" d="M 459 0 
L 459 878 
L 1338 878 
L 1338 0 
L 459 0 
z
" transform="scale(0.015625)"/>
     </defs>
     <use xlink:href="#Arial-BoldMT-34"/>
     <use xlink:href="#Arial-BoldMT-31" transform="translate(55.615234 0)"/>
     <use xlink:href="#Arial-BoldMT-2e" transform="translate(111.230469 0)"/>
     <use xlink:href="#Arial-BoldMT-34" transform="translate(139.013672 0)"/>
    </g>
   </g>
   <g id="text_13">
    <!-- 41.4 -->
    <g style="fill: #262626" transform="translate(295.668394 385.772625) scale(0.08 -0.08)">
     <use xlink:href="#Arial-BoldMT-34"/>
     <use xlink:href="#Arial-BoldMT-31" transform="translate(55.615234 0)"/>
     <use xlink:href="#Arial-BoldMT-2e" transform="translate(111.230469 0)"/>
     <use xlink:href="#Arial-BoldMT-34" transform="translate(139.013672 0)"/>
    </g>
   </g>
   <g id="text_14">
    <!-- 41.4 -->
    <g style="fill: #262626" transform="translate(463.686354 385.721531) scale(0.08 -0.08)">
     <use xlink:href="#Arial-BoldMT-34"/>
     <use xlink:href="#Arial-BoldMT-31" transform="translate(55.615234 0)"/>
     <use xlink:href="#Arial-BoldMT-2e" transform="translate(111.230469 0)"/>
     <use xlink:href="#Arial-BoldMT-34" transform="translate(139.013672 0)"/>
    </g>
   </g>
   <g id="text_15">
    <!-- 131.9 -->
    <g style="fill: #262626" transform="translate(125.42606 265.577838) scale(0.08 -0.08)">
     <defs>
      <path id="Arial-BoldMT-33" d="M 241 1216 
L 1091 1319 
Q 1131 994 1309 822 
Q 1488 650 1741 650 
Q 2013 650 2198 856 
Q 2384 1063 2384 1413 
Q 2384 1744 2206 1937 
Q 2028 2131 1772 2131 
Q 1603 2131 1369 2066 
L 1466 2781 
Q 1822 2772 2009 2936 
Q 2197 3100 2197 3372 
Q 2197 3603 2059 3740 
Q 1922 3878 1694 3878 
Q 1469 3878 1309 3722 
Q 1150 3566 1116 3266 
L 306 3403 
Q 391 3819 561 4067 
Q 731 4316 1036 4458 
Q 1341 4600 1719 4600 
Q 2366 4600 2756 4188 
Q 3078 3850 3078 3425 
Q 3078 2822 2419 2463 
Q 2813 2378 3048 2084 
Q 3284 1791 3284 1375 
Q 3284 772 2843 347 
Q 2403 -78 1747 -78 
Q 1125 -78 715 280 
Q 306 638 241 1216 
z
" transform="scale(0.015625)"/>
      <path id="Arial-BoldMT-39" d="M 291 1059 
L 1141 1153 
Q 1172 894 1303 769 
Q 1434 644 1650 644 
Q 1922 644 2112 894 
Q 2303 1144 2356 1931 
Q 2025 1547 1528 1547 
Q 988 1547 595 1964 
Q 203 2381 203 3050 
Q 203 3747 617 4173 
Q 1031 4600 1672 4600 
Q 2369 4600 2816 4061 
Q 3263 3522 3263 2288 
Q 3263 1031 2797 475 
Q 2331 -81 1584 -81 
Q 1047 -81 715 205 
Q 384 491 291 1059 
z
M 2278 2978 
Q 2278 3403 2083 3637 
Q 1888 3872 1631 3872 
Q 1388 3872 1227 3680 
Q 1066 3488 1066 3050 
Q 1066 2606 1241 2398 
Q 1416 2191 1678 2191 
Q 1931 2191 2104 2391 
Q 2278 2591 2278 2978 
z
" transform="scale(0.015625)"/>
     </defs>
     <use xlink:href="#Arial-BoldMT-31"/>
     <use xlink:href="#Arial-BoldMT-33" transform="translate(55.615234 0)"/>
     <use xlink:href="#Arial-BoldMT-31" transform="translate(111.230469 0)"/>
     <use xlink:href="#Arial-BoldMT-2e" transform="translate(166.845703 0)"/>
     <use xlink:href="#Arial-BoldMT-39" transform="translate(194.628906 0)"/>
    </g>
   </g>
   <g id="text_16">
    <!-- 131.8 -->
    <g style="fill: #262626" transform="translate(293.444019 265.717071) scale(0.08 -0.08)">
     <defs>
      <path id="Arial-BoldMT-38" d="M 1025 2472 
Q 684 2616 529 2867 
Q 375 3119 375 3419 
Q 375 3931 733 4265 
Q 1091 4600 1750 4600 
Q 2403 4600 2764 4265 
Q 3125 3931 3125 3419 
Q 3125 3100 2959 2851 
Q 2794 2603 2494 2472 
Q 2875 2319 3073 2025 
Q 3272 1731 3272 1347 
Q 3272 713 2867 316 
Q 2463 -81 1791 -81 
Q 1166 -81 750 247 
Q 259 634 259 1309 
Q 259 1681 443 1992 
Q 628 2303 1025 2472 
z
M 1206 3356 
Q 1206 3094 1354 2947 
Q 1503 2800 1750 2800 
Q 2000 2800 2150 2948 
Q 2300 3097 2300 3359 
Q 2300 3606 2151 3754 
Q 2003 3903 1759 3903 
Q 1506 3903 1356 3753 
Q 1206 3603 1206 3356 
z
M 1125 1394 
Q 1125 1031 1311 828 
Q 1497 625 1775 625 
Q 2047 625 2225 820 
Q 2403 1016 2403 1384 
Q 2403 1706 2222 1901 
Q 2041 2097 1763 2097 
Q 1441 2097 1283 1875 
Q 1125 1653 1125 1394 
z
" transform="scale(0.015625)"/>
     </defs>
     <use xlink:href="#Arial-BoldMT-31"/>
     <use xlink:href="#Arial-BoldMT-33" transform="translate(55.615234 0)"/>
     <use xlink:href="#Arial-BoldMT-31" transform="translate(111.230469 0)"/>
     <use xlink:href="#Arial-BoldMT-2e" transform="translate(166.845703 0)"/>
     <use xlink:href="#Arial-BoldMT-38" transform="translate(194.628906 0)"/>
    </g>
   </g>
   <g id="text_17">
    <!-- 131.9 -->
    <g style="fill: #262626" transform="translate(461.461979 265.568355) scale(0.08 -0.08)">
     <use xlink:href="#Arial-BoldMT-31"/>
     <use xlink:href="#Arial-BoldMT-33" transform="translate(55.615234 0)"/>
     <use xlink:href="#Arial-BoldMT-31" transform="translate(111.230469 0)"/>
     <use xlink:href="#Arial-BoldMT-2e" transform="translate(166.845703 0)"/>
     <use xlink:href="#Arial-BoldMT-39" transform="translate(194.628906 0)"/>
    </g>
   </g>
   <g id="text_18">
    <!-- 70.2 -->
    <g style="fill: #262626" transform="translate(127.650435 125.526901) scale(0.08 -0.08)">
     <defs>
      <path id="Arial-BoldMT-37" d="M 272 3703 
L 272 4519 
L 3275 4519 
L 3275 3881 
Q 2903 3516 2518 2831 
Q 2134 2147 1932 1376 
Q 1731 606 1734 0 
L 888 0 
Q 909 950 1279 1937 
Q 1650 2925 2269 3703 
L 272 3703 
z
" transform="scale(0.015625)"/>
      <path id="Arial-BoldMT-30" d="M 1756 4600 
Q 2422 4600 2797 4125 
Q 3244 3563 3244 2259 
Q 3244 959 2794 391 
Q 2422 -78 1756 -78 
Q 1088 -78 678 436 
Q 269 950 269 2269 
Q 269 3563 719 4131 
Q 1091 4600 1756 4600 
z
M 1756 3872 
Q 1597 3872 1472 3770 
Q 1347 3669 1278 3406 
Q 1188 3066 1188 2259 
Q 1188 1453 1269 1151 
Q 1350 850 1473 750 
Q 1597 650 1756 650 
Q 1916 650 2041 751 
Q 2166 853 2234 1116 
Q 2325 1453 2325 2259 
Q 2325 3066 2244 3367 
Q 2163 3669 2039 3770 
Q 1916 3872 1756 3872 
z
" transform="scale(0.015625)"/>
      <path id="Arial-BoldMT-32" d="M 3238 816 
L 3238 0 
L 159 0 
Q 209 463 459 877 
Q 709 1291 1447 1975 
Q 2041 2528 2175 2725 
Q 2356 2997 2356 3263 
Q 2356 3556 2198 3714 
Q 2041 3872 1763 3872 
Q 1488 3872 1325 3706 
Q 1163 3541 1138 3156 
L 263 3244 
Q 341 3969 753 4284 
Q 1166 4600 1784 4600 
Q 2463 4600 2850 4234 
Q 3238 3869 3238 3325 
Q 3238 3016 3127 2736 
Q 3016 2456 2775 2150 
Q 2616 1947 2200 1565 
Q 1784 1184 1673 1059 
Q 1563 934 1494 816 
L 3238 816 
z
" transform="scale(0.015625)"/>
     </defs>
     <use xlink:href="#Arial-BoldMT-37"/>
     <use xlink:href="#Arial-BoldMT-30" transform="translate(55.615234 0)"/>
     <use xlink:href="#Arial-BoldMT-2e" transform="translate(111.230469 0)"/>
     <use xlink:href="#Arial-BoldMT-32" transform="translate(139.013672 0)"/>
    </g>
   </g>
   <g id="text_19">
    <!-- 70.1 -->
    <g style="fill: #262626" transform="translate(295.668394 125.734003) scale(0.08 -0.08)">
     <use xlink:href="#Arial-BoldMT-37"/>
     <use xlink:href="#Arial-BoldMT-30" transform="translate(55.615234 0)"/>
     <use xlink:href="#Arial-BoldMT-2e" transform="translate(111.230469 0)"/>
     <use xlink:href="#Arial-BoldMT-31" transform="translate(139.013672 0)"/>
    </g>
   </g>
   <g id="text_20">
    <!-- 70.2 -->
    <g style="fill: #262626" transform="translate(463.686354 125.508388) scale(0.08 -0.08)">
     <use xlink:href="#Arial-BoldMT-37"/>
     <use xlink:href="#Arial-BoldMT-30" transform="translate(55.615234 0)"/>
     <use xlink:href="#Arial-BoldMT-2e" transform="translate(111.230469 0)"/>
     <use xlink:href="#Arial-BoldMT-32" transform="translate(139.013672 0)"/>
    </g>
   </g>
   <g id="text_21">
    <!-- 12.8 -->
    <g style="fill: #262626" transform="translate(127.650435 68.005067) scale(0.08 -0.08)">
     <use xlink:href="#Arial-BoldMT-31"/>
     <use xlink:href="#Arial-BoldMT-32" transform="translate(55.615234 0)"/>
     <use xlink:href="#Arial-BoldMT-2e" transform="translate(111.230469 0)"/>
     <use xlink:href="#Arial-BoldMT-38" transform="translate(139.013672 0)"/>
    </g>
   </g>
   <g id="text_22">
    <!-- 12.8 -->
    <g style="fill: #262626" transform="translate(295.668394 68.259875) scale(0.08 -0.08)">
     <use xlink:href="#Arial-BoldMT-31"/>
     <use xlink:href="#Arial-BoldMT-32" transform="translate(55.615234 0)"/>
     <use xlink:href="#Arial-BoldMT-2e" transform="translate(111.230469 0)"/>
     <use xlink:href="#Arial-BoldMT-38" transform="translate(139.013672 0)"/>
    </g>
   </g>
   <g id="text_23">
    <!-- 12.8 -->
    <g style="fill: #262626" transform="translate(463.686354 67.983502) scale(0.08 -0.08)">
     <use xlink:href="#Arial-BoldMT-31"/>
     <use xlink:href="#Arial-BoldMT-32" transform="translate(55.615234 0)"/>
     <use xlink:href="#Arial-BoldMT-2e" transform="translate(111.230469 0)"/>
     <use xlink:href="#Arial-BoldMT-38" transform="translate(139.013672 0)"/>
    </g>
   </g>
   <g id="text_24">
    <!-- Consumer Costs by Type and Market Design -->
    <g style="fill: #262626" transform="translate(144.421519 33.2475) scale(0.16 -0.16)">
     <defs>
      <path id="ArialMT-75" d="M 2597 0 
L 2597 488 
Q 2209 -75 1544 -75 
Q 1250 -75 995 37 
Q 741 150 617 320 
Q 494 491 444 738 
Q 409 903 409 1263 
L 409 3319 
L 972 3319 
L 972 1478 
Q 972 1038 1006 884 
Q 1059 663 1231 536 
Q 1403 409 1656 409 
Q 1909 409 2131 539 
Q 2353 669 2445 892 
Q 2538 1116 2538 1541 
L 2538 3319 
L 3100 3319 
L 3100 0 
L 2597 0 
z
" transform="scale(0.015625)"/>
      <path id="ArialMT-6d" d="M 422 0 
L 422 3319 
L 925 3319 
L 925 2853 
Q 1081 3097 1340 3245 
Q 1600 3394 1931 3394 
Q 2300 3394 2536 3241 
Q 2772 3088 2869 2813 
Q 3263 3394 3894 3394 
Q 4388 3394 4653 3120 
Q 4919 2847 4919 2278 
L 4919 0 
L 4359 0 
L 4359 2091 
Q 4359 2428 4304 2576 
Q 4250 2725 4106 2815 
Q 3963 2906 3769 2906 
Q 3419 2906 3187 2673 
Q 2956 2441 2956 1928 
L 2956 0 
L 2394 0 
L 2394 2156 
Q 2394 2531 2256 2718 
Q 2119 2906 1806 2906 
Q 1569 2906 1367 2781 
Q 1166 2656 1075 2415 
Q 984 2175 984 1722 
L 984 0 
L 422 0 
z
" transform="scale(0.015625)"/>
      <path id="ArialMT-62" d="M 941 0 
L 419 0 
L 419 4581 
L 981 4581 
L 981 2947 
Q 1338 3394 1891 3394 
Q 2197 3394 2470 3270 
Q 2744 3147 2920 2923 
Q 3097 2700 3197 2384 
Q 3297 2069 3297 1709 
Q 3297 856 2875 390 
Q 2453 -75 1863 -75 
Q 1275 -75 941 416 
L 941 0 
z
M 934 1684 
Q 934 1088 1097 822 
Q 1363 388 1816 388 
Q 2184 388 2453 708 
Q 2722 1028 2722 1663 
Q 2722 2313 2464 2622 
Q 2206 2931 1841 2931 
Q 1472 2931 1203 2611 
Q 934 2291 934 1684 
z
" transform="scale(0.015625)"/>
      <path id="ArialMT-54" d="M 1659 0 
L 1659 4041 
L 150 4041 
L 150 4581 
L 3781 4581 
L 3781 4041 
L 2266 4041 
L 2266 0 
L 1659 0 
z
" transform="scale(0.015625)"/>
      <path id="ArialMT-70" d="M 422 -1272 
L 422 3319 
L 934 3319 
L 934 2888 
Q 1116 3141 1344 3267 
Q 1572 3394 1897 3394 
Q 2322 3394 2647 3175 
Q 2972 2956 3137 2557 
Q 3303 2159 3303 1684 
Q 3303 1175 3120 767 
Q 2938 359 2589 142 
Q 2241 -75 1856 -75 
Q 1575 -75 1351 44 
Q 1128 163 984 344 
L 984 -1272 
L 422 -1272 
z
M 931 1641 
Q 931 1000 1190 694 
Q 1450 388 1819 388 
Q 2194 388 2461 705 
Q 2728 1022 2728 1688 
Q 2728 2322 2467 2637 
Q 2206 2953 1844 2953 
Q 1484 2953 1207 2617 
Q 931 2281 931 1641 
z
" transform="scale(0.015625)"/>
     </defs>
     <use xlink:href="#ArialMT-43"/>
     <use xlink:href="#ArialMT-6f" transform="translate(72.216797 0)"/>
     <use xlink:href="#ArialMT-6e" transform="translate(127.832031 0)"/>
     <use xlink:href="#ArialMT-73" transform="translate(183.447266 0)"/>
     <use xlink:href="#ArialMT-75" transform="translate(233.447266 0)"/>
     <use xlink:href="#ArialMT-6d" transform="translate(289.0625 0)"/>
     <use xlink:href="#ArialMT-65" transform="translate(372.363281 0)"/>
     <use xlink:href="#ArialMT-72" transform="translate(427.978516 0)"/>
     <use xlink:href="#ArialMT-20" transform="translate(461.279297 0)"/>
     <use xlink:href="#ArialMT-43" transform="translate(489.0625 0)"/>
     <use xlink:href="#ArialMT-6f" transform="translate(561.279297 0)"/>
     <use xlink:href="#ArialMT-73" transform="translate(616.894531 0)"/>
     <use xlink:href="#ArialMT-74" transform="translate(666.894531 0)"/>
     <use xlink:href="#ArialMT-73" transform="translate(694.677734 0)"/>
     <use xlink:href="#ArialMT-20" transform="translate(744.677734 0)"/>
     <use xlink:href="#ArialMT-62" transform="translate(772.460938 0)"/>
     <use xlink:href="#ArialMT-79" transform="translate(828.076172 0)"/>
     <use xlink:href="#ArialMT-20" transform="translate(878.076172 0)"/>
     <use xlink:href="#ArialMT-54" transform="translate(904.109375 0)"/>
     <use xlink:href="#ArialMT-79" transform="translate(959.693359 0)"/>
     <use xlink:href="#ArialMT-70" transform="translate(1009.693359 0)"/>
     <use xlink:href="#ArialMT-65" transform="translate(1065.308594 0)"/>
     <use xlink:href="#ArialMT-20" transform="translate(1120.923828 0)"/>
     <use xlink:href="#ArialMT-61" transform="translate(1148.707031 0)"/>
     <use xlink:href="#ArialMT-6e" transform="translate(1204.322266 0)"/>
     <use xlink:href="#ArialMT-64" transform="translate(1259.9375 0)"/>
     <use xlink:href="#ArialMT-20" transform="translate(1315.552734 0)"/>
     <use xlink:href="#ArialMT-4d" transform="translate(1343.335938 0)"/>
     <use xlink:href="#ArialMT-61" transform="translate(1426.636719 0)"/>
     <use xlink:href="#ArialMT-72" transform="translate(1482.251953 0)"/>
     <use xlink:href="#ArialMT-6b" transform="translate(1515.552734 0)"/>
     <use xlink:href="#ArialMT-65" transform="translate(1565.552734 0)"/>
     <use xlink:href="#ArialMT-74" transform="translate(1621.167969 0)"/>
     <use xlink:href="#ArialMT-20" transform="translate(1648.951172 0)"/>
     <use xlink:href="#ArialMT-44" transform="translate(1676.734375 0)"/>
     <use xlink:href="#ArialMT-65" transform="translate(1748.951172 0)"/>
     <use xlink:href="#ArialMT-73" transform="translate(1804.566406 0)"/>
     <use xlink:href="#ArialMT-69" transform="translate(1854.566406 0)"/>
     <use xlink:href="#ArialMT-67" transform="translate(1876.783203 0)"/>
     <use xlink:href="#ArialMT-6e" transform="translate(1932.398438 0)"/>
    </g>
   </g>
   <g id="legend_1">
    <g id="patch_19">
     <path d="M 576.745019 55.405313 
L 596.745019 55.405313 
L 596.745019 48.405313 
L 576.745019 48.405313 
z
" style="fill: #4169e1; opacity: 0.8; stroke: #ffffff; stroke-width: 0.5; stroke-linejoin: miter"/>
    </g>
    <g id="text_25">
     <!-- LV_MED - Energy -->
     <g style="fill: #262626" transform="translate(604.745019 55.405313) scale(0.1 -0.1)">
      <defs>
       <path id="ArialMT-4c" d="M 469 0 
L 469 4581 
L 1075 4581 
L 1075 541 
L 3331 541 
L 3331 0 
L 469 0 
z
" transform="scale(0.015625)"/>
       <path id="ArialMT-5f" d="M -97 -1272 
L -97 -866 
L 3631 -866 
L 3631 -1272 
L -97 -1272 
z
" transform="scale(0.015625)"/>
       <path id="ArialMT-2d" d="M 203 1375 
L 203 1941 
L 1931 1941 
L 1931 1375 
L 203 1375 
z
" transform="scale(0.015625)"/>
      </defs>
      <use xlink:href="#ArialMT-4c"/>
      <use xlink:href="#ArialMT-56" transform="translate(48.240234 0)"/>
      <use xlink:href="#ArialMT-5f" transform="translate(114.939453 0)"/>
      <use xlink:href="#ArialMT-4d" transform="translate(170.554688 0)"/>
      <use xlink:href="#ArialMT-45" transform="translate(253.855469 0)"/>
      <use xlink:href="#ArialMT-44" transform="translate(320.554688 0)"/>
      <use xlink:href="#ArialMT-20" transform="translate(392.771484 0)"/>
      <use xlink:href="#ArialMT-2d" transform="translate(420.554688 0)"/>
      <use xlink:href="#ArialMT-20" transform="translate(453.855469 0)"/>
      <use xlink:href="#ArialMT-45" transform="translate(481.638672 0)"/>
      <use xlink:href="#ArialMT-6e" transform="translate(548.337891 0)"/>
      <use xlink:href="#ArialMT-65" transform="translate(603.953125 0)"/>
      <use xlink:href="#ArialMT-72" transform="translate(659.568359 0)"/>
      <use xlink:href="#ArialMT-67" transform="translate(692.869141 0)"/>
      <use xlink:href="#ArialMT-79" transform="translate(748.484375 0)"/>
     </g>
    </g>
    <g id="patch_20">
     <path d="M 576.745019 69.795938 
L 596.745019 69.795938 
L 596.745019 62.795938 
L 576.745019 62.795938 
z
" style="fill: #8b0000; opacity: 0.8; stroke: #ffffff; stroke-width: 0.5; stroke-linejoin: miter"/>
    </g>
    <g id="text_26">
     <!-- MV_LOAD - Energy -->
     <g style="fill: #262626" transform="translate(604.745019 69.795938) scale(0.1 -0.1)">
      <use xlink:href="#ArialMT-4d"/>
      <use xlink:href="#ArialMT-56" transform="translate(83.300781 0)"/>
      <use xlink:href="#ArialMT-5f" transform="translate(150 0)"/>
      <use xlink:href="#ArialMT-4c" transform="translate(205.615234 0)"/>
      <use xlink:href="#ArialMT-4f" transform="translate(261.230469 0)"/>
      <use xlink:href="#ArialMT-41" transform="translate(339.013672 0)"/>
      <use xlink:href="#ArialMT-44" transform="translate(405.712891 0)"/>
      <use xlink:href="#ArialMT-20" transform="translate(477.929688 0)"/>
      <use xlink:href="#ArialMT-2d" transform="translate(505.712891 0)"/>
      <use xlink:href="#ArialMT-20" transform="translate(539.013672 0)"/>
      <use xlink:href="#ArialMT-45" transform="translate(566.796875 0)"/>
      <use xlink:href="#ArialMT-6e" transform="translate(633.496094 0)"/>
      <use xlink:href="#ArialMT-65" transform="translate(689.111328 0)"/>
      <use xlink:href="#ArialMT-72" transform="translate(744.726562 0)"/>
      <use xlink:href="#ArialMT-67" transform="translate(778.027344 0)"/>
      <use xlink:href="#ArialMT-79" transform="translate(833.642578 0)"/>
     </g>
    </g>
    <g id="patch_21">
     <path d="M 576.745019 84.180313 
L 596.745019 84.180313 
L 596.745019 77.180313 
L 576.745019 77.180313 
z
" style="fill: #191970; opacity: 0.8; stroke: #ffffff; stroke-width: 0.5; stroke-linejoin: miter"/>
    </g>
    <g id="text_27">
     <!-- LV_HIGH - Energy -->
     <g style="fill: #262626" transform="translate(604.745019 84.180313) scale(0.1 -0.1)">
      <defs>
       <path id="ArialMT-48" d="M 513 0 
L 513 4581 
L 1119 4581 
L 1119 2700 
L 3500 2700 
L 3500 4581 
L 4106 4581 
L 4106 0 
L 3500 0 
L 3500 2159 
L 1119 2159 
L 1119 0 
L 513 0 
z
" transform="scale(0.015625)"/>
       <path id="ArialMT-49" d="M 597 0 
L 597 4581 
L 1203 4581 
L 1203 0 
L 597 0 
z
" transform="scale(0.015625)"/>
       <path id="ArialMT-47" d="M 2638 1797 
L 2638 2334 
L 4578 2338 
L 4578 638 
Q 4131 281 3656 101 
Q 3181 -78 2681 -78 
Q 2006 -78 1454 211 
Q 903 500 622 1047 
Q 341 1594 341 2269 
Q 341 2938 620 3517 
Q 900 4097 1425 4378 
Q 1950 4659 2634 4659 
Q 3131 4659 3532 4498 
Q 3934 4338 4162 4050 
Q 4391 3763 4509 3300 
L 3963 3150 
Q 3859 3500 3706 3700 
Q 3553 3900 3268 4020 
Q 2984 4141 2638 4141 
Q 2222 4141 1919 4014 
Q 1616 3888 1430 3681 
Q 1244 3475 1141 3228 
Q 966 2803 966 2306 
Q 966 1694 1177 1281 
Q 1388 869 1791 669 
Q 2194 469 2647 469 
Q 3041 469 3416 620 
Q 3791 772 3984 944 
L 3984 1797 
L 2638 1797 
z
" transform="scale(0.015625)"/>
      </defs>
      <use xlink:href="#ArialMT-4c"/>
      <use xlink:href="#ArialMT-56" transform="translate(48.240234 0)"/>
      <use xlink:href="#ArialMT-5f" transform="translate(114.939453 0)"/>
      <use xlink:href="#ArialMT-48" transform="translate(170.554688 0)"/>
      <use xlink:href="#ArialMT-49" transform="translate(242.771484 0)"/>
      <use xlink:href="#ArialMT-47" transform="translate(270.554688 0)"/>
      <use xlink:href="#ArialMT-48" transform="translate(348.337891 0)"/>
      <use xlink:href="#ArialMT-20" transform="translate(420.554688 0)"/>
      <use xlink:href="#ArialMT-2d" transform="translate(448.337891 0)"/>
      <use xlink:href="#ArialMT-20" transform="translate(481.638672 0)"/>
      <use xlink:href="#ArialMT-45" transform="translate(509.421875 0)"/>
      <use xlink:href="#ArialMT-6e" transform="translate(576.121094 0)"/>
      <use xlink:href="#ArialMT-65" transform="translate(631.736328 0)"/>
      <use xlink:href="#ArialMT-72" transform="translate(687.351562 0)"/>
      <use xlink:href="#ArialMT-67" transform="translate(720.652344 0)"/>
      <use xlink:href="#ArialMT-79" transform="translate(776.267578 0)"/>
     </g>
    </g>
    <g id="patch_22">
     <path d="M 576.745019 98.570938 
L 596.745019 98.570938 
L 596.745019 91.570938 
L 576.745019 91.570938 
z
" style="fill: #87ceeb; opacity: 0.8; stroke: #ffffff; stroke-width: 0.5; stroke-linejoin: miter"/>
    </g>
    <g id="text_28">
     <!-- LV_LOW - Energy -->
     <g style="fill: #262626" transform="translate(604.745019 98.570938) scale(0.1 -0.1)">
      <defs>
       <path id="ArialMT-57" d="M 1294 0 
L 78 4581 
L 700 4581 
L 1397 1578 
Q 1509 1106 1591 641 
Q 1766 1375 1797 1488 
L 2669 4581 
L 3400 4581 
L 4056 2263 
Q 4303 1400 4413 641 
Q 4500 1075 4641 1638 
L 5359 4581 
L 5969 4581 
L 4713 0 
L 4128 0 
L 3163 3491 
Q 3041 3928 3019 4028 
Q 2947 3713 2884 3491 
L 1913 0 
L 1294 0 
z
" transform="scale(0.015625)"/>
      </defs>
      <use xlink:href="#ArialMT-4c"/>
      <use xlink:href="#ArialMT-56" transform="translate(48.240234 0)"/>
      <use xlink:href="#ArialMT-5f" transform="translate(114.939453 0)"/>
      <use xlink:href="#ArialMT-4c" transform="translate(170.554688 0)"/>
      <use xlink:href="#ArialMT-4f" transform="translate(226.169922 0)"/>
      <use xlink:href="#ArialMT-57" transform="translate(303.953125 0)"/>
      <use xlink:href="#ArialMT-20" transform="translate(398.337891 0)"/>
      <use xlink:href="#ArialMT-2d" transform="translate(426.121094 0)"/>
      <use xlink:href="#ArialMT-20" transform="translate(459.421875 0)"/>
      <use xlink:href="#ArialMT-45" transform="translate(487.205078 0)"/>
      <use xlink:href="#ArialMT-6e" transform="translate(553.904297 0)"/>
      <use xlink:href="#ArialMT-65" transform="translate(609.519531 0)"/>
      <use xlink:href="#ArialMT-72" transform="translate(665.134766 0)"/>
      <use xlink:href="#ArialMT-67" transform="translate(698.435547 0)"/>
      <use xlink:href="#ArialMT-79" transform="translate(754.050781 0)"/>
     </g>
    </g>
   </g>
  </g>
  <g id="axes_2">
   <g id="patch_23">
    <path d="M 774.105724 412.371432 
L 1254.637088 412.371432 
L 1254.637088 39.2475 
L 774.105724 39.2475 
z
" style="fill: #ffffff"/>
   </g>
   <g id="matplotlib.axis_3">
    <g id="xtick_4">
     <g id="line2d_19">
      <path d="M 846.353446 412.371432 
L 846.353446 39.2475 
" clip-path="url(#p117e733eff)" style="fill: none; stroke: #cccccc; stroke-width: 0.8; stroke-linecap: round"/>
     </g>
     <g id="line2d_20">
      <g>
       <use xlink:href="#md8f68c0365" x="846.353446" y="412.371432" style="fill: #262626; stroke: #262626"/>
      </g>
     </g>
     <g id="text_29">
      <!-- 3.EOM El.+ CVAR -->
      <g style="fill: #262626" transform="translate(814.083524 495.672039) rotate(-45) scale(0.12 -0.12)">
       <use xlink:href="#ArialMT-33"/>
       <use xlink:href="#ArialMT-2e" transform="translate(55.615234 0)"/>
       <use xlink:href="#ArialMT-45" transform="translate(83.398438 0)"/>
       <use xlink:href="#ArialMT-4f" transform="translate(150.097656 0)"/>
       <use xlink:href="#ArialMT-4d" transform="translate(227.880859 0)"/>
       <use xlink:href="#ArialMT-20" transform="translate(311.181641 0)"/>
       <use xlink:href="#ArialMT-45" transform="translate(338.964844 0)"/>
       <use xlink:href="#ArialMT-6c" transform="translate(405.664062 0)"/>
       <use xlink:href="#ArialMT-2e" transform="translate(427.880859 0)"/>
       <use xlink:href="#ArialMT-2b" transform="translate(455.664062 0)"/>
       <use xlink:href="#ArialMT-20" transform="translate(514.0625 0)"/>
       <use xlink:href="#ArialMT-43" transform="translate(541.845703 0)"/>
       <use xlink:href="#ArialMT-56" transform="translate(614.0625 0)"/>
       <use xlink:href="#ArialMT-41" transform="translate(673.386719 0)"/>
       <use xlink:href="#ArialMT-52" transform="translate(740.085938 0)"/>
      </g>
     </g>
    </g>
    <g id="xtick_5">
     <g id="line2d_21">
      <path d="M 1014.371406 412.371432 
L 1014.371406 39.2475 
" clip-path="url(#p117e733eff)" style="fill: none; stroke: #cccccc; stroke-width: 0.8; stroke-linecap: round"/>
     </g>
     <g id="line2d_22">
      <g>
       <use xlink:href="#md8f68c0365" x="1014.371406" y="412.371432" style="fill: #262626; stroke: #262626"/>
      </g>
     </g>
     <g id="text_30">
      <!-- 5.EOM El.+ CM+ CVAR -->
      <g style="fill: #262626" transform="translate(971.846888 516.181229) rotate(-45) scale(0.12 -0.12)">
       <use xlink:href="#ArialMT-35"/>
       <use xlink:href="#ArialMT-2e" transform="translate(55.615234 0)"/>
       <use xlink:href="#ArialMT-45" transform="translate(83.398438 0)"/>
       <use xlink:href="#ArialMT-4f" transform="translate(150.097656 0)"/>
       <use xlink:href="#ArialMT-4d" transform="translate(227.880859 0)"/>
       <use xlink:href="#ArialMT-20" transform="translate(311.181641 0)"/>
       <use xlink:href="#ArialMT-45" transform="translate(338.964844 0)"/>
       <use xlink:href="#ArialMT-6c" transform="translate(405.664062 0)"/>
       <use xlink:href="#ArialMT-2e" transform="translate(427.880859 0)"/>
       <use xlink:href="#ArialMT-2b" transform="translate(455.664062 0)"/>
       <use xlink:href="#ArialMT-20" transform="translate(514.0625 0)"/>
       <use xlink:href="#ArialMT-43" transform="translate(541.845703 0)"/>
       <use xlink:href="#ArialMT-4d" transform="translate(614.0625 0)"/>
       <use xlink:href="#ArialMT-2b" transform="translate(697.363281 0)"/>
       <use xlink:href="#ArialMT-20" transform="translate(755.761719 0)"/>
       <use xlink:href="#ArialMT-43" transform="translate(783.544922 0)"/>
       <use xlink:href="#ArialMT-56" transform="translate(855.761719 0)"/>
       <use xlink:href="#ArialMT-41" transform="translate(915.085938 0)"/>
       <use xlink:href="#ArialMT-52" transform="translate(981.785156 0)"/>
      </g>
     </g>
    </g>
    <g id="xtick_6">
     <g id="line2d_23">
      <path d="M 1182.389365 412.371432 
L 1182.389365 39.2475 
" clip-path="url(#p117e733eff)" style="fill: none; stroke: #cccccc; stroke-width: 0.8; stroke-linecap: round"/>
     </g>
     <g id="line2d_24">
      <g>
       <use xlink:href="#md8f68c0365" x="1182.389365" y="412.371432" style="fill: #262626; stroke: #262626"/>
      </g>
     </g>
     <g id="text_31">
      <!-- 7.EOM El.+ RO+ CVAR -->
      <g style="fill: #262626" transform="translate(1140.098855 515.713212) rotate(-45) scale(0.12 -0.12)">
       <use xlink:href="#ArialMT-37"/>
       <use xlink:href="#ArialMT-2e" transform="translate(55.615234 0)"/>
       <use xlink:href="#ArialMT-45" transform="translate(83.398438 0)"/>
       <use xlink:href="#ArialMT-4f" transform="translate(150.097656 0)"/>
       <use xlink:href="#ArialMT-4d" transform="translate(227.880859 0)"/>
       <use xlink:href="#ArialMT-20" transform="translate(311.181641 0)"/>
       <use xlink:href="#ArialMT-45" transform="translate(338.964844 0)"/>
       <use xlink:href="#ArialMT-6c" transform="translate(405.664062 0)"/>
       <use xlink:href="#ArialMT-2e" transform="translate(427.880859 0)"/>
       <use xlink:href="#ArialMT-2b" transform="translate(455.664062 0)"/>
       <use xlink:href="#ArialMT-20" transform="translate(514.0625 0)"/>
       <use xlink:href="#ArialMT-52" transform="translate(541.845703 0)"/>
       <use xlink:href="#ArialMT-4f" transform="translate(614.0625 0)"/>
       <use xlink:href="#ArialMT-2b" transform="translate(691.845703 0)"/>
       <use xlink:href="#ArialMT-20" transform="translate(750.244141 0)"/>
       <use xlink:href="#ArialMT-43" transform="translate(778.027344 0)"/>
       <use xlink:href="#ArialMT-56" transform="translate(850.244141 0)"/>
       <use xlink:href="#ArialMT-41" transform="translate(909.568359 0)"/>
       <use xlink:href="#ArialMT-52" transform="translate(976.267578 0)"/>
      </g>
     </g>
    </g>
    <g id="text_32">
     <!-- Market Design -->
     <g style="fill: #262626" transform="translate(969.246562 531.888616) scale(0.14 -0.14)">
      <use xlink:href="#ArialMT-4d"/>
      <use xlink:href="#ArialMT-61" transform="translate(83.300781 0)"/>
      <use xlink:href="#ArialMT-72" transform="translate(138.916016 0)"/>
      <use xlink:href="#ArialMT-6b" transform="translate(172.216797 0)"/>
      <use xlink:href="#ArialMT-65" transform="translate(222.216797 0)"/>
      <use xlink:href="#ArialMT-74" transform="translate(277.832031 0)"/>
      <use xlink:href="#ArialMT-20" transform="translate(305.615234 0)"/>
      <use xlink:href="#ArialMT-44" transform="translate(333.398438 0)"/>
      <use xlink:href="#ArialMT-65" transform="translate(405.615234 0)"/>
      <use xlink:href="#ArialMT-73" transform="translate(461.230469 0)"/>
      <use xlink:href="#ArialMT-69" transform="translate(511.230469 0)"/>
      <use xlink:href="#ArialMT-67" transform="translate(533.447266 0)"/>
      <use xlink:href="#ArialMT-6e" transform="translate(589.0625 0)"/>
     </g>
    </g>
   </g>
   <g id="matplotlib.axis_4">
    <g id="ytick_7">
     <g id="line2d_25">
      <path d="M 774.105724 412.371432 
L 1254.637088 412.371432 
" clip-path="url(#p117e733eff)" style="fill: none; stroke: #cccccc; stroke-width: 0.8; stroke-linecap: round"/>
     </g>
     <g id="line2d_26">
      <g>
       <use xlink:href="#mf119b7c7bd" x="774.105724" y="412.371432" style="fill: #262626; stroke: #262626"/>
      </g>
     </g>
     <g id="text_33">
      <!-- 0 -->
      <g style="fill: #262626" transform="translate(760.422736 415.835813) scale(0.0968 -0.0968)">
       <use xlink:href="#ArialMT-30"/>
      </g>
     </g>
    </g>
    <g id="ytick_8">
     <g id="line2d_27">
      <path d="M 774.105724 343.382626 
L 1254.637088 343.382626 
" clip-path="url(#p117e733eff)" style="fill: none; stroke: #cccccc; stroke-width: 0.8; stroke-linecap: round"/>
     </g>
     <g id="line2d_28">
      <g>
       <use xlink:href="#mf119b7c7bd" x="774.105724" y="343.382626" style="fill: #262626; stroke: #262626"/>
      </g>
     </g>
     <g id="text_34">
      <!-- 500 -->
      <g style="fill: #262626" transform="translate(749.656761 346.847007) scale(0.0968 -0.0968)">
       <use xlink:href="#ArialMT-35"/>
       <use xlink:href="#ArialMT-30" transform="translate(55.615234 0)"/>
       <use xlink:href="#ArialMT-30" transform="translate(111.230469 0)"/>
      </g>
     </g>
    </g>
    <g id="ytick_9">
     <g id="line2d_29">
      <path d="M 774.105724 274.39382 
L 1254.637088 274.39382 
" clip-path="url(#p117e733eff)" style="fill: none; stroke: #cccccc; stroke-width: 0.8; stroke-linecap: round"/>
     </g>
     <g id="line2d_30">
      <g>
       <use xlink:href="#mf119b7c7bd" x="774.105724" y="274.39382" style="fill: #262626; stroke: #262626"/>
      </g>
     </g>
     <g id="text_35">
      <!-- 1000 -->
      <g style="fill: #262626" transform="translate(744.273774 277.858201) scale(0.0968 -0.0968)">
       <use xlink:href="#ArialMT-31"/>
       <use xlink:href="#ArialMT-30" transform="translate(55.615234 0)"/>
       <use xlink:href="#ArialMT-30" transform="translate(111.230469 0)"/>
       <use xlink:href="#ArialMT-30" transform="translate(166.845703 0)"/>
      </g>
     </g>
    </g>
    <g id="ytick_10">
     <g id="line2d_31">
      <path d="M 774.105724 205.405014 
L 1254.637088 205.405014 
" clip-path="url(#p117e733eff)" style="fill: none; stroke: #cccccc; stroke-width: 0.8; stroke-linecap: round"/>
     </g>
     <g id="line2d_32">
      <g>
       <use xlink:href="#mf119b7c7bd" x="774.105724" y="205.405014" style="fill: #262626; stroke: #262626"/>
      </g>
     </g>
     <g id="text_36">
      <!-- 1500 -->
      <g style="fill: #262626" transform="translate(744.273774 208.869395) scale(0.0968 -0.0968)">
       <use xlink:href="#ArialMT-31"/>
       <use xlink:href="#ArialMT-35" transform="translate(55.615234 0)"/>
       <use xlink:href="#ArialMT-30" transform="translate(111.230469 0)"/>
       <use xlink:href="#ArialMT-30" transform="translate(166.845703 0)"/>
      </g>
     </g>
    </g>
    <g id="ytick_11">
     <g id="line2d_33">
      <path d="M 774.105724 136.416208 
L 1254.637088 136.416208 
" clip-path="url(#p117e733eff)" style="fill: none; stroke: #cccccc; stroke-width: 0.8; stroke-linecap: round"/>
     </g>
     <g id="line2d_34">
      <g>
       <use xlink:href="#mf119b7c7bd" x="774.105724" y="136.416208" style="fill: #262626; stroke: #262626"/>
      </g>
     </g>
     <g id="text_37">
      <!-- 2000 -->
      <g style="fill: #262626" transform="translate(744.273774 139.880589) scale(0.0968 -0.0968)">
       <use xlink:href="#ArialMT-32"/>
       <use xlink:href="#ArialMT-30" transform="translate(55.615234 0)"/>
       <use xlink:href="#ArialMT-30" transform="translate(111.230469 0)"/>
       <use xlink:href="#ArialMT-30" transform="translate(166.845703 0)"/>
      </g>
     </g>
    </g>
    <g id="ytick_12">
     <g id="line2d_35">
      <path d="M 774.105724 67.427402 
L 1254.637088 67.427402 
" clip-path="url(#p117e733eff)" style="fill: none; stroke: #cccccc; stroke-width: 0.8; stroke-linecap: round"/>
     </g>
     <g id="line2d_36">
      <g>
       <use xlink:href="#mf119b7c7bd" x="774.105724" y="67.427402" style="fill: #262626; stroke: #262626"/>
      </g>
     </g>
     <g id="text_38">
      <!-- 2500 -->
      <g style="fill: #262626" transform="translate(744.273774 70.891783) scale(0.0968 -0.0968)">
       <use xlink:href="#ArialMT-32"/>
       <use xlink:href="#ArialMT-35" transform="translate(55.615234 0)"/>
       <use xlink:href="#ArialMT-30" transform="translate(111.230469 0)"/>
       <use xlink:href="#ArialMT-30" transform="translate(166.845703 0)"/>
      </g>
     </g>
    </g>
    <g id="text_39">
     <!-- Energy (GWh/12 days) -->
     <g style="fill: #262626" transform="translate(737.327211 296.998372) rotate(-90) scale(0.14 -0.14)">
      <defs>
       <path id="ArialMT-68" d="M 422 0 
L 422 4581 
L 984 4581 
L 984 2938 
Q 1378 3394 1978 3394 
Q 2347 3394 2619 3248 
Q 2891 3103 3008 2847 
Q 3125 2591 3125 2103 
L 3125 0 
L 2563 0 
L 2563 2103 
Q 2563 2525 2380 2717 
Q 2197 2909 1863 2909 
Q 1613 2909 1392 2779 
Q 1172 2650 1078 2428 
Q 984 2206 984 1816 
L 984 0 
L 422 0 
z
" transform="scale(0.015625)"/>
      </defs>
      <use xlink:href="#ArialMT-45"/>
      <use xlink:href="#ArialMT-6e" transform="translate(66.699219 0)"/>
      <use xlink:href="#ArialMT-65" transform="translate(122.314453 0)"/>
      <use xlink:href="#ArialMT-72" transform="translate(177.929688 0)"/>
      <use xlink:href="#ArialMT-67" transform="translate(211.230469 0)"/>
      <use xlink:href="#ArialMT-79" transform="translate(266.845703 0)"/>
      <use xlink:href="#ArialMT-20" transform="translate(316.845703 0)"/>
      <use xlink:href="#ArialMT-28" transform="translate(344.628906 0)"/>
      <use xlink:href="#ArialMT-47" transform="translate(377.929688 0)"/>
      <use xlink:href="#ArialMT-57" transform="translate(455.712891 0)"/>
      <use xlink:href="#ArialMT-68" transform="translate(550.097656 0)"/>
      <use xlink:href="#ArialMT-2f" transform="translate(605.712891 0)"/>
      <use xlink:href="#ArialMT-31" transform="translate(633.496094 0)"/>
      <use xlink:href="#ArialMT-32" transform="translate(689.111328 0)"/>
      <use xlink:href="#ArialMT-20" transform="translate(744.726562 0)"/>
      <use xlink:href="#ArialMT-64" transform="translate(772.509766 0)"/>
      <use xlink:href="#ArialMT-61" transform="translate(828.125 0)"/>
      <use xlink:href="#ArialMT-79" transform="translate(883.740234 0)"/>
      <use xlink:href="#ArialMT-73" transform="translate(933.740234 0)"/>
      <use xlink:href="#ArialMT-29" transform="translate(983.740234 0)"/>
     </g>
    </g>
   </g>
   <g id="patch_24">
    <path d="M 795.948059 412.371432 
L 896.758834 412.371432 
L 896.758834 83.260959 
L 795.948059 83.260959 
z
" clip-path="url(#p117e733eff)" style="fill: #add8e6; opacity: 0.8"/>
   </g>
   <g id="patch_25">
    <path d="M 963.966018 412.371432 
L 1064.776793 412.371432 
L 1064.776793 83.253681 
L 963.966018 83.253681 
z
" clip-path="url(#p117e733eff)" style="fill: #add8e6; opacity: 0.8"/>
   </g>
   <g id="patch_26">
    <path d="M 1131.983977 412.371432 
L 1232.794753 412.371432 
L 1232.794753 83.261539 
L 1131.983977 83.261539 
z
" clip-path="url(#p117e733eff)" style="fill: #add8e6; opacity: 0.8"/>
   </g>
   <g id="patch_27">
    <path d="M 795.948059 83.260959 
L 896.758834 83.260959 
L 896.758834 57.022585 
L 795.948059 57.022585 
z
" clip-path="url(#p117e733eff)" style="fill: #ffd700; opacity: 0.8"/>
   </g>
   <g id="patch_28">
    <path d="M 963.966018 83.253681 
L 1064.776793 83.253681 
L 1064.776793 57.015306 
L 963.966018 57.015306 
z
" clip-path="url(#p117e733eff)" style="fill: #ffd700; opacity: 0.8"/>
   </g>
   <g id="patch_29">
    <path d="M 1131.983977 83.261539 
L 1232.794753 83.261539 
L 1232.794753 57.023164 
L 1131.983977 57.023164 
z
" clip-path="url(#p117e733eff)" style="fill: #ffd700; opacity: 0.8"/>
   </g>
   <g id="line2d_37">
    <path d="M 846.353446 109.499327 
L 1014.371406 109.492044 
L 1182.389365 109.499905 
" clip-path="url(#p117e733eff)" style="fill: none; stroke: #ff0000; stroke-width: 3; stroke-linecap: round"/>
    <defs>
     <path id="mb2fdb61ac6" d="M 0 4 
C 1.060812 4 2.078319 3.578535 2.828427 2.828427 
C 3.578535 2.078319 4 1.060812 4 0 
C 4 -1.060812 3.578535 -2.078319 2.828427 -2.828427 
C 2.078319 -3.578535 1.060812 -4 0 -4 
C -1.060812 -4 -2.078319 -3.578535 -2.828427 -2.828427 
C -3.578535 -2.078319 -4 -1.060812 -4 0 
C -4 1.060812 -3.578535 2.078319 -2.828427 2.828427 
C -2.078319 3.578535 -1.060812 4 0 4 
z
" style="stroke: #ff0000"/>
    </defs>
    <g clip-path="url(#p117e733eff)">
     <use xlink:href="#mb2fdb61ac6" x="846.353446" y="109.499327" style="fill: #ff0000; stroke: #ff0000"/>
     <use xlink:href="#mb2fdb61ac6" x="1014.371406" y="109.492044" style="fill: #ff0000; stroke: #ff0000"/>
     <use xlink:href="#mb2fdb61ac6" x="1182.389365" y="109.499905" style="fill: #ff0000; stroke: #ff0000"/>
    </g>
   </g>
   <g id="patch_30">
    <path d="M 774.105724 412.371432 
L 774.105724 39.2475 
" style="fill: none; stroke: #cccccc; stroke-linejoin: miter; stroke-linecap: square"/>
   </g>
   <g id="patch_31">
    <path d="M 1254.637088 412.371432 
L 1254.637088 39.2475 
" style="fill: none; stroke: #cccccc; stroke-linejoin: miter; stroke-linecap: square"/>
   </g>
   <g id="patch_32">
    <path d="M 774.105724 412.371432 
L 1254.637088 412.371432 
" style="fill: none; stroke: #cccccc; stroke-linejoin: miter; stroke-linecap: square"/>
   </g>
   <g id="patch_33">
    <path d="M 774.105724 39.2475 
L 1254.637088 39.2475 
" style="fill: none; stroke: #cccccc; stroke-linejoin: miter; stroke-linecap: square"/>
   </g>
   <g id="text_40">
    <!-- 2575.4 -->
    <g style="fill: #262626" transform="translate(831.06204 48.45273) scale(0.1 -0.1)">
     <defs>
      <path id="ArialMT-34" d="M 2069 0 
L 2069 1097 
L 81 1097 
L 81 1613 
L 2172 4581 
L 2631 4581 
L 2631 1613 
L 3250 1613 
L 3250 1097 
L 2631 1097 
L 2631 0 
L 2069 0 
z
M 2069 1613 
L 2069 3678 
L 634 1613 
L 2069 1613 
z
" transform="scale(0.015625)"/>
     </defs>
     <use xlink:href="#ArialMT-32"/>
     <use xlink:href="#ArialMT-35" transform="translate(55.615234 0)"/>
     <use xlink:href="#ArialMT-37" transform="translate(111.230469 0)"/>
     <use xlink:href="#ArialMT-35" transform="translate(166.845703 0)"/>
     <use xlink:href="#ArialMT-2e" transform="translate(222.460938 0)"/>
     <use xlink:href="#ArialMT-34" transform="translate(250.244141 0)"/>
    </g>
   </g>
   <g id="text_41">
    <!-- 2195.1 -->
    <g style="fill: #ff0000" transform="translate(831.06204 133.113027) scale(0.1 -0.1)">
     <defs>
      <path id="Arial-BoldMT-35" d="M 284 1178 
L 1159 1269 
Q 1197 972 1381 798 
Q 1566 625 1806 625 
Q 2081 625 2272 848 
Q 2463 1072 2463 1522 
Q 2463 1944 2273 2155 
Q 2084 2366 1781 2366 
Q 1403 2366 1103 2031 
L 391 2134 
L 841 4519 
L 3163 4519 
L 3163 3697 
L 1506 3697 
L 1369 2919 
Q 1663 3066 1969 3066 
Q 2553 3066 2959 2641 
Q 3366 2216 3366 1538 
Q 3366 972 3038 528 
Q 2591 -78 1797 -78 
Q 1163 -78 763 262 
Q 363 603 284 1178 
z
" transform="scale(0.015625)"/>
     </defs>
     <use xlink:href="#Arial-BoldMT-32"/>
     <use xlink:href="#Arial-BoldMT-31" transform="translate(55.615234 0)"/>
     <use xlink:href="#Arial-BoldMT-39" transform="translate(111.230469 0)"/>
     <use xlink:href="#Arial-BoldMT-35" transform="translate(166.845703 0)"/>
     <use xlink:href="#Arial-BoldMT-2e" transform="translate(222.460938 0)"/>
     <use xlink:href="#Arial-BoldMT-31" transform="translate(250.244141 0)"/>
    </g>
   </g>
   <g id="text_42">
    <!-- 2575.5 -->
    <g style="fill: #262626" transform="translate(999.079999 48.445451) scale(0.1 -0.1)">
     <use xlink:href="#ArialMT-32"/>
     <use xlink:href="#ArialMT-35" transform="translate(55.615234 0)"/>
     <use xlink:href="#ArialMT-37" transform="translate(111.230469 0)"/>
     <use xlink:href="#ArialMT-35" transform="translate(166.845703 0)"/>
     <use xlink:href="#ArialMT-2e" transform="translate(222.460938 0)"/>
     <use xlink:href="#ArialMT-35" transform="translate(250.244141 0)"/>
    </g>
   </g>
   <g id="text_43">
    <!-- 2195.1 -->
    <g style="fill: #ff0000" transform="translate(999.079999 133.105745) scale(0.1 -0.1)">
     <use xlink:href="#Arial-BoldMT-32"/>
     <use xlink:href="#Arial-BoldMT-31" transform="translate(55.615234 0)"/>
     <use xlink:href="#Arial-BoldMT-39" transform="translate(111.230469 0)"/>
     <use xlink:href="#Arial-BoldMT-35" transform="translate(166.845703 0)"/>
     <use xlink:href="#Arial-BoldMT-2e" transform="translate(222.460938 0)"/>
     <use xlink:href="#Arial-BoldMT-31" transform="translate(250.244141 0)"/>
    </g>
   </g>
   <g id="text_44">
    <!-- 2575.4 -->
    <g style="fill: #262626" transform="translate(1167.097959 48.453309) scale(0.1 -0.1)">
     <use xlink:href="#ArialMT-32"/>
     <use xlink:href="#ArialMT-35" transform="translate(55.615234 0)"/>
     <use xlink:href="#ArialMT-37" transform="translate(111.230469 0)"/>
     <use xlink:href="#ArialMT-35" transform="translate(166.845703 0)"/>
     <use xlink:href="#ArialMT-2e" transform="translate(222.460938 0)"/>
     <use xlink:href="#ArialMT-34" transform="translate(250.244141 0)"/>
    </g>
   </g>
   <g id="text_45">
    <!-- 2195.1 -->
    <g style="fill: #ff0000" transform="translate(1167.097959 133.113605) scale(0.1 -0.1)">
     <use xlink:href="#Arial-BoldMT-32"/>
     <use xlink:href="#Arial-BoldMT-31" transform="translate(55.615234 0)"/>
     <use xlink:href="#Arial-BoldMT-39" transform="translate(111.230469 0)"/>
     <use xlink:href="#Arial-BoldMT-35" transform="translate(166.845703 0)"/>
     <use xlink:href="#Arial-BoldMT-2e" transform="translate(222.460938 0)"/>
     <use xlink:href="#Arial-BoldMT-31" transform="translate(250.244141 0)"/>
    </g>
   </g>
   <g id="text_46">
    <!-- Demand Components by Market Design -->
    <g style="fill: #262626" transform="translate(872.091406 33.2475) scale(0.16 -0.16)">
     <use xlink:href="#ArialMT-44"/>
     <use xlink:href="#ArialMT-65" transform="translate(72.216797 0)"/>
     <use xlink:href="#ArialMT-6d" transform="translate(127.832031 0)"/>
     <use xlink:href="#ArialMT-61" transform="translate(211.132812 0)"/>
     <use xlink:href="#ArialMT-6e" transform="translate(266.748047 0)"/>
     <use xlink:href="#ArialMT-64" transform="translate(322.363281 0)"/>
     <use xlink:href="#ArialMT-20" transform="translate(377.978516 0)"/>
     <use xlink:href="#ArialMT-43" transform="translate(405.761719 0)"/>
     <use xlink:href="#ArialMT-6f" transform="translate(477.978516 0)"/>
     <use xlink:href="#ArialMT-6d" transform="translate(533.59375 0)"/>
     <use xlink:href="#ArialMT-70" transform="translate(616.894531 0)"/>
     <use xlink:href="#ArialMT-6f" transform="translate(672.509766 0)"/>
     <use xlink:href="#ArialMT-6e" transform="translate(728.125 0)"/>
     <use xlink:href="#ArialMT-65" transform="translate(783.740234 0)"/>
     <use xlink:href="#ArialMT-6e" transform="translate(839.355469 0)"/>
     <use xlink:href="#ArialMT-74" transform="translate(894.970703 0)"/>
     <use xlink:href="#ArialMT-73" transform="translate(922.753906 0)"/>
     <use xlink:href="#ArialMT-20" transform="translate(972.753906 0)"/>
     <use xlink:href="#ArialMT-62" transform="translate(1000.537109 0)"/>
     <use xlink:href="#ArialMT-79" transform="translate(1056.152344 0)"/>
     <use xlink:href="#ArialMT-20" transform="translate(1106.152344 0)"/>
     <use xlink:href="#ArialMT-4d" transform="translate(1133.935547 0)"/>
     <use xlink:href="#ArialMT-61" transform="translate(1217.236328 0)"/>
     <use xlink:href="#ArialMT-72" transform="translate(1272.851562 0)"/>
     <use xlink:href="#ArialMT-6b" transform="translate(1306.152344 0)"/>
     <use xlink:href="#ArialMT-65" transform="translate(1356.152344 0)"/>
     <use xlink:href="#ArialMT-74" transform="translate(1411.767578 0)"/>
     <use xlink:href="#ArialMT-20" transform="translate(1439.550781 0)"/>
     <use xlink:href="#ArialMT-44" transform="translate(1467.333984 0)"/>
     <use xlink:href="#ArialMT-65" transform="translate(1539.550781 0)"/>
     <use xlink:href="#ArialMT-73" transform="translate(1595.166016 0)"/>
     <use xlink:href="#ArialMT-69" transform="translate(1645.166016 0)"/>
     <use xlink:href="#ArialMT-67" transform="translate(1667.382812 0)"/>
     <use xlink:href="#ArialMT-6e" transform="translate(1722.998047 0)"/>
    </g>
   </g>
   <g id="legend_2">
    <g id="line2d_38">
     <path d="M 784.905724 361.037682 
L 796.905724 361.037682 
L 808.905724 361.037682 
" style="fill: none; stroke: #ff0000; stroke-width: 3; stroke-linecap: round"/>
     <g>
      <use xlink:href="#mb2fdb61ac6" x="796.905724" y="361.037682" style="fill: #ff0000; stroke: #ff0000"/>
     </g>
    </g>
    <g id="text_47">
     <!-- Net Grid Consumption -->
     <g style="fill: #262626" transform="translate(818.505724 365.237682) scale(0.12 -0.12)">
      <defs>
       <path id="ArialMT-4e" d="M 488 0 
L 488 4581 
L 1109 4581 
L 3516 984 
L 3516 4581 
L 4097 4581 
L 4097 0 
L 3475 0 
L 1069 3600 
L 1069 0 
L 488 0 
z
" transform="scale(0.015625)"/>
      </defs>
      <use xlink:href="#ArialMT-4e"/>
      <use xlink:href="#ArialMT-65" transform="translate(72.216797 0)"/>
      <use xlink:href="#ArialMT-74" transform="translate(127.832031 0)"/>
      <use xlink:href="#ArialMT-20" transform="translate(155.615234 0)"/>
      <use xlink:href="#ArialMT-47" transform="translate(183.398438 0)"/>
      <use xlink:href="#ArialMT-72" transform="translate(261.181641 0)"/>
      <use xlink:href="#ArialMT-69" transform="translate(294.482422 0)"/>
      <use xlink:href="#ArialMT-64" transform="translate(316.699219 0)"/>
      <use xlink:href="#ArialMT-20" transform="translate(372.314453 0)"/>
      <use xlink:href="#ArialMT-43" transform="translate(400.097656 0)"/>
      <use xlink:href="#ArialMT-6f" transform="translate(472.314453 0)"/>
      <use xlink:href="#ArialMT-6e" transform="translate(527.929688 0)"/>
      <use xlink:href="#ArialMT-73" transform="translate(583.544922 0)"/>
      <use xlink:href="#ArialMT-75" transform="translate(633.544922 0)"/>
      <use xlink:href="#ArialMT-6d" transform="translate(689.160156 0)"/>
      <use xlink:href="#ArialMT-70" transform="translate(772.460938 0)"/>
      <use xlink:href="#ArialMT-74" transform="translate(828.076172 0)"/>
      <use xlink:href="#ArialMT-69" transform="translate(855.859375 0)"/>
      <use xlink:href="#ArialMT-6f" transform="translate(878.076172 0)"/>
      <use xlink:href="#ArialMT-6e" transform="translate(933.691406 0)"/>
     </g>
    </g>
    <g id="patch_34">
     <path d="M 784.905724 382.212057 
L 808.905724 382.212057 
L 808.905724 373.812057 
L 784.905724 373.812057 
z
" style="fill: #add8e6; opacity: 0.8"/>
    </g>
    <g id="text_48">
     <!-- Industrial Demand -->
     <g style="fill: #262626" transform="translate(818.505724 382.212057) scale(0.12 -0.12)">
      <use xlink:href="#ArialMT-49"/>
      <use xlink:href="#ArialMT-6e" transform="translate(27.783203 0)"/>
      <use xlink:href="#ArialMT-64" transform="translate(83.398438 0)"/>
      <use xlink:href="#ArialMT-75" transform="translate(139.013672 0)"/>
      <use xlink:href="#ArialMT-73" transform="translate(194.628906 0)"/>
      <use xlink:href="#ArialMT-74" transform="translate(244.628906 0)"/>
      <use xlink:href="#ArialMT-72" transform="translate(272.412109 0)"/>
      <use xlink:href="#ArialMT-69" transform="translate(305.712891 0)"/>
      <use xlink:href="#ArialMT-61" transform="translate(327.929688 0)"/>
      <use xlink:href="#ArialMT-6c" transform="translate(383.544922 0)"/>
      <use xlink:href="#ArialMT-20" transform="translate(405.761719 0)"/>
      <use xlink:href="#ArialMT-44" transform="translate(433.544922 0)"/>
      <use xlink:href="#ArialMT-65" transform="translate(505.761719 0)"/>
      <use xlink:href="#ArialMT-6d" transform="translate(561.376953 0)"/>
      <use xlink:href="#ArialMT-61" transform="translate(644.677734 0)"/>
      <use xlink:href="#ArialMT-6e" transform="translate(700.292969 0)"/>
      <use xlink:href="#ArialMT-64" transform="translate(755.908203 0)"/>
     </g>
    </g>
    <g id="patch_35">
     <path d="M 784.905724 399.186432 
L 808.905724 399.186432 
L 808.905724 390.786432 
L 784.905724 390.786432 
z
" style="fill: #ffd700; opacity: 0.8"/>
    </g>
    <g id="text_49">
     <!-- Behind-Meter Solar -->
     <g style="fill: #262626" transform="translate(818.505724 399.186432) scale(0.12 -0.12)">
      <defs>
       <path id="ArialMT-42" d="M 469 0 
L 469 4581 
L 2188 4581 
Q 2713 4581 3030 4442 
Q 3347 4303 3526 4014 
Q 3706 3725 3706 3409 
Q 3706 3116 3547 2856 
Q 3388 2597 3066 2438 
Q 3481 2316 3704 2022 
Q 3928 1728 3928 1328 
Q 3928 1006 3792 729 
Q 3656 453 3456 303 
Q 3256 153 2954 76 
Q 2653 0 2216 0 
L 469 0 
z
M 1075 2656 
L 2066 2656 
Q 2469 2656 2644 2709 
Q 2875 2778 2992 2937 
Q 3109 3097 3109 3338 
Q 3109 3566 3000 3739 
Q 2891 3913 2687 3977 
Q 2484 4041 1991 4041 
L 1075 4041 
L 1075 2656 
z
M 1075 541 
L 2216 541 
Q 2509 541 2628 563 
Q 2838 600 2978 687 
Q 3119 775 3209 942 
Q 3300 1109 3300 1328 
Q 3300 1584 3169 1773 
Q 3038 1963 2805 2039 
Q 2572 2116 2134 2116 
L 1075 2116 
L 1075 541 
z
" transform="scale(0.015625)"/>
       <path id="ArialMT-53" d="M 288 1472 
L 859 1522 
Q 900 1178 1048 958 
Q 1197 738 1509 602 
Q 1822 466 2213 466 
Q 2559 466 2825 569 
Q 3091 672 3220 851 
Q 3350 1031 3350 1244 
Q 3350 1459 3225 1620 
Q 3100 1781 2813 1891 
Q 2628 1963 1997 2114 
Q 1366 2266 1113 2400 
Q 784 2572 623 2826 
Q 463 3081 463 3397 
Q 463 3744 659 4045 
Q 856 4347 1234 4503 
Q 1613 4659 2075 4659 
Q 2584 4659 2973 4495 
Q 3363 4331 3572 4012 
Q 3781 3694 3797 3291 
L 3216 3247 
Q 3169 3681 2898 3903 
Q 2628 4125 2100 4125 
Q 1550 4125 1298 3923 
Q 1047 3722 1047 3438 
Q 1047 3191 1225 3031 
Q 1400 2872 2139 2705 
Q 2878 2538 3153 2413 
Q 3553 2228 3743 1945 
Q 3934 1663 3934 1294 
Q 3934 928 3725 604 
Q 3516 281 3123 101 
Q 2731 -78 2241 -78 
Q 1619 -78 1198 103 
Q 778 284 539 648 
Q 300 1013 288 1472 
z
" transform="scale(0.015625)"/>
      </defs>
      <use xlink:href="#ArialMT-42"/>
      <use xlink:href="#ArialMT-65" transform="translate(66.699219 0)"/>
      <use xlink:href="#ArialMT-68" transform="translate(122.314453 0)"/>
      <use xlink:href="#ArialMT-69" transform="translate(177.929688 0)"/>
      <use xlink:href="#ArialMT-6e" transform="translate(200.146484 0)"/>
      <use xlink:href="#ArialMT-64" transform="translate(255.761719 0)"/>
      <use xlink:href="#ArialMT-2d" transform="translate(311.376953 0)"/>
      <use xlink:href="#ArialMT-4d" transform="translate(344.677734 0)"/>
      <use xlink:href="#ArialMT-65" transform="translate(427.978516 0)"/>
      <use xlink:href="#ArialMT-74" transform="translate(483.59375 0)"/>
      <use xlink:href="#ArialMT-65" transform="translate(511.376953 0)"/>
      <use xlink:href="#ArialMT-72" transform="translate(566.992188 0)"/>
      <use xlink:href="#ArialMT-20" transform="translate(600.292969 0)"/>
      <use xlink:href="#ArialMT-53" transform="translate(628.076172 0)"/>
      <use xlink:href="#ArialMT-6f" transform="translate(694.775391 0)"/>
      <use xlink:href="#ArialMT-6c" transform="translate(750.390625 0)"/>
      <use xlink:href="#ArialMT-61" transform="translate(772.607422 0)"/>
      <use xlink:href="#ArialMT-72" transform="translate(828.222656 0)"/>
     </g>
    </g>
   </g>
  </g>
 </g>
 <defs>
  <clipPath id="p38030f568a">
   <rect x="63.187088" y="39.2475" width="480.531364" height="373.123932"/>
  </clipPath>
  <clipPath id="p117e733eff">
   <rect x="774.105724" y="39.2475" width="480.531364" height="373.123932"/>
  </clipPath>
 </defs>
</svg>
