<?xml version="1.0" encoding="utf-8" standalone="no"?>
<!DOCTYPE svg PUBLIC "-//W3C//DTD SVG 1.1//EN"
  "http://www.w3.org/Graphics/SVG/1.1/DTD/svg11.dtd">
<svg xmlns:xlink="http://www.w3.org/1999/xlink" width="1157.80294pt" height="864.732862pt" viewBox="0 0 1157.80294 864.732862" xmlns="http://www.w3.org/2000/svg" version="1.1">
 <metadata>
  <rdf:RDF xmlns:dc="http://purl.org/dc/elements/1.1/" xmlns:cc="http://creativecommons.org/ns#" xmlns:rdf="http://www.w3.org/1999/02/22-rdf-syntax-ns#">
   <cc:Work>
    <dc:type rdf:resource="http://purl.org/dc/dcmitype/StillImage"/>
    <dc:date>2025-11-30T21:17:37.565685</dc:date>
    <dc:format>image/svg+xml</dc:format>
    <dc:creator>
     <cc:Agent>
      <dc:title>Matplotlib v3.10.3, https://matplotlib.org/</dc:title>
     </cc:Agent>
    </dc:creator>
   </cc:Work>
  </rdf:RDF>
 </metadata>
 <defs>
  <style type="text/css">*{stroke-linejoin: round; stroke-linecap: butt}</style>
 </defs>
 <g id="figure_1">
  <g id="patch_1">
   <path d="M 0 864.732862 
L 1157.80294 864.732862 
L 1157.80294 0 
L 0 0 
z
" style="fill: #ffffff"/>
  </g>
  <g id="axes_1">
   <g id="patch_2">
    <path d="M 51.41645 303.44285 
L 1139.983402 303.44285 
L 1139.983402 78.4896 
L 51.41645 78.4896 
z
" style="fill: #ffffff"/>
   </g>
   <g id="matplotlib.axis_1">
    <g id="xtick_1">
     <g id="line2d_1">
      <path d="M 100.896766 303.44285 
L 100.896766 78.4896 
" clip-path="url(#p67d75bf2a9)" style="fill: none; stroke: #cccccc; stroke-opacity: 0.3; stroke-width: 0.8; stroke-linecap: round"/>
     </g>
     <g id="line2d_2">
      <defs>
       <path id="m09505935ff" d="M 0 0 
L 0 4.8 
" style="stroke: #262626"/>
      </defs>
      <g>
       <use xlink:href="#m09505935ff" x="100.896766" y="303.44285" style="fill: #262626; stroke: #262626"/>
      </g>
     </g>
    </g>
    <g id="xtick_2">
     <g id="line2d_3">
      <path d="M 273.302048 303.44285 
L 273.302048 78.4896 
" clip-path="url(#p67d75bf2a9)" style="fill: none; stroke: #cccccc; stroke-opacity: 0.3; stroke-width: 0.8; stroke-linecap: round"/>
     </g>
     <g id="line2d_4">
      <g>
       <use xlink:href="#m09505935ff" x="273.302048" y="303.44285" style="fill: #262626; stroke: #262626"/>
      </g>
     </g>
    </g>
    <g id="xtick_3">
     <g id="line2d_5">
      <path d="M 445.70733 303.44285 
L 445.70733 78.4896 
" clip-path="url(#p67d75bf2a9)" style="fill: none; stroke: #cccccc; stroke-opacity: 0.3; stroke-width: 0.8; stroke-linecap: round"/>
     </g>
     <g id="line2d_6">
      <g>
       <use xlink:href="#m09505935ff" x="445.70733" y="303.44285" style="fill: #262626; stroke: #262626"/>
      </g>
     </g>
    </g>
    <g id="xtick_4">
     <g id="line2d_7">
      <path d="M 618.112613 303.44285 
L 618.112613 78.4896 
" clip-path="url(#p67d75bf2a9)" style="fill: none; stroke: #cccccc; stroke-opacity: 0.3; stroke-width: 0.8; stroke-linecap: round"/>
     </g>
     <g id="line2d_8">
      <g>
       <use xlink:href="#m09505935ff" x="618.112613" y="303.44285" style="fill: #262626; stroke: #262626"/>
      </g>
     </g>
    </g>
    <g id="xtick_5">
     <g id="line2d_9">
      <path d="M 790.517895 303.44285 
L 790.517895 78.4896 
" clip-path="url(#p67d75bf2a9)" style="fill: none; stroke: #cccccc; stroke-opacity: 0.3; stroke-width: 0.8; stroke-linecap: round"/>
     </g>
     <g id="line2d_10">
      <g>
       <use xlink:href="#m09505935ff" x="790.517895" y="303.44285" style="fill: #262626; stroke: #262626"/>
      </g>
     </g>
    </g>
    <g id="xtick_6">
     <g id="line2d_11">
      <path d="M 962.923177 303.44285 
L 962.923177 78.4896 
" clip-path="url(#p67d75bf2a9)" style="fill: none; stroke: #cccccc; stroke-opacity: 0.3; stroke-width: 0.8; stroke-linecap: round"/>
     </g>
     <g id="line2d_12">
      <g>
       <use xlink:href="#m09505935ff" x="962.923177" y="303.44285" style="fill: #262626; stroke: #262626"/>
      </g>
     </g>
    </g>
    <g id="xtick_7">
     <g id="line2d_13">
      <path d="M 1135.328459 303.44285 
L 1135.328459 78.4896 
" clip-path="url(#p67d75bf2a9)" style="fill: none; stroke: #cccccc; stroke-opacity: 0.3; stroke-width: 0.8; stroke-linecap: round"/>
     </g>
     <g id="line2d_14">
      <g>
       <use xlink:href="#m09505935ff" x="1135.328459" y="303.44285" style="fill: #262626; stroke: #262626"/>
      </g>
     </g>
    </g>
   </g>
   <g id="matplotlib.axis_2">
    <g id="ytick_1">
     <g id="line2d_15">
      <path d="M 51.41645 297.47818 
L 1139.983402 297.47818 
" clip-path="url(#p67d75bf2a9)" style="fill: none; stroke: #cccccc; stroke-opacity: 0.3; stroke-width: 0.8; stroke-linecap: round"/>
     </g>
     <g id="line2d_16">
      <defs>
       <path id="m184d0707a7" d="M 0 0 
L -4.8 0 
" style="stroke: #262626"/>
      </defs>
      <g>
       <use xlink:href="#m184d0707a7" x="51.41645" y="297.47818" style="fill: #262626; stroke: #262626"/>
      </g>
     </g>
     <g id="text_1">
      <!-- 0.0 -->
      <g style="fill: #262626" transform="translate(29.66125 300.942562) scale(0.0968 -0.0968)">
       <defs>
        <path id="ArialMT-30" d="M 266 2259 
Q 266 3072 433 3567 
Q 600 4063 929 4331 
Q 1259 4600 1759 4600 
Q 2128 4600 2406 4451 
Q 2684 4303 2865 4023 
Q 3047 3744 3150 3342 
Q 3253 2941 3253 2259 
Q 3253 1453 3087 958 
Q 2922 463 2592 192 
Q 2263 -78 1759 -78 
Q 1097 -78 719 397 
Q 266 969 266 2259 
z
M 844 2259 
Q 844 1131 1108 757 
Q 1372 384 1759 384 
Q 2147 384 2411 759 
Q 2675 1134 2675 2259 
Q 2675 3391 2411 3762 
Q 2147 4134 1753 4134 
Q 1366 4134 1134 3806 
Q 844 3388 844 2259 
z
" transform="scale(0.015625)"/>
        <path id="ArialMT-2e" d="M 581 0 
L 581 641 
L 1222 641 
L 1222 0 
L 581 0 
z
" transform="scale(0.015625)"/>
       </defs>
       <use xlink:href="#ArialMT-30"/>
       <use xlink:href="#ArialMT-2e" transform="translate(55.615234 0)"/>
       <use xlink:href="#ArialMT-30" transform="translate(83.398438 0)"/>
      </g>
     </g>
    </g>
    <g id="ytick_2">
     <g id="line2d_17">
      <path d="M 51.41645 250.139534 
L 1139.983402 250.139534 
" clip-path="url(#p67d75bf2a9)" style="fill: none; stroke: #cccccc; stroke-opacity: 0.3; stroke-width: 0.8; stroke-linecap: round"/>
     </g>
     <g id="line2d_18">
      <g>
       <use xlink:href="#m184d0707a7" x="51.41645" y="250.139534" style="fill: #262626; stroke: #262626"/>
      </g>
     </g>
     <g id="text_2">
      <!-- 0.5 -->
      <g style="fill: #262626" transform="translate(29.66125 253.603915) scale(0.0968 -0.0968)">
       <defs>
        <path id="ArialMT-35" d="M 266 1200 
L 856 1250 
Q 922 819 1161 601 
Q 1400 384 1738 384 
Q 2144 384 2425 690 
Q 2706 997 2706 1503 
Q 2706 1984 2436 2262 
Q 2166 2541 1728 2541 
Q 1456 2541 1237 2417 
Q 1019 2294 894 2097 
L 366 2166 
L 809 4519 
L 3088 4519 
L 3088 3981 
L 1259 3981 
L 1013 2750 
Q 1425 3038 1878 3038 
Q 2478 3038 2890 2622 
Q 3303 2206 3303 1553 
Q 3303 931 2941 478 
Q 2500 -78 1738 -78 
Q 1113 -78 717 272 
Q 322 622 266 1200 
z
" transform="scale(0.015625)"/>
       </defs>
       <use xlink:href="#ArialMT-30"/>
       <use xlink:href="#ArialMT-2e" transform="translate(55.615234 0)"/>
       <use xlink:href="#ArialMT-35" transform="translate(83.398438 0)"/>
      </g>
     </g>
    </g>
    <g id="ytick_3">
     <g id="line2d_19">
      <path d="M 51.41645 202.800887 
L 1139.983402 202.800887 
" clip-path="url(#p67d75bf2a9)" style="fill: none; stroke: #cccccc; stroke-opacity: 0.3; stroke-width: 0.8; stroke-linecap: round"/>
     </g>
     <g id="line2d_20">
      <g>
       <use xlink:href="#m184d0707a7" x="51.41645" y="202.800887" style="fill: #262626; stroke: #262626"/>
      </g>
     </g>
     <g id="text_3">
      <!-- 1.0 -->
      <g style="fill: #262626" transform="translate(29.66125 206.265268) scale(0.0968 -0.0968)">
       <defs>
        <path id="ArialMT-31" d="M 2384 0 
L 1822 0 
L 1822 3584 
Q 1619 3391 1289 3197 
Q 959 3003 697 2906 
L 697 3450 
Q 1169 3672 1522 3987 
Q 1875 4303 2022 4600 
L 2384 4600 
L 2384 0 
z
" transform="scale(0.015625)"/>
       </defs>
       <use xlink:href="#ArialMT-31"/>
       <use xlink:href="#ArialMT-2e" transform="translate(55.615234 0)"/>
       <use xlink:href="#ArialMT-30" transform="translate(83.398438 0)"/>
      </g>
     </g>
    </g>
    <g id="ytick_4">
     <g id="line2d_21">
      <path d="M 51.41645 155.46224 
L 1139.983402 155.46224 
" clip-path="url(#p67d75bf2a9)" style="fill: none; stroke: #cccccc; stroke-opacity: 0.3; stroke-width: 0.8; stroke-linecap: round"/>
     </g>
     <g id="line2d_22">
      <g>
       <use xlink:href="#m184d0707a7" x="51.41645" y="155.46224" style="fill: #262626; stroke: #262626"/>
      </g>
     </g>
     <g id="text_4">
      <!-- 1.5 -->
      <g style="fill: #262626" transform="translate(29.66125 158.926621) scale(0.0968 -0.0968)">
       <use xlink:href="#ArialMT-31"/>
       <use xlink:href="#ArialMT-2e" transform="translate(55.615234 0)"/>
       <use xlink:href="#ArialMT-35" transform="translate(83.398438 0)"/>
      </g>
     </g>
    </g>
    <g id="ytick_5">
     <g id="line2d_23">
      <path d="M 51.41645 108.123593 
L 1139.983402 108.123593 
" clip-path="url(#p67d75bf2a9)" style="fill: none; stroke: #cccccc; stroke-opacity: 0.3; stroke-width: 0.8; stroke-linecap: round"/>
     </g>
     <g id="line2d_24">
      <g>
       <use xlink:href="#m184d0707a7" x="51.41645" y="108.123593" style="fill: #262626; stroke: #262626"/>
      </g>
     </g>
     <g id="text_5">
      <!-- 2.0 -->
      <g style="fill: #262626" transform="translate(29.66125 111.587974) scale(0.0968 -0.0968)">
       <defs>
        <path id="ArialMT-32" d="M 3222 541 
L 3222 0 
L 194 0 
Q 188 203 259 391 
Q 375 700 629 1000 
Q 884 1300 1366 1694 
Q 2113 2306 2375 2664 
Q 2638 3022 2638 3341 
Q 2638 3675 2398 3904 
Q 2159 4134 1775 4134 
Q 1369 4134 1125 3890 
Q 881 3647 878 3216 
L 300 3275 
Q 359 3922 746 4261 
Q 1134 4600 1788 4600 
Q 2447 4600 2831 4234 
Q 3216 3869 3216 3328 
Q 3216 3053 3103 2787 
Q 2991 2522 2730 2228 
Q 2469 1934 1863 1422 
Q 1356 997 1212 845 
Q 1069 694 975 541 
L 3222 541 
z
" transform="scale(0.015625)"/>
       </defs>
       <use xlink:href="#ArialMT-32"/>
       <use xlink:href="#ArialMT-2e" transform="translate(55.615234 0)"/>
       <use xlink:href="#ArialMT-30" transform="translate(83.398438 0)"/>
      </g>
     </g>
    </g>
    <g id="text_6">
     <!-- Generation (GW) -->
     <g style="fill: #262626" transform="translate(23.135625 236.6431) rotate(-90) scale(0.12 -0.12)">
      <defs>
       <path id="ArialMT-47" d="M 2638 1797 
L 2638 2334 
L 4578 2338 
L 4578 638 
Q 4131 281 3656 101 
Q 3181 -78 2681 -78 
Q 2006 -78 1454 211 
Q 903 500 622 1047 
Q 341 1594 341 2269 
Q 341 2938 620 3517 
Q 900 4097 1425 4378 
Q 1950 4659 2634 4659 
Q 3131 4659 3532 4498 
Q 3934 4338 4162 4050 
Q 4391 3763 4509 3300 
L 3963 3150 
Q 3859 3500 3706 3700 
Q 3553 3900 3268 4020 
Q 2984 4141 2638 4141 
Q 2222 4141 1919 4014 
Q 1616 3888 1430 3681 
Q 1244 3475 1141 3228 
Q 966 2803 966 2306 
Q 966 1694 1177 1281 
Q 1388 869 1791 669 
Q 2194 469 2647 469 
Q 3041 469 3416 620 
Q 3791 772 3984 944 
L 3984 1797 
L 2638 1797 
z
" transform="scale(0.015625)"/>
       <path id="ArialMT-65" d="M 2694 1069 
L 3275 997 
Q 3138 488 2766 206 
Q 2394 -75 1816 -75 
Q 1088 -75 661 373 
Q 234 822 234 1631 
Q 234 2469 665 2931 
Q 1097 3394 1784 3394 
Q 2450 3394 2872 2941 
Q 3294 2488 3294 1666 
Q 3294 1616 3291 1516 
L 816 1516 
Q 847 969 1125 678 
Q 1403 388 1819 388 
Q 2128 388 2347 550 
Q 2566 713 2694 1069 
z
M 847 1978 
L 2700 1978 
Q 2663 2397 2488 2606 
Q 2219 2931 1791 2931 
Q 1403 2931 1139 2672 
Q 875 2413 847 1978 
z
" transform="scale(0.015625)"/>
       <path id="ArialMT-6e" d="M 422 0 
L 422 3319 
L 928 3319 
L 928 2847 
Q 1294 3394 1984 3394 
Q 2284 3394 2536 3286 
Q 2788 3178 2913 3003 
Q 3038 2828 3088 2588 
Q 3119 2431 3119 2041 
L 3119 0 
L 2556 0 
L 2556 2019 
Q 2556 2363 2490 2533 
Q 2425 2703 2258 2804 
Q 2091 2906 1866 2906 
Q 1506 2906 1245 2678 
Q 984 2450 984 1813 
L 984 0 
L 422 0 
z
" transform="scale(0.015625)"/>
       <path id="ArialMT-72" d="M 416 0 
L 416 3319 
L 922 3319 
L 922 2816 
Q 1116 3169 1280 3281 
Q 1444 3394 1641 3394 
Q 1925 3394 2219 3213 
L 2025 2691 
Q 1819 2813 1613 2813 
Q 1428 2813 1281 2702 
Q 1134 2591 1072 2394 
Q 978 2094 978 1738 
L 978 0 
L 416 0 
z
" transform="scale(0.015625)"/>
       <path id="ArialMT-61" d="M 2588 409 
Q 2275 144 1986 34 
Q 1697 -75 1366 -75 
Q 819 -75 525 192 
Q 231 459 231 875 
Q 231 1119 342 1320 
Q 453 1522 633 1644 
Q 813 1766 1038 1828 
Q 1203 1872 1538 1913 
Q 2219 1994 2541 2106 
Q 2544 2222 2544 2253 
Q 2544 2597 2384 2738 
Q 2169 2928 1744 2928 
Q 1347 2928 1158 2789 
Q 969 2650 878 2297 
L 328 2372 
Q 403 2725 575 2942 
Q 747 3159 1072 3276 
Q 1397 3394 1825 3394 
Q 2250 3394 2515 3294 
Q 2781 3194 2906 3042 
Q 3031 2891 3081 2659 
Q 3109 2516 3109 2141 
L 3109 1391 
Q 3109 606 3145 398 
Q 3181 191 3288 0 
L 2700 0 
Q 2613 175 2588 409 
z
M 2541 1666 
Q 2234 1541 1622 1453 
Q 1275 1403 1131 1340 
Q 988 1278 909 1158 
Q 831 1038 831 891 
Q 831 666 1001 516 
Q 1172 366 1500 366 
Q 1825 366 2078 508 
Q 2331 650 2450 897 
Q 2541 1088 2541 1459 
L 2541 1666 
z
" transform="scale(0.015625)"/>
       <path id="ArialMT-74" d="M 1650 503 
L 1731 6 
Q 1494 -44 1306 -44 
Q 1000 -44 831 53 
Q 663 150 594 308 
Q 525 466 525 972 
L 525 2881 
L 113 2881 
L 113 3319 
L 525 3319 
L 525 4141 
L 1084 4478 
L 1084 3319 
L 1650 3319 
L 1650 2881 
L 1084 2881 
L 1084 941 
Q 1084 700 1114 631 
Q 1144 563 1211 522 
Q 1278 481 1403 481 
Q 1497 481 1650 503 
z
" transform="scale(0.015625)"/>
       <path id="ArialMT-69" d="M 425 3934 
L 425 4581 
L 988 4581 
L 988 3934 
L 425 3934 
z
M 425 0 
L 425 3319 
L 988 3319 
L 988 0 
L 425 0 
z
" transform="scale(0.015625)"/>
       <path id="ArialMT-6f" d="M 213 1659 
Q 213 2581 725 3025 
Q 1153 3394 1769 3394 
Q 2453 3394 2887 2945 
Q 3322 2497 3322 1706 
Q 3322 1066 3130 698 
Q 2938 331 2570 128 
Q 2203 -75 1769 -75 
Q 1072 -75 642 372 
Q 213 819 213 1659 
z
M 791 1659 
Q 791 1022 1069 705 
Q 1347 388 1769 388 
Q 2188 388 2466 706 
Q 2744 1025 2744 1678 
Q 2744 2294 2464 2611 
Q 2184 2928 1769 2928 
Q 1347 2928 1069 2612 
Q 791 2297 791 1659 
z
" transform="scale(0.015625)"/>
       <path id="ArialMT-20" transform="scale(0.015625)"/>
       <path id="ArialMT-28" d="M 1497 -1347 
Q 1031 -759 709 28 
Q 388 816 388 1659 
Q 388 2403 628 3084 
Q 909 3875 1497 4659 
L 1900 4659 
Q 1522 4009 1400 3731 
Q 1209 3300 1100 2831 
Q 966 2247 966 1656 
Q 966 153 1900 -1347 
L 1497 -1347 
z
" transform="scale(0.015625)"/>
       <path id="ArialMT-57" d="M 1294 0 
L 78 4581 
L 700 4581 
L 1397 1578 
Q 1509 1106 1591 641 
Q 1766 1375 1797 1488 
L 2669 4581 
L 3400 4581 
L 4056 2263 
Q 4303 1400 4413 641 
Q 4500 1075 4641 1638 
L 5359 4581 
L 5969 4581 
L 4713 0 
L 4128 0 
L 3163 3491 
Q 3041 3928 3019 4028 
Q 2947 3713 2884 3491 
L 1913 0 
L 1294 0 
z
" transform="scale(0.015625)"/>
       <path id="ArialMT-29" d="M 791 -1347 
L 388 -1347 
Q 1322 153 1322 1656 
Q 1322 2244 1188 2822 
Q 1081 3291 891 3722 
Q 769 4003 388 4659 
L 791 4659 
Q 1378 3875 1659 3084 
Q 1900 2403 1900 1659 
Q 1900 816 1576 28 
Q 1253 -759 791 -1347 
z
" transform="scale(0.015625)"/>
      </defs>
      <use xlink:href="#ArialMT-47"/>
      <use xlink:href="#ArialMT-65" transform="translate(77.783203 0)"/>
      <use xlink:href="#ArialMT-6e" transform="translate(133.398438 0)"/>
      <use xlink:href="#ArialMT-65" transform="translate(189.013672 0)"/>
      <use xlink:href="#ArialMT-72" transform="translate(244.628906 0)"/>
      <use xlink:href="#ArialMT-61" transform="translate(277.929688 0)"/>
      <use xlink:href="#ArialMT-74" transform="translate(333.544922 0)"/>
      <use xlink:href="#ArialMT-69" transform="translate(361.328125 0)"/>
      <use xlink:href="#ArialMT-6f" transform="translate(383.544922 0)"/>
      <use xlink:href="#ArialMT-6e" transform="translate(439.160156 0)"/>
      <use xlink:href="#ArialMT-20" transform="translate(494.775391 0)"/>
      <use xlink:href="#ArialMT-28" transform="translate(522.558594 0)"/>
      <use xlink:href="#ArialMT-47" transform="translate(555.859375 0)"/>
      <use xlink:href="#ArialMT-57" transform="translate(633.642578 0)"/>
      <use xlink:href="#ArialMT-29" transform="translate(728.027344 0)"/>
     </g>
    </g>
   </g>
   <g id="line2d_25">
    <path d="M 100.896766 267.654833 
L 104.344872 276.175789 
L 114.689189 288.957224 
L 118.137294 284.696746 
L 121.5854 284.696746 
L 125.033505 291.939559 
L 128.481611 284.696746 
L 131.929717 287.253033 
L 135.377822 282.992555 
L 138.825928 284.696746 
L 145.722139 293.217702 
L 149.170245 291.087463 
L 152.618351 293.217702 
L 156.066456 293.217702 
L 159.514562 284.696746 
L 173.306985 267.654833 
L 176.75509 267.654833 
L 180.203196 263.394355 
L 183.651301 165.403356 
L 193.995618 178.18479 
L 197.443724 165.403356 
L 200.89183 165.403356 
L 204.339935 152.621921 
L 207.788041 144.100965 
L 211.236147 139.840486 
L 218.132358 139.840486 
L 221.580464 135.580008 
L 231.92478 110.017139 
L 235.372886 110.017139 
L 238.820992 105.756661 
L 242.269097 105.756661 
L 249.165309 97.235704 
L 252.613414 105.756661 
L 256.06152 144.100965 
L 259.509626 161.142877 
L 262.957731 165.403356 
L 266.405837 152.621921 
L 273.302048 161.142877 
L 276.750154 161.142877 
L 280.198259 165.403356 
L 283.646365 173.924312 
L 287.094471 178.18479 
L 290.542576 173.924312 
L 293.990682 173.924312 
L 297.438788 182.445269 
L 300.886893 199.487181 
L 304.334999 212.268616 
L 307.783105 220.789573 
L 311.23121 216.529094 
L 314.679316 199.487181 
L 321.575527 182.445269 
L 328.471738 173.924312 
L 342.264161 173.924312 
L 345.712267 178.18479 
L 349.160372 212.268616 
L 352.608478 212.268616 
L 356.056584 203.74766 
L 362.952795 195.226703 
L 373.297112 195.226703 
L 380.193323 203.74766 
L 383.641429 212.268616 
L 387.089534 229.310529 
L 390.53764 250.61292 
L 393.985746 263.394355 
L 397.433851 267.654833 
L 400.881957 267.654833 
L 404.330063 263.394355 
L 407.778168 254.873398 
L 411.226274 229.310529 
L 418.122485 186.705747 
L 421.570591 182.445269 
L 425.018696 182.445269 
L 428.466802 186.705747 
L 431.914908 114.277617 
L 435.363013 110.017139 
L 438.811119 110.017139 
L 442.259225 101.496182 
L 445.70733 97.235704 
L 452.603542 97.235704 
L 456.051647 88.714748 
L 459.499753 97.235704 
L 462.947859 110.017139 
L 466.395964 127.059052 
L 469.84407 165.403356 
L 473.292176 233.571007 
L 476.740281 246.352442 
L 480.188387 250.61292 
L 483.636492 246.352442 
L 487.084598 254.873398 
L 490.532704 254.873398 
L 493.980809 246.352442 
L 497.428915 220.789573 
L 500.877021 216.529094 
L 504.325126 220.789573 
L 511.221338 237.831485 
L 514.669443 195.226703 
L 518.117549 199.487181 
L 521.565655 199.487181 
L 525.01376 203.74766 
L 528.461866 203.74766 
L 531.909971 208.008138 
L 535.358077 208.008138 
L 538.806183 212.268616 
L 542.254288 220.789573 
L 545.702394 225.050051 
L 549.1505 246.352442 
L 552.598605 263.394355 
L 556.046711 267.654833 
L 559.494817 267.654833 
L 566.391028 259.133877 
L 569.839134 259.133877 
L 573.287239 250.61292 
L 580.18345 259.133877 
L 583.631556 250.61292 
L 587.079662 254.873398 
L 590.527767 254.873398 
L 593.975873 259.133877 
L 597.423979 203.74766 
L 600.872084 186.705747 
L 604.32019 182.445269 
L 607.768296 182.445269 
L 611.216401 186.705747 
L 618.112613 169.663834 
L 621.560718 156.882399 
L 625.008824 152.621921 
L 628.456929 169.663834 
L 631.905035 165.403356 
L 635.353141 178.18479 
L 638.801246 186.705747 
L 642.249352 190.966225 
L 649.145563 208.008138 
L 652.593669 203.74766 
L 666.386092 220.789573 
L 669.834197 216.529094 
L 676.730408 216.529094 
L 680.178514 173.924312 
L 690.522831 186.705747 
L 693.970937 178.18479 
L 700.867148 169.663834 
L 704.315254 161.142877 
L 707.763359 165.403356 
L 711.211465 182.445269 
L 714.659571 182.445269 
L 718.107676 173.924312 
L 721.555782 178.18479 
L 725.003887 178.18479 
L 728.451993 173.924312 
L 731.900099 161.142877 
L 735.348204 152.621921 
L 738.79631 156.882399 
L 742.244416 156.882399 
L 745.692521 165.403356 
L 749.140627 186.705747 
L 752.588733 212.268616 
L 756.036838 220.789573 
L 759.484944 225.050051 
L 762.93305 220.789573 
L 766.381155 225.050051 
L 773.277367 216.529094 
L 776.725472 216.529094 
L 780.173578 212.268616 
L 783.621683 216.529094 
L 787.069789 212.268616 
L 793.966 212.268616 
L 797.414106 208.008138 
L 800.862212 199.487181 
L 804.310317 195.226703 
L 807.758423 199.487181 
L 811.206529 199.487181 
L 814.654634 190.966225 
L 818.10274 190.966225 
L 821.550846 186.705747 
L 824.998951 186.705747 
L 828.447057 190.966225 
L 831.895162 199.487181 
L 835.343268 195.226703 
L 842.239479 220.789573 
L 845.687585 246.352442 
L 852.583796 254.873398 
L 856.031902 254.873398 
L 859.480008 242.091964 
L 862.928113 237.831485 
L 869.824325 237.831485 
L 880.168641 263.394355 
L 883.616747 263.394355 
L 887.064853 259.133877 
L 893.961064 233.571007 
L 897.40917 216.529094 
L 900.857275 208.008138 
L 911.201592 208.008138 
L 924.994015 225.050051 
L 928.44212 203.74766 
L 938.786437 216.529094 
L 942.234543 212.268616 
L 945.682649 203.74766 
L 952.57886 178.18479 
L 959.475071 169.663834 
L 962.923177 169.663834 
L 966.371283 165.403356 
L 969.819388 178.18479 
L 973.267494 182.445269 
L 976.715599 178.18479 
L 980.163705 148.361443 
L 987.059916 131.31953 
L 993.956128 156.882399 
L 997.404233 152.621921 
L 1000.852339 152.621921 
L 1007.74855 161.142877 
L 1011.196656 92.975226 
L 1014.644762 101.496182 
L 1018.092867 97.235704 
L 1021.540973 110.017139 
L 1024.989078 118.538095 
L 1035.333395 156.882399 
L 1038.781501 165.403356 
L 1052.573924 233.571007 
L 1056.022029 242.091964 
L 1062.918241 242.091964 
L 1066.366346 237.831485 
L 1069.814452 237.831485 
L 1073.262558 233.571007 
L 1080.158769 233.571007 
L 1083.606874 229.310529 
L 1087.05498 233.571007 
L 1090.503086 229.310529 
L 1090.503086 229.310529 
" clip-path="url(#p67d75bf2a9)" style="fill: none; stroke: #2e8b57; stroke-width: 1.5; stroke-linecap: round"/>
   </g>
   <g id="patch_3">
    <path d="M 51.41645 303.44285 
L 51.41645 78.4896 
" style="fill: none; stroke: #cccccc; stroke-linejoin: miter; stroke-linecap: square"/>
   </g>
   <g id="patch_4">
    <path d="M 1139.983402 303.44285 
L 1139.983402 78.4896 
" style="fill: none; stroke: #cccccc; stroke-linejoin: miter; stroke-linecap: square"/>
   </g>
   <g id="patch_5">
    <path d="M 51.41645 303.44285 
L 1139.983402 303.44285 
" style="fill: none; stroke: #cccccc; stroke-linejoin: miter; stroke-linecap: square"/>
   </g>
   <g id="patch_6">
    <path d="M 51.41645 78.4896 
L 1139.983402 78.4896 
" style="fill: none; stroke: #cccccc; stroke-linejoin: miter; stroke-linecap: square"/>
   </g>
   <g id="text_7">
    <!-- Scenario 3 - 3.EOM El.+ CVAR -->
    <g style="fill: #262626" transform="translate(499.154613 72.4896) scale(0.14 -0.14)">
     <defs>
      <path id="ArialMT-53" d="M 288 1472 
L 859 1522 
Q 900 1178 1048 958 
Q 1197 738 1509 602 
Q 1822 466 2213 466 
Q 2559 466 2825 569 
Q 3091 672 3220 851 
Q 3350 1031 3350 1244 
Q 3350 1459 3225 1620 
Q 3100 1781 2813 1891 
Q 2628 1963 1997 2114 
Q 1366 2266 1113 2400 
Q 784 2572 623 2826 
Q 463 3081 463 3397 
Q 463 3744 659 4045 
Q 856 4347 1234 4503 
Q 1613 4659 2075 4659 
Q 2584 4659 2973 4495 
Q 3363 4331 3572 4012 
Q 3781 3694 3797 3291 
L 3216 3247 
Q 3169 3681 2898 3903 
Q 2628 4125 2100 4125 
Q 1550 4125 1298 3923 
Q 1047 3722 1047 3438 
Q 1047 3191 1225 3031 
Q 1400 2872 2139 2705 
Q 2878 2538 3153 2413 
Q 3553 2228 3743 1945 
Q 3934 1663 3934 1294 
Q 3934 928 3725 604 
Q 3516 281 3123 101 
Q 2731 -78 2241 -78 
Q 1619 -78 1198 103 
Q 778 284 539 648 
Q 300 1013 288 1472 
z
" transform="scale(0.015625)"/>
      <path id="ArialMT-63" d="M 2588 1216 
L 3141 1144 
Q 3050 572 2676 248 
Q 2303 -75 1759 -75 
Q 1078 -75 664 370 
Q 250 816 250 1647 
Q 250 2184 428 2587 
Q 606 2991 970 3192 
Q 1334 3394 1763 3394 
Q 2303 3394 2647 3120 
Q 2991 2847 3088 2344 
L 2541 2259 
Q 2463 2594 2264 2762 
Q 2066 2931 1784 2931 
Q 1359 2931 1093 2626 
Q 828 2322 828 1663 
Q 828 994 1084 691 
Q 1341 388 1753 388 
Q 2084 388 2306 591 
Q 2528 794 2588 1216 
z
" transform="scale(0.015625)"/>
      <path id="ArialMT-33" d="M 269 1209 
L 831 1284 
Q 928 806 1161 595 
Q 1394 384 1728 384 
Q 2125 384 2398 659 
Q 2672 934 2672 1341 
Q 2672 1728 2419 1979 
Q 2166 2231 1775 2231 
Q 1616 2231 1378 2169 
L 1441 2663 
Q 1497 2656 1531 2656 
Q 1891 2656 2178 2843 
Q 2466 3031 2466 3422 
Q 2466 3731 2256 3934 
Q 2047 4138 1716 4138 
Q 1388 4138 1169 3931 
Q 950 3725 888 3313 
L 325 3413 
Q 428 3978 793 4289 
Q 1159 4600 1703 4600 
Q 2078 4600 2393 4439 
Q 2709 4278 2876 4000 
Q 3044 3722 3044 3409 
Q 3044 3113 2884 2869 
Q 2725 2625 2413 2481 
Q 2819 2388 3044 2092 
Q 3269 1797 3269 1353 
Q 3269 753 2831 336 
Q 2394 -81 1725 -81 
Q 1122 -81 723 278 
Q 325 638 269 1209 
z
" transform="scale(0.015625)"/>
      <path id="ArialMT-2d" d="M 203 1375 
L 203 1941 
L 1931 1941 
L 1931 1375 
L 203 1375 
z
" transform="scale(0.015625)"/>
      <path id="ArialMT-45" d="M 506 0 
L 506 4581 
L 3819 4581 
L 3819 4041 
L 1113 4041 
L 1113 2638 
L 3647 2638 
L 3647 2100 
L 1113 2100 
L 1113 541 
L 3925 541 
L 3925 0 
L 506 0 
z
" transform="scale(0.015625)"/>
      <path id="ArialMT-4f" d="M 309 2231 
Q 309 3372 921 4017 
Q 1534 4663 2503 4663 
Q 3138 4663 3647 4359 
Q 4156 4056 4423 3514 
Q 4691 2972 4691 2284 
Q 4691 1588 4409 1038 
Q 4128 488 3612 205 
Q 3097 -78 2500 -78 
Q 1853 -78 1343 234 
Q 834 547 571 1087 
Q 309 1628 309 2231 
z
M 934 2222 
Q 934 1394 1379 917 
Q 1825 441 2497 441 
Q 3181 441 3623 922 
Q 4066 1403 4066 2288 
Q 4066 2847 3877 3264 
Q 3688 3681 3323 3911 
Q 2959 4141 2506 4141 
Q 1863 4141 1398 3698 
Q 934 3256 934 2222 
z
" transform="scale(0.015625)"/>
      <path id="ArialMT-4d" d="M 475 0 
L 475 4581 
L 1388 4581 
L 2472 1338 
Q 2622 884 2691 659 
Q 2769 909 2934 1394 
L 4031 4581 
L 4847 4581 
L 4847 0 
L 4263 0 
L 4263 3834 
L 2931 0 
L 2384 0 
L 1059 3900 
L 1059 0 
L 475 0 
z
" transform="scale(0.015625)"/>
      <path id="ArialMT-6c" d="M 409 0 
L 409 4581 
L 972 4581 
L 972 0 
L 409 0 
z
" transform="scale(0.015625)"/>
      <path id="ArialMT-2b" d="M 1603 741 
L 1603 1997 
L 356 1997 
L 356 2522 
L 1603 2522 
L 1603 3769 
L 2134 3769 
L 2134 2522 
L 3381 2522 
L 3381 1997 
L 2134 1997 
L 2134 741 
L 1603 741 
z
" transform="scale(0.015625)"/>
      <path id="ArialMT-43" d="M 3763 1606 
L 4369 1453 
Q 4178 706 3683 314 
Q 3188 -78 2472 -78 
Q 1731 -78 1267 223 
Q 803 525 561 1097 
Q 319 1669 319 2325 
Q 319 3041 592 3573 
Q 866 4106 1370 4382 
Q 1875 4659 2481 4659 
Q 3169 4659 3637 4309 
Q 4106 3959 4291 3325 
L 3694 3184 
Q 3534 3684 3231 3912 
Q 2928 4141 2469 4141 
Q 1941 4141 1586 3887 
Q 1231 3634 1087 3207 
Q 944 2781 944 2328 
Q 944 1744 1114 1308 
Q 1284 872 1643 656 
Q 2003 441 2422 441 
Q 2931 441 3284 734 
Q 3638 1028 3763 1606 
z
" transform="scale(0.015625)"/>
      <path id="ArialMT-56" d="M 1803 0 
L 28 4581 
L 684 4581 
L 1875 1253 
Q 2019 853 2116 503 
Q 2222 878 2363 1253 
L 3600 4581 
L 4219 4581 
L 2425 0 
L 1803 0 
z
" transform="scale(0.015625)"/>
      <path id="ArialMT-41" d="M -9 0 
L 1750 4581 
L 2403 4581 
L 4278 0 
L 3588 0 
L 3053 1388 
L 1138 1388 
L 634 0 
L -9 0 
z
M 1313 1881 
L 2866 1881 
L 2388 3150 
Q 2169 3728 2063 4100 
Q 1975 3659 1816 3225 
L 1313 1881 
z
" transform="scale(0.015625)"/>
      <path id="ArialMT-52" d="M 503 0 
L 503 4581 
L 2534 4581 
Q 3147 4581 3465 4457 
Q 3784 4334 3975 4021 
Q 4166 3709 4166 3331 
Q 4166 2844 3850 2509 
Q 3534 2175 2875 2084 
Q 3116 1969 3241 1856 
Q 3506 1613 3744 1247 
L 4541 0 
L 3778 0 
L 3172 953 
Q 2906 1366 2734 1584 
Q 2563 1803 2427 1890 
Q 2291 1978 2150 2013 
Q 2047 2034 1813 2034 
L 1109 2034 
L 1109 0 
L 503 0 
z
M 1109 2559 
L 2413 2559 
Q 2828 2559 3062 2645 
Q 3297 2731 3419 2920 
Q 3541 3109 3541 3331 
Q 3541 3656 3305 3865 
Q 3069 4075 2559 4075 
L 1109 4075 
L 1109 2559 
z
" transform="scale(0.015625)"/>
     </defs>
     <use xlink:href="#ArialMT-53"/>
     <use xlink:href="#ArialMT-63" transform="translate(66.699219 0)"/>
     <use xlink:href="#ArialMT-65" transform="translate(116.699219 0)"/>
     <use xlink:href="#ArialMT-6e" transform="translate(172.314453 0)"/>
     <use xlink:href="#ArialMT-61" transform="translate(227.929688 0)"/>
     <use xlink:href="#ArialMT-72" transform="translate(283.544922 0)"/>
     <use xlink:href="#ArialMT-69" transform="translate(316.845703 0)"/>
     <use xlink:href="#ArialMT-6f" transform="translate(339.0625 0)"/>
     <use xlink:href="#ArialMT-20" transform="translate(394.677734 0)"/>
     <use xlink:href="#ArialMT-33" transform="translate(422.460938 0)"/>
     <use xlink:href="#ArialMT-20" transform="translate(478.076172 0)"/>
     <use xlink:href="#ArialMT-2d" transform="translate(505.859375 0)"/>
     <use xlink:href="#ArialMT-20" transform="translate(539.160156 0)"/>
     <use xlink:href="#ArialMT-33" transform="translate(566.943359 0)"/>
     <use xlink:href="#ArialMT-2e" transform="translate(622.558594 0)"/>
     <use xlink:href="#ArialMT-45" transform="translate(650.341797 0)"/>
     <use xlink:href="#ArialMT-4f" transform="translate(717.041016 0)"/>
     <use xlink:href="#ArialMT-4d" transform="translate(794.824219 0)"/>
     <use xlink:href="#ArialMT-20" transform="translate(878.125 0)"/>
     <use xlink:href="#ArialMT-45" transform="translate(905.908203 0)"/>
     <use xlink:href="#ArialMT-6c" transform="translate(972.607422 0)"/>
     <use xlink:href="#ArialMT-2e" transform="translate(994.824219 0)"/>
     <use xlink:href="#ArialMT-2b" transform="translate(1022.607422 0)"/>
     <use xlink:href="#ArialMT-20" transform="translate(1081.005859 0)"/>
     <use xlink:href="#ArialMT-43" transform="translate(1108.789062 0)"/>
     <use xlink:href="#ArialMT-56" transform="translate(1181.005859 0)"/>
     <use xlink:href="#ArialMT-41" transform="translate(1240.330078 0)"/>
     <use xlink:href="#ArialMT-52" transform="translate(1307.029297 0)"/>
    </g>
   </g>
   <g id="legend_1">
    <g id="line2d_26">
     <path d="M 982.938089 91.275538 
L 992.938089 91.275538 
L 1002.938089 91.275538 
" style="fill: none; stroke: #2e8b57; stroke-width: 1.5; stroke-linecap: round"/>
    </g>
    <g id="text_8">
     <!-- Generation (WindOnshore) -->
     <g style="fill: #262626" transform="translate(1010.938089 94.775538) scale(0.1 -0.1)">
      <defs>
       <path id="ArialMT-64" d="M 2575 0 
L 2575 419 
Q 2259 -75 1647 -75 
Q 1250 -75 917 144 
Q 584 363 401 755 
Q 219 1147 219 1656 
Q 219 2153 384 2558 
Q 550 2963 881 3178 
Q 1213 3394 1622 3394 
Q 1922 3394 2156 3267 
Q 2391 3141 2538 2938 
L 2538 4581 
L 3097 4581 
L 3097 0 
L 2575 0 
z
M 797 1656 
Q 797 1019 1065 703 
Q 1334 388 1700 388 
Q 2069 388 2326 689 
Q 2584 991 2584 1609 
Q 2584 2291 2321 2609 
Q 2059 2928 1675 2928 
Q 1300 2928 1048 2622 
Q 797 2316 797 1656 
z
" transform="scale(0.015625)"/>
       <path id="ArialMT-73" d="M 197 991 
L 753 1078 
Q 800 744 1014 566 
Q 1228 388 1613 388 
Q 2000 388 2187 545 
Q 2375 703 2375 916 
Q 2375 1106 2209 1216 
Q 2094 1291 1634 1406 
Q 1016 1563 777 1677 
Q 538 1791 414 1992 
Q 291 2194 291 2438 
Q 291 2659 392 2848 
Q 494 3038 669 3163 
Q 800 3259 1026 3326 
Q 1253 3394 1513 3394 
Q 1903 3394 2198 3281 
Q 2494 3169 2634 2976 
Q 2775 2784 2828 2463 
L 2278 2388 
Q 2241 2644 2061 2787 
Q 1881 2931 1553 2931 
Q 1166 2931 1000 2803 
Q 834 2675 834 2503 
Q 834 2394 903 2306 
Q 972 2216 1119 2156 
Q 1203 2125 1616 2013 
Q 2213 1853 2448 1751 
Q 2684 1650 2818 1456 
Q 2953 1263 2953 975 
Q 2953 694 2789 445 
Q 2625 197 2315 61 
Q 2006 -75 1616 -75 
Q 969 -75 630 194 
Q 291 463 197 991 
z
" transform="scale(0.015625)"/>
       <path id="ArialMT-68" d="M 422 0 
L 422 4581 
L 984 4581 
L 984 2938 
Q 1378 3394 1978 3394 
Q 2347 3394 2619 3248 
Q 2891 3103 3008 2847 
Q 3125 2591 3125 2103 
L 3125 0 
L 2563 0 
L 2563 2103 
Q 2563 2525 2380 2717 
Q 2197 2909 1863 2909 
Q 1613 2909 1392 2779 
Q 1172 2650 1078 2428 
Q 984 2206 984 1816 
L 984 0 
L 422 0 
z
" transform="scale(0.015625)"/>
      </defs>
      <use xlink:href="#ArialMT-47"/>
      <use xlink:href="#ArialMT-65" transform="translate(77.783203 0)"/>
      <use xlink:href="#ArialMT-6e" transform="translate(133.398438 0)"/>
      <use xlink:href="#ArialMT-65" transform="translate(189.013672 0)"/>
      <use xlink:href="#ArialMT-72" transform="translate(244.628906 0)"/>
      <use xlink:href="#ArialMT-61" transform="translate(277.929688 0)"/>
      <use xlink:href="#ArialMT-74" transform="translate(333.544922 0)"/>
      <use xlink:href="#ArialMT-69" transform="translate(361.328125 0)"/>
      <use xlink:href="#ArialMT-6f" transform="translate(383.544922 0)"/>
      <use xlink:href="#ArialMT-6e" transform="translate(439.160156 0)"/>
      <use xlink:href="#ArialMT-20" transform="translate(494.775391 0)"/>
      <use xlink:href="#ArialMT-28" transform="translate(522.558594 0)"/>
      <use xlink:href="#ArialMT-57" transform="translate(555.859375 0)"/>
      <use xlink:href="#ArialMT-69" transform="translate(650.244141 0)"/>
      <use xlink:href="#ArialMT-6e" transform="translate(672.460938 0)"/>
      <use xlink:href="#ArialMT-64" transform="translate(728.076172 0)"/>
      <use xlink:href="#ArialMT-4f" transform="translate(783.691406 0)"/>
      <use xlink:href="#ArialMT-6e" transform="translate(861.474609 0)"/>
      <use xlink:href="#ArialMT-73" transform="translate(917.089844 0)"/>
      <use xlink:href="#ArialMT-68" transform="translate(967.089844 0)"/>
      <use xlink:href="#ArialMT-6f" transform="translate(1022.705078 0)"/>
      <use xlink:href="#ArialMT-72" transform="translate(1078.320312 0)"/>
      <use xlink:href="#ArialMT-65" transform="translate(1111.621094 0)"/>
      <use xlink:href="#ArialMT-29" transform="translate(1167.236328 0)"/>
     </g>
    </g>
   </g>
  </g>
  <g id="axes_2">
   <g id="patch_7">
    <path d="M 51.41645 560.6809 
L 1139.983402 560.6809 
L 1139.983402 335.72765 
L 51.41645 335.72765 
z
" style="fill: #ffffff"/>
   </g>
   <g id="matplotlib.axis_3">
    <g id="xtick_8">
     <g id="line2d_27">
      <path d="M 100.896766 560.6809 
L 100.896766 335.72765 
" clip-path="url(#p704cc14763)" style="fill: none; stroke: #cccccc; stroke-opacity: 0.3; stroke-width: 0.8; stroke-linecap: round"/>
     </g>
     <g id="line2d_28">
      <g>
       <use xlink:href="#m09505935ff" x="100.896766" y="560.6809" style="fill: #262626; stroke: #262626"/>
      </g>
     </g>
    </g>
    <g id="xtick_9">
     <g id="line2d_29">
      <path d="M 273.302048 560.6809 
L 273.302048 335.72765 
" clip-path="url(#p704cc14763)" style="fill: none; stroke: #cccccc; stroke-opacity: 0.3; stroke-width: 0.8; stroke-linecap: round"/>
     </g>
     <g id="line2d_30">
      <g>
       <use xlink:href="#m09505935ff" x="273.302048" y="560.6809" style="fill: #262626; stroke: #262626"/>
      </g>
     </g>
    </g>
    <g id="xtick_10">
     <g id="line2d_31">
      <path d="M 445.70733 560.6809 
L 445.70733 335.72765 
" clip-path="url(#p704cc14763)" style="fill: none; stroke: #cccccc; stroke-opacity: 0.3; stroke-width: 0.8; stroke-linecap: round"/>
     </g>
     <g id="line2d_32">
      <g>
       <use xlink:href="#m09505935ff" x="445.70733" y="560.6809" style="fill: #262626; stroke: #262626"/>
      </g>
     </g>
    </g>
    <g id="xtick_11">
     <g id="line2d_33">
      <path d="M 618.112613 560.6809 
L 618.112613 335.72765 
" clip-path="url(#p704cc14763)" style="fill: none; stroke: #cccccc; stroke-opacity: 0.3; stroke-width: 0.8; stroke-linecap: round"/>
     </g>
     <g id="line2d_34">
      <g>
       <use xlink:href="#m09505935ff" x="618.112613" y="560.6809" style="fill: #262626; stroke: #262626"/>
      </g>
     </g>
    </g>
    <g id="xtick_12">
     <g id="line2d_35">
      <path d="M 790.517895 560.6809 
L 790.517895 335.72765 
" clip-path="url(#p704cc14763)" style="fill: none; stroke: #cccccc; stroke-opacity: 0.3; stroke-width: 0.8; stroke-linecap: round"/>
     </g>
     <g id="line2d_36">
      <g>
       <use xlink:href="#m09505935ff" x="790.517895" y="560.6809" style="fill: #262626; stroke: #262626"/>
      </g>
     </g>
    </g>
    <g id="xtick_13">
     <g id="line2d_37">
      <path d="M 962.923177 560.6809 
L 962.923177 335.72765 
" clip-path="url(#p704cc14763)" style="fill: none; stroke: #cccccc; stroke-opacity: 0.3; stroke-width: 0.8; stroke-linecap: round"/>
     </g>
     <g id="line2d_38">
      <g>
       <use xlink:href="#m09505935ff" x="962.923177" y="560.6809" style="fill: #262626; stroke: #262626"/>
      </g>
     </g>
    </g>
    <g id="xtick_14">
     <g id="line2d_39">
      <path d="M 1135.328459 560.6809 
L 1135.328459 335.72765 
" clip-path="url(#p704cc14763)" style="fill: none; stroke: #cccccc; stroke-opacity: 0.3; stroke-width: 0.8; stroke-linecap: round"/>
     </g>
     <g id="line2d_40">
      <g>
       <use xlink:href="#m09505935ff" x="1135.328459" y="560.6809" style="fill: #262626; stroke: #262626"/>
      </g>
     </g>
    </g>
   </g>
   <g id="matplotlib.axis_4">
    <g id="ytick_6">
     <g id="line2d_41">
      <path d="M 51.41645 554.71623 
L 1139.983402 554.71623 
" clip-path="url(#p704cc14763)" style="fill: none; stroke: #cccccc; stroke-opacity: 0.3; stroke-width: 0.8; stroke-linecap: round"/>
     </g>
     <g id="line2d_42">
      <g>
       <use xlink:href="#m184d0707a7" x="51.41645" y="554.71623" style="fill: #262626; stroke: #262626"/>
      </g>
     </g>
     <g id="text_9">
      <!-- 0.0 -->
      <g style="fill: #262626" transform="translate(29.66125 558.180612) scale(0.0968 -0.0968)">
       <use xlink:href="#ArialMT-30"/>
       <use xlink:href="#ArialMT-2e" transform="translate(55.615234 0)"/>
       <use xlink:href="#ArialMT-30" transform="translate(83.398438 0)"/>
      </g>
     </g>
    </g>
    <g id="ytick_7">
     <g id="line2d_43">
      <path d="M 51.41645 507.377584 
L 1139.983402 507.377584 
" clip-path="url(#p704cc14763)" style="fill: none; stroke: #cccccc; stroke-opacity: 0.3; stroke-width: 0.8; stroke-linecap: round"/>
     </g>
     <g id="line2d_44">
      <g>
       <use xlink:href="#m184d0707a7" x="51.41645" y="507.377584" style="fill: #262626; stroke: #262626"/>
      </g>
     </g>
     <g id="text_10">
      <!-- 0.5 -->
      <g style="fill: #262626" transform="translate(29.66125 510.841965) scale(0.0968 -0.0968)">
       <use xlink:href="#ArialMT-30"/>
       <use xlink:href="#ArialMT-2e" transform="translate(55.615234 0)"/>
       <use xlink:href="#ArialMT-35" transform="translate(83.398438 0)"/>
      </g>
     </g>
    </g>
    <g id="ytick_8">
     <g id="line2d_45">
      <path d="M 51.41645 460.038937 
L 1139.983402 460.038937 
" clip-path="url(#p704cc14763)" style="fill: none; stroke: #cccccc; stroke-opacity: 0.3; stroke-width: 0.8; stroke-linecap: round"/>
     </g>
     <g id="line2d_46">
      <g>
       <use xlink:href="#m184d0707a7" x="51.41645" y="460.038937" style="fill: #262626; stroke: #262626"/>
      </g>
     </g>
     <g id="text_11">
      <!-- 1.0 -->
      <g style="fill: #262626" transform="translate(29.66125 463.503318) scale(0.0968 -0.0968)">
       <use xlink:href="#ArialMT-31"/>
       <use xlink:href="#ArialMT-2e" transform="translate(55.615234 0)"/>
       <use xlink:href="#ArialMT-30" transform="translate(83.398438 0)"/>
      </g>
     </g>
    </g>
    <g id="ytick_9">
     <g id="line2d_47">
      <path d="M 51.41645 412.70029 
L 1139.983402 412.70029 
" clip-path="url(#p704cc14763)" style="fill: none; stroke: #cccccc; stroke-opacity: 0.3; stroke-width: 0.8; stroke-linecap: round"/>
     </g>
     <g id="line2d_48">
      <g>
       <use xlink:href="#m184d0707a7" x="51.41645" y="412.70029" style="fill: #262626; stroke: #262626"/>
      </g>
     </g>
     <g id="text_12">
      <!-- 1.5 -->
      <g style="fill: #262626" transform="translate(29.66125 416.164671) scale(0.0968 -0.0968)">
       <use xlink:href="#ArialMT-31"/>
       <use xlink:href="#ArialMT-2e" transform="translate(55.615234 0)"/>
       <use xlink:href="#ArialMT-35" transform="translate(83.398438 0)"/>
      </g>
     </g>
    </g>
    <g id="ytick_10">
     <g id="line2d_49">
      <path d="M 51.41645 365.361643 
L 1139.983402 365.361643 
" clip-path="url(#p704cc14763)" style="fill: none; stroke: #cccccc; stroke-opacity: 0.3; stroke-width: 0.8; stroke-linecap: round"/>
     </g>
     <g id="line2d_50">
      <g>
       <use xlink:href="#m184d0707a7" x="51.41645" y="365.361643" style="fill: #262626; stroke: #262626"/>
      </g>
     </g>
     <g id="text_13">
      <!-- 2.0 -->
      <g style="fill: #262626" transform="translate(29.66125 368.826024) scale(0.0968 -0.0968)">
       <use xlink:href="#ArialMT-32"/>
       <use xlink:href="#ArialMT-2e" transform="translate(55.615234 0)"/>
       <use xlink:href="#ArialMT-30" transform="translate(83.398438 0)"/>
      </g>
     </g>
    </g>
    <g id="text_14">
     <!-- Generation (GW) -->
     <g style="fill: #262626" transform="translate(23.135625 493.88115) rotate(-90) scale(0.12 -0.12)">
      <use xlink:href="#ArialMT-47"/>
      <use xlink:href="#ArialMT-65" transform="translate(77.783203 0)"/>
      <use xlink:href="#ArialMT-6e" transform="translate(133.398438 0)"/>
      <use xlink:href="#ArialMT-65" transform="translate(189.013672 0)"/>
      <use xlink:href="#ArialMT-72" transform="translate(244.628906 0)"/>
      <use xlink:href="#ArialMT-61" transform="translate(277.929688 0)"/>
      <use xlink:href="#ArialMT-74" transform="translate(333.544922 0)"/>
      <use xlink:href="#ArialMT-69" transform="translate(361.328125 0)"/>
      <use xlink:href="#ArialMT-6f" transform="translate(383.544922 0)"/>
      <use xlink:href="#ArialMT-6e" transform="translate(439.160156 0)"/>
      <use xlink:href="#ArialMT-20" transform="translate(494.775391 0)"/>
      <use xlink:href="#ArialMT-28" transform="translate(522.558594 0)"/>
      <use xlink:href="#ArialMT-47" transform="translate(555.859375 0)"/>
      <use xlink:href="#ArialMT-57" transform="translate(633.642578 0)"/>
      <use xlink:href="#ArialMT-29" transform="translate(728.027344 0)"/>
     </g>
    </g>
   </g>
   <g id="line2d_51">
    <path d="M 100.896766 524.892883 
L 104.344872 533.413839 
L 114.689189 546.195274 
L 118.137294 541.934796 
L 121.5854 541.934796 
L 125.033505 549.177609 
L 128.481611 541.934796 
L 131.929717 544.491083 
L 135.377822 540.230605 
L 138.825928 541.934796 
L 145.722139 550.455752 
L 149.170245 548.325513 
L 152.618351 550.455752 
L 156.066456 550.455752 
L 159.514562 541.934796 
L 173.306985 524.892883 
L 176.75509 524.892883 
L 180.203196 520.632405 
L 183.651301 422.641406 
L 193.995618 435.42284 
L 197.443724 422.641406 
L 200.89183 422.641406 
L 204.339935 409.859971 
L 207.788041 401.339015 
L 211.236147 397.078536 
L 218.132358 397.078536 
L 221.580464 392.818058 
L 231.92478 367.255189 
L 235.372886 367.255189 
L 238.820992 362.994711 
L 242.269097 362.994711 
L 249.165309 354.473754 
L 252.613414 362.994711 
L 256.06152 401.339015 
L 259.509626 418.380927 
L 262.957731 422.641406 
L 266.405837 409.859971 
L 273.302048 418.380927 
L 276.750154 418.380927 
L 280.198259 422.641406 
L 283.646365 431.162362 
L 287.094471 435.42284 
L 290.542576 431.162362 
L 293.990682 431.162362 
L 297.438788 439.683319 
L 300.886893 456.725231 
L 304.334999 469.506666 
L 307.783105 478.027623 
L 311.23121 473.767144 
L 314.679316 456.725231 
L 321.575527 439.683319 
L 328.471738 431.162362 
L 342.264161 431.162362 
L 345.712267 435.42284 
L 349.160372 469.506666 
L 352.608478 469.506666 
L 356.056584 460.98571 
L 362.952795 452.464753 
L 373.297112 452.464753 
L 380.193323 460.98571 
L 383.641429 469.506666 
L 387.089534 486.548579 
L 390.53764 507.85097 
L 393.985746 520.632405 
L 397.433851 524.892883 
L 400.881957 524.892883 
L 404.330063 520.632405 
L 407.778168 512.111448 
L 411.226274 486.548579 
L 418.122485 443.943797 
L 421.570591 439.683319 
L 425.018696 439.683319 
L 428.466802 443.943797 
L 431.914908 371.515667 
L 435.363013 367.255189 
L 438.811119 367.255189 
L 442.259225 358.734232 
L 445.70733 354.473754 
L 452.603542 354.473754 
L 456.051647 345.952798 
L 459.499753 354.473754 
L 462.947859 367.255189 
L 466.395964 384.297102 
L 469.84407 422.641406 
L 473.292176 490.809057 
L 476.740281 503.590492 
L 480.188387 507.85097 
L 483.636492 503.590492 
L 487.084598 512.111448 
L 490.532704 512.111448 
L 493.980809 503.590492 
L 497.428915 478.027623 
L 500.877021 473.767144 
L 504.325126 478.027623 
L 511.221338 495.069535 
L 514.669443 452.464753 
L 518.117549 456.725231 
L 521.565655 456.725231 
L 525.01376 460.98571 
L 528.461866 460.98571 
L 531.909971 465.246188 
L 535.358077 465.246188 
L 538.806183 469.506666 
L 542.254288 478.027623 
L 545.702394 482.288101 
L 549.1505 503.590492 
L 552.598605 520.632405 
L 556.046711 524.892883 
L 559.494817 524.892883 
L 566.391028 516.371927 
L 569.839134 516.371927 
L 573.287239 507.85097 
L 580.18345 516.371927 
L 583.631556 507.85097 
L 587.079662 512.111448 
L 590.527767 512.111448 
L 593.975873 516.371927 
L 597.423979 460.98571 
L 600.872084 443.943797 
L 604.32019 439.683319 
L 607.768296 439.683319 
L 611.216401 443.943797 
L 618.112613 426.901884 
L 621.560718 414.120449 
L 625.008824 409.859971 
L 628.456929 426.901884 
L 631.905035 422.641406 
L 635.353141 435.42284 
L 638.801246 443.943797 
L 642.249352 448.204275 
L 649.145563 465.246188 
L 652.593669 460.98571 
L 666.386092 478.027623 
L 669.834197 473.767144 
L 676.730408 473.767144 
L 680.178514 431.162362 
L 690.522831 443.943797 
L 693.970937 435.42284 
L 700.867148 426.901884 
L 704.315254 418.380927 
L 707.763359 422.641406 
L 711.211465 439.683319 
L 714.659571 439.683319 
L 718.107676 431.162362 
L 721.555782 435.42284 
L 725.003887 435.42284 
L 728.451993 431.162362 
L 731.900099 418.380927 
L 735.348204 409.859971 
L 738.79631 414.120449 
L 742.244416 414.120449 
L 745.692521 422.641406 
L 749.140627 443.943797 
L 752.588733 469.506666 
L 756.036838 478.027623 
L 759.484944 482.288101 
L 762.93305 478.027623 
L 766.381155 482.288101 
L 773.277367 473.767144 
L 776.725472 473.767144 
L 780.173578 469.506666 
L 783.621683 473.767144 
L 787.069789 469.506666 
L 793.966 469.506666 
L 797.414106 465.246188 
L 800.862212 456.725231 
L 804.310317 452.464753 
L 807.758423 456.725231 
L 811.206529 456.725231 
L 814.654634 448.204275 
L 818.10274 448.204275 
L 821.550846 443.943797 
L 824.998951 443.943797 
L 828.447057 448.204275 
L 831.895162 456.725231 
L 835.343268 452.464753 
L 842.239479 478.027623 
L 845.687585 503.590492 
L 852.583796 512.111448 
L 856.031902 512.111448 
L 859.480008 499.330014 
L 862.928113 495.069535 
L 869.824325 495.069535 
L 880.168641 520.632405 
L 883.616747 520.632405 
L 887.064853 516.371927 
L 893.961064 490.809057 
L 897.40917 473.767144 
L 900.857275 465.246188 
L 911.201592 465.246188 
L 924.994015 482.288101 
L 928.44212 460.98571 
L 938.786437 473.767144 
L 942.234543 469.506666 
L 945.682649 460.98571 
L 952.57886 435.42284 
L 959.475071 426.901884 
L 962.923177 426.901884 
L 966.371283 422.641406 
L 969.819388 435.42284 
L 973.267494 439.683319 
L 976.715599 435.42284 
L 980.163705 405.599493 
L 987.059916 388.55758 
L 993.956128 414.120449 
L 997.404233 409.859971 
L 1000.852339 409.859971 
L 1007.74855 418.380927 
L 1011.196656 350.213276 
L 1014.644762 358.734232 
L 1018.092867 354.473754 
L 1021.540973 367.255189 
L 1024.989078 375.776145 
L 1035.333395 414.120449 
L 1038.781501 422.641406 
L 1052.573924 490.809057 
L 1056.022029 499.330014 
L 1062.918241 499.330014 
L 1066.366346 495.069535 
L 1069.814452 495.069535 
L 1073.262558 490.809057 
L 1080.158769 490.809057 
L 1083.606874 486.548579 
L 1087.05498 490.809057 
L 1090.503086 486.548579 
L 1090.503086 486.548579 
" clip-path="url(#p704cc14763)" style="fill: none; stroke: #2e8b57; stroke-width: 1.5; stroke-linecap: round"/>
   </g>
   <g id="patch_8">
    <path d="M 51.41645 560.6809 
L 51.41645 335.72765 
" style="fill: none; stroke: #cccccc; stroke-linejoin: miter; stroke-linecap: square"/>
   </g>
   <g id="patch_9">
    <path d="M 1139.983402 560.6809 
L 1139.983402 335.72765 
" style="fill: none; stroke: #cccccc; stroke-linejoin: miter; stroke-linecap: square"/>
   </g>
   <g id="patch_10">
    <path d="M 51.41645 560.6809 
L 1139.983402 560.6809 
" style="fill: none; stroke: #cccccc; stroke-linejoin: miter; stroke-linecap: square"/>
   </g>
   <g id="patch_11">
    <path d="M 51.41645 335.72765 
L 1139.983402 335.72765 
" style="fill: none; stroke: #cccccc; stroke-linejoin: miter; stroke-linecap: square"/>
   </g>
   <g id="text_15">
    <!-- Scenario 5 - 5.EOM El.+ CM+ CVAR -->
    <g style="fill: #262626" transform="translate(482.235395 329.72765) scale(0.14 -0.14)">
     <use xlink:href="#ArialMT-53"/>
     <use xlink:href="#ArialMT-63" transform="translate(66.699219 0)"/>
     <use xlink:href="#ArialMT-65" transform="translate(116.699219 0)"/>
     <use xlink:href="#ArialMT-6e" transform="translate(172.314453 0)"/>
     <use xlink:href="#ArialMT-61" transform="translate(227.929688 0)"/>
     <use xlink:href="#ArialMT-72" transform="translate(283.544922 0)"/>
     <use xlink:href="#ArialMT-69" transform="translate(316.845703 0)"/>
     <use xlink:href="#ArialMT-6f" transform="translate(339.0625 0)"/>
     <use xlink:href="#ArialMT-20" transform="translate(394.677734 0)"/>
     <use xlink:href="#ArialMT-35" transform="translate(422.460938 0)"/>
     <use xlink:href="#ArialMT-20" transform="translate(478.076172 0)"/>
     <use xlink:href="#ArialMT-2d" transform="translate(505.859375 0)"/>
     <use xlink:href="#ArialMT-20" transform="translate(539.160156 0)"/>
     <use xlink:href="#ArialMT-35" transform="translate(566.943359 0)"/>
     <use xlink:href="#ArialMT-2e" transform="translate(622.558594 0)"/>
     <use xlink:href="#ArialMT-45" transform="translate(650.341797 0)"/>
     <use xlink:href="#ArialMT-4f" transform="translate(717.041016 0)"/>
     <use xlink:href="#ArialMT-4d" transform="translate(794.824219 0)"/>
     <use xlink:href="#ArialMT-20" transform="translate(878.125 0)"/>
     <use xlink:href="#ArialMT-45" transform="translate(905.908203 0)"/>
     <use xlink:href="#ArialMT-6c" transform="translate(972.607422 0)"/>
     <use xlink:href="#ArialMT-2e" transform="translate(994.824219 0)"/>
     <use xlink:href="#ArialMT-2b" transform="translate(1022.607422 0)"/>
     <use xlink:href="#ArialMT-20" transform="translate(1081.005859 0)"/>
     <use xlink:href="#ArialMT-43" transform="translate(1108.789062 0)"/>
     <use xlink:href="#ArialMT-4d" transform="translate(1181.005859 0)"/>
     <use xlink:href="#ArialMT-2b" transform="translate(1264.306641 0)"/>
     <use xlink:href="#ArialMT-20" transform="translate(1322.705078 0)"/>
     <use xlink:href="#ArialMT-43" transform="translate(1350.488281 0)"/>
     <use xlink:href="#ArialMT-56" transform="translate(1422.705078 0)"/>
     <use xlink:href="#ArialMT-41" transform="translate(1482.029297 0)"/>
     <use xlink:href="#ArialMT-52" transform="translate(1548.728516 0)"/>
    </g>
   </g>
   <g id="legend_2">
    <g id="line2d_52">
     <path d="M 982.938089 348.513587 
L 992.938089 348.513587 
L 1002.938089 348.513587 
" style="fill: none; stroke: #2e8b57; stroke-width: 1.5; stroke-linecap: round"/>
    </g>
    <g id="text_16">
     <!-- Generation (WindOnshore) -->
     <g style="fill: #262626" transform="translate(1010.938089 352.013587) scale(0.1 -0.1)">
      <use xlink:href="#ArialMT-47"/>
      <use xlink:href="#ArialMT-65" transform="translate(77.783203 0)"/>
      <use xlink:href="#ArialMT-6e" transform="translate(133.398438 0)"/>
      <use xlink:href="#ArialMT-65" transform="translate(189.013672 0)"/>
      <use xlink:href="#ArialMT-72" transform="translate(244.628906 0)"/>
      <use xlink:href="#ArialMT-61" transform="translate(277.929688 0)"/>
      <use xlink:href="#ArialMT-74" transform="translate(333.544922 0)"/>
      <use xlink:href="#ArialMT-69" transform="translate(361.328125 0)"/>
      <use xlink:href="#ArialMT-6f" transform="translate(383.544922 0)"/>
      <use xlink:href="#ArialMT-6e" transform="translate(439.160156 0)"/>
      <use xlink:href="#ArialMT-20" transform="translate(494.775391 0)"/>
      <use xlink:href="#ArialMT-28" transform="translate(522.558594 0)"/>
      <use xlink:href="#ArialMT-57" transform="translate(555.859375 0)"/>
      <use xlink:href="#ArialMT-69" transform="translate(650.244141 0)"/>
      <use xlink:href="#ArialMT-6e" transform="translate(672.460938 0)"/>
      <use xlink:href="#ArialMT-64" transform="translate(728.076172 0)"/>
      <use xlink:href="#ArialMT-4f" transform="translate(783.691406 0)"/>
      <use xlink:href="#ArialMT-6e" transform="translate(861.474609 0)"/>
      <use xlink:href="#ArialMT-73" transform="translate(917.089844 0)"/>
      <use xlink:href="#ArialMT-68" transform="translate(967.089844 0)"/>
      <use xlink:href="#ArialMT-6f" transform="translate(1022.705078 0)"/>
      <use xlink:href="#ArialMT-72" transform="translate(1078.320312 0)"/>
      <use xlink:href="#ArialMT-65" transform="translate(1111.621094 0)"/>
      <use xlink:href="#ArialMT-29" transform="translate(1167.236328 0)"/>
     </g>
    </g>
   </g>
  </g>
  <g id="axes_3">
   <g id="patch_12">
    <path d="M 51.41645 817.91895 
L 1139.983402 817.91895 
L 1139.983402 592.9657 
L 51.41645 592.9657 
z
" style="fill: #ffffff"/>
   </g>
   <g id="matplotlib.axis_5">
    <g id="xtick_15">
     <g id="line2d_53">
      <path d="M 100.896766 817.91895 
L 100.896766 592.9657 
" clip-path="url(#pdc0d737be4)" style="fill: none; stroke: #cccccc; stroke-opacity: 0.3; stroke-width: 0.8; stroke-linecap: round"/>
     </g>
     <g id="line2d_54">
      <g>
       <use xlink:href="#m09505935ff" x="100.896766" y="817.91895" style="fill: #262626; stroke: #262626"/>
      </g>
     </g>
     <g id="text_17">
      <!-- 0 -->
      <g style="fill: #262626" transform="translate(98.205272 833.147712) scale(0.0968 -0.0968)">
       <use xlink:href="#ArialMT-30"/>
      </g>
     </g>
    </g>
    <g id="xtick_16">
     <g id="line2d_55">
      <path d="M 273.302048 817.91895 
L 273.302048 592.9657 
" clip-path="url(#pdc0d737be4)" style="fill: none; stroke: #cccccc; stroke-opacity: 0.3; stroke-width: 0.8; stroke-linecap: round"/>
     </g>
     <g id="line2d_56">
      <g>
       <use xlink:href="#m09505935ff" x="273.302048" y="817.91895" style="fill: #262626; stroke: #262626"/>
      </g>
     </g>
     <g id="text_18">
      <!-- 50 -->
      <g style="fill: #262626" transform="translate(267.919061 833.147712) scale(0.0968 -0.0968)">
       <use xlink:href="#ArialMT-35"/>
       <use xlink:href="#ArialMT-30" transform="translate(55.615234 0)"/>
      </g>
     </g>
    </g>
    <g id="xtick_17">
     <g id="line2d_57">
      <path d="M 445.70733 817.91895 
L 445.70733 592.9657 
" clip-path="url(#pdc0d737be4)" style="fill: none; stroke: #cccccc; stroke-opacity: 0.3; stroke-width: 0.8; stroke-linecap: round"/>
     </g>
     <g id="line2d_58">
      <g>
       <use xlink:href="#m09505935ff" x="445.70733" y="817.91895" style="fill: #262626; stroke: #262626"/>
      </g>
     </g>
     <g id="text_19">
      <!-- 100 -->
      <g style="fill: #262626" transform="translate(437.632849 833.147712) scale(0.0968 -0.0968)">
       <use xlink:href="#ArialMT-31"/>
       <use xlink:href="#ArialMT-30" transform="translate(55.615234 0)"/>
       <use xlink:href="#ArialMT-30" transform="translate(111.230469 0)"/>
      </g>
     </g>
    </g>
    <g id="xtick_18">
     <g id="line2d_59">
      <path d="M 618.112613 817.91895 
L 618.112613 592.9657 
" clip-path="url(#pdc0d737be4)" style="fill: none; stroke: #cccccc; stroke-opacity: 0.3; stroke-width: 0.8; stroke-linecap: round"/>
     </g>
     <g id="line2d_60">
      <g>
       <use xlink:href="#m09505935ff" x="618.112613" y="817.91895" style="fill: #262626; stroke: #262626"/>
      </g>
     </g>
     <g id="text_20">
      <!-- 150 -->
      <g style="fill: #262626" transform="translate(610.038131 833.147712) scale(0.0968 -0.0968)">
       <use xlink:href="#ArialMT-31"/>
       <use xlink:href="#ArialMT-35" transform="translate(55.615234 0)"/>
       <use xlink:href="#ArialMT-30" transform="translate(111.230469 0)"/>
      </g>
     </g>
    </g>
    <g id="xtick_19">
     <g id="line2d_61">
      <path d="M 790.517895 817.91895 
L 790.517895 592.9657 
" clip-path="url(#pdc0d737be4)" style="fill: none; stroke: #cccccc; stroke-opacity: 0.3; stroke-width: 0.8; stroke-linecap: round"/>
     </g>
     <g id="line2d_62">
      <g>
       <use xlink:href="#m09505935ff" x="790.517895" y="817.91895" style="fill: #262626; stroke: #262626"/>
      </g>
     </g>
     <g id="text_21">
      <!-- 200 -->
      <g style="fill: #262626" transform="translate(782.443413 833.147712) scale(0.0968 -0.0968)">
       <use xlink:href="#ArialMT-32"/>
       <use xlink:href="#ArialMT-30" transform="translate(55.615234 0)"/>
       <use xlink:href="#ArialMT-30" transform="translate(111.230469 0)"/>
      </g>
     </g>
    </g>
    <g id="xtick_20">
     <g id="line2d_63">
      <path d="M 962.923177 817.91895 
L 962.923177 592.9657 
" clip-path="url(#pdc0d737be4)" style="fill: none; stroke: #cccccc; stroke-opacity: 0.3; stroke-width: 0.8; stroke-linecap: round"/>
     </g>
     <g id="line2d_64">
      <g>
       <use xlink:href="#m09505935ff" x="962.923177" y="817.91895" style="fill: #262626; stroke: #262626"/>
      </g>
     </g>
     <g id="text_22">
      <!-- 250 -->
      <g style="fill: #262626" transform="translate(954.848696 833.147712) scale(0.0968 -0.0968)">
       <use xlink:href="#ArialMT-32"/>
       <use xlink:href="#ArialMT-35" transform="translate(55.615234 0)"/>
       <use xlink:href="#ArialMT-30" transform="translate(111.230469 0)"/>
      </g>
     </g>
    </g>
    <g id="xtick_21">
     <g id="line2d_65">
      <path d="M 1135.328459 817.91895 
L 1135.328459 592.9657 
" clip-path="url(#pdc0d737be4)" style="fill: none; stroke: #cccccc; stroke-opacity: 0.3; stroke-width: 0.8; stroke-linecap: round"/>
     </g>
     <g id="line2d_66">
      <g>
       <use xlink:href="#m09505935ff" x="1135.328459" y="817.91895" style="fill: #262626; stroke: #262626"/>
      </g>
     </g>
     <g id="text_23">
      <!-- 300 -->
      <g style="fill: #262626" transform="translate(1127.253978 833.147712) scale(0.0968 -0.0968)">
       <use xlink:href="#ArialMT-33"/>
       <use xlink:href="#ArialMT-30" transform="translate(55.615234 0)"/>
       <use xlink:href="#ArialMT-30" transform="translate(111.230469 0)"/>
      </g>
     </g>
    </g>
    <g id="text_24">
     <!-- Timestep (hour) -->
     <g style="fill: #262626" transform="translate(553.582738 847.807237) scale(0.12 -0.12)">
      <defs>
       <path id="ArialMT-54" d="M 1659 0 
L 1659 4041 
L 150 4041 
L 150 4581 
L 3781 4581 
L 3781 4041 
L 2266 4041 
L 2266 0 
L 1659 0 
z
" transform="scale(0.015625)"/>
       <path id="ArialMT-6d" d="M 422 0 
L 422 3319 
L 925 3319 
L 925 2853 
Q 1081 3097 1340 3245 
Q 1600 3394 1931 3394 
Q 2300 3394 2536 3241 
Q 2772 3088 2869 2813 
Q 3263 3394 3894 3394 
Q 4388 3394 4653 3120 
Q 4919 2847 4919 2278 
L 4919 0 
L 4359 0 
L 4359 2091 
Q 4359 2428 4304 2576 
Q 4250 2725 4106 2815 
Q 3963 2906 3769 2906 
Q 3419 2906 3187 2673 
Q 2956 2441 2956 1928 
L 2956 0 
L 2394 0 
L 2394 2156 
Q 2394 2531 2256 2718 
Q 2119 2906 1806 2906 
Q 1569 2906 1367 2781 
Q 1166 2656 1075 2415 
Q 984 2175 984 1722 
L 984 0 
L 422 0 
z
" transform="scale(0.015625)"/>
       <path id="ArialMT-70" d="M 422 -1272 
L 422 3319 
L 934 3319 
L 934 2888 
Q 1116 3141 1344 3267 
Q 1572 3394 1897 3394 
Q 2322 3394 2647 3175 
Q 2972 2956 3137 2557 
Q 3303 2159 3303 1684 
Q 3303 1175 3120 767 
Q 2938 359 2589 142 
Q 2241 -75 1856 -75 
Q 1575 -75 1351 44 
Q 1128 163 984 344 
L 984 -1272 
L 422 -1272 
z
M 931 1641 
Q 931 1000 1190 694 
Q 1450 388 1819 388 
Q 2194 388 2461 705 
Q 2728 1022 2728 1688 
Q 2728 2322 2467 2637 
Q 2206 2953 1844 2953 
Q 1484 2953 1207 2617 
Q 931 2281 931 1641 
z
" transform="scale(0.015625)"/>
       <path id="ArialMT-75" d="M 2597 0 
L 2597 488 
Q 2209 -75 1544 -75 
Q 1250 -75 995 37 
Q 741 150 617 320 
Q 494 491 444 738 
Q 409 903 409 1263 
L 409 3319 
L 972 3319 
L 972 1478 
Q 972 1038 1006 884 
Q 1059 663 1231 536 
Q 1403 409 1656 409 
Q 1909 409 2131 539 
Q 2353 669 2445 892 
Q 2538 1116 2538 1541 
L 2538 3319 
L 3100 3319 
L 3100 0 
L 2597 0 
z
" transform="scale(0.015625)"/>
      </defs>
      <use xlink:href="#ArialMT-54"/>
      <use xlink:href="#ArialMT-69" transform="translate(57.333984 0)"/>
      <use xlink:href="#ArialMT-6d" transform="translate(79.550781 0)"/>
      <use xlink:href="#ArialMT-65" transform="translate(162.851562 0)"/>
      <use xlink:href="#ArialMT-73" transform="translate(218.466797 0)"/>
      <use xlink:href="#ArialMT-74" transform="translate(268.466797 0)"/>
      <use xlink:href="#ArialMT-65" transform="translate(296.25 0)"/>
      <use xlink:href="#ArialMT-70" transform="translate(351.865234 0)"/>
      <use xlink:href="#ArialMT-20" transform="translate(407.480469 0)"/>
      <use xlink:href="#ArialMT-28" transform="translate(435.263672 0)"/>
      <use xlink:href="#ArialMT-68" transform="translate(468.564453 0)"/>
      <use xlink:href="#ArialMT-6f" transform="translate(524.179688 0)"/>
      <use xlink:href="#ArialMT-75" transform="translate(579.794922 0)"/>
      <use xlink:href="#ArialMT-72" transform="translate(635.410156 0)"/>
      <use xlink:href="#ArialMT-29" transform="translate(668.710938 0)"/>
     </g>
    </g>
   </g>
   <g id="matplotlib.axis_6">
    <g id="ytick_11">
     <g id="line2d_67">
      <path d="M 51.41645 811.95428 
L 1139.983402 811.95428 
" clip-path="url(#pdc0d737be4)" style="fill: none; stroke: #cccccc; stroke-opacity: 0.3; stroke-width: 0.8; stroke-linecap: round"/>
     </g>
     <g id="line2d_68">
      <g>
       <use xlink:href="#m184d0707a7" x="51.41645" y="811.95428" style="fill: #262626; stroke: #262626"/>
      </g>
     </g>
     <g id="text_25">
      <!-- 0.0 -->
      <g style="fill: #262626" transform="translate(29.66125 815.418662) scale(0.0968 -0.0968)">
       <use xlink:href="#ArialMT-30"/>
       <use xlink:href="#ArialMT-2e" transform="translate(55.615234 0)"/>
       <use xlink:href="#ArialMT-30" transform="translate(83.398438 0)"/>
      </g>
     </g>
    </g>
    <g id="ytick_12">
     <g id="line2d_69">
      <path d="M 51.41645 764.615634 
L 1139.983402 764.615634 
" clip-path="url(#pdc0d737be4)" style="fill: none; stroke: #cccccc; stroke-opacity: 0.3; stroke-width: 0.8; stroke-linecap: round"/>
     </g>
     <g id="line2d_70">
      <g>
       <use xlink:href="#m184d0707a7" x="51.41645" y="764.615634" style="fill: #262626; stroke: #262626"/>
      </g>
     </g>
     <g id="text_26">
      <!-- 0.5 -->
      <g style="fill: #262626" transform="translate(29.66125 768.080015) scale(0.0968 -0.0968)">
       <use xlink:href="#ArialMT-30"/>
       <use xlink:href="#ArialMT-2e" transform="translate(55.615234 0)"/>
       <use xlink:href="#ArialMT-35" transform="translate(83.398438 0)"/>
      </g>
     </g>
    </g>
    <g id="ytick_13">
     <g id="line2d_71">
      <path d="M 51.41645 717.276987 
L 1139.983402 717.276987 
" clip-path="url(#pdc0d737be4)" style="fill: none; stroke: #cccccc; stroke-opacity: 0.3; stroke-width: 0.8; stroke-linecap: round"/>
     </g>
     <g id="line2d_72">
      <g>
       <use xlink:href="#m184d0707a7" x="51.41645" y="717.276987" style="fill: #262626; stroke: #262626"/>
      </g>
     </g>
     <g id="text_27">
      <!-- 1.0 -->
      <g style="fill: #262626" transform="translate(29.66125 720.741368) scale(0.0968 -0.0968)">
       <use xlink:href="#ArialMT-31"/>
       <use xlink:href="#ArialMT-2e" transform="translate(55.615234 0)"/>
       <use xlink:href="#ArialMT-30" transform="translate(83.398438 0)"/>
      </g>
     </g>
    </g>
    <g id="ytick_14">
     <g id="line2d_73">
      <path d="M 51.41645 669.93834 
L 1139.983402 669.93834 
" clip-path="url(#pdc0d737be4)" style="fill: none; stroke: #cccccc; stroke-opacity: 0.3; stroke-width: 0.8; stroke-linecap: round"/>
     </g>
     <g id="line2d_74">
      <g>
       <use xlink:href="#m184d0707a7" x="51.41645" y="669.93834" style="fill: #262626; stroke: #262626"/>
      </g>
     </g>
     <g id="text_28">
      <!-- 1.5 -->
      <g style="fill: #262626" transform="translate(29.66125 673.402721) scale(0.0968 -0.0968)">
       <use xlink:href="#ArialMT-31"/>
       <use xlink:href="#ArialMT-2e" transform="translate(55.615234 0)"/>
       <use xlink:href="#ArialMT-35" transform="translate(83.398438 0)"/>
      </g>
     </g>
    </g>
    <g id="ytick_15">
     <g id="line2d_75">
      <path d="M 51.41645 622.599693 
L 1139.983402 622.599693 
" clip-path="url(#pdc0d737be4)" style="fill: none; stroke: #cccccc; stroke-opacity: 0.3; stroke-width: 0.8; stroke-linecap: round"/>
     </g>
     <g id="line2d_76">
      <g>
       <use xlink:href="#m184d0707a7" x="51.41645" y="622.599693" style="fill: #262626; stroke: #262626"/>
      </g>
     </g>
     <g id="text_29">
      <!-- 2.0 -->
      <g style="fill: #262626" transform="translate(29.66125 626.064074) scale(0.0968 -0.0968)">
       <use xlink:href="#ArialMT-32"/>
       <use xlink:href="#ArialMT-2e" transform="translate(55.615234 0)"/>
       <use xlink:href="#ArialMT-30" transform="translate(83.398438 0)"/>
      </g>
     </g>
    </g>
    <g id="text_30">
     <!-- Generation (GW) -->
     <g style="fill: #262626" transform="translate(23.135625 751.1192) rotate(-90) scale(0.12 -0.12)">
      <use xlink:href="#ArialMT-47"/>
      <use xlink:href="#ArialMT-65" transform="translate(77.783203 0)"/>
      <use xlink:href="#ArialMT-6e" transform="translate(133.398438 0)"/>
      <use xlink:href="#ArialMT-65" transform="translate(189.013672 0)"/>
      <use xlink:href="#ArialMT-72" transform="translate(244.628906 0)"/>
      <use xlink:href="#ArialMT-61" transform="translate(277.929688 0)"/>
      <use xlink:href="#ArialMT-74" transform="translate(333.544922 0)"/>
      <use xlink:href="#ArialMT-69" transform="translate(361.328125 0)"/>
      <use xlink:href="#ArialMT-6f" transform="translate(383.544922 0)"/>
      <use xlink:href="#ArialMT-6e" transform="translate(439.160156 0)"/>
      <use xlink:href="#ArialMT-20" transform="translate(494.775391 0)"/>
      <use xlink:href="#ArialMT-28" transform="translate(522.558594 0)"/>
      <use xlink:href="#ArialMT-47" transform="translate(555.859375 0)"/>
      <use xlink:href="#ArialMT-57" transform="translate(633.642578 0)"/>
      <use xlink:href="#ArialMT-29" transform="translate(728.027344 0)"/>
     </g>
    </g>
   </g>
   <g id="line2d_77">
    <path d="M 100.896766 782.130933 
L 104.344872 790.651889 
L 114.689189 803.433324 
L 118.137294 799.172846 
L 121.5854 799.172846 
L 125.033505 806.415659 
L 128.481611 799.172846 
L 131.929717 801.729133 
L 135.377822 797.468655 
L 138.825928 799.172846 
L 145.722139 807.693802 
L 149.170245 805.563563 
L 152.618351 807.693802 
L 156.066456 807.693802 
L 159.514562 799.172846 
L 173.306985 782.130933 
L 176.75509 782.130933 
L 180.203196 777.870455 
L 183.651301 679.879456 
L 193.995618 692.66089 
L 197.443724 679.879456 
L 200.89183 679.879456 
L 204.339935 667.098021 
L 207.788041 658.577065 
L 211.236147 654.316586 
L 218.132358 654.316586 
L 221.580464 650.056108 
L 231.92478 624.493239 
L 235.372886 624.493239 
L 238.820992 620.232761 
L 242.269097 620.232761 
L 249.165309 611.711804 
L 252.613414 620.232761 
L 256.06152 658.577065 
L 259.509626 675.618977 
L 262.957731 679.879456 
L 266.405837 667.098021 
L 273.302048 675.618977 
L 276.750154 675.618977 
L 280.198259 679.879456 
L 283.646365 688.400412 
L 287.094471 692.66089 
L 290.542576 688.400412 
L 293.990682 688.400412 
L 297.438788 696.921369 
L 300.886893 713.963281 
L 304.334999 726.744716 
L 307.783105 735.265673 
L 311.23121 731.005194 
L 314.679316 713.963281 
L 321.575527 696.921369 
L 328.471738 688.400412 
L 342.264161 688.400412 
L 345.712267 692.66089 
L 349.160372 726.744716 
L 352.608478 726.744716 
L 356.056584 718.22376 
L 362.952795 709.702803 
L 373.297112 709.702803 
L 380.193323 718.22376 
L 383.641429 726.744716 
L 387.089534 743.786629 
L 390.53764 765.08902 
L 393.985746 777.870455 
L 397.433851 782.130933 
L 400.881957 782.130933 
L 404.330063 777.870455 
L 407.778168 769.349498 
L 411.226274 743.786629 
L 418.122485 701.181847 
L 421.570591 696.921369 
L 425.018696 696.921369 
L 428.466802 701.181847 
L 431.914908 628.753717 
L 435.363013 624.493239 
L 438.811119 624.493239 
L 442.259225 615.972282 
L 445.70733 611.711804 
L 452.603542 611.711804 
L 456.051647 603.190848 
L 459.499753 611.711804 
L 462.947859 624.493239 
L 466.395964 641.535152 
L 469.84407 679.879456 
L 473.292176 748.047107 
L 476.740281 760.828542 
L 480.188387 765.08902 
L 483.636492 760.828542 
L 487.084598 769.349498 
L 490.532704 769.349498 
L 493.980809 760.828542 
L 497.428915 735.265673 
L 500.877021 731.005194 
L 504.325126 735.265673 
L 511.221338 752.307585 
L 514.669443 709.702803 
L 518.117549 713.963281 
L 521.565655 713.963281 
L 525.01376 718.22376 
L 528.461866 718.22376 
L 531.909971 722.484238 
L 535.358077 722.484238 
L 538.806183 726.744716 
L 542.254288 735.265673 
L 545.702394 739.526151 
L 549.1505 760.828542 
L 552.598605 777.870455 
L 556.046711 782.130933 
L 559.494817 782.130933 
L 566.391028 773.609977 
L 569.839134 773.609977 
L 573.287239 765.08902 
L 580.18345 773.609977 
L 583.631556 765.08902 
L 587.079662 769.349498 
L 590.527767 769.349498 
L 593.975873 773.609977 
L 597.423979 718.22376 
L 600.872084 701.181847 
L 604.32019 696.921369 
L 607.768296 696.921369 
L 611.216401 701.181847 
L 618.112613 684.139934 
L 621.560718 671.358499 
L 625.008824 667.098021 
L 628.456929 684.139934 
L 631.905035 679.879456 
L 635.353141 692.66089 
L 638.801246 701.181847 
L 642.249352 705.442325 
L 649.145563 722.484238 
L 652.593669 718.22376 
L 666.386092 735.265673 
L 669.834197 731.005194 
L 676.730408 731.005194 
L 680.178514 688.400412 
L 690.522831 701.181847 
L 693.970937 692.66089 
L 700.867148 684.139934 
L 704.315254 675.618977 
L 707.763359 679.879456 
L 711.211465 696.921369 
L 714.659571 696.921369 
L 718.107676 688.400412 
L 721.555782 692.66089 
L 725.003887 692.66089 
L 728.451993 688.400412 
L 731.900099 675.618977 
L 735.348204 667.098021 
L 738.79631 671.358499 
L 742.244416 671.358499 
L 745.692521 679.879456 
L 749.140627 701.181847 
L 752.588733 726.744716 
L 756.036838 735.265673 
L 759.484944 739.526151 
L 762.93305 735.265673 
L 766.381155 739.526151 
L 773.277367 731.005194 
L 776.725472 731.005194 
L 780.173578 726.744716 
L 783.621683 731.005194 
L 787.069789 726.744716 
L 793.966 726.744716 
L 797.414106 722.484238 
L 800.862212 713.963281 
L 804.310317 709.702803 
L 807.758423 713.963281 
L 811.206529 713.963281 
L 814.654634 705.442325 
L 818.10274 705.442325 
L 821.550846 701.181847 
L 824.998951 701.181847 
L 828.447057 705.442325 
L 831.895162 713.963281 
L 835.343268 709.702803 
L 842.239479 735.265673 
L 845.687585 760.828542 
L 852.583796 769.349498 
L 856.031902 769.349498 
L 859.480008 756.568064 
L 862.928113 752.307585 
L 869.824325 752.307585 
L 880.168641 777.870455 
L 883.616747 777.870455 
L 887.064853 773.609977 
L 893.961064 748.047107 
L 897.40917 731.005194 
L 900.857275 722.484238 
L 911.201592 722.484238 
L 924.994015 739.526151 
L 928.44212 718.22376 
L 938.786437 731.005194 
L 942.234543 726.744716 
L 945.682649 718.22376 
L 952.57886 692.66089 
L 959.475071 684.139934 
L 962.923177 684.139934 
L 966.371283 679.879456 
L 969.819388 692.66089 
L 973.267494 696.921369 
L 976.715599 692.66089 
L 980.163705 662.837543 
L 987.059916 645.79563 
L 993.956128 671.358499 
L 997.404233 667.098021 
L 1000.852339 667.098021 
L 1007.74855 675.618977 
L 1011.196656 607.451326 
L 1014.644762 615.972282 
L 1018.092867 611.711804 
L 1021.540973 624.493239 
L 1024.989078 633.014195 
L 1035.333395 671.358499 
L 1038.781501 679.879456 
L 1052.573924 748.047107 
L 1056.022029 756.568064 
L 1062.918241 756.568064 
L 1066.366346 752.307585 
L 1069.814452 752.307585 
L 1073.262558 748.047107 
L 1080.158769 748.047107 
L 1083.606874 743.786629 
L 1087.05498 748.047107 
L 1090.503086 743.786629 
L 1090.503086 743.786629 
" clip-path="url(#pdc0d737be4)" style="fill: none; stroke: #2e8b57; stroke-width: 1.5; stroke-linecap: round"/>
   </g>
   <g id="patch_13">
    <path d="M 51.41645 817.91895 
L 51.41645 592.9657 
" style="fill: none; stroke: #cccccc; stroke-linejoin: miter; stroke-linecap: square"/>
   </g>
   <g id="patch_14">
    <path d="M 1139.983402 817.91895 
L 1139.983402 592.9657 
" style="fill: none; stroke: #cccccc; stroke-linejoin: miter; stroke-linecap: square"/>
   </g>
   <g id="patch_15">
    <path d="M 51.41645 817.91895 
L 1139.983402 817.91895 
" style="fill: none; stroke: #cccccc; stroke-linejoin: miter; stroke-linecap: square"/>
   </g>
   <g id="patch_16">
    <path d="M 51.41645 592.9657 
L 1139.983402 592.9657 
" style="fill: none; stroke: #cccccc; stroke-linejoin: miter; stroke-linecap: square"/>
   </g>
   <g id="text_31">
    <!-- Scenario 7 - 7.EOM El.+ RO+ CVAR -->
    <g style="fill: #262626" transform="translate(482.621488 586.9657) scale(0.14 -0.14)">
     <defs>
      <path id="ArialMT-37" d="M 303 3981 
L 303 4522 
L 3269 4522 
L 3269 4084 
Q 2831 3619 2401 2847 
Q 1972 2075 1738 1259 
Q 1569 684 1522 0 
L 944 0 
Q 953 541 1156 1306 
Q 1359 2072 1739 2783 
Q 2119 3494 2547 3981 
L 303 3981 
z
" transform="scale(0.015625)"/>
     </defs>
     <use xlink:href="#ArialMT-53"/>
     <use xlink:href="#ArialMT-63" transform="translate(66.699219 0)"/>
     <use xlink:href="#ArialMT-65" transform="translate(116.699219 0)"/>
     <use xlink:href="#ArialMT-6e" transform="translate(172.314453 0)"/>
     <use xlink:href="#ArialMT-61" transform="translate(227.929688 0)"/>
     <use xlink:href="#ArialMT-72" transform="translate(283.544922 0)"/>
     <use xlink:href="#ArialMT-69" transform="translate(316.845703 0)"/>
     <use xlink:href="#ArialMT-6f" transform="translate(339.0625 0)"/>
     <use xlink:href="#ArialMT-20" transform="translate(394.677734 0)"/>
     <use xlink:href="#ArialMT-37" transform="translate(422.460938 0)"/>
     <use xlink:href="#ArialMT-20" transform="translate(478.076172 0)"/>
     <use xlink:href="#ArialMT-2d" transform="translate(505.859375 0)"/>
     <use xlink:href="#ArialMT-20" transform="translate(539.160156 0)"/>
     <use xlink:href="#ArialMT-37" transform="translate(566.943359 0)"/>
     <use xlink:href="#ArialMT-2e" transform="translate(622.558594 0)"/>
     <use xlink:href="#ArialMT-45" transform="translate(650.341797 0)"/>
     <use xlink:href="#ArialMT-4f" transform="translate(717.041016 0)"/>
     <use xlink:href="#ArialMT-4d" transform="translate(794.824219 0)"/>
     <use xlink:href="#ArialMT-20" transform="translate(878.125 0)"/>
     <use xlink:href="#ArialMT-45" transform="translate(905.908203 0)"/>
     <use xlink:href="#ArialMT-6c" transform="translate(972.607422 0)"/>
     <use xlink:href="#ArialMT-2e" transform="translate(994.824219 0)"/>
     <use xlink:href="#ArialMT-2b" transform="translate(1022.607422 0)"/>
     <use xlink:href="#ArialMT-20" transform="translate(1081.005859 0)"/>
     <use xlink:href="#ArialMT-52" transform="translate(1108.789062 0)"/>
     <use xlink:href="#ArialMT-4f" transform="translate(1181.005859 0)"/>
     <use xlink:href="#ArialMT-2b" transform="translate(1258.789062 0)"/>
     <use xlink:href="#ArialMT-20" transform="translate(1317.1875 0)"/>
     <use xlink:href="#ArialMT-43" transform="translate(1344.970703 0)"/>
     <use xlink:href="#ArialMT-56" transform="translate(1417.1875 0)"/>
     <use xlink:href="#ArialMT-41" transform="translate(1476.511719 0)"/>
     <use xlink:href="#ArialMT-52" transform="translate(1543.210938 0)"/>
    </g>
   </g>
   <g id="legend_3">
    <g id="line2d_78">
     <path d="M 982.938089 605.751637 
L 992.938089 605.751637 
L 1002.938089 605.751637 
" style="fill: none; stroke: #2e8b57; stroke-width: 1.5; stroke-linecap: round"/>
    </g>
    <g id="text_32">
     <!-- Generation (WindOnshore) -->
     <g style="fill: #262626" transform="translate(1010.938089 609.251637) scale(0.1 -0.1)">
      <use xlink:href="#ArialMT-47"/>
      <use xlink:href="#ArialMT-65" transform="translate(77.783203 0)"/>
      <use xlink:href="#ArialMT-6e" transform="translate(133.398438 0)"/>
      <use xlink:href="#ArialMT-65" transform="translate(189.013672 0)"/>
      <use xlink:href="#ArialMT-72" transform="translate(244.628906 0)"/>
      <use xlink:href="#ArialMT-61" transform="translate(277.929688 0)"/>
      <use xlink:href="#ArialMT-74" transform="translate(333.544922 0)"/>
      <use xlink:href="#ArialMT-69" transform="translate(361.328125 0)"/>
      <use xlink:href="#ArialMT-6f" transform="translate(383.544922 0)"/>
      <use xlink:href="#ArialMT-6e" transform="translate(439.160156 0)"/>
      <use xlink:href="#ArialMT-20" transform="translate(494.775391 0)"/>
      <use xlink:href="#ArialMT-28" transform="translate(522.558594 0)"/>
      <use xlink:href="#ArialMT-57" transform="translate(555.859375 0)"/>
      <use xlink:href="#ArialMT-69" transform="translate(650.244141 0)"/>
      <use xlink:href="#ArialMT-6e" transform="translate(672.460938 0)"/>
      <use xlink:href="#ArialMT-64" transform="translate(728.076172 0)"/>
      <use xlink:href="#ArialMT-4f" transform="translate(783.691406 0)"/>
      <use xlink:href="#ArialMT-6e" transform="translate(861.474609 0)"/>
      <use xlink:href="#ArialMT-73" transform="translate(917.089844 0)"/>
      <use xlink:href="#ArialMT-68" transform="translate(967.089844 0)"/>
      <use xlink:href="#ArialMT-6f" transform="translate(1022.705078 0)"/>
      <use xlink:href="#ArialMT-72" transform="translate(1078.320312 0)"/>
      <use xlink:href="#ArialMT-65" transform="translate(1111.621094 0)"/>
      <use xlink:href="#ArialMT-29" transform="translate(1167.236328 0)"/>
     </g>
    </g>
   </g>
  </g>
  <g id="text_33">
   <!-- Generation Timeseries by Generator: WindOnshore -->
   <g style="fill: #262626" transform="translate(373.954306 27.514687) scale(0.18 -0.18)">
    <defs>
     <path id="ArialMT-62" d="M 941 0 
L 419 0 
L 419 4581 
L 981 4581 
L 981 2947 
Q 1338 3394 1891 3394 
Q 2197 3394 2470 3270 
Q 2744 3147 2920 2923 
Q 3097 2700 3197 2384 
Q 3297 2069 3297 1709 
Q 3297 856 2875 390 
Q 2453 -75 1863 -75 
Q 1275 -75 941 416 
L 941 0 
z
M 934 1684 
Q 934 1088 1097 822 
Q 1363 388 1816 388 
Q 2184 388 2453 708 
Q 2722 1028 2722 1663 
Q 2722 2313 2464 2622 
Q 2206 2931 1841 2931 
Q 1472 2931 1203 2611 
Q 934 2291 934 1684 
z
" transform="scale(0.015625)"/>
     <path id="ArialMT-79" d="M 397 -1278 
L 334 -750 
Q 519 -800 656 -800 
Q 844 -800 956 -737 
Q 1069 -675 1141 -563 
Q 1194 -478 1313 -144 
Q 1328 -97 1363 -6 
L 103 3319 
L 709 3319 
L 1400 1397 
Q 1534 1031 1641 628 
Q 1738 1016 1872 1384 
L 2581 3319 
L 3144 3319 
L 1881 -56 
Q 1678 -603 1566 -809 
Q 1416 -1088 1222 -1217 
Q 1028 -1347 759 -1347 
Q 597 -1347 397 -1278 
z
" transform="scale(0.015625)"/>
     <path id="ArialMT-3a" d="M 578 2678 
L 578 3319 
L 1219 3319 
L 1219 2678 
L 578 2678 
z
M 578 0 
L 578 641 
L 1219 641 
L 1219 0 
L 578 0 
z
" transform="scale(0.015625)"/>
    </defs>
    <use xlink:href="#ArialMT-47"/>
    <use xlink:href="#ArialMT-65" transform="translate(77.783203 0)"/>
    <use xlink:href="#ArialMT-6e" transform="translate(133.398438 0)"/>
    <use xlink:href="#ArialMT-65" transform="translate(189.013672 0)"/>
    <use xlink:href="#ArialMT-72" transform="translate(244.628906 0)"/>
    <use xlink:href="#ArialMT-61" transform="translate(277.929688 0)"/>
    <use xlink:href="#ArialMT-74" transform="translate(333.544922 0)"/>
    <use xlink:href="#ArialMT-69" transform="translate(361.328125 0)"/>
    <use xlink:href="#ArialMT-6f" transform="translate(383.544922 0)"/>
    <use xlink:href="#ArialMT-6e" transform="translate(439.160156 0)"/>
    <use xlink:href="#ArialMT-20" transform="translate(494.775391 0)"/>
    <use xlink:href="#ArialMT-54" transform="translate(520.808594 0)"/>
    <use xlink:href="#ArialMT-69" transform="translate(578.142578 0)"/>
    <use xlink:href="#ArialMT-6d" transform="translate(600.359375 0)"/>
    <use xlink:href="#ArialMT-65" transform="translate(683.660156 0)"/>
    <use xlink:href="#ArialMT-73" transform="translate(739.275391 0)"/>
    <use xlink:href="#ArialMT-65" transform="translate(789.275391 0)"/>
    <use xlink:href="#ArialMT-72" transform="translate(844.890625 0)"/>
    <use xlink:href="#ArialMT-69" transform="translate(878.191406 0)"/>
    <use xlink:href="#ArialMT-65" transform="translate(900.408203 0)"/>
    <use xlink:href="#ArialMT-73" transform="translate(956.023438 0)"/>
    <use xlink:href="#ArialMT-20" transform="translate(1006.023438 0)"/>
    <use xlink:href="#ArialMT-62" transform="translate(1033.806641 0)"/>
    <use xlink:href="#ArialMT-79" transform="translate(1089.421875 0)"/>
    <use xlink:href="#ArialMT-20" transform="translate(1139.421875 0)"/>
    <use xlink:href="#ArialMT-47" transform="translate(1167.205078 0)"/>
    <use xlink:href="#ArialMT-65" transform="translate(1244.988281 0)"/>
    <use xlink:href="#ArialMT-6e" transform="translate(1300.603516 0)"/>
    <use xlink:href="#ArialMT-65" transform="translate(1356.21875 0)"/>
    <use xlink:href="#ArialMT-72" transform="translate(1411.833984 0)"/>
    <use xlink:href="#ArialMT-61" transform="translate(1445.134766 0)"/>
    <use xlink:href="#ArialMT-74" transform="translate(1500.75 0)"/>
    <use xlink:href="#ArialMT-6f" transform="translate(1528.533203 0)"/>
    <use xlink:href="#ArialMT-72" transform="translate(1584.148438 0)"/>
    <use xlink:href="#ArialMT-3a" transform="translate(1617.449219 0)"/>
    <use xlink:href="#ArialMT-20" transform="translate(1645.232422 0)"/>
    <use xlink:href="#ArialMT-57" transform="translate(1673.015625 0)"/>
    <use xlink:href="#ArialMT-69" transform="translate(1767.400391 0)"/>
    <use xlink:href="#ArialMT-6e" transform="translate(1789.617188 0)"/>
    <use xlink:href="#ArialMT-64" transform="translate(1845.232422 0)"/>
    <use xlink:href="#ArialMT-4f" transform="translate(1900.847656 0)"/>
    <use xlink:href="#ArialMT-6e" transform="translate(1978.630859 0)"/>
    <use xlink:href="#ArialMT-73" transform="translate(2034.246094 0)"/>
    <use xlink:href="#ArialMT-68" transform="translate(2084.246094 0)"/>
    <use xlink:href="#ArialMT-6f" transform="translate(2139.861328 0)"/>
    <use xlink:href="#ArialMT-72" transform="translate(2195.476562 0)"/>
    <use xlink:href="#ArialMT-65" transform="translate(2228.777344 0)"/>
   </g>
  </g>
 </g>
 <defs>
  <clipPath id="p67d75bf2a9">
   <rect x="51.41645" y="78.4896" width="1088.566952" height="224.95325"/>
  </clipPath>
  <clipPath id="p704cc14763">
   <rect x="51.41645" y="335.72765" width="1088.566952" height="224.95325"/>
  </clipPath>
  <clipPath id="pdc0d737be4">
   <rect x="51.41645" y="592.9657" width="1088.566952" height="224.95325"/>
  </clipPath>
 </defs>
</svg>
