<?xml version="1.0" encoding="utf-8" standalone="no"?>
<!DOCTYPE svg PUBLIC "-//W3C//DTD SVG 1.1//EN"
  "http://www.w3.org/Graphics/SVG/1.1/DTD/svg11.dtd">
<svg xmlns:xlink="http://www.w3.org/1999/xlink" width="1157.713325pt" height="864.732862pt" viewBox="0 0 1157.713325 864.732862" xmlns="http://www.w3.org/2000/svg" version="1.1">
 <metadata>
  <rdf:RDF xmlns:dc="http://purl.org/dc/elements/1.1/" xmlns:cc="http://creativecommons.org/ns#" xmlns:rdf="http://www.w3.org/1999/02/22-rdf-syntax-ns#">
   <cc:Work>
    <dc:type rdf:resource="http://purl.org/dc/dcmitype/StillImage"/>
    <dc:date>2025-11-30T21:17:38.618889</dc:date>
    <dc:format>image/svg+xml</dc:format>
    <dc:creator>
     <cc:Agent>
      <dc:title>Matplotlib v3.10.3, https://matplotlib.org/</dc:title>
     </cc:Agent>
    </dc:creator>
   </cc:Work>
  </rdf:RDF>
 </metadata>
 <defs>
  <style type="text/css">*{stroke-linejoin: round; stroke-linecap: butt}</style>
 </defs>
 <g id="figure_1">
  <g id="patch_1">
   <path d="M 0 864.732862 
L 1157.713325 864.732862 
L 1157.713325 0 
L 0 0 
z
" style="fill: #ffffff"/>
  </g>
  <g id="axes_1">
   <g id="patch_2">
    <path d="M 51.41645 303.44285 
L 1139.893402 303.44285 
L 1139.893402 78.4896 
L 51.41645 78.4896 
z
" style="fill: #ffffff"/>
   </g>
   <g id="matplotlib.axis_1">
    <g id="xtick_1">
     <g id="line2d_1">
      <path d="M 100.892675 303.44285 
L 100.892675 78.4896 
" clip-path="url(#p02a3d0dfdf)" style="fill: none; stroke: #cccccc; stroke-opacity: 0.3; stroke-width: 0.8; stroke-linecap: round"/>
     </g>
     <g id="line2d_2">
      <defs>
       <path id="m9211e2d14b" d="M 0 0 
L 0 4.8 
" style="stroke: #262626"/>
      </defs>
      <g>
       <use xlink:href="#m9211e2d14b" x="100.892675" y="303.44285" style="fill: #262626; stroke: #262626"/>
      </g>
     </g>
    </g>
    <g id="xtick_2">
     <g id="line2d_3">
      <path d="M 273.283703 303.44285 
L 273.283703 78.4896 
" clip-path="url(#p02a3d0dfdf)" style="fill: none; stroke: #cccccc; stroke-opacity: 0.3; stroke-width: 0.8; stroke-linecap: round"/>
     </g>
     <g id="line2d_4">
      <g>
       <use xlink:href="#m9211e2d14b" x="273.283703" y="303.44285" style="fill: #262626; stroke: #262626"/>
      </g>
     </g>
    </g>
    <g id="xtick_3">
     <g id="line2d_5">
      <path d="M 445.674731 303.44285 
L 445.674731 78.4896 
" clip-path="url(#p02a3d0dfdf)" style="fill: none; stroke: #cccccc; stroke-opacity: 0.3; stroke-width: 0.8; stroke-linecap: round"/>
     </g>
     <g id="line2d_6">
      <g>
       <use xlink:href="#m9211e2d14b" x="445.674731" y="303.44285" style="fill: #262626; stroke: #262626"/>
      </g>
     </g>
    </g>
    <g id="xtick_4">
     <g id="line2d_7">
      <path d="M 618.06576 303.44285 
L 618.06576 78.4896 
" clip-path="url(#p02a3d0dfdf)" style="fill: none; stroke: #cccccc; stroke-opacity: 0.3; stroke-width: 0.8; stroke-linecap: round"/>
     </g>
     <g id="line2d_8">
      <g>
       <use xlink:href="#m9211e2d14b" x="618.06576" y="303.44285" style="fill: #262626; stroke: #262626"/>
      </g>
     </g>
    </g>
    <g id="xtick_5">
     <g id="line2d_9">
      <path d="M 790.456788 303.44285 
L 790.456788 78.4896 
" clip-path="url(#p02a3d0dfdf)" style="fill: none; stroke: #cccccc; stroke-opacity: 0.3; stroke-width: 0.8; stroke-linecap: round"/>
     </g>
     <g id="line2d_10">
      <g>
       <use xlink:href="#m9211e2d14b" x="790.456788" y="303.44285" style="fill: #262626; stroke: #262626"/>
      </g>
     </g>
    </g>
    <g id="xtick_6">
     <g id="line2d_11">
      <path d="M 962.847816 303.44285 
L 962.847816 78.4896 
" clip-path="url(#p02a3d0dfdf)" style="fill: none; stroke: #cccccc; stroke-opacity: 0.3; stroke-width: 0.8; stroke-linecap: round"/>
     </g>
     <g id="line2d_12">
      <g>
       <use xlink:href="#m9211e2d14b" x="962.847816" y="303.44285" style="fill: #262626; stroke: #262626"/>
      </g>
     </g>
    </g>
    <g id="xtick_7">
     <g id="line2d_13">
      <path d="M 1135.238844 303.44285 
L 1135.238844 78.4896 
" clip-path="url(#p02a3d0dfdf)" style="fill: none; stroke: #cccccc; stroke-opacity: 0.3; stroke-width: 0.8; stroke-linecap: round"/>
     </g>
     <g id="line2d_14">
      <g>
       <use xlink:href="#m9211e2d14b" x="1135.238844" y="303.44285" style="fill: #262626; stroke: #262626"/>
      </g>
     </g>
    </g>
   </g>
   <g id="matplotlib.axis_2">
    <g id="ytick_1">
     <g id="line2d_15">
      <path d="M 51.41645 289.207211 
L 1139.893402 289.207211 
" clip-path="url(#p02a3d0dfdf)" style="fill: none; stroke: #cccccc; stroke-opacity: 0.3; stroke-width: 0.8; stroke-linecap: round"/>
     </g>
     <g id="line2d_16">
      <defs>
       <path id="mb4680be2be" d="M 0 0 
L -4.8 0 
" style="stroke: #262626"/>
      </defs>
      <g>
       <use xlink:href="#mb4680be2be" x="51.41645" y="289.207211" style="fill: #262626; stroke: #262626"/>
      </g>
     </g>
     <g id="text_1">
      <!-- 2.5 -->
      <g style="fill: #262626" transform="translate(29.66125 292.671593) scale(0.0968 -0.0968)">
       <defs>
        <path id="ArialMT-32" d="M 3222 541 
L 3222 0 
L 194 0 
Q 188 203 259 391 
Q 375 700 629 1000 
Q 884 1300 1366 1694 
Q 2113 2306 2375 2664 
Q 2638 3022 2638 3341 
Q 2638 3675 2398 3904 
Q 2159 4134 1775 4134 
Q 1369 4134 1125 3890 
Q 881 3647 878 3216 
L 300 3275 
Q 359 3922 746 4261 
Q 1134 4600 1788 4600 
Q 2447 4600 2831 4234 
Q 3216 3869 3216 3328 
Q 3216 3053 3103 2787 
Q 2991 2522 2730 2228 
Q 2469 1934 1863 1422 
Q 1356 997 1212 845 
Q 1069 694 975 541 
L 3222 541 
z
" transform="scale(0.015625)"/>
        <path id="ArialMT-2e" d="M 581 0 
L 581 641 
L 1222 641 
L 1222 0 
L 581 0 
z
" transform="scale(0.015625)"/>
        <path id="ArialMT-35" d="M 266 1200 
L 856 1250 
Q 922 819 1161 601 
Q 1400 384 1738 384 
Q 2144 384 2425 690 
Q 2706 997 2706 1503 
Q 2706 1984 2436 2262 
Q 2166 2541 1728 2541 
Q 1456 2541 1237 2417 
Q 1019 2294 894 2097 
L 366 2166 
L 809 4519 
L 3088 4519 
L 3088 3981 
L 1259 3981 
L 1013 2750 
Q 1425 3038 1878 3038 
Q 2478 3038 2890 2622 
Q 3303 2206 3303 1553 
Q 3303 931 2941 478 
Q 2500 -78 1738 -78 
Q 1113 -78 717 272 
Q 322 622 266 1200 
z
" transform="scale(0.015625)"/>
       </defs>
       <use xlink:href="#ArialMT-32"/>
       <use xlink:href="#ArialMT-2e" transform="translate(55.615234 0)"/>
       <use xlink:href="#ArialMT-35" transform="translate(83.398438 0)"/>
      </g>
     </g>
    </g>
    <g id="ytick_2">
     <g id="line2d_17">
      <path d="M 51.41645 261.067365 
L 1139.893402 261.067365 
" clip-path="url(#p02a3d0dfdf)" style="fill: none; stroke: #cccccc; stroke-opacity: 0.3; stroke-width: 0.8; stroke-linecap: round"/>
     </g>
     <g id="line2d_18">
      <g>
       <use xlink:href="#mb4680be2be" x="51.41645" y="261.067365" style="fill: #262626; stroke: #262626"/>
      </g>
     </g>
     <g id="text_2">
      <!-- 3.0 -->
      <g style="fill: #262626" transform="translate(29.66125 264.531747) scale(0.0968 -0.0968)">
       <defs>
        <path id="ArialMT-33" d="M 269 1209 
L 831 1284 
Q 928 806 1161 595 
Q 1394 384 1728 384 
Q 2125 384 2398 659 
Q 2672 934 2672 1341 
Q 2672 1728 2419 1979 
Q 2166 2231 1775 2231 
Q 1616 2231 1378 2169 
L 1441 2663 
Q 1497 2656 1531 2656 
Q 1891 2656 2178 2843 
Q 2466 3031 2466 3422 
Q 2466 3731 2256 3934 
Q 2047 4138 1716 4138 
Q 1388 4138 1169 3931 
Q 950 3725 888 3313 
L 325 3413 
Q 428 3978 793 4289 
Q 1159 4600 1703 4600 
Q 2078 4600 2393 4439 
Q 2709 4278 2876 4000 
Q 3044 3722 3044 3409 
Q 3044 3113 2884 2869 
Q 2725 2625 2413 2481 
Q 2819 2388 3044 2092 
Q 3269 1797 3269 1353 
Q 3269 753 2831 336 
Q 2394 -81 1725 -81 
Q 1122 -81 723 278 
Q 325 638 269 1209 
z
" transform="scale(0.015625)"/>
        <path id="ArialMT-30" d="M 266 2259 
Q 266 3072 433 3567 
Q 600 4063 929 4331 
Q 1259 4600 1759 4600 
Q 2128 4600 2406 4451 
Q 2684 4303 2865 4023 
Q 3047 3744 3150 3342 
Q 3253 2941 3253 2259 
Q 3253 1453 3087 958 
Q 2922 463 2592 192 
Q 2263 -78 1759 -78 
Q 1097 -78 719 397 
Q 266 969 266 2259 
z
M 844 2259 
Q 844 1131 1108 757 
Q 1372 384 1759 384 
Q 2147 384 2411 759 
Q 2675 1134 2675 2259 
Q 2675 3391 2411 3762 
Q 2147 4134 1753 4134 
Q 1366 4134 1134 3806 
Q 844 3388 844 2259 
z
" transform="scale(0.015625)"/>
       </defs>
       <use xlink:href="#ArialMT-33"/>
       <use xlink:href="#ArialMT-2e" transform="translate(55.615234 0)"/>
       <use xlink:href="#ArialMT-30" transform="translate(83.398438 0)"/>
      </g>
     </g>
    </g>
    <g id="ytick_3">
     <g id="line2d_19">
      <path d="M 51.41645 232.927519 
L 1139.893402 232.927519 
" clip-path="url(#p02a3d0dfdf)" style="fill: none; stroke: #cccccc; stroke-opacity: 0.3; stroke-width: 0.8; stroke-linecap: round"/>
     </g>
     <g id="line2d_20">
      <g>
       <use xlink:href="#mb4680be2be" x="51.41645" y="232.927519" style="fill: #262626; stroke: #262626"/>
      </g>
     </g>
     <g id="text_3">
      <!-- 3.5 -->
      <g style="fill: #262626" transform="translate(29.66125 236.391901) scale(0.0968 -0.0968)">
       <use xlink:href="#ArialMT-33"/>
       <use xlink:href="#ArialMT-2e" transform="translate(55.615234 0)"/>
       <use xlink:href="#ArialMT-35" transform="translate(83.398438 0)"/>
      </g>
     </g>
    </g>
    <g id="ytick_4">
     <g id="line2d_21">
      <path d="M 51.41645 204.787673 
L 1139.893402 204.787673 
" clip-path="url(#p02a3d0dfdf)" style="fill: none; stroke: #cccccc; stroke-opacity: 0.3; stroke-width: 0.8; stroke-linecap: round"/>
     </g>
     <g id="line2d_22">
      <g>
       <use xlink:href="#mb4680be2be" x="51.41645" y="204.787673" style="fill: #262626; stroke: #262626"/>
      </g>
     </g>
     <g id="text_4">
      <!-- 4.0 -->
      <g style="fill: #262626" transform="translate(29.66125 208.252054) scale(0.0968 -0.0968)">
       <defs>
        <path id="ArialMT-34" d="M 2069 0 
L 2069 1097 
L 81 1097 
L 81 1613 
L 2172 4581 
L 2631 4581 
L 2631 1613 
L 3250 1613 
L 3250 1097 
L 2631 1097 
L 2631 0 
L 2069 0 
z
M 2069 1613 
L 2069 3678 
L 634 1613 
L 2069 1613 
z
" transform="scale(0.015625)"/>
       </defs>
       <use xlink:href="#ArialMT-34"/>
       <use xlink:href="#ArialMT-2e" transform="translate(55.615234 0)"/>
       <use xlink:href="#ArialMT-30" transform="translate(83.398438 0)"/>
      </g>
     </g>
    </g>
    <g id="ytick_5">
     <g id="line2d_23">
      <path d="M 51.41645 176.647827 
L 1139.893402 176.647827 
" clip-path="url(#p02a3d0dfdf)" style="fill: none; stroke: #cccccc; stroke-opacity: 0.3; stroke-width: 0.8; stroke-linecap: round"/>
     </g>
     <g id="line2d_24">
      <g>
       <use xlink:href="#mb4680be2be" x="51.41645" y="176.647827" style="fill: #262626; stroke: #262626"/>
      </g>
     </g>
     <g id="text_5">
      <!-- 4.5 -->
      <g style="fill: #262626" transform="translate(29.66125 180.112208) scale(0.0968 -0.0968)">
       <use xlink:href="#ArialMT-34"/>
       <use xlink:href="#ArialMT-2e" transform="translate(55.615234 0)"/>
       <use xlink:href="#ArialMT-35" transform="translate(83.398438 0)"/>
      </g>
     </g>
    </g>
    <g id="ytick_6">
     <g id="line2d_25">
      <path d="M 51.41645 148.507981 
L 1139.893402 148.507981 
" clip-path="url(#p02a3d0dfdf)" style="fill: none; stroke: #cccccc; stroke-opacity: 0.3; stroke-width: 0.8; stroke-linecap: round"/>
     </g>
     <g id="line2d_26">
      <g>
       <use xlink:href="#mb4680be2be" x="51.41645" y="148.507981" style="fill: #262626; stroke: #262626"/>
      </g>
     </g>
     <g id="text_6">
      <!-- 5.0 -->
      <g style="fill: #262626" transform="translate(29.66125 151.972362) scale(0.0968 -0.0968)">
       <use xlink:href="#ArialMT-35"/>
       <use xlink:href="#ArialMT-2e" transform="translate(55.615234 0)"/>
       <use xlink:href="#ArialMT-30" transform="translate(83.398438 0)"/>
      </g>
     </g>
    </g>
    <g id="ytick_7">
     <g id="line2d_27">
      <path d="M 51.41645 120.368135 
L 1139.893402 120.368135 
" clip-path="url(#p02a3d0dfdf)" style="fill: none; stroke: #cccccc; stroke-opacity: 0.3; stroke-width: 0.8; stroke-linecap: round"/>
     </g>
     <g id="line2d_28">
      <g>
       <use xlink:href="#mb4680be2be" x="51.41645" y="120.368135" style="fill: #262626; stroke: #262626"/>
      </g>
     </g>
     <g id="text_7">
      <!-- 5.5 -->
      <g style="fill: #262626" transform="translate(29.66125 123.832516) scale(0.0968 -0.0968)">
       <use xlink:href="#ArialMT-35"/>
       <use xlink:href="#ArialMT-2e" transform="translate(55.615234 0)"/>
       <use xlink:href="#ArialMT-35" transform="translate(83.398438 0)"/>
      </g>
     </g>
    </g>
    <g id="ytick_8">
     <g id="line2d_29">
      <path d="M 51.41645 92.228289 
L 1139.893402 92.228289 
" clip-path="url(#p02a3d0dfdf)" style="fill: none; stroke: #cccccc; stroke-opacity: 0.3; stroke-width: 0.8; stroke-linecap: round"/>
     </g>
     <g id="line2d_30">
      <g>
       <use xlink:href="#mb4680be2be" x="51.41645" y="92.228289" style="fill: #262626; stroke: #262626"/>
      </g>
     </g>
     <g id="text_8">
      <!-- 6.0 -->
      <g style="fill: #262626" transform="translate(29.66125 95.69267) scale(0.0968 -0.0968)">
       <defs>
        <path id="ArialMT-36" d="M 3184 3459 
L 2625 3416 
Q 2550 3747 2413 3897 
Q 2184 4138 1850 4138 
Q 1581 4138 1378 3988 
Q 1113 3794 959 3422 
Q 806 3050 800 2363 
Q 1003 2672 1297 2822 
Q 1591 2972 1913 2972 
Q 2475 2972 2870 2558 
Q 3266 2144 3266 1488 
Q 3266 1056 3080 686 
Q 2894 316 2569 119 
Q 2244 -78 1831 -78 
Q 1128 -78 684 439 
Q 241 956 241 2144 
Q 241 3472 731 4075 
Q 1159 4600 1884 4600 
Q 2425 4600 2770 4297 
Q 3116 3994 3184 3459 
z
M 888 1484 
Q 888 1194 1011 928 
Q 1134 663 1356 523 
Q 1578 384 1822 384 
Q 2178 384 2434 671 
Q 2691 959 2691 1453 
Q 2691 1928 2437 2201 
Q 2184 2475 1800 2475 
Q 1419 2475 1153 2201 
Q 888 1928 888 1484 
z
" transform="scale(0.015625)"/>
       </defs>
       <use xlink:href="#ArialMT-36"/>
       <use xlink:href="#ArialMT-2e" transform="translate(55.615234 0)"/>
       <use xlink:href="#ArialMT-30" transform="translate(83.398438 0)"/>
      </g>
     </g>
    </g>
    <g id="text_9">
     <!-- Generation (GW) -->
     <g style="fill: #262626" transform="translate(23.135625 236.6431) rotate(-90) scale(0.12 -0.12)">
      <defs>
       <path id="ArialMT-47" d="M 2638 1797 
L 2638 2334 
L 4578 2338 
L 4578 638 
Q 4131 281 3656 101 
Q 3181 -78 2681 -78 
Q 2006 -78 1454 211 
Q 903 500 622 1047 
Q 341 1594 341 2269 
Q 341 2938 620 3517 
Q 900 4097 1425 4378 
Q 1950 4659 2634 4659 
Q 3131 4659 3532 4498 
Q 3934 4338 4162 4050 
Q 4391 3763 4509 3300 
L 3963 3150 
Q 3859 3500 3706 3700 
Q 3553 3900 3268 4020 
Q 2984 4141 2638 4141 
Q 2222 4141 1919 4014 
Q 1616 3888 1430 3681 
Q 1244 3475 1141 3228 
Q 966 2803 966 2306 
Q 966 1694 1177 1281 
Q 1388 869 1791 669 
Q 2194 469 2647 469 
Q 3041 469 3416 620 
Q 3791 772 3984 944 
L 3984 1797 
L 2638 1797 
z
" transform="scale(0.015625)"/>
       <path id="ArialMT-65" d="M 2694 1069 
L 3275 997 
Q 3138 488 2766 206 
Q 2394 -75 1816 -75 
Q 1088 -75 661 373 
Q 234 822 234 1631 
Q 234 2469 665 2931 
Q 1097 3394 1784 3394 
Q 2450 3394 2872 2941 
Q 3294 2488 3294 1666 
Q 3294 1616 3291 1516 
L 816 1516 
Q 847 969 1125 678 
Q 1403 388 1819 388 
Q 2128 388 2347 550 
Q 2566 713 2694 1069 
z
M 847 1978 
L 2700 1978 
Q 2663 2397 2488 2606 
Q 2219 2931 1791 2931 
Q 1403 2931 1139 2672 
Q 875 2413 847 1978 
z
" transform="scale(0.015625)"/>
       <path id="ArialMT-6e" d="M 422 0 
L 422 3319 
L 928 3319 
L 928 2847 
Q 1294 3394 1984 3394 
Q 2284 3394 2536 3286 
Q 2788 3178 2913 3003 
Q 3038 2828 3088 2588 
Q 3119 2431 3119 2041 
L 3119 0 
L 2556 0 
L 2556 2019 
Q 2556 2363 2490 2533 
Q 2425 2703 2258 2804 
Q 2091 2906 1866 2906 
Q 1506 2906 1245 2678 
Q 984 2450 984 1813 
L 984 0 
L 422 0 
z
" transform="scale(0.015625)"/>
       <path id="ArialMT-72" d="M 416 0 
L 416 3319 
L 922 3319 
L 922 2816 
Q 1116 3169 1280 3281 
Q 1444 3394 1641 3394 
Q 1925 3394 2219 3213 
L 2025 2691 
Q 1819 2813 1613 2813 
Q 1428 2813 1281 2702 
Q 1134 2591 1072 2394 
Q 978 2094 978 1738 
L 978 0 
L 416 0 
z
" transform="scale(0.015625)"/>
       <path id="ArialMT-61" d="M 2588 409 
Q 2275 144 1986 34 
Q 1697 -75 1366 -75 
Q 819 -75 525 192 
Q 231 459 231 875 
Q 231 1119 342 1320 
Q 453 1522 633 1644 
Q 813 1766 1038 1828 
Q 1203 1872 1538 1913 
Q 2219 1994 2541 2106 
Q 2544 2222 2544 2253 
Q 2544 2597 2384 2738 
Q 2169 2928 1744 2928 
Q 1347 2928 1158 2789 
Q 969 2650 878 2297 
L 328 2372 
Q 403 2725 575 2942 
Q 747 3159 1072 3276 
Q 1397 3394 1825 3394 
Q 2250 3394 2515 3294 
Q 2781 3194 2906 3042 
Q 3031 2891 3081 2659 
Q 3109 2516 3109 2141 
L 3109 1391 
Q 3109 606 3145 398 
Q 3181 191 3288 0 
L 2700 0 
Q 2613 175 2588 409 
z
M 2541 1666 
Q 2234 1541 1622 1453 
Q 1275 1403 1131 1340 
Q 988 1278 909 1158 
Q 831 1038 831 891 
Q 831 666 1001 516 
Q 1172 366 1500 366 
Q 1825 366 2078 508 
Q 2331 650 2450 897 
Q 2541 1088 2541 1459 
L 2541 1666 
z
" transform="scale(0.015625)"/>
       <path id="ArialMT-74" d="M 1650 503 
L 1731 6 
Q 1494 -44 1306 -44 
Q 1000 -44 831 53 
Q 663 150 594 308 
Q 525 466 525 972 
L 525 2881 
L 113 2881 
L 113 3319 
L 525 3319 
L 525 4141 
L 1084 4478 
L 1084 3319 
L 1650 3319 
L 1650 2881 
L 1084 2881 
L 1084 941 
Q 1084 700 1114 631 
Q 1144 563 1211 522 
Q 1278 481 1403 481 
Q 1497 481 1650 503 
z
" transform="scale(0.015625)"/>
       <path id="ArialMT-69" d="M 425 3934 
L 425 4581 
L 988 4581 
L 988 3934 
L 425 3934 
z
M 425 0 
L 425 3319 
L 988 3319 
L 988 0 
L 425 0 
z
" transform="scale(0.015625)"/>
       <path id="ArialMT-6f" d="M 213 1659 
Q 213 2581 725 3025 
Q 1153 3394 1769 3394 
Q 2453 3394 2887 2945 
Q 3322 2497 3322 1706 
Q 3322 1066 3130 698 
Q 2938 331 2570 128 
Q 2203 -75 1769 -75 
Q 1072 -75 642 372 
Q 213 819 213 1659 
z
M 791 1659 
Q 791 1022 1069 705 
Q 1347 388 1769 388 
Q 2188 388 2466 706 
Q 2744 1025 2744 1678 
Q 2744 2294 2464 2611 
Q 2184 2928 1769 2928 
Q 1347 2928 1069 2612 
Q 791 2297 791 1659 
z
" transform="scale(0.015625)"/>
       <path id="ArialMT-20" transform="scale(0.015625)"/>
       <path id="ArialMT-28" d="M 1497 -1347 
Q 1031 -759 709 28 
Q 388 816 388 1659 
Q 388 2403 628 3084 
Q 909 3875 1497 4659 
L 1900 4659 
Q 1522 4009 1400 3731 
Q 1209 3300 1100 2831 
Q 966 2247 966 1656 
Q 966 153 1900 -1347 
L 1497 -1347 
z
" transform="scale(0.015625)"/>
       <path id="ArialMT-57" d="M 1294 0 
L 78 4581 
L 700 4581 
L 1397 1578 
Q 1509 1106 1591 641 
Q 1766 1375 1797 1488 
L 2669 4581 
L 3400 4581 
L 4056 2263 
Q 4303 1400 4413 641 
Q 4500 1075 4641 1638 
L 5359 4581 
L 5969 4581 
L 4713 0 
L 4128 0 
L 3163 3491 
Q 3041 3928 3019 4028 
Q 2947 3713 2884 3491 
L 1913 0 
L 1294 0 
z
" transform="scale(0.015625)"/>
       <path id="ArialMT-29" d="M 791 -1347 
L 388 -1347 
Q 1322 153 1322 1656 
Q 1322 2244 1188 2822 
Q 1081 3291 891 3722 
Q 769 4003 388 4659 
L 791 4659 
Q 1378 3875 1659 3084 
Q 1900 2403 1900 1659 
Q 1900 816 1576 28 
Q 1253 -759 791 -1347 
z
" transform="scale(0.015625)"/>
      </defs>
      <use xlink:href="#ArialMT-47"/>
      <use xlink:href="#ArialMT-65" transform="translate(77.783203 0)"/>
      <use xlink:href="#ArialMT-6e" transform="translate(133.398438 0)"/>
      <use xlink:href="#ArialMT-65" transform="translate(189.013672 0)"/>
      <use xlink:href="#ArialMT-72" transform="translate(244.628906 0)"/>
      <use xlink:href="#ArialMT-61" transform="translate(277.929688 0)"/>
      <use xlink:href="#ArialMT-74" transform="translate(333.544922 0)"/>
      <use xlink:href="#ArialMT-69" transform="translate(361.328125 0)"/>
      <use xlink:href="#ArialMT-6f" transform="translate(383.544922 0)"/>
      <use xlink:href="#ArialMT-6e" transform="translate(439.160156 0)"/>
      <use xlink:href="#ArialMT-20" transform="translate(494.775391 0)"/>
      <use xlink:href="#ArialMT-28" transform="translate(522.558594 0)"/>
      <use xlink:href="#ArialMT-47" transform="translate(555.859375 0)"/>
      <use xlink:href="#ArialMT-57" transform="translate(633.642578 0)"/>
      <use xlink:href="#ArialMT-29" transform="translate(728.027344 0)"/>
     </g>
    </g>
   </g>
   <g id="line2d_31">
    <path d="M 100.892675 88.722064 
L 104.340496 155.136603 
L 107.788316 154.067289 
L 111.236137 154.308729 
L 114.683957 100.250396 
L 118.131778 88.721501 
L 180.192548 88.721501 
L 183.640369 164.605099 
L 187.088189 222.185414 
L 190.53601 214.423319 
L 193.98383 227.046854 
L 197.431651 195.500961 
L 200.879471 125.361269 
L 204.327292 88.720376 
L 259.492421 88.722064 
L 262.940242 104.429726 
L 266.388062 144.180636 
L 269.835883 228.622686 
L 273.283703 229.540607 
L 276.731524 239.619737 
L 280.179344 167.266565 
L 283.627165 108.48299 
L 287.074985 88.721501 
L 342.240114 88.722064 
L 345.687935 106.631951 
L 349.135756 146.736859 
L 352.583576 203.589479 
L 356.031397 208.6766 
L 359.479217 202.3744 
L 362.927038 152.078928 
L 366.374858 112.338149 
L 369.822679 88.720376 
L 424.987808 88.721501 
L 428.435629 99.142249 
L 431.883449 187.659512 
L 435.33127 259.121214 
L 438.77909 276.971444 
L 442.226911 291.7927 
L 445.674731 212.782766 
L 449.122552 180.275616 
L 452.570372 88.721501 
L 511.183322 88.722064 
L 514.631143 149.616128 
L 518.078963 201.87745 
L 521.526784 237.594231 
L 524.974604 234.704832 
L 528.422425 151.195336 
L 531.870245 100.912245 
L 535.318066 88.720938 
L 593.931016 88.722064 
L 597.378836 151.190271 
L 600.826657 245.8741 
L 604.274477 221.865746 
L 607.722298 231.178909 
L 611.170118 195.75028 
L 614.617939 115.63839 
L 618.06576 88.720938 
L 676.678709 88.721501 
L 680.12653 168.294795 
L 683.57435 225.679258 
L 687.022171 232.334894 
L 690.469991 240.682298 
L 693.917812 170.527411 
L 697.365632 142.474235 
L 700.813453 88.720938 
L 728.396018 88.720938 
L 731.843838 105.025728 
L 735.291659 88.719813 
L 759.426403 88.722627 
L 762.874223 117.680217 
L 766.322044 192.241804 
L 769.769864 198.153986 
L 773.217685 229.549612 
L 776.665505 146.694649 
L 780.113326 119.233536 
L 783.561147 88.719813 
L 842.174096 88.722627 
L 845.621917 103.577652 
L 849.069737 177.387905 
L 852.517558 188.530159 
L 855.965378 175.856535 
L 859.413199 128.145426 
L 862.861019 88.722064 
L 921.473969 88.720938 
L 924.92179 95.663039 
L 928.36961 122.996397 
L 931.817431 208.989515 
L 935.265251 233.501572 
L 938.713072 236.121392 
L 942.160892 146.212895 
L 945.608713 149.009996 
L 949.056534 88.721501 
L 1000.773842 88.720376 
L 1004.221663 109.017084 
L 1007.669483 143.830576 
L 1011.117304 193.282416 
L 1014.565124 293.217702 
L 1018.012945 270.744658 
L 1021.460765 278.384627 
L 1024.908586 209.495469 
L 1031.804227 88.720938 
L 1090.417177 88.722627 
L 1090.417177 88.722627 
" clip-path="url(#p02a3d0dfdf)" style="fill: none; stroke: #8b4513; stroke-width: 1.5; stroke-linecap: round"/>
   </g>
   <g id="patch_3">
    <path d="M 51.41645 303.44285 
L 51.41645 78.4896 
" style="fill: none; stroke: #cccccc; stroke-linejoin: miter; stroke-linecap: square"/>
   </g>
   <g id="patch_4">
    <path d="M 1139.893402 303.44285 
L 1139.893402 78.4896 
" style="fill: none; stroke: #cccccc; stroke-linejoin: miter; stroke-linecap: square"/>
   </g>
   <g id="patch_5">
    <path d="M 51.41645 303.44285 
L 1139.893402 303.44285 
" style="fill: none; stroke: #cccccc; stroke-linejoin: miter; stroke-linecap: square"/>
   </g>
   <g id="patch_6">
    <path d="M 51.41645 78.4896 
L 1139.893402 78.4896 
" style="fill: none; stroke: #cccccc; stroke-linejoin: miter; stroke-linecap: square"/>
   </g>
   <g id="text_10">
    <!-- Scenario 3 - 3.EOM El.+ CVAR -->
    <g style="fill: #262626" transform="translate(499.109613 72.4896) scale(0.14 -0.14)">
     <defs>
      <path id="ArialMT-53" d="M 288 1472 
L 859 1522 
Q 900 1178 1048 958 
Q 1197 738 1509 602 
Q 1822 466 2213 466 
Q 2559 466 2825 569 
Q 3091 672 3220 851 
Q 3350 1031 3350 1244 
Q 3350 1459 3225 1620 
Q 3100 1781 2813 1891 
Q 2628 1963 1997 2114 
Q 1366 2266 1113 2400 
Q 784 2572 623 2826 
Q 463 3081 463 3397 
Q 463 3744 659 4045 
Q 856 4347 1234 4503 
Q 1613 4659 2075 4659 
Q 2584 4659 2973 4495 
Q 3363 4331 3572 4012 
Q 3781 3694 3797 3291 
L 3216 3247 
Q 3169 3681 2898 3903 
Q 2628 4125 2100 4125 
Q 1550 4125 1298 3923 
Q 1047 3722 1047 3438 
Q 1047 3191 1225 3031 
Q 1400 2872 2139 2705 
Q 2878 2538 3153 2413 
Q 3553 2228 3743 1945 
Q 3934 1663 3934 1294 
Q 3934 928 3725 604 
Q 3516 281 3123 101 
Q 2731 -78 2241 -78 
Q 1619 -78 1198 103 
Q 778 284 539 648 
Q 300 1013 288 1472 
z
" transform="scale(0.015625)"/>
      <path id="ArialMT-63" d="M 2588 1216 
L 3141 1144 
Q 3050 572 2676 248 
Q 2303 -75 1759 -75 
Q 1078 -75 664 370 
Q 250 816 250 1647 
Q 250 2184 428 2587 
Q 606 2991 970 3192 
Q 1334 3394 1763 3394 
Q 2303 3394 2647 3120 
Q 2991 2847 3088 2344 
L 2541 2259 
Q 2463 2594 2264 2762 
Q 2066 2931 1784 2931 
Q 1359 2931 1093 2626 
Q 828 2322 828 1663 
Q 828 994 1084 691 
Q 1341 388 1753 388 
Q 2084 388 2306 591 
Q 2528 794 2588 1216 
z
" transform="scale(0.015625)"/>
      <path id="ArialMT-2d" d="M 203 1375 
L 203 1941 
L 1931 1941 
L 1931 1375 
L 203 1375 
z
" transform="scale(0.015625)"/>
      <path id="ArialMT-45" d="M 506 0 
L 506 4581 
L 3819 4581 
L 3819 4041 
L 1113 4041 
L 1113 2638 
L 3647 2638 
L 3647 2100 
L 1113 2100 
L 1113 541 
L 3925 541 
L 3925 0 
L 506 0 
z
" transform="scale(0.015625)"/>
      <path id="ArialMT-4f" d="M 309 2231 
Q 309 3372 921 4017 
Q 1534 4663 2503 4663 
Q 3138 4663 3647 4359 
Q 4156 4056 4423 3514 
Q 4691 2972 4691 2284 
Q 4691 1588 4409 1038 
Q 4128 488 3612 205 
Q 3097 -78 2500 -78 
Q 1853 -78 1343 234 
Q 834 547 571 1087 
Q 309 1628 309 2231 
z
M 934 2222 
Q 934 1394 1379 917 
Q 1825 441 2497 441 
Q 3181 441 3623 922 
Q 4066 1403 4066 2288 
Q 4066 2847 3877 3264 
Q 3688 3681 3323 3911 
Q 2959 4141 2506 4141 
Q 1863 4141 1398 3698 
Q 934 3256 934 2222 
z
" transform="scale(0.015625)"/>
      <path id="ArialMT-4d" d="M 475 0 
L 475 4581 
L 1388 4581 
L 2472 1338 
Q 2622 884 2691 659 
Q 2769 909 2934 1394 
L 4031 4581 
L 4847 4581 
L 4847 0 
L 4263 0 
L 4263 3834 
L 2931 0 
L 2384 0 
L 1059 3900 
L 1059 0 
L 475 0 
z
" transform="scale(0.015625)"/>
      <path id="ArialMT-6c" d="M 409 0 
L 409 4581 
L 972 4581 
L 972 0 
L 409 0 
z
" transform="scale(0.015625)"/>
      <path id="ArialMT-2b" d="M 1603 741 
L 1603 1997 
L 356 1997 
L 356 2522 
L 1603 2522 
L 1603 3769 
L 2134 3769 
L 2134 2522 
L 3381 2522 
L 3381 1997 
L 2134 1997 
L 2134 741 
L 1603 741 
z
" transform="scale(0.015625)"/>
      <path id="ArialMT-43" d="M 3763 1606 
L 4369 1453 
Q 4178 706 3683 314 
Q 3188 -78 2472 -78 
Q 1731 -78 1267 223 
Q 803 525 561 1097 
Q 319 1669 319 2325 
Q 319 3041 592 3573 
Q 866 4106 1370 4382 
Q 1875 4659 2481 4659 
Q 3169 4659 3637 4309 
Q 4106 3959 4291 3325 
L 3694 3184 
Q 3534 3684 3231 3912 
Q 2928 4141 2469 4141 
Q 1941 4141 1586 3887 
Q 1231 3634 1087 3207 
Q 944 2781 944 2328 
Q 944 1744 1114 1308 
Q 1284 872 1643 656 
Q 2003 441 2422 441 
Q 2931 441 3284 734 
Q 3638 1028 3763 1606 
z
" transform="scale(0.015625)"/>
      <path id="ArialMT-56" d="M 1803 0 
L 28 4581 
L 684 4581 
L 1875 1253 
Q 2019 853 2116 503 
Q 2222 878 2363 1253 
L 3600 4581 
L 4219 4581 
L 2425 0 
L 1803 0 
z
" transform="scale(0.015625)"/>
      <path id="ArialMT-41" d="M -9 0 
L 1750 4581 
L 2403 4581 
L 4278 0 
L 3588 0 
L 3053 1388 
L 1138 1388 
L 634 0 
L -9 0 
z
M 1313 1881 
L 2866 1881 
L 2388 3150 
Q 2169 3728 2063 4100 
Q 1975 3659 1816 3225 
L 1313 1881 
z
" transform="scale(0.015625)"/>
      <path id="ArialMT-52" d="M 503 0 
L 503 4581 
L 2534 4581 
Q 3147 4581 3465 4457 
Q 3784 4334 3975 4021 
Q 4166 3709 4166 3331 
Q 4166 2844 3850 2509 
Q 3534 2175 2875 2084 
Q 3116 1969 3241 1856 
Q 3506 1613 3744 1247 
L 4541 0 
L 3778 0 
L 3172 953 
Q 2906 1366 2734 1584 
Q 2563 1803 2427 1890 
Q 2291 1978 2150 2013 
Q 2047 2034 1813 2034 
L 1109 2034 
L 1109 0 
L 503 0 
z
M 1109 2559 
L 2413 2559 
Q 2828 2559 3062 2645 
Q 3297 2731 3419 2920 
Q 3541 3109 3541 3331 
Q 3541 3656 3305 3865 
Q 3069 4075 2559 4075 
L 1109 4075 
L 1109 2559 
z
" transform="scale(0.015625)"/>
     </defs>
     <use xlink:href="#ArialMT-53"/>
     <use xlink:href="#ArialMT-63" transform="translate(66.699219 0)"/>
     <use xlink:href="#ArialMT-65" transform="translate(116.699219 0)"/>
     <use xlink:href="#ArialMT-6e" transform="translate(172.314453 0)"/>
     <use xlink:href="#ArialMT-61" transform="translate(227.929688 0)"/>
     <use xlink:href="#ArialMT-72" transform="translate(283.544922 0)"/>
     <use xlink:href="#ArialMT-69" transform="translate(316.845703 0)"/>
     <use xlink:href="#ArialMT-6f" transform="translate(339.0625 0)"/>
     <use xlink:href="#ArialMT-20" transform="translate(394.677734 0)"/>
     <use xlink:href="#ArialMT-33" transform="translate(422.460938 0)"/>
     <use xlink:href="#ArialMT-20" transform="translate(478.076172 0)"/>
     <use xlink:href="#ArialMT-2d" transform="translate(505.859375 0)"/>
     <use xlink:href="#ArialMT-20" transform="translate(539.160156 0)"/>
     <use xlink:href="#ArialMT-33" transform="translate(566.943359 0)"/>
     <use xlink:href="#ArialMT-2e" transform="translate(622.558594 0)"/>
     <use xlink:href="#ArialMT-45" transform="translate(650.341797 0)"/>
     <use xlink:href="#ArialMT-4f" transform="translate(717.041016 0)"/>
     <use xlink:href="#ArialMT-4d" transform="translate(794.824219 0)"/>
     <use xlink:href="#ArialMT-20" transform="translate(878.125 0)"/>
     <use xlink:href="#ArialMT-45" transform="translate(905.908203 0)"/>
     <use xlink:href="#ArialMT-6c" transform="translate(972.607422 0)"/>
     <use xlink:href="#ArialMT-2e" transform="translate(994.824219 0)"/>
     <use xlink:href="#ArialMT-2b" transform="translate(1022.607422 0)"/>
     <use xlink:href="#ArialMT-20" transform="translate(1081.005859 0)"/>
     <use xlink:href="#ArialMT-43" transform="translate(1108.789062 0)"/>
     <use xlink:href="#ArialMT-56" transform="translate(1181.005859 0)"/>
     <use xlink:href="#ArialMT-41" transform="translate(1240.330078 0)"/>
     <use xlink:href="#ArialMT-52" transform="translate(1307.029297 0)"/>
    </g>
   </g>
   <g id="legend_1">
    <g id="line2d_32">
     <path d="M 1002.285589 91.269288 
L 1012.285589 91.269288 
L 1022.285589 91.269288 
" style="fill: none; stroke: #8b4513; stroke-width: 1.5; stroke-linecap: round"/>
    </g>
    <g id="text_11">
     <!-- Generation (Baseload) -->
     <g style="fill: #262626" transform="translate(1030.285589 94.769288) scale(0.1 -0.1)">
      <defs>
       <path id="ArialMT-42" d="M 469 0 
L 469 4581 
L 2188 4581 
Q 2713 4581 3030 4442 
Q 3347 4303 3526 4014 
Q 3706 3725 3706 3409 
Q 3706 3116 3547 2856 
Q 3388 2597 3066 2438 
Q 3481 2316 3704 2022 
Q 3928 1728 3928 1328 
Q 3928 1006 3792 729 
Q 3656 453 3456 303 
Q 3256 153 2954 76 
Q 2653 0 2216 0 
L 469 0 
z
M 1075 2656 
L 2066 2656 
Q 2469 2656 2644 2709 
Q 2875 2778 2992 2937 
Q 3109 3097 3109 3338 
Q 3109 3566 3000 3739 
Q 2891 3913 2687 3977 
Q 2484 4041 1991 4041 
L 1075 4041 
L 1075 2656 
z
M 1075 541 
L 2216 541 
Q 2509 541 2628 563 
Q 2838 600 2978 687 
Q 3119 775 3209 942 
Q 3300 1109 3300 1328 
Q 3300 1584 3169 1773 
Q 3038 1963 2805 2039 
Q 2572 2116 2134 2116 
L 1075 2116 
L 1075 541 
z
" transform="scale(0.015625)"/>
       <path id="ArialMT-73" d="M 197 991 
L 753 1078 
Q 800 744 1014 566 
Q 1228 388 1613 388 
Q 2000 388 2187 545 
Q 2375 703 2375 916 
Q 2375 1106 2209 1216 
Q 2094 1291 1634 1406 
Q 1016 1563 777 1677 
Q 538 1791 414 1992 
Q 291 2194 291 2438 
Q 291 2659 392 2848 
Q 494 3038 669 3163 
Q 800 3259 1026 3326 
Q 1253 3394 1513 3394 
Q 1903 3394 2198 3281 
Q 2494 3169 2634 2976 
Q 2775 2784 2828 2463 
L 2278 2388 
Q 2241 2644 2061 2787 
Q 1881 2931 1553 2931 
Q 1166 2931 1000 2803 
Q 834 2675 834 2503 
Q 834 2394 903 2306 
Q 972 2216 1119 2156 
Q 1203 2125 1616 2013 
Q 2213 1853 2448 1751 
Q 2684 1650 2818 1456 
Q 2953 1263 2953 975 
Q 2953 694 2789 445 
Q 2625 197 2315 61 
Q 2006 -75 1616 -75 
Q 969 -75 630 194 
Q 291 463 197 991 
z
" transform="scale(0.015625)"/>
       <path id="ArialMT-64" d="M 2575 0 
L 2575 419 
Q 2259 -75 1647 -75 
Q 1250 -75 917 144 
Q 584 363 401 755 
Q 219 1147 219 1656 
Q 219 2153 384 2558 
Q 550 2963 881 3178 
Q 1213 3394 1622 3394 
Q 1922 3394 2156 3267 
Q 2391 3141 2538 2938 
L 2538 4581 
L 3097 4581 
L 3097 0 
L 2575 0 
z
M 797 1656 
Q 797 1019 1065 703 
Q 1334 388 1700 388 
Q 2069 388 2326 689 
Q 2584 991 2584 1609 
Q 2584 2291 2321 2609 
Q 2059 2928 1675 2928 
Q 1300 2928 1048 2622 
Q 797 2316 797 1656 
z
" transform="scale(0.015625)"/>
      </defs>
      <use xlink:href="#ArialMT-47"/>
      <use xlink:href="#ArialMT-65" transform="translate(77.783203 0)"/>
      <use xlink:href="#ArialMT-6e" transform="translate(133.398438 0)"/>
      <use xlink:href="#ArialMT-65" transform="translate(189.013672 0)"/>
      <use xlink:href="#ArialMT-72" transform="translate(244.628906 0)"/>
      <use xlink:href="#ArialMT-61" transform="translate(277.929688 0)"/>
      <use xlink:href="#ArialMT-74" transform="translate(333.544922 0)"/>
      <use xlink:href="#ArialMT-69" transform="translate(361.328125 0)"/>
      <use xlink:href="#ArialMT-6f" transform="translate(383.544922 0)"/>
      <use xlink:href="#ArialMT-6e" transform="translate(439.160156 0)"/>
      <use xlink:href="#ArialMT-20" transform="translate(494.775391 0)"/>
      <use xlink:href="#ArialMT-28" transform="translate(522.558594 0)"/>
      <use xlink:href="#ArialMT-42" transform="translate(555.859375 0)"/>
      <use xlink:href="#ArialMT-61" transform="translate(622.558594 0)"/>
      <use xlink:href="#ArialMT-73" transform="translate(678.173828 0)"/>
      <use xlink:href="#ArialMT-65" transform="translate(728.173828 0)"/>
      <use xlink:href="#ArialMT-6c" transform="translate(783.789062 0)"/>
      <use xlink:href="#ArialMT-6f" transform="translate(806.005859 0)"/>
      <use xlink:href="#ArialMT-61" transform="translate(861.621094 0)"/>
      <use xlink:href="#ArialMT-64" transform="translate(917.236328 0)"/>
      <use xlink:href="#ArialMT-29" transform="translate(972.851562 0)"/>
     </g>
    </g>
   </g>
  </g>
  <g id="axes_2">
   <g id="patch_7">
    <path d="M 51.41645 560.6809 
L 1139.893402 560.6809 
L 1139.893402 335.72765 
L 51.41645 335.72765 
z
" style="fill: #ffffff"/>
   </g>
   <g id="matplotlib.axis_3">
    <g id="xtick_8">
     <g id="line2d_33">
      <path d="M 100.892675 560.6809 
L 100.892675 335.72765 
" clip-path="url(#p9f1a7322fe)" style="fill: none; stroke: #cccccc; stroke-opacity: 0.3; stroke-width: 0.8; stroke-linecap: round"/>
     </g>
     <g id="line2d_34">
      <g>
       <use xlink:href="#m9211e2d14b" x="100.892675" y="560.6809" style="fill: #262626; stroke: #262626"/>
      </g>
     </g>
    </g>
    <g id="xtick_9">
     <g id="line2d_35">
      <path d="M 273.283703 560.6809 
L 273.283703 335.72765 
" clip-path="url(#p9f1a7322fe)" style="fill: none; stroke: #cccccc; stroke-opacity: 0.3; stroke-width: 0.8; stroke-linecap: round"/>
     </g>
     <g id="line2d_36">
      <g>
       <use xlink:href="#m9211e2d14b" x="273.283703" y="560.6809" style="fill: #262626; stroke: #262626"/>
      </g>
     </g>
    </g>
    <g id="xtick_10">
     <g id="line2d_37">
      <path d="M 445.674731 560.6809 
L 445.674731 335.72765 
" clip-path="url(#p9f1a7322fe)" style="fill: none; stroke: #cccccc; stroke-opacity: 0.3; stroke-width: 0.8; stroke-linecap: round"/>
     </g>
     <g id="line2d_38">
      <g>
       <use xlink:href="#m9211e2d14b" x="445.674731" y="560.6809" style="fill: #262626; stroke: #262626"/>
      </g>
     </g>
    </g>
    <g id="xtick_11">
     <g id="line2d_39">
      <path d="M 618.06576 560.6809 
L 618.06576 335.72765 
" clip-path="url(#p9f1a7322fe)" style="fill: none; stroke: #cccccc; stroke-opacity: 0.3; stroke-width: 0.8; stroke-linecap: round"/>
     </g>
     <g id="line2d_40">
      <g>
       <use xlink:href="#m9211e2d14b" x="618.06576" y="560.6809" style="fill: #262626; stroke: #262626"/>
      </g>
     </g>
    </g>
    <g id="xtick_12">
     <g id="line2d_41">
      <path d="M 790.456788 560.6809 
L 790.456788 335.72765 
" clip-path="url(#p9f1a7322fe)" style="fill: none; stroke: #cccccc; stroke-opacity: 0.3; stroke-width: 0.8; stroke-linecap: round"/>
     </g>
     <g id="line2d_42">
      <g>
       <use xlink:href="#m9211e2d14b" x="790.456788" y="560.6809" style="fill: #262626; stroke: #262626"/>
      </g>
     </g>
    </g>
    <g id="xtick_13">
     <g id="line2d_43">
      <path d="M 962.847816 560.6809 
L 962.847816 335.72765 
" clip-path="url(#p9f1a7322fe)" style="fill: none; stroke: #cccccc; stroke-opacity: 0.3; stroke-width: 0.8; stroke-linecap: round"/>
     </g>
     <g id="line2d_44">
      <g>
       <use xlink:href="#m9211e2d14b" x="962.847816" y="560.6809" style="fill: #262626; stroke: #262626"/>
      </g>
     </g>
    </g>
    <g id="xtick_14">
     <g id="line2d_45">
      <path d="M 1135.238844 560.6809 
L 1135.238844 335.72765 
" clip-path="url(#p9f1a7322fe)" style="fill: none; stroke: #cccccc; stroke-opacity: 0.3; stroke-width: 0.8; stroke-linecap: round"/>
     </g>
     <g id="line2d_46">
      <g>
       <use xlink:href="#m9211e2d14b" x="1135.238844" y="560.6809" style="fill: #262626; stroke: #262626"/>
      </g>
     </g>
    </g>
   </g>
   <g id="matplotlib.axis_4">
    <g id="ytick_9">
     <g id="line2d_47">
      <path d="M 51.41645 546.477725 
L 1139.893402 546.477725 
" clip-path="url(#p9f1a7322fe)" style="fill: none; stroke: #cccccc; stroke-opacity: 0.3; stroke-width: 0.8; stroke-linecap: round"/>
     </g>
     <g id="line2d_48">
      <g>
       <use xlink:href="#mb4680be2be" x="51.41645" y="546.477725" style="fill: #262626; stroke: #262626"/>
      </g>
     </g>
     <g id="text_12">
      <!-- 2.5 -->
      <g style="fill: #262626" transform="translate(29.66125 549.942106) scale(0.0968 -0.0968)">
       <use xlink:href="#ArialMT-32"/>
       <use xlink:href="#ArialMT-2e" transform="translate(55.615234 0)"/>
       <use xlink:href="#ArialMT-35" transform="translate(83.398438 0)"/>
      </g>
     </g>
    </g>
    <g id="ytick_10">
     <g id="line2d_49">
      <path d="M 51.41645 518.581322 
L 1139.893402 518.581322 
" clip-path="url(#p9f1a7322fe)" style="fill: none; stroke: #cccccc; stroke-opacity: 0.3; stroke-width: 0.8; stroke-linecap: round"/>
     </g>
     <g id="line2d_50">
      <g>
       <use xlink:href="#mb4680be2be" x="51.41645" y="518.581322" style="fill: #262626; stroke: #262626"/>
      </g>
     </g>
     <g id="text_13">
      <!-- 3.0 -->
      <g style="fill: #262626" transform="translate(29.66125 522.045703) scale(0.0968 -0.0968)">
       <use xlink:href="#ArialMT-33"/>
       <use xlink:href="#ArialMT-2e" transform="translate(55.615234 0)"/>
       <use xlink:href="#ArialMT-30" transform="translate(83.398438 0)"/>
      </g>
     </g>
    </g>
    <g id="ytick_11">
     <g id="line2d_51">
      <path d="M 51.41645 490.684918 
L 1139.893402 490.684918 
" clip-path="url(#p9f1a7322fe)" style="fill: none; stroke: #cccccc; stroke-opacity: 0.3; stroke-width: 0.8; stroke-linecap: round"/>
     </g>
     <g id="line2d_52">
      <g>
       <use xlink:href="#mb4680be2be" x="51.41645" y="490.684918" style="fill: #262626; stroke: #262626"/>
      </g>
     </g>
     <g id="text_14">
      <!-- 3.5 -->
      <g style="fill: #262626" transform="translate(29.66125 494.149299) scale(0.0968 -0.0968)">
       <use xlink:href="#ArialMT-33"/>
       <use xlink:href="#ArialMT-2e" transform="translate(55.615234 0)"/>
       <use xlink:href="#ArialMT-35" transform="translate(83.398438 0)"/>
      </g>
     </g>
    </g>
    <g id="ytick_12">
     <g id="line2d_53">
      <path d="M 51.41645 462.788515 
L 1139.893402 462.788515 
" clip-path="url(#p9f1a7322fe)" style="fill: none; stroke: #cccccc; stroke-opacity: 0.3; stroke-width: 0.8; stroke-linecap: round"/>
     </g>
     <g id="line2d_54">
      <g>
       <use xlink:href="#mb4680be2be" x="51.41645" y="462.788515" style="fill: #262626; stroke: #262626"/>
      </g>
     </g>
     <g id="text_15">
      <!-- 4.0 -->
      <g style="fill: #262626" transform="translate(29.66125 466.252896) scale(0.0968 -0.0968)">
       <use xlink:href="#ArialMT-34"/>
       <use xlink:href="#ArialMT-2e" transform="translate(55.615234 0)"/>
       <use xlink:href="#ArialMT-30" transform="translate(83.398438 0)"/>
      </g>
     </g>
    </g>
    <g id="ytick_13">
     <g id="line2d_55">
      <path d="M 51.41645 434.892111 
L 1139.893402 434.892111 
" clip-path="url(#p9f1a7322fe)" style="fill: none; stroke: #cccccc; stroke-opacity: 0.3; stroke-width: 0.8; stroke-linecap: round"/>
     </g>
     <g id="line2d_56">
      <g>
       <use xlink:href="#mb4680be2be" x="51.41645" y="434.892111" style="fill: #262626; stroke: #262626"/>
      </g>
     </g>
     <g id="text_16">
      <!-- 4.5 -->
      <g style="fill: #262626" transform="translate(29.66125 438.356493) scale(0.0968 -0.0968)">
       <use xlink:href="#ArialMT-34"/>
       <use xlink:href="#ArialMT-2e" transform="translate(55.615234 0)"/>
       <use xlink:href="#ArialMT-35" transform="translate(83.398438 0)"/>
      </g>
     </g>
    </g>
    <g id="ytick_14">
     <g id="line2d_57">
      <path d="M 51.41645 406.995708 
L 1139.893402 406.995708 
" clip-path="url(#p9f1a7322fe)" style="fill: none; stroke: #cccccc; stroke-opacity: 0.3; stroke-width: 0.8; stroke-linecap: round"/>
     </g>
     <g id="line2d_58">
      <g>
       <use xlink:href="#mb4680be2be" x="51.41645" y="406.995708" style="fill: #262626; stroke: #262626"/>
      </g>
     </g>
     <g id="text_17">
      <!-- 5.0 -->
      <g style="fill: #262626" transform="translate(29.66125 410.460089) scale(0.0968 -0.0968)">
       <use xlink:href="#ArialMT-35"/>
       <use xlink:href="#ArialMT-2e" transform="translate(55.615234 0)"/>
       <use xlink:href="#ArialMT-30" transform="translate(83.398438 0)"/>
      </g>
     </g>
    </g>
    <g id="ytick_15">
     <g id="line2d_59">
      <path d="M 51.41645 379.099304 
L 1139.893402 379.099304 
" clip-path="url(#p9f1a7322fe)" style="fill: none; stroke: #cccccc; stroke-opacity: 0.3; stroke-width: 0.8; stroke-linecap: round"/>
     </g>
     <g id="line2d_60">
      <g>
       <use xlink:href="#mb4680be2be" x="51.41645" y="379.099304" style="fill: #262626; stroke: #262626"/>
      </g>
     </g>
     <g id="text_18">
      <!-- 5.5 -->
      <g style="fill: #262626" transform="translate(29.66125 382.563686) scale(0.0968 -0.0968)">
       <use xlink:href="#ArialMT-35"/>
       <use xlink:href="#ArialMT-2e" transform="translate(55.615234 0)"/>
       <use xlink:href="#ArialMT-35" transform="translate(83.398438 0)"/>
      </g>
     </g>
    </g>
    <g id="ytick_16">
     <g id="line2d_61">
      <path d="M 51.41645 351.202901 
L 1139.893402 351.202901 
" clip-path="url(#p9f1a7322fe)" style="fill: none; stroke: #cccccc; stroke-opacity: 0.3; stroke-width: 0.8; stroke-linecap: round"/>
     </g>
     <g id="line2d_62">
      <g>
       <use xlink:href="#mb4680be2be" x="51.41645" y="351.202901" style="fill: #262626; stroke: #262626"/>
      </g>
     </g>
     <g id="text_19">
      <!-- 6.0 -->
      <g style="fill: #262626" transform="translate(29.66125 354.667282) scale(0.0968 -0.0968)">
       <use xlink:href="#ArialMT-36"/>
       <use xlink:href="#ArialMT-2e" transform="translate(55.615234 0)"/>
       <use xlink:href="#ArialMT-30" transform="translate(83.398438 0)"/>
      </g>
     </g>
    </g>
    <g id="text_20">
     <!-- Generation (GW) -->
     <g style="fill: #262626" transform="translate(23.135625 493.88115) rotate(-90) scale(0.12 -0.12)">
      <use xlink:href="#ArialMT-47"/>
      <use xlink:href="#ArialMT-65" transform="translate(77.783203 0)"/>
      <use xlink:href="#ArialMT-6e" transform="translate(133.398438 0)"/>
      <use xlink:href="#ArialMT-65" transform="translate(189.013672 0)"/>
      <use xlink:href="#ArialMT-72" transform="translate(244.628906 0)"/>
      <use xlink:href="#ArialMT-61" transform="translate(277.929688 0)"/>
      <use xlink:href="#ArialMT-74" transform="translate(333.544922 0)"/>
      <use xlink:href="#ArialMT-69" transform="translate(361.328125 0)"/>
      <use xlink:href="#ArialMT-6f" transform="translate(383.544922 0)"/>
      <use xlink:href="#ArialMT-6e" transform="translate(439.160156 0)"/>
      <use xlink:href="#ArialMT-20" transform="translate(494.775391 0)"/>
      <use xlink:href="#ArialMT-28" transform="translate(522.558594 0)"/>
      <use xlink:href="#ArialMT-47" transform="translate(555.859375 0)"/>
      <use xlink:href="#ArialMT-57" transform="translate(633.642578 0)"/>
      <use xlink:href="#ArialMT-29" transform="translate(728.027344 0)"/>
     </g>
    </g>
   </g>
   <g id="line2d_63">
    <path d="M 100.892675 345.966746 
L 104.340496 413.569774 
L 107.788316 412.510269 
L 111.236137 412.74962 
L 114.683957 359.290626 
L 118.131778 345.96563 
L 180.192548 345.96563 
L 183.640369 422.956356 
L 187.088189 480.037977 
L 190.53601 472.343033 
L 193.98383 484.857917 
L 197.431651 453.584375 
L 200.879471 384.061517 
L 204.327292 345.963956 
L 259.492421 345.966188 
L 262.940242 363.387492 
L 266.388062 402.710262 
L 269.835883 486.419558 
L 273.283703 487.329539 
L 276.731524 497.321473 
L 280.179344 425.594798 
L 283.627165 367.373888 
L 287.074985 345.96563 
L 342.240114 345.966746 
L 345.687935 365.552253 
L 349.135756 405.243814 
L 352.583576 461.603476 
L 356.031397 466.646587 
L 359.479217 460.398351 
L 362.927038 410.539109 
L 366.374858 371.1784 
L 369.822679 345.963956 
L 424.987808 345.96563 
L 428.435629 358.203224 
L 431.883449 445.811322 
L 435.33127 516.654238 
L 438.77909 534.350043 
L 442.226911 549.04252 
L 445.674731 470.716673 
L 449.122552 438.491305 
L 452.570372 345.96563 
L 511.183322 345.966746 
L 514.631143 408.097616 
L 518.078963 459.906258 
L 521.526784 495.313489 
L 524.974604 492.449087 
L 528.422425 409.66372 
L 531.870245 359.932801 
L 535.318066 345.964514 
L 593.931016 345.967304 
L 597.378836 409.658141 
L 600.826657 503.521727 
L 604.274477 479.721074 
L 607.722298 488.953667 
L 611.170118 453.832095 
L 614.617939 374.439489 
L 618.06576 345.965072 
L 676.678709 345.966188 
L 680.12653 426.614132 
L 683.57435 483.501594 
L 687.022171 490.099652 
L 690.469991 498.374841 
L 693.917812 428.827433 
L 697.365632 401.018624 
L 700.813453 345.964514 
L 728.396018 345.965072 
L 731.843838 363.963274 
L 735.291659 345.962283 
L 759.426403 345.967862 
L 762.874223 376.458631 
L 766.322044 450.353972 
L 769.769864 456.214448 
L 773.217685 487.338466 
L 776.665505 405.201969 
L 780.113326 377.995165 
L 783.561147 345.96284 
L 842.174096 345.967304 
L 845.621917 362.550042 
L 849.069737 435.628576 
L 852.517558 446.673878 
L 855.965378 434.110454 
L 859.413199 386.819355 
L 862.861019 345.966746 
L 921.473969 345.965072 
L 924.92179 354.813253 
L 928.36961 381.719892 
L 931.817431 466.956237 
L 935.265251 491.256237 
L 938.713072 493.853392 
L 942.160892 404.724941 
L 945.608713 407.497285 
L 949.056534 345.96563 
L 1000.773842 345.963398 
L 1004.221663 367.901688 
L 1007.669483 402.362673 
L 1011.117304 451.385023 
L 1014.565124 550.455752 
L 1018.012945 528.177127 
L 1021.460765 535.751 
L 1024.908586 467.458373 
L 1028.356407 407.729383 
L 1031.804227 345.965072 
L 1090.417177 345.967304 
L 1090.417177 345.967304 
" clip-path="url(#p9f1a7322fe)" style="fill: none; stroke: #8b4513; stroke-width: 1.5; stroke-linecap: round"/>
   </g>
   <g id="patch_8">
    <path d="M 51.41645 560.6809 
L 51.41645 335.72765 
" style="fill: none; stroke: #cccccc; stroke-linejoin: miter; stroke-linecap: square"/>
   </g>
   <g id="patch_9">
    <path d="M 1139.893402 560.6809 
L 1139.893402 335.72765 
" style="fill: none; stroke: #cccccc; stroke-linejoin: miter; stroke-linecap: square"/>
   </g>
   <g id="patch_10">
    <path d="M 51.41645 560.6809 
L 1139.893402 560.6809 
" style="fill: none; stroke: #cccccc; stroke-linejoin: miter; stroke-linecap: square"/>
   </g>
   <g id="patch_11">
    <path d="M 51.41645 335.72765 
L 1139.893402 335.72765 
" style="fill: none; stroke: #cccccc; stroke-linejoin: miter; stroke-linecap: square"/>
   </g>
   <g id="text_21">
    <!-- Scenario 5 - 5.EOM El.+ CM+ CVAR -->
    <g style="fill: #262626" transform="translate(482.190395 329.72765) scale(0.14 -0.14)">
     <use xlink:href="#ArialMT-53"/>
     <use xlink:href="#ArialMT-63" transform="translate(66.699219 0)"/>
     <use xlink:href="#ArialMT-65" transform="translate(116.699219 0)"/>
     <use xlink:href="#ArialMT-6e" transform="translate(172.314453 0)"/>
     <use xlink:href="#ArialMT-61" transform="translate(227.929688 0)"/>
     <use xlink:href="#ArialMT-72" transform="translate(283.544922 0)"/>
     <use xlink:href="#ArialMT-69" transform="translate(316.845703 0)"/>
     <use xlink:href="#ArialMT-6f" transform="translate(339.0625 0)"/>
     <use xlink:href="#ArialMT-20" transform="translate(394.677734 0)"/>
     <use xlink:href="#ArialMT-35" transform="translate(422.460938 0)"/>
     <use xlink:href="#ArialMT-20" transform="translate(478.076172 0)"/>
     <use xlink:href="#ArialMT-2d" transform="translate(505.859375 0)"/>
     <use xlink:href="#ArialMT-20" transform="translate(539.160156 0)"/>
     <use xlink:href="#ArialMT-35" transform="translate(566.943359 0)"/>
     <use xlink:href="#ArialMT-2e" transform="translate(622.558594 0)"/>
     <use xlink:href="#ArialMT-45" transform="translate(650.341797 0)"/>
     <use xlink:href="#ArialMT-4f" transform="translate(717.041016 0)"/>
     <use xlink:href="#ArialMT-4d" transform="translate(794.824219 0)"/>
     <use xlink:href="#ArialMT-20" transform="translate(878.125 0)"/>
     <use xlink:href="#ArialMT-45" transform="translate(905.908203 0)"/>
     <use xlink:href="#ArialMT-6c" transform="translate(972.607422 0)"/>
     <use xlink:href="#ArialMT-2e" transform="translate(994.824219 0)"/>
     <use xlink:href="#ArialMT-2b" transform="translate(1022.607422 0)"/>
     <use xlink:href="#ArialMT-20" transform="translate(1081.005859 0)"/>
     <use xlink:href="#ArialMT-43" transform="translate(1108.789062 0)"/>
     <use xlink:href="#ArialMT-4d" transform="translate(1181.005859 0)"/>
     <use xlink:href="#ArialMT-2b" transform="translate(1264.306641 0)"/>
     <use xlink:href="#ArialMT-20" transform="translate(1322.705078 0)"/>
     <use xlink:href="#ArialMT-43" transform="translate(1350.488281 0)"/>
     <use xlink:href="#ArialMT-56" transform="translate(1422.705078 0)"/>
     <use xlink:href="#ArialMT-41" transform="translate(1482.029297 0)"/>
     <use xlink:href="#ArialMT-52" transform="translate(1548.728516 0)"/>
    </g>
   </g>
   <g id="legend_2">
    <g id="line2d_64">
     <path d="M 1002.285589 348.507337 
L 1012.285589 348.507337 
L 1022.285589 348.507337 
" style="fill: none; stroke: #8b4513; stroke-width: 1.5; stroke-linecap: round"/>
    </g>
    <g id="text_22">
     <!-- Generation (Baseload) -->
     <g style="fill: #262626" transform="translate(1030.285589 352.007337) scale(0.1 -0.1)">
      <use xlink:href="#ArialMT-47"/>
      <use xlink:href="#ArialMT-65" transform="translate(77.783203 0)"/>
      <use xlink:href="#ArialMT-6e" transform="translate(133.398438 0)"/>
      <use xlink:href="#ArialMT-65" transform="translate(189.013672 0)"/>
      <use xlink:href="#ArialMT-72" transform="translate(244.628906 0)"/>
      <use xlink:href="#ArialMT-61" transform="translate(277.929688 0)"/>
      <use xlink:href="#ArialMT-74" transform="translate(333.544922 0)"/>
      <use xlink:href="#ArialMT-69" transform="translate(361.328125 0)"/>
      <use xlink:href="#ArialMT-6f" transform="translate(383.544922 0)"/>
      <use xlink:href="#ArialMT-6e" transform="translate(439.160156 0)"/>
      <use xlink:href="#ArialMT-20" transform="translate(494.775391 0)"/>
      <use xlink:href="#ArialMT-28" transform="translate(522.558594 0)"/>
      <use xlink:href="#ArialMT-42" transform="translate(555.859375 0)"/>
      <use xlink:href="#ArialMT-61" transform="translate(622.558594 0)"/>
      <use xlink:href="#ArialMT-73" transform="translate(678.173828 0)"/>
      <use xlink:href="#ArialMT-65" transform="translate(728.173828 0)"/>
      <use xlink:href="#ArialMT-6c" transform="translate(783.789062 0)"/>
      <use xlink:href="#ArialMT-6f" transform="translate(806.005859 0)"/>
      <use xlink:href="#ArialMT-61" transform="translate(861.621094 0)"/>
      <use xlink:href="#ArialMT-64" transform="translate(917.236328 0)"/>
      <use xlink:href="#ArialMT-29" transform="translate(972.851562 0)"/>
     </g>
    </g>
   </g>
  </g>
  <g id="axes_3">
   <g id="patch_12">
    <path d="M 51.41645 817.91895 
L 1139.893402 817.91895 
L 1139.893402 592.9657 
L 51.41645 592.9657 
z
" style="fill: #ffffff"/>
   </g>
   <g id="matplotlib.axis_5">
    <g id="xtick_15">
     <g id="line2d_65">
      <path d="M 100.892675 817.91895 
L 100.892675 592.9657 
" clip-path="url(#p05534c931b)" style="fill: none; stroke: #cccccc; stroke-opacity: 0.3; stroke-width: 0.8; stroke-linecap: round"/>
     </g>
     <g id="line2d_66">
      <g>
       <use xlink:href="#m9211e2d14b" x="100.892675" y="817.91895" style="fill: #262626; stroke: #262626"/>
      </g>
     </g>
     <g id="text_23">
      <!-- 0 -->
      <g style="fill: #262626" transform="translate(98.201181 833.147712) scale(0.0968 -0.0968)">
       <use xlink:href="#ArialMT-30"/>
      </g>
     </g>
    </g>
    <g id="xtick_16">
     <g id="line2d_67">
      <path d="M 273.283703 817.91895 
L 273.283703 592.9657 
" clip-path="url(#p05534c931b)" style="fill: none; stroke: #cccccc; stroke-opacity: 0.3; stroke-width: 0.8; stroke-linecap: round"/>
     </g>
     <g id="line2d_68">
      <g>
       <use xlink:href="#m9211e2d14b" x="273.283703" y="817.91895" style="fill: #262626; stroke: #262626"/>
      </g>
     </g>
     <g id="text_24">
      <!-- 50 -->
      <g style="fill: #262626" transform="translate(267.900716 833.147712) scale(0.0968 -0.0968)">
       <use xlink:href="#ArialMT-35"/>
       <use xlink:href="#ArialMT-30" transform="translate(55.615234 0)"/>
      </g>
     </g>
    </g>
    <g id="xtick_17">
     <g id="line2d_69">
      <path d="M 445.674731 817.91895 
L 445.674731 592.9657 
" clip-path="url(#p05534c931b)" style="fill: none; stroke: #cccccc; stroke-opacity: 0.3; stroke-width: 0.8; stroke-linecap: round"/>
     </g>
     <g id="line2d_70">
      <g>
       <use xlink:href="#m9211e2d14b" x="445.674731" y="817.91895" style="fill: #262626; stroke: #262626"/>
      </g>
     </g>
     <g id="text_25">
      <!-- 100 -->
      <g style="fill: #262626" transform="translate(437.60025 833.147712) scale(0.0968 -0.0968)">
       <defs>
        <path id="ArialMT-31" d="M 2384 0 
L 1822 0 
L 1822 3584 
Q 1619 3391 1289 3197 
Q 959 3003 697 2906 
L 697 3450 
Q 1169 3672 1522 3987 
Q 1875 4303 2022 4600 
L 2384 4600 
L 2384 0 
z
" transform="scale(0.015625)"/>
       </defs>
       <use xlink:href="#ArialMT-31"/>
       <use xlink:href="#ArialMT-30" transform="translate(55.615234 0)"/>
       <use xlink:href="#ArialMT-30" transform="translate(111.230469 0)"/>
      </g>
     </g>
    </g>
    <g id="xtick_18">
     <g id="line2d_71">
      <path d="M 618.06576 817.91895 
L 618.06576 592.9657 
" clip-path="url(#p05534c931b)" style="fill: none; stroke: #cccccc; stroke-opacity: 0.3; stroke-width: 0.8; stroke-linecap: round"/>
     </g>
     <g id="line2d_72">
      <g>
       <use xlink:href="#m9211e2d14b" x="618.06576" y="817.91895" style="fill: #262626; stroke: #262626"/>
      </g>
     </g>
     <g id="text_26">
      <!-- 150 -->
      <g style="fill: #262626" transform="translate(609.991278 833.147712) scale(0.0968 -0.0968)">
       <use xlink:href="#ArialMT-31"/>
       <use xlink:href="#ArialMT-35" transform="translate(55.615234 0)"/>
       <use xlink:href="#ArialMT-30" transform="translate(111.230469 0)"/>
      </g>
     </g>
    </g>
    <g id="xtick_19">
     <g id="line2d_73">
      <path d="M 790.456788 817.91895 
L 790.456788 592.9657 
" clip-path="url(#p05534c931b)" style="fill: none; stroke: #cccccc; stroke-opacity: 0.3; stroke-width: 0.8; stroke-linecap: round"/>
     </g>
     <g id="line2d_74">
      <g>
       <use xlink:href="#m9211e2d14b" x="790.456788" y="817.91895" style="fill: #262626; stroke: #262626"/>
      </g>
     </g>
     <g id="text_27">
      <!-- 200 -->
      <g style="fill: #262626" transform="translate(782.382306 833.147712) scale(0.0968 -0.0968)">
       <use xlink:href="#ArialMT-32"/>
       <use xlink:href="#ArialMT-30" transform="translate(55.615234 0)"/>
       <use xlink:href="#ArialMT-30" transform="translate(111.230469 0)"/>
      </g>
     </g>
    </g>
    <g id="xtick_20">
     <g id="line2d_75">
      <path d="M 962.847816 817.91895 
L 962.847816 592.9657 
" clip-path="url(#p05534c931b)" style="fill: none; stroke: #cccccc; stroke-opacity: 0.3; stroke-width: 0.8; stroke-linecap: round"/>
     </g>
     <g id="line2d_76">
      <g>
       <use xlink:href="#m9211e2d14b" x="962.847816" y="817.91895" style="fill: #262626; stroke: #262626"/>
      </g>
     </g>
     <g id="text_28">
      <!-- 250 -->
      <g style="fill: #262626" transform="translate(954.773335 833.147712) scale(0.0968 -0.0968)">
       <use xlink:href="#ArialMT-32"/>
       <use xlink:href="#ArialMT-35" transform="translate(55.615234 0)"/>
       <use xlink:href="#ArialMT-30" transform="translate(111.230469 0)"/>
      </g>
     </g>
    </g>
    <g id="xtick_21">
     <g id="line2d_77">
      <path d="M 1135.238844 817.91895 
L 1135.238844 592.9657 
" clip-path="url(#p05534c931b)" style="fill: none; stroke: #cccccc; stroke-opacity: 0.3; stroke-width: 0.8; stroke-linecap: round"/>
     </g>
     <g id="line2d_78">
      <g>
       <use xlink:href="#m9211e2d14b" x="1135.238844" y="817.91895" style="fill: #262626; stroke: #262626"/>
      </g>
     </g>
     <g id="text_29">
      <!-- 300 -->
      <g style="fill: #262626" transform="translate(1127.164363 833.147712) scale(0.0968 -0.0968)">
       <use xlink:href="#ArialMT-33"/>
       <use xlink:href="#ArialMT-30" transform="translate(55.615234 0)"/>
       <use xlink:href="#ArialMT-30" transform="translate(111.230469 0)"/>
      </g>
     </g>
    </g>
    <g id="text_30">
     <!-- Timestep (hour) -->
     <g style="fill: #262626" transform="translate(553.537738 847.807237) scale(0.12 -0.12)">
      <defs>
       <path id="ArialMT-54" d="M 1659 0 
L 1659 4041 
L 150 4041 
L 150 4581 
L 3781 4581 
L 3781 4041 
L 2266 4041 
L 2266 0 
L 1659 0 
z
" transform="scale(0.015625)"/>
       <path id="ArialMT-6d" d="M 422 0 
L 422 3319 
L 925 3319 
L 925 2853 
Q 1081 3097 1340 3245 
Q 1600 3394 1931 3394 
Q 2300 3394 2536 3241 
Q 2772 3088 2869 2813 
Q 3263 3394 3894 3394 
Q 4388 3394 4653 3120 
Q 4919 2847 4919 2278 
L 4919 0 
L 4359 0 
L 4359 2091 
Q 4359 2428 4304 2576 
Q 4250 2725 4106 2815 
Q 3963 2906 3769 2906 
Q 3419 2906 3187 2673 
Q 2956 2441 2956 1928 
L 2956 0 
L 2394 0 
L 2394 2156 
Q 2394 2531 2256 2718 
Q 2119 2906 1806 2906 
Q 1569 2906 1367 2781 
Q 1166 2656 1075 2415 
Q 984 2175 984 1722 
L 984 0 
L 422 0 
z
" transform="scale(0.015625)"/>
       <path id="ArialMT-70" d="M 422 -1272 
L 422 3319 
L 934 3319 
L 934 2888 
Q 1116 3141 1344 3267 
Q 1572 3394 1897 3394 
Q 2322 3394 2647 3175 
Q 2972 2956 3137 2557 
Q 3303 2159 3303 1684 
Q 3303 1175 3120 767 
Q 2938 359 2589 142 
Q 2241 -75 1856 -75 
Q 1575 -75 1351 44 
Q 1128 163 984 344 
L 984 -1272 
L 422 -1272 
z
M 931 1641 
Q 931 1000 1190 694 
Q 1450 388 1819 388 
Q 2194 388 2461 705 
Q 2728 1022 2728 1688 
Q 2728 2322 2467 2637 
Q 2206 2953 1844 2953 
Q 1484 2953 1207 2617 
Q 931 2281 931 1641 
z
" transform="scale(0.015625)"/>
       <path id="ArialMT-68" d="M 422 0 
L 422 4581 
L 984 4581 
L 984 2938 
Q 1378 3394 1978 3394 
Q 2347 3394 2619 3248 
Q 2891 3103 3008 2847 
Q 3125 2591 3125 2103 
L 3125 0 
L 2563 0 
L 2563 2103 
Q 2563 2525 2380 2717 
Q 2197 2909 1863 2909 
Q 1613 2909 1392 2779 
Q 1172 2650 1078 2428 
Q 984 2206 984 1816 
L 984 0 
L 422 0 
z
" transform="scale(0.015625)"/>
       <path id="ArialMT-75" d="M 2597 0 
L 2597 488 
Q 2209 -75 1544 -75 
Q 1250 -75 995 37 
Q 741 150 617 320 
Q 494 491 444 738 
Q 409 903 409 1263 
L 409 3319 
L 972 3319 
L 972 1478 
Q 972 1038 1006 884 
Q 1059 663 1231 536 
Q 1403 409 1656 409 
Q 1909 409 2131 539 
Q 2353 669 2445 892 
Q 2538 1116 2538 1541 
L 2538 3319 
L 3100 3319 
L 3100 0 
L 2597 0 
z
" transform="scale(0.015625)"/>
      </defs>
      <use xlink:href="#ArialMT-54"/>
      <use xlink:href="#ArialMT-69" transform="translate(57.333984 0)"/>
      <use xlink:href="#ArialMT-6d" transform="translate(79.550781 0)"/>
      <use xlink:href="#ArialMT-65" transform="translate(162.851562 0)"/>
      <use xlink:href="#ArialMT-73" transform="translate(218.466797 0)"/>
      <use xlink:href="#ArialMT-74" transform="translate(268.466797 0)"/>
      <use xlink:href="#ArialMT-65" transform="translate(296.25 0)"/>
      <use xlink:href="#ArialMT-70" transform="translate(351.865234 0)"/>
      <use xlink:href="#ArialMT-20" transform="translate(407.480469 0)"/>
      <use xlink:href="#ArialMT-28" transform="translate(435.263672 0)"/>
      <use xlink:href="#ArialMT-68" transform="translate(468.564453 0)"/>
      <use xlink:href="#ArialMT-6f" transform="translate(524.179688 0)"/>
      <use xlink:href="#ArialMT-75" transform="translate(579.794922 0)"/>
      <use xlink:href="#ArialMT-72" transform="translate(635.410156 0)"/>
      <use xlink:href="#ArialMT-29" transform="translate(668.710938 0)"/>
     </g>
    </g>
   </g>
   <g id="matplotlib.axis_6">
    <g id="ytick_17">
     <g id="line2d_79">
      <path d="M 51.41645 803.681458 
L 1139.893402 803.681458 
" clip-path="url(#p05534c931b)" style="fill: none; stroke: #cccccc; stroke-opacity: 0.3; stroke-width: 0.8; stroke-linecap: round"/>
     </g>
     <g id="line2d_80">
      <g>
       <use xlink:href="#mb4680be2be" x="51.41645" y="803.681458" style="fill: #262626; stroke: #262626"/>
      </g>
     </g>
     <g id="text_31">
      <!-- 2.5 -->
      <g style="fill: #262626" transform="translate(29.66125 807.145839) scale(0.0968 -0.0968)">
       <use xlink:href="#ArialMT-32"/>
       <use xlink:href="#ArialMT-2e" transform="translate(55.615234 0)"/>
       <use xlink:href="#ArialMT-35" transform="translate(83.398438 0)"/>
      </g>
     </g>
    </g>
    <g id="ytick_18">
     <g id="line2d_81">
      <path d="M 51.41645 775.548348 
L 1139.893402 775.548348 
" clip-path="url(#p05534c931b)" style="fill: none; stroke: #cccccc; stroke-opacity: 0.3; stroke-width: 0.8; stroke-linecap: round"/>
     </g>
     <g id="line2d_82">
      <g>
       <use xlink:href="#mb4680be2be" x="51.41645" y="775.548348" style="fill: #262626; stroke: #262626"/>
      </g>
     </g>
     <g id="text_32">
      <!-- 3.0 -->
      <g style="fill: #262626" transform="translate(29.66125 779.012729) scale(0.0968 -0.0968)">
       <use xlink:href="#ArialMT-33"/>
       <use xlink:href="#ArialMT-2e" transform="translate(55.615234 0)"/>
       <use xlink:href="#ArialMT-30" transform="translate(83.398438 0)"/>
      </g>
     </g>
    </g>
    <g id="ytick_19">
     <g id="line2d_83">
      <path d="M 51.41645 747.415238 
L 1139.893402 747.415238 
" clip-path="url(#p05534c931b)" style="fill: none; stroke: #cccccc; stroke-opacity: 0.3; stroke-width: 0.8; stroke-linecap: round"/>
     </g>
     <g id="line2d_84">
      <g>
       <use xlink:href="#mb4680be2be" x="51.41645" y="747.415238" style="fill: #262626; stroke: #262626"/>
      </g>
     </g>
     <g id="text_33">
      <!-- 3.5 -->
      <g style="fill: #262626" transform="translate(29.66125 750.879619) scale(0.0968 -0.0968)">
       <use xlink:href="#ArialMT-33"/>
       <use xlink:href="#ArialMT-2e" transform="translate(55.615234 0)"/>
       <use xlink:href="#ArialMT-35" transform="translate(83.398438 0)"/>
      </g>
     </g>
    </g>
    <g id="ytick_20">
     <g id="line2d_85">
      <path d="M 51.41645 719.282127 
L 1139.893402 719.282127 
" clip-path="url(#p05534c931b)" style="fill: none; stroke: #cccccc; stroke-opacity: 0.3; stroke-width: 0.8; stroke-linecap: round"/>
     </g>
     <g id="line2d_86">
      <g>
       <use xlink:href="#mb4680be2be" x="51.41645" y="719.282127" style="fill: #262626; stroke: #262626"/>
      </g>
     </g>
     <g id="text_34">
      <!-- 4.0 -->
      <g style="fill: #262626" transform="translate(29.66125 722.746509) scale(0.0968 -0.0968)">
       <use xlink:href="#ArialMT-34"/>
       <use xlink:href="#ArialMT-2e" transform="translate(55.615234 0)"/>
       <use xlink:href="#ArialMT-30" transform="translate(83.398438 0)"/>
      </g>
     </g>
    </g>
    <g id="ytick_21">
     <g id="line2d_87">
      <path d="M 51.41645 691.149017 
L 1139.893402 691.149017 
" clip-path="url(#p05534c931b)" style="fill: none; stroke: #cccccc; stroke-opacity: 0.3; stroke-width: 0.8; stroke-linecap: round"/>
     </g>
     <g id="line2d_88">
      <g>
       <use xlink:href="#mb4680be2be" x="51.41645" y="691.149017" style="fill: #262626; stroke: #262626"/>
      </g>
     </g>
     <g id="text_35">
      <!-- 4.5 -->
      <g style="fill: #262626" transform="translate(29.66125 694.613398) scale(0.0968 -0.0968)">
       <use xlink:href="#ArialMT-34"/>
       <use xlink:href="#ArialMT-2e" transform="translate(55.615234 0)"/>
       <use xlink:href="#ArialMT-35" transform="translate(83.398438 0)"/>
      </g>
     </g>
    </g>
    <g id="ytick_22">
     <g id="line2d_89">
      <path d="M 51.41645 663.015907 
L 1139.893402 663.015907 
" clip-path="url(#p05534c931b)" style="fill: none; stroke: #cccccc; stroke-opacity: 0.3; stroke-width: 0.8; stroke-linecap: round"/>
     </g>
     <g id="line2d_90">
      <g>
       <use xlink:href="#mb4680be2be" x="51.41645" y="663.015907" style="fill: #262626; stroke: #262626"/>
      </g>
     </g>
     <g id="text_36">
      <!-- 5.0 -->
      <g style="fill: #262626" transform="translate(29.66125 666.480288) scale(0.0968 -0.0968)">
       <use xlink:href="#ArialMT-35"/>
       <use xlink:href="#ArialMT-2e" transform="translate(55.615234 0)"/>
       <use xlink:href="#ArialMT-30" transform="translate(83.398438 0)"/>
      </g>
     </g>
    </g>
    <g id="ytick_23">
     <g id="line2d_91">
      <path d="M 51.41645 634.882796 
L 1139.893402 634.882796 
" clip-path="url(#p05534c931b)" style="fill: none; stroke: #cccccc; stroke-opacity: 0.3; stroke-width: 0.8; stroke-linecap: round"/>
     </g>
     <g id="line2d_92">
      <g>
       <use xlink:href="#mb4680be2be" x="51.41645" y="634.882796" style="fill: #262626; stroke: #262626"/>
      </g>
     </g>
     <g id="text_37">
      <!-- 5.5 -->
      <g style="fill: #262626" transform="translate(29.66125 638.347178) scale(0.0968 -0.0968)">
       <use xlink:href="#ArialMT-35"/>
       <use xlink:href="#ArialMT-2e" transform="translate(55.615234 0)"/>
       <use xlink:href="#ArialMT-35" transform="translate(83.398438 0)"/>
      </g>
     </g>
    </g>
    <g id="ytick_24">
     <g id="line2d_93">
      <path d="M 51.41645 606.749686 
L 1139.893402 606.749686 
" clip-path="url(#p05534c931b)" style="fill: none; stroke: #cccccc; stroke-opacity: 0.3; stroke-width: 0.8; stroke-linecap: round"/>
     </g>
     <g id="line2d_94">
      <g>
       <use xlink:href="#mb4680be2be" x="51.41645" y="606.749686" style="fill: #262626; stroke: #262626"/>
      </g>
     </g>
     <g id="text_38">
      <!-- 6.0 -->
      <g style="fill: #262626" transform="translate(29.66125 610.214067) scale(0.0968 -0.0968)">
       <use xlink:href="#ArialMT-36"/>
       <use xlink:href="#ArialMT-2e" transform="translate(55.615234 0)"/>
       <use xlink:href="#ArialMT-30" transform="translate(83.398438 0)"/>
      </g>
     </g>
    </g>
    <g id="text_39">
     <!-- Generation (GW) -->
     <g style="fill: #262626" transform="translate(23.135625 751.1192) rotate(-90) scale(0.12 -0.12)">
      <use xlink:href="#ArialMT-47"/>
      <use xlink:href="#ArialMT-65" transform="translate(77.783203 0)"/>
      <use xlink:href="#ArialMT-6e" transform="translate(133.398438 0)"/>
      <use xlink:href="#ArialMT-65" transform="translate(189.013672 0)"/>
      <use xlink:href="#ArialMT-72" transform="translate(244.628906 0)"/>
      <use xlink:href="#ArialMT-61" transform="translate(277.929688 0)"/>
      <use xlink:href="#ArialMT-74" transform="translate(333.544922 0)"/>
      <use xlink:href="#ArialMT-69" transform="translate(361.328125 0)"/>
      <use xlink:href="#ArialMT-6f" transform="translate(383.544922 0)"/>
      <use xlink:href="#ArialMT-6e" transform="translate(439.160156 0)"/>
      <use xlink:href="#ArialMT-20" transform="translate(494.775391 0)"/>
      <use xlink:href="#ArialMT-28" transform="translate(522.558594 0)"/>
      <use xlink:href="#ArialMT-47" transform="translate(555.859375 0)"/>
      <use xlink:href="#ArialMT-57" transform="translate(633.642578 0)"/>
      <use xlink:href="#ArialMT-29" transform="translate(728.027344 0)"/>
     </g>
    </g>
   </g>
   <g id="line2d_95">
    <path d="M 100.892675 603.263431 
L 104.340496 669.646318 
L 107.788316 668.57726 
L 111.236137 668.819205 
L 114.683957 614.778876 
L 118.131778 603.254429 
L 142.266522 603.200976 
L 180.192548 603.253866 
L 183.640369 679.112547 
L 187.088189 736.678517 
L 190.53601 728.91828 
L 193.98383 741.539356 
L 197.431651 710.001014 
L 200.879471 639.879237 
L 204.327292 603.244863 
L 249.148959 603.201538 
L 259.492421 603.260618 
L 262.940242 618.957768 
L 266.388062 658.693536 
L 269.835883 743.114248 
L 273.283703 744.032512 
L 276.731524 754.108667 
L 280.179344 681.773377 
L 283.627165 623.006685 
L 287.074985 603.255554 
L 307.761909 603.229109 
L 342.240114 603.264556 
L 345.687935 621.157215 
L 349.135756 661.248585 
L 352.583576 718.087595 
L 356.031397 723.173499 
L 359.479217 716.872808 
L 362.927038 666.589374 
L 366.374858 626.860359 
L 369.822679 603.245989 
L 393.957423 603.201538 
L 404.300885 603.201538 
L 424.987808 603.255554 
L 428.435629 613.670431 
L 431.883449 702.161442 
L 435.33127 773.605475 
L 438.77909 791.451432 
L 442.226911 806.268579 
L 445.674731 727.278683 
L 449.122552 694.779876 
L 452.570372 603.254429 
L 487.048578 603.201538 
L 507.735502 603.254429 
L 511.183322 603.263431 
L 514.631143 664.127727 
L 518.078963 716.375977 
L 521.526784 752.083646 
L 524.974604 749.194938 
L 528.422425 665.706557 
L 531.870245 615.440004 
L 535.318066 603.248802 
L 552.557169 603.228546 
L 593.931016 603.265682 
L 597.378836 665.701493 
L 600.826657 760.361532 
L 604.274477 736.358925 
L 607.722298 745.669859 
L 611.170118 710.250274 
L 614.617939 630.159247 
L 618.06576 603.25049 
L 642.200503 603.235298 
L 676.678709 603.258367 
L 680.12653 682.801361 
L 683.57435 740.171524 
L 687.022171 746.825568 
L 690.469991 755.170973 
L 693.917812 685.033441 
L 697.365632 656.987544 
L 700.813453 603.249927 
L 728.396018 603.251053 
L 731.843838 619.551939 
L 735.291659 603.234735 
L 759.426403 603.270183 
L 762.874223 632.200586 
L 766.322044 706.742637 
L 769.769864 712.653404 
L 773.217685 744.040952 
L 776.665505 661.206948 
L 780.113326 633.753533 
L 783.561147 603.238674 
L 828.382814 603.201538 
L 842.174096 603.26962 
L 845.621917 618.104209 
L 849.069737 691.892294 
L 852.517558 703.031317 
L 855.965378 690.36129 
L 859.413199 642.662164 
L 862.861019 603.262306 
L 880.100122 603.229109 
L 921.473969 603.251615 
L 924.92179 610.181363 
L 928.36961 637.51493 
L 931.817431 723.486339 
L 935.265251 747.991966 
L 938.713072 750.611159 
L 942.160892 660.725309 
L 945.608713 663.52174 
L 949.056534 603.256117 
L 966.295636 603.236423 
L 1000.773842 603.243175 
L 1004.221663 623.541214 
L 1007.669483 658.342997 
L 1011.117304 707.783 
L 1014.565124 807.693802 
L 1018.012945 785.226138 
L 1021.460765 792.864277 
L 1024.908586 723.992173 
L 1031.804227 603.251615 
L 1055.938971 603.233047 
L 1090.417177 603.269058 
L 1090.417177 603.269058 
" clip-path="url(#p05534c931b)" style="fill: none; stroke: #8b4513; stroke-width: 1.5; stroke-linecap: round"/>
   </g>
   <g id="patch_13">
    <path d="M 51.41645 817.91895 
L 51.41645 592.9657 
" style="fill: none; stroke: #cccccc; stroke-linejoin: miter; stroke-linecap: square"/>
   </g>
   <g id="patch_14">
    <path d="M 1139.893402 817.91895 
L 1139.893402 592.9657 
" style="fill: none; stroke: #cccccc; stroke-linejoin: miter; stroke-linecap: square"/>
   </g>
   <g id="patch_15">
    <path d="M 51.41645 817.91895 
L 1139.893402 817.91895 
" style="fill: none; stroke: #cccccc; stroke-linejoin: miter; stroke-linecap: square"/>
   </g>
   <g id="patch_16">
    <path d="M 51.41645 592.9657 
L 1139.893402 592.9657 
" style="fill: none; stroke: #cccccc; stroke-linejoin: miter; stroke-linecap: square"/>
   </g>
   <g id="text_40">
    <!-- Scenario 7 - 7.EOM El.+ RO+ CVAR -->
    <g style="fill: #262626" transform="translate(482.576488 586.9657) scale(0.14 -0.14)">
     <defs>
      <path id="ArialMT-37" d="M 303 3981 
L 303 4522 
L 3269 4522 
L 3269 4084 
Q 2831 3619 2401 2847 
Q 1972 2075 1738 1259 
Q 1569 684 1522 0 
L 944 0 
Q 953 541 1156 1306 
Q 1359 2072 1739 2783 
Q 2119 3494 2547 3981 
L 303 3981 
z
" transform="scale(0.015625)"/>
     </defs>
     <use xlink:href="#ArialMT-53"/>
     <use xlink:href="#ArialMT-63" transform="translate(66.699219 0)"/>
     <use xlink:href="#ArialMT-65" transform="translate(116.699219 0)"/>
     <use xlink:href="#ArialMT-6e" transform="translate(172.314453 0)"/>
     <use xlink:href="#ArialMT-61" transform="translate(227.929688 0)"/>
     <use xlink:href="#ArialMT-72" transform="translate(283.544922 0)"/>
     <use xlink:href="#ArialMT-69" transform="translate(316.845703 0)"/>
     <use xlink:href="#ArialMT-6f" transform="translate(339.0625 0)"/>
     <use xlink:href="#ArialMT-20" transform="translate(394.677734 0)"/>
     <use xlink:href="#ArialMT-37" transform="translate(422.460938 0)"/>
     <use xlink:href="#ArialMT-20" transform="translate(478.076172 0)"/>
     <use xlink:href="#ArialMT-2d" transform="translate(505.859375 0)"/>
     <use xlink:href="#ArialMT-20" transform="translate(539.160156 0)"/>
     <use xlink:href="#ArialMT-37" transform="translate(566.943359 0)"/>
     <use xlink:href="#ArialMT-2e" transform="translate(622.558594 0)"/>
     <use xlink:href="#ArialMT-45" transform="translate(650.341797 0)"/>
     <use xlink:href="#ArialMT-4f" transform="translate(717.041016 0)"/>
     <use xlink:href="#ArialMT-4d" transform="translate(794.824219 0)"/>
     <use xlink:href="#ArialMT-20" transform="translate(878.125 0)"/>
     <use xlink:href="#ArialMT-45" transform="translate(905.908203 0)"/>
     <use xlink:href="#ArialMT-6c" transform="translate(972.607422 0)"/>
     <use xlink:href="#ArialMT-2e" transform="translate(994.824219 0)"/>
     <use xlink:href="#ArialMT-2b" transform="translate(1022.607422 0)"/>
     <use xlink:href="#ArialMT-20" transform="translate(1081.005859 0)"/>
     <use xlink:href="#ArialMT-52" transform="translate(1108.789062 0)"/>
     <use xlink:href="#ArialMT-4f" transform="translate(1181.005859 0)"/>
     <use xlink:href="#ArialMT-2b" transform="translate(1258.789062 0)"/>
     <use xlink:href="#ArialMT-20" transform="translate(1317.1875 0)"/>
     <use xlink:href="#ArialMT-43" transform="translate(1344.970703 0)"/>
     <use xlink:href="#ArialMT-56" transform="translate(1417.1875 0)"/>
     <use xlink:href="#ArialMT-41" transform="translate(1476.511719 0)"/>
     <use xlink:href="#ArialMT-52" transform="translate(1543.210938 0)"/>
    </g>
   </g>
   <g id="legend_3">
    <g id="line2d_96">
     <path d="M 1002.285589 605.745387 
L 1012.285589 605.745387 
L 1022.285589 605.745387 
" style="fill: none; stroke: #8b4513; stroke-width: 1.5; stroke-linecap: round"/>
    </g>
    <g id="text_41">
     <!-- Generation (Baseload) -->
     <g style="fill: #262626" transform="translate(1030.285589 609.245387) scale(0.1 -0.1)">
      <use xlink:href="#ArialMT-47"/>
      <use xlink:href="#ArialMT-65" transform="translate(77.783203 0)"/>
      <use xlink:href="#ArialMT-6e" transform="translate(133.398438 0)"/>
      <use xlink:href="#ArialMT-65" transform="translate(189.013672 0)"/>
      <use xlink:href="#ArialMT-72" transform="translate(244.628906 0)"/>
      <use xlink:href="#ArialMT-61" transform="translate(277.929688 0)"/>
      <use xlink:href="#ArialMT-74" transform="translate(333.544922 0)"/>
      <use xlink:href="#ArialMT-69" transform="translate(361.328125 0)"/>
      <use xlink:href="#ArialMT-6f" transform="translate(383.544922 0)"/>
      <use xlink:href="#ArialMT-6e" transform="translate(439.160156 0)"/>
      <use xlink:href="#ArialMT-20" transform="translate(494.775391 0)"/>
      <use xlink:href="#ArialMT-28" transform="translate(522.558594 0)"/>
      <use xlink:href="#ArialMT-42" transform="translate(555.859375 0)"/>
      <use xlink:href="#ArialMT-61" transform="translate(622.558594 0)"/>
      <use xlink:href="#ArialMT-73" transform="translate(678.173828 0)"/>
      <use xlink:href="#ArialMT-65" transform="translate(728.173828 0)"/>
      <use xlink:href="#ArialMT-6c" transform="translate(783.789062 0)"/>
      <use xlink:href="#ArialMT-6f" transform="translate(806.005859 0)"/>
      <use xlink:href="#ArialMT-61" transform="translate(861.621094 0)"/>
      <use xlink:href="#ArialMT-64" transform="translate(917.236328 0)"/>
      <use xlink:href="#ArialMT-29" transform="translate(972.851562 0)"/>
     </g>
    </g>
   </g>
  </g>
  <g id="text_42">
   <!-- Generation Timeseries by Generator: Baseload -->
   <g style="fill: #262626" transform="translate(391.358056 27.503437) scale(0.18 -0.18)">
    <defs>
     <path id="ArialMT-62" d="M 941 0 
L 419 0 
L 419 4581 
L 981 4581 
L 981 2947 
Q 1338 3394 1891 3394 
Q 2197 3394 2470 3270 
Q 2744 3147 2920 2923 
Q 3097 2700 3197 2384 
Q 3297 2069 3297 1709 
Q 3297 856 2875 390 
Q 2453 -75 1863 -75 
Q 1275 -75 941 416 
L 941 0 
z
M 934 1684 
Q 934 1088 1097 822 
Q 1363 388 1816 388 
Q 2184 388 2453 708 
Q 2722 1028 2722 1663 
Q 2722 2313 2464 2622 
Q 2206 2931 1841 2931 
Q 1472 2931 1203 2611 
Q 934 2291 934 1684 
z
" transform="scale(0.015625)"/>
     <path id="ArialMT-79" d="M 397 -1278 
L 334 -750 
Q 519 -800 656 -800 
Q 844 -800 956 -737 
Q 1069 -675 1141 -563 
Q 1194 -478 1313 -144 
Q 1328 -97 1363 -6 
L 103 3319 
L 709 3319 
L 1400 1397 
Q 1534 1031 1641 628 
Q 1738 1016 1872 1384 
L 2581 3319 
L 3144 3319 
L 1881 -56 
Q 1678 -603 1566 -809 
Q 1416 -1088 1222 -1217 
Q 1028 -1347 759 -1347 
Q 597 -1347 397 -1278 
z
" transform="scale(0.015625)"/>
     <path id="ArialMT-3a" d="M 578 2678 
L 578 3319 
L 1219 3319 
L 1219 2678 
L 578 2678 
z
M 578 0 
L 578 641 
L 1219 641 
L 1219 0 
L 578 0 
z
" transform="scale(0.015625)"/>
    </defs>
    <use xlink:href="#ArialMT-47"/>
    <use xlink:href="#ArialMT-65" transform="translate(77.783203 0)"/>
    <use xlink:href="#ArialMT-6e" transform="translate(133.398438 0)"/>
    <use xlink:href="#ArialMT-65" transform="translate(189.013672 0)"/>
    <use xlink:href="#ArialMT-72" transform="translate(244.628906 0)"/>
    <use xlink:href="#ArialMT-61" transform="translate(277.929688 0)"/>
    <use xlink:href="#ArialMT-74" transform="translate(333.544922 0)"/>
    <use xlink:href="#ArialMT-69" transform="translate(361.328125 0)"/>
    <use xlink:href="#ArialMT-6f" transform="translate(383.544922 0)"/>
    <use xlink:href="#ArialMT-6e" transform="translate(439.160156 0)"/>
    <use xlink:href="#ArialMT-20" transform="translate(494.775391 0)"/>
    <use xlink:href="#ArialMT-54" transform="translate(520.808594 0)"/>
    <use xlink:href="#ArialMT-69" transform="translate(578.142578 0)"/>
    <use xlink:href="#ArialMT-6d" transform="translate(600.359375 0)"/>
    <use xlink:href="#ArialMT-65" transform="translate(683.660156 0)"/>
    <use xlink:href="#ArialMT-73" transform="translate(739.275391 0)"/>
    <use xlink:href="#ArialMT-65" transform="translate(789.275391 0)"/>
    <use xlink:href="#ArialMT-72" transform="translate(844.890625 0)"/>
    <use xlink:href="#ArialMT-69" transform="translate(878.191406 0)"/>
    <use xlink:href="#ArialMT-65" transform="translate(900.408203 0)"/>
    <use xlink:href="#ArialMT-73" transform="translate(956.023438 0)"/>
    <use xlink:href="#ArialMT-20" transform="translate(1006.023438 0)"/>
    <use xlink:href="#ArialMT-62" transform="translate(1033.806641 0)"/>
    <use xlink:href="#ArialMT-79" transform="translate(1089.421875 0)"/>
    <use xlink:href="#ArialMT-20" transform="translate(1139.421875 0)"/>
    <use xlink:href="#ArialMT-47" transform="translate(1167.205078 0)"/>
    <use xlink:href="#ArialMT-65" transform="translate(1244.988281 0)"/>
    <use xlink:href="#ArialMT-6e" transform="translate(1300.603516 0)"/>
    <use xlink:href="#ArialMT-65" transform="translate(1356.21875 0)"/>
    <use xlink:href="#ArialMT-72" transform="translate(1411.833984 0)"/>
    <use xlink:href="#ArialMT-61" transform="translate(1445.134766 0)"/>
    <use xlink:href="#ArialMT-74" transform="translate(1500.75 0)"/>
    <use xlink:href="#ArialMT-6f" transform="translate(1528.533203 0)"/>
    <use xlink:href="#ArialMT-72" transform="translate(1584.148438 0)"/>
    <use xlink:href="#ArialMT-3a" transform="translate(1617.449219 0)"/>
    <use xlink:href="#ArialMT-20" transform="translate(1645.232422 0)"/>
    <use xlink:href="#ArialMT-42" transform="translate(1673.015625 0)"/>
    <use xlink:href="#ArialMT-61" transform="translate(1739.714844 0)"/>
    <use xlink:href="#ArialMT-73" transform="translate(1795.330078 0)"/>
    <use xlink:href="#ArialMT-65" transform="translate(1845.330078 0)"/>
    <use xlink:href="#ArialMT-6c" transform="translate(1900.945312 0)"/>
    <use xlink:href="#ArialMT-6f" transform="translate(1923.162109 0)"/>
    <use xlink:href="#ArialMT-61" transform="translate(1978.777344 0)"/>
    <use xlink:href="#ArialMT-64" transform="translate(2034.392578 0)"/>
   </g>
  </g>
 </g>
 <defs>
  <clipPath id="p02a3d0dfdf">
   <rect x="51.41645" y="78.4896" width="1088.476952" height="224.95325"/>
  </clipPath>
  <clipPath id="p9f1a7322fe">
   <rect x="51.41645" y="335.72765" width="1088.476952" height="224.95325"/>
  </clipPath>
  <clipPath id="p05534c931b">
   <rect x="51.41645" y="592.9657" width="1088.476952" height="224.95325"/>
  </clipPath>
 </defs>
</svg>
