<?xml version="1.0" encoding="utf-8" standalone="no"?>
<!DOCTYPE svg PUBLIC "-//W3C//DTD SVG 1.1//EN"
  "http://www.w3.org/Graphics/SVG/1.1/DTD/svg11.dtd">
<svg xmlns:xlink="http://www.w3.org/1999/xlink" width="1157.706475pt" height="864.732862pt" viewBox="0 0 1157.706475 864.732862" xmlns="http://www.w3.org/2000/svg" version="1.1">
 <metadata>
  <rdf:RDF xmlns:dc="http://purl.org/dc/elements/1.1/" xmlns:cc="http://creativecommons.org/ns#" xmlns:rdf="http://www.w3.org/1999/02/22-rdf-syntax-ns#">
   <cc:Work>
    <dc:type rdf:resource="http://purl.org/dc/dcmitype/StillImage"/>
    <dc:date>2025-11-30T21:17:39.646226</dc:date>
    <dc:format>image/svg+xml</dc:format>
    <dc:creator>
     <cc:Agent>
      <dc:title>Matplotlib v3.10.3, https://matplotlib.org/</dc:title>
     </cc:Agent>
    </dc:creator>
   </cc:Work>
  </rdf:RDF>
 </metadata>
 <defs>
  <style type="text/css">*{stroke-linejoin: round; stroke-linecap: butt}</style>
 </defs>
 <g id="figure_1">
  <g id="patch_1">
   <path d="M 0 864.732862 
L 1157.706475 864.732862 
L 1157.706475 0 
L 0 0 
z
" style="fill: #ffffff"/>
  </g>
  <g id="axes_1">
   <g id="patch_2">
    <path d="M 43.344238 303.44285 
L 1139.921189 303.44285 
L 1139.921189 78.4896 
L 43.344238 78.4896 
z
" style="fill: #ffffff"/>
   </g>
   <g id="matplotlib.axis_1">
    <g id="xtick_1">
     <g id="line2d_1">
      <path d="M 93.188644 303.44285 
L 93.188644 78.4896 
" clip-path="url(#pdcb14ec16b)" style="fill: none; stroke: #cccccc; stroke-opacity: 0.3; stroke-width: 0.8; stroke-linecap: round"/>
     </g>
     <g id="line2d_2">
      <defs>
       <path id="m9a7c9e7cab" d="M 0 0 
L 0 4.8 
" style="stroke: #262626"/>
      </defs>
      <g>
       <use xlink:href="#m9a7c9e7cab" x="93.188644" y="303.44285" style="fill: #262626; stroke: #262626"/>
      </g>
     </g>
    </g>
    <g id="xtick_2">
     <g id="line2d_3">
      <path d="M 266.862536 303.44285 
L 266.862536 78.4896 
" clip-path="url(#pdcb14ec16b)" style="fill: none; stroke: #cccccc; stroke-opacity: 0.3; stroke-width: 0.8; stroke-linecap: round"/>
     </g>
     <g id="line2d_4">
      <g>
       <use xlink:href="#m9a7c9e7cab" x="266.862536" y="303.44285" style="fill: #262626; stroke: #262626"/>
      </g>
     </g>
    </g>
    <g id="xtick_3">
     <g id="line2d_5">
      <path d="M 440.536428 303.44285 
L 440.536428 78.4896 
" clip-path="url(#pdcb14ec16b)" style="fill: none; stroke: #cccccc; stroke-opacity: 0.3; stroke-width: 0.8; stroke-linecap: round"/>
     </g>
     <g id="line2d_6">
      <g>
       <use xlink:href="#m9a7c9e7cab" x="440.536428" y="303.44285" style="fill: #262626; stroke: #262626"/>
      </g>
     </g>
    </g>
    <g id="xtick_4">
     <g id="line2d_7">
      <path d="M 614.210319 303.44285 
L 614.210319 78.4896 
" clip-path="url(#pdcb14ec16b)" style="fill: none; stroke: #cccccc; stroke-opacity: 0.3; stroke-width: 0.8; stroke-linecap: round"/>
     </g>
     <g id="line2d_8">
      <g>
       <use xlink:href="#m9a7c9e7cab" x="614.210319" y="303.44285" style="fill: #262626; stroke: #262626"/>
      </g>
     </g>
    </g>
    <g id="xtick_5">
     <g id="line2d_9">
      <path d="M 787.884211 303.44285 
L 787.884211 78.4896 
" clip-path="url(#pdcb14ec16b)" style="fill: none; stroke: #cccccc; stroke-opacity: 0.3; stroke-width: 0.8; stroke-linecap: round"/>
     </g>
     <g id="line2d_10">
      <g>
       <use xlink:href="#m9a7c9e7cab" x="787.884211" y="303.44285" style="fill: #262626; stroke: #262626"/>
      </g>
     </g>
    </g>
    <g id="xtick_6">
     <g id="line2d_11">
      <path d="M 961.558103 303.44285 
L 961.558103 78.4896 
" clip-path="url(#pdcb14ec16b)" style="fill: none; stroke: #cccccc; stroke-opacity: 0.3; stroke-width: 0.8; stroke-linecap: round"/>
     </g>
     <g id="line2d_12">
      <g>
       <use xlink:href="#m9a7c9e7cab" x="961.558103" y="303.44285" style="fill: #262626; stroke: #262626"/>
      </g>
     </g>
    </g>
    <g id="xtick_7">
     <g id="line2d_13">
      <path d="M 1135.231994 303.44285 
L 1135.231994 78.4896 
" clip-path="url(#pdcb14ec16b)" style="fill: none; stroke: #cccccc; stroke-opacity: 0.3; stroke-width: 0.8; stroke-linecap: round"/>
     </g>
     <g id="line2d_14">
      <g>
       <use xlink:href="#m9a7c9e7cab" x="1135.231994" y="303.44285" style="fill: #262626; stroke: #262626"/>
      </g>
     </g>
    </g>
   </g>
   <g id="matplotlib.axis_2">
    <g id="ytick_1">
     <g id="line2d_15">
      <path d="M 43.344238 293.220058 
L 1139.921189 293.220058 
" clip-path="url(#pdcb14ec16b)" style="fill: none; stroke: #cccccc; stroke-opacity: 0.3; stroke-width: 0.8; stroke-linecap: round"/>
     </g>
     <g id="line2d_16">
      <defs>
       <path id="m95f0b8a0e5" d="M 0 0 
L -4.8 0 
" style="stroke: #262626"/>
      </defs>
      <g>
       <use xlink:href="#m95f0b8a0e5" x="43.344238" y="293.220058" style="fill: #262626; stroke: #262626"/>
      </g>
     </g>
     <g id="text_1">
      <!-- 0 -->
      <g style="fill: #262626" transform="translate(29.66125 296.68444) scale(0.0968 -0.0968)">
       <defs>
        <path id="ArialMT-30" d="M 266 2259 
Q 266 3072 433 3567 
Q 600 4063 929 4331 
Q 1259 4600 1759 4600 
Q 2128 4600 2406 4451 
Q 2684 4303 2865 4023 
Q 3047 3744 3150 3342 
Q 3253 2941 3253 2259 
Q 3253 1453 3087 958 
Q 2922 463 2592 192 
Q 2263 -78 1759 -78 
Q 1097 -78 719 397 
Q 266 969 266 2259 
z
M 844 2259 
Q 844 1131 1108 757 
Q 1372 384 1759 384 
Q 2147 384 2411 759 
Q 2675 1134 2675 2259 
Q 2675 3391 2411 3762 
Q 2147 4134 1753 4134 
Q 1366 4134 1134 3806 
Q 844 3388 844 2259 
z
" transform="scale(0.015625)"/>
       </defs>
       <use xlink:href="#ArialMT-30"/>
      </g>
     </g>
    </g>
    <g id="ytick_2">
     <g id="line2d_17">
      <path d="M 43.344238 246.099562 
L 1139.921189 246.099562 
" clip-path="url(#pdcb14ec16b)" style="fill: none; stroke: #cccccc; stroke-opacity: 0.3; stroke-width: 0.8; stroke-linecap: round"/>
     </g>
     <g id="line2d_18">
      <g>
       <use xlink:href="#m95f0b8a0e5" x="43.344238" y="246.099562" style="fill: #262626; stroke: #262626"/>
      </g>
     </g>
     <g id="text_2">
      <!-- 1 -->
      <g style="fill: #262626" transform="translate(29.66125 249.563943) scale(0.0968 -0.0968)">
       <defs>
        <path id="ArialMT-31" d="M 2384 0 
L 1822 0 
L 1822 3584 
Q 1619 3391 1289 3197 
Q 959 3003 697 2906 
L 697 3450 
Q 1169 3672 1522 3987 
Q 1875 4303 2022 4600 
L 2384 4600 
L 2384 0 
z
" transform="scale(0.015625)"/>
       </defs>
       <use xlink:href="#ArialMT-31"/>
      </g>
     </g>
    </g>
    <g id="ytick_3">
     <g id="line2d_19">
      <path d="M 43.344238 198.979065 
L 1139.921189 198.979065 
" clip-path="url(#pdcb14ec16b)" style="fill: none; stroke: #cccccc; stroke-opacity: 0.3; stroke-width: 0.8; stroke-linecap: round"/>
     </g>
     <g id="line2d_20">
      <g>
       <use xlink:href="#m95f0b8a0e5" x="43.344238" y="198.979065" style="fill: #262626; stroke: #262626"/>
      </g>
     </g>
     <g id="text_3">
      <!-- 2 -->
      <g style="fill: #262626" transform="translate(29.66125 202.443447) scale(0.0968 -0.0968)">
       <defs>
        <path id="ArialMT-32" d="M 3222 541 
L 3222 0 
L 194 0 
Q 188 203 259 391 
Q 375 700 629 1000 
Q 884 1300 1366 1694 
Q 2113 2306 2375 2664 
Q 2638 3022 2638 3341 
Q 2638 3675 2398 3904 
Q 2159 4134 1775 4134 
Q 1369 4134 1125 3890 
Q 881 3647 878 3216 
L 300 3275 
Q 359 3922 746 4261 
Q 1134 4600 1788 4600 
Q 2447 4600 2831 4234 
Q 3216 3869 3216 3328 
Q 3216 3053 3103 2787 
Q 2991 2522 2730 2228 
Q 2469 1934 1863 1422 
Q 1356 997 1212 845 
Q 1069 694 975 541 
L 3222 541 
z
" transform="scale(0.015625)"/>
       </defs>
       <use xlink:href="#ArialMT-32"/>
      </g>
     </g>
    </g>
    <g id="ytick_4">
     <g id="line2d_21">
      <path d="M 43.344238 151.858569 
L 1139.921189 151.858569 
" clip-path="url(#pdcb14ec16b)" style="fill: none; stroke: #cccccc; stroke-opacity: 0.3; stroke-width: 0.8; stroke-linecap: round"/>
     </g>
     <g id="line2d_22">
      <g>
       <use xlink:href="#m95f0b8a0e5" x="43.344238" y="151.858569" style="fill: #262626; stroke: #262626"/>
      </g>
     </g>
     <g id="text_4">
      <!-- 3 -->
      <g style="fill: #262626" transform="translate(29.66125 155.32295) scale(0.0968 -0.0968)">
       <defs>
        <path id="ArialMT-33" d="M 269 1209 
L 831 1284 
Q 928 806 1161 595 
Q 1394 384 1728 384 
Q 2125 384 2398 659 
Q 2672 934 2672 1341 
Q 2672 1728 2419 1979 
Q 2166 2231 1775 2231 
Q 1616 2231 1378 2169 
L 1441 2663 
Q 1497 2656 1531 2656 
Q 1891 2656 2178 2843 
Q 2466 3031 2466 3422 
Q 2466 3731 2256 3934 
Q 2047 4138 1716 4138 
Q 1388 4138 1169 3931 
Q 950 3725 888 3313 
L 325 3413 
Q 428 3978 793 4289 
Q 1159 4600 1703 4600 
Q 2078 4600 2393 4439 
Q 2709 4278 2876 4000 
Q 3044 3722 3044 3409 
Q 3044 3113 2884 2869 
Q 2725 2625 2413 2481 
Q 2819 2388 3044 2092 
Q 3269 1797 3269 1353 
Q 3269 753 2831 336 
Q 2394 -81 1725 -81 
Q 1122 -81 723 278 
Q 325 638 269 1209 
z
" transform="scale(0.015625)"/>
       </defs>
       <use xlink:href="#ArialMT-33"/>
      </g>
     </g>
    </g>
    <g id="ytick_5">
     <g id="line2d_23">
      <path d="M 43.344238 104.738073 
L 1139.921189 104.738073 
" clip-path="url(#pdcb14ec16b)" style="fill: none; stroke: #cccccc; stroke-opacity: 0.3; stroke-width: 0.8; stroke-linecap: round"/>
     </g>
     <g id="line2d_24">
      <g>
       <use xlink:href="#m95f0b8a0e5" x="43.344238" y="104.738073" style="fill: #262626; stroke: #262626"/>
      </g>
     </g>
     <g id="text_5">
      <!-- 4 -->
      <g style="fill: #262626" transform="translate(29.66125 108.202454) scale(0.0968 -0.0968)">
       <defs>
        <path id="ArialMT-34" d="M 2069 0 
L 2069 1097 
L 81 1097 
L 81 1613 
L 2172 4581 
L 2631 4581 
L 2631 1613 
L 3250 1613 
L 3250 1097 
L 2631 1097 
L 2631 0 
L 2069 0 
z
M 2069 1613 
L 2069 3678 
L 634 1613 
L 2069 1613 
z
" transform="scale(0.015625)"/>
       </defs>
       <use xlink:href="#ArialMT-34"/>
      </g>
     </g>
    </g>
    <g id="text_6">
     <!-- Generation (GW) -->
     <g style="fill: #262626" transform="translate(23.135625 236.6431) rotate(-90) scale(0.12 -0.12)">
      <defs>
       <path id="ArialMT-47" d="M 2638 1797 
L 2638 2334 
L 4578 2338 
L 4578 638 
Q 4131 281 3656 101 
Q 3181 -78 2681 -78 
Q 2006 -78 1454 211 
Q 903 500 622 1047 
Q 341 1594 341 2269 
Q 341 2938 620 3517 
Q 900 4097 1425 4378 
Q 1950 4659 2634 4659 
Q 3131 4659 3532 4498 
Q 3934 4338 4162 4050 
Q 4391 3763 4509 3300 
L 3963 3150 
Q 3859 3500 3706 3700 
Q 3553 3900 3268 4020 
Q 2984 4141 2638 4141 
Q 2222 4141 1919 4014 
Q 1616 3888 1430 3681 
Q 1244 3475 1141 3228 
Q 966 2803 966 2306 
Q 966 1694 1177 1281 
Q 1388 869 1791 669 
Q 2194 469 2647 469 
Q 3041 469 3416 620 
Q 3791 772 3984 944 
L 3984 1797 
L 2638 1797 
z
" transform="scale(0.015625)"/>
       <path id="ArialMT-65" d="M 2694 1069 
L 3275 997 
Q 3138 488 2766 206 
Q 2394 -75 1816 -75 
Q 1088 -75 661 373 
Q 234 822 234 1631 
Q 234 2469 665 2931 
Q 1097 3394 1784 3394 
Q 2450 3394 2872 2941 
Q 3294 2488 3294 1666 
Q 3294 1616 3291 1516 
L 816 1516 
Q 847 969 1125 678 
Q 1403 388 1819 388 
Q 2128 388 2347 550 
Q 2566 713 2694 1069 
z
M 847 1978 
L 2700 1978 
Q 2663 2397 2488 2606 
Q 2219 2931 1791 2931 
Q 1403 2931 1139 2672 
Q 875 2413 847 1978 
z
" transform="scale(0.015625)"/>
       <path id="ArialMT-6e" d="M 422 0 
L 422 3319 
L 928 3319 
L 928 2847 
Q 1294 3394 1984 3394 
Q 2284 3394 2536 3286 
Q 2788 3178 2913 3003 
Q 3038 2828 3088 2588 
Q 3119 2431 3119 2041 
L 3119 0 
L 2556 0 
L 2556 2019 
Q 2556 2363 2490 2533 
Q 2425 2703 2258 2804 
Q 2091 2906 1866 2906 
Q 1506 2906 1245 2678 
Q 984 2450 984 1813 
L 984 0 
L 422 0 
z
" transform="scale(0.015625)"/>
       <path id="ArialMT-72" d="M 416 0 
L 416 3319 
L 922 3319 
L 922 2816 
Q 1116 3169 1280 3281 
Q 1444 3394 1641 3394 
Q 1925 3394 2219 3213 
L 2025 2691 
Q 1819 2813 1613 2813 
Q 1428 2813 1281 2702 
Q 1134 2591 1072 2394 
Q 978 2094 978 1738 
L 978 0 
L 416 0 
z
" transform="scale(0.015625)"/>
       <path id="ArialMT-61" d="M 2588 409 
Q 2275 144 1986 34 
Q 1697 -75 1366 -75 
Q 819 -75 525 192 
Q 231 459 231 875 
Q 231 1119 342 1320 
Q 453 1522 633 1644 
Q 813 1766 1038 1828 
Q 1203 1872 1538 1913 
Q 2219 1994 2541 2106 
Q 2544 2222 2544 2253 
Q 2544 2597 2384 2738 
Q 2169 2928 1744 2928 
Q 1347 2928 1158 2789 
Q 969 2650 878 2297 
L 328 2372 
Q 403 2725 575 2942 
Q 747 3159 1072 3276 
Q 1397 3394 1825 3394 
Q 2250 3394 2515 3294 
Q 2781 3194 2906 3042 
Q 3031 2891 3081 2659 
Q 3109 2516 3109 2141 
L 3109 1391 
Q 3109 606 3145 398 
Q 3181 191 3288 0 
L 2700 0 
Q 2613 175 2588 409 
z
M 2541 1666 
Q 2234 1541 1622 1453 
Q 1275 1403 1131 1340 
Q 988 1278 909 1158 
Q 831 1038 831 891 
Q 831 666 1001 516 
Q 1172 366 1500 366 
Q 1825 366 2078 508 
Q 2331 650 2450 897 
Q 2541 1088 2541 1459 
L 2541 1666 
z
" transform="scale(0.015625)"/>
       <path id="ArialMT-74" d="M 1650 503 
L 1731 6 
Q 1494 -44 1306 -44 
Q 1000 -44 831 53 
Q 663 150 594 308 
Q 525 466 525 972 
L 525 2881 
L 113 2881 
L 113 3319 
L 525 3319 
L 525 4141 
L 1084 4478 
L 1084 3319 
L 1650 3319 
L 1650 2881 
L 1084 2881 
L 1084 941 
Q 1084 700 1114 631 
Q 1144 563 1211 522 
Q 1278 481 1403 481 
Q 1497 481 1650 503 
z
" transform="scale(0.015625)"/>
       <path id="ArialMT-69" d="M 425 3934 
L 425 4581 
L 988 4581 
L 988 3934 
L 425 3934 
z
M 425 0 
L 425 3319 
L 988 3319 
L 988 0 
L 425 0 
z
" transform="scale(0.015625)"/>
       <path id="ArialMT-6f" d="M 213 1659 
Q 213 2581 725 3025 
Q 1153 3394 1769 3394 
Q 2453 3394 2887 2945 
Q 3322 2497 3322 1706 
Q 3322 1066 3130 698 
Q 2938 331 2570 128 
Q 2203 -75 1769 -75 
Q 1072 -75 642 372 
Q 213 819 213 1659 
z
M 791 1659 
Q 791 1022 1069 705 
Q 1347 388 1769 388 
Q 2188 388 2466 706 
Q 2744 1025 2744 1678 
Q 2744 2294 2464 2611 
Q 2184 2928 1769 2928 
Q 1347 2928 1069 2612 
Q 791 2297 791 1659 
z
" transform="scale(0.015625)"/>
       <path id="ArialMT-20" transform="scale(0.015625)"/>
       <path id="ArialMT-28" d="M 1497 -1347 
Q 1031 -759 709 28 
Q 388 816 388 1659 
Q 388 2403 628 3084 
Q 909 3875 1497 4659 
L 1900 4659 
Q 1522 4009 1400 3731 
Q 1209 3300 1100 2831 
Q 966 2247 966 1656 
Q 966 153 1900 -1347 
L 1497 -1347 
z
" transform="scale(0.015625)"/>
       <path id="ArialMT-57" d="M 1294 0 
L 78 4581 
L 700 4581 
L 1397 1578 
Q 1509 1106 1591 641 
Q 1766 1375 1797 1488 
L 2669 4581 
L 3400 4581 
L 4056 2263 
Q 4303 1400 4413 641 
Q 4500 1075 4641 1638 
L 5359 4581 
L 5969 4581 
L 4713 0 
L 4128 0 
L 3163 3491 
Q 3041 3928 3019 4028 
Q 2947 3713 2884 3491 
L 1913 0 
L 1294 0 
z
" transform="scale(0.015625)"/>
       <path id="ArialMT-29" d="M 791 -1347 
L 388 -1347 
Q 1322 153 1322 1656 
Q 1322 2244 1188 2822 
Q 1081 3291 891 3722 
Q 769 4003 388 4659 
L 791 4659 
Q 1378 3875 1659 3084 
Q 1900 2403 1900 1659 
Q 1900 816 1576 28 
Q 1253 -759 791 -1347 
z
" transform="scale(0.015625)"/>
      </defs>
      <use xlink:href="#ArialMT-47"/>
      <use xlink:href="#ArialMT-65" transform="translate(77.783203 0)"/>
      <use xlink:href="#ArialMT-6e" transform="translate(133.398438 0)"/>
      <use xlink:href="#ArialMT-65" transform="translate(189.013672 0)"/>
      <use xlink:href="#ArialMT-72" transform="translate(244.628906 0)"/>
      <use xlink:href="#ArialMT-61" transform="translate(277.929688 0)"/>
      <use xlink:href="#ArialMT-74" transform="translate(333.544922 0)"/>
      <use xlink:href="#ArialMT-69" transform="translate(361.328125 0)"/>
      <use xlink:href="#ArialMT-6f" transform="translate(383.544922 0)"/>
      <use xlink:href="#ArialMT-6e" transform="translate(439.160156 0)"/>
      <use xlink:href="#ArialMT-20" transform="translate(494.775391 0)"/>
      <use xlink:href="#ArialMT-28" transform="translate(522.558594 0)"/>
      <use xlink:href="#ArialMT-47" transform="translate(555.859375 0)"/>
      <use xlink:href="#ArialMT-57" transform="translate(633.642578 0)"/>
      <use xlink:href="#ArialMT-29" transform="translate(728.027344 0)"/>
     </g>
    </g>
   </g>
   <g id="line2d_25">
    <path d="M 93.188644 278.607992 
L 96.662122 293.21676 
L 107.082556 293.216289 
L 110.556034 257.666701 
L 114.029511 167.415872 
L 117.502989 91.794072 
L 120.976467 88.716633 
L 162.658201 88.716633 
L 166.131679 145.364893 
L 169.605157 222.08413 
L 173.078635 256.479265 
L 176.552112 293.21676 
L 193.919502 293.216289 
L 197.392979 228.808224 
L 200.866457 179.208248 
L 204.339935 164.558956 
L 207.813413 144.374892 
L 211.286891 182.59197 
L 214.760369 178.132015 
L 218.233846 172.485566 
L 221.707324 171.674623 
L 225.180802 222.555806 
L 228.65428 243.320395 
L 232.127758 124.434911 
L 235.601236 99.737174 
L 239.074713 88.716633 
L 242.548191 88.716633 
L 246.021669 154.656113 
L 249.495147 207.988033 
L 252.968625 272.136935 
L 256.442103 293.216289 
L 277.28297 293.216289 
L 280.756447 260.624926 
L 284.229925 184.800979 
L 287.703403 156.855226 
L 291.176881 154.281505 
L 294.650359 172.64342 
L 298.123837 178.277618 
L 301.597314 142.777978 
L 305.070792 138.91504 
L 308.54427 199.511056 
L 312.017748 201.118336 
L 315.491226 108.022371 
L 318.964704 121.918206 
L 322.438181 88.716633 
L 325.911659 88.716161 
L 329.385137 144.501175 
L 332.858615 204.49075 
L 336.332093 280.374069 
L 339.805571 293.216289 
L 360.646437 293.216289 
L 364.119915 233.430745 
L 367.593393 110.716721 
L 371.066871 104.738073 
L 374.540349 103.143986 
L 378.013827 162.85131 
L 381.487304 151.289353 
L 384.960782 89.424854 
L 388.43426 88.716633 
L 391.907738 179.196467 
L 395.381216 191.134445 
L 398.854694 88.716633 
L 409.275127 88.716161 
L 412.748605 128.670573 
L 416.222083 210.312487 
L 419.695561 261.10367 
L 423.169038 293.216289 
L 444.009905 293.217231 
L 447.483383 257.764712 
L 450.956861 211.998459 
L 454.430339 181.312178 
L 457.903817 184.667157 
L 461.377295 204.91295 
L 464.850772 194.062513 
L 468.32425 126.611407 
L 471.797728 96.447221 
L 475.271206 160.155546 
L 478.744684 209.946832 
L 482.218162 88.716633 
L 485.691639 119.699773 
L 489.165117 88.716161 
L 492.638595 88.716633 
L 496.112073 89.78721 
L 499.585551 186.624071 
L 503.059029 257.800524 
L 506.532506 277.976578 
L 510.005984 293.21676 
L 527.373373 293.216289 
L 530.846851 241.679188 
L 534.320329 114.276675 
L 537.793807 115.478247 
L 541.267285 152.907 
L 544.740763 176.049289 
L 548.21424 137.765771 
L 551.687718 113.770601 
L 555.161196 128.075912 
L 558.634674 163.379059 
L 562.108152 156.704912 
L 565.58163 88.716633 
L 569.055107 108.795147 
L 572.528585 88.716633 
L 576.002063 88.716161 
L 579.475541 90.171242 
L 582.949019 154.954386 
L 586.422497 254.552037 
L 589.895974 282.648104 
L 593.369452 293.21676 
L 610.736841 293.216289 
L 614.210319 247.458517 
L 617.683797 168.415298 
L 621.157275 128.250729 
L 624.630753 135.109117 
L 628.104231 157.970569 
L 631.577708 198.312782 
L 635.051186 142.706826 
L 638.524664 185.530405 
L 641.998142 231.936083 
L 645.47162 237.571694 
L 648.945098 124.217215 
L 652.418575 159.318215 
L 655.892053 116.958302 
L 659.365531 88.716633 
L 662.839009 129.175704 
L 666.312487 187.959937 
L 669.785965 242.619242 
L 676.73292 293.21676 
L 694.100309 293.21676 
L 697.573787 245.563802 
L 701.047265 194.518639 
L 704.520743 135.369222 
L 707.994221 172.310749 
L 711.467699 156.538577 
L 714.941176 233.256871 
L 718.414654 216.121031 
L 721.888132 195.542568 
L 725.36161 249.382447 
L 728.835088 293.216289 
L 732.308566 181.312649 
L 735.782043 198.377808 
L 739.255521 144.871542 
L 742.728999 115.951808 
L 746.202477 159.304079 
L 749.675955 177.281962 
L 753.149433 259.044976 
L 756.62291 291.402621 
L 760.096388 293.216289 
L 777.463777 293.216289 
L 780.937255 201.426504 
L 784.410733 147.328404 
L 787.884211 113.921386 
L 791.357689 127.330937 
L 794.831167 185.138833 
L 798.304644 235.325932 
L 801.778122 207.424472 
L 805.2516 206.80578 
L 808.725078 208.391856 
L 812.198556 275.793014 
L 815.672034 160.860469 
L 819.145511 182.550033 
L 822.618989 128.166383 
L 826.092467 88.716633 
L 829.565945 110.185202 
L 833.039423 197.302047 
L 836.512901 269.519862 
L 839.986378 290.324504 
L 843.459856 293.216289 
L 857.353768 293.216289 
L 860.827245 276.461183 
L 864.300723 200.316816 
L 867.774201 116.216154 
L 871.247679 88.716633 
L 874.721157 88.716633 
L 878.194635 145.426621 
L 881.668112 151.745951 
L 885.14159 163.350316 
L 888.615068 186.02517 
L 892.088546 229.392047 
L 895.562024 248.952708 
L 899.035502 149.046889 
L 902.508979 140.581692 
L 905.982457 88.716633 
L 909.455935 88.716633 
L 912.929413 108.941221 
L 916.402891 169.420378 
L 919.876369 250.734805 
L 923.349846 293.215817 
L 944.190713 293.21676 
L 947.664191 261.609744 
L 951.137669 159.911933 
L 954.611147 159.823346 
L 958.084625 131.688169 
L 961.558103 175.679394 
L 965.03158 190.40125 
L 968.505058 169.488232 
L 975.452014 273.141544 
L 978.925492 269.803528 
L 982.39897 195.842254 
L 985.872447 139.789125 
L 989.345925 132.053824 
L 992.819403 88.716633 
L 996.292881 180.764166 
L 999.766359 221.778789 
L 1003.239837 293.216289 
L 1027.554181 293.21676 
L 1031.027659 249.697212 
L 1034.501137 176.69484 
L 1037.974615 113.552433 
L 1041.448093 115.195053 
L 1044.92157 137.17111 
L 1048.395048 163.850264 
L 1051.868526 114.21636 
L 1055.342004 170.317552 
L 1058.815482 166.787285 
L 1062.28896 205.794574 
L 1065.762437 158.557219 
L 1069.235915 121.302341 
L 1072.709393 88.716633 
L 1079.656349 88.716633 
L 1083.129827 184.59789 
L 1086.603304 251.084439 
L 1090.076782 288.767171 
L 1090.076782 288.767171 
" clip-path="url(#pdcb14ec16b)" style="fill: none; stroke: #ff8c00; stroke-width: 1.5; stroke-linecap: round"/>
   </g>
   <g id="patch_3">
    <path d="M 43.344238 303.44285 
L 43.344238 78.4896 
" style="fill: none; stroke: #cccccc; stroke-linejoin: miter; stroke-linecap: square"/>
   </g>
   <g id="patch_4">
    <path d="M 1139.921189 303.44285 
L 1139.921189 78.4896 
" style="fill: none; stroke: #cccccc; stroke-linejoin: miter; stroke-linecap: square"/>
   </g>
   <g id="patch_5">
    <path d="M 43.344238 303.44285 
L 1139.921189 303.44285 
" style="fill: none; stroke: #cccccc; stroke-linejoin: miter; stroke-linecap: square"/>
   </g>
   <g id="patch_6">
    <path d="M 43.344238 78.4896 
L 1139.921189 78.4896 
" style="fill: none; stroke: #cccccc; stroke-linejoin: miter; stroke-linecap: square"/>
   </g>
   <g id="text_7">
    <!-- Scenario 3 - 3.EOM El.+ CVAR -->
    <g style="fill: #262626" transform="translate(495.087401 72.4896) scale(0.14 -0.14)">
     <defs>
      <path id="ArialMT-53" d="M 288 1472 
L 859 1522 
Q 900 1178 1048 958 
Q 1197 738 1509 602 
Q 1822 466 2213 466 
Q 2559 466 2825 569 
Q 3091 672 3220 851 
Q 3350 1031 3350 1244 
Q 3350 1459 3225 1620 
Q 3100 1781 2813 1891 
Q 2628 1963 1997 2114 
Q 1366 2266 1113 2400 
Q 784 2572 623 2826 
Q 463 3081 463 3397 
Q 463 3744 659 4045 
Q 856 4347 1234 4503 
Q 1613 4659 2075 4659 
Q 2584 4659 2973 4495 
Q 3363 4331 3572 4012 
Q 3781 3694 3797 3291 
L 3216 3247 
Q 3169 3681 2898 3903 
Q 2628 4125 2100 4125 
Q 1550 4125 1298 3923 
Q 1047 3722 1047 3438 
Q 1047 3191 1225 3031 
Q 1400 2872 2139 2705 
Q 2878 2538 3153 2413 
Q 3553 2228 3743 1945 
Q 3934 1663 3934 1294 
Q 3934 928 3725 604 
Q 3516 281 3123 101 
Q 2731 -78 2241 -78 
Q 1619 -78 1198 103 
Q 778 284 539 648 
Q 300 1013 288 1472 
z
" transform="scale(0.015625)"/>
      <path id="ArialMT-63" d="M 2588 1216 
L 3141 1144 
Q 3050 572 2676 248 
Q 2303 -75 1759 -75 
Q 1078 -75 664 370 
Q 250 816 250 1647 
Q 250 2184 428 2587 
Q 606 2991 970 3192 
Q 1334 3394 1763 3394 
Q 2303 3394 2647 3120 
Q 2991 2847 3088 2344 
L 2541 2259 
Q 2463 2594 2264 2762 
Q 2066 2931 1784 2931 
Q 1359 2931 1093 2626 
Q 828 2322 828 1663 
Q 828 994 1084 691 
Q 1341 388 1753 388 
Q 2084 388 2306 591 
Q 2528 794 2588 1216 
z
" transform="scale(0.015625)"/>
      <path id="ArialMT-2d" d="M 203 1375 
L 203 1941 
L 1931 1941 
L 1931 1375 
L 203 1375 
z
" transform="scale(0.015625)"/>
      <path id="ArialMT-2e" d="M 581 0 
L 581 641 
L 1222 641 
L 1222 0 
L 581 0 
z
" transform="scale(0.015625)"/>
      <path id="ArialMT-45" d="M 506 0 
L 506 4581 
L 3819 4581 
L 3819 4041 
L 1113 4041 
L 1113 2638 
L 3647 2638 
L 3647 2100 
L 1113 2100 
L 1113 541 
L 3925 541 
L 3925 0 
L 506 0 
z
" transform="scale(0.015625)"/>
      <path id="ArialMT-4f" d="M 309 2231 
Q 309 3372 921 4017 
Q 1534 4663 2503 4663 
Q 3138 4663 3647 4359 
Q 4156 4056 4423 3514 
Q 4691 2972 4691 2284 
Q 4691 1588 4409 1038 
Q 4128 488 3612 205 
Q 3097 -78 2500 -78 
Q 1853 -78 1343 234 
Q 834 547 571 1087 
Q 309 1628 309 2231 
z
M 934 2222 
Q 934 1394 1379 917 
Q 1825 441 2497 441 
Q 3181 441 3623 922 
Q 4066 1403 4066 2288 
Q 4066 2847 3877 3264 
Q 3688 3681 3323 3911 
Q 2959 4141 2506 4141 
Q 1863 4141 1398 3698 
Q 934 3256 934 2222 
z
" transform="scale(0.015625)"/>
      <path id="ArialMT-4d" d="M 475 0 
L 475 4581 
L 1388 4581 
L 2472 1338 
Q 2622 884 2691 659 
Q 2769 909 2934 1394 
L 4031 4581 
L 4847 4581 
L 4847 0 
L 4263 0 
L 4263 3834 
L 2931 0 
L 2384 0 
L 1059 3900 
L 1059 0 
L 475 0 
z
" transform="scale(0.015625)"/>
      <path id="ArialMT-6c" d="M 409 0 
L 409 4581 
L 972 4581 
L 972 0 
L 409 0 
z
" transform="scale(0.015625)"/>
      <path id="ArialMT-2b" d="M 1603 741 
L 1603 1997 
L 356 1997 
L 356 2522 
L 1603 2522 
L 1603 3769 
L 2134 3769 
L 2134 2522 
L 3381 2522 
L 3381 1997 
L 2134 1997 
L 2134 741 
L 1603 741 
z
" transform="scale(0.015625)"/>
      <path id="ArialMT-43" d="M 3763 1606 
L 4369 1453 
Q 4178 706 3683 314 
Q 3188 -78 2472 -78 
Q 1731 -78 1267 223 
Q 803 525 561 1097 
Q 319 1669 319 2325 
Q 319 3041 592 3573 
Q 866 4106 1370 4382 
Q 1875 4659 2481 4659 
Q 3169 4659 3637 4309 
Q 4106 3959 4291 3325 
L 3694 3184 
Q 3534 3684 3231 3912 
Q 2928 4141 2469 4141 
Q 1941 4141 1586 3887 
Q 1231 3634 1087 3207 
Q 944 2781 944 2328 
Q 944 1744 1114 1308 
Q 1284 872 1643 656 
Q 2003 441 2422 441 
Q 2931 441 3284 734 
Q 3638 1028 3763 1606 
z
" transform="scale(0.015625)"/>
      <path id="ArialMT-56" d="M 1803 0 
L 28 4581 
L 684 4581 
L 1875 1253 
Q 2019 853 2116 503 
Q 2222 878 2363 1253 
L 3600 4581 
L 4219 4581 
L 2425 0 
L 1803 0 
z
" transform="scale(0.015625)"/>
      <path id="ArialMT-41" d="M -9 0 
L 1750 4581 
L 2403 4581 
L 4278 0 
L 3588 0 
L 3053 1388 
L 1138 1388 
L 634 0 
L -9 0 
z
M 1313 1881 
L 2866 1881 
L 2388 3150 
Q 2169 3728 2063 4100 
Q 1975 3659 1816 3225 
L 1313 1881 
z
" transform="scale(0.015625)"/>
      <path id="ArialMT-52" d="M 503 0 
L 503 4581 
L 2534 4581 
Q 3147 4581 3465 4457 
Q 3784 4334 3975 4021 
Q 4166 3709 4166 3331 
Q 4166 2844 3850 2509 
Q 3534 2175 2875 2084 
Q 3116 1969 3241 1856 
Q 3506 1613 3744 1247 
L 4541 0 
L 3778 0 
L 3172 953 
Q 2906 1366 2734 1584 
Q 2563 1803 2427 1890 
Q 2291 1978 2150 2013 
Q 2047 2034 1813 2034 
L 1109 2034 
L 1109 0 
L 503 0 
z
M 1109 2559 
L 2413 2559 
Q 2828 2559 3062 2645 
Q 3297 2731 3419 2920 
Q 3541 3109 3541 3331 
Q 3541 3656 3305 3865 
Q 3069 4075 2559 4075 
L 1109 4075 
L 1109 2559 
z
" transform="scale(0.015625)"/>
     </defs>
     <use xlink:href="#ArialMT-53"/>
     <use xlink:href="#ArialMT-63" transform="translate(66.699219 0)"/>
     <use xlink:href="#ArialMT-65" transform="translate(116.699219 0)"/>
     <use xlink:href="#ArialMT-6e" transform="translate(172.314453 0)"/>
     <use xlink:href="#ArialMT-61" transform="translate(227.929688 0)"/>
     <use xlink:href="#ArialMT-72" transform="translate(283.544922 0)"/>
     <use xlink:href="#ArialMT-69" transform="translate(316.845703 0)"/>
     <use xlink:href="#ArialMT-6f" transform="translate(339.0625 0)"/>
     <use xlink:href="#ArialMT-20" transform="translate(394.677734 0)"/>
     <use xlink:href="#ArialMT-33" transform="translate(422.460938 0)"/>
     <use xlink:href="#ArialMT-20" transform="translate(478.076172 0)"/>
     <use xlink:href="#ArialMT-2d" transform="translate(505.859375 0)"/>
     <use xlink:href="#ArialMT-20" transform="translate(539.160156 0)"/>
     <use xlink:href="#ArialMT-33" transform="translate(566.943359 0)"/>
     <use xlink:href="#ArialMT-2e" transform="translate(622.558594 0)"/>
     <use xlink:href="#ArialMT-45" transform="translate(650.341797 0)"/>
     <use xlink:href="#ArialMT-4f" transform="translate(717.041016 0)"/>
     <use xlink:href="#ArialMT-4d" transform="translate(794.824219 0)"/>
     <use xlink:href="#ArialMT-20" transform="translate(878.125 0)"/>
     <use xlink:href="#ArialMT-45" transform="translate(905.908203 0)"/>
     <use xlink:href="#ArialMT-6c" transform="translate(972.607422 0)"/>
     <use xlink:href="#ArialMT-2e" transform="translate(994.824219 0)"/>
     <use xlink:href="#ArialMT-2b" transform="translate(1022.607422 0)"/>
     <use xlink:href="#ArialMT-20" transform="translate(1081.005859 0)"/>
     <use xlink:href="#ArialMT-43" transform="translate(1108.789062 0)"/>
     <use xlink:href="#ArialMT-56" transform="translate(1181.005859 0)"/>
     <use xlink:href="#ArialMT-41" transform="translate(1240.330078 0)"/>
     <use xlink:href="#ArialMT-52" transform="translate(1307.029297 0)"/>
    </g>
   </g>
   <g id="legend_1">
    <g id="line2d_26">
     <path d="M 1005.677439 91.269288 
L 1015.677439 91.269288 
L 1025.677439 91.269288 
" style="fill: none; stroke: #ff8c00; stroke-width: 1.5; stroke-linecap: round"/>
    </g>
    <g id="text_8">
     <!-- Generation (MidMerit) -->
     <g style="fill: #262626" transform="translate(1033.677439 94.769288) scale(0.1 -0.1)">
      <defs>
       <path id="ArialMT-64" d="M 2575 0 
L 2575 419 
Q 2259 -75 1647 -75 
Q 1250 -75 917 144 
Q 584 363 401 755 
Q 219 1147 219 1656 
Q 219 2153 384 2558 
Q 550 2963 881 3178 
Q 1213 3394 1622 3394 
Q 1922 3394 2156 3267 
Q 2391 3141 2538 2938 
L 2538 4581 
L 3097 4581 
L 3097 0 
L 2575 0 
z
M 797 1656 
Q 797 1019 1065 703 
Q 1334 388 1700 388 
Q 2069 388 2326 689 
Q 2584 991 2584 1609 
Q 2584 2291 2321 2609 
Q 2059 2928 1675 2928 
Q 1300 2928 1048 2622 
Q 797 2316 797 1656 
z
" transform="scale(0.015625)"/>
      </defs>
      <use xlink:href="#ArialMT-47"/>
      <use xlink:href="#ArialMT-65" transform="translate(77.783203 0)"/>
      <use xlink:href="#ArialMT-6e" transform="translate(133.398438 0)"/>
      <use xlink:href="#ArialMT-65" transform="translate(189.013672 0)"/>
      <use xlink:href="#ArialMT-72" transform="translate(244.628906 0)"/>
      <use xlink:href="#ArialMT-61" transform="translate(277.929688 0)"/>
      <use xlink:href="#ArialMT-74" transform="translate(333.544922 0)"/>
      <use xlink:href="#ArialMT-69" transform="translate(361.328125 0)"/>
      <use xlink:href="#ArialMT-6f" transform="translate(383.544922 0)"/>
      <use xlink:href="#ArialMT-6e" transform="translate(439.160156 0)"/>
      <use xlink:href="#ArialMT-20" transform="translate(494.775391 0)"/>
      <use xlink:href="#ArialMT-28" transform="translate(522.558594 0)"/>
      <use xlink:href="#ArialMT-4d" transform="translate(555.859375 0)"/>
      <use xlink:href="#ArialMT-69" transform="translate(639.160156 0)"/>
      <use xlink:href="#ArialMT-64" transform="translate(661.376953 0)"/>
      <use xlink:href="#ArialMT-4d" transform="translate(716.992188 0)"/>
      <use xlink:href="#ArialMT-65" transform="translate(800.292969 0)"/>
      <use xlink:href="#ArialMT-72" transform="translate(855.908203 0)"/>
      <use xlink:href="#ArialMT-69" transform="translate(889.208984 0)"/>
      <use xlink:href="#ArialMT-74" transform="translate(911.425781 0)"/>
      <use xlink:href="#ArialMT-29" transform="translate(939.208984 0)"/>
     </g>
    </g>
   </g>
  </g>
  <g id="axes_2">
   <g id="patch_7">
    <path d="M 43.344238 560.6809 
L 1139.921189 560.6809 
L 1139.921189 335.72765 
L 43.344238 335.72765 
z
" style="fill: #ffffff"/>
   </g>
   <g id="matplotlib.axis_3">
    <g id="xtick_8">
     <g id="line2d_27">
      <path d="M 93.188644 560.6809 
L 93.188644 335.72765 
" clip-path="url(#p90dfd57b10)" style="fill: none; stroke: #cccccc; stroke-opacity: 0.3; stroke-width: 0.8; stroke-linecap: round"/>
     </g>
     <g id="line2d_28">
      <g>
       <use xlink:href="#m9a7c9e7cab" x="93.188644" y="560.6809" style="fill: #262626; stroke: #262626"/>
      </g>
     </g>
    </g>
    <g id="xtick_9">
     <g id="line2d_29">
      <path d="M 266.862536 560.6809 
L 266.862536 335.72765 
" clip-path="url(#p90dfd57b10)" style="fill: none; stroke: #cccccc; stroke-opacity: 0.3; stroke-width: 0.8; stroke-linecap: round"/>
     </g>
     <g id="line2d_30">
      <g>
       <use xlink:href="#m9a7c9e7cab" x="266.862536" y="560.6809" style="fill: #262626; stroke: #262626"/>
      </g>
     </g>
    </g>
    <g id="xtick_10">
     <g id="line2d_31">
      <path d="M 440.536428 560.6809 
L 440.536428 335.72765 
" clip-path="url(#p90dfd57b10)" style="fill: none; stroke: #cccccc; stroke-opacity: 0.3; stroke-width: 0.8; stroke-linecap: round"/>
     </g>
     <g id="line2d_32">
      <g>
       <use xlink:href="#m9a7c9e7cab" x="440.536428" y="560.6809" style="fill: #262626; stroke: #262626"/>
      </g>
     </g>
    </g>
    <g id="xtick_11">
     <g id="line2d_33">
      <path d="M 614.210319 560.6809 
L 614.210319 335.72765 
" clip-path="url(#p90dfd57b10)" style="fill: none; stroke: #cccccc; stroke-opacity: 0.3; stroke-width: 0.8; stroke-linecap: round"/>
     </g>
     <g id="line2d_34">
      <g>
       <use xlink:href="#m9a7c9e7cab" x="614.210319" y="560.6809" style="fill: #262626; stroke: #262626"/>
      </g>
     </g>
    </g>
    <g id="xtick_12">
     <g id="line2d_35">
      <path d="M 787.884211 560.6809 
L 787.884211 335.72765 
" clip-path="url(#p90dfd57b10)" style="fill: none; stroke: #cccccc; stroke-opacity: 0.3; stroke-width: 0.8; stroke-linecap: round"/>
     </g>
     <g id="line2d_36">
      <g>
       <use xlink:href="#m9a7c9e7cab" x="787.884211" y="560.6809" style="fill: #262626; stroke: #262626"/>
      </g>
     </g>
    </g>
    <g id="xtick_13">
     <g id="line2d_37">
      <path d="M 961.558103 560.6809 
L 961.558103 335.72765 
" clip-path="url(#p90dfd57b10)" style="fill: none; stroke: #cccccc; stroke-opacity: 0.3; stroke-width: 0.8; stroke-linecap: round"/>
     </g>
     <g id="line2d_38">
      <g>
       <use xlink:href="#m9a7c9e7cab" x="961.558103" y="560.6809" style="fill: #262626; stroke: #262626"/>
      </g>
     </g>
    </g>
    <g id="xtick_14">
     <g id="line2d_39">
      <path d="M 1135.231994 560.6809 
L 1135.231994 335.72765 
" clip-path="url(#p90dfd57b10)" style="fill: none; stroke: #cccccc; stroke-opacity: 0.3; stroke-width: 0.8; stroke-linecap: round"/>
     </g>
     <g id="line2d_40">
      <g>
       <use xlink:href="#m9a7c9e7cab" x="1135.231994" y="560.6809" style="fill: #262626; stroke: #262626"/>
      </g>
     </g>
    </g>
   </g>
   <g id="matplotlib.axis_4">
    <g id="ytick_6">
     <g id="line2d_41">
      <path d="M 43.344238 550.463333 
L 1139.921189 550.463333 
" clip-path="url(#p90dfd57b10)" style="fill: none; stroke: #cccccc; stroke-opacity: 0.3; stroke-width: 0.8; stroke-linecap: round"/>
     </g>
     <g id="line2d_42">
      <g>
       <use xlink:href="#m95f0b8a0e5" x="43.344238" y="550.463333" style="fill: #262626; stroke: #262626"/>
      </g>
     </g>
     <g id="text_9">
      <!-- 0 -->
      <g style="fill: #262626" transform="translate(29.66125 553.927714) scale(0.0968 -0.0968)">
       <use xlink:href="#ArialMT-30"/>
      </g>
     </g>
    </g>
    <g id="ytick_7">
     <g id="line2d_43">
      <path d="M 43.344238 503.084985 
L 1139.921189 503.084985 
" clip-path="url(#p90dfd57b10)" style="fill: none; stroke: #cccccc; stroke-opacity: 0.3; stroke-width: 0.8; stroke-linecap: round"/>
     </g>
     <g id="line2d_44">
      <g>
       <use xlink:href="#m95f0b8a0e5" x="43.344238" y="503.084985" style="fill: #262626; stroke: #262626"/>
      </g>
     </g>
     <g id="text_10">
      <!-- 1 -->
      <g style="fill: #262626" transform="translate(29.66125 506.549366) scale(0.0968 -0.0968)">
       <use xlink:href="#ArialMT-31"/>
      </g>
     </g>
    </g>
    <g id="ytick_8">
     <g id="line2d_45">
      <path d="M 43.344238 455.706636 
L 1139.921189 455.706636 
" clip-path="url(#p90dfd57b10)" style="fill: none; stroke: #cccccc; stroke-opacity: 0.3; stroke-width: 0.8; stroke-linecap: round"/>
     </g>
     <g id="line2d_46">
      <g>
       <use xlink:href="#m95f0b8a0e5" x="43.344238" y="455.706636" style="fill: #262626; stroke: #262626"/>
      </g>
     </g>
     <g id="text_11">
      <!-- 2 -->
      <g style="fill: #262626" transform="translate(29.66125 459.171018) scale(0.0968 -0.0968)">
       <use xlink:href="#ArialMT-32"/>
      </g>
     </g>
    </g>
    <g id="ytick_9">
     <g id="line2d_47">
      <path d="M 43.344238 408.328288 
L 1139.921189 408.328288 
" clip-path="url(#p90dfd57b10)" style="fill: none; stroke: #cccccc; stroke-opacity: 0.3; stroke-width: 0.8; stroke-linecap: round"/>
     </g>
     <g id="line2d_48">
      <g>
       <use xlink:href="#m95f0b8a0e5" x="43.344238" y="408.328288" style="fill: #262626; stroke: #262626"/>
      </g>
     </g>
     <g id="text_12">
      <!-- 3 -->
      <g style="fill: #262626" transform="translate(29.66125 411.792669) scale(0.0968 -0.0968)">
       <use xlink:href="#ArialMT-33"/>
      </g>
     </g>
    </g>
    <g id="ytick_10">
     <g id="line2d_49">
      <path d="M 43.344238 360.94994 
L 1139.921189 360.94994 
" clip-path="url(#p90dfd57b10)" style="fill: none; stroke: #cccccc; stroke-opacity: 0.3; stroke-width: 0.8; stroke-linecap: round"/>
     </g>
     <g id="line2d_50">
      <g>
       <use xlink:href="#m95f0b8a0e5" x="43.344238" y="360.94994" style="fill: #262626; stroke: #262626"/>
      </g>
     </g>
     <g id="text_13">
      <!-- 4 -->
      <g style="fill: #262626" transform="translate(29.66125 364.414321) scale(0.0968 -0.0968)">
       <use xlink:href="#ArialMT-34"/>
      </g>
     </g>
    </g>
    <g id="text_14">
     <!-- Generation (GW) -->
     <g style="fill: #262626" transform="translate(23.135625 493.88115) rotate(-90) scale(0.12 -0.12)">
      <use xlink:href="#ArialMT-47"/>
      <use xlink:href="#ArialMT-65" transform="translate(77.783203 0)"/>
      <use xlink:href="#ArialMT-6e" transform="translate(133.398438 0)"/>
      <use xlink:href="#ArialMT-65" transform="translate(189.013672 0)"/>
      <use xlink:href="#ArialMT-72" transform="translate(244.628906 0)"/>
      <use xlink:href="#ArialMT-61" transform="translate(277.929688 0)"/>
      <use xlink:href="#ArialMT-74" transform="translate(333.544922 0)"/>
      <use xlink:href="#ArialMT-69" transform="translate(361.328125 0)"/>
      <use xlink:href="#ArialMT-6f" transform="translate(383.544922 0)"/>
      <use xlink:href="#ArialMT-6e" transform="translate(439.160156 0)"/>
      <use xlink:href="#ArialMT-20" transform="translate(494.775391 0)"/>
      <use xlink:href="#ArialMT-28" transform="translate(522.558594 0)"/>
      <use xlink:href="#ArialMT-47" transform="translate(555.859375 0)"/>
      <use xlink:href="#ArialMT-57" transform="translate(633.642578 0)"/>
      <use xlink:href="#ArialMT-29" transform="translate(728.027344 0)"/>
     </g>
    </g>
   </g>
   <g id="line2d_51">
    <path d="M 93.188644 537.277465 
L 96.662122 550.452436 
L 107.082556 550.450541 
L 110.556034 516.218737 
L 114.029511 425.473565 
L 117.502989 349.432737 
L 120.976467 345.954693 
L 162.658201 345.954693 
L 166.131679 403.301919 
L 169.605157 480.440503 
L 176.552112 550.45291 
L 193.919502 550.451488 
L 197.392979 487.203289 
L 200.866457 437.331892 
L 204.339935 422.602437 
L 207.813413 402.308395 
L 211.286891 440.734605 
L 214.760369 436.251665 
L 218.233846 430.574318 
L 221.707324 429.758463 
L 225.180802 480.918551 
L 228.65428 501.796767 
L 232.127758 382.2593 
L 235.601236 357.424517 
L 239.074713 345.954693 
L 242.548191 345.954693 
L 246.021669 412.645403 
L 249.495147 466.268692 
L 252.968625 530.770049 
L 256.442103 550.450541 
L 277.28297 550.450541 
L 280.756447 519.194571 
L 284.229925 442.955228 
L 287.703403 414.857025 
L 291.176881 412.269693 
L 294.650359 430.732088 
L 298.123837 436.397591 
L 301.597314 400.703691 
L 305.070792 396.820087 
L 308.54427 457.747222 
L 312.017748 459.363297 
L 315.491226 365.755526 
L 318.964704 379.727401 
L 322.438181 345.954693 
L 325.911659 345.954693 
L 329.385137 402.433474 
L 332.858615 462.752271 
L 336.332093 539.0551 
L 339.805571 550.450541 
L 360.646437 550.451014 
L 364.119915 491.850631 
L 367.593393 368.46462 
L 371.066871 362.452781 
L 374.540349 360.850446 
L 378.013827 420.885919 
L 381.487304 409.261168 
L 384.960782 347.084193 
L 388.43426 345.954693 
L 391.907738 437.320521 
L 395.381216 449.323825 
L 398.854694 345.954693 
L 409.275127 345.954693 
L 412.748605 386.516718 
L 416.222083 468.605392 
L 419.695561 519.675461 
L 423.169038 550.450067 
L 444.009905 550.453383 
L 447.483383 516.319652 
L 450.956861 470.30201 
L 454.430339 439.448282 
L 457.903817 442.821621 
L 461.377295 463.178676 
L 464.850772 452.269337 
L 468.32425 384.448179 
L 471.797728 354.117035 
L 475.271206 418.175878 
L 478.744684 468.239631 
L 482.218162 345.954693 
L 485.691639 377.496828 
L 489.165117 345.954693 
L 492.638595 345.954693 
L 496.112073 347.437635 
L 499.585551 444.786875 
L 503.059029 516.353291 
L 506.532506 536.643069 
L 510.005984 550.452436 
L 527.373373 550.450541 
L 530.846851 500.144211 
L 534.320329 372.044054 
L 537.793807 373.252202 
L 541.267285 410.886719 
L 544.740763 434.155647 
L 548.21424 395.663582 
L 551.687718 371.537106 
L 555.161196 385.920698 
L 558.634674 421.416557 
L 562.108152 414.706361 
L 565.58163 345.954693 
L 569.055107 366.532531 
L 572.528585 345.954693 
L 576.002063 345.954693 
L 579.475541 347.807186 
L 582.949019 412.943887 
L 586.422497 513.087028 
L 589.895974 541.343475 
L 593.369452 550.452436 
L 610.736841 550.451014 
L 614.210319 505.955639 
L 617.683797 426.479881 
L 621.157275 386.095998 
L 624.630753 392.992391 
L 628.104231 415.979418 
L 631.577708 456.542864 
L 635.051186 400.633097 
L 638.524664 443.69054 
L 641.998142 490.350158 
L 645.47162 496.016609 
L 648.945098 382.041359 
L 652.418575 417.333491 
L 655.892053 374.741303 
L 659.365531 345.954693 
L 662.839009 387.02414 
L 666.312487 446.130525 
L 669.785965 501.088935 
L 673.259442 526.501733 
L 676.73292 550.45291 
L 694.100309 550.451962 
L 697.573787 504.051029 
L 701.047265 452.726065 
L 704.520743 393.253445 
L 707.994221 430.397123 
L 711.467699 414.540063 
L 714.941176 491.678647 
L 718.414654 474.449037 
L 721.888132 453.758439 
L 725.36161 507.892939 
L 728.835088 550.450541 
L 732.308566 439.450178 
L 735.782043 456.607773 
L 739.255521 402.808711 
L 742.728999 373.728828 
L 746.202477 417.31833 
L 749.675955 435.394117 
L 753.149433 517.605027 
L 756.62291 550.138791 
L 760.096388 550.451014 
L 777.463777 550.451014 
L 780.937255 459.671257 
L 784.410733 405.277123 
L 787.884211 371.686821 
L 791.357689 385.170699 
L 794.831167 443.295878 
L 798.304644 493.758557 
L 801.778122 465.704889 
L 805.2516 465.082338 
L 808.725078 466.678041 
L 812.198556 534.450399 
L 815.672034 418.885606 
L 819.145511 440.692912 
L 822.618989 386.010717 
L 826.092467 345.954693 
L 829.565945 367.929718 
L 833.039423 455.523756 
L 836.512901 528.138181 
L 839.986378 549.111629 
L 843.459856 550.450541 
L 857.353768 550.451488 
L 860.827245 535.119381 
L 864.300723 458.555497 
L 867.774201 373.994147 
L 871.247679 345.954693 
L 874.721157 345.954693 
L 878.194635 403.36588 
L 881.668112 409.720738 
L 885.14159 421.389077 
L 888.615068 444.188012 
L 892.088546 487.792201 
L 895.562024 507.460375 
L 899.035502 407.006906 
L 902.508979 398.494912 
L 905.982457 345.954693 
L 909.455935 345.954693 
L 912.929413 366.677982 
L 916.402891 427.48904 
L 919.876369 509.248908 
L 923.349846 550.450067 
L 944.190713 550.452436 
L 947.664191 520.184778 
L 951.137669 417.929984 
L 954.611147 417.841387 
L 958.084625 389.552723 
L 961.558103 433.785622 
L 965.03158 448.588513 
L 968.505058 427.561529 
L 975.452014 531.784419 
L 978.925492 528.427663 
L 982.39897 454.058344 
L 985.872447 397.698482 
L 989.345925 389.919431 
L 992.819403 345.954693 
L 996.292881 438.895377 
L 999.766359 480.134913 
L 1003.239837 550.450541 
L 1027.554181 550.452436 
L 1031.027659 508.207058 
L 1034.501137 434.804731 
L 1037.974615 371.316323 
L 1041.448093 372.967932 
L 1044.92157 395.06472 
L 1048.395048 421.890814 
L 1051.868526 371.985779 
L 1055.342004 428.393966 
L 1058.815482 424.844854 
L 1062.28896 464.065125 
L 1065.762437 416.568331 
L 1069.235915 379.10864 
L 1072.709393 345.954693 
L 1079.656349 345.954693 
L 1083.129827 442.749606 
L 1086.603304 509.600455 
L 1090.076782 547.519716 
L 1090.076782 547.519716 
" clip-path="url(#p90dfd57b10)" style="fill: none; stroke: #ff8c00; stroke-width: 1.5; stroke-linecap: round"/>
   </g>
   <g id="patch_8">
    <path d="M 43.344238 560.6809 
L 43.344238 335.72765 
" style="fill: none; stroke: #cccccc; stroke-linejoin: miter; stroke-linecap: square"/>
   </g>
   <g id="patch_9">
    <path d="M 1139.921189 560.6809 
L 1139.921189 335.72765 
" style="fill: none; stroke: #cccccc; stroke-linejoin: miter; stroke-linecap: square"/>
   </g>
   <g id="patch_10">
    <path d="M 43.344238 560.6809 
L 1139.921189 560.6809 
" style="fill: none; stroke: #cccccc; stroke-linejoin: miter; stroke-linecap: square"/>
   </g>
   <g id="patch_11">
    <path d="M 43.344238 335.72765 
L 1139.921189 335.72765 
" style="fill: none; stroke: #cccccc; stroke-linejoin: miter; stroke-linecap: square"/>
   </g>
   <g id="text_15">
    <!-- Scenario 5 - 5.EOM El.+ CM+ CVAR -->
    <g style="fill: #262626" transform="translate(478.168182 329.72765) scale(0.14 -0.14)">
     <defs>
      <path id="ArialMT-35" d="M 266 1200 
L 856 1250 
Q 922 819 1161 601 
Q 1400 384 1738 384 
Q 2144 384 2425 690 
Q 2706 997 2706 1503 
Q 2706 1984 2436 2262 
Q 2166 2541 1728 2541 
Q 1456 2541 1237 2417 
Q 1019 2294 894 2097 
L 366 2166 
L 809 4519 
L 3088 4519 
L 3088 3981 
L 1259 3981 
L 1013 2750 
Q 1425 3038 1878 3038 
Q 2478 3038 2890 2622 
Q 3303 2206 3303 1553 
Q 3303 931 2941 478 
Q 2500 -78 1738 -78 
Q 1113 -78 717 272 
Q 322 622 266 1200 
z
" transform="scale(0.015625)"/>
     </defs>
     <use xlink:href="#ArialMT-53"/>
     <use xlink:href="#ArialMT-63" transform="translate(66.699219 0)"/>
     <use xlink:href="#ArialMT-65" transform="translate(116.699219 0)"/>
     <use xlink:href="#ArialMT-6e" transform="translate(172.314453 0)"/>
     <use xlink:href="#ArialMT-61" transform="translate(227.929688 0)"/>
     <use xlink:href="#ArialMT-72" transform="translate(283.544922 0)"/>
     <use xlink:href="#ArialMT-69" transform="translate(316.845703 0)"/>
     <use xlink:href="#ArialMT-6f" transform="translate(339.0625 0)"/>
     <use xlink:href="#ArialMT-20" transform="translate(394.677734 0)"/>
     <use xlink:href="#ArialMT-35" transform="translate(422.460938 0)"/>
     <use xlink:href="#ArialMT-20" transform="translate(478.076172 0)"/>
     <use xlink:href="#ArialMT-2d" transform="translate(505.859375 0)"/>
     <use xlink:href="#ArialMT-20" transform="translate(539.160156 0)"/>
     <use xlink:href="#ArialMT-35" transform="translate(566.943359 0)"/>
     <use xlink:href="#ArialMT-2e" transform="translate(622.558594 0)"/>
     <use xlink:href="#ArialMT-45" transform="translate(650.341797 0)"/>
     <use xlink:href="#ArialMT-4f" transform="translate(717.041016 0)"/>
     <use xlink:href="#ArialMT-4d" transform="translate(794.824219 0)"/>
     <use xlink:href="#ArialMT-20" transform="translate(878.125 0)"/>
     <use xlink:href="#ArialMT-45" transform="translate(905.908203 0)"/>
     <use xlink:href="#ArialMT-6c" transform="translate(972.607422 0)"/>
     <use xlink:href="#ArialMT-2e" transform="translate(994.824219 0)"/>
     <use xlink:href="#ArialMT-2b" transform="translate(1022.607422 0)"/>
     <use xlink:href="#ArialMT-20" transform="translate(1081.005859 0)"/>
     <use xlink:href="#ArialMT-43" transform="translate(1108.789062 0)"/>
     <use xlink:href="#ArialMT-4d" transform="translate(1181.005859 0)"/>
     <use xlink:href="#ArialMT-2b" transform="translate(1264.306641 0)"/>
     <use xlink:href="#ArialMT-20" transform="translate(1322.705078 0)"/>
     <use xlink:href="#ArialMT-43" transform="translate(1350.488281 0)"/>
     <use xlink:href="#ArialMT-56" transform="translate(1422.705078 0)"/>
     <use xlink:href="#ArialMT-41" transform="translate(1482.029297 0)"/>
     <use xlink:href="#ArialMT-52" transform="translate(1548.728516 0)"/>
    </g>
   </g>
   <g id="legend_2">
    <g id="line2d_52">
     <path d="M 1005.677439 348.507337 
L 1015.677439 348.507337 
L 1025.677439 348.507337 
" style="fill: none; stroke: #ff8c00; stroke-width: 1.5; stroke-linecap: round"/>
    </g>
    <g id="text_16">
     <!-- Generation (MidMerit) -->
     <g style="fill: #262626" transform="translate(1033.677439 352.007337) scale(0.1 -0.1)">
      <use xlink:href="#ArialMT-47"/>
      <use xlink:href="#ArialMT-65" transform="translate(77.783203 0)"/>
      <use xlink:href="#ArialMT-6e" transform="translate(133.398438 0)"/>
      <use xlink:href="#ArialMT-65" transform="translate(189.013672 0)"/>
      <use xlink:href="#ArialMT-72" transform="translate(244.628906 0)"/>
      <use xlink:href="#ArialMT-61" transform="translate(277.929688 0)"/>
      <use xlink:href="#ArialMT-74" transform="translate(333.544922 0)"/>
      <use xlink:href="#ArialMT-69" transform="translate(361.328125 0)"/>
      <use xlink:href="#ArialMT-6f" transform="translate(383.544922 0)"/>
      <use xlink:href="#ArialMT-6e" transform="translate(439.160156 0)"/>
      <use xlink:href="#ArialMT-20" transform="translate(494.775391 0)"/>
      <use xlink:href="#ArialMT-28" transform="translate(522.558594 0)"/>
      <use xlink:href="#ArialMT-4d" transform="translate(555.859375 0)"/>
      <use xlink:href="#ArialMT-69" transform="translate(639.160156 0)"/>
      <use xlink:href="#ArialMT-64" transform="translate(661.376953 0)"/>
      <use xlink:href="#ArialMT-4d" transform="translate(716.992188 0)"/>
      <use xlink:href="#ArialMT-65" transform="translate(800.292969 0)"/>
      <use xlink:href="#ArialMT-72" transform="translate(855.908203 0)"/>
      <use xlink:href="#ArialMT-69" transform="translate(889.208984 0)"/>
      <use xlink:href="#ArialMT-74" transform="translate(911.425781 0)"/>
      <use xlink:href="#ArialMT-29" transform="translate(939.208984 0)"/>
     </g>
    </g>
   </g>
  </g>
  <g id="axes_3">
   <g id="patch_12">
    <path d="M 43.344238 817.91895 
L 1139.921189 817.91895 
L 1139.921189 592.9657 
L 43.344238 592.9657 
z
" style="fill: #ffffff"/>
   </g>
   <g id="matplotlib.axis_5">
    <g id="xtick_15">
     <g id="line2d_53">
      <path d="M 93.188644 817.91895 
L 93.188644 592.9657 
" clip-path="url(#p303e06c87d)" style="fill: none; stroke: #cccccc; stroke-opacity: 0.3; stroke-width: 0.8; stroke-linecap: round"/>
     </g>
     <g id="line2d_54">
      <g>
       <use xlink:href="#m9a7c9e7cab" x="93.188644" y="817.91895" style="fill: #262626; stroke: #262626"/>
      </g>
     </g>
     <g id="text_17">
      <!-- 0 -->
      <g style="fill: #262626" transform="translate(90.497151 833.147712) scale(0.0968 -0.0968)">
       <use xlink:href="#ArialMT-30"/>
      </g>
     </g>
    </g>
    <g id="xtick_16">
     <g id="line2d_55">
      <path d="M 266.862536 817.91895 
L 266.862536 592.9657 
" clip-path="url(#p303e06c87d)" style="fill: none; stroke: #cccccc; stroke-opacity: 0.3; stroke-width: 0.8; stroke-linecap: round"/>
     </g>
     <g id="line2d_56">
      <g>
       <use xlink:href="#m9a7c9e7cab" x="266.862536" y="817.91895" style="fill: #262626; stroke: #262626"/>
      </g>
     </g>
     <g id="text_18">
      <!-- 50 -->
      <g style="fill: #262626" transform="translate(261.479549 833.147712) scale(0.0968 -0.0968)">
       <use xlink:href="#ArialMT-35"/>
       <use xlink:href="#ArialMT-30" transform="translate(55.615234 0)"/>
      </g>
     </g>
    </g>
    <g id="xtick_17">
     <g id="line2d_57">
      <path d="M 440.536428 817.91895 
L 440.536428 592.9657 
" clip-path="url(#p303e06c87d)" style="fill: none; stroke: #cccccc; stroke-opacity: 0.3; stroke-width: 0.8; stroke-linecap: round"/>
     </g>
     <g id="line2d_58">
      <g>
       <use xlink:href="#m9a7c9e7cab" x="440.536428" y="817.91895" style="fill: #262626; stroke: #262626"/>
      </g>
     </g>
     <g id="text_19">
      <!-- 100 -->
      <g style="fill: #262626" transform="translate(432.461946 833.147712) scale(0.0968 -0.0968)">
       <use xlink:href="#ArialMT-31"/>
       <use xlink:href="#ArialMT-30" transform="translate(55.615234 0)"/>
       <use xlink:href="#ArialMT-30" transform="translate(111.230469 0)"/>
      </g>
     </g>
    </g>
    <g id="xtick_18">
     <g id="line2d_59">
      <path d="M 614.210319 817.91895 
L 614.210319 592.9657 
" clip-path="url(#p303e06c87d)" style="fill: none; stroke: #cccccc; stroke-opacity: 0.3; stroke-width: 0.8; stroke-linecap: round"/>
     </g>
     <g id="line2d_60">
      <g>
       <use xlink:href="#m9a7c9e7cab" x="614.210319" y="817.91895" style="fill: #262626; stroke: #262626"/>
      </g>
     </g>
     <g id="text_20">
      <!-- 150 -->
      <g style="fill: #262626" transform="translate(606.135838 833.147712) scale(0.0968 -0.0968)">
       <use xlink:href="#ArialMT-31"/>
       <use xlink:href="#ArialMT-35" transform="translate(55.615234 0)"/>
       <use xlink:href="#ArialMT-30" transform="translate(111.230469 0)"/>
      </g>
     </g>
    </g>
    <g id="xtick_19">
     <g id="line2d_61">
      <path d="M 787.884211 817.91895 
L 787.884211 592.9657 
" clip-path="url(#p303e06c87d)" style="fill: none; stroke: #cccccc; stroke-opacity: 0.3; stroke-width: 0.8; stroke-linecap: round"/>
     </g>
     <g id="line2d_62">
      <g>
       <use xlink:href="#m9a7c9e7cab" x="787.884211" y="817.91895" style="fill: #262626; stroke: #262626"/>
      </g>
     </g>
     <g id="text_21">
      <!-- 200 -->
      <g style="fill: #262626" transform="translate(779.80973 833.147712) scale(0.0968 -0.0968)">
       <use xlink:href="#ArialMT-32"/>
       <use xlink:href="#ArialMT-30" transform="translate(55.615234 0)"/>
       <use xlink:href="#ArialMT-30" transform="translate(111.230469 0)"/>
      </g>
     </g>
    </g>
    <g id="xtick_20">
     <g id="line2d_63">
      <path d="M 961.558103 817.91895 
L 961.558103 592.9657 
" clip-path="url(#p303e06c87d)" style="fill: none; stroke: #cccccc; stroke-opacity: 0.3; stroke-width: 0.8; stroke-linecap: round"/>
     </g>
     <g id="line2d_64">
      <g>
       <use xlink:href="#m9a7c9e7cab" x="961.558103" y="817.91895" style="fill: #262626; stroke: #262626"/>
      </g>
     </g>
     <g id="text_22">
      <!-- 250 -->
      <g style="fill: #262626" transform="translate(953.483621 833.147712) scale(0.0968 -0.0968)">
       <use xlink:href="#ArialMT-32"/>
       <use xlink:href="#ArialMT-35" transform="translate(55.615234 0)"/>
       <use xlink:href="#ArialMT-30" transform="translate(111.230469 0)"/>
      </g>
     </g>
    </g>
    <g id="xtick_21">
     <g id="line2d_65">
      <path d="M 1135.231994 817.91895 
L 1135.231994 592.9657 
" clip-path="url(#p303e06c87d)" style="fill: none; stroke: #cccccc; stroke-opacity: 0.3; stroke-width: 0.8; stroke-linecap: round"/>
     </g>
     <g id="line2d_66">
      <g>
       <use xlink:href="#m9a7c9e7cab" x="1135.231994" y="817.91895" style="fill: #262626; stroke: #262626"/>
      </g>
     </g>
     <g id="text_23">
      <!-- 300 -->
      <g style="fill: #262626" transform="translate(1127.157513 833.147712) scale(0.0968 -0.0968)">
       <use xlink:href="#ArialMT-33"/>
       <use xlink:href="#ArialMT-30" transform="translate(55.615234 0)"/>
       <use xlink:href="#ArialMT-30" transform="translate(111.230469 0)"/>
      </g>
     </g>
    </g>
    <g id="text_24">
     <!-- Timestep (hour) -->
     <g style="fill: #262626" transform="translate(549.515526 847.807237) scale(0.12 -0.12)">
      <defs>
       <path id="ArialMT-54" d="M 1659 0 
L 1659 4041 
L 150 4041 
L 150 4581 
L 3781 4581 
L 3781 4041 
L 2266 4041 
L 2266 0 
L 1659 0 
z
" transform="scale(0.015625)"/>
       <path id="ArialMT-6d" d="M 422 0 
L 422 3319 
L 925 3319 
L 925 2853 
Q 1081 3097 1340 3245 
Q 1600 3394 1931 3394 
Q 2300 3394 2536 3241 
Q 2772 3088 2869 2813 
Q 3263 3394 3894 3394 
Q 4388 3394 4653 3120 
Q 4919 2847 4919 2278 
L 4919 0 
L 4359 0 
L 4359 2091 
Q 4359 2428 4304 2576 
Q 4250 2725 4106 2815 
Q 3963 2906 3769 2906 
Q 3419 2906 3187 2673 
Q 2956 2441 2956 1928 
L 2956 0 
L 2394 0 
L 2394 2156 
Q 2394 2531 2256 2718 
Q 2119 2906 1806 2906 
Q 1569 2906 1367 2781 
Q 1166 2656 1075 2415 
Q 984 2175 984 1722 
L 984 0 
L 422 0 
z
" transform="scale(0.015625)"/>
       <path id="ArialMT-73" d="M 197 991 
L 753 1078 
Q 800 744 1014 566 
Q 1228 388 1613 388 
Q 2000 388 2187 545 
Q 2375 703 2375 916 
Q 2375 1106 2209 1216 
Q 2094 1291 1634 1406 
Q 1016 1563 777 1677 
Q 538 1791 414 1992 
Q 291 2194 291 2438 
Q 291 2659 392 2848 
Q 494 3038 669 3163 
Q 800 3259 1026 3326 
Q 1253 3394 1513 3394 
Q 1903 3394 2198 3281 
Q 2494 3169 2634 2976 
Q 2775 2784 2828 2463 
L 2278 2388 
Q 2241 2644 2061 2787 
Q 1881 2931 1553 2931 
Q 1166 2931 1000 2803 
Q 834 2675 834 2503 
Q 834 2394 903 2306 
Q 972 2216 1119 2156 
Q 1203 2125 1616 2013 
Q 2213 1853 2448 1751 
Q 2684 1650 2818 1456 
Q 2953 1263 2953 975 
Q 2953 694 2789 445 
Q 2625 197 2315 61 
Q 2006 -75 1616 -75 
Q 969 -75 630 194 
Q 291 463 197 991 
z
" transform="scale(0.015625)"/>
       <path id="ArialMT-70" d="M 422 -1272 
L 422 3319 
L 934 3319 
L 934 2888 
Q 1116 3141 1344 3267 
Q 1572 3394 1897 3394 
Q 2322 3394 2647 3175 
Q 2972 2956 3137 2557 
Q 3303 2159 3303 1684 
Q 3303 1175 3120 767 
Q 2938 359 2589 142 
Q 2241 -75 1856 -75 
Q 1575 -75 1351 44 
Q 1128 163 984 344 
L 984 -1272 
L 422 -1272 
z
M 931 1641 
Q 931 1000 1190 694 
Q 1450 388 1819 388 
Q 2194 388 2461 705 
Q 2728 1022 2728 1688 
Q 2728 2322 2467 2637 
Q 2206 2953 1844 2953 
Q 1484 2953 1207 2617 
Q 931 2281 931 1641 
z
" transform="scale(0.015625)"/>
       <path id="ArialMT-68" d="M 422 0 
L 422 4581 
L 984 4581 
L 984 2938 
Q 1378 3394 1978 3394 
Q 2347 3394 2619 3248 
Q 2891 3103 3008 2847 
Q 3125 2591 3125 2103 
L 3125 0 
L 2563 0 
L 2563 2103 
Q 2563 2525 2380 2717 
Q 2197 2909 1863 2909 
Q 1613 2909 1392 2779 
Q 1172 2650 1078 2428 
Q 984 2206 984 1816 
L 984 0 
L 422 0 
z
" transform="scale(0.015625)"/>
       <path id="ArialMT-75" d="M 2597 0 
L 2597 488 
Q 2209 -75 1544 -75 
Q 1250 -75 995 37 
Q 741 150 617 320 
Q 494 491 444 738 
Q 409 903 409 1263 
L 409 3319 
L 972 3319 
L 972 1478 
Q 972 1038 1006 884 
Q 1059 663 1231 536 
Q 1403 409 1656 409 
Q 1909 409 2131 539 
Q 2353 669 2445 892 
Q 2538 1116 2538 1541 
L 2538 3319 
L 3100 3319 
L 3100 0 
L 2597 0 
z
" transform="scale(0.015625)"/>
      </defs>
      <use xlink:href="#ArialMT-54"/>
      <use xlink:href="#ArialMT-69" transform="translate(57.333984 0)"/>
      <use xlink:href="#ArialMT-6d" transform="translate(79.550781 0)"/>
      <use xlink:href="#ArialMT-65" transform="translate(162.851562 0)"/>
      <use xlink:href="#ArialMT-73" transform="translate(218.466797 0)"/>
      <use xlink:href="#ArialMT-74" transform="translate(268.466797 0)"/>
      <use xlink:href="#ArialMT-65" transform="translate(296.25 0)"/>
      <use xlink:href="#ArialMT-70" transform="translate(351.865234 0)"/>
      <use xlink:href="#ArialMT-20" transform="translate(407.480469 0)"/>
      <use xlink:href="#ArialMT-28" transform="translate(435.263672 0)"/>
      <use xlink:href="#ArialMT-68" transform="translate(468.564453 0)"/>
      <use xlink:href="#ArialMT-6f" transform="translate(524.179688 0)"/>
      <use xlink:href="#ArialMT-75" transform="translate(579.794922 0)"/>
      <use xlink:href="#ArialMT-72" transform="translate(635.410156 0)"/>
      <use xlink:href="#ArialMT-29" transform="translate(668.710938 0)"/>
     </g>
    </g>
   </g>
   <g id="matplotlib.axis_6">
    <g id="ytick_11">
     <g id="line2d_67">
      <path d="M 43.344238 807.698044 
L 1139.921189 807.698044 
" clip-path="url(#p303e06c87d)" style="fill: none; stroke: #cccccc; stroke-opacity: 0.3; stroke-width: 0.8; stroke-linecap: round"/>
     </g>
     <g id="line2d_68">
      <g>
       <use xlink:href="#m95f0b8a0e5" x="43.344238" y="807.698044" style="fill: #262626; stroke: #262626"/>
      </g>
     </g>
     <g id="text_25">
      <!-- 0 -->
      <g style="fill: #262626" transform="translate(29.66125 811.162426) scale(0.0968 -0.0968)">
       <use xlink:href="#ArialMT-30"/>
      </g>
     </g>
    </g>
    <g id="ytick_12">
     <g id="line2d_69">
      <path d="M 43.344238 760.564407 
L 1139.921189 760.564407 
" clip-path="url(#p303e06c87d)" style="fill: none; stroke: #cccccc; stroke-opacity: 0.3; stroke-width: 0.8; stroke-linecap: round"/>
     </g>
     <g id="line2d_70">
      <g>
       <use xlink:href="#m95f0b8a0e5" x="43.344238" y="760.564407" style="fill: #262626; stroke: #262626"/>
      </g>
     </g>
     <g id="text_26">
      <!-- 1 -->
      <g style="fill: #262626" transform="translate(29.66125 764.028788) scale(0.0968 -0.0968)">
       <use xlink:href="#ArialMT-31"/>
      </g>
     </g>
    </g>
    <g id="ytick_13">
     <g id="line2d_71">
      <path d="M 43.344238 713.43077 
L 1139.921189 713.43077 
" clip-path="url(#p303e06c87d)" style="fill: none; stroke: #cccccc; stroke-opacity: 0.3; stroke-width: 0.8; stroke-linecap: round"/>
     </g>
     <g id="line2d_72">
      <g>
       <use xlink:href="#m95f0b8a0e5" x="43.344238" y="713.43077" style="fill: #262626; stroke: #262626"/>
      </g>
     </g>
     <g id="text_27">
      <!-- 2 -->
      <g style="fill: #262626" transform="translate(29.66125 716.895151) scale(0.0968 -0.0968)">
       <use xlink:href="#ArialMT-32"/>
      </g>
     </g>
    </g>
    <g id="ytick_14">
     <g id="line2d_73">
      <path d="M 43.344238 666.297132 
L 1139.921189 666.297132 
" clip-path="url(#p303e06c87d)" style="fill: none; stroke: #cccccc; stroke-opacity: 0.3; stroke-width: 0.8; stroke-linecap: round"/>
     </g>
     <g id="line2d_74">
      <g>
       <use xlink:href="#m95f0b8a0e5" x="43.344238" y="666.297132" style="fill: #262626; stroke: #262626"/>
      </g>
     </g>
     <g id="text_28">
      <!-- 3 -->
      <g style="fill: #262626" transform="translate(29.66125 669.761513) scale(0.0968 -0.0968)">
       <use xlink:href="#ArialMT-33"/>
      </g>
     </g>
    </g>
    <g id="ytick_15">
     <g id="line2d_75">
      <path d="M 43.344238 619.163495 
L 1139.921189 619.163495 
" clip-path="url(#p303e06c87d)" style="fill: none; stroke: #cccccc; stroke-opacity: 0.3; stroke-width: 0.8; stroke-linecap: round"/>
     </g>
     <g id="line2d_76">
      <g>
       <use xlink:href="#m95f0b8a0e5" x="43.344238" y="619.163495" style="fill: #262626; stroke: #262626"/>
      </g>
     </g>
     <g id="text_29">
      <!-- 4 -->
      <g style="fill: #262626" transform="translate(29.66125 622.627876) scale(0.0968 -0.0968)">
       <use xlink:href="#ArialMT-34"/>
      </g>
     </g>
    </g>
    <g id="text_30">
     <!-- Generation (GW) -->
     <g style="fill: #262626" transform="translate(23.135625 751.1192) rotate(-90) scale(0.12 -0.12)">
      <use xlink:href="#ArialMT-47"/>
      <use xlink:href="#ArialMT-65" transform="translate(77.783203 0)"/>
      <use xlink:href="#ArialMT-6e" transform="translate(133.398438 0)"/>
      <use xlink:href="#ArialMT-65" transform="translate(189.013672 0)"/>
      <use xlink:href="#ArialMT-72" transform="translate(244.628906 0)"/>
      <use xlink:href="#ArialMT-61" transform="translate(277.929688 0)"/>
      <use xlink:href="#ArialMT-74" transform="translate(333.544922 0)"/>
      <use xlink:href="#ArialMT-69" transform="translate(361.328125 0)"/>
      <use xlink:href="#ArialMT-6f" transform="translate(383.544922 0)"/>
      <use xlink:href="#ArialMT-6e" transform="translate(439.160156 0)"/>
      <use xlink:href="#ArialMT-20" transform="translate(494.775391 0)"/>
      <use xlink:href="#ArialMT-28" transform="translate(522.558594 0)"/>
      <use xlink:href="#ArialMT-47" transform="translate(555.859375 0)"/>
      <use xlink:href="#ArialMT-57" transform="translate(633.642578 0)"/>
      <use xlink:href="#ArialMT-29" transform="translate(728.027344 0)"/>
     </g>
    </g>
   </g>
   <g id="line2d_77">
    <path d="M 93.188644 793.067763 
L 96.662122 807.691917 
L 107.082556 807.690974 
L 110.556034 772.127702 
L 114.029511 681.866787 
L 117.502989 606.233324 
L 120.976467 603.192733 
L 162.658201 603.192733 
L 166.131679 659.812486 
L 169.605157 736.54322 
L 173.078635 770.940406 
L 176.552112 807.692388 
L 193.919502 807.691446 
L 197.392979 743.267776 
L 200.866457 693.661508 
L 204.339935 679.010017 
L 207.813413 658.822209 
L 211.286891 697.046175 
L 214.760369 692.585447 
L 218.233846 686.937895 
L 221.707324 686.126725 
L 225.180802 737.015028 
L 228.65428 757.781166 
L 232.127758 638.878081 
L 235.601236 614.174871 
L 239.074713 603.192733 
L 242.548191 603.192733 
L 246.021669 669.105354 
L 249.495147 722.445549 
L 252.968625 786.597258 
L 256.442103 807.690974 
L 277.28297 807.690974 
L 280.756447 775.086281 
L 284.229925 699.255328 
L 287.703403 671.305081 
L 291.176881 668.730642 
L 294.650359 687.095792 
L 298.123837 692.73109 
L 301.597314 657.22485 
L 305.070792 653.361305 
L 308.54427 713.967622 
L 312.017748 715.57535 
L 315.491226 622.461907 
L 318.964704 636.360674 
L 322.438181 603.192262 
L 325.911659 603.192262 
L 329.385137 658.948055 
L 332.858615 718.947762 
L 336.332093 794.833389 
L 339.805571 807.690974 
L 360.646437 807.690974 
L 364.119915 747.891114 
L 367.593393 625.157008 
L 371.066871 619.177164 
L 374.540349 617.582633 
L 378.013827 677.302365 
L 381.487304 665.737656 
L 384.960782 603.854018 
L 388.43426 603.192733 
L 391.907738 693.649725 
L 395.381216 705.589618 
L 398.854694 603.192733 
L 409.275127 603.192262 
L 412.748605 643.114453 
L 416.222083 724.77018 
L 419.695561 775.564687 
L 423.169038 807.690974 
L 444.009905 807.692388 
L 447.483383 772.226211 
L 450.956861 726.456622 
L 454.430339 695.766025 
L 457.903817 699.121469 
L 461.377295 719.370079 
L 464.850772 708.518502 
L 468.32425 641.055184 
L 471.797728 610.884471 
L 475.271206 674.60585 
L 478.744684 724.404894 
L 482.218162 603.192733 
L 485.691639 634.141622 
L 489.165117 603.192262 
L 492.638595 603.192733 
L 496.112073 604.226845 
L 499.585551 701.078457 
L 503.059029 772.261562 
L 506.532506 792.436644 
L 510.005984 807.691917 
L 527.373373 807.690974 
L 530.846851 756.139972 
L 534.320329 628.717483 
L 537.793807 629.919391 
L 541.267285 667.355754 
L 544.740763 690.50214 
L 548.21424 652.211716 
L 551.687718 628.211739 
L 555.161196 642.520097 
L 558.634674 677.829791 
L 562.108152 671.154253 
L 565.58163 603.192733 
L 569.055107 623.234898 
L 572.528585 603.192733 
L 576.002063 603.192262 
L 579.475541 604.615226 
L 582.949019 669.40371 
L 586.422497 769.01264 
L 589.895974 797.107587 
L 593.369452 807.691917 
L 610.736841 807.690974 
L 614.210319 761.919499 
L 617.683797 682.866962 
L 621.157275 642.694963 
L 624.630753 649.554793 
L 628.104231 672.420263 
L 631.577708 712.769485 
L 635.051186 657.154149 
L 638.524664 699.984957 
L 641.998142 746.396036 
L 645.47162 752.032276 
L 648.945098 638.660324 
L 652.418575 673.768285 
L 655.892053 631.399858 
L 659.365531 603.192733 
L 662.839009 643.619725 
L 666.312487 702.414696 
L 669.785965 757.079817 
L 676.73292 807.692388 
L 694.100309 807.691917 
L 697.573787 760.024727 
L 701.047265 708.974284 
L 704.520743 649.814499 
L 707.994221 686.763029 
L 711.467699 670.988343 
L 714.941176 747.717191 
L 718.414654 730.579872 
L 721.888132 709.998498 
L 725.36161 763.843494 
L 728.835088 807.690974 
L 732.308566 695.766496 
L 735.782043 712.834058 
L 739.255521 659.318997 
L 742.728999 630.393084 
L 746.202477 673.754145 
L 749.675955 691.735156 
L 753.149433 773.50589 
L 756.62291 805.864546 
L 760.096388 807.690974 
L 777.463777 807.691446 
L 780.937255 715.883133 
L 784.410733 661.776074 
L 787.884211 628.362095 
L 791.357689 641.774443 
L 794.831167 699.593276 
L 798.304644 749.786358 
L 801.778122 721.882302 
L 805.2516 721.263437 
L 808.725078 722.849956 
L 812.198556 790.253414 
L 815.672034 675.310969 
L 819.145511 697.004226 
L 822.618989 642.610123 
L 826.092467 603.192733 
L 829.565945 624.625341 
L 833.039423 711.757997 
L 836.512901 783.980398 
L 839.986378 804.783772 
L 843.459856 807.690974 
L 857.353768 807.691446 
L 860.827245 790.921297 
L 864.300723 714.773607 
L 867.774201 630.657504 
L 871.247679 603.192733 
L 874.721157 603.192733 
L 878.194635 659.87376 
L 881.668112 666.194852 
L 885.14159 677.80151 
L 888.615068 700.47986 
L 892.088546 743.852233 
L 895.562024 763.414107 
L 899.035502 663.495037 
L 902.508979 655.028422 
L 905.982457 603.192733 
L 909.455935 603.192733 
L 912.929413 623.381013 
L 916.402891 683.872323 
L 919.876369 765.195758 
L 923.349846 807.690974 
L 944.190713 807.691917 
L 947.664191 776.070902 
L 951.137669 674.361698 
L 954.611147 674.273558 
L 958.084625 646.132891 
L 961.558103 690.132613 
L 965.03158 704.85669 
L 968.505058 683.940195 
L 975.452014 787.602618 
L 978.925492 784.264614 
L 982.39897 710.298268 
L 985.872447 654.235634 
L 989.345925 646.498648 
L 992.819403 603.192733 
L 996.292881 695.217861 
L 999.766359 736.237794 
L 1003.239837 807.690974 
L 1027.554181 807.691917 
L 1031.027659 764.157875 
L 1034.501137 691.147871 
L 1037.974615 627.993039 
L 1041.448093 629.636118 
L 1044.92157 651.616889 
L 1048.395048 678.301127 
L 1051.868526 628.657623 
L 1055.342004 684.769276 
L 1058.815482 681.238967 
L 1062.28896 720.25195 
L 1065.762437 673.007077 
L 1069.235915 635.745108 
L 1072.709393 603.192733 
L 1079.656349 603.192733 
L 1083.129827 699.052182 
L 1086.603304 765.54549 
L 1090.076782 803.226005 
L 1090.076782 803.226005 
" clip-path="url(#p303e06c87d)" style="fill: none; stroke: #ff8c00; stroke-width: 1.5; stroke-linecap: round"/>
   </g>
   <g id="patch_13">
    <path d="M 43.344238 817.91895 
L 43.344238 592.9657 
" style="fill: none; stroke: #cccccc; stroke-linejoin: miter; stroke-linecap: square"/>
   </g>
   <g id="patch_14">
    <path d="M 1139.921189 817.91895 
L 1139.921189 592.9657 
" style="fill: none; stroke: #cccccc; stroke-linejoin: miter; stroke-linecap: square"/>
   </g>
   <g id="patch_15">
    <path d="M 43.344238 817.91895 
L 1139.921189 817.91895 
" style="fill: none; stroke: #cccccc; stroke-linejoin: miter; stroke-linecap: square"/>
   </g>
   <g id="patch_16">
    <path d="M 43.344238 592.9657 
L 1139.921189 592.9657 
" style="fill: none; stroke: #cccccc; stroke-linejoin: miter; stroke-linecap: square"/>
   </g>
   <g id="text_31">
    <!-- Scenario 7 - 7.EOM El.+ RO+ CVAR -->
    <g style="fill: #262626" transform="translate(478.554276 586.9657) scale(0.14 -0.14)">
     <defs>
      <path id="ArialMT-37" d="M 303 3981 
L 303 4522 
L 3269 4522 
L 3269 4084 
Q 2831 3619 2401 2847 
Q 1972 2075 1738 1259 
Q 1569 684 1522 0 
L 944 0 
Q 953 541 1156 1306 
Q 1359 2072 1739 2783 
Q 2119 3494 2547 3981 
L 303 3981 
z
" transform="scale(0.015625)"/>
     </defs>
     <use xlink:href="#ArialMT-53"/>
     <use xlink:href="#ArialMT-63" transform="translate(66.699219 0)"/>
     <use xlink:href="#ArialMT-65" transform="translate(116.699219 0)"/>
     <use xlink:href="#ArialMT-6e" transform="translate(172.314453 0)"/>
     <use xlink:href="#ArialMT-61" transform="translate(227.929688 0)"/>
     <use xlink:href="#ArialMT-72" transform="translate(283.544922 0)"/>
     <use xlink:href="#ArialMT-69" transform="translate(316.845703 0)"/>
     <use xlink:href="#ArialMT-6f" transform="translate(339.0625 0)"/>
     <use xlink:href="#ArialMT-20" transform="translate(394.677734 0)"/>
     <use xlink:href="#ArialMT-37" transform="translate(422.460938 0)"/>
     <use xlink:href="#ArialMT-20" transform="translate(478.076172 0)"/>
     <use xlink:href="#ArialMT-2d" transform="translate(505.859375 0)"/>
     <use xlink:href="#ArialMT-20" transform="translate(539.160156 0)"/>
     <use xlink:href="#ArialMT-37" transform="translate(566.943359 0)"/>
     <use xlink:href="#ArialMT-2e" transform="translate(622.558594 0)"/>
     <use xlink:href="#ArialMT-45" transform="translate(650.341797 0)"/>
     <use xlink:href="#ArialMT-4f" transform="translate(717.041016 0)"/>
     <use xlink:href="#ArialMT-4d" transform="translate(794.824219 0)"/>
     <use xlink:href="#ArialMT-20" transform="translate(878.125 0)"/>
     <use xlink:href="#ArialMT-45" transform="translate(905.908203 0)"/>
     <use xlink:href="#ArialMT-6c" transform="translate(972.607422 0)"/>
     <use xlink:href="#ArialMT-2e" transform="translate(994.824219 0)"/>
     <use xlink:href="#ArialMT-2b" transform="translate(1022.607422 0)"/>
     <use xlink:href="#ArialMT-20" transform="translate(1081.005859 0)"/>
     <use xlink:href="#ArialMT-52" transform="translate(1108.789062 0)"/>
     <use xlink:href="#ArialMT-4f" transform="translate(1181.005859 0)"/>
     <use xlink:href="#ArialMT-2b" transform="translate(1258.789062 0)"/>
     <use xlink:href="#ArialMT-20" transform="translate(1317.1875 0)"/>
     <use xlink:href="#ArialMT-43" transform="translate(1344.970703 0)"/>
     <use xlink:href="#ArialMT-56" transform="translate(1417.1875 0)"/>
     <use xlink:href="#ArialMT-41" transform="translate(1476.511719 0)"/>
     <use xlink:href="#ArialMT-52" transform="translate(1543.210938 0)"/>
    </g>
   </g>
   <g id="legend_3">
    <g id="line2d_78">
     <path d="M 1005.677439 605.745387 
L 1015.677439 605.745387 
L 1025.677439 605.745387 
" style="fill: none; stroke: #ff8c00; stroke-width: 1.5; stroke-linecap: round"/>
    </g>
    <g id="text_32">
     <!-- Generation (MidMerit) -->
     <g style="fill: #262626" transform="translate(1033.677439 609.245387) scale(0.1 -0.1)">
      <use xlink:href="#ArialMT-47"/>
      <use xlink:href="#ArialMT-65" transform="translate(77.783203 0)"/>
      <use xlink:href="#ArialMT-6e" transform="translate(133.398438 0)"/>
      <use xlink:href="#ArialMT-65" transform="translate(189.013672 0)"/>
      <use xlink:href="#ArialMT-72" transform="translate(244.628906 0)"/>
      <use xlink:href="#ArialMT-61" transform="translate(277.929688 0)"/>
      <use xlink:href="#ArialMT-74" transform="translate(333.544922 0)"/>
      <use xlink:href="#ArialMT-69" transform="translate(361.328125 0)"/>
      <use xlink:href="#ArialMT-6f" transform="translate(383.544922 0)"/>
      <use xlink:href="#ArialMT-6e" transform="translate(439.160156 0)"/>
      <use xlink:href="#ArialMT-20" transform="translate(494.775391 0)"/>
      <use xlink:href="#ArialMT-28" transform="translate(522.558594 0)"/>
      <use xlink:href="#ArialMT-4d" transform="translate(555.859375 0)"/>
      <use xlink:href="#ArialMT-69" transform="translate(639.160156 0)"/>
      <use xlink:href="#ArialMT-64" transform="translate(661.376953 0)"/>
      <use xlink:href="#ArialMT-4d" transform="translate(716.992188 0)"/>
      <use xlink:href="#ArialMT-65" transform="translate(800.292969 0)"/>
      <use xlink:href="#ArialMT-72" transform="translate(855.908203 0)"/>
      <use xlink:href="#ArialMT-69" transform="translate(889.208984 0)"/>
      <use xlink:href="#ArialMT-74" transform="translate(911.425781 0)"/>
      <use xlink:href="#ArialMT-29" transform="translate(939.208984 0)"/>
     </g>
    </g>
   </g>
  </g>
  <g id="text_33">
   <!-- Generation Timeseries by Generator: MidMerit -->
   <g style="fill: #262626" transform="translate(394.4135 27.503437) scale(0.18 -0.18)">
    <defs>
     <path id="ArialMT-62" d="M 941 0 
L 419 0 
L 419 4581 
L 981 4581 
L 981 2947 
Q 1338 3394 1891 3394 
Q 2197 3394 2470 3270 
Q 2744 3147 2920 2923 
Q 3097 2700 3197 2384 
Q 3297 2069 3297 1709 
Q 3297 856 2875 390 
Q 2453 -75 1863 -75 
Q 1275 -75 941 416 
L 941 0 
z
M 934 1684 
Q 934 1088 1097 822 
Q 1363 388 1816 388 
Q 2184 388 2453 708 
Q 2722 1028 2722 1663 
Q 2722 2313 2464 2622 
Q 2206 2931 1841 2931 
Q 1472 2931 1203 2611 
Q 934 2291 934 1684 
z
" transform="scale(0.015625)"/>
     <path id="ArialMT-79" d="M 397 -1278 
L 334 -750 
Q 519 -800 656 -800 
Q 844 -800 956 -737 
Q 1069 -675 1141 -563 
Q 1194 -478 1313 -144 
Q 1328 -97 1363 -6 
L 103 3319 
L 709 3319 
L 1400 1397 
Q 1534 1031 1641 628 
Q 1738 1016 1872 1384 
L 2581 3319 
L 3144 3319 
L 1881 -56 
Q 1678 -603 1566 -809 
Q 1416 -1088 1222 -1217 
Q 1028 -1347 759 -1347 
Q 597 -1347 397 -1278 
z
" transform="scale(0.015625)"/>
     <path id="ArialMT-3a" d="M 578 2678 
L 578 3319 
L 1219 3319 
L 1219 2678 
L 578 2678 
z
M 578 0 
L 578 641 
L 1219 641 
L 1219 0 
L 578 0 
z
" transform="scale(0.015625)"/>
    </defs>
    <use xlink:href="#ArialMT-47"/>
    <use xlink:href="#ArialMT-65" transform="translate(77.783203 0)"/>
    <use xlink:href="#ArialMT-6e" transform="translate(133.398438 0)"/>
    <use xlink:href="#ArialMT-65" transform="translate(189.013672 0)"/>
    <use xlink:href="#ArialMT-72" transform="translate(244.628906 0)"/>
    <use xlink:href="#ArialMT-61" transform="translate(277.929688 0)"/>
    <use xlink:href="#ArialMT-74" transform="translate(333.544922 0)"/>
    <use xlink:href="#ArialMT-69" transform="translate(361.328125 0)"/>
    <use xlink:href="#ArialMT-6f" transform="translate(383.544922 0)"/>
    <use xlink:href="#ArialMT-6e" transform="translate(439.160156 0)"/>
    <use xlink:href="#ArialMT-20" transform="translate(494.775391 0)"/>
    <use xlink:href="#ArialMT-54" transform="translate(520.808594 0)"/>
    <use xlink:href="#ArialMT-69" transform="translate(578.142578 0)"/>
    <use xlink:href="#ArialMT-6d" transform="translate(600.359375 0)"/>
    <use xlink:href="#ArialMT-65" transform="translate(683.660156 0)"/>
    <use xlink:href="#ArialMT-73" transform="translate(739.275391 0)"/>
    <use xlink:href="#ArialMT-65" transform="translate(789.275391 0)"/>
    <use xlink:href="#ArialMT-72" transform="translate(844.890625 0)"/>
    <use xlink:href="#ArialMT-69" transform="translate(878.191406 0)"/>
    <use xlink:href="#ArialMT-65" transform="translate(900.408203 0)"/>
    <use xlink:href="#ArialMT-73" transform="translate(956.023438 0)"/>
    <use xlink:href="#ArialMT-20" transform="translate(1006.023438 0)"/>
    <use xlink:href="#ArialMT-62" transform="translate(1033.806641 0)"/>
    <use xlink:href="#ArialMT-79" transform="translate(1089.421875 0)"/>
    <use xlink:href="#ArialMT-20" transform="translate(1139.421875 0)"/>
    <use xlink:href="#ArialMT-47" transform="translate(1167.205078 0)"/>
    <use xlink:href="#ArialMT-65" transform="translate(1244.988281 0)"/>
    <use xlink:href="#ArialMT-6e" transform="translate(1300.603516 0)"/>
    <use xlink:href="#ArialMT-65" transform="translate(1356.21875 0)"/>
    <use xlink:href="#ArialMT-72" transform="translate(1411.833984 0)"/>
    <use xlink:href="#ArialMT-61" transform="translate(1445.134766 0)"/>
    <use xlink:href="#ArialMT-74" transform="translate(1500.75 0)"/>
    <use xlink:href="#ArialMT-6f" transform="translate(1528.533203 0)"/>
    <use xlink:href="#ArialMT-72" transform="translate(1584.148438 0)"/>
    <use xlink:href="#ArialMT-3a" transform="translate(1617.449219 0)"/>
    <use xlink:href="#ArialMT-20" transform="translate(1645.232422 0)"/>
    <use xlink:href="#ArialMT-4d" transform="translate(1673.015625 0)"/>
    <use xlink:href="#ArialMT-69" transform="translate(1756.316406 0)"/>
    <use xlink:href="#ArialMT-64" transform="translate(1778.533203 0)"/>
    <use xlink:href="#ArialMT-4d" transform="translate(1834.148438 0)"/>
    <use xlink:href="#ArialMT-65" transform="translate(1917.449219 0)"/>
    <use xlink:href="#ArialMT-72" transform="translate(1973.064453 0)"/>
    <use xlink:href="#ArialMT-69" transform="translate(2006.365234 0)"/>
    <use xlink:href="#ArialMT-74" transform="translate(2028.582031 0)"/>
   </g>
  </g>
 </g>
 <defs>
  <clipPath id="pdcb14ec16b">
   <rect x="43.344238" y="78.4896" width="1096.576952" height="224.95325"/>
  </clipPath>
  <clipPath id="p90dfd57b10">
   <rect x="43.344238" y="335.72765" width="1096.576952" height="224.95325"/>
  </clipPath>
  <clipPath id="p303e06c87d">
   <rect x="43.344238" y="592.9657" width="1096.576952" height="224.95325"/>
  </clipPath>
 </defs>
</svg>
