<?xml version="1.0" encoding="utf-8" standalone="no"?>
<!DOCTYPE svg PUBLIC "-//W3C//DTD SVG 1.1//EN"
  "http://www.w3.org/Graphics/SVG/1.1/DTD/svg11.dtd">
<svg xmlns:xlink="http://www.w3.org/1999/xlink" width="1008pt" height="576pt" viewBox="0 0 1008 576" xmlns="http://www.w3.org/2000/svg" version="1.1">
 <metadata>
  <rdf:RDF xmlns:dc="http://purl.org/dc/elements/1.1/" xmlns:cc="http://creativecommons.org/ns#" xmlns:rdf="http://www.w3.org/1999/02/22-rdf-syntax-ns#">
   <cc:Work>
    <dc:type rdf:resource="http://purl.org/dc/dcmitype/StillImage"/>
    <dc:date>2025-11-30T21:18:02.607069</dc:date>
    <dc:format>image/svg+xml</dc:format>
    <dc:creator>
     <cc:Agent>
      <dc:title>Matplotlib v3.10.3, https://matplotlib.org/</dc:title>
     </cc:Agent>
    </dc:creator>
   </cc:Work>
  </rdf:RDF>
 </metadata>
 <defs>
  <style type="text/css">*{stroke-linejoin: round; stroke-linecap: butt}</style>
 </defs>
 <g id="figure_1">
  <g id="patch_1">
   <path d="M 0 576 
L 1008 576 
L 1008 0 
L 0 0 
z
" style="fill: #ffffff"/>
  </g>
  <g id="axes_1">
   <g id="patch_2">
    <path d="M 44.7648 533.5752 
L 991.970776 533.5752 
L 991.970776 25.3248 
L 44.7648 25.3248 
z
" style="fill: #ffffff"/>
   </g>
   <g id="matplotlib.axis_1">
    <g id="xtick_1">
     <g id="line2d_1">
      <path d="M 87.819617 533.5752 
L 87.819617 25.3248 
" clip-path="url(#pbeb93f36cc)" style="fill: none; stroke: #cccccc; stroke-width: 0.8; stroke-linecap: round"/>
     </g>
     <g id="line2d_2">
      <defs>
       <path id="m207631887a" d="M 0 0 
L 0 4.8 
" style="stroke: #262626"/>
      </defs>
      <g>
       <use xlink:href="#m207631887a" x="87.819617" y="533.5752" style="fill: #262626; stroke: #262626"/>
      </g>
     </g>
     <g id="text_1">
      <!-- 0 -->
      <g style="fill: #262626" transform="translate(85.128123 548.803963) scale(0.0968 -0.0968)">
       <defs>
        <path id="ArialMT-30" d="M 266 2259 
Q 266 3072 433 3567 
Q 600 4063 929 4331 
Q 1259 4600 1759 4600 
Q 2128 4600 2406 4451 
Q 2684 4303 2865 4023 
Q 3047 3744 3150 3342 
Q 3253 2941 3253 2259 
Q 3253 1453 3087 958 
Q 2922 463 2592 192 
Q 2263 -78 1759 -78 
Q 1097 -78 719 397 
Q 266 969 266 2259 
z
M 844 2259 
Q 844 1131 1108 757 
Q 1372 384 1759 384 
Q 2147 384 2411 759 
Q 2675 1134 2675 2259 
Q 2675 3391 2411 3762 
Q 2147 4134 1753 4134 
Q 1366 4134 1134 3806 
Q 844 3388 844 2259 
z
" transform="scale(0.015625)"/>
       </defs>
       <use xlink:href="#ArialMT-30"/>
      </g>
     </g>
    </g>
    <g id="xtick_2">
     <g id="line2d_3">
      <path d="M 237.836401 533.5752 
L 237.836401 25.3248 
" clip-path="url(#pbeb93f36cc)" style="fill: none; stroke: #cccccc; stroke-width: 0.8; stroke-linecap: round"/>
     </g>
     <g id="line2d_4">
      <g>
       <use xlink:href="#m207631887a" x="237.836401" y="533.5752" style="fill: #262626; stroke: #262626"/>
      </g>
     </g>
     <g id="text_2">
      <!-- 50 -->
      <g style="fill: #262626" transform="translate(232.453414 548.803963) scale(0.0968 -0.0968)">
       <defs>
        <path id="ArialMT-35" d="M 266 1200 
L 856 1250 
Q 922 819 1161 601 
Q 1400 384 1738 384 
Q 2144 384 2425 690 
Q 2706 997 2706 1503 
Q 2706 1984 2436 2262 
Q 2166 2541 1728 2541 
Q 1456 2541 1237 2417 
Q 1019 2294 894 2097 
L 366 2166 
L 809 4519 
L 3088 4519 
L 3088 3981 
L 1259 3981 
L 1013 2750 
Q 1425 3038 1878 3038 
Q 2478 3038 2890 2622 
Q 3303 2206 3303 1553 
Q 3303 931 2941 478 
Q 2500 -78 1738 -78 
Q 1113 -78 717 272 
Q 322 622 266 1200 
z
" transform="scale(0.015625)"/>
       </defs>
       <use xlink:href="#ArialMT-35"/>
       <use xlink:href="#ArialMT-30" transform="translate(55.615234 0)"/>
      </g>
     </g>
    </g>
    <g id="xtick_3">
     <g id="line2d_5">
      <path d="M 387.853186 533.5752 
L 387.853186 25.3248 
" clip-path="url(#pbeb93f36cc)" style="fill: none; stroke: #cccccc; stroke-width: 0.8; stroke-linecap: round"/>
     </g>
     <g id="line2d_6">
      <g>
       <use xlink:href="#m207631887a" x="387.853186" y="533.5752" style="fill: #262626; stroke: #262626"/>
      </g>
     </g>
     <g id="text_3">
      <!-- 100 -->
      <g style="fill: #262626" transform="translate(379.778705 548.803963) scale(0.0968 -0.0968)">
       <defs>
        <path id="ArialMT-31" d="M 2384 0 
L 1822 0 
L 1822 3584 
Q 1619 3391 1289 3197 
Q 959 3003 697 2906 
L 697 3450 
Q 1169 3672 1522 3987 
Q 1875 4303 2022 4600 
L 2384 4600 
L 2384 0 
z
" transform="scale(0.015625)"/>
       </defs>
       <use xlink:href="#ArialMT-31"/>
       <use xlink:href="#ArialMT-30" transform="translate(55.615234 0)"/>
       <use xlink:href="#ArialMT-30" transform="translate(111.230469 0)"/>
      </g>
     </g>
    </g>
    <g id="xtick_4">
     <g id="line2d_7">
      <path d="M 537.86997 533.5752 
L 537.86997 25.3248 
" clip-path="url(#pbeb93f36cc)" style="fill: none; stroke: #cccccc; stroke-width: 0.8; stroke-linecap: round"/>
     </g>
     <g id="line2d_8">
      <g>
       <use xlink:href="#m207631887a" x="537.86997" y="533.5752" style="fill: #262626; stroke: #262626"/>
      </g>
     </g>
     <g id="text_4">
      <!-- 150 -->
      <g style="fill: #262626" transform="translate(529.795489 548.803963) scale(0.0968 -0.0968)">
       <use xlink:href="#ArialMT-31"/>
       <use xlink:href="#ArialMT-35" transform="translate(55.615234 0)"/>
       <use xlink:href="#ArialMT-30" transform="translate(111.230469 0)"/>
      </g>
     </g>
    </g>
    <g id="xtick_5">
     <g id="line2d_9">
      <path d="M 687.886755 533.5752 
L 687.886755 25.3248 
" clip-path="url(#pbeb93f36cc)" style="fill: none; stroke: #cccccc; stroke-width: 0.8; stroke-linecap: round"/>
     </g>
     <g id="line2d_10">
      <g>
       <use xlink:href="#m207631887a" x="687.886755" y="533.5752" style="fill: #262626; stroke: #262626"/>
      </g>
     </g>
     <g id="text_5">
      <!-- 200 -->
      <g style="fill: #262626" transform="translate(679.812273 548.803963) scale(0.0968 -0.0968)">
       <defs>
        <path id="ArialMT-32" d="M 3222 541 
L 3222 0 
L 194 0 
Q 188 203 259 391 
Q 375 700 629 1000 
Q 884 1300 1366 1694 
Q 2113 2306 2375 2664 
Q 2638 3022 2638 3341 
Q 2638 3675 2398 3904 
Q 2159 4134 1775 4134 
Q 1369 4134 1125 3890 
Q 881 3647 878 3216 
L 300 3275 
Q 359 3922 746 4261 
Q 1134 4600 1788 4600 
Q 2447 4600 2831 4234 
Q 3216 3869 3216 3328 
Q 3216 3053 3103 2787 
Q 2991 2522 2730 2228 
Q 2469 1934 1863 1422 
Q 1356 997 1212 845 
Q 1069 694 975 541 
L 3222 541 
z
" transform="scale(0.015625)"/>
       </defs>
       <use xlink:href="#ArialMT-32"/>
       <use xlink:href="#ArialMT-30" transform="translate(55.615234 0)"/>
       <use xlink:href="#ArialMT-30" transform="translate(111.230469 0)"/>
      </g>
     </g>
    </g>
    <g id="xtick_6">
     <g id="line2d_11">
      <path d="M 837.903539 533.5752 
L 837.903539 25.3248 
" clip-path="url(#pbeb93f36cc)" style="fill: none; stroke: #cccccc; stroke-width: 0.8; stroke-linecap: round"/>
     </g>
     <g id="line2d_12">
      <g>
       <use xlink:href="#m207631887a" x="837.903539" y="533.5752" style="fill: #262626; stroke: #262626"/>
      </g>
     </g>
     <g id="text_6">
      <!-- 250 -->
      <g style="fill: #262626" transform="translate(829.829058 548.803963) scale(0.0968 -0.0968)">
       <use xlink:href="#ArialMT-32"/>
       <use xlink:href="#ArialMT-35" transform="translate(55.615234 0)"/>
       <use xlink:href="#ArialMT-30" transform="translate(111.230469 0)"/>
      </g>
     </g>
    </g>
    <g id="xtick_7">
     <g id="line2d_13">
      <path d="M 987.920323 533.5752 
L 987.920323 25.3248 
" clip-path="url(#pbeb93f36cc)" style="fill: none; stroke: #cccccc; stroke-width: 0.8; stroke-linecap: round"/>
     </g>
     <g id="line2d_14">
      <g>
       <use xlink:href="#m207631887a" x="987.920323" y="533.5752" style="fill: #262626; stroke: #262626"/>
      </g>
     </g>
     <g id="text_7">
      <!-- 300 -->
      <g style="fill: #262626" transform="translate(979.845842 548.803963) scale(0.0968 -0.0968)">
       <defs>
        <path id="ArialMT-33" d="M 269 1209 
L 831 1284 
Q 928 806 1161 595 
Q 1394 384 1728 384 
Q 2125 384 2398 659 
Q 2672 934 2672 1341 
Q 2672 1728 2419 1979 
Q 2166 2231 1775 2231 
Q 1616 2231 1378 2169 
L 1441 2663 
Q 1497 2656 1531 2656 
Q 1891 2656 2178 2843 
Q 2466 3031 2466 3422 
Q 2466 3731 2256 3934 
Q 2047 4138 1716 4138 
Q 1388 4138 1169 3931 
Q 950 3725 888 3313 
L 325 3413 
Q 428 3978 793 4289 
Q 1159 4600 1703 4600 
Q 2078 4600 2393 4439 
Q 2709 4278 2876 4000 
Q 3044 3722 3044 3409 
Q 3044 3113 2884 2869 
Q 2725 2625 2413 2481 
Q 2819 2388 3044 2092 
Q 3269 1797 3269 1353 
Q 3269 753 2831 336 
Q 2394 -81 1725 -81 
Q 1122 -81 723 278 
Q 325 638 269 1209 
z
" transform="scale(0.015625)"/>
       </defs>
       <use xlink:href="#ArialMT-33"/>
       <use xlink:href="#ArialMT-30" transform="translate(55.615234 0)"/>
       <use xlink:href="#ArialMT-30" transform="translate(111.230469 0)"/>
      </g>
     </g>
    </g>
    <g id="text_8">
     <!-- Hour (sorted) -->
     <g style="fill: #262626" transform="translate(487.267763 562.415213) scale(0.1056 -0.1056)">
      <defs>
       <path id="ArialMT-48" d="M 513 0 
L 513 4581 
L 1119 4581 
L 1119 2700 
L 3500 2700 
L 3500 4581 
L 4106 4581 
L 4106 0 
L 3500 0 
L 3500 2159 
L 1119 2159 
L 1119 0 
L 513 0 
z
" transform="scale(0.015625)"/>
       <path id="ArialMT-6f" d="M 213 1659 
Q 213 2581 725 3025 
Q 1153 3394 1769 3394 
Q 2453 3394 2887 2945 
Q 3322 2497 3322 1706 
Q 3322 1066 3130 698 
Q 2938 331 2570 128 
Q 2203 -75 1769 -75 
Q 1072 -75 642 372 
Q 213 819 213 1659 
z
M 791 1659 
Q 791 1022 1069 705 
Q 1347 388 1769 388 
Q 2188 388 2466 706 
Q 2744 1025 2744 1678 
Q 2744 2294 2464 2611 
Q 2184 2928 1769 2928 
Q 1347 2928 1069 2612 
Q 791 2297 791 1659 
z
" transform="scale(0.015625)"/>
       <path id="ArialMT-75" d="M 2597 0 
L 2597 488 
Q 2209 -75 1544 -75 
Q 1250 -75 995 37 
Q 741 150 617 320 
Q 494 491 444 738 
Q 409 903 409 1263 
L 409 3319 
L 972 3319 
L 972 1478 
Q 972 1038 1006 884 
Q 1059 663 1231 536 
Q 1403 409 1656 409 
Q 1909 409 2131 539 
Q 2353 669 2445 892 
Q 2538 1116 2538 1541 
L 2538 3319 
L 3100 3319 
L 3100 0 
L 2597 0 
z
" transform="scale(0.015625)"/>
       <path id="ArialMT-72" d="M 416 0 
L 416 3319 
L 922 3319 
L 922 2816 
Q 1116 3169 1280 3281 
Q 1444 3394 1641 3394 
Q 1925 3394 2219 3213 
L 2025 2691 
Q 1819 2813 1613 2813 
Q 1428 2813 1281 2702 
Q 1134 2591 1072 2394 
Q 978 2094 978 1738 
L 978 0 
L 416 0 
z
" transform="scale(0.015625)"/>
       <path id="ArialMT-20" transform="scale(0.015625)"/>
       <path id="ArialMT-28" d="M 1497 -1347 
Q 1031 -759 709 28 
Q 388 816 388 1659 
Q 388 2403 628 3084 
Q 909 3875 1497 4659 
L 1900 4659 
Q 1522 4009 1400 3731 
Q 1209 3300 1100 2831 
Q 966 2247 966 1656 
Q 966 153 1900 -1347 
L 1497 -1347 
z
" transform="scale(0.015625)"/>
       <path id="ArialMT-73" d="M 197 991 
L 753 1078 
Q 800 744 1014 566 
Q 1228 388 1613 388 
Q 2000 388 2187 545 
Q 2375 703 2375 916 
Q 2375 1106 2209 1216 
Q 2094 1291 1634 1406 
Q 1016 1563 777 1677 
Q 538 1791 414 1992 
Q 291 2194 291 2438 
Q 291 2659 392 2848 
Q 494 3038 669 3163 
Q 800 3259 1026 3326 
Q 1253 3394 1513 3394 
Q 1903 3394 2198 3281 
Q 2494 3169 2634 2976 
Q 2775 2784 2828 2463 
L 2278 2388 
Q 2241 2644 2061 2787 
Q 1881 2931 1553 2931 
Q 1166 2931 1000 2803 
Q 834 2675 834 2503 
Q 834 2394 903 2306 
Q 972 2216 1119 2156 
Q 1203 2125 1616 2013 
Q 2213 1853 2448 1751 
Q 2684 1650 2818 1456 
Q 2953 1263 2953 975 
Q 2953 694 2789 445 
Q 2625 197 2315 61 
Q 2006 -75 1616 -75 
Q 969 -75 630 194 
Q 291 463 197 991 
z
" transform="scale(0.015625)"/>
       <path id="ArialMT-74" d="M 1650 503 
L 1731 6 
Q 1494 -44 1306 -44 
Q 1000 -44 831 53 
Q 663 150 594 308 
Q 525 466 525 972 
L 525 2881 
L 113 2881 
L 113 3319 
L 525 3319 
L 525 4141 
L 1084 4478 
L 1084 3319 
L 1650 3319 
L 1650 2881 
L 1084 2881 
L 1084 941 
Q 1084 700 1114 631 
Q 1144 563 1211 522 
Q 1278 481 1403 481 
Q 1497 481 1650 503 
z
" transform="scale(0.015625)"/>
       <path id="ArialMT-65" d="M 2694 1069 
L 3275 997 
Q 3138 488 2766 206 
Q 2394 -75 1816 -75 
Q 1088 -75 661 373 
Q 234 822 234 1631 
Q 234 2469 665 2931 
Q 1097 3394 1784 3394 
Q 2450 3394 2872 2941 
Q 3294 2488 3294 1666 
Q 3294 1616 3291 1516 
L 816 1516 
Q 847 969 1125 678 
Q 1403 388 1819 388 
Q 2128 388 2347 550 
Q 2566 713 2694 1069 
z
M 847 1978 
L 2700 1978 
Q 2663 2397 2488 2606 
Q 2219 2931 1791 2931 
Q 1403 2931 1139 2672 
Q 875 2413 847 1978 
z
" transform="scale(0.015625)"/>
       <path id="ArialMT-64" d="M 2575 0 
L 2575 419 
Q 2259 -75 1647 -75 
Q 1250 -75 917 144 
Q 584 363 401 755 
Q 219 1147 219 1656 
Q 219 2153 384 2558 
Q 550 2963 881 3178 
Q 1213 3394 1622 3394 
Q 1922 3394 2156 3267 
Q 2391 3141 2538 2938 
L 2538 4581 
L 3097 4581 
L 3097 0 
L 2575 0 
z
M 797 1656 
Q 797 1019 1065 703 
Q 1334 388 1700 388 
Q 2069 388 2326 689 
Q 2584 991 2584 1609 
Q 2584 2291 2321 2609 
Q 2059 2928 1675 2928 
Q 1300 2928 1048 2622 
Q 797 2316 797 1656 
z
" transform="scale(0.015625)"/>
       <path id="ArialMT-29" d="M 791 -1347 
L 388 -1347 
Q 1322 153 1322 1656 
Q 1322 2244 1188 2822 
Q 1081 3291 891 3722 
Q 769 4003 388 4659 
L 791 4659 
Q 1378 3875 1659 3084 
Q 1900 2403 1900 1659 
Q 1900 816 1576 28 
Q 1253 -759 791 -1347 
z
" transform="scale(0.015625)"/>
      </defs>
      <use xlink:href="#ArialMT-48"/>
      <use xlink:href="#ArialMT-6f" transform="translate(72.216797 0)"/>
      <use xlink:href="#ArialMT-75" transform="translate(127.832031 0)"/>
      <use xlink:href="#ArialMT-72" transform="translate(183.447266 0)"/>
      <use xlink:href="#ArialMT-20" transform="translate(216.748047 0)"/>
      <use xlink:href="#ArialMT-28" transform="translate(244.53125 0)"/>
      <use xlink:href="#ArialMT-73" transform="translate(277.832031 0)"/>
      <use xlink:href="#ArialMT-6f" transform="translate(327.832031 0)"/>
      <use xlink:href="#ArialMT-72" transform="translate(383.447266 0)"/>
      <use xlink:href="#ArialMT-74" transform="translate(416.748047 0)"/>
      <use xlink:href="#ArialMT-65" transform="translate(444.53125 0)"/>
      <use xlink:href="#ArialMT-64" transform="translate(500.146484 0)"/>
      <use xlink:href="#ArialMT-29" transform="translate(555.761719 0)"/>
     </g>
    </g>
   </g>
   <g id="matplotlib.axis_2">
    <g id="ytick_1">
     <g id="line2d_15">
      <path d="M 44.7648 528.134599 
L 991.970776 528.134599 
" clip-path="url(#pbeb93f36cc)" style="fill: none; stroke: #cccccc; stroke-width: 0.8; stroke-linecap: round"/>
     </g>
     <g id="line2d_16">
      <defs>
       <path id="m681baec3cc" d="M 0 0 
L -4.8 0 
" style="stroke: #262626"/>
      </defs>
      <g>
       <use xlink:href="#m681baec3cc" x="44.7648" y="528.134599" style="fill: #262626; stroke: #262626"/>
      </g>
     </g>
     <g id="text_9">
      <!-- −6 -->
      <g style="fill: #262626" transform="translate(25.428087 531.598981) scale(0.0968 -0.0968)">
       <defs>
        <path id="ArialMT-2212" d="M 3381 1997 
L 356 1997 
L 356 2522 
L 3381 2522 
L 3381 1997 
z
" transform="scale(0.015625)"/>
        <path id="ArialMT-36" d="M 3184 3459 
L 2625 3416 
Q 2550 3747 2413 3897 
Q 2184 4138 1850 4138 
Q 1581 4138 1378 3988 
Q 1113 3794 959 3422 
Q 806 3050 800 2363 
Q 1003 2672 1297 2822 
Q 1591 2972 1913 2972 
Q 2475 2972 2870 2558 
Q 3266 2144 3266 1488 
Q 3266 1056 3080 686 
Q 2894 316 2569 119 
Q 2244 -78 1831 -78 
Q 1128 -78 684 439 
Q 241 956 241 2144 
Q 241 3472 731 4075 
Q 1159 4600 1884 4600 
Q 2425 4600 2770 4297 
Q 3116 3994 3184 3459 
z
M 888 1484 
Q 888 1194 1011 928 
Q 1134 663 1356 523 
Q 1578 384 1822 384 
Q 2178 384 2434 671 
Q 2691 959 2691 1453 
Q 2691 1928 2437 2201 
Q 2184 2475 1800 2475 
Q 1419 2475 1153 2201 
Q 888 1928 888 1484 
z
" transform="scale(0.015625)"/>
       </defs>
       <use xlink:href="#ArialMT-2212"/>
       <use xlink:href="#ArialMT-36" transform="translate(58.398438 0)"/>
      </g>
     </g>
    </g>
    <g id="ytick_2">
     <g id="line2d_17">
      <path d="M 44.7648 448.597142 
L 991.970776 448.597142 
" clip-path="url(#pbeb93f36cc)" style="fill: none; stroke: #cccccc; stroke-width: 0.8; stroke-linecap: round"/>
     </g>
     <g id="line2d_18">
      <g>
       <use xlink:href="#m681baec3cc" x="44.7648" y="448.597142" style="fill: #262626; stroke: #262626"/>
      </g>
     </g>
     <g id="text_10">
      <!-- −4 -->
      <g style="fill: #262626" transform="translate(25.428087 452.061523) scale(0.0968 -0.0968)">
       <defs>
        <path id="ArialMT-34" d="M 2069 0 
L 2069 1097 
L 81 1097 
L 81 1613 
L 2172 4581 
L 2631 4581 
L 2631 1613 
L 3250 1613 
L 3250 1097 
L 2631 1097 
L 2631 0 
L 2069 0 
z
M 2069 1613 
L 2069 3678 
L 634 1613 
L 2069 1613 
z
" transform="scale(0.015625)"/>
       </defs>
       <use xlink:href="#ArialMT-2212"/>
       <use xlink:href="#ArialMT-34" transform="translate(58.398438 0)"/>
      </g>
     </g>
    </g>
    <g id="ytick_3">
     <g id="line2d_19">
      <path d="M 44.7648 369.059684 
L 991.970776 369.059684 
" clip-path="url(#pbeb93f36cc)" style="fill: none; stroke: #cccccc; stroke-width: 0.8; stroke-linecap: round"/>
     </g>
     <g id="line2d_20">
      <g>
       <use xlink:href="#m681baec3cc" x="44.7648" y="369.059684" style="fill: #262626; stroke: #262626"/>
      </g>
     </g>
     <g id="text_11">
      <!-- −2 -->
      <g style="fill: #262626" transform="translate(25.428087 372.524065) scale(0.0968 -0.0968)">
       <use xlink:href="#ArialMT-2212"/>
       <use xlink:href="#ArialMT-32" transform="translate(58.398438 0)"/>
      </g>
     </g>
    </g>
    <g id="ytick_4">
     <g id="line2d_21">
      <path d="M 44.7648 289.522226 
L 991.970776 289.522226 
" clip-path="url(#pbeb93f36cc)" style="fill: none; stroke: #cccccc; stroke-width: 0.8; stroke-linecap: round"/>
     </g>
     <g id="line2d_22">
      <g>
       <use xlink:href="#m681baec3cc" x="44.7648" y="289.522226" style="fill: #262626; stroke: #262626"/>
      </g>
     </g>
     <g id="text_12">
      <!-- 0 -->
      <g style="fill: #262626" transform="translate(31.081812 292.986607) scale(0.0968 -0.0968)">
       <use xlink:href="#ArialMT-30"/>
      </g>
     </g>
    </g>
    <g id="ytick_5">
     <g id="line2d_23">
      <path d="M 44.7648 209.984768 
L 991.970776 209.984768 
" clip-path="url(#pbeb93f36cc)" style="fill: none; stroke: #cccccc; stroke-width: 0.8; stroke-linecap: round"/>
     </g>
     <g id="line2d_24">
      <g>
       <use xlink:href="#m681baec3cc" x="44.7648" y="209.984768" style="fill: #262626; stroke: #262626"/>
      </g>
     </g>
     <g id="text_13">
      <!-- 2 -->
      <g style="fill: #262626" transform="translate(31.081812 213.449149) scale(0.0968 -0.0968)">
       <use xlink:href="#ArialMT-32"/>
      </g>
     </g>
    </g>
    <g id="ytick_6">
     <g id="line2d_25">
      <path d="M 44.7648 130.44731 
L 991.970776 130.44731 
" clip-path="url(#pbeb93f36cc)" style="fill: none; stroke: #cccccc; stroke-width: 0.8; stroke-linecap: round"/>
     </g>
     <g id="line2d_26">
      <g>
       <use xlink:href="#m681baec3cc" x="44.7648" y="130.44731" style="fill: #262626; stroke: #262626"/>
      </g>
     </g>
     <g id="text_14">
      <!-- 4 -->
      <g style="fill: #262626" transform="translate(31.081812 133.911692) scale(0.0968 -0.0968)">
       <use xlink:href="#ArialMT-34"/>
      </g>
     </g>
    </g>
    <g id="ytick_7">
     <g id="line2d_27">
      <path d="M 44.7648 50.909853 
L 991.970776 50.909853 
" clip-path="url(#pbeb93f36cc)" style="fill: none; stroke: #cccccc; stroke-width: 0.8; stroke-linecap: round"/>
     </g>
     <g id="line2d_28">
      <g>
       <use xlink:href="#m681baec3cc" x="44.7648" y="50.909853" style="fill: #262626; stroke: #262626"/>
      </g>
     </g>
     <g id="text_15">
      <!-- 6 -->
      <g style="fill: #262626" transform="translate(31.081812 54.374234) scale(0.0968 -0.0968)">
       <use xlink:href="#ArialMT-36"/>
      </g>
     </g>
    </g>
    <g id="text_16">
     <!-- Generator Output (GW) -->
     <g style="fill: #262626" transform="translate(19.205537 334.610325) rotate(-90) scale(0.1056 -0.1056)">
      <defs>
       <path id="ArialMT-47" d="M 2638 1797 
L 2638 2334 
L 4578 2338 
L 4578 638 
Q 4131 281 3656 101 
Q 3181 -78 2681 -78 
Q 2006 -78 1454 211 
Q 903 500 622 1047 
Q 341 1594 341 2269 
Q 341 2938 620 3517 
Q 900 4097 1425 4378 
Q 1950 4659 2634 4659 
Q 3131 4659 3532 4498 
Q 3934 4338 4162 4050 
Q 4391 3763 4509 3300 
L 3963 3150 
Q 3859 3500 3706 3700 
Q 3553 3900 3268 4020 
Q 2984 4141 2638 4141 
Q 2222 4141 1919 4014 
Q 1616 3888 1430 3681 
Q 1244 3475 1141 3228 
Q 966 2803 966 2306 
Q 966 1694 1177 1281 
Q 1388 869 1791 669 
Q 2194 469 2647 469 
Q 3041 469 3416 620 
Q 3791 772 3984 944 
L 3984 1797 
L 2638 1797 
z
" transform="scale(0.015625)"/>
       <path id="ArialMT-6e" d="M 422 0 
L 422 3319 
L 928 3319 
L 928 2847 
Q 1294 3394 1984 3394 
Q 2284 3394 2536 3286 
Q 2788 3178 2913 3003 
Q 3038 2828 3088 2588 
Q 3119 2431 3119 2041 
L 3119 0 
L 2556 0 
L 2556 2019 
Q 2556 2363 2490 2533 
Q 2425 2703 2258 2804 
Q 2091 2906 1866 2906 
Q 1506 2906 1245 2678 
Q 984 2450 984 1813 
L 984 0 
L 422 0 
z
" transform="scale(0.015625)"/>
       <path id="ArialMT-61" d="M 2588 409 
Q 2275 144 1986 34 
Q 1697 -75 1366 -75 
Q 819 -75 525 192 
Q 231 459 231 875 
Q 231 1119 342 1320 
Q 453 1522 633 1644 
Q 813 1766 1038 1828 
Q 1203 1872 1538 1913 
Q 2219 1994 2541 2106 
Q 2544 2222 2544 2253 
Q 2544 2597 2384 2738 
Q 2169 2928 1744 2928 
Q 1347 2928 1158 2789 
Q 969 2650 878 2297 
L 328 2372 
Q 403 2725 575 2942 
Q 747 3159 1072 3276 
Q 1397 3394 1825 3394 
Q 2250 3394 2515 3294 
Q 2781 3194 2906 3042 
Q 3031 2891 3081 2659 
Q 3109 2516 3109 2141 
L 3109 1391 
Q 3109 606 3145 398 
Q 3181 191 3288 0 
L 2700 0 
Q 2613 175 2588 409 
z
M 2541 1666 
Q 2234 1541 1622 1453 
Q 1275 1403 1131 1340 
Q 988 1278 909 1158 
Q 831 1038 831 891 
Q 831 666 1001 516 
Q 1172 366 1500 366 
Q 1825 366 2078 508 
Q 2331 650 2450 897 
Q 2541 1088 2541 1459 
L 2541 1666 
z
" transform="scale(0.015625)"/>
       <path id="ArialMT-4f" d="M 309 2231 
Q 309 3372 921 4017 
Q 1534 4663 2503 4663 
Q 3138 4663 3647 4359 
Q 4156 4056 4423 3514 
Q 4691 2972 4691 2284 
Q 4691 1588 4409 1038 
Q 4128 488 3612 205 
Q 3097 -78 2500 -78 
Q 1853 -78 1343 234 
Q 834 547 571 1087 
Q 309 1628 309 2231 
z
M 934 2222 
Q 934 1394 1379 917 
Q 1825 441 2497 441 
Q 3181 441 3623 922 
Q 4066 1403 4066 2288 
Q 4066 2847 3877 3264 
Q 3688 3681 3323 3911 
Q 2959 4141 2506 4141 
Q 1863 4141 1398 3698 
Q 934 3256 934 2222 
z
" transform="scale(0.015625)"/>
       <path id="ArialMT-70" d="M 422 -1272 
L 422 3319 
L 934 3319 
L 934 2888 
Q 1116 3141 1344 3267 
Q 1572 3394 1897 3394 
Q 2322 3394 2647 3175 
Q 2972 2956 3137 2557 
Q 3303 2159 3303 1684 
Q 3303 1175 3120 767 
Q 2938 359 2589 142 
Q 2241 -75 1856 -75 
Q 1575 -75 1351 44 
Q 1128 163 984 344 
L 984 -1272 
L 422 -1272 
z
M 931 1641 
Q 931 1000 1190 694 
Q 1450 388 1819 388 
Q 2194 388 2461 705 
Q 2728 1022 2728 1688 
Q 2728 2322 2467 2637 
Q 2206 2953 1844 2953 
Q 1484 2953 1207 2617 
Q 931 2281 931 1641 
z
" transform="scale(0.015625)"/>
       <path id="ArialMT-57" d="M 1294 0 
L 78 4581 
L 700 4581 
L 1397 1578 
Q 1509 1106 1591 641 
Q 1766 1375 1797 1488 
L 2669 4581 
L 3400 4581 
L 4056 2263 
Q 4303 1400 4413 641 
Q 4500 1075 4641 1638 
L 5359 4581 
L 5969 4581 
L 4713 0 
L 4128 0 
L 3163 3491 
Q 3041 3928 3019 4028 
Q 2947 3713 2884 3491 
L 1913 0 
L 1294 0 
z
" transform="scale(0.015625)"/>
      </defs>
      <use xlink:href="#ArialMT-47"/>
      <use xlink:href="#ArialMT-65" transform="translate(77.783203 0)"/>
      <use xlink:href="#ArialMT-6e" transform="translate(133.398438 0)"/>
      <use xlink:href="#ArialMT-65" transform="translate(189.013672 0)"/>
      <use xlink:href="#ArialMT-72" transform="translate(244.628906 0)"/>
      <use xlink:href="#ArialMT-61" transform="translate(277.929688 0)"/>
      <use xlink:href="#ArialMT-74" transform="translate(333.544922 0)"/>
      <use xlink:href="#ArialMT-6f" transform="translate(361.328125 0)"/>
      <use xlink:href="#ArialMT-72" transform="translate(416.943359 0)"/>
      <use xlink:href="#ArialMT-20" transform="translate(450.244141 0)"/>
      <use xlink:href="#ArialMT-4f" transform="translate(478.027344 0)"/>
      <use xlink:href="#ArialMT-75" transform="translate(555.810547 0)"/>
      <use xlink:href="#ArialMT-74" transform="translate(611.425781 0)"/>
      <use xlink:href="#ArialMT-70" transform="translate(639.208984 0)"/>
      <use xlink:href="#ArialMT-75" transform="translate(694.824219 0)"/>
      <use xlink:href="#ArialMT-74" transform="translate(750.439453 0)"/>
      <use xlink:href="#ArialMT-20" transform="translate(778.222656 0)"/>
      <use xlink:href="#ArialMT-28" transform="translate(806.005859 0)"/>
      <use xlink:href="#ArialMT-47" transform="translate(839.306641 0)"/>
      <use xlink:href="#ArialMT-57" transform="translate(917.089844 0)"/>
      <use xlink:href="#ArialMT-29" transform="translate(1011.474609 0)"/>
     </g>
    </g>
   </g>
   <g id="line2d_29">
    <path d="M 87.819617 48.427091 
L 720.890447 48.432659 
L 723.890783 53.336938 
L 726.891119 55.795441 
L 729.891454 56.578487 
L 732.89179 57.046168 
L 735.892126 58.929615 
L 738.892461 59.531713 
L 741.892797 59.952864 
L 744.893133 61.087863 
L 747.893468 62.395857 
L 750.893804 62.773262 
L 756.894475 67.452053 
L 759.894811 68.894863 
L 762.895147 69.99248 
L 765.895482 72.651417 
L 768.895818 74.322499 
L 771.896154 76.289858 
L 774.89649 86.414976 
L 777.896825 87.373402 
L 780.897161 87.620764 
L 783.897497 89.056813 
L 786.897832 89.397233 
L 789.898168 89.42706 
L 792.898504 91.033319 
L 798.899175 91.461628 
L 801.899511 92.573959 
L 804.899846 92.577538 
L 807.900182 93.201907 
L 810.900518 94.606937 
L 813.900853 94.777544 
L 816.901189 95.362542 
L 819.901525 102.053233 
L 822.901861 103.933897 
L 825.902196 104.660471 
L 828.902532 106.238097 
L 831.902868 110.003798 
L 834.903203 111.085905 
L 837.903539 113.126438 
L 840.903875 118.344095 
L 843.90421 118.959318 
L 846.904546 121.582065 
L 849.904882 122.317389 
L 852.905217 123.885072 
L 855.905553 124.061248 
L 858.905889 125.75977 
L 861.906224 128.390869 
L 864.90656 128.742027 
L 867.906896 129.600634 
L 870.907232 133.19533 
L 873.907567 133.416444 
L 876.907903 133.773965 
L 879.908239 136.096856 
L 882.908574 137.256114 
L 885.90891 142.515131 
L 888.909246 142.741018 
L 891.909581 145.20986 
L 894.909917 146.17624 
L 897.910253 147.289765 
L 900.910588 147.938393 
L 903.910924 147.944756 
L 906.91126 149.09606 
L 915.912267 151.587571 
L 921.912938 153.629298 
L 924.913274 155.060574 
L 927.91361 155.811408 
L 930.913945 159.480073 
L 933.914281 168.840837 
L 936.914617 177.054272 
L 939.914952 181.454284 
L 942.915288 182.452877 
L 945.915624 191.927379 
L 948.915959 192.934323 
L 948.915959 192.934323 
" clip-path="url(#pbeb93f36cc)" style="fill: none; stroke: #1f77b4; stroke-width: 2.5; stroke-linecap: round"/>
   </g>
   <g id="line2d_30">
    <path d="M 87.819617 116.923954 
L 198.832038 116.925545 
L 201.832373 117.523269 
L 207.833045 118.153206 
L 210.83338 119.522841 
L 213.833716 123.450003 
L 219.834387 129.101934 
L 222.834723 130.44731 
L 225.835059 133.219191 
L 228.835394 133.871398 
L 231.83573 133.994681 
L 234.836066 135.044575 
L 237.836401 135.493167 
L 240.836737 137.886449 
L 249.837744 138.44679 
L 252.83808 138.497694 
L 255.838416 139.272787 
L 258.838751 139.511797 
L 261.839087 139.911473 
L 264.839423 140.134575 
L 267.839758 140.760933 
L 270.840094 143.074677 
L 273.84043 144.427212 
L 276.840765 144.946989 
L 279.841101 146.887305 
L 282.841437 147.071037 
L 285.841772 148.907954 
L 291.842444 150.143966 
L 297.843115 150.291508 
L 303.843787 151.072169 
L 306.844122 153.192637 
L 309.844458 153.501243 
L 312.844794 156.079847 
L 315.845129 156.29937 
L 318.845465 157.820127 
L 321.845801 158.322008 
L 324.846136 159.291967 
L 330.846808 160.698587 
L 333.847143 162.492157 
L 336.847479 162.552208 
L 339.847815 163.89997 
L 342.848151 164.00655 
L 348.848822 164.735511 
L 351.849158 164.787608 
L 354.849493 166.392674 
L 357.849829 167.843039 
L 360.850165 169.735633 
L 363.8505 170.120992 
L 366.850836 171.100894 
L 369.851172 172.260947 
L 375.851843 172.828845 
L 378.852179 174.165869 
L 384.85285 174.433115 
L 387.853186 175.374441 
L 390.853522 175.869562 
L 393.853857 176.499896 
L 396.854193 176.511827 
L 399.854529 176.938148 
L 402.854864 177.012913 
L 405.8552 177.218517 
L 408.855536 177.813457 
L 411.855871 179.493686 
L 414.856207 179.914837 
L 417.856543 179.939096 
L 420.856878 180.336783 
L 423.857214 180.934905 
L 426.85755 182.815568 
L 429.857885 183.346083 
L 435.858557 185.037845 
L 438.858893 185.095112 
L 441.859228 185.795041 
L 444.859564 186.940381 
L 447.8599 187.477258 
L 453.860571 187.758026 
L 456.860907 190.320325 
L 459.861242 190.632509 
L 465.861914 191.672859 
L 468.862249 192.390287 
L 471.862585 192.513173 
L 474.862921 193.288663 
L 477.863256 193.298605 
L 480.863592 194.611768 
L 483.863928 195.074279 
L 486.864264 195.074676 
L 489.864599 196.119003 
L 492.864935 196.154397 
L 495.865271 197.847352 
L 501.865942 198.018755 
L 507.866613 198.634375 
L 513.867285 199.557407 
L 516.86762 200.684851 
L 519.867956 202.745269 
L 522.868292 203.36407 
L 525.868627 205.835299 
L 528.868963 206.22026 
L 531.869299 207.084435 
L 534.869635 207.337364 
L 537.86997 208.569399 
L 540.870306 209.422438 
L 543.870642 209.477319 
L 546.870977 210.433757 
L 552.871649 211.790268 
L 555.871984 212.050356 
L 558.87232 214.636516 
L 561.872656 214.992844 
L 570.873663 217.112517 
L 573.873998 217.588151 
L 576.874334 217.928969 
L 579.87467 219.241338 
L 582.875006 219.549943 
L 585.875341 220.972868 
L 588.875677 224.452234 
L 591.876013 228.809296 
L 594.876348 229.227265 
L 597.876684 229.484967 
L 600.87702 229.883052 
L 603.877355 235.159964 
L 606.877691 235.652699 
L 609.878027 237.799813 
L 612.878362 238.91453 
L 615.878698 239.061277 
L 618.879034 240.660775 
L 621.879369 242.556153 
L 624.879705 246.022793 
L 627.880041 246.816179 
L 630.880377 247.407937 
L 633.880712 249.301327 
L 636.881048 250.900427 
L 639.881384 252.161494 
L 645.882055 252.78984 
L 648.882391 253.665547 
L 651.882726 253.960631 
L 654.883062 256.887212 
L 657.883398 258.513753 
L 660.883733 259.515925 
L 666.884405 259.628868 
L 669.88474 260.67916 
L 672.885076 262.012605 
L 678.885748 262.843772 
L 681.886083 268.146534 
L 684.886419 269.519748 
L 687.886755 269.759156 
L 690.88709 271.728504 
L 693.887426 272.576373 
L 696.887762 274.814159 
L 699.888097 275.37808 
L 702.888433 276.657042 
L 705.888769 277.189943 
L 708.889104 278.680475 
L 711.88944 280.599714 
L 714.889776 285.764081 
L 717.890111 287.078438 
L 720.890447 287.988346 
L 723.890783 289.518647 
L 948.915959 289.520238 
L 948.915959 289.520238 
" clip-path="url(#pbeb93f36cc)" style="fill: none; stroke: #ff7f0e; stroke-width: 2.5; stroke-linecap: round"/>
   </g>
   <g id="line2d_31">
    <path d="M 87.819617 227.465908 
L 96.820624 227.466306 
L 102.821296 231.661509 
L 105.821631 233.194594 
L 108.821967 237.118177 
L 111.822303 237.789473 
L 114.822638 238.136256 
L 117.822974 239.058891 
L 120.82331 242.72676 
L 126.823981 247.042463 
L 129.824317 247.822725 
L 132.824652 247.953564 
L 135.824988 251.393559 
L 138.825324 252.481234 
L 141.825659 255.545017 
L 144.825995 256.253696 
L 147.826331 259.815383 
L 150.826667 260.255623 
L 153.827002 260.256418 
L 156.827338 264.452019 
L 159.827674 266.795193 
L 162.828009 266.981708 
L 165.828345 267.491941 
L 168.828681 270.364039 
L 171.829016 271.017439 
L 174.829352 273.063142 
L 177.829688 274.875801 
L 180.830023 276.009607 
L 183.830359 276.470527 
L 186.830695 278.98391 
L 192.831366 285.734652 
L 195.831702 286.411914 
L 198.832038 288.96268 
L 201.832373 289.521828 
L 948.915959 289.522226 
L 948.915959 289.522226 
" clip-path="url(#pbeb93f36cc)" style="fill: none; stroke: #2ca02c; stroke-width: 2.5; stroke-linecap: round"/>
   </g>
   <g id="line2d_32">
    <path d="M 87.819617 284.90786 
L 90.819953 288.537552 
L 93.820288 292.657195 
L 96.820624 292.664353 
L 99.82096 295.042523 
L 102.821296 295.50901 
L 159.827674 295.518953 
L 165.828345 295.519748 
L 168.828681 296.106734 
L 171.829016 296.114688 
L 174.829352 297.917007 
L 207.833045 298.031541 
L 210.83338 298.051028 
L 213.833716 298.515526 
L 216.834052 299.116829 
L 249.837744 299.207105 
L 255.838416 300.296768 
L 291.842444 300.323015 
L 294.84278 300.896082 
L 297.843115 300.913581 
L 300.843451 301.490227 
L 318.845465 301.598796 
L 327.846472 301.661233 
L 330.846808 302.68488 
L 339.847815 302.812935 
L 345.848486 304.012758 
L 348.848822 305.181163 
L 351.849158 305.194287 
L 357.849829 306.369055 
L 363.8505 306.437855 
L 369.851172 308.812048 
L 372.851507 309.348528 
L 378.852179 309.425282 
L 384.85285 310.540795 
L 387.853186 310.547555 
L 390.853522 311.060174 
L 402.854864 311.16914 
L 405.8552 312.25085 
L 408.855536 312.254827 
L 411.855871 312.850562 
L 420.856878 312.973845 
L 423.857214 313.455445 
L 432.858221 313.524245 
L 435.858557 314.141455 
L 438.858893 314.209857 
L 441.859228 314.746338 
L 444.859564 314.784913 
L 447.8599 315.242254 
L 450.860235 315.25498 
L 453.860571 315.835603 
L 456.860907 315.928264 
L 459.861242 316.524795 
L 462.861578 316.553826 
L 465.861914 318.279392 
L 468.862249 318.386369 
L 471.862585 318.837744 
L 480.863592 318.951085 
L 483.863928 319.474839 
L 492.864935 319.532504 
L 495.865271 320.123467 
L 498.865606 321.304599 
L 501.865942 321.326472 
L 504.866278 322.466641 
L 507.866613 322.50641 
L 510.866949 323.029766 
L 516.86762 323.088624 
L 519.867956 323.632262 
L 522.868292 323.654931 
L 525.868627 324.297593 
L 528.868963 324.300775 
L 534.869635 324.865491 
L 540.870306 324.893726 
L 546.870977 326.006853 
L 549.871313 326.041452 
L 552.871649 326.380679 
L 555.871984 326.605373 
L 558.87232 327.21463 
L 567.873327 327.302916 
L 570.873663 328.411668 
L 576.874334 328.428371 
L 579.87467 329.319986 
L 582.875006 329.690631 
L 585.875341 332.004375 
L 588.875677 332.065221 
L 591.876013 332.590169 
L 594.876348 332.686807 
L 597.876684 334.676436 
L 600.87702 335.015266 
L 603.877355 335.085656 
L 606.877691 335.274558 
L 609.878027 335.633272 
L 612.878362 336.271162 
L 618.879034 336.390468 
L 621.879369 337.484904 
L 624.879705 338.264769 
L 627.880041 338.683533 
L 630.880377 338.694668 
L 633.880712 339.886935 
L 636.881048 339.895684 
L 642.881719 342.205452 
L 645.882055 342.28658 
L 648.882391 342.848512 
L 651.882726 342.990089 
L 654.883062 343.007985 
L 657.883398 343.406865 
L 660.883733 343.460553 
L 672.885076 348.258252 
L 675.885412 349.382117 
L 678.885748 349.393252 
L 681.886083 350.657102 
L 684.886419 351.790511 
L 687.886755 351.863288 
L 690.88709 353.046805 
L 693.887426 353.069871 
L 696.887762 355.37248 
L 705.888769 355.381627 
L 708.889104 356.062468 
L 711.88944 357.760592 
L 717.890111 357.762979 
L 720.890447 358.990242 
L 723.890783 359.049497 
L 726.891119 360.15467 
L 729.891454 360.157851 
L 735.892126 361.340176 
L 738.892461 361.957784 
L 741.892797 362.000734 
L 756.894475 364.939643 
L 762.895147 364.952369 
L 765.895482 367.938603 
L 774.89649 369.696381 
L 777.896825 372.690966 
L 789.898168 372.817431 
L 792.898504 373.855395 
L 795.898839 376.882193 
L 798.899175 376.887363 
L 801.899511 377.425831 
L 804.899846 377.57735 
L 807.900182 378.090764 
L 810.900518 379.244853 
L 822.901861 381.653645 
L 825.902196 382.812506 
L 828.902532 383.370859 
L 831.902868 383.461134 
L 834.903203 384.073174 
L 837.903539 385.235217 
L 846.904546 385.266236 
L 849.904882 385.802716 
L 852.905217 386.45373 
L 855.905553 386.456912 
L 858.905889 387.636055 
L 861.906224 387.67304 
L 864.90656 389.301171 
L 867.906896 389.384288 
L 870.907232 389.896509 
L 873.907567 391.770809 
L 876.907903 392.410291 
L 879.908239 392.440913 
L 882.908574 393.535746 
L 885.90891 393.612499 
L 888.909246 394.823855 
L 891.909581 394.848114 
L 894.909917 396.52874 
L 897.910253 396.632139 
L 906.91126 400.050261 
L 909.911595 400.172351 
L 912.911931 402.651136 
L 915.912267 404.214047 
L 918.912603 407.238857 
L 921.912938 414.962739 
L 924.913274 415.709198 
L 927.91361 416.105295 
L 930.913945 416.677964 
L 933.914281 416.74398 
L 936.914617 417.270121 
L 939.914952 421.445042 
L 945.915624 422.654011 
L 948.915959 425.043316 
L 948.915959 425.043316 
" clip-path="url(#pbeb93f36cc)" style="fill: none; stroke: #d62728; stroke-width: 2.5; stroke-linecap: round"/>
   </g>
   <g id="line2d_33">
    <path d="M 87.819617 403.361803 
L 90.819953 404.149622 
L 93.820288 404.552479 
L 99.82096 406.151579 
L 102.821296 406.234298 
L 105.821631 406.951329 
L 108.821967 409.846094 
L 111.822303 410.969959 
L 114.822638 412.227844 
L 117.822974 415.844412 
L 123.823645 415.846003 
L 132.824652 416.96072 
L 135.824988 417.700816 
L 138.825324 417.782342 
L 141.825659 418.17128 
L 144.825995 419.270488 
L 147.826331 419.664994 
L 153.827002 419.73618 
L 156.827338 420.031661 
L 159.827674 420.158921 
L 162.828009 420.853681 
L 165.828345 421.360334 
L 168.828681 422.037994 
L 171.829016 422.1744 
L 174.829352 422.846094 
L 177.829688 422.969775 
L 186.830695 424.22766 
L 189.83103 424.902933 
L 192.831366 424.927192 
L 195.831702 425.245739 
L 198.832038 425.93175 
L 201.832373 426.147296 
L 204.832709 426.156443 
L 210.83338 426.86035 
L 213.833716 426.920003 
L 216.834052 427.203156 
L 225.835059 427.572608 
L 228.835394 428.138119 
L 231.83573 428.139312 
L 234.836066 429.091773 
L 237.836401 429.871638 
L 240.836737 430.262962 
L 243.837073 432.119366 
L 246.837409 432.676129 
L 249.837744 432.825261 
L 252.83808 432.846736 
L 261.839087 433.90538 
L 264.839423 434.579062 
L 267.839758 435.098442 
L 270.840094 435.133438 
L 276.840765 435.616231 
L 279.841101 435.739116 
L 282.841437 435.742298 
L 285.841772 436.36945 
L 291.842444 436.413594 
L 294.84278 436.674874 
L 297.843115 436.716234 
L 306.844122 437.235613 
L 309.844458 437.747437 
L 315.845129 438.03059 
L 318.845465 438.378169 
L 321.845801 438.470432 
L 324.846136 438.818011 
L 327.846472 438.897946 
L 330.846808 439.163999 
L 333.847143 439.224845 
L 336.847479 439.596285 
L 345.848486 440.024594 
L 348.848822 440.31252 
L 354.849493 440.503807 
L 357.849829 440.866498 
L 366.850836 441.140107 
L 369.851172 441.346905 
L 372.851507 441.360824 
L 375.851843 442.257608 
L 378.852179 442.385266 
L 381.852514 442.829483 
L 384.85285 442.94521 
L 387.853186 443.533389 
L 393.853857 443.562818 
L 396.854193 443.962494 
L 405.8552 444.483067 
L 411.855871 444.776957 
L 414.856207 445.090733 
L 426.85755 445.611305 
L 432.858221 446.227323 
L 435.858557 446.284988 
L 438.858893 446.641713 
L 441.859228 447.140015 
L 444.859564 447.220348 
L 447.8599 447.52776 
L 450.860235 447.641897 
L 453.860571 447.64468 
L 456.860907 448.040777 
L 459.861242 448.055889 
L 468.862249 448.576064 
L 474.862921 448.722811 
L 477.863256 449.325307 
L 483.863928 449.445408 
L 492.864935 449.737709 
L 495.865271 449.905135 
L 498.865606 450.393097 
L 510.866949 451.086664 
L 516.86762 451.148305 
L 519.867956 451.390099 
L 522.868292 451.46566 
L 525.868627 451.69433 
L 534.869635 451.975495 
L 540.870306 452.225243 
L 546.870977 452.458685 
L 549.871313 452.986416 
L 555.871984 453.548348 
L 564.872991 453.670438 
L 567.873327 454.113064 
L 570.873663 454.19459 
L 573.873998 454.510354 
L 579.87467 454.700846 
L 582.875006 455.722107 
L 585.875341 456.624062 
L 591.876013 457.06112 
L 594.876348 457.89348 
L 597.876684 457.894275 
L 600.87702 458.592216 
L 603.877355 458.879744 
L 606.877691 459.323563 
L 609.878027 459.367706 
L 612.878362 460.071215 
L 618.879034 460.211201 
L 624.879705 460.32494 
L 627.880041 460.831593 
L 630.880377 460.958456 
L 633.880712 461.211385 
L 636.881048 461.723606 
L 642.881719 462.484779 
L 648.882391 462.651808 
L 651.882726 462.849856 
L 654.883062 463.31873 
L 657.883398 463.565296 
L 660.883733 463.673467 
L 663.884069 463.895774 
L 669.88474 463.998377 
L 675.885412 464.329253 
L 684.886419 464.741655 
L 687.886755 465.186667 
L 690.88709 465.198995 
L 693.887426 465.601852 
L 705.888769 466.188043 
L 708.889104 466.994553 
L 711.88944 467.410534 
L 714.889776 467.511149 
L 717.890111 467.814187 
L 720.890447 470.070267 
L 723.890783 470.199913 
L 729.891454 471.998652 
L 732.89179 472.506897 
L 735.892126 472.755849 
L 738.892461 472.888279 
L 741.892797 473.455779 
L 744.893133 473.539691 
L 747.893468 473.802562 
L 750.893804 474.435282 
L 756.894475 474.504878 
L 759.894811 474.78127 
L 762.895147 475.559942 
L 768.895818 476.453545 
L 771.896154 476.809873 
L 777.896825 477.300222 
L 780.897161 478.245127 
L 783.897497 478.582763 
L 789.898168 478.687355 
L 795.898839 479.333199 
L 798.899175 479.402794 
L 804.899846 479.94524 
L 810.900518 480.096759 
L 819.901525 480.949798 
L 822.901861 481.063139 
L 828.902532 481.847776 
L 834.903203 482.252224 
L 840.903875 484.60693 
L 843.90421 485.107618 
L 849.904882 485.19153 
L 852.905217 486.27324 
L 855.905553 486.579459 
L 861.906224 486.658599 
L 867.906896 487.045946 
L 870.907232 487.198261 
L 873.907567 487.997214 
L 876.907903 489.289698 
L 882.908574 489.514789 
L 888.909246 490.608429 
L 891.909581 490.853404 
L 894.909917 493.068125 
L 897.910253 493.823731 
L 900.910588 493.841229 
L 909.911595 496.144236 
L 912.911931 496.636573 
L 915.912267 498.092904 
L 918.912603 500.084124 
L 921.912938 500.995623 
L 927.91361 501.466883 
L 930.913945 501.538069 
L 933.914281 502.62455 
L 936.914617 503.517358 
L 939.914952 504.849213 
L 942.915288 504.94267 
L 945.915624 507.834254 
L 948.915959 510.472909 
L 948.915959 510.472909 
" clip-path="url(#pbeb93f36cc)" style="fill: none; stroke: #9467bd; stroke-width: 2.5; stroke-linecap: round"/>
   </g>
   <g id="line2d_34">
    <path d="M 87.819617 295.528099 
L 204.832709 295.54003 
L 207.833045 295.896756 
L 210.83338 296.115881 
L 228.835394 296.136959 
L 231.83573 300.336139 
L 237.836401 300.338923 
L 240.836737 301.542324 
L 252.83808 301.547892 
L 255.838416 302.734193 
L 264.839423 302.748112 
L 267.839758 311.101136 
L 288.842108 311.154426 
L 291.842444 312.297777 
L 303.843787 312.356237 
L 306.844122 313.548504 
L 309.844458 313.566002 
L 312.844794 314.69265 
L 330.846808 314.758666 
L 333.847143 315.896449 
L 336.847479 319.48677 
L 339.847815 321.882041 
L 342.848151 321.882438 
L 345.848486 324.285663 
L 348.848822 324.289242 
L 351.849158 326.680138 
L 354.849493 326.761266 
L 357.849829 327.871609 
L 366.850836 327.882744 
L 369.851172 329.075806 
L 372.851507 331.458351 
L 375.851843 343.428738 
L 381.852514 343.461348 
L 384.85285 345.826792 
L 390.853522 345.851847 
L 393.853857 346.997186 
L 399.854529 347.027013 
L 402.854864 349.410352 
L 405.8552 349.435009 
L 408.855536 350.596654 
L 414.856207 350.644376 
L 417.856543 351.804828 
L 423.857214 351.827496 
L 426.85755 353.018569 
L 432.858221 353.047998 
L 435.858557 354.202484 
L 438.858893 354.20845 
L 441.859228 355.372878 
L 444.859564 355.446848 
L 447.8599 365.680535 
L 450.860235 366.130319 
L 453.860571 367.325767 
L 456.860907 367.705956 
L 459.861242 370.966992 
L 462.861578 374.50959 
L 468.862249 374.57322 
L 474.862921 376.884579 
L 483.863928 376.957356 
L 486.864264 378.120193 
L 489.864599 378.151611 
L 492.864935 380.517452 
L 495.865271 381.679892 
L 501.865942 381.708526 
L 504.866278 382.883692 
L 507.866613 385.271804 
L 510.866949 385.288904 
L 513.867285 386.44697 
L 516.86762 386.472422 
L 519.867956 386.626724 
L 522.868292 387.663495 
L 531.869299 387.746612 
L 534.869635 388.820367 
L 537.86997 388.909449 
L 540.870306 390.080638 
L 552.871649 390.187219 
L 555.871984 391.270121 
L 567.873327 391.363578 
L 573.873998 393.713114 
L 576.874334 394.790051 
L 588.875677 394.936003 
L 591.876013 396.062253 
L 597.876684 396.133041 
L 600.87702 397.289516 
L 603.877355 397.292697 
L 606.877691 398.457524 
L 609.878027 399.407598 
L 612.878362 399.686775 
L 615.878698 399.777845 
L 618.879034 400.031172 
L 621.879369 400.850806 
L 624.879705 402.087613 
L 633.880712 402.180672 
L 636.881048 403.219829 
L 639.881384 403.303741 
L 642.881719 404.371929 
L 651.882726 404.533788 
L 654.883062 405.727247 
L 657.883398 406.74135 
L 669.88474 406.908378 
L 672.885076 407.005812 
L 675.885412 407.959864 
L 684.886419 408.197283 
L 687.886755 409.10918 
L 690.88709 410.570681 
L 693.887426 411.622961 
L 702.888433 411.677047 
L 708.889104 411.797546 
L 711.88944 413.851998 
L 714.889776 414.080669 
L 717.890111 415.016427 
L 720.890447 416.432989 
L 723.890783 416.501391 
L 726.891119 417.373122 
L 729.891454 418.776958 
L 738.892461 418.867233 
L 741.892797 419.750496 
L 744.893133 419.790663 
L 747.893468 421.007586 
L 750.893804 421.184159 
L 756.894475 421.246198 
L 759.894811 422.128666 
L 762.895147 422.175593 
L 765.895482 422.402673 
L 768.895818 423.371837 
L 771.896154 423.700326 
L 774.89649 424.791978 
L 777.896825 424.801523 
L 780.897161 424.929578 
L 783.897497 426.061794 
L 786.897832 426.064577 
L 789.898168 426.881825 
L 792.898504 428.349291 
L 795.898839 428.511547 
L 798.899175 429.268744 
L 801.899511 429.624276 
L 813.900853 429.724494 
L 816.901189 430.801431 
L 822.901861 430.925509 
L 825.902196 431.643335 
L 828.902532 433.220562 
L 834.903203 433.279818 
L 837.903539 433.987701 
L 840.903875 434.351585 
L 846.904546 434.423567 
L 852.905217 434.451007 
L 855.905553 435.132643 
L 858.905889 435.633729 
L 864.90656 437.973323 
L 867.906896 439.172748 
L 870.907232 439.200984 
L 873.907567 439.943466 
L 876.907903 440.427849 
L 879.908239 440.470402 
L 882.908574 442.887943 
L 885.90891 443.923918 
L 888.909246 445.177826 
L 894.909917 445.245035 
L 897.910253 446.22096 
L 906.91126 446.383216 
L 909.911595 446.964237 
L 912.911931 446.988496 
L 915.912267 447.638715 
L 921.912938 450.041144 
L 924.913274 450.068982 
L 927.91361 453.588515 
L 930.913945 453.62192 
L 933.914281 455.94004 
L 936.914617 455.954754 
L 939.914952 458.334515 
L 942.915288 458.368716 
L 945.915624 460.720639 
L 948.915959 467.104315 
L 948.915959 467.104315 
" clip-path="url(#pbeb93f36cc)" style="fill: none; stroke: #8c564b; stroke-width: 2.5; stroke-linecap: round"/>
   </g>
   <g id="line2d_35">
    <path d="M 87.819617 281.85561 
L 90.819953 282.036956 
L 93.820288 282.7516 
L 96.820624 282.752395 
L 102.821296 283.117074 
L 105.821631 283.467039 
L 108.821967 283.646396 
L 111.822303 284.004315 
L 114.822638 284.184069 
L 117.822974 284.717766 
L 123.823645 284.967116 
L 126.823981 285.502005 
L 129.824317 285.860321 
L 132.824652 285.917986 
L 138.825324 286.220228 
L 141.825659 286.810794 
L 147.826331 286.866073 
L 150.826667 287.170701 
L 156.827338 287.401757 
L 165.828345 287.416472 
L 177.829688 287.760869 
L 180.830023 288.11839 
L 183.830359 288.654075 
L 195.831702 288.919332 
L 222.834723 289.371105 
L 237.836401 290.224144 
L 255.838416 290.812721 
L 261.839087 291.408059 
L 267.839758 291.581848 
L 270.840094 291.921871 
L 300.843451 291.923064 
L 303.843787 292.135031 
L 306.844122 292.521186 
L 309.844458 292.669523 
L 315.845129 293.120501 
L 411.855871 293.123284 
L 414.856207 293.485577 
L 417.856543 293.719418 
L 426.85755 293.80333 
L 429.857885 294.314755 
L 498.865606 294.321516 
L 501.865942 295.511794 
L 570.873663 295.597297 
L 573.873998 295.646213 
L 576.874334 295.953625 
L 591.876013 296.849217 
L 594.876348 297.024597 
L 597.876684 297.380129 
L 600.87702 297.443361 
L 603.877355 297.971092 
L 612.878362 298.216465 
L 615.878698 298.482916 
L 621.879369 298.812201 
L 627.880041 299.404755 
L 630.880377 300.010831 
L 633.880712 300.302335 
L 645.882055 300.355228 
L 648.882391 300.479704 
L 651.882726 300.881368 
L 654.883062 301.137876 
L 657.883398 301.141455 
L 663.884069 301.499374 
L 666.884405 301.500567 
L 669.88474 302.338892 
L 672.885076 302.694822 
L 681.886083 302.697208 
L 687.886755 303.462756 
L 693.887426 304.917099 
L 696.887762 305.093672 
L 705.888769 305.097649 
L 708.889104 305.883876 
L 711.88944 306.295085 
L 714.889776 306.295085 
L 720.890447 307.48934 
L 729.891454 307.494112 
L 732.89179 308.31136 
L 735.892126 309.46505 
L 738.892461 309.642817 
L 741.892797 310.842242 
L 744.893133 311.079263 
L 747.893468 311.74181 
L 750.893804 311.806236 
L 753.89414 312.096945 
L 762.895147 312.57417 
L 765.895482 313.289211 
L 768.895818 313.294779 
L 774.89649 321.26483 
L 780.897161 321.390897 
L 783.897497 321.856191 
L 786.897832 322.636851 
L 801.899511 323.062377 
L 813.900853 323.349507 
L 828.902532 324.252257 
L 834.903203 324.361223 
L 837.903539 324.735049 
L 846.904546 325.26278 
L 852.905217 325.269541 
L 855.905553 325.447705 
L 858.905889 326.460217 
L 861.906224 326.463001 
L 864.90656 326.644744 
L 867.906896 326.651504 
L 870.907232 327.570162 
L 879.908239 327.848543 
L 882.908574 328.843557 
L 885.90891 329.029674 
L 888.909246 330.647466 
L 891.909581 330.745695 
L 894.909917 331.634128 
L 900.910588 332.338433 
L 903.910924 333.011319 
L 909.911595 334.079507 
L 912.911931 335.514363 
L 915.912267 335.531464 
L 918.912603 335.947445 
L 921.912938 335.98085 
L 924.913274 336.584937 
L 927.91361 336.931721 
L 930.913945 337.130167 
L 933.914281 338.60161 
L 936.914617 341.104653 
L 939.914952 341.284806 
L 942.915288 342.599958 
L 945.915624 344.3295 
L 948.915959 361.371593 
L 948.915959 361.371593 
" clip-path="url(#pbeb93f36cc)" style="fill: none; stroke: #e377c2; stroke-width: 2.5; stroke-linecap: round"/>
   </g>
   <g id="patch_3">
    <path d="M 44.7648 533.5752 
L 44.7648 25.3248 
" style="fill: none; stroke: #cccccc; stroke-linejoin: miter; stroke-linecap: square"/>
   </g>
   <g id="patch_4">
    <path d="M 991.970776 533.5752 
L 991.970776 25.3248 
" style="fill: none; stroke: #cccccc; stroke-linejoin: miter; stroke-linecap: square"/>
   </g>
   <g id="patch_5">
    <path d="M 44.7648 533.5752 
L 991.970776 533.5752 
" style="fill: none; stroke: #cccccc; stroke-linejoin: miter; stroke-linecap: square"/>
   </g>
   <g id="patch_6">
    <path d="M 44.7648 25.3248 
L 991.970776 25.3248 
" style="fill: none; stroke: #cccccc; stroke-linejoin: miter; stroke-linecap: square"/>
   </g>
   <g id="text_17">
    <!-- Individual Residual Load Duration Curves (3) -->
    <g style="fill: #262626" transform="translate(413.305688 19.3248) scale(0.1056 -0.1056)">
     <defs>
      <path id="ArialMT-49" d="M 597 0 
L 597 4581 
L 1203 4581 
L 1203 0 
L 597 0 
z
" transform="scale(0.015625)"/>
      <path id="ArialMT-69" d="M 425 3934 
L 425 4581 
L 988 4581 
L 988 3934 
L 425 3934 
z
M 425 0 
L 425 3319 
L 988 3319 
L 988 0 
L 425 0 
z
" transform="scale(0.015625)"/>
      <path id="ArialMT-76" d="M 1344 0 
L 81 3319 
L 675 3319 
L 1388 1331 
Q 1503 1009 1600 663 
Q 1675 925 1809 1294 
L 2547 3319 
L 3125 3319 
L 1869 0 
L 1344 0 
z
" transform="scale(0.015625)"/>
      <path id="ArialMT-6c" d="M 409 0 
L 409 4581 
L 972 4581 
L 972 0 
L 409 0 
z
" transform="scale(0.015625)"/>
      <path id="ArialMT-52" d="M 503 0 
L 503 4581 
L 2534 4581 
Q 3147 4581 3465 4457 
Q 3784 4334 3975 4021 
Q 4166 3709 4166 3331 
Q 4166 2844 3850 2509 
Q 3534 2175 2875 2084 
Q 3116 1969 3241 1856 
Q 3506 1613 3744 1247 
L 4541 0 
L 3778 0 
L 3172 953 
Q 2906 1366 2734 1584 
Q 2563 1803 2427 1890 
Q 2291 1978 2150 2013 
Q 2047 2034 1813 2034 
L 1109 2034 
L 1109 0 
L 503 0 
z
M 1109 2559 
L 2413 2559 
Q 2828 2559 3062 2645 
Q 3297 2731 3419 2920 
Q 3541 3109 3541 3331 
Q 3541 3656 3305 3865 
Q 3069 4075 2559 4075 
L 1109 4075 
L 1109 2559 
z
" transform="scale(0.015625)"/>
      <path id="ArialMT-4c" d="M 469 0 
L 469 4581 
L 1075 4581 
L 1075 541 
L 3331 541 
L 3331 0 
L 469 0 
z
" transform="scale(0.015625)"/>
      <path id="ArialMT-44" d="M 494 0 
L 494 4581 
L 2072 4581 
Q 2606 4581 2888 4516 
Q 3281 4425 3559 4188 
Q 3922 3881 4101 3404 
Q 4281 2928 4281 2316 
Q 4281 1794 4159 1391 
Q 4038 988 3847 723 
Q 3656 459 3429 307 
Q 3203 156 2883 78 
Q 2563 0 2147 0 
L 494 0 
z
M 1100 541 
L 2078 541 
Q 2531 541 2789 625 
Q 3047 709 3200 863 
Q 3416 1078 3536 1442 
Q 3656 1806 3656 2325 
Q 3656 3044 3420 3430 
Q 3184 3816 2847 3947 
Q 2603 4041 2063 4041 
L 1100 4041 
L 1100 541 
z
" transform="scale(0.015625)"/>
      <path id="ArialMT-43" d="M 3763 1606 
L 4369 1453 
Q 4178 706 3683 314 
Q 3188 -78 2472 -78 
Q 1731 -78 1267 223 
Q 803 525 561 1097 
Q 319 1669 319 2325 
Q 319 3041 592 3573 
Q 866 4106 1370 4382 
Q 1875 4659 2481 4659 
Q 3169 4659 3637 4309 
Q 4106 3959 4291 3325 
L 3694 3184 
Q 3534 3684 3231 3912 
Q 2928 4141 2469 4141 
Q 1941 4141 1586 3887 
Q 1231 3634 1087 3207 
Q 944 2781 944 2328 
Q 944 1744 1114 1308 
Q 1284 872 1643 656 
Q 2003 441 2422 441 
Q 2931 441 3284 734 
Q 3638 1028 3763 1606 
z
" transform="scale(0.015625)"/>
     </defs>
     <use xlink:href="#ArialMT-49"/>
     <use xlink:href="#ArialMT-6e" transform="translate(27.783203 0)"/>
     <use xlink:href="#ArialMT-64" transform="translate(83.398438 0)"/>
     <use xlink:href="#ArialMT-69" transform="translate(139.013672 0)"/>
     <use xlink:href="#ArialMT-76" transform="translate(161.230469 0)"/>
     <use xlink:href="#ArialMT-69" transform="translate(211.230469 0)"/>
     <use xlink:href="#ArialMT-64" transform="translate(233.447266 0)"/>
     <use xlink:href="#ArialMT-75" transform="translate(289.0625 0)"/>
     <use xlink:href="#ArialMT-61" transform="translate(344.677734 0)"/>
     <use xlink:href="#ArialMT-6c" transform="translate(400.292969 0)"/>
     <use xlink:href="#ArialMT-20" transform="translate(422.509766 0)"/>
     <use xlink:href="#ArialMT-52" transform="translate(450.292969 0)"/>
     <use xlink:href="#ArialMT-65" transform="translate(522.509766 0)"/>
     <use xlink:href="#ArialMT-73" transform="translate(578.125 0)"/>
     <use xlink:href="#ArialMT-69" transform="translate(628.125 0)"/>
     <use xlink:href="#ArialMT-64" transform="translate(650.341797 0)"/>
     <use xlink:href="#ArialMT-75" transform="translate(705.957031 0)"/>
     <use xlink:href="#ArialMT-61" transform="translate(761.572266 0)"/>
     <use xlink:href="#ArialMT-6c" transform="translate(817.1875 0)"/>
     <use xlink:href="#ArialMT-20" transform="translate(839.404297 0)"/>
     <use xlink:href="#ArialMT-4c" transform="translate(867.1875 0)"/>
     <use xlink:href="#ArialMT-6f" transform="translate(922.802734 0)"/>
     <use xlink:href="#ArialMT-61" transform="translate(978.417969 0)"/>
     <use xlink:href="#ArialMT-64" transform="translate(1034.033203 0)"/>
     <use xlink:href="#ArialMT-20" transform="translate(1089.648438 0)"/>
     <use xlink:href="#ArialMT-44" transform="translate(1117.431641 0)"/>
     <use xlink:href="#ArialMT-75" transform="translate(1189.648438 0)"/>
     <use xlink:href="#ArialMT-72" transform="translate(1245.263672 0)"/>
     <use xlink:href="#ArialMT-61" transform="translate(1278.564453 0)"/>
     <use xlink:href="#ArialMT-74" transform="translate(1334.179688 0)"/>
     <use xlink:href="#ArialMT-69" transform="translate(1361.962891 0)"/>
     <use xlink:href="#ArialMT-6f" transform="translate(1384.179688 0)"/>
     <use xlink:href="#ArialMT-6e" transform="translate(1439.794922 0)"/>
     <use xlink:href="#ArialMT-20" transform="translate(1495.410156 0)"/>
     <use xlink:href="#ArialMT-43" transform="translate(1523.193359 0)"/>
     <use xlink:href="#ArialMT-75" transform="translate(1595.410156 0)"/>
     <use xlink:href="#ArialMT-72" transform="translate(1651.025391 0)"/>
     <use xlink:href="#ArialMT-76" transform="translate(1684.326172 0)"/>
     <use xlink:href="#ArialMT-65" transform="translate(1734.326172 0)"/>
     <use xlink:href="#ArialMT-73" transform="translate(1789.941406 0)"/>
     <use xlink:href="#ArialMT-20" transform="translate(1839.941406 0)"/>
     <use xlink:href="#ArialMT-28" transform="translate(1867.724609 0)"/>
     <use xlink:href="#ArialMT-33" transform="translate(1901.025391 0)"/>
     <use xlink:href="#ArialMT-29" transform="translate(1956.640625 0)"/>
    </g>
   </g>
   <g id="legend_1">
    <g id="line2d_36">
     <path d="M 909.891939 37.577563 
L 919.571939 37.577563 
L 929.251939 37.577563 
" style="fill: none; stroke: #1f77b4; stroke-width: 2.5; stroke-linecap: round"/>
    </g>
    <g id="text_18">
     <!-- Baseload -->
     <g style="fill: #262626" transform="translate(936.995939 40.965563) scale(0.0968 -0.0968)">
      <defs>
       <path id="ArialMT-42" d="M 469 0 
L 469 4581 
L 2188 4581 
Q 2713 4581 3030 4442 
Q 3347 4303 3526 4014 
Q 3706 3725 3706 3409 
Q 3706 3116 3547 2856 
Q 3388 2597 3066 2438 
Q 3481 2316 3704 2022 
Q 3928 1728 3928 1328 
Q 3928 1006 3792 729 
Q 3656 453 3456 303 
Q 3256 153 2954 76 
Q 2653 0 2216 0 
L 469 0 
z
M 1075 2656 
L 2066 2656 
Q 2469 2656 2644 2709 
Q 2875 2778 2992 2937 
Q 3109 3097 3109 3338 
Q 3109 3566 3000 3739 
Q 2891 3913 2687 3977 
Q 2484 4041 1991 4041 
L 1075 4041 
L 1075 2656 
z
M 1075 541 
L 2216 541 
Q 2509 541 2628 563 
Q 2838 600 2978 687 
Q 3119 775 3209 942 
Q 3300 1109 3300 1328 
Q 3300 1584 3169 1773 
Q 3038 1963 2805 2039 
Q 2572 2116 2134 2116 
L 1075 2116 
L 1075 541 
z
" transform="scale(0.015625)"/>
      </defs>
      <use xlink:href="#ArialMT-42"/>
      <use xlink:href="#ArialMT-61" transform="translate(66.699219 0)"/>
      <use xlink:href="#ArialMT-73" transform="translate(122.314453 0)"/>
      <use xlink:href="#ArialMT-65" transform="translate(172.314453 0)"/>
      <use xlink:href="#ArialMT-6c" transform="translate(227.929688 0)"/>
      <use xlink:href="#ArialMT-6f" transform="translate(250.146484 0)"/>
      <use xlink:href="#ArialMT-61" transform="translate(305.761719 0)"/>
      <use xlink:href="#ArialMT-64" transform="translate(361.376953 0)"/>
     </g>
    </g>
    <g id="line2d_37">
     <path d="M 909.891939 51.270225 
L 919.571939 51.270225 
L 929.251939 51.270225 
" style="fill: none; stroke: #ff7f0e; stroke-width: 2.5; stroke-linecap: round"/>
    </g>
    <g id="text_19">
     <!-- MidMerit -->
     <g style="fill: #262626" transform="translate(936.995939 54.658225) scale(0.0968 -0.0968)">
      <defs>
       <path id="ArialMT-4d" d="M 475 0 
L 475 4581 
L 1388 4581 
L 2472 1338 
Q 2622 884 2691 659 
Q 2769 909 2934 1394 
L 4031 4581 
L 4847 4581 
L 4847 0 
L 4263 0 
L 4263 3834 
L 2931 0 
L 2384 0 
L 1059 3900 
L 1059 0 
L 475 0 
z
" transform="scale(0.015625)"/>
      </defs>
      <use xlink:href="#ArialMT-4d"/>
      <use xlink:href="#ArialMT-69" transform="translate(83.300781 0)"/>
      <use xlink:href="#ArialMT-64" transform="translate(105.517578 0)"/>
      <use xlink:href="#ArialMT-4d" transform="translate(161.132812 0)"/>
      <use xlink:href="#ArialMT-65" transform="translate(244.433594 0)"/>
      <use xlink:href="#ArialMT-72" transform="translate(300.048828 0)"/>
      <use xlink:href="#ArialMT-69" transform="translate(333.349609 0)"/>
      <use xlink:href="#ArialMT-74" transform="translate(355.566406 0)"/>
     </g>
    </g>
    <g id="line2d_38">
     <path d="M 909.891939 64.962887 
L 919.571939 64.962887 
L 929.251939 64.962887 
" style="fill: none; stroke: #2ca02c; stroke-width: 2.5; stroke-linecap: round"/>
    </g>
    <g id="text_20">
     <!-- Peak -->
     <g style="fill: #262626" transform="translate(936.995939 68.350887) scale(0.0968 -0.0968)">
      <defs>
       <path id="ArialMT-50" d="M 494 0 
L 494 4581 
L 2222 4581 
Q 2678 4581 2919 4538 
Q 3256 4481 3484 4323 
Q 3713 4166 3852 3881 
Q 3991 3597 3991 3256 
Q 3991 2672 3619 2267 
Q 3247 1863 2275 1863 
L 1100 1863 
L 1100 0 
L 494 0 
z
M 1100 2403 
L 2284 2403 
Q 2872 2403 3119 2622 
Q 3366 2841 3366 3238 
Q 3366 3525 3220 3729 
Q 3075 3934 2838 4000 
Q 2684 4041 2272 4041 
L 1100 4041 
L 1100 2403 
z
" transform="scale(0.015625)"/>
       <path id="ArialMT-6b" d="M 425 0 
L 425 4581 
L 988 4581 
L 988 1969 
L 2319 3319 
L 3047 3319 
L 1778 2088 
L 3175 0 
L 2481 0 
L 1384 1697 
L 988 1316 
L 988 0 
L 425 0 
z
" transform="scale(0.015625)"/>
      </defs>
      <use xlink:href="#ArialMT-50"/>
      <use xlink:href="#ArialMT-65" transform="translate(66.699219 0)"/>
      <use xlink:href="#ArialMT-61" transform="translate(122.314453 0)"/>
      <use xlink:href="#ArialMT-6b" transform="translate(177.929688 0)"/>
     </g>
    </g>
    <g id="line2d_39">
     <path d="M 909.891939 78.65555 
L 919.571939 78.65555 
L 929.251939 78.65555 
" style="fill: none; stroke: #d62728; stroke-width: 2.5; stroke-linecap: round"/>
    </g>
    <g id="text_21">
     <!-- LV_MED -->
     <g style="fill: #262626" transform="translate(936.995939 82.04355) scale(0.0968 -0.0968)">
      <defs>
       <path id="ArialMT-56" d="M 1803 0 
L 28 4581 
L 684 4581 
L 1875 1253 
Q 2019 853 2116 503 
Q 2222 878 2363 1253 
L 3600 4581 
L 4219 4581 
L 2425 0 
L 1803 0 
z
" transform="scale(0.015625)"/>
       <path id="ArialMT-5f" d="M -97 -1272 
L -97 -866 
L 3631 -866 
L 3631 -1272 
L -97 -1272 
z
" transform="scale(0.015625)"/>
       <path id="ArialMT-45" d="M 506 0 
L 506 4581 
L 3819 4581 
L 3819 4041 
L 1113 4041 
L 1113 2638 
L 3647 2638 
L 3647 2100 
L 1113 2100 
L 1113 541 
L 3925 541 
L 3925 0 
L 506 0 
z
" transform="scale(0.015625)"/>
      </defs>
      <use xlink:href="#ArialMT-4c"/>
      <use xlink:href="#ArialMT-56" transform="translate(48.240234 0)"/>
      <use xlink:href="#ArialMT-5f" transform="translate(114.939453 0)"/>
      <use xlink:href="#ArialMT-4d" transform="translate(170.554688 0)"/>
      <use xlink:href="#ArialMT-45" transform="translate(253.855469 0)"/>
      <use xlink:href="#ArialMT-44" transform="translate(320.554688 0)"/>
     </g>
    </g>
    <g id="line2d_40">
     <path d="M 909.891939 92.472238 
L 919.571939 92.472238 
L 929.251939 92.472238 
" style="fill: none; stroke: #9467bd; stroke-width: 2.5; stroke-linecap: round"/>
    </g>
    <g id="text_22">
     <!-- MV_LOAD -->
     <g style="fill: #262626" transform="translate(936.995939 95.860238) scale(0.0968 -0.0968)">
      <defs>
       <path id="ArialMT-41" d="M -9 0 
L 1750 4581 
L 2403 4581 
L 4278 0 
L 3588 0 
L 3053 1388 
L 1138 1388 
L 634 0 
L -9 0 
z
M 1313 1881 
L 2866 1881 
L 2388 3150 
Q 2169 3728 2063 4100 
Q 1975 3659 1816 3225 
L 1313 1881 
z
" transform="scale(0.015625)"/>
      </defs>
      <use xlink:href="#ArialMT-4d"/>
      <use xlink:href="#ArialMT-56" transform="translate(83.300781 0)"/>
      <use xlink:href="#ArialMT-5f" transform="translate(150 0)"/>
      <use xlink:href="#ArialMT-4c" transform="translate(205.615234 0)"/>
      <use xlink:href="#ArialMT-4f" transform="translate(261.230469 0)"/>
      <use xlink:href="#ArialMT-41" transform="translate(339.013672 0)"/>
      <use xlink:href="#ArialMT-44" transform="translate(405.712891 0)"/>
     </g>
    </g>
    <g id="line2d_41">
     <path d="M 909.891939 106.282875 
L 919.571939 106.282875 
L 929.251939 106.282875 
" style="fill: none; stroke: #8c564b; stroke-width: 2.5; stroke-linecap: round"/>
    </g>
    <g id="text_23">
     <!-- LV_HIGH -->
     <g style="fill: #262626" transform="translate(936.995939 109.670875) scale(0.0968 -0.0968)">
      <use xlink:href="#ArialMT-4c"/>
      <use xlink:href="#ArialMT-56" transform="translate(48.240234 0)"/>
      <use xlink:href="#ArialMT-5f" transform="translate(114.939453 0)"/>
      <use xlink:href="#ArialMT-48" transform="translate(170.554688 0)"/>
      <use xlink:href="#ArialMT-49" transform="translate(242.771484 0)"/>
      <use xlink:href="#ArialMT-47" transform="translate(270.554688 0)"/>
      <use xlink:href="#ArialMT-48" transform="translate(348.337891 0)"/>
     </g>
    </g>
    <g id="line2d_42">
     <path d="M 909.891939 120.099563 
L 919.571939 120.099563 
L 929.251939 120.099563 
" style="fill: none; stroke: #e377c2; stroke-width: 2.5; stroke-linecap: round"/>
    </g>
    <g id="text_24">
     <!-- LV_LOW -->
     <g style="fill: #262626" transform="translate(936.995939 123.487563) scale(0.0968 -0.0968)">
      <use xlink:href="#ArialMT-4c"/>
      <use xlink:href="#ArialMT-56" transform="translate(48.240234 0)"/>
      <use xlink:href="#ArialMT-5f" transform="translate(114.939453 0)"/>
      <use xlink:href="#ArialMT-4c" transform="translate(170.554688 0)"/>
      <use xlink:href="#ArialMT-4f" transform="translate(226.169922 0)"/>
      <use xlink:href="#ArialMT-57" transform="translate(303.953125 0)"/>
     </g>
    </g>
   </g>
  </g>
 </g>
 <defs>
  <clipPath id="pbeb93f36cc">
   <rect x="44.7648" y="25.3248" width="947.205976" height="508.2504"/>
  </clipPath>
 </defs>
</svg>
