<?xml version="1.0" encoding="utf-8" standalone="no"?>
<!DOCTYPE svg PUBLIC "-//W3C//DTD SVG 1.1//EN"
  "http://www.w3.org/Graphics/SVG/1.1/DTD/svg11.dtd">
<svg xmlns:xlink="http://www.w3.org/1999/xlink" width="1008pt" height="576pt" viewBox="0 0 1008 576" xmlns="http://www.w3.org/2000/svg" version="1.1">
 <metadata>
  <rdf:RDF xmlns:dc="http://purl.org/dc/elements/1.1/" xmlns:cc="http://creativecommons.org/ns#" xmlns:rdf="http://www.w3.org/1999/02/22-rdf-syntax-ns#">
   <cc:Work>
    <dc:type rdf:resource="http://purl.org/dc/dcmitype/StillImage"/>
    <dc:date>2025-11-30T21:18:04.492382</dc:date>
    <dc:format>image/svg+xml</dc:format>
    <dc:creator>
     <cc:Agent>
      <dc:title>Matplotlib v3.10.3, https://matplotlib.org/</dc:title>
     </cc:Agent>
    </dc:creator>
   </cc:Work>
  </rdf:RDF>
 </metadata>
 <defs>
  <style type="text/css">*{stroke-linejoin: round; stroke-linecap: butt}</style>
 </defs>
 <g id="figure_1">
  <g id="patch_1">
   <path d="M 0 576 
L 1008 576 
L 1008 0 
L 0 0 
z
" style="fill: #ffffff"/>
  </g>
  <g id="axes_1">
   <g id="patch_2">
    <path d="M 44.7648 533.5752 
L 991.970776 533.5752 
L 991.970776 25.3248 
L 44.7648 25.3248 
z
" style="fill: #ffffff"/>
   </g>
   <g id="matplotlib.axis_1">
    <g id="xtick_1">
     <g id="line2d_1">
      <path d="M 87.819617 533.5752 
L 87.819617 25.3248 
" clip-path="url(#p5e89ce9cdd)" style="fill: none; stroke: #cccccc; stroke-width: 0.8; stroke-linecap: round"/>
     </g>
     <g id="line2d_2">
      <defs>
       <path id="m7a723c1726" d="M 0 0 
L 0 4.8 
" style="stroke: #262626"/>
      </defs>
      <g>
       <use xlink:href="#m7a723c1726" x="87.819617" y="533.5752" style="fill: #262626; stroke: #262626"/>
      </g>
     </g>
     <g id="text_1">
      <!-- 0 -->
      <g style="fill: #262626" transform="translate(85.128123 548.803963) scale(0.0968 -0.0968)">
       <defs>
        <path id="ArialMT-30" d="M 266 2259 
Q 266 3072 433 3567 
Q 600 4063 929 4331 
Q 1259 4600 1759 4600 
Q 2128 4600 2406 4451 
Q 2684 4303 2865 4023 
Q 3047 3744 3150 3342 
Q 3253 2941 3253 2259 
Q 3253 1453 3087 958 
Q 2922 463 2592 192 
Q 2263 -78 1759 -78 
Q 1097 -78 719 397 
Q 266 969 266 2259 
z
M 844 2259 
Q 844 1131 1108 757 
Q 1372 384 1759 384 
Q 2147 384 2411 759 
Q 2675 1134 2675 2259 
Q 2675 3391 2411 3762 
Q 2147 4134 1753 4134 
Q 1366 4134 1134 3806 
Q 844 3388 844 2259 
z
" transform="scale(0.015625)"/>
       </defs>
       <use xlink:href="#ArialMT-30"/>
      </g>
     </g>
    </g>
    <g id="xtick_2">
     <g id="line2d_3">
      <path d="M 237.836401 533.5752 
L 237.836401 25.3248 
" clip-path="url(#p5e89ce9cdd)" style="fill: none; stroke: #cccccc; stroke-width: 0.8; stroke-linecap: round"/>
     </g>
     <g id="line2d_4">
      <g>
       <use xlink:href="#m7a723c1726" x="237.836401" y="533.5752" style="fill: #262626; stroke: #262626"/>
      </g>
     </g>
     <g id="text_2">
      <!-- 50 -->
      <g style="fill: #262626" transform="translate(232.453414 548.803963) scale(0.0968 -0.0968)">
       <defs>
        <path id="ArialMT-35" d="M 266 1200 
L 856 1250 
Q 922 819 1161 601 
Q 1400 384 1738 384 
Q 2144 384 2425 690 
Q 2706 997 2706 1503 
Q 2706 1984 2436 2262 
Q 2166 2541 1728 2541 
Q 1456 2541 1237 2417 
Q 1019 2294 894 2097 
L 366 2166 
L 809 4519 
L 3088 4519 
L 3088 3981 
L 1259 3981 
L 1013 2750 
Q 1425 3038 1878 3038 
Q 2478 3038 2890 2622 
Q 3303 2206 3303 1553 
Q 3303 931 2941 478 
Q 2500 -78 1738 -78 
Q 1113 -78 717 272 
Q 322 622 266 1200 
z
" transform="scale(0.015625)"/>
       </defs>
       <use xlink:href="#ArialMT-35"/>
       <use xlink:href="#ArialMT-30" transform="translate(55.615234 0)"/>
      </g>
     </g>
    </g>
    <g id="xtick_3">
     <g id="line2d_5">
      <path d="M 387.853186 533.5752 
L 387.853186 25.3248 
" clip-path="url(#p5e89ce9cdd)" style="fill: none; stroke: #cccccc; stroke-width: 0.8; stroke-linecap: round"/>
     </g>
     <g id="line2d_6">
      <g>
       <use xlink:href="#m7a723c1726" x="387.853186" y="533.5752" style="fill: #262626; stroke: #262626"/>
      </g>
     </g>
     <g id="text_3">
      <!-- 100 -->
      <g style="fill: #262626" transform="translate(379.778705 548.803963) scale(0.0968 -0.0968)">
       <defs>
        <path id="ArialMT-31" d="M 2384 0 
L 1822 0 
L 1822 3584 
Q 1619 3391 1289 3197 
Q 959 3003 697 2906 
L 697 3450 
Q 1169 3672 1522 3987 
Q 1875 4303 2022 4600 
L 2384 4600 
L 2384 0 
z
" transform="scale(0.015625)"/>
       </defs>
       <use xlink:href="#ArialMT-31"/>
       <use xlink:href="#ArialMT-30" transform="translate(55.615234 0)"/>
       <use xlink:href="#ArialMT-30" transform="translate(111.230469 0)"/>
      </g>
     </g>
    </g>
    <g id="xtick_4">
     <g id="line2d_7">
      <path d="M 537.86997 533.5752 
L 537.86997 25.3248 
" clip-path="url(#p5e89ce9cdd)" style="fill: none; stroke: #cccccc; stroke-width: 0.8; stroke-linecap: round"/>
     </g>
     <g id="line2d_8">
      <g>
       <use xlink:href="#m7a723c1726" x="537.86997" y="533.5752" style="fill: #262626; stroke: #262626"/>
      </g>
     </g>
     <g id="text_4">
      <!-- 150 -->
      <g style="fill: #262626" transform="translate(529.795489 548.803963) scale(0.0968 -0.0968)">
       <use xlink:href="#ArialMT-31"/>
       <use xlink:href="#ArialMT-35" transform="translate(55.615234 0)"/>
       <use xlink:href="#ArialMT-30" transform="translate(111.230469 0)"/>
      </g>
     </g>
    </g>
    <g id="xtick_5">
     <g id="line2d_9">
      <path d="M 687.886755 533.5752 
L 687.886755 25.3248 
" clip-path="url(#p5e89ce9cdd)" style="fill: none; stroke: #cccccc; stroke-width: 0.8; stroke-linecap: round"/>
     </g>
     <g id="line2d_10">
      <g>
       <use xlink:href="#m7a723c1726" x="687.886755" y="533.5752" style="fill: #262626; stroke: #262626"/>
      </g>
     </g>
     <g id="text_5">
      <!-- 200 -->
      <g style="fill: #262626" transform="translate(679.812273 548.803963) scale(0.0968 -0.0968)">
       <defs>
        <path id="ArialMT-32" d="M 3222 541 
L 3222 0 
L 194 0 
Q 188 203 259 391 
Q 375 700 629 1000 
Q 884 1300 1366 1694 
Q 2113 2306 2375 2664 
Q 2638 3022 2638 3341 
Q 2638 3675 2398 3904 
Q 2159 4134 1775 4134 
Q 1369 4134 1125 3890 
Q 881 3647 878 3216 
L 300 3275 
Q 359 3922 746 4261 
Q 1134 4600 1788 4600 
Q 2447 4600 2831 4234 
Q 3216 3869 3216 3328 
Q 3216 3053 3103 2787 
Q 2991 2522 2730 2228 
Q 2469 1934 1863 1422 
Q 1356 997 1212 845 
Q 1069 694 975 541 
L 3222 541 
z
" transform="scale(0.015625)"/>
       </defs>
       <use xlink:href="#ArialMT-32"/>
       <use xlink:href="#ArialMT-30" transform="translate(55.615234 0)"/>
       <use xlink:href="#ArialMT-30" transform="translate(111.230469 0)"/>
      </g>
     </g>
    </g>
    <g id="xtick_6">
     <g id="line2d_11">
      <path d="M 837.903539 533.5752 
L 837.903539 25.3248 
" clip-path="url(#p5e89ce9cdd)" style="fill: none; stroke: #cccccc; stroke-width: 0.8; stroke-linecap: round"/>
     </g>
     <g id="line2d_12">
      <g>
       <use xlink:href="#m7a723c1726" x="837.903539" y="533.5752" style="fill: #262626; stroke: #262626"/>
      </g>
     </g>
     <g id="text_6">
      <!-- 250 -->
      <g style="fill: #262626" transform="translate(829.829058 548.803963) scale(0.0968 -0.0968)">
       <use xlink:href="#ArialMT-32"/>
       <use xlink:href="#ArialMT-35" transform="translate(55.615234 0)"/>
       <use xlink:href="#ArialMT-30" transform="translate(111.230469 0)"/>
      </g>
     </g>
    </g>
    <g id="xtick_7">
     <g id="line2d_13">
      <path d="M 987.920323 533.5752 
L 987.920323 25.3248 
" clip-path="url(#p5e89ce9cdd)" style="fill: none; stroke: #cccccc; stroke-width: 0.8; stroke-linecap: round"/>
     </g>
     <g id="line2d_14">
      <g>
       <use xlink:href="#m7a723c1726" x="987.920323" y="533.5752" style="fill: #262626; stroke: #262626"/>
      </g>
     </g>
     <g id="text_7">
      <!-- 300 -->
      <g style="fill: #262626" transform="translate(979.845842 548.803963) scale(0.0968 -0.0968)">
       <defs>
        <path id="ArialMT-33" d="M 269 1209 
L 831 1284 
Q 928 806 1161 595 
Q 1394 384 1728 384 
Q 2125 384 2398 659 
Q 2672 934 2672 1341 
Q 2672 1728 2419 1979 
Q 2166 2231 1775 2231 
Q 1616 2231 1378 2169 
L 1441 2663 
Q 1497 2656 1531 2656 
Q 1891 2656 2178 2843 
Q 2466 3031 2466 3422 
Q 2466 3731 2256 3934 
Q 2047 4138 1716 4138 
Q 1388 4138 1169 3931 
Q 950 3725 888 3313 
L 325 3413 
Q 428 3978 793 4289 
Q 1159 4600 1703 4600 
Q 2078 4600 2393 4439 
Q 2709 4278 2876 4000 
Q 3044 3722 3044 3409 
Q 3044 3113 2884 2869 
Q 2725 2625 2413 2481 
Q 2819 2388 3044 2092 
Q 3269 1797 3269 1353 
Q 3269 753 2831 336 
Q 2394 -81 1725 -81 
Q 1122 -81 723 278 
Q 325 638 269 1209 
z
" transform="scale(0.015625)"/>
       </defs>
       <use xlink:href="#ArialMT-33"/>
       <use xlink:href="#ArialMT-30" transform="translate(55.615234 0)"/>
       <use xlink:href="#ArialMT-30" transform="translate(111.230469 0)"/>
      </g>
     </g>
    </g>
    <g id="text_8">
     <!-- Hour (sorted) -->
     <g style="fill: #262626" transform="translate(487.267763 562.415213) scale(0.1056 -0.1056)">
      <defs>
       <path id="ArialMT-48" d="M 513 0 
L 513 4581 
L 1119 4581 
L 1119 2700 
L 3500 2700 
L 3500 4581 
L 4106 4581 
L 4106 0 
L 3500 0 
L 3500 2159 
L 1119 2159 
L 1119 0 
L 513 0 
z
" transform="scale(0.015625)"/>
       <path id="ArialMT-6f" d="M 213 1659 
Q 213 2581 725 3025 
Q 1153 3394 1769 3394 
Q 2453 3394 2887 2945 
Q 3322 2497 3322 1706 
Q 3322 1066 3130 698 
Q 2938 331 2570 128 
Q 2203 -75 1769 -75 
Q 1072 -75 642 372 
Q 213 819 213 1659 
z
M 791 1659 
Q 791 1022 1069 705 
Q 1347 388 1769 388 
Q 2188 388 2466 706 
Q 2744 1025 2744 1678 
Q 2744 2294 2464 2611 
Q 2184 2928 1769 2928 
Q 1347 2928 1069 2612 
Q 791 2297 791 1659 
z
" transform="scale(0.015625)"/>
       <path id="ArialMT-75" d="M 2597 0 
L 2597 488 
Q 2209 -75 1544 -75 
Q 1250 -75 995 37 
Q 741 150 617 320 
Q 494 491 444 738 
Q 409 903 409 1263 
L 409 3319 
L 972 3319 
L 972 1478 
Q 972 1038 1006 884 
Q 1059 663 1231 536 
Q 1403 409 1656 409 
Q 1909 409 2131 539 
Q 2353 669 2445 892 
Q 2538 1116 2538 1541 
L 2538 3319 
L 3100 3319 
L 3100 0 
L 2597 0 
z
" transform="scale(0.015625)"/>
       <path id="ArialMT-72" d="M 416 0 
L 416 3319 
L 922 3319 
L 922 2816 
Q 1116 3169 1280 3281 
Q 1444 3394 1641 3394 
Q 1925 3394 2219 3213 
L 2025 2691 
Q 1819 2813 1613 2813 
Q 1428 2813 1281 2702 
Q 1134 2591 1072 2394 
Q 978 2094 978 1738 
L 978 0 
L 416 0 
z
" transform="scale(0.015625)"/>
       <path id="ArialMT-20" transform="scale(0.015625)"/>
       <path id="ArialMT-28" d="M 1497 -1347 
Q 1031 -759 709 28 
Q 388 816 388 1659 
Q 388 2403 628 3084 
Q 909 3875 1497 4659 
L 1900 4659 
Q 1522 4009 1400 3731 
Q 1209 3300 1100 2831 
Q 966 2247 966 1656 
Q 966 153 1900 -1347 
L 1497 -1347 
z
" transform="scale(0.015625)"/>
       <path id="ArialMT-73" d="M 197 991 
L 753 1078 
Q 800 744 1014 566 
Q 1228 388 1613 388 
Q 2000 388 2187 545 
Q 2375 703 2375 916 
Q 2375 1106 2209 1216 
Q 2094 1291 1634 1406 
Q 1016 1563 777 1677 
Q 538 1791 414 1992 
Q 291 2194 291 2438 
Q 291 2659 392 2848 
Q 494 3038 669 3163 
Q 800 3259 1026 3326 
Q 1253 3394 1513 3394 
Q 1903 3394 2198 3281 
Q 2494 3169 2634 2976 
Q 2775 2784 2828 2463 
L 2278 2388 
Q 2241 2644 2061 2787 
Q 1881 2931 1553 2931 
Q 1166 2931 1000 2803 
Q 834 2675 834 2503 
Q 834 2394 903 2306 
Q 972 2216 1119 2156 
Q 1203 2125 1616 2013 
Q 2213 1853 2448 1751 
Q 2684 1650 2818 1456 
Q 2953 1263 2953 975 
Q 2953 694 2789 445 
Q 2625 197 2315 61 
Q 2006 -75 1616 -75 
Q 969 -75 630 194 
Q 291 463 197 991 
z
" transform="scale(0.015625)"/>
       <path id="ArialMT-74" d="M 1650 503 
L 1731 6 
Q 1494 -44 1306 -44 
Q 1000 -44 831 53 
Q 663 150 594 308 
Q 525 466 525 972 
L 525 2881 
L 113 2881 
L 113 3319 
L 525 3319 
L 525 4141 
L 1084 4478 
L 1084 3319 
L 1650 3319 
L 1650 2881 
L 1084 2881 
L 1084 941 
Q 1084 700 1114 631 
Q 1144 563 1211 522 
Q 1278 481 1403 481 
Q 1497 481 1650 503 
z
" transform="scale(0.015625)"/>
       <path id="ArialMT-65" d="M 2694 1069 
L 3275 997 
Q 3138 488 2766 206 
Q 2394 -75 1816 -75 
Q 1088 -75 661 373 
Q 234 822 234 1631 
Q 234 2469 665 2931 
Q 1097 3394 1784 3394 
Q 2450 3394 2872 2941 
Q 3294 2488 3294 1666 
Q 3294 1616 3291 1516 
L 816 1516 
Q 847 969 1125 678 
Q 1403 388 1819 388 
Q 2128 388 2347 550 
Q 2566 713 2694 1069 
z
M 847 1978 
L 2700 1978 
Q 2663 2397 2488 2606 
Q 2219 2931 1791 2931 
Q 1403 2931 1139 2672 
Q 875 2413 847 1978 
z
" transform="scale(0.015625)"/>
       <path id="ArialMT-64" d="M 2575 0 
L 2575 419 
Q 2259 -75 1647 -75 
Q 1250 -75 917 144 
Q 584 363 401 755 
Q 219 1147 219 1656 
Q 219 2153 384 2558 
Q 550 2963 881 3178 
Q 1213 3394 1622 3394 
Q 1922 3394 2156 3267 
Q 2391 3141 2538 2938 
L 2538 4581 
L 3097 4581 
L 3097 0 
L 2575 0 
z
M 797 1656 
Q 797 1019 1065 703 
Q 1334 388 1700 388 
Q 2069 388 2326 689 
Q 2584 991 2584 1609 
Q 2584 2291 2321 2609 
Q 2059 2928 1675 2928 
Q 1300 2928 1048 2622 
Q 797 2316 797 1656 
z
" transform="scale(0.015625)"/>
       <path id="ArialMT-29" d="M 791 -1347 
L 388 -1347 
Q 1322 153 1322 1656 
Q 1322 2244 1188 2822 
Q 1081 3291 891 3722 
Q 769 4003 388 4659 
L 791 4659 
Q 1378 3875 1659 3084 
Q 1900 2403 1900 1659 
Q 1900 816 1576 28 
Q 1253 -759 791 -1347 
z
" transform="scale(0.015625)"/>
      </defs>
      <use xlink:href="#ArialMT-48"/>
      <use xlink:href="#ArialMT-6f" transform="translate(72.216797 0)"/>
      <use xlink:href="#ArialMT-75" transform="translate(127.832031 0)"/>
      <use xlink:href="#ArialMT-72" transform="translate(183.447266 0)"/>
      <use xlink:href="#ArialMT-20" transform="translate(216.748047 0)"/>
      <use xlink:href="#ArialMT-28" transform="translate(244.53125 0)"/>
      <use xlink:href="#ArialMT-73" transform="translate(277.832031 0)"/>
      <use xlink:href="#ArialMT-6f" transform="translate(327.832031 0)"/>
      <use xlink:href="#ArialMT-72" transform="translate(383.447266 0)"/>
      <use xlink:href="#ArialMT-74" transform="translate(416.748047 0)"/>
      <use xlink:href="#ArialMT-65" transform="translate(444.53125 0)"/>
      <use xlink:href="#ArialMT-64" transform="translate(500.146484 0)"/>
      <use xlink:href="#ArialMT-29" transform="translate(555.761719 0)"/>
     </g>
    </g>
   </g>
   <g id="matplotlib.axis_2">
    <g id="ytick_1">
     <g id="line2d_15">
      <path d="M 44.7648 528.134179 
L 991.970776 528.134179 
" clip-path="url(#p5e89ce9cdd)" style="fill: none; stroke: #cccccc; stroke-width: 0.8; stroke-linecap: round"/>
     </g>
     <g id="line2d_16">
      <defs>
       <path id="mb4b5afc134" d="M 0 0 
L -4.8 0 
" style="stroke: #262626"/>
      </defs>
      <g>
       <use xlink:href="#mb4b5afc134" x="44.7648" y="528.134179" style="fill: #262626; stroke: #262626"/>
      </g>
     </g>
     <g id="text_9">
      <!-- −6 -->
      <g style="fill: #262626" transform="translate(25.428087 531.59856) scale(0.0968 -0.0968)">
       <defs>
        <path id="ArialMT-2212" d="M 3381 1997 
L 356 1997 
L 356 2522 
L 3381 2522 
L 3381 1997 
z
" transform="scale(0.015625)"/>
        <path id="ArialMT-36" d="M 3184 3459 
L 2625 3416 
Q 2550 3747 2413 3897 
Q 2184 4138 1850 4138 
Q 1581 4138 1378 3988 
Q 1113 3794 959 3422 
Q 806 3050 800 2363 
Q 1003 2672 1297 2822 
Q 1591 2972 1913 2972 
Q 2475 2972 2870 2558 
Q 3266 2144 3266 1488 
Q 3266 1056 3080 686 
Q 2894 316 2569 119 
Q 2244 -78 1831 -78 
Q 1128 -78 684 439 
Q 241 956 241 2144 
Q 241 3472 731 4075 
Q 1159 4600 1884 4600 
Q 2425 4600 2770 4297 
Q 3116 3994 3184 3459 
z
M 888 1484 
Q 888 1194 1011 928 
Q 1134 663 1356 523 
Q 1578 384 1822 384 
Q 2178 384 2434 671 
Q 2691 959 2691 1453 
Q 2691 1928 2437 2201 
Q 2184 2475 1800 2475 
Q 1419 2475 1153 2201 
Q 888 1928 888 1484 
z
" transform="scale(0.015625)"/>
       </defs>
       <use xlink:href="#ArialMT-2212"/>
       <use xlink:href="#ArialMT-36" transform="translate(58.398438 0)"/>
      </g>
     </g>
    </g>
    <g id="ytick_2">
     <g id="line2d_17">
      <path d="M 44.7648 448.602197 
L 991.970776 448.602197 
" clip-path="url(#p5e89ce9cdd)" style="fill: none; stroke: #cccccc; stroke-width: 0.8; stroke-linecap: round"/>
     </g>
     <g id="line2d_18">
      <g>
       <use xlink:href="#mb4b5afc134" x="44.7648" y="448.602197" style="fill: #262626; stroke: #262626"/>
      </g>
     </g>
     <g id="text_10">
      <!-- −4 -->
      <g style="fill: #262626" transform="translate(25.428087 452.066578) scale(0.0968 -0.0968)">
       <defs>
        <path id="ArialMT-34" d="M 2069 0 
L 2069 1097 
L 81 1097 
L 81 1613 
L 2172 4581 
L 2631 4581 
L 2631 1613 
L 3250 1613 
L 3250 1097 
L 2631 1097 
L 2631 0 
L 2069 0 
z
M 2069 1613 
L 2069 3678 
L 634 1613 
L 2069 1613 
z
" transform="scale(0.015625)"/>
       </defs>
       <use xlink:href="#ArialMT-2212"/>
       <use xlink:href="#ArialMT-34" transform="translate(58.398438 0)"/>
      </g>
     </g>
    </g>
    <g id="ytick_3">
     <g id="line2d_19">
      <path d="M 44.7648 369.070216 
L 991.970776 369.070216 
" clip-path="url(#p5e89ce9cdd)" style="fill: none; stroke: #cccccc; stroke-width: 0.8; stroke-linecap: round"/>
     </g>
     <g id="line2d_20">
      <g>
       <use xlink:href="#mb4b5afc134" x="44.7648" y="369.070216" style="fill: #262626; stroke: #262626"/>
      </g>
     </g>
     <g id="text_11">
      <!-- −2 -->
      <g style="fill: #262626" transform="translate(25.428087 372.534597) scale(0.0968 -0.0968)">
       <use xlink:href="#ArialMT-2212"/>
       <use xlink:href="#ArialMT-32" transform="translate(58.398438 0)"/>
      </g>
     </g>
    </g>
    <g id="ytick_4">
     <g id="line2d_21">
      <path d="M 44.7648 289.538234 
L 991.970776 289.538234 
" clip-path="url(#p5e89ce9cdd)" style="fill: none; stroke: #cccccc; stroke-width: 0.8; stroke-linecap: round"/>
     </g>
     <g id="line2d_22">
      <g>
       <use xlink:href="#mb4b5afc134" x="44.7648" y="289.538234" style="fill: #262626; stroke: #262626"/>
      </g>
     </g>
     <g id="text_12">
      <!-- 0 -->
      <g style="fill: #262626" transform="translate(31.081812 293.002615) scale(0.0968 -0.0968)">
       <use xlink:href="#ArialMT-30"/>
      </g>
     </g>
    </g>
    <g id="ytick_5">
     <g id="line2d_23">
      <path d="M 44.7648 210.006253 
L 991.970776 210.006253 
" clip-path="url(#p5e89ce9cdd)" style="fill: none; stroke: #cccccc; stroke-width: 0.8; stroke-linecap: round"/>
     </g>
     <g id="line2d_24">
      <g>
       <use xlink:href="#mb4b5afc134" x="44.7648" y="210.006253" style="fill: #262626; stroke: #262626"/>
      </g>
     </g>
     <g id="text_13">
      <!-- 2 -->
      <g style="fill: #262626" transform="translate(31.081812 213.470634) scale(0.0968 -0.0968)">
       <use xlink:href="#ArialMT-32"/>
      </g>
     </g>
    </g>
    <g id="ytick_6">
     <g id="line2d_25">
      <path d="M 44.7648 130.474271 
L 991.970776 130.474271 
" clip-path="url(#p5e89ce9cdd)" style="fill: none; stroke: #cccccc; stroke-width: 0.8; stroke-linecap: round"/>
     </g>
     <g id="line2d_26">
      <g>
       <use xlink:href="#mb4b5afc134" x="44.7648" y="130.474271" style="fill: #262626; stroke: #262626"/>
      </g>
     </g>
     <g id="text_14">
      <!-- 4 -->
      <g style="fill: #262626" transform="translate(31.081812 133.938653) scale(0.0968 -0.0968)">
       <use xlink:href="#ArialMT-34"/>
      </g>
     </g>
    </g>
    <g id="ytick_7">
     <g id="line2d_27">
      <path d="M 44.7648 50.94229 
L 991.970776 50.94229 
" clip-path="url(#p5e89ce9cdd)" style="fill: none; stroke: #cccccc; stroke-width: 0.8; stroke-linecap: round"/>
     </g>
     <g id="line2d_28">
      <g>
       <use xlink:href="#mb4b5afc134" x="44.7648" y="50.94229" style="fill: #262626; stroke: #262626"/>
      </g>
     </g>
     <g id="text_15">
      <!-- 6 -->
      <g style="fill: #262626" transform="translate(31.081812 54.406671) scale(0.0968 -0.0968)">
       <use xlink:href="#ArialMT-36"/>
      </g>
     </g>
    </g>
    <g id="text_16">
     <!-- Generator Output (GW) -->
     <g style="fill: #262626" transform="translate(19.205537 334.610325) rotate(-90) scale(0.1056 -0.1056)">
      <defs>
       <path id="ArialMT-47" d="M 2638 1797 
L 2638 2334 
L 4578 2338 
L 4578 638 
Q 4131 281 3656 101 
Q 3181 -78 2681 -78 
Q 2006 -78 1454 211 
Q 903 500 622 1047 
Q 341 1594 341 2269 
Q 341 2938 620 3517 
Q 900 4097 1425 4378 
Q 1950 4659 2634 4659 
Q 3131 4659 3532 4498 
Q 3934 4338 4162 4050 
Q 4391 3763 4509 3300 
L 3963 3150 
Q 3859 3500 3706 3700 
Q 3553 3900 3268 4020 
Q 2984 4141 2638 4141 
Q 2222 4141 1919 4014 
Q 1616 3888 1430 3681 
Q 1244 3475 1141 3228 
Q 966 2803 966 2306 
Q 966 1694 1177 1281 
Q 1388 869 1791 669 
Q 2194 469 2647 469 
Q 3041 469 3416 620 
Q 3791 772 3984 944 
L 3984 1797 
L 2638 1797 
z
" transform="scale(0.015625)"/>
       <path id="ArialMT-6e" d="M 422 0 
L 422 3319 
L 928 3319 
L 928 2847 
Q 1294 3394 1984 3394 
Q 2284 3394 2536 3286 
Q 2788 3178 2913 3003 
Q 3038 2828 3088 2588 
Q 3119 2431 3119 2041 
L 3119 0 
L 2556 0 
L 2556 2019 
Q 2556 2363 2490 2533 
Q 2425 2703 2258 2804 
Q 2091 2906 1866 2906 
Q 1506 2906 1245 2678 
Q 984 2450 984 1813 
L 984 0 
L 422 0 
z
" transform="scale(0.015625)"/>
       <path id="ArialMT-61" d="M 2588 409 
Q 2275 144 1986 34 
Q 1697 -75 1366 -75 
Q 819 -75 525 192 
Q 231 459 231 875 
Q 231 1119 342 1320 
Q 453 1522 633 1644 
Q 813 1766 1038 1828 
Q 1203 1872 1538 1913 
Q 2219 1994 2541 2106 
Q 2544 2222 2544 2253 
Q 2544 2597 2384 2738 
Q 2169 2928 1744 2928 
Q 1347 2928 1158 2789 
Q 969 2650 878 2297 
L 328 2372 
Q 403 2725 575 2942 
Q 747 3159 1072 3276 
Q 1397 3394 1825 3394 
Q 2250 3394 2515 3294 
Q 2781 3194 2906 3042 
Q 3031 2891 3081 2659 
Q 3109 2516 3109 2141 
L 3109 1391 
Q 3109 606 3145 398 
Q 3181 191 3288 0 
L 2700 0 
Q 2613 175 2588 409 
z
M 2541 1666 
Q 2234 1541 1622 1453 
Q 1275 1403 1131 1340 
Q 988 1278 909 1158 
Q 831 1038 831 891 
Q 831 666 1001 516 
Q 1172 366 1500 366 
Q 1825 366 2078 508 
Q 2331 650 2450 897 
Q 2541 1088 2541 1459 
L 2541 1666 
z
" transform="scale(0.015625)"/>
       <path id="ArialMT-4f" d="M 309 2231 
Q 309 3372 921 4017 
Q 1534 4663 2503 4663 
Q 3138 4663 3647 4359 
Q 4156 4056 4423 3514 
Q 4691 2972 4691 2284 
Q 4691 1588 4409 1038 
Q 4128 488 3612 205 
Q 3097 -78 2500 -78 
Q 1853 -78 1343 234 
Q 834 547 571 1087 
Q 309 1628 309 2231 
z
M 934 2222 
Q 934 1394 1379 917 
Q 1825 441 2497 441 
Q 3181 441 3623 922 
Q 4066 1403 4066 2288 
Q 4066 2847 3877 3264 
Q 3688 3681 3323 3911 
Q 2959 4141 2506 4141 
Q 1863 4141 1398 3698 
Q 934 3256 934 2222 
z
" transform="scale(0.015625)"/>
       <path id="ArialMT-70" d="M 422 -1272 
L 422 3319 
L 934 3319 
L 934 2888 
Q 1116 3141 1344 3267 
Q 1572 3394 1897 3394 
Q 2322 3394 2647 3175 
Q 2972 2956 3137 2557 
Q 3303 2159 3303 1684 
Q 3303 1175 3120 767 
Q 2938 359 2589 142 
Q 2241 -75 1856 -75 
Q 1575 -75 1351 44 
Q 1128 163 984 344 
L 984 -1272 
L 422 -1272 
z
M 931 1641 
Q 931 1000 1190 694 
Q 1450 388 1819 388 
Q 2194 388 2461 705 
Q 2728 1022 2728 1688 
Q 2728 2322 2467 2637 
Q 2206 2953 1844 2953 
Q 1484 2953 1207 2617 
Q 931 2281 931 1641 
z
" transform="scale(0.015625)"/>
       <path id="ArialMT-57" d="M 1294 0 
L 78 4581 
L 700 4581 
L 1397 1578 
Q 1509 1106 1591 641 
Q 1766 1375 1797 1488 
L 2669 4581 
L 3400 4581 
L 4056 2263 
Q 4303 1400 4413 641 
Q 4500 1075 4641 1638 
L 5359 4581 
L 5969 4581 
L 4713 0 
L 4128 0 
L 3163 3491 
Q 3041 3928 3019 4028 
Q 2947 3713 2884 3491 
L 1913 0 
L 1294 0 
z
" transform="scale(0.015625)"/>
      </defs>
      <use xlink:href="#ArialMT-47"/>
      <use xlink:href="#ArialMT-65" transform="translate(77.783203 0)"/>
      <use xlink:href="#ArialMT-6e" transform="translate(133.398438 0)"/>
      <use xlink:href="#ArialMT-65" transform="translate(189.013672 0)"/>
      <use xlink:href="#ArialMT-72" transform="translate(244.628906 0)"/>
      <use xlink:href="#ArialMT-61" transform="translate(277.929688 0)"/>
      <use xlink:href="#ArialMT-74" transform="translate(333.544922 0)"/>
      <use xlink:href="#ArialMT-6f" transform="translate(361.328125 0)"/>
      <use xlink:href="#ArialMT-72" transform="translate(416.943359 0)"/>
      <use xlink:href="#ArialMT-20" transform="translate(450.244141 0)"/>
      <use xlink:href="#ArialMT-4f" transform="translate(478.027344 0)"/>
      <use xlink:href="#ArialMT-75" transform="translate(555.810547 0)"/>
      <use xlink:href="#ArialMT-74" transform="translate(611.425781 0)"/>
      <use xlink:href="#ArialMT-70" transform="translate(639.208984 0)"/>
      <use xlink:href="#ArialMT-75" transform="translate(694.824219 0)"/>
      <use xlink:href="#ArialMT-74" transform="translate(750.439453 0)"/>
      <use xlink:href="#ArialMT-20" transform="translate(778.222656 0)"/>
      <use xlink:href="#ArialMT-28" transform="translate(806.005859 0)"/>
      <use xlink:href="#ArialMT-47" transform="translate(839.306641 0)"/>
      <use xlink:href="#ArialMT-57" transform="translate(917.089844 0)"/>
      <use xlink:href="#ArialMT-29" transform="translate(1011.474609 0)"/>
     </g>
    </g>
   </g>
   <g id="line2d_29">
    <path d="M 87.819617 48.427091 
L 720.890447 48.483161 
L 723.890783 53.367618 
L 726.891119 55.833507 
L 729.891454 56.616897 
L 732.89179 57.084147 
L 735.892126 58.967067 
L 738.892461 59.570317 
L 741.892797 59.990246 
L 744.893133 61.124769 
L 747.893468 62.431878 
L 750.893804 62.809654 
L 756.894475 67.48693 
L 759.894811 68.92964 
L 762.895147 70.027182 
L 765.895482 72.685538 
L 768.895818 74.356505 
L 771.896154 76.323331 
L 774.89649 86.447752 
L 777.896825 87.405715 
L 780.897161 87.653457 
L 783.897497 89.089407 
L 786.897832 89.429804 
L 789.898168 89.459231 
L 792.898504 91.065777 
L 798.899175 91.494057 
L 801.899511 92.606311 
L 804.899846 92.60989 
L 807.900182 93.233819 
L 810.900518 94.638751 
L 813.900853 94.809745 
L 816.901189 95.394305 
L 819.901525 102.084535 
L 822.901861 103.965069 
L 825.902196 104.691594 
L 828.902532 106.26911 
L 831.902868 110.034552 
L 834.903203 111.116585 
L 837.903539 113.157375 
L 840.903875 118.374276 
L 843.90421 118.989058 
L 846.904546 121.612023 
L 849.904882 122.347296 
L 852.905217 123.914871 
L 855.905553 124.091034 
L 858.905889 125.78944 
L 861.906224 128.420358 
L 864.90656 128.771492 
L 867.906896 129.630039 
L 870.907232 133.224487 
L 873.907567 133.445586 
L 876.907903 133.803082 
L 879.908239 136.125814 
L 882.908574 137.284595 
L 885.90891 142.543249 
L 888.909246 142.76912 
L 891.909581 145.237793 
L 894.909917 146.204504 
L 897.910253 147.317554 
L 900.910588 147.966535 
L 903.910924 147.9725 
L 906.91126 149.123726 
L 915.912267 151.615065 
L 921.912938 153.656651 
L 924.913274 155.087829 
L 927.91361 155.838611 
L 930.913945 159.507023 
L 933.914281 168.867142 
L 936.914617 177.080012 
L 939.914952 181.479722 
L 942.915288 182.478246 
L 945.915624 191.951698 
L 948.915959 192.95897 
L 948.915959 192.95897 
" clip-path="url(#p5e89ce9cdd)" style="fill: none; stroke: #1f77b4; stroke-width: 2.5; stroke-linecap: round"/>
   </g>
   <g id="line2d_30">
    <path d="M 87.819617 116.998372 
L 198.832038 116.999963 
L 201.832373 117.55788 
L 207.833045 118.200101 
L 210.83338 119.565267 
L 213.833716 123.489375 
L 219.834387 129.14052 
L 222.834723 130.485803 
L 225.835059 133.257095 
L 228.835394 133.909258 
L 231.83573 134.032532 
L 234.836066 135.082354 
L 237.836401 135.530915 
L 240.836737 137.923634 
L 249.837744 138.484335 
L 252.83808 138.534838 
L 255.838416 139.309877 
L 258.838751 139.54887 
L 261.839087 139.948519 
L 264.839423 140.171606 
L 267.839758 140.79792 
L 270.840094 143.111108 
L 273.84043 144.463947 
L 276.840765 144.983291 
L 279.841101 146.923473 
L 282.841437 147.107192 
L 285.841772 148.943983 
L 291.842444 150.17991 
L 297.843115 150.327442 
L 303.843787 151.107651 
L 306.844122 153.227974 
L 309.844458 153.536558 
L 312.844794 156.114984 
L 315.845129 156.334095 
L 318.845465 157.854747 
L 321.845801 158.356593 
L 324.846136 159.326486 
L 330.846808 160.733009 
L 333.847143 162.526455 
L 336.847479 162.586104 
L 339.847815 163.933774 
L 342.848151 164.039949 
L 348.848822 164.769257 
L 351.849158 164.820953 
L 354.849493 166.425908 
L 357.849829 167.876174 
L 360.850165 169.76824 
L 363.8505 170.15397 
L 366.850836 171.133406 
L 369.851172 172.29338 
L 375.851843 172.861238 
L 378.852179 174.198171 
L 384.85285 174.465399 
L 387.853186 175.406262 
L 390.853522 175.901348 
L 393.853857 176.531639 
L 396.854193 176.543569 
L 399.854529 176.969861 
L 402.854864 177.044223 
L 405.8552 177.250211 
L 408.855536 177.84511 
L 411.855871 179.525223 
L 414.856207 179.946345 
L 417.856543 179.970205 
L 420.856878 180.367865 
L 423.857214 180.965945 
L 426.85755 182.846479 
L 429.857885 183.376162 
L 435.858557 185.068205 
L 438.858893 185.125468 
L 441.859228 185.824951 
L 444.859564 186.970212 
L 447.8599 187.507053 
L 453.860571 187.787801 
L 456.860907 190.349924 
L 459.861242 190.661689 
L 465.861914 191.701967 
L 468.862249 192.419346 
L 471.862585 192.542223 
L 474.862921 193.317262 
L 477.863256 193.327203 
L 480.863592 194.640276 
L 483.863928 195.102755 
L 486.864264 195.103152 
L 489.864599 196.147407 
L 492.864935 196.182799 
L 495.865271 197.87524 
L 501.865942 198.046631 
L 507.866613 198.662209 
L 513.867285 199.58478 
L 516.86762 200.712145 
L 519.867956 202.772421 
L 522.868292 203.390783 
L 525.868627 205.861841 
L 528.868963 206.246378 
L 531.869299 207.110493 
L 534.869635 207.363405 
L 537.86997 208.594958 
L 540.870306 209.448336 
L 543.870642 209.502815 
L 546.870977 210.459187 
L 552.871649 211.815605 
L 555.871984 212.075277 
L 558.87232 214.660862 
L 561.872656 215.017165 
L 570.873663 217.136693 
L 573.873998 217.611896 
L 576.874334 217.953088 
L 579.87467 219.264968 
L 582.875006 219.573155 
L 585.875341 220.995982 
L 588.875677 224.474711 
L 591.876013 228.830677 
L 594.876348 229.24822 
L 597.876684 229.505904 
L 600.87702 229.903962 
L 603.877355 235.179318 
L 606.877691 235.672416 
L 609.878027 237.818587 
L 612.878362 238.933227 
L 615.878698 239.079964 
L 618.879034 240.678954 
L 621.879369 242.573804 
L 624.879705 246.03941 
L 627.880041 246.832344 
L 630.880377 247.424062 
L 633.880712 249.316923 
L 636.881048 250.915516 
L 639.881384 252.176495 
L 645.882055 252.804003 
L 648.882391 253.67965 
L 651.882726 253.974713 
L 654.883062 256.8999 
L 657.883398 258.526329 
L 660.883733 259.528034 
L 666.884405 259.640969 
L 669.88474 260.690792 
L 672.885076 262.024145 
L 678.885748 262.854857 
L 681.886083 268.155266 
L 684.886419 269.527988 
L 687.886755 269.767777 
L 690.88709 271.735795 
L 693.887426 272.584004 
L 696.887762 274.820443 
L 699.888097 275.383927 
L 702.888433 276.662404 
L 705.888769 277.194871 
L 708.889104 278.684505 
L 711.88944 280.603214 
L 714.889776 285.765237 
L 717.890111 287.079503 
L 720.890447 287.991337 
L 723.890783 289.532269 
L 948.915959 289.534655 
L 948.915959 289.534655 
" clip-path="url(#p5e89ce9cdd)" style="fill: none; stroke: #ff7f0e; stroke-width: 2.5; stroke-linecap: round"/>
   </g>
   <g id="line2d_31">
    <path d="M 87.819617 227.470283 
L 96.820624 227.470681 
L 102.821296 231.659232 
L 105.821631 233.192211 
L 108.821967 237.115922 
L 111.822303 237.787172 
L 114.822638 238.133931 
L 117.822974 239.056502 
L 120.82331 242.723722 
L 126.823981 247.039525 
L 129.824317 247.819733 
L 132.824652 247.950563 
L 135.824988 251.390322 
L 138.825324 252.477921 
L 141.825659 255.541493 
L 144.825995 256.250123 
L 147.826331 259.811168 
L 150.826667 260.251775 
L 153.827002 260.252173 
L 156.827338 264.447485 
L 159.827674 266.790497 
L 162.828009 266.976999 
L 165.828345 267.487197 
L 168.828681 270.359495 
L 171.829016 271.012452 
L 174.829352 273.058412 
L 177.829688 274.870946 
L 180.830023 276.004675 
L 183.830359 276.465165 
L 186.830695 278.978773 
L 192.831366 285.728652 
L 195.831702 286.405867 
L 198.832038 288.958446 
L 201.832373 289.538234 
L 948.915959 289.538234 
L 948.915959 289.538234 
" clip-path="url(#p5e89ce9cdd)" style="fill: none; stroke: #2ca02c; stroke-width: 2.5; stroke-linecap: round"/>
   </g>
   <g id="line2d_32">
    <path d="M 87.819617 284.924186 
L 90.819953 288.553628 
L 93.820288 292.672987 
L 96.820624 292.679747 
L 99.82096 295.058151 
L 102.821296 295.524606 
L 159.827674 295.534548 
L 165.828345 295.535343 
L 168.828681 296.122289 
L 171.829016 296.130242 
L 174.829352 297.932437 
L 207.833045 298.046963 
L 210.83338 298.066449 
L 213.833716 298.530915 
L 216.834052 299.132177 
L 249.837744 299.222446 
L 255.838416 300.312034 
L 291.842444 300.33828 
L 294.84278 300.911308 
L 297.843115 300.928805 
L 300.843451 301.505411 
L 318.845465 301.613973 
L 327.846472 301.676008 
L 330.846808 302.699982 
L 339.847815 302.828028 
L 345.848486 304.027768 
L 348.848822 305.196093 
L 351.849158 305.209216 
L 357.849829 306.383903 
L 363.8505 306.452698 
L 369.851172 308.826728 
L 372.851507 309.363171 
L 378.852179 309.439522 
L 384.85285 310.555356 
L 387.853186 310.562116 
L 390.853522 311.074699 
L 402.854864 311.183658 
L 405.8552 312.265293 
L 408.855536 312.26927 
L 411.855871 312.864964 
L 420.856878 312.988239 
L 423.857214 313.469805 
L 432.858221 313.5386 
L 435.858557 314.155768 
L 438.858893 314.224166 
L 441.859228 314.760609 
L 444.859564 314.799182 
L 447.8599 315.256491 
L 450.860235 315.269216 
L 453.860571 315.8498 
L 456.860907 315.942454 
L 459.861242 316.538944 
L 462.861578 316.567576 
L 465.861914 318.294215 
L 468.862249 318.40039 
L 471.862585 318.851734 
L 480.863592 318.965067 
L 483.863928 319.488785 
L 492.864935 319.546446 
L 495.865271 320.137369 
L 498.865606 321.318419 
L 501.865942 321.34029 
L 504.866278 322.480381 
L 507.866613 322.520147 
L 510.866949 323.043467 
L 516.86762 323.102321 
L 519.867956 323.645922 
L 522.868292 323.668589 
L 525.868627 324.311207 
L 528.868963 324.314388 
L 534.869635 324.878668 
L 540.870306 324.907299 
L 546.870977 326.020349 
L 549.871313 326.054946 
L 552.871649 326.39415 
L 555.871984 326.618828 
L 558.87232 327.228043 
L 567.873327 327.316323 
L 570.873663 328.424999 
L 576.874334 328.441701 
L 579.87467 329.333254 
L 582.875006 329.703873 
L 585.875341 332.017458 
L 588.875677 332.0783 
L 591.876013 332.603212 
L 594.876348 332.699843 
L 597.876684 334.688938 
L 600.87702 335.027744 
L 603.877355 335.09813 
L 606.877691 335.287416 
L 609.878027 335.646105 
L 612.878362 336.283952 
L 618.879034 336.402852 
L 621.879369 337.49761 
L 624.879705 338.277421 
L 627.880041 338.696157 
L 630.880377 338.706893 
L 633.880712 339.899475 
L 636.881048 339.907826 
L 642.881719 342.217833 
L 645.882055 342.298558 
L 648.882391 342.860849 
L 651.882726 343.002416 
L 654.883062 343.02031 
L 657.883398 343.419163 
L 660.883733 343.472847 
L 672.885076 348.270217 
L 675.885412 349.394003 
L 678.885748 349.405138 
L 681.886083 350.668901 
L 684.886419 351.802232 
L 687.886755 351.875004 
L 690.88709 353.058042 
L 693.887426 353.081504 
L 696.887762 355.383557 
L 705.888769 355.393101 
L 708.889104 356.073895 
L 711.88944 357.771505 
L 717.890111 357.774288 
L 720.890447 359.001467 
L 723.890783 359.060718 
L 726.891119 360.165815 
L 729.891454 360.168996 
L 735.892126 361.351239 
L 738.892461 361.968805 
L 741.892797 362.011752 
L 756.894475 364.950459 
L 762.895147 364.963184 
L 765.895482 367.948815 
L 774.89649 369.706471 
L 777.896825 372.701248 
L 789.898168 372.827306 
L 792.898504 373.865199 
L 795.898839 376.892186 
L 798.899175 376.897356 
L 801.899511 377.435787 
L 804.899846 377.586898 
L 807.900182 378.100277 
L 810.900518 379.254684 
L 822.901861 381.66331 
L 825.902196 382.822886 
L 828.902532 383.380405 
L 831.902868 383.470276 
L 834.903203 384.082672 
L 837.903539 385.244635 
L 846.904546 385.275255 
L 849.904882 385.812095 
L 852.905217 386.463065 
L 855.905553 386.466246 
L 858.905889 387.645308 
L 861.906224 387.68229 
L 864.90656 389.309912 
L 867.906896 389.393421 
L 870.907232 389.905606 
L 873.907567 391.780573 
L 876.907903 392.419215 
L 879.908239 392.449835 
L 882.908574 393.544592 
L 885.90891 393.621341 
L 888.909246 394.832613 
L 891.909581 394.85687 
L 894.909917 396.536983 
L 897.910253 396.640772 
L 906.91126 400.058659 
L 909.911595 400.180741 
L 912.911931 402.658957 
L 915.912267 404.222158 
L 918.912603 407.246362 
L 921.912938 414.969713 
L 924.913274 415.71612 
L 927.91361 416.112587 
L 930.913945 416.685218 
L 933.914281 416.750832 
L 936.914617 417.276936 
L 939.914952 421.451967 
L 945.915624 422.660853 
L 948.915959 425.049994 
L 948.915959 425.049994 
" clip-path="url(#p5e89ce9cdd)" style="fill: none; stroke: #d62728; stroke-width: 2.5; stroke-linecap: round"/>
   </g>
   <g id="line2d_33">
    <path d="M 87.819617 403.369178 
L 90.819953 404.156942 
L 93.820288 404.560169 
L 99.82096 406.158762 
L 102.821296 406.241475 
L 105.821631 406.958456 
L 108.821967 409.853023 
L 111.822303 410.97681 
L 114.822638 412.234608 
L 117.822974 415.850927 
L 123.823645 415.852915 
L 132.824652 416.967158 
L 135.824988 417.707601 
L 138.825324 417.788724 
L 141.825659 418.178033 
L 144.825995 419.277165 
L 147.826331 419.671644 
L 153.827002 419.742825 
L 156.827338 420.038286 
L 159.827674 420.165139 
L 162.828009 420.860249 
L 165.828345 421.366868 
L 168.828681 422.04448 
L 171.829016 422.180878 
L 174.829352 422.852525 
L 177.829688 422.9758 
L 186.830695 424.233598 
L 189.83103 424.908825 
L 192.831366 424.933082 
L 195.831702 425.252005 
L 198.832038 425.936775 
L 201.832373 426.153102 
L 204.832709 426.162249 
L 210.83338 426.866504 
L 213.833716 426.925756 
L 216.834052 427.209287 
L 225.835059 427.579111 
L 228.835394 428.144186 
L 231.83573 428.144981 
L 234.836066 429.097774 
L 237.836401 429.877585 
L 240.836737 430.268882 
L 243.837073 432.125159 
L 246.837409 432.681883 
L 249.837744 432.831005 
L 252.83808 432.852081 
L 261.839087 433.911049 
L 264.839423 434.584288 
L 267.839758 435.104029 
L 270.840094 435.139023 
L 276.840765 435.621782 
L 279.841101 435.744262 
L 282.841437 435.747443 
L 285.841772 436.375746 
L 291.842444 436.418693 
L 294.84278 436.680353 
L 297.843115 436.722107 
L 306.844122 437.240656 
L 309.844458 437.752842 
L 315.845129 438.035976 
L 318.845465 438.38353 
L 321.845801 438.475788 
L 324.846136 438.823342 
L 327.846472 438.903272 
L 330.846808 439.170102 
L 333.847143 439.229751 
L 336.847479 439.601563 
L 345.848486 440.029842 
L 348.848822 440.317748 
L 354.849493 440.509023 
L 357.849829 440.871689 
L 366.850836 441.145279 
L 369.851172 441.352062 
L 372.851507 441.36598 
L 375.851843 442.262703 
L 378.852179 442.390352 
L 381.852514 442.834538 
L 384.85285 442.949859 
L 387.853186 443.538396 
L 393.853857 443.568618 
L 396.854193 443.967471 
L 405.8552 444.488008 
L 411.855871 444.781878 
L 414.856207 445.095632 
L 426.85755 445.616567 
L 432.858221 446.232144 
L 435.858557 446.289407 
L 438.858893 446.646506 
L 441.859228 447.144774 
L 444.859564 447.224703 
L 447.8599 447.532094 
L 450.860235 447.64662 
L 453.860571 447.649404 
L 456.860907 448.045473 
L 459.861242 448.060187 
L 468.862249 448.580723 
L 474.862921 448.72746 
L 477.863256 449.329915 
L 483.863928 449.450008 
L 492.864935 449.742288 
L 495.865271 449.909703 
L 498.865606 450.397632 
L 510.866949 451.09115 
L 516.86762 451.152788 
L 519.867956 451.394565 
L 522.868292 451.47012 
L 525.868627 451.698775 
L 534.869635 451.983499 
L 540.870306 452.229651 
L 546.870977 452.463077 
L 549.871313 452.990772 
L 555.871984 453.552268 
L 564.872991 453.674747 
L 567.873327 454.117342 
L 570.873663 454.198465 
L 573.873998 454.514207 
L 579.87467 454.705084 
L 582.875006 455.726274 
L 585.875341 456.628167 
L 591.876013 457.065593 
L 594.876348 457.897497 
L 597.876684 457.89869 
L 600.87702 458.596186 
L 603.877355 458.883296 
L 606.877691 459.327085 
L 609.878027 459.371623 
L 612.878362 460.075083 
L 618.879034 460.214662 
L 624.879705 460.32879 
L 627.880041 460.835409 
L 630.880377 460.962262 
L 633.880712 461.215572 
L 636.881048 461.72736 
L 642.881719 462.488481 
L 648.882391 462.655498 
L 651.882726 462.853533 
L 654.883062 463.321976 
L 657.883398 463.568923 
L 660.883733 463.676689 
L 663.884069 463.899378 
L 669.88474 464.001975 
L 675.885412 464.332828 
L 684.886419 464.744803 
L 687.886755 465.190182 
L 690.88709 465.20251 
L 693.887426 465.605339 
L 705.888769 466.19149 
L 708.889104 466.997944 
L 711.88944 467.413897 
L 714.889776 467.514505 
L 717.890111 467.817521 
L 720.890447 470.073446 
L 723.890783 470.203083 
L 729.891454 472.001699 
L 732.89179 472.509908 
L 735.892126 472.758843 
L 738.892461 472.890867 
L 741.892797 473.458725 
L 744.893133 473.542631 
L 747.893468 473.805484 
L 750.893804 474.438161 
L 756.894475 474.507752 
L 759.894811 474.784125 
L 762.895147 475.563539 
L 768.895818 476.456285 
L 771.896154 476.812589 
L 777.896825 477.302903 
L 780.897161 478.247743 
L 783.897497 478.585356 
L 789.898168 478.689941 
L 795.898839 479.335741 
L 798.899175 479.405331 
L 804.899846 479.947739 
L 810.900518 480.099248 
L 819.901525 480.952228 
L 822.901861 481.065561 
L 828.902532 481.850144 
L 834.903203 482.254564 
L 840.903875 484.609109 
L 843.90421 485.109365 
L 849.904882 485.194066 
L 852.905217 486.275304 
L 855.905553 486.581502 
L 861.906224 486.662227 
L 867.906896 487.047957 
L 870.907232 487.199863 
L 873.907567 487.999159 
L 876.907903 489.291554 
L 882.908574 489.51663 
L 888.909246 490.610194 
L 891.909581 490.855153 
L 894.909917 493.069721 
L 897.910253 493.824877 
L 900.910588 493.842772 
L 909.911595 496.14562 
L 912.911931 496.637923 
L 915.912267 498.094154 
L 918.912603 500.085237 
L 921.912938 500.996674 
L 927.91361 501.4679 
L 930.913945 501.539082 
L 933.914281 502.625488 
L 936.914617 503.518235 
L 939.914952 504.849998 
L 942.915288 504.943448 
L 945.915624 507.834833 
L 948.915959 510.472909 
L 948.915959 510.472909 
" clip-path="url(#p5e89ce9cdd)" style="fill: none; stroke: #9467bd; stroke-width: 2.5; stroke-linecap: round"/>
   </g>
   <g id="line2d_34">
    <path d="M 87.819617 295.543694 
L 204.832709 295.555624 
L 207.833045 295.912325 
L 210.83338 296.131435 
L 228.835394 296.152511 
L 231.83573 300.351402 
L 237.836401 300.353788 
L 240.836737 301.557505 
L 252.83808 301.563072 
L 255.838416 302.749292 
L 264.839423 302.76321 
L 267.839758 311.115261 
L 288.842108 311.168945 
L 291.842444 312.312217 
L 303.843787 312.370673 
L 306.844122 313.562857 
L 309.844458 313.579957 
L 312.844794 314.706925 
L 330.846808 314.772937 
L 333.847143 315.910642 
L 336.847479 319.500715 
L 339.847815 321.895821 
L 342.848151 321.895821 
L 345.848486 324.299277 
L 348.848822 324.302856 
L 351.849158 326.69319 
L 354.849493 326.77471 
L 357.849829 327.884977 
L 366.850836 327.896111 
L 369.851172 329.089091 
L 372.851507 331.471471 
L 375.851843 343.441035 
L 381.852514 343.473245 
L 384.85285 345.838924 
L 390.853522 345.863976 
L 393.853857 347.009237 
L 399.854529 347.038664 
L 402.854864 349.422237 
L 405.8552 349.446892 
L 408.855536 350.608457 
L 414.856207 350.656176 
L 417.856543 351.81615 
L 423.857214 351.838817 
L 426.85755 353.029808 
L 432.858221 353.059235 
L 435.858557 354.213642 
L 438.858893 354.219606 
L 441.859228 355.383955 
L 444.859564 355.458317 
L 447.8599 365.690902 
L 450.860235 366.140655 
L 453.860571 367.336418 
L 456.860907 367.716184 
L 459.861242 370.977393 
L 462.861578 374.519747 
L 468.862249 374.583373 
L 474.862921 376.894572 
L 483.863928 376.967344 
L 486.864264 378.130101 
L 489.864599 378.161516 
L 492.864935 380.526798 
L 495.865271 381.689555 
L 501.865942 381.718187 
L 504.866278 382.892874 
L 507.866613 385.280822 
L 510.866949 385.298319 
L 513.867285 386.456702 
L 516.86762 386.481755 
L 519.867956 386.635649 
L 522.868292 387.672348 
L 531.869299 387.755459 
L 534.869635 388.831129 
L 537.86997 388.918217 
L 540.870306 390.089723 
L 552.871649 390.195898 
L 555.871984 391.279124 
L 567.873327 391.372176 
L 573.873998 393.721949 
L 576.874334 394.8008 
L 588.875677 394.944753 
L 591.876013 396.070926 
L 597.876684 396.141311 
L 600.87702 397.298104 
L 603.877355 397.301285 
L 606.877691 398.465634 
L 609.878027 399.415643 
L 612.878362 399.6948 
L 615.878698 399.785865 
L 618.879034 400.039572 
L 621.879369 400.858751 
L 624.879705 402.095871 
L 633.880712 402.188526 
L 636.881048 403.228009 
L 639.881384 403.311915 
L 642.881719 404.379632 
L 651.882726 404.541877 
L 654.883062 405.734857 
L 657.883398 406.74889 
L 669.88474 406.915907 
L 672.885076 407.013333 
L 675.885412 407.967717 
L 684.886419 408.20512 
L 687.886755 409.116557 
L 690.88709 410.577957 
L 693.887426 411.630165 
L 702.888433 411.684644 
L 708.889104 411.804738 
L 711.88944 413.859049 
L 714.889776 414.087703 
L 717.890111 415.023397 
L 720.890447 416.439861 
L 723.890783 416.508259 
L 726.891119 417.379929 
L 729.891454 418.784067 
L 738.892461 418.874335 
L 741.892797 419.757538 
L 744.893133 419.797304 
L 747.893468 421.014541 
L 750.893804 421.191102 
L 756.894475 421.253137 
L 759.894811 422.135544 
L 762.895147 422.182071 
L 765.895482 422.409134 
L 768.895818 423.378232 
L 771.896154 423.707096 
L 774.89649 424.798673 
L 777.896825 424.807819 
L 780.897161 424.935865 
L 783.897497 426.068401 
L 786.897832 426.071184 
L 789.898168 426.888376 
L 792.898504 428.355741 
L 795.898839 428.517986 
L 798.899175 429.274733 
L 801.899511 429.630638 
L 813.900853 429.730451 
L 816.901189 430.807314 
L 822.901861 430.931781 
L 825.902196 431.64916 
L 828.902532 433.226279 
L 834.903203 433.28553 
L 837.903539 433.993763 
L 840.903875 434.357224 
L 846.904546 434.4292 
L 852.905217 434.456639 
L 855.905553 435.138626 
L 858.905889 435.639677 
L 864.90656 437.978713 
L 867.906896 439.178453 
L 870.907232 439.206289 
L 873.907567 439.949118 
L 876.907903 440.433467 
L 879.908239 440.475619 
L 882.908574 442.892994 
L 885.90891 443.928898 
L 888.909246 445.18272 
L 894.909917 445.250322 
L 897.910253 446.229758 
L 906.91126 446.388027 
L 909.911595 446.969406 
L 912.911931 446.993265 
L 915.912267 447.643439 
L 921.912938 450.045703 
L 924.913274 450.073539 
L 927.91361 453.592829 
L 930.913945 453.626232 
L 933.914281 455.944192 
L 936.914617 455.958905 
L 939.914952 458.338502 
L 942.915288 458.372701 
L 945.915624 460.724462 
L 948.915959 467.107699 
L 948.915959 467.107699 
" clip-path="url(#p5e89ce9cdd)" style="fill: none; stroke: #8c564b; stroke-width: 2.5; stroke-linecap: round"/>
   </g>
   <g id="line2d_35">
    <path d="M 87.819617 281.872146 
L 90.819953 282.053479 
L 93.820288 282.768074 
L 96.820624 282.76887 
L 102.821296 283.133524 
L 105.821631 283.483464 
L 108.821967 283.662809 
L 111.822303 284.020305 
L 114.822638 284.200445 
L 117.822974 284.734105 
L 123.823645 284.983438 
L 126.823981 285.51829 
L 129.824317 285.876582 
L 132.824652 285.934242 
L 138.825324 286.236464 
L 141.825659 286.826989 
L 147.826331 286.882264 
L 150.826667 287.186871 
L 156.827338 287.417912 
L 165.828345 287.432625 
L 177.829688 287.776998 
L 180.830023 288.134495 
L 183.830359 288.670143 
L 195.831702 288.935382 
L 222.834723 289.386726 
L 237.836401 290.240104 
L 255.838416 290.828641 
L 261.839087 291.423937 
L 267.839758 291.597715 
L 270.840094 291.937714 
L 300.843451 291.938907 
L 303.843787 292.15086 
L 306.844122 292.536988 
L 309.844458 292.685315 
L 315.845129 293.136261 
L 411.855871 293.139045 
L 414.856207 293.501313 
L 417.856543 293.735137 
L 426.85755 293.819043 
L 429.857885 294.330434 
L 498.865606 294.337194 
L 501.865942 295.52739 
L 570.873663 295.612887 
L 573.873998 295.661799 
L 576.874334 295.96919 
L 591.876013 296.86472 
L 594.876348 297.040088 
L 597.876684 297.395596 
L 600.87702 297.458824 
L 603.877355 297.986519 
L 612.878362 298.231875 
L 615.878698 298.498307 
L 621.879369 298.82757 
L 627.880041 299.420083 
L 630.880377 300.026117 
L 633.880712 300.317601 
L 645.882055 300.37049 
L 648.882391 300.494958 
L 651.882726 300.896594 
L 654.883062 301.153085 
L 657.883398 301.156664 
L 663.884069 301.514558 
L 666.884405 301.515751 
L 669.88474 302.354018 
L 672.885076 302.709923 
L 681.886083 302.712309 
L 687.886755 303.477805 
L 693.887426 304.932047 
L 696.887762 305.108608 
L 705.888769 305.112584 
L 708.889104 305.898758 
L 711.88944 306.309938 
L 714.889776 306.309938 
L 720.890447 307.504111 
L 729.891454 307.508883 
L 732.89179 308.325677 
L 735.892126 309.479686 
L 738.892461 309.65744 
L 741.892797 310.856782 
L 744.893133 311.093787 
L 747.893468 311.755891 
L 750.893804 311.820709 
L 753.89414 312.111399 
L 762.895147 312.588591 
L 765.895482 313.303583 
L 768.895818 313.30915 
L 774.89649 321.278653 
L 780.897161 321.404711 
L 783.897497 321.869973 
L 786.897832 322.650579 
L 801.899511 323.076075 
L 813.900853 323.363186 
L 828.902532 324.265874 
L 834.903203 324.374833 
L 837.903539 324.748633 
L 846.904546 325.27593 
L 852.905217 325.283088 
L 855.905553 325.46124 
L 858.905889 326.473682 
L 861.906224 326.476465 
L 864.90656 326.658196 
L 867.906896 326.664956 
L 870.907232 327.58355 
L 879.908239 327.861912 
L 882.908574 328.856858 
L 885.90891 329.042962 
L 888.909246 330.660643 
L 891.909581 330.758865 
L 894.909917 331.647237 
L 900.910588 332.351493 
L 903.910924 333.024333 
L 909.911595 334.092448 
L 912.911931 335.527205 
L 915.912267 335.544304 
L 918.912603 335.960256 
L 921.912938 335.99366 
L 924.913274 336.597705 
L 927.91361 336.944465 
L 930.913945 337.142897 
L 933.914281 338.614239 
L 936.914617 341.11711 
L 939.914952 341.29725 
L 942.915288 342.612311 
L 945.915624 344.341734 
L 948.915959 361.382654 
L 948.915959 361.382654 
" clip-path="url(#p5e89ce9cdd)" style="fill: none; stroke: #e377c2; stroke-width: 2.5; stroke-linecap: round"/>
   </g>
   <g id="patch_3">
    <path d="M 44.7648 533.5752 
L 44.7648 25.3248 
" style="fill: none; stroke: #cccccc; stroke-linejoin: miter; stroke-linecap: square"/>
   </g>
   <g id="patch_4">
    <path d="M 991.970776 533.5752 
L 991.970776 25.3248 
" style="fill: none; stroke: #cccccc; stroke-linejoin: miter; stroke-linecap: square"/>
   </g>
   <g id="patch_5">
    <path d="M 44.7648 533.5752 
L 991.970776 533.5752 
" style="fill: none; stroke: #cccccc; stroke-linejoin: miter; stroke-linecap: square"/>
   </g>
   <g id="patch_6">
    <path d="M 44.7648 25.3248 
L 991.970776 25.3248 
" style="fill: none; stroke: #cccccc; stroke-linejoin: miter; stroke-linecap: square"/>
   </g>
   <g id="text_17">
    <!-- Individual Residual Load Duration Curves (7) -->
    <g style="fill: #262626" transform="translate(413.305688 19.3248) scale(0.1056 -0.1056)">
     <defs>
      <path id="ArialMT-49" d="M 597 0 
L 597 4581 
L 1203 4581 
L 1203 0 
L 597 0 
z
" transform="scale(0.015625)"/>
      <path id="ArialMT-69" d="M 425 3934 
L 425 4581 
L 988 4581 
L 988 3934 
L 425 3934 
z
M 425 0 
L 425 3319 
L 988 3319 
L 988 0 
L 425 0 
z
" transform="scale(0.015625)"/>
      <path id="ArialMT-76" d="M 1344 0 
L 81 3319 
L 675 3319 
L 1388 1331 
Q 1503 1009 1600 663 
Q 1675 925 1809 1294 
L 2547 3319 
L 3125 3319 
L 1869 0 
L 1344 0 
z
" transform="scale(0.015625)"/>
      <path id="ArialMT-6c" d="M 409 0 
L 409 4581 
L 972 4581 
L 972 0 
L 409 0 
z
" transform="scale(0.015625)"/>
      <path id="ArialMT-52" d="M 503 0 
L 503 4581 
L 2534 4581 
Q 3147 4581 3465 4457 
Q 3784 4334 3975 4021 
Q 4166 3709 4166 3331 
Q 4166 2844 3850 2509 
Q 3534 2175 2875 2084 
Q 3116 1969 3241 1856 
Q 3506 1613 3744 1247 
L 4541 0 
L 3778 0 
L 3172 953 
Q 2906 1366 2734 1584 
Q 2563 1803 2427 1890 
Q 2291 1978 2150 2013 
Q 2047 2034 1813 2034 
L 1109 2034 
L 1109 0 
L 503 0 
z
M 1109 2559 
L 2413 2559 
Q 2828 2559 3062 2645 
Q 3297 2731 3419 2920 
Q 3541 3109 3541 3331 
Q 3541 3656 3305 3865 
Q 3069 4075 2559 4075 
L 1109 4075 
L 1109 2559 
z
" transform="scale(0.015625)"/>
      <path id="ArialMT-4c" d="M 469 0 
L 469 4581 
L 1075 4581 
L 1075 541 
L 3331 541 
L 3331 0 
L 469 0 
z
" transform="scale(0.015625)"/>
      <path id="ArialMT-44" d="M 494 0 
L 494 4581 
L 2072 4581 
Q 2606 4581 2888 4516 
Q 3281 4425 3559 4188 
Q 3922 3881 4101 3404 
Q 4281 2928 4281 2316 
Q 4281 1794 4159 1391 
Q 4038 988 3847 723 
Q 3656 459 3429 307 
Q 3203 156 2883 78 
Q 2563 0 2147 0 
L 494 0 
z
M 1100 541 
L 2078 541 
Q 2531 541 2789 625 
Q 3047 709 3200 863 
Q 3416 1078 3536 1442 
Q 3656 1806 3656 2325 
Q 3656 3044 3420 3430 
Q 3184 3816 2847 3947 
Q 2603 4041 2063 4041 
L 1100 4041 
L 1100 541 
z
" transform="scale(0.015625)"/>
      <path id="ArialMT-43" d="M 3763 1606 
L 4369 1453 
Q 4178 706 3683 314 
Q 3188 -78 2472 -78 
Q 1731 -78 1267 223 
Q 803 525 561 1097 
Q 319 1669 319 2325 
Q 319 3041 592 3573 
Q 866 4106 1370 4382 
Q 1875 4659 2481 4659 
Q 3169 4659 3637 4309 
Q 4106 3959 4291 3325 
L 3694 3184 
Q 3534 3684 3231 3912 
Q 2928 4141 2469 4141 
Q 1941 4141 1586 3887 
Q 1231 3634 1087 3207 
Q 944 2781 944 2328 
Q 944 1744 1114 1308 
Q 1284 872 1643 656 
Q 2003 441 2422 441 
Q 2931 441 3284 734 
Q 3638 1028 3763 1606 
z
" transform="scale(0.015625)"/>
      <path id="ArialMT-37" d="M 303 3981 
L 303 4522 
L 3269 4522 
L 3269 4084 
Q 2831 3619 2401 2847 
Q 1972 2075 1738 1259 
Q 1569 684 1522 0 
L 944 0 
Q 953 541 1156 1306 
Q 1359 2072 1739 2783 
Q 2119 3494 2547 3981 
L 303 3981 
z
" transform="scale(0.015625)"/>
     </defs>
     <use xlink:href="#ArialMT-49"/>
     <use xlink:href="#ArialMT-6e" transform="translate(27.783203 0)"/>
     <use xlink:href="#ArialMT-64" transform="translate(83.398438 0)"/>
     <use xlink:href="#ArialMT-69" transform="translate(139.013672 0)"/>
     <use xlink:href="#ArialMT-76" transform="translate(161.230469 0)"/>
     <use xlink:href="#ArialMT-69" transform="translate(211.230469 0)"/>
     <use xlink:href="#ArialMT-64" transform="translate(233.447266 0)"/>
     <use xlink:href="#ArialMT-75" transform="translate(289.0625 0)"/>
     <use xlink:href="#ArialMT-61" transform="translate(344.677734 0)"/>
     <use xlink:href="#ArialMT-6c" transform="translate(400.292969 0)"/>
     <use xlink:href="#ArialMT-20" transform="translate(422.509766 0)"/>
     <use xlink:href="#ArialMT-52" transform="translate(450.292969 0)"/>
     <use xlink:href="#ArialMT-65" transform="translate(522.509766 0)"/>
     <use xlink:href="#ArialMT-73" transform="translate(578.125 0)"/>
     <use xlink:href="#ArialMT-69" transform="translate(628.125 0)"/>
     <use xlink:href="#ArialMT-64" transform="translate(650.341797 0)"/>
     <use xlink:href="#ArialMT-75" transform="translate(705.957031 0)"/>
     <use xlink:href="#ArialMT-61" transform="translate(761.572266 0)"/>
     <use xlink:href="#ArialMT-6c" transform="translate(817.1875 0)"/>
     <use xlink:href="#ArialMT-20" transform="translate(839.404297 0)"/>
     <use xlink:href="#ArialMT-4c" transform="translate(867.1875 0)"/>
     <use xlink:href="#ArialMT-6f" transform="translate(922.802734 0)"/>
     <use xlink:href="#ArialMT-61" transform="translate(978.417969 0)"/>
     <use xlink:href="#ArialMT-64" transform="translate(1034.033203 0)"/>
     <use xlink:href="#ArialMT-20" transform="translate(1089.648438 0)"/>
     <use xlink:href="#ArialMT-44" transform="translate(1117.431641 0)"/>
     <use xlink:href="#ArialMT-75" transform="translate(1189.648438 0)"/>
     <use xlink:href="#ArialMT-72" transform="translate(1245.263672 0)"/>
     <use xlink:href="#ArialMT-61" transform="translate(1278.564453 0)"/>
     <use xlink:href="#ArialMT-74" transform="translate(1334.179688 0)"/>
     <use xlink:href="#ArialMT-69" transform="translate(1361.962891 0)"/>
     <use xlink:href="#ArialMT-6f" transform="translate(1384.179688 0)"/>
     <use xlink:href="#ArialMT-6e" transform="translate(1439.794922 0)"/>
     <use xlink:href="#ArialMT-20" transform="translate(1495.410156 0)"/>
     <use xlink:href="#ArialMT-43" transform="translate(1523.193359 0)"/>
     <use xlink:href="#ArialMT-75" transform="translate(1595.410156 0)"/>
     <use xlink:href="#ArialMT-72" transform="translate(1651.025391 0)"/>
     <use xlink:href="#ArialMT-76" transform="translate(1684.326172 0)"/>
     <use xlink:href="#ArialMT-65" transform="translate(1734.326172 0)"/>
     <use xlink:href="#ArialMT-73" transform="translate(1789.941406 0)"/>
     <use xlink:href="#ArialMT-20" transform="translate(1839.941406 0)"/>
     <use xlink:href="#ArialMT-28" transform="translate(1867.724609 0)"/>
     <use xlink:href="#ArialMT-37" transform="translate(1901.025391 0)"/>
     <use xlink:href="#ArialMT-29" transform="translate(1956.640625 0)"/>
    </g>
   </g>
   <g id="legend_1">
    <g id="line2d_36">
     <path d="M 909.891939 37.577563 
L 919.571939 37.577563 
L 929.251939 37.577563 
" style="fill: none; stroke: #1f77b4; stroke-width: 2.5; stroke-linecap: round"/>
    </g>
    <g id="text_18">
     <!-- Baseload -->
     <g style="fill: #262626" transform="translate(936.995939 40.965563) scale(0.0968 -0.0968)">
      <defs>
       <path id="ArialMT-42" d="M 469 0 
L 469 4581 
L 2188 4581 
Q 2713 4581 3030 4442 
Q 3347 4303 3526 4014 
Q 3706 3725 3706 3409 
Q 3706 3116 3547 2856 
Q 3388 2597 3066 2438 
Q 3481 2316 3704 2022 
Q 3928 1728 3928 1328 
Q 3928 1006 3792 729 
Q 3656 453 3456 303 
Q 3256 153 2954 76 
Q 2653 0 2216 0 
L 469 0 
z
M 1075 2656 
L 2066 2656 
Q 2469 2656 2644 2709 
Q 2875 2778 2992 2937 
Q 3109 3097 3109 3338 
Q 3109 3566 3000 3739 
Q 2891 3913 2687 3977 
Q 2484 4041 1991 4041 
L 1075 4041 
L 1075 2656 
z
M 1075 541 
L 2216 541 
Q 2509 541 2628 563 
Q 2838 600 2978 687 
Q 3119 775 3209 942 
Q 3300 1109 3300 1328 
Q 3300 1584 3169 1773 
Q 3038 1963 2805 2039 
Q 2572 2116 2134 2116 
L 1075 2116 
L 1075 541 
z
" transform="scale(0.015625)"/>
      </defs>
      <use xlink:href="#ArialMT-42"/>
      <use xlink:href="#ArialMT-61" transform="translate(66.699219 0)"/>
      <use xlink:href="#ArialMT-73" transform="translate(122.314453 0)"/>
      <use xlink:href="#ArialMT-65" transform="translate(172.314453 0)"/>
      <use xlink:href="#ArialMT-6c" transform="translate(227.929688 0)"/>
      <use xlink:href="#ArialMT-6f" transform="translate(250.146484 0)"/>
      <use xlink:href="#ArialMT-61" transform="translate(305.761719 0)"/>
      <use xlink:href="#ArialMT-64" transform="translate(361.376953 0)"/>
     </g>
    </g>
    <g id="line2d_37">
     <path d="M 909.891939 51.270225 
L 919.571939 51.270225 
L 929.251939 51.270225 
" style="fill: none; stroke: #ff7f0e; stroke-width: 2.5; stroke-linecap: round"/>
    </g>
    <g id="text_19">
     <!-- MidMerit -->
     <g style="fill: #262626" transform="translate(936.995939 54.658225) scale(0.0968 -0.0968)">
      <defs>
       <path id="ArialMT-4d" d="M 475 0 
L 475 4581 
L 1388 4581 
L 2472 1338 
Q 2622 884 2691 659 
Q 2769 909 2934 1394 
L 4031 4581 
L 4847 4581 
L 4847 0 
L 4263 0 
L 4263 3834 
L 2931 0 
L 2384 0 
L 1059 3900 
L 1059 0 
L 475 0 
z
" transform="scale(0.015625)"/>
      </defs>
      <use xlink:href="#ArialMT-4d"/>
      <use xlink:href="#ArialMT-69" transform="translate(83.300781 0)"/>
      <use xlink:href="#ArialMT-64" transform="translate(105.517578 0)"/>
      <use xlink:href="#ArialMT-4d" transform="translate(161.132812 0)"/>
      <use xlink:href="#ArialMT-65" transform="translate(244.433594 0)"/>
      <use xlink:href="#ArialMT-72" transform="translate(300.048828 0)"/>
      <use xlink:href="#ArialMT-69" transform="translate(333.349609 0)"/>
      <use xlink:href="#ArialMT-74" transform="translate(355.566406 0)"/>
     </g>
    </g>
    <g id="line2d_38">
     <path d="M 909.891939 64.962887 
L 919.571939 64.962887 
L 929.251939 64.962887 
" style="fill: none; stroke: #2ca02c; stroke-width: 2.5; stroke-linecap: round"/>
    </g>
    <g id="text_20">
     <!-- Peak -->
     <g style="fill: #262626" transform="translate(936.995939 68.350887) scale(0.0968 -0.0968)">
      <defs>
       <path id="ArialMT-50" d="M 494 0 
L 494 4581 
L 2222 4581 
Q 2678 4581 2919 4538 
Q 3256 4481 3484 4323 
Q 3713 4166 3852 3881 
Q 3991 3597 3991 3256 
Q 3991 2672 3619 2267 
Q 3247 1863 2275 1863 
L 1100 1863 
L 1100 0 
L 494 0 
z
M 1100 2403 
L 2284 2403 
Q 2872 2403 3119 2622 
Q 3366 2841 3366 3238 
Q 3366 3525 3220 3729 
Q 3075 3934 2838 4000 
Q 2684 4041 2272 4041 
L 1100 4041 
L 1100 2403 
z
" transform="scale(0.015625)"/>
       <path id="ArialMT-6b" d="M 425 0 
L 425 4581 
L 988 4581 
L 988 1969 
L 2319 3319 
L 3047 3319 
L 1778 2088 
L 3175 0 
L 2481 0 
L 1384 1697 
L 988 1316 
L 988 0 
L 425 0 
z
" transform="scale(0.015625)"/>
      </defs>
      <use xlink:href="#ArialMT-50"/>
      <use xlink:href="#ArialMT-65" transform="translate(66.699219 0)"/>
      <use xlink:href="#ArialMT-61" transform="translate(122.314453 0)"/>
      <use xlink:href="#ArialMT-6b" transform="translate(177.929688 0)"/>
     </g>
    </g>
    <g id="line2d_39">
     <path d="M 909.891939 78.65555 
L 919.571939 78.65555 
L 929.251939 78.65555 
" style="fill: none; stroke: #d62728; stroke-width: 2.5; stroke-linecap: round"/>
    </g>
    <g id="text_21">
     <!-- LV_MED -->
     <g style="fill: #262626" transform="translate(936.995939 82.04355) scale(0.0968 -0.0968)">
      <defs>
       <path id="ArialMT-56" d="M 1803 0 
L 28 4581 
L 684 4581 
L 1875 1253 
Q 2019 853 2116 503 
Q 2222 878 2363 1253 
L 3600 4581 
L 4219 4581 
L 2425 0 
L 1803 0 
z
" transform="scale(0.015625)"/>
       <path id="ArialMT-5f" d="M -97 -1272 
L -97 -866 
L 3631 -866 
L 3631 -1272 
L -97 -1272 
z
" transform="scale(0.015625)"/>
       <path id="ArialMT-45" d="M 506 0 
L 506 4581 
L 3819 4581 
L 3819 4041 
L 1113 4041 
L 1113 2638 
L 3647 2638 
L 3647 2100 
L 1113 2100 
L 1113 541 
L 3925 541 
L 3925 0 
L 506 0 
z
" transform="scale(0.015625)"/>
      </defs>
      <use xlink:href="#ArialMT-4c"/>
      <use xlink:href="#ArialMT-56" transform="translate(48.240234 0)"/>
      <use xlink:href="#ArialMT-5f" transform="translate(114.939453 0)"/>
      <use xlink:href="#ArialMT-4d" transform="translate(170.554688 0)"/>
      <use xlink:href="#ArialMT-45" transform="translate(253.855469 0)"/>
      <use xlink:href="#ArialMT-44" transform="translate(320.554688 0)"/>
     </g>
    </g>
    <g id="line2d_40">
     <path d="M 909.891939 92.472238 
L 919.571939 92.472238 
L 929.251939 92.472238 
" style="fill: none; stroke: #9467bd; stroke-width: 2.5; stroke-linecap: round"/>
    </g>
    <g id="text_22">
     <!-- MV_LOAD -->
     <g style="fill: #262626" transform="translate(936.995939 95.860238) scale(0.0968 -0.0968)">
      <defs>
       <path id="ArialMT-41" d="M -9 0 
L 1750 4581 
L 2403 4581 
L 4278 0 
L 3588 0 
L 3053 1388 
L 1138 1388 
L 634 0 
L -9 0 
z
M 1313 1881 
L 2866 1881 
L 2388 3150 
Q 2169 3728 2063 4100 
Q 1975 3659 1816 3225 
L 1313 1881 
z
" transform="scale(0.015625)"/>
      </defs>
      <use xlink:href="#ArialMT-4d"/>
      <use xlink:href="#ArialMT-56" transform="translate(83.300781 0)"/>
      <use xlink:href="#ArialMT-5f" transform="translate(150 0)"/>
      <use xlink:href="#ArialMT-4c" transform="translate(205.615234 0)"/>
      <use xlink:href="#ArialMT-4f" transform="translate(261.230469 0)"/>
      <use xlink:href="#ArialMT-41" transform="translate(339.013672 0)"/>
      <use xlink:href="#ArialMT-44" transform="translate(405.712891 0)"/>
     </g>
    </g>
    <g id="line2d_41">
     <path d="M 909.891939 106.282875 
L 919.571939 106.282875 
L 929.251939 106.282875 
" style="fill: none; stroke: #8c564b; stroke-width: 2.5; stroke-linecap: round"/>
    </g>
    <g id="text_23">
     <!-- LV_HIGH -->
     <g style="fill: #262626" transform="translate(936.995939 109.670875) scale(0.0968 -0.0968)">
      <use xlink:href="#ArialMT-4c"/>
      <use xlink:href="#ArialMT-56" transform="translate(48.240234 0)"/>
      <use xlink:href="#ArialMT-5f" transform="translate(114.939453 0)"/>
      <use xlink:href="#ArialMT-48" transform="translate(170.554688 0)"/>
      <use xlink:href="#ArialMT-49" transform="translate(242.771484 0)"/>
      <use xlink:href="#ArialMT-47" transform="translate(270.554688 0)"/>
      <use xlink:href="#ArialMT-48" transform="translate(348.337891 0)"/>
     </g>
    </g>
    <g id="line2d_42">
     <path d="M 909.891939 120.099563 
L 919.571939 120.099563 
L 929.251939 120.099563 
" style="fill: none; stroke: #e377c2; stroke-width: 2.5; stroke-linecap: round"/>
    </g>
    <g id="text_24">
     <!-- LV_LOW -->
     <g style="fill: #262626" transform="translate(936.995939 123.487563) scale(0.0968 -0.0968)">
      <use xlink:href="#ArialMT-4c"/>
      <use xlink:href="#ArialMT-56" transform="translate(48.240234 0)"/>
      <use xlink:href="#ArialMT-5f" transform="translate(114.939453 0)"/>
      <use xlink:href="#ArialMT-4c" transform="translate(170.554688 0)"/>
      <use xlink:href="#ArialMT-4f" transform="translate(226.169922 0)"/>
      <use xlink:href="#ArialMT-57" transform="translate(303.953125 0)"/>
     </g>
    </g>
   </g>
  </g>
 </g>
 <defs>
  <clipPath id="p5e89ce9cdd">
   <rect x="44.7648" y="25.3248" width="947.205976" height="508.2504"/>
  </clipPath>
 </defs>
</svg>
