<?xml version="1.0" encoding="utf-8" standalone="no"?>
<!DOCTYPE svg PUBLIC "-//W3C//DTD SVG 1.1//EN"
  "http://www.w3.org/Graphics/SVG/1.1/DTD/svg11.dtd">
<svg xmlns:xlink="http://www.w3.org/1999/xlink" width="1008pt" height="576pt" viewBox="0 0 1008 576" xmlns="http://www.w3.org/2000/svg" version="1.1">
 <metadata>
  <rdf:RDF xmlns:dc="http://purl.org/dc/elements/1.1/" xmlns:cc="http://creativecommons.org/ns#" xmlns:rdf="http://www.w3.org/1999/02/22-rdf-syntax-ns#">
   <cc:Work>
    <dc:type rdf:resource="http://purl.org/dc/dcmitype/StillImage"/>
    <dc:date>2025-11-30T21:18:04.241734</dc:date>
    <dc:format>image/svg+xml</dc:format>
    <dc:creator>
     <cc:Agent>
      <dc:title>Matplotlib v3.10.3, https://matplotlib.org/</dc:title>
     </cc:Agent>
    </dc:creator>
   </cc:Work>
  </rdf:RDF>
 </metadata>
 <defs>
  <style type="text/css">*{stroke-linejoin: round; stroke-linecap: butt}</style>
 </defs>
 <g id="figure_1">
  <g id="patch_1">
   <path d="M 0 576 
L 1008 576 
L 1008 0 
L 0 0 
z
" style="fill: #ffffff"/>
  </g>
  <g id="axes_1">
   <g id="patch_2">
    <path d="M 44.7648 533.5752 
L 991.970776 533.5752 
L 991.970776 25.3248 
L 44.7648 25.3248 
z
" style="fill: #ffffff"/>
   </g>
   <g id="matplotlib.axis_1">
    <g id="xtick_1">
     <g id="line2d_1">
      <path d="M 87.819617 533.5752 
L 87.819617 25.3248 
" clip-path="url(#p5f1d914d0b)" style="fill: none; stroke: #cccccc; stroke-width: 0.8; stroke-linecap: round"/>
     </g>
     <g id="line2d_2">
      <defs>
       <path id="m9eb2894a99" d="M 0 0 
L 0 4.8 
" style="stroke: #262626"/>
      </defs>
      <g>
       <use xlink:href="#m9eb2894a99" x="87.819617" y="533.5752" style="fill: #262626; stroke: #262626"/>
      </g>
     </g>
     <g id="text_1">
      <!-- 0 -->
      <g style="fill: #262626" transform="translate(85.128123 548.803963) scale(0.0968 -0.0968)">
       <defs>
        <path id="ArialMT-30" d="M 266 2259 
Q 266 3072 433 3567 
Q 600 4063 929 4331 
Q 1259 4600 1759 4600 
Q 2128 4600 2406 4451 
Q 2684 4303 2865 4023 
Q 3047 3744 3150 3342 
Q 3253 2941 3253 2259 
Q 3253 1453 3087 958 
Q 2922 463 2592 192 
Q 2263 -78 1759 -78 
Q 1097 -78 719 397 
Q 266 969 266 2259 
z
M 844 2259 
Q 844 1131 1108 757 
Q 1372 384 1759 384 
Q 2147 384 2411 759 
Q 2675 1134 2675 2259 
Q 2675 3391 2411 3762 
Q 2147 4134 1753 4134 
Q 1366 4134 1134 3806 
Q 844 3388 844 2259 
z
" transform="scale(0.015625)"/>
       </defs>
       <use xlink:href="#ArialMT-30"/>
      </g>
     </g>
    </g>
    <g id="xtick_2">
     <g id="line2d_3">
      <path d="M 237.836401 533.5752 
L 237.836401 25.3248 
" clip-path="url(#p5f1d914d0b)" style="fill: none; stroke: #cccccc; stroke-width: 0.8; stroke-linecap: round"/>
     </g>
     <g id="line2d_4">
      <g>
       <use xlink:href="#m9eb2894a99" x="237.836401" y="533.5752" style="fill: #262626; stroke: #262626"/>
      </g>
     </g>
     <g id="text_2">
      <!-- 50 -->
      <g style="fill: #262626" transform="translate(232.453414 548.803963) scale(0.0968 -0.0968)">
       <defs>
        <path id="ArialMT-35" d="M 266 1200 
L 856 1250 
Q 922 819 1161 601 
Q 1400 384 1738 384 
Q 2144 384 2425 690 
Q 2706 997 2706 1503 
Q 2706 1984 2436 2262 
Q 2166 2541 1728 2541 
Q 1456 2541 1237 2417 
Q 1019 2294 894 2097 
L 366 2166 
L 809 4519 
L 3088 4519 
L 3088 3981 
L 1259 3981 
L 1013 2750 
Q 1425 3038 1878 3038 
Q 2478 3038 2890 2622 
Q 3303 2206 3303 1553 
Q 3303 931 2941 478 
Q 2500 -78 1738 -78 
Q 1113 -78 717 272 
Q 322 622 266 1200 
z
" transform="scale(0.015625)"/>
       </defs>
       <use xlink:href="#ArialMT-35"/>
       <use xlink:href="#ArialMT-30" transform="translate(55.615234 0)"/>
      </g>
     </g>
    </g>
    <g id="xtick_3">
     <g id="line2d_5">
      <path d="M 387.853186 533.5752 
L 387.853186 25.3248 
" clip-path="url(#p5f1d914d0b)" style="fill: none; stroke: #cccccc; stroke-width: 0.8; stroke-linecap: round"/>
     </g>
     <g id="line2d_6">
      <g>
       <use xlink:href="#m9eb2894a99" x="387.853186" y="533.5752" style="fill: #262626; stroke: #262626"/>
      </g>
     </g>
     <g id="text_3">
      <!-- 100 -->
      <g style="fill: #262626" transform="translate(379.778705 548.803963) scale(0.0968 -0.0968)">
       <defs>
        <path id="ArialMT-31" d="M 2384 0 
L 1822 0 
L 1822 3584 
Q 1619 3391 1289 3197 
Q 959 3003 697 2906 
L 697 3450 
Q 1169 3672 1522 3987 
Q 1875 4303 2022 4600 
L 2384 4600 
L 2384 0 
z
" transform="scale(0.015625)"/>
       </defs>
       <use xlink:href="#ArialMT-31"/>
       <use xlink:href="#ArialMT-30" transform="translate(55.615234 0)"/>
       <use xlink:href="#ArialMT-30" transform="translate(111.230469 0)"/>
      </g>
     </g>
    </g>
    <g id="xtick_4">
     <g id="line2d_7">
      <path d="M 537.86997 533.5752 
L 537.86997 25.3248 
" clip-path="url(#p5f1d914d0b)" style="fill: none; stroke: #cccccc; stroke-width: 0.8; stroke-linecap: round"/>
     </g>
     <g id="line2d_8">
      <g>
       <use xlink:href="#m9eb2894a99" x="537.86997" y="533.5752" style="fill: #262626; stroke: #262626"/>
      </g>
     </g>
     <g id="text_4">
      <!-- 150 -->
      <g style="fill: #262626" transform="translate(529.795489 548.803963) scale(0.0968 -0.0968)">
       <use xlink:href="#ArialMT-31"/>
       <use xlink:href="#ArialMT-35" transform="translate(55.615234 0)"/>
       <use xlink:href="#ArialMT-30" transform="translate(111.230469 0)"/>
      </g>
     </g>
    </g>
    <g id="xtick_5">
     <g id="line2d_9">
      <path d="M 687.886755 533.5752 
L 687.886755 25.3248 
" clip-path="url(#p5f1d914d0b)" style="fill: none; stroke: #cccccc; stroke-width: 0.8; stroke-linecap: round"/>
     </g>
     <g id="line2d_10">
      <g>
       <use xlink:href="#m9eb2894a99" x="687.886755" y="533.5752" style="fill: #262626; stroke: #262626"/>
      </g>
     </g>
     <g id="text_5">
      <!-- 200 -->
      <g style="fill: #262626" transform="translate(679.812273 548.803963) scale(0.0968 -0.0968)">
       <defs>
        <path id="ArialMT-32" d="M 3222 541 
L 3222 0 
L 194 0 
Q 188 203 259 391 
Q 375 700 629 1000 
Q 884 1300 1366 1694 
Q 2113 2306 2375 2664 
Q 2638 3022 2638 3341 
Q 2638 3675 2398 3904 
Q 2159 4134 1775 4134 
Q 1369 4134 1125 3890 
Q 881 3647 878 3216 
L 300 3275 
Q 359 3922 746 4261 
Q 1134 4600 1788 4600 
Q 2447 4600 2831 4234 
Q 3216 3869 3216 3328 
Q 3216 3053 3103 2787 
Q 2991 2522 2730 2228 
Q 2469 1934 1863 1422 
Q 1356 997 1212 845 
Q 1069 694 975 541 
L 3222 541 
z
" transform="scale(0.015625)"/>
       </defs>
       <use xlink:href="#ArialMT-32"/>
       <use xlink:href="#ArialMT-30" transform="translate(55.615234 0)"/>
       <use xlink:href="#ArialMT-30" transform="translate(111.230469 0)"/>
      </g>
     </g>
    </g>
    <g id="xtick_6">
     <g id="line2d_11">
      <path d="M 837.903539 533.5752 
L 837.903539 25.3248 
" clip-path="url(#p5f1d914d0b)" style="fill: none; stroke: #cccccc; stroke-width: 0.8; stroke-linecap: round"/>
     </g>
     <g id="line2d_12">
      <g>
       <use xlink:href="#m9eb2894a99" x="837.903539" y="533.5752" style="fill: #262626; stroke: #262626"/>
      </g>
     </g>
     <g id="text_6">
      <!-- 250 -->
      <g style="fill: #262626" transform="translate(829.829058 548.803963) scale(0.0968 -0.0968)">
       <use xlink:href="#ArialMT-32"/>
       <use xlink:href="#ArialMT-35" transform="translate(55.615234 0)"/>
       <use xlink:href="#ArialMT-30" transform="translate(111.230469 0)"/>
      </g>
     </g>
    </g>
    <g id="xtick_7">
     <g id="line2d_13">
      <path d="M 987.920323 533.5752 
L 987.920323 25.3248 
" clip-path="url(#p5f1d914d0b)" style="fill: none; stroke: #cccccc; stroke-width: 0.8; stroke-linecap: round"/>
     </g>
     <g id="line2d_14">
      <g>
       <use xlink:href="#m9eb2894a99" x="987.920323" y="533.5752" style="fill: #262626; stroke: #262626"/>
      </g>
     </g>
     <g id="text_7">
      <!-- 300 -->
      <g style="fill: #262626" transform="translate(979.845842 548.803963) scale(0.0968 -0.0968)">
       <defs>
        <path id="ArialMT-33" d="M 269 1209 
L 831 1284 
Q 928 806 1161 595 
Q 1394 384 1728 384 
Q 2125 384 2398 659 
Q 2672 934 2672 1341 
Q 2672 1728 2419 1979 
Q 2166 2231 1775 2231 
Q 1616 2231 1378 2169 
L 1441 2663 
Q 1497 2656 1531 2656 
Q 1891 2656 2178 2843 
Q 2466 3031 2466 3422 
Q 2466 3731 2256 3934 
Q 2047 4138 1716 4138 
Q 1388 4138 1169 3931 
Q 950 3725 888 3313 
L 325 3413 
Q 428 3978 793 4289 
Q 1159 4600 1703 4600 
Q 2078 4600 2393 4439 
Q 2709 4278 2876 4000 
Q 3044 3722 3044 3409 
Q 3044 3113 2884 2869 
Q 2725 2625 2413 2481 
Q 2819 2388 3044 2092 
Q 3269 1797 3269 1353 
Q 3269 753 2831 336 
Q 2394 -81 1725 -81 
Q 1122 -81 723 278 
Q 325 638 269 1209 
z
" transform="scale(0.015625)"/>
       </defs>
       <use xlink:href="#ArialMT-33"/>
       <use xlink:href="#ArialMT-30" transform="translate(55.615234 0)"/>
       <use xlink:href="#ArialMT-30" transform="translate(111.230469 0)"/>
      </g>
     </g>
    </g>
    <g id="text_8">
     <!-- Hour (sorted) -->
     <g style="fill: #262626" transform="translate(487.267763 562.415213) scale(0.1056 -0.1056)">
      <defs>
       <path id="ArialMT-48" d="M 513 0 
L 513 4581 
L 1119 4581 
L 1119 2700 
L 3500 2700 
L 3500 4581 
L 4106 4581 
L 4106 0 
L 3500 0 
L 3500 2159 
L 1119 2159 
L 1119 0 
L 513 0 
z
" transform="scale(0.015625)"/>
       <path id="ArialMT-6f" d="M 213 1659 
Q 213 2581 725 3025 
Q 1153 3394 1769 3394 
Q 2453 3394 2887 2945 
Q 3322 2497 3322 1706 
Q 3322 1066 3130 698 
Q 2938 331 2570 128 
Q 2203 -75 1769 -75 
Q 1072 -75 642 372 
Q 213 819 213 1659 
z
M 791 1659 
Q 791 1022 1069 705 
Q 1347 388 1769 388 
Q 2188 388 2466 706 
Q 2744 1025 2744 1678 
Q 2744 2294 2464 2611 
Q 2184 2928 1769 2928 
Q 1347 2928 1069 2612 
Q 791 2297 791 1659 
z
" transform="scale(0.015625)"/>
       <path id="ArialMT-75" d="M 2597 0 
L 2597 488 
Q 2209 -75 1544 -75 
Q 1250 -75 995 37 
Q 741 150 617 320 
Q 494 491 444 738 
Q 409 903 409 1263 
L 409 3319 
L 972 3319 
L 972 1478 
Q 972 1038 1006 884 
Q 1059 663 1231 536 
Q 1403 409 1656 409 
Q 1909 409 2131 539 
Q 2353 669 2445 892 
Q 2538 1116 2538 1541 
L 2538 3319 
L 3100 3319 
L 3100 0 
L 2597 0 
z
" transform="scale(0.015625)"/>
       <path id="ArialMT-72" d="M 416 0 
L 416 3319 
L 922 3319 
L 922 2816 
Q 1116 3169 1280 3281 
Q 1444 3394 1641 3394 
Q 1925 3394 2219 3213 
L 2025 2691 
Q 1819 2813 1613 2813 
Q 1428 2813 1281 2702 
Q 1134 2591 1072 2394 
Q 978 2094 978 1738 
L 978 0 
L 416 0 
z
" transform="scale(0.015625)"/>
       <path id="ArialMT-20" transform="scale(0.015625)"/>
       <path id="ArialMT-28" d="M 1497 -1347 
Q 1031 -759 709 28 
Q 388 816 388 1659 
Q 388 2403 628 3084 
Q 909 3875 1497 4659 
L 1900 4659 
Q 1522 4009 1400 3731 
Q 1209 3300 1100 2831 
Q 966 2247 966 1656 
Q 966 153 1900 -1347 
L 1497 -1347 
z
" transform="scale(0.015625)"/>
       <path id="ArialMT-73" d="M 197 991 
L 753 1078 
Q 800 744 1014 566 
Q 1228 388 1613 388 
Q 2000 388 2187 545 
Q 2375 703 2375 916 
Q 2375 1106 2209 1216 
Q 2094 1291 1634 1406 
Q 1016 1563 777 1677 
Q 538 1791 414 1992 
Q 291 2194 291 2438 
Q 291 2659 392 2848 
Q 494 3038 669 3163 
Q 800 3259 1026 3326 
Q 1253 3394 1513 3394 
Q 1903 3394 2198 3281 
Q 2494 3169 2634 2976 
Q 2775 2784 2828 2463 
L 2278 2388 
Q 2241 2644 2061 2787 
Q 1881 2931 1553 2931 
Q 1166 2931 1000 2803 
Q 834 2675 834 2503 
Q 834 2394 903 2306 
Q 972 2216 1119 2156 
Q 1203 2125 1616 2013 
Q 2213 1853 2448 1751 
Q 2684 1650 2818 1456 
Q 2953 1263 2953 975 
Q 2953 694 2789 445 
Q 2625 197 2315 61 
Q 2006 -75 1616 -75 
Q 969 -75 630 194 
Q 291 463 197 991 
z
" transform="scale(0.015625)"/>
       <path id="ArialMT-74" d="M 1650 503 
L 1731 6 
Q 1494 -44 1306 -44 
Q 1000 -44 831 53 
Q 663 150 594 308 
Q 525 466 525 972 
L 525 2881 
L 113 2881 
L 113 3319 
L 525 3319 
L 525 4141 
L 1084 4478 
L 1084 3319 
L 1650 3319 
L 1650 2881 
L 1084 2881 
L 1084 941 
Q 1084 700 1114 631 
Q 1144 563 1211 522 
Q 1278 481 1403 481 
Q 1497 481 1650 503 
z
" transform="scale(0.015625)"/>
       <path id="ArialMT-65" d="M 2694 1069 
L 3275 997 
Q 3138 488 2766 206 
Q 2394 -75 1816 -75 
Q 1088 -75 661 373 
Q 234 822 234 1631 
Q 234 2469 665 2931 
Q 1097 3394 1784 3394 
Q 2450 3394 2872 2941 
Q 3294 2488 3294 1666 
Q 3294 1616 3291 1516 
L 816 1516 
Q 847 969 1125 678 
Q 1403 388 1819 388 
Q 2128 388 2347 550 
Q 2566 713 2694 1069 
z
M 847 1978 
L 2700 1978 
Q 2663 2397 2488 2606 
Q 2219 2931 1791 2931 
Q 1403 2931 1139 2672 
Q 875 2413 847 1978 
z
" transform="scale(0.015625)"/>
       <path id="ArialMT-64" d="M 2575 0 
L 2575 419 
Q 2259 -75 1647 -75 
Q 1250 -75 917 144 
Q 584 363 401 755 
Q 219 1147 219 1656 
Q 219 2153 384 2558 
Q 550 2963 881 3178 
Q 1213 3394 1622 3394 
Q 1922 3394 2156 3267 
Q 2391 3141 2538 2938 
L 2538 4581 
L 3097 4581 
L 3097 0 
L 2575 0 
z
M 797 1656 
Q 797 1019 1065 703 
Q 1334 388 1700 388 
Q 2069 388 2326 689 
Q 2584 991 2584 1609 
Q 2584 2291 2321 2609 
Q 2059 2928 1675 2928 
Q 1300 2928 1048 2622 
Q 797 2316 797 1656 
z
" transform="scale(0.015625)"/>
       <path id="ArialMT-29" d="M 791 -1347 
L 388 -1347 
Q 1322 153 1322 1656 
Q 1322 2244 1188 2822 
Q 1081 3291 891 3722 
Q 769 4003 388 4659 
L 791 4659 
Q 1378 3875 1659 3084 
Q 1900 2403 1900 1659 
Q 1900 816 1576 28 
Q 1253 -759 791 -1347 
z
" transform="scale(0.015625)"/>
      </defs>
      <use xlink:href="#ArialMT-48"/>
      <use xlink:href="#ArialMT-6f" transform="translate(72.216797 0)"/>
      <use xlink:href="#ArialMT-75" transform="translate(127.832031 0)"/>
      <use xlink:href="#ArialMT-72" transform="translate(183.447266 0)"/>
      <use xlink:href="#ArialMT-20" transform="translate(216.748047 0)"/>
      <use xlink:href="#ArialMT-28" transform="translate(244.53125 0)"/>
      <use xlink:href="#ArialMT-73" transform="translate(277.832031 0)"/>
      <use xlink:href="#ArialMT-6f" transform="translate(327.832031 0)"/>
      <use xlink:href="#ArialMT-72" transform="translate(383.447266 0)"/>
      <use xlink:href="#ArialMT-74" transform="translate(416.748047 0)"/>
      <use xlink:href="#ArialMT-65" transform="translate(444.53125 0)"/>
      <use xlink:href="#ArialMT-64" transform="translate(500.146484 0)"/>
      <use xlink:href="#ArialMT-29" transform="translate(555.761719 0)"/>
     </g>
    </g>
   </g>
   <g id="matplotlib.axis_2">
    <g id="ytick_1">
     <g id="line2d_15">
      <path d="M 44.7648 528.093174 
L 991.970776 528.093174 
" clip-path="url(#p5f1d914d0b)" style="fill: none; stroke: #cccccc; stroke-width: 0.8; stroke-linecap: round"/>
     </g>
     <g id="line2d_16">
      <defs>
       <path id="ma1cf05315e" d="M 0 0 
L -4.8 0 
" style="stroke: #262626"/>
      </defs>
      <g>
       <use xlink:href="#ma1cf05315e" x="44.7648" y="528.093174" style="fill: #262626; stroke: #262626"/>
      </g>
     </g>
     <g id="text_9">
      <!-- −6 -->
      <g style="fill: #262626" transform="translate(25.428087 531.557556) scale(0.0968 -0.0968)">
       <defs>
        <path id="ArialMT-2212" d="M 3381 1997 
L 356 1997 
L 356 2522 
L 3381 2522 
L 3381 1997 
z
" transform="scale(0.015625)"/>
        <path id="ArialMT-36" d="M 3184 3459 
L 2625 3416 
Q 2550 3747 2413 3897 
Q 2184 4138 1850 4138 
Q 1581 4138 1378 3988 
Q 1113 3794 959 3422 
Q 806 3050 800 2363 
Q 1003 2672 1297 2822 
Q 1591 2972 1913 2972 
Q 2475 2972 2870 2558 
Q 3266 2144 3266 1488 
Q 3266 1056 3080 686 
Q 2894 316 2569 119 
Q 2244 -78 1831 -78 
Q 1128 -78 684 439 
Q 241 956 241 2144 
Q 241 3472 731 4075 
Q 1159 4600 1884 4600 
Q 2425 4600 2770 4297 
Q 3116 3994 3184 3459 
z
M 888 1484 
Q 888 1194 1011 928 
Q 1134 663 1356 523 
Q 1578 384 1822 384 
Q 2178 384 2434 671 
Q 2691 959 2691 1453 
Q 2691 1928 2437 2201 
Q 2184 2475 1800 2475 
Q 1419 2475 1153 2201 
Q 888 1928 888 1484 
z
" transform="scale(0.015625)"/>
       </defs>
       <use xlink:href="#ArialMT-2212"/>
       <use xlink:href="#ArialMT-36" transform="translate(58.398438 0)"/>
      </g>
     </g>
    </g>
    <g id="ytick_2">
     <g id="line2d_17">
      <path d="M 44.7648 448.770846 
L 991.970776 448.770846 
" clip-path="url(#p5f1d914d0b)" style="fill: none; stroke: #cccccc; stroke-width: 0.8; stroke-linecap: round"/>
     </g>
     <g id="line2d_18">
      <g>
       <use xlink:href="#ma1cf05315e" x="44.7648" y="448.770846" style="fill: #262626; stroke: #262626"/>
      </g>
     </g>
     <g id="text_10">
      <!-- −4 -->
      <g style="fill: #262626" transform="translate(25.428087 452.235228) scale(0.0968 -0.0968)">
       <defs>
        <path id="ArialMT-34" d="M 2069 0 
L 2069 1097 
L 81 1097 
L 81 1613 
L 2172 4581 
L 2631 4581 
L 2631 1613 
L 3250 1613 
L 3250 1097 
L 2631 1097 
L 2631 0 
L 2069 0 
z
M 2069 1613 
L 2069 3678 
L 634 1613 
L 2069 1613 
z
" transform="scale(0.015625)"/>
       </defs>
       <use xlink:href="#ArialMT-2212"/>
       <use xlink:href="#ArialMT-34" transform="translate(58.398438 0)"/>
      </g>
     </g>
    </g>
    <g id="ytick_3">
     <g id="line2d_19">
      <path d="M 44.7648 369.448518 
L 991.970776 369.448518 
" clip-path="url(#p5f1d914d0b)" style="fill: none; stroke: #cccccc; stroke-width: 0.8; stroke-linecap: round"/>
     </g>
     <g id="line2d_20">
      <g>
       <use xlink:href="#ma1cf05315e" x="44.7648" y="369.448518" style="fill: #262626; stroke: #262626"/>
      </g>
     </g>
     <g id="text_11">
      <!-- −2 -->
      <g style="fill: #262626" transform="translate(25.428087 372.9129) scale(0.0968 -0.0968)">
       <use xlink:href="#ArialMT-2212"/>
       <use xlink:href="#ArialMT-32" transform="translate(58.398438 0)"/>
      </g>
     </g>
    </g>
    <g id="ytick_4">
     <g id="line2d_21">
      <path d="M 44.7648 290.12619 
L 991.970776 290.12619 
" clip-path="url(#p5f1d914d0b)" style="fill: none; stroke: #cccccc; stroke-width: 0.8; stroke-linecap: round"/>
     </g>
     <g id="line2d_22">
      <g>
       <use xlink:href="#ma1cf05315e" x="44.7648" y="290.12619" style="fill: #262626; stroke: #262626"/>
      </g>
     </g>
     <g id="text_12">
      <!-- 0 -->
      <g style="fill: #262626" transform="translate(31.081812 293.590572) scale(0.0968 -0.0968)">
       <use xlink:href="#ArialMT-30"/>
      </g>
     </g>
    </g>
    <g id="ytick_5">
     <g id="line2d_23">
      <path d="M 44.7648 210.803862 
L 991.970776 210.803862 
" clip-path="url(#p5f1d914d0b)" style="fill: none; stroke: #cccccc; stroke-width: 0.8; stroke-linecap: round"/>
     </g>
     <g id="line2d_24">
      <g>
       <use xlink:href="#ma1cf05315e" x="44.7648" y="210.803862" style="fill: #262626; stroke: #262626"/>
      </g>
     </g>
     <g id="text_13">
      <!-- 2 -->
      <g style="fill: #262626" transform="translate(31.081812 214.268244) scale(0.0968 -0.0968)">
       <use xlink:href="#ArialMT-32"/>
      </g>
     </g>
    </g>
    <g id="ytick_6">
     <g id="line2d_25">
      <path d="M 44.7648 131.481534 
L 991.970776 131.481534 
" clip-path="url(#p5f1d914d0b)" style="fill: none; stroke: #cccccc; stroke-width: 0.8; stroke-linecap: round"/>
     </g>
     <g id="line2d_26">
      <g>
       <use xlink:href="#ma1cf05315e" x="44.7648" y="131.481534" style="fill: #262626; stroke: #262626"/>
      </g>
     </g>
     <g id="text_14">
      <!-- 4 -->
      <g style="fill: #262626" transform="translate(31.081812 134.945916) scale(0.0968 -0.0968)">
       <use xlink:href="#ArialMT-34"/>
      </g>
     </g>
    </g>
    <g id="ytick_7">
     <g id="line2d_27">
      <path d="M 44.7648 52.159206 
L 991.970776 52.159206 
" clip-path="url(#p5f1d914d0b)" style="fill: none; stroke: #cccccc; stroke-width: 0.8; stroke-linecap: round"/>
     </g>
     <g id="line2d_28">
      <g>
       <use xlink:href="#ma1cf05315e" x="44.7648" y="52.159206" style="fill: #262626; stroke: #262626"/>
      </g>
     </g>
     <g id="text_15">
      <!-- 6 -->
      <g style="fill: #262626" transform="translate(31.081812 55.623588) scale(0.0968 -0.0968)">
       <use xlink:href="#ArialMT-36"/>
      </g>
     </g>
    </g>
    <g id="text_16">
     <!-- Generator Output (GW) -->
     <g style="fill: #262626" transform="translate(19.205537 334.610325) rotate(-90) scale(0.1056 -0.1056)">
      <defs>
       <path id="ArialMT-47" d="M 2638 1797 
L 2638 2334 
L 4578 2338 
L 4578 638 
Q 4131 281 3656 101 
Q 3181 -78 2681 -78 
Q 2006 -78 1454 211 
Q 903 500 622 1047 
Q 341 1594 341 2269 
Q 341 2938 620 3517 
Q 900 4097 1425 4378 
Q 1950 4659 2634 4659 
Q 3131 4659 3532 4498 
Q 3934 4338 4162 4050 
Q 4391 3763 4509 3300 
L 3963 3150 
Q 3859 3500 3706 3700 
Q 3553 3900 3268 4020 
Q 2984 4141 2638 4141 
Q 2222 4141 1919 4014 
Q 1616 3888 1430 3681 
Q 1244 3475 1141 3228 
Q 966 2803 966 2306 
Q 966 1694 1177 1281 
Q 1388 869 1791 669 
Q 2194 469 2647 469 
Q 3041 469 3416 620 
Q 3791 772 3984 944 
L 3984 1797 
L 2638 1797 
z
" transform="scale(0.015625)"/>
       <path id="ArialMT-6e" d="M 422 0 
L 422 3319 
L 928 3319 
L 928 2847 
Q 1294 3394 1984 3394 
Q 2284 3394 2536 3286 
Q 2788 3178 2913 3003 
Q 3038 2828 3088 2588 
Q 3119 2431 3119 2041 
L 3119 0 
L 2556 0 
L 2556 2019 
Q 2556 2363 2490 2533 
Q 2425 2703 2258 2804 
Q 2091 2906 1866 2906 
Q 1506 2906 1245 2678 
Q 984 2450 984 1813 
L 984 0 
L 422 0 
z
" transform="scale(0.015625)"/>
       <path id="ArialMT-61" d="M 2588 409 
Q 2275 144 1986 34 
Q 1697 -75 1366 -75 
Q 819 -75 525 192 
Q 231 459 231 875 
Q 231 1119 342 1320 
Q 453 1522 633 1644 
Q 813 1766 1038 1828 
Q 1203 1872 1538 1913 
Q 2219 1994 2541 2106 
Q 2544 2222 2544 2253 
Q 2544 2597 2384 2738 
Q 2169 2928 1744 2928 
Q 1347 2928 1158 2789 
Q 969 2650 878 2297 
L 328 2372 
Q 403 2725 575 2942 
Q 747 3159 1072 3276 
Q 1397 3394 1825 3394 
Q 2250 3394 2515 3294 
Q 2781 3194 2906 3042 
Q 3031 2891 3081 2659 
Q 3109 2516 3109 2141 
L 3109 1391 
Q 3109 606 3145 398 
Q 3181 191 3288 0 
L 2700 0 
Q 2613 175 2588 409 
z
M 2541 1666 
Q 2234 1541 1622 1453 
Q 1275 1403 1131 1340 
Q 988 1278 909 1158 
Q 831 1038 831 891 
Q 831 666 1001 516 
Q 1172 366 1500 366 
Q 1825 366 2078 508 
Q 2331 650 2450 897 
Q 2541 1088 2541 1459 
L 2541 1666 
z
" transform="scale(0.015625)"/>
       <path id="ArialMT-4f" d="M 309 2231 
Q 309 3372 921 4017 
Q 1534 4663 2503 4663 
Q 3138 4663 3647 4359 
Q 4156 4056 4423 3514 
Q 4691 2972 4691 2284 
Q 4691 1588 4409 1038 
Q 4128 488 3612 205 
Q 3097 -78 2500 -78 
Q 1853 -78 1343 234 
Q 834 547 571 1087 
Q 309 1628 309 2231 
z
M 934 2222 
Q 934 1394 1379 917 
Q 1825 441 2497 441 
Q 3181 441 3623 922 
Q 4066 1403 4066 2288 
Q 4066 2847 3877 3264 
Q 3688 3681 3323 3911 
Q 2959 4141 2506 4141 
Q 1863 4141 1398 3698 
Q 934 3256 934 2222 
z
" transform="scale(0.015625)"/>
       <path id="ArialMT-70" d="M 422 -1272 
L 422 3319 
L 934 3319 
L 934 2888 
Q 1116 3141 1344 3267 
Q 1572 3394 1897 3394 
Q 2322 3394 2647 3175 
Q 2972 2956 3137 2557 
Q 3303 2159 3303 1684 
Q 3303 1175 3120 767 
Q 2938 359 2589 142 
Q 2241 -75 1856 -75 
Q 1575 -75 1351 44 
Q 1128 163 984 344 
L 984 -1272 
L 422 -1272 
z
M 931 1641 
Q 931 1000 1190 694 
Q 1450 388 1819 388 
Q 2194 388 2461 705 
Q 2728 1022 2728 1688 
Q 2728 2322 2467 2637 
Q 2206 2953 1844 2953 
Q 1484 2953 1207 2617 
Q 931 2281 931 1641 
z
" transform="scale(0.015625)"/>
       <path id="ArialMT-57" d="M 1294 0 
L 78 4581 
L 700 4581 
L 1397 1578 
Q 1509 1106 1591 641 
Q 1766 1375 1797 1488 
L 2669 4581 
L 3400 4581 
L 4056 2263 
Q 4303 1400 4413 641 
Q 4500 1075 4641 1638 
L 5359 4581 
L 5969 4581 
L 4713 0 
L 4128 0 
L 3163 3491 
Q 3041 3928 3019 4028 
Q 2947 3713 2884 3491 
L 1913 0 
L 1294 0 
z
" transform="scale(0.015625)"/>
      </defs>
      <use xlink:href="#ArialMT-47"/>
      <use xlink:href="#ArialMT-65" transform="translate(77.783203 0)"/>
      <use xlink:href="#ArialMT-6e" transform="translate(133.398438 0)"/>
      <use xlink:href="#ArialMT-65" transform="translate(189.013672 0)"/>
      <use xlink:href="#ArialMT-72" transform="translate(244.628906 0)"/>
      <use xlink:href="#ArialMT-61" transform="translate(277.929688 0)"/>
      <use xlink:href="#ArialMT-74" transform="translate(333.544922 0)"/>
      <use xlink:href="#ArialMT-6f" transform="translate(361.328125 0)"/>
      <use xlink:href="#ArialMT-72" transform="translate(416.943359 0)"/>
      <use xlink:href="#ArialMT-20" transform="translate(450.244141 0)"/>
      <use xlink:href="#ArialMT-4f" transform="translate(478.027344 0)"/>
      <use xlink:href="#ArialMT-75" transform="translate(555.810547 0)"/>
      <use xlink:href="#ArialMT-74" transform="translate(611.425781 0)"/>
      <use xlink:href="#ArialMT-70" transform="translate(639.208984 0)"/>
      <use xlink:href="#ArialMT-75" transform="translate(694.824219 0)"/>
      <use xlink:href="#ArialMT-74" transform="translate(750.439453 0)"/>
      <use xlink:href="#ArialMT-20" transform="translate(778.222656 0)"/>
      <use xlink:href="#ArialMT-28" transform="translate(806.005859 0)"/>
      <use xlink:href="#ArialMT-47" transform="translate(839.306641 0)"/>
      <use xlink:href="#ArialMT-57" transform="translate(917.089844 0)"/>
      <use xlink:href="#ArialMT-29" transform="translate(1011.474609 0)"/>
     </g>
    </g>
   </g>
   <g id="line2d_29">
    <path d="M 87.819617 48.427091 
L 720.890447 48.437799 
L 723.890783 54.72568 
L 726.891119 57.135493 
L 729.891454 57.908489 
L 732.89179 58.364989 
L 735.892126 60.225494 
L 738.892461 60.820808 
L 741.892797 61.230111 
L 744.893133 62.359661 
L 747.893468 63.654598 
L 750.893804 64.029793 
L 756.894475 68.677288 
L 759.894811 70.112626 
L 762.895147 71.204894 
L 765.895482 73.852673 
L 768.895818 75.517252 
L 771.896154 77.477704 
L 774.89649 87.57147 
L 777.896825 88.526907 
L 780.897161 88.773996 
L 783.897497 90.206161 
L 786.897832 90.545264 
L 789.898168 90.57501 
L 792.898504 92.176924 
L 798.899175 92.603678 
L 801.899511 93.713001 
L 804.899846 93.716967 
L 807.900182 94.339251 
L 810.900518 95.74048 
L 813.900853 95.910626 
L 816.901189 96.493645 
L 819.901525 103.16624 
L 822.901861 105.041816 
L 825.902196 105.766426 
L 828.902532 107.339784 
L 831.902868 111.0953 
L 834.903203 112.17448 
L 837.903539 114.209494 
L 840.903875 119.413039 
L 843.90421 120.0262 
L 846.904546 122.642251 
L 849.904882 123.375189 
L 852.905217 124.938632 
L 855.905553 125.114728 
L 858.905889 126.808259 
L 861.906224 129.432639 
L 864.90656 129.78245 
L 867.906896 130.639131 
L 870.907232 134.224104 
L 873.907567 134.444223 
L 876.907903 134.801174 
L 879.908239 137.117386 
L 882.908574 138.273509 
L 885.90891 143.518301 
L 888.909246 143.743577 
L 891.909581 146.205742 
L 894.909917 147.169904 
L 897.910253 148.28002 
L 900.910588 148.926894 
L 903.910924 148.93324 
L 906.91126 150.081431 
L 915.912267 152.566202 
L 921.912938 154.602407 
L 924.913274 156.029812 
L 927.91361 156.778615 
L 930.913945 160.437357 
L 933.914281 169.772802 
L 936.914617 177.964022 
L 939.914952 182.352133 
L 942.915288 183.348025 
L 945.915624 192.796504 
L 948.915959 193.801121 
L 948.915959 193.801121 
" clip-path="url(#p5f1d914d0b)" style="fill: none; stroke: #1f77b4; stroke-width: 2.5; stroke-linecap: round"/>
   </g>
   <g id="line2d_30">
    <path d="M 87.819617 118.92719 
L 198.832038 118.928776 
L 201.832373 119.874298 
L 207.833045 120.479528 
L 210.83338 121.840302 
L 213.833716 125.761601 
L 219.834387 131.398246 
L 222.834723 132.739587 
L 225.835059 135.504366 
L 228.835394 136.154809 
L 231.83573 136.276569 
L 234.836066 137.324417 
L 237.836401 137.772192 
L 240.836737 140.159397 
L 249.837744 140.719809 
L 252.83808 140.768593 
L 255.838416 141.541985 
L 258.838751 141.779952 
L 261.839087 142.178944 
L 264.839423 142.401046 
L 267.839758 143.026503 
L 270.840094 145.333196 
L 273.84043 146.682469 
L 276.840765 147.200444 
L 279.841101 149.137495 
L 282.841437 149.319936 
L 285.841772 151.152282 
L 291.842444 152.384951 
L 297.843115 152.531697 
L 303.843787 153.308659 
L 306.844122 155.425376 
L 309.844458 155.732353 
L 312.844794 158.304776 
L 315.845129 158.523309 
L 318.845465 160.039556 
L 321.845801 160.540873 
L 324.846136 161.509002 
L 330.846808 162.911024 
L 333.847143 164.700932 
L 336.847479 164.760027 
L 339.847815 166.103351 
L 342.848151 166.208056 
L 348.848822 166.935046 
L 351.849158 166.988588 
L 354.849493 168.588519 
L 357.849829 170.036549 
L 360.850165 171.923627 
L 363.8505 172.30834 
L 366.850836 173.284401 
L 369.851172 174.442111 
L 375.851843 175.006489 
L 378.852179 176.342674 
L 384.85285 176.608007 
L 387.853186 177.54758 
L 390.853522 178.040568 
L 393.853857 178.668404 
L 396.854193 178.681096 
L 399.854529 179.106264 
L 402.854864 179.18043 
L 405.8552 179.386271 
L 408.855536 179.980396 
L 411.855871 181.65489 
L 414.856207 182.076092 
L 417.856543 182.099095 
L 420.856878 182.496103 
L 423.857214 183.091814 
L 426.85755 184.968977 
L 429.857885 185.49528 
L 435.858557 187.182466 
L 438.858893 187.243148 
L 441.859228 187.939995 
L 444.859564 189.082236 
L 447.8599 189.616869 
L 453.860571 189.897273 
L 456.860907 192.453435 
L 459.861242 192.763189 
L 465.861914 193.799932 
L 468.862249 194.517799 
L 471.862585 194.639955 
L 474.862921 195.412555 
L 477.863256 195.422073 
L 480.863592 196.730892 
L 483.863928 197.193737 
L 486.864264 197.195324 
L 489.864599 198.235636 
L 492.864935 198.270538 
L 495.865271 199.957327 
L 501.865942 200.129457 
L 507.866613 200.744998 
L 513.867285 201.662757 
L 516.86762 202.787548 
L 519.867956 204.845169 
L 522.868292 205.46071 
L 525.868627 207.926445 
L 528.868963 208.308779 
L 531.869299 209.172995 
L 534.869635 209.424051 
L 537.86997 210.65077 
L 540.870306 211.503882 
L 543.870642 211.558218 
L 546.870977 212.512069 
L 552.871649 213.864911 
L 555.871984 214.122709 
L 558.87232 216.701874 
L 561.872656 217.058825 
L 570.873663 219.173558 
L 573.873998 219.645526 
L 576.874334 219.988198 
L 579.87467 221.29543 
L 582.875006 221.601614 
L 585.875341 223.021881 
L 588.875677 226.493422 
L 591.876013 230.838699 
L 594.876348 231.253159 
L 597.876684 231.508973 
L 600.87702 231.909154 
L 603.877355 237.170208 
L 606.877691 237.663196 
L 609.878027 239.804502 
L 612.878362 240.916601 
L 615.878698 241.060571 
L 618.879034 242.657726 
L 621.879369 244.547977 
L 624.879705 248.003258 
L 627.880041 248.794102 
L 630.880377 249.386639 
L 633.880712 251.273718 
L 636.881048 252.868096 
L 639.881384 254.127735 
L 645.882055 254.752795 
L 648.882391 255.624944 
L 651.882726 255.91923 
L 654.883062 258.837895 
L 657.883398 260.45964 
L 660.883733 261.459498 
L 666.884405 261.572135 
L 669.88474 262.619983 
L 672.885076 263.950615 
L 678.885748 264.779534 
L 681.886083 270.067557 
L 684.886419 271.437453 
L 687.886755 271.679783 
L 690.88709 273.640631 
L 693.887426 274.489777 
L 696.887762 276.72151 
L 699.888097 277.281526 
L 702.888433 278.557029 
L 705.888769 279.088092 
L 708.889104 280.576179 
L 711.88944 282.491813 
L 714.889776 287.662042 
L 717.890111 288.994657 
L 720.890447 289.854511 
L 723.890783 290.115085 
L 948.915959 290.119845 
L 948.915959 290.119845 
" clip-path="url(#p5f1d914d0b)" style="fill: none; stroke: #ff7f0e; stroke-width: 2.5; stroke-linecap: round"/>
   </g>
   <g id="line2d_31">
    <path d="M 87.819617 228.02593 
L 96.820624 228.02593 
L 99.82096 230.670139 
L 102.821296 232.722208 
L 105.821631 234.250353 
L 108.821967 238.163323 
L 111.822303 238.832804 
L 114.822638 239.179046 
L 117.822974 240.099581 
L 120.82331 243.757134 
L 126.823981 248.061163 
L 129.824317 248.839315 
L 132.824652 248.969404 
L 135.824988 252.399698 
L 138.825324 253.485621 
L 141.825659 256.541117 
L 144.825995 257.248672 
L 147.826331 260.798743 
L 150.826667 261.239378 
L 153.827002 261.239378 
L 156.827338 265.424424 
L 159.827674 267.760467 
L 162.828009 267.948857 
L 165.828345 268.454934 
L 168.828681 271.31966 
L 171.829016 271.970896 
L 174.829352 274.012653 
L 177.829688 275.820409 
L 180.830023 276.949165 
L 183.830359 277.409235 
L 186.830695 279.9182 
L 192.831366 286.649096 
L 195.831702 287.325319 
L 198.832038 289.867203 
L 201.832373 290.12619 
L 948.915959 290.12619 
L 948.915959 290.12619 
" clip-path="url(#p5f1d914d0b)" style="fill: none; stroke: #2ca02c; stroke-width: 2.5; stroke-linecap: round"/>
   </g>
   <g id="line2d_32">
    <path d="M 87.819617 285.523512 
L 90.819953 289.14537 
L 93.820288 293.251887 
L 96.820624 293.259026 
L 99.82096 295.63116 
L 102.821296 296.096385 
L 150.826667 296.105904 
L 165.828345 296.107491 
L 168.828681 296.692889 
L 171.829016 296.701218 
L 174.829352 298.498266 
L 207.833045 298.611696 
L 210.83338 298.631527 
L 213.833716 299.095166 
L 216.834052 299.694843 
L 249.837744 299.784477 
L 255.838416 300.871193 
L 291.842444 300.897766 
L 294.84278 301.469283 
L 297.843115 301.486734 
L 300.843451 302.061821 
L 318.845465 302.169699 
L 327.846472 302.231174 
L 330.846808 303.252846 
L 339.847815 303.380158 
L 345.848486 304.576736 
L 348.848822 305.741981 
L 351.849158 305.755069 
L 357.849829 306.927056 
L 363.8505 306.995273 
L 369.851172 309.363045 
L 372.851507 309.898074 
L 378.852179 309.974223 
L 384.85285 311.087116 
L 387.853186 311.093858 
L 390.853522 311.605487 
L 402.854864 311.713762 
L 405.8552 312.793339 
L 408.855536 312.797305 
L 411.855871 313.391033 
L 420.856878 313.513586 
L 423.857214 313.994279 
L 432.858221 314.062496 
L 435.858557 314.678037 
L 438.858893 314.746255 
L 441.859228 315.281284 
L 444.859564 315.319755 
L 447.8599 315.776255 
L 450.860235 315.788947 
L 453.860571 316.368 
L 456.860907 316.460013 
L 459.861242 317.054931 
L 462.861578 317.083884 
L 465.861914 318.806368 
L 468.862249 318.911073 
L 471.862585 319.362021 
L 480.863592 319.474659 
L 483.863928 319.996996 
L 492.864935 320.054505 
L 495.865271 320.64387 
L 498.865606 321.821806 
L 501.865942 321.84362 
L 504.866278 322.980705 
L 507.866613 323.020367 
L 510.866949 323.542704 
L 516.86762 323.601006 
L 519.867956 324.143571 
L 522.868292 324.166178 
L 525.868627 324.806705 
L 528.868963 324.809878 
L 534.869635 325.373067 
L 540.870306 325.401226 
L 546.870977 326.511739 
L 549.871313 326.546244 
L 552.871649 326.885744 
L 555.871984 327.108639 
L 558.87232 327.715852 
L 567.873327 327.8039 
L 570.873663 328.910049 
L 576.874334 328.926707 
L 579.87467 329.8171 
L 582.875006 330.185156 
L 585.875341 332.492642 
L 588.875677 332.553324 
L 591.876013 333.077248 
L 594.876348 333.174021 
L 597.876684 335.159062 
L 600.87702 335.495389 
L 603.877355 335.566383 
L 606.877691 335.755963 
L 609.878027 336.111724 
L 612.878362 336.749872 
L 618.879034 336.868855 
L 621.879369 337.959141 
L 624.879705 338.737689 
L 627.880041 339.154528 
L 630.880377 339.165633 
L 633.880712 340.354675 
L 636.881048 340.363004 
L 642.881719 342.666128 
L 645.882055 342.74783 
L 648.882391 343.307449 
L 651.882726 343.450625 
L 654.883062 343.468473 
L 657.883398 343.863498 
L 660.883733 343.921007 
L 672.885076 348.704936 
L 675.885412 349.823381 
L 678.885748 349.833693 
L 681.886083 351.096901 
L 684.886419 352.224865 
L 687.886755 352.297445 
L 690.88709 353.482917 
L 693.887426 353.501954 
L 696.887762 355.797146 
L 705.888769 355.805475 
L 708.889104 356.488043 
L 711.88944 358.178799 
L 717.890111 358.181575 
L 720.890447 359.405122 
L 723.890783 359.4662 
L 726.891119 360.566401 
L 729.891454 360.56997 
L 735.892126 361.749097 
L 738.892461 362.364638 
L 741.892797 362.407472 
L 756.894475 365.338829 
L 762.895147 365.351124 
L 765.895482 368.328884 
L 774.89649 370.085477 
L 777.896825 373.072359 
L 789.898168 373.194515 
L 792.898504 374.233241 
L 795.898839 377.24868 
L 798.899175 377.254232 
L 801.899511 377.794417 
L 804.899846 377.941163 
L 807.900182 378.453982 
L 810.900518 379.604949 
L 822.901861 382.007226 
L 825.902196 383.163349 
L 828.902532 383.723365 
L 831.902868 383.809429 
L 834.903203 384.420211 
L 837.903539 385.581887 
L 846.904546 385.67628 
L 849.904882 386.148645 
L 852.905217 386.794329 
L 855.905553 386.797501 
L 858.905889 387.973455 
L 861.906224 388.01034 
L 864.90656 389.637637 
L 867.906896 389.720133 
L 870.907232 390.231365 
L 873.907567 392.098216 
L 876.907903 392.734778 
L 879.908239 392.76492 
L 882.908574 393.860758 
L 885.90891 393.933735 
L 888.909246 395.141814 
L 891.909581 395.166007 
L 894.909917 396.845261 
L 897.910253 396.94481 
L 906.91126 400.357653 
L 909.911595 400.475844 
L 912.911931 403.066511 
L 915.912267 404.510177 
L 918.912603 407.526805 
L 921.912938 415.359489 
L 924.913274 416.105119 
L 927.91361 416.369658 
L 930.913945 416.940779 
L 933.914281 417.00622 
L 936.914617 417.531334 
L 939.914952 421.694963 
L 945.915624 422.900662 
L 948.915959 425.283505 
L 948.915959 425.283505 
" clip-path="url(#p5f1d914d0b)" style="fill: none; stroke: #d62728; stroke-width: 2.5; stroke-linecap: round"/>
   </g>
   <g id="line2d_33">
    <path d="M 87.819617 403.657462 
L 90.819953 404.44315 
L 93.820288 404.844917 
L 99.82096 406.439693 
L 102.821296 406.522188 
L 105.821631 407.237279 
L 108.821967 410.124215 
L 111.822303 411.245039 
L 114.822638 412.499522 
L 117.822974 416.106308 
L 123.823645 416.108291 
L 132.824652 417.219597 
L 135.824988 417.958088 
L 138.825324 418.038997 
L 141.825659 418.42728 
L 144.825995 419.523514 
L 147.826331 419.916953 
L 153.827002 419.987946 
L 156.827338 420.282629 
L 159.827674 420.409148 
L 162.828009 421.098062 
L 165.828345 421.607708 
L 168.828681 422.283535 
L 171.829016 422.419572 
L 174.829352 423.08945 
L 177.829688 423.212399 
L 186.830695 424.467278 
L 189.83103 425.135569 
L 192.831366 425.164522 
L 195.831702 425.482604 
L 198.832038 426.1854 
L 201.832373 426.381326 
L 204.832709 426.390845 
L 210.83338 427.087691 
L 213.833716 427.152339 
L 216.834052 427.429571 
L 225.835059 427.807938 
L 228.835394 428.367161 
L 231.83573 428.367954 
L 234.836066 429.313079 
L 237.836401 430.090835 
L 240.836737 430.48229 
L 243.837073 432.33764 
L 246.837409 432.888137 
L 249.837744 433.036866 
L 252.83808 433.053127 
L 261.839087 434.114063 
L 264.839423 434.78513 
L 267.839758 435.304691 
L 270.840094 435.595804 
L 279.841101 435.947202 
L 282.841437 436.322 
L 285.841772 436.575038 
L 291.842444 436.615493 
L 294.84278 436.887568 
L 297.843115 436.918108 
L 306.844122 437.430133 
L 309.844458 437.945728 
L 315.845129 438.224943 
L 318.845465 438.574754 
L 321.845801 438.666768 
L 324.846136 439.01301 
L 327.846472 439.093126 
L 330.846808 439.371547 
L 333.847143 439.418347 
L 336.847479 439.789972 
L 354.849493 440.695437 
L 357.849829 441.056353 
L 366.850836 441.340327 
L 369.851172 441.535064 
L 372.851507 441.550135 
L 375.851843 442.443304 
L 378.852179 442.57141 
L 381.852514 443.014028 
L 384.85285 443.133805 
L 387.853186 443.716428 
L 393.853857 443.759658 
L 396.854193 444.144372 
L 405.8552 444.662346 
L 411.855871 444.956632 
L 414.856207 445.269559 
L 426.85755 445.794276 
L 432.858221 446.403075 
L 435.858557 446.459394 
L 438.858893 446.827846 
L 441.859228 447.313299 
L 444.859564 447.392224 
L 447.8599 447.698805 
L 453.860571 447.824928 
L 456.860907 448.211227 
L 459.861242 448.231058 
L 468.862249 448.745067 
L 474.862921 448.89102 
L 477.863256 449.491886 
L 480.863592 449.611266 
L 489.864599 449.708436 
L 495.865271 450.070146 
L 498.865606 450.556392 
L 510.866949 451.248876 
L 516.86762 451.309954 
L 519.867956 451.550301 
L 522.868292 451.638349 
L 525.868627 451.855295 
L 534.869635 452.136493 
L 540.870306 452.383978 
L 546.870977 452.616393 
L 549.871313 453.143093 
L 555.871984 453.703109 
L 564.872991 453.830421 
L 567.873327 454.266297 
L 570.873663 454.352759 
L 573.873998 454.662116 
L 579.87467 454.852489 
L 582.875006 455.884076 
L 585.875341 456.771693 
L 591.876013 457.219071 
L 594.876348 458.036884 
L 600.87702 458.733731 
L 603.877355 459.025637 
L 606.877691 459.462306 
L 609.878027 459.506727 
L 612.878362 460.213885 
L 618.879034 460.353493 
L 624.879705 460.461371 
L 627.880041 460.973 
L 630.880377 461.093967 
L 633.880712 461.352954 
L 636.881048 461.861807 
L 642.881719 462.620922 
L 648.882391 462.782739 
L 651.882726 462.979458 
L 654.883062 463.45222 
L 657.883398 463.692963 
L 675.885412 464.45525 
L 678.885748 464.623017 
L 681.886083 464.678543 
L 684.886419 464.880418 
L 687.886755 465.310345 
L 690.88709 465.322243 
L 693.887426 465.738289 
L 705.888769 466.322895 
L 708.889104 467.112945 
L 711.88944 467.527801 
L 714.889776 467.62854 
L 717.890111 467.930758 
L 720.890447 470.186289 
L 723.890783 470.310428 
L 729.891454 472.113424 
L 732.89179 472.609982 
L 735.892126 472.859054 
L 738.892461 472.996282 
L 741.892797 473.557091 
L 744.893133 473.640379 
L 747.893468 473.902143 
L 750.893804 474.533549 
L 753.89414 474.616441 
L 756.894475 474.878997 
L 759.894811 474.984893 
L 762.895147 475.676187 
L 768.895818 476.561027 
L 771.896154 476.910442 
L 777.896825 477.391136 
L 780.897161 478.34697 
L 783.897497 478.684486 
L 789.898168 478.774517 
L 795.898839 479.432099 
L 798.899175 479.487625 
L 804.899846 480.042484 
L 810.900518 480.180109 
L 819.901525 481.030444 
L 822.901861 481.157756 
L 828.902532 481.92639 
L 834.903203 482.329347 
L 840.903875 484.677685 
L 843.90421 485.176622 
L 849.904882 485.273395 
L 852.905217 486.354162 
L 855.905553 486.644482 
L 861.906224 486.724201 
L 867.906896 487.110104 
L 870.907232 487.262006 
L 873.907567 488.058402 
L 876.907903 489.347787 
L 882.908574 489.572269 
L 888.909246 490.677626 
L 891.909581 490.921542 
L 894.909917 493.115994 
L 897.910253 493.869159 
L 900.910588 493.901285 
L 909.911595 496.183388 
L 912.911931 496.67479 
L 915.912267 498.127182 
L 918.912603 500.113016 
L 921.912938 501.021654 
L 927.91361 501.491639 
L 930.913945 501.577703 
L 933.914281 502.661246 
L 936.914617 503.536568 
L 939.914952 504.864821 
L 942.915288 504.958024 
L 945.915624 507.841787 
L 948.915959 510.472909 
L 948.915959 510.472909 
" clip-path="url(#p5f1d914d0b)" style="fill: none; stroke: #9467bd; stroke-width: 2.5; stroke-linecap: round"/>
   </g>
   <g id="line2d_34">
    <path d="M 87.819617 296.116216 
L 204.832709 296.127718 
L 207.833045 296.483478 
L 210.83338 296.702011 
L 228.835394 296.723032 
L 231.83573 300.910854 
L 237.836401 300.91363 
L 240.836737 302.113777 
L 252.83808 302.11933 
L 255.838416 303.303612 
L 264.839423 303.316304 
L 267.839758 311.645941 
L 288.842108 311.699881 
L 291.842444 312.839742 
L 303.843787 312.898441 
L 306.844122 314.087879 
L 309.844458 314.104934 
L 312.844794 315.228138 
L 330.846808 315.294372 
L 333.847143 316.428681 
L 336.847479 320.008894 
L 339.847815 322.397686 
L 342.848151 322.398083 
L 345.848486 324.794807 
L 348.848822 324.798377 
L 351.849158 327.182409 
L 354.849493 327.265698 
L 357.849829 328.371054 
L 366.850836 328.382159 
L 369.851172 329.571994 
L 372.851507 331.948095 
L 375.851843 343.885708 
L 381.852514 343.917834 
L 384.85285 346.277277 
L 390.853522 346.302263 
L 393.853857 347.444505 
L 399.854529 347.473854 
L 402.854864 349.851144 
L 405.8552 349.875734 
L 408.855536 351.034237 
L 414.856207 351.08183 
L 417.856543 352.238746 
L 423.857214 352.261353 
L 426.85755 353.449205 
L 432.858221 353.478554 
L 435.858557 354.629918 
L 438.858893 354.635867 
L 441.859228 355.797146 
L 444.859564 355.870916 
L 447.8599 366.226842 
L 450.860235 366.525094 
L 453.860571 367.717705 
L 456.860907 368.101229 
L 459.861242 371.348685 
L 462.861578 374.881701 
L 468.862249 374.945159 
L 474.862921 377.250266 
L 483.863928 377.322846 
L 486.864264 378.482538 
L 489.864599 378.513871 
L 492.864935 380.873313 
L 495.865271 382.032609 
L 501.865942 382.061165 
L 504.866278 383.232756 
L 507.866613 385.614409 
L 510.866949 385.63186 
L 513.867285 386.786793 
L 516.86762 386.812176 
L 519.867956 386.971217 
L 522.868292 387.999631 
L 531.869299 388.082523 
L 534.869635 389.154168 
L 537.86997 389.242216 
L 540.870306 390.410633 
L 552.871649 390.522478 
L 555.871984 391.596899 
L 567.873327 391.695655 
L 570.873663 392.898975 
L 573.873998 394.226831 
L 576.874334 395.109688 
L 588.875677 395.258814 
L 591.876013 396.375673 
L 597.876684 396.445873 
L 600.87702 397.599616 
L 603.877355 397.602789 
L 609.878027 399.907896 
L 615.878698 400.080818 
L 618.879034 400.341392 
L 621.879369 401.150877 
L 624.879705 402.384735 
L 633.880712 402.477543 
L 636.881048 403.520235 
L 639.881384 403.597574 
L 642.881719 404.669219 
L 651.882726 404.824294 
L 654.883062 406.014129 
L 657.883398 407.032231 
L 669.88474 407.192065 
L 672.885076 407.288838 
L 675.885412 408.247845 
L 684.886419 408.477483 
L 687.886755 409.393656 
L 690.88709 410.844462 
L 693.887426 411.894293 
L 708.889104 412.128294 
L 711.88944 414.124043 
L 714.889776 414.344956 
L 717.890111 415.285322 
L 720.890447 416.690517 
L 723.890783 416.758735 
L 726.891119 417.635643 
L 729.891454 419.028543 
L 738.892461 419.118574 
L 741.892797 420.006984 
L 744.893133 420.047042 
L 747.893468 421.260673 
L 750.893804 421.429233 
L 756.894475 421.491105 
L 759.894811 422.378721 
L 762.895147 422.425125 
L 765.895482 422.644055 
L 768.895818 423.618133 
L 771.896154 423.938595 
L 774.89649 425.027294 
L 777.896825 425.036416 
L 780.897161 425.164125 
L 783.897497 426.293675 
L 786.897832 426.296451 
L 789.898168 427.119024 
L 792.898504 428.574985 
L 795.898839 428.736406 
L 798.899175 429.499487 
L 801.899511 429.846125 
L 813.900853 429.946072 
L 816.901189 431.020096 
L 822.901861 431.143839 
L 825.902196 431.867655 
L 828.902532 433.432684 
L 834.903203 433.491383 
L 837.903539 434.206077 
L 840.903875 434.560648 
L 846.904546 434.632435 
L 852.905217 434.659404 
L 855.905553 435.347922 
L 858.905889 435.839324 
L 864.90656 438.172194 
L 867.906896 439.368771 
L 870.907232 439.396534 
L 873.907567 440.145733 
L 876.907903 440.620477 
L 879.908239 440.662518 
L 882.908574 443.07352 
L 885.90891 444.106694 
L 888.909246 445.35721 
L 894.909917 445.424237 
L 897.910253 446.405455 
L 906.91126 446.55934 
L 909.911595 447.147912 
L 912.911931 447.172105 
L 915.912267 447.811443 
L 921.912938 450.206977 
L 924.913274 450.235137 
L 927.91361 453.74515 
L 930.913945 453.778465 
L 933.914281 456.090314 
L 936.914617 456.104592 
L 939.914952 458.477916 
L 942.915288 458.512025 
L 945.915624 460.857586 
L 948.915959 467.233911 
L 948.915959 467.233911 
" clip-path="url(#p5f1d914d0b)" style="fill: none; stroke: #8c564b; stroke-width: 2.5; stroke-linecap: round"/>
   </g>
   <g id="line2d_35">
    <path d="M 87.819617 282.480311 
L 90.819953 282.66077 
L 93.820288 283.373877 
L 96.820624 283.37467 
L 102.821296 283.738363 
L 105.821631 284.087382 
L 108.821967 284.266253 
L 111.822303 284.622807 
L 114.822638 284.802472 
L 117.822974 285.334725 
L 123.823645 285.583401 
L 126.823981 286.116843 
L 129.824317 286.47419 
L 132.824652 286.531699 
L 138.825324 286.833124 
L 141.825659 287.422092 
L 147.826331 287.477221 
L 150.826667 287.780629 
L 156.827338 288.011457 
L 165.828345 288.026132 
L 177.829688 288.369597 
L 180.830023 288.726151 
L 183.830359 289.260387 
L 195.831702 289.524927 
L 222.834723 289.975081 
L 237.836401 290.82621 
L 255.838416 291.412799 
L 261.839087 292.006923 
L 267.839758 292.180242 
L 270.840094 292.519345 
L 300.843451 292.520535 
L 303.843787 292.731929 
L 306.844122 293.117039 
L 309.844458 293.264975 
L 315.845129 293.714733 
L 411.855871 293.717509 
L 414.856207 294.078822 
L 417.856543 294.312426 
L 426.85755 294.395715 
L 429.857885 294.905757 
L 498.865606 294.9125 
L 501.865942 296.099558 
L 570.873663 296.18483 
L 573.873998 296.233613 
L 576.874334 296.540194 
L 591.876013 297.433363 
L 594.876348 297.608269 
L 597.876684 297.96284 
L 600.87702 298.025901 
L 603.877355 298.552205 
L 612.878362 298.796914 
L 615.878698 299.062247 
L 621.879369 299.391038 
L 627.880041 299.98199 
L 630.880377 300.586426 
L 633.880712 300.877142 
L 645.882055 300.929892 
L 648.882391 301.054031 
L 651.882726 301.454609 
L 654.883062 301.710027 
L 657.883398 301.713993 
L 663.884069 302.070943 
L 666.884405 302.071736 
L 669.88474 302.907794 
L 672.885076 303.263158 
L 681.886083 303.265537 
L 687.886755 304.029411 
L 693.887426 305.479027 
L 696.887762 305.655123 
L 705.888769 305.659485 
L 708.889104 306.443587 
L 711.88944 306.853286 
L 714.889776 306.853683 
L 720.890447 308.044311 
L 729.891454 308.049467 
L 732.89179 308.880368 
L 735.892126 310.014678 
L 738.892461 310.191963 
L 741.892797 311.388144 
L 744.893133 311.624524 
L 747.893468 312.285279 
L 750.893804 312.350324 
L 753.89414 312.63985 
L 762.895147 313.115388 
L 765.895482 313.828495 
L 768.895818 313.834444 
L 774.89649 321.782542 
L 780.897161 321.909457 
L 783.897497 322.372303 
L 786.897832 323.150852 
L 801.899511 323.575226 
L 813.900853 323.86158 
L 828.902532 324.761888 
L 834.903203 324.87056 
L 837.903539 325.244565 
L 849.904882 325.772851 
L 852.905217 325.777611 
L 855.905553 325.954103 
L 858.905889 326.963876 
L 861.906224 326.967446 
L 864.90656 327.147904 
L 867.906896 327.154646 
L 870.907232 328.102945 
L 876.907903 328.15847 
L 879.908239 328.348447 
L 882.908574 329.34196 
L 885.90891 329.526384 
L 888.909246 331.1398 
L 891.909581 331.237763 
L 894.909917 332.123794 
L 900.910588 332.825796 
L 903.910924 333.49726 
L 909.911595 334.563748 
L 912.911931 335.99512 
L 915.912267 336.010588 
L 918.912603 336.425443 
L 921.912938 336.458759 
L 924.913274 337.062402 
L 927.91361 337.408247 
L 930.913945 337.604966 
L 933.914281 339.074016 
L 936.914617 341.609554 
L 939.914952 341.749955 
L 942.915288 343.061153 
L 945.915624 344.786017 
L 948.915959 361.839524 
L 948.915959 361.839524 
" clip-path="url(#p5f1d914d0b)" style="fill: none; stroke: #e377c2; stroke-width: 2.5; stroke-linecap: round"/>
   </g>
   <g id="patch_3">
    <path d="M 44.7648 533.5752 
L 44.7648 25.3248 
" style="fill: none; stroke: #cccccc; stroke-linejoin: miter; stroke-linecap: square"/>
   </g>
   <g id="patch_4">
    <path d="M 991.970776 533.5752 
L 991.970776 25.3248 
" style="fill: none; stroke: #cccccc; stroke-linejoin: miter; stroke-linecap: square"/>
   </g>
   <g id="patch_5">
    <path d="M 44.7648 533.5752 
L 991.970776 533.5752 
" style="fill: none; stroke: #cccccc; stroke-linejoin: miter; stroke-linecap: square"/>
   </g>
   <g id="patch_6">
    <path d="M 44.7648 25.3248 
L 991.970776 25.3248 
" style="fill: none; stroke: #cccccc; stroke-linejoin: miter; stroke-linecap: square"/>
   </g>
   <g id="text_17">
    <!-- Individual Residual Load Duration Curves (5) -->
    <g style="fill: #262626" transform="translate(413.305688 19.3248) scale(0.1056 -0.1056)">
     <defs>
      <path id="ArialMT-49" d="M 597 0 
L 597 4581 
L 1203 4581 
L 1203 0 
L 597 0 
z
" transform="scale(0.015625)"/>
      <path id="ArialMT-69" d="M 425 3934 
L 425 4581 
L 988 4581 
L 988 3934 
L 425 3934 
z
M 425 0 
L 425 3319 
L 988 3319 
L 988 0 
L 425 0 
z
" transform="scale(0.015625)"/>
      <path id="ArialMT-76" d="M 1344 0 
L 81 3319 
L 675 3319 
L 1388 1331 
Q 1503 1009 1600 663 
Q 1675 925 1809 1294 
L 2547 3319 
L 3125 3319 
L 1869 0 
L 1344 0 
z
" transform="scale(0.015625)"/>
      <path id="ArialMT-6c" d="M 409 0 
L 409 4581 
L 972 4581 
L 972 0 
L 409 0 
z
" transform="scale(0.015625)"/>
      <path id="ArialMT-52" d="M 503 0 
L 503 4581 
L 2534 4581 
Q 3147 4581 3465 4457 
Q 3784 4334 3975 4021 
Q 4166 3709 4166 3331 
Q 4166 2844 3850 2509 
Q 3534 2175 2875 2084 
Q 3116 1969 3241 1856 
Q 3506 1613 3744 1247 
L 4541 0 
L 3778 0 
L 3172 953 
Q 2906 1366 2734 1584 
Q 2563 1803 2427 1890 
Q 2291 1978 2150 2013 
Q 2047 2034 1813 2034 
L 1109 2034 
L 1109 0 
L 503 0 
z
M 1109 2559 
L 2413 2559 
Q 2828 2559 3062 2645 
Q 3297 2731 3419 2920 
Q 3541 3109 3541 3331 
Q 3541 3656 3305 3865 
Q 3069 4075 2559 4075 
L 1109 4075 
L 1109 2559 
z
" transform="scale(0.015625)"/>
      <path id="ArialMT-4c" d="M 469 0 
L 469 4581 
L 1075 4581 
L 1075 541 
L 3331 541 
L 3331 0 
L 469 0 
z
" transform="scale(0.015625)"/>
      <path id="ArialMT-44" d="M 494 0 
L 494 4581 
L 2072 4581 
Q 2606 4581 2888 4516 
Q 3281 4425 3559 4188 
Q 3922 3881 4101 3404 
Q 4281 2928 4281 2316 
Q 4281 1794 4159 1391 
Q 4038 988 3847 723 
Q 3656 459 3429 307 
Q 3203 156 2883 78 
Q 2563 0 2147 0 
L 494 0 
z
M 1100 541 
L 2078 541 
Q 2531 541 2789 625 
Q 3047 709 3200 863 
Q 3416 1078 3536 1442 
Q 3656 1806 3656 2325 
Q 3656 3044 3420 3430 
Q 3184 3816 2847 3947 
Q 2603 4041 2063 4041 
L 1100 4041 
L 1100 541 
z
" transform="scale(0.015625)"/>
      <path id="ArialMT-43" d="M 3763 1606 
L 4369 1453 
Q 4178 706 3683 314 
Q 3188 -78 2472 -78 
Q 1731 -78 1267 223 
Q 803 525 561 1097 
Q 319 1669 319 2325 
Q 319 3041 592 3573 
Q 866 4106 1370 4382 
Q 1875 4659 2481 4659 
Q 3169 4659 3637 4309 
Q 4106 3959 4291 3325 
L 3694 3184 
Q 3534 3684 3231 3912 
Q 2928 4141 2469 4141 
Q 1941 4141 1586 3887 
Q 1231 3634 1087 3207 
Q 944 2781 944 2328 
Q 944 1744 1114 1308 
Q 1284 872 1643 656 
Q 2003 441 2422 441 
Q 2931 441 3284 734 
Q 3638 1028 3763 1606 
z
" transform="scale(0.015625)"/>
     </defs>
     <use xlink:href="#ArialMT-49"/>
     <use xlink:href="#ArialMT-6e" transform="translate(27.783203 0)"/>
     <use xlink:href="#ArialMT-64" transform="translate(83.398438 0)"/>
     <use xlink:href="#ArialMT-69" transform="translate(139.013672 0)"/>
     <use xlink:href="#ArialMT-76" transform="translate(161.230469 0)"/>
     <use xlink:href="#ArialMT-69" transform="translate(211.230469 0)"/>
     <use xlink:href="#ArialMT-64" transform="translate(233.447266 0)"/>
     <use xlink:href="#ArialMT-75" transform="translate(289.0625 0)"/>
     <use xlink:href="#ArialMT-61" transform="translate(344.677734 0)"/>
     <use xlink:href="#ArialMT-6c" transform="translate(400.292969 0)"/>
     <use xlink:href="#ArialMT-20" transform="translate(422.509766 0)"/>
     <use xlink:href="#ArialMT-52" transform="translate(450.292969 0)"/>
     <use xlink:href="#ArialMT-65" transform="translate(522.509766 0)"/>
     <use xlink:href="#ArialMT-73" transform="translate(578.125 0)"/>
     <use xlink:href="#ArialMT-69" transform="translate(628.125 0)"/>
     <use xlink:href="#ArialMT-64" transform="translate(650.341797 0)"/>
     <use xlink:href="#ArialMT-75" transform="translate(705.957031 0)"/>
     <use xlink:href="#ArialMT-61" transform="translate(761.572266 0)"/>
     <use xlink:href="#ArialMT-6c" transform="translate(817.1875 0)"/>
     <use xlink:href="#ArialMT-20" transform="translate(839.404297 0)"/>
     <use xlink:href="#ArialMT-4c" transform="translate(867.1875 0)"/>
     <use xlink:href="#ArialMT-6f" transform="translate(922.802734 0)"/>
     <use xlink:href="#ArialMT-61" transform="translate(978.417969 0)"/>
     <use xlink:href="#ArialMT-64" transform="translate(1034.033203 0)"/>
     <use xlink:href="#ArialMT-20" transform="translate(1089.648438 0)"/>
     <use xlink:href="#ArialMT-44" transform="translate(1117.431641 0)"/>
     <use xlink:href="#ArialMT-75" transform="translate(1189.648438 0)"/>
     <use xlink:href="#ArialMT-72" transform="translate(1245.263672 0)"/>
     <use xlink:href="#ArialMT-61" transform="translate(1278.564453 0)"/>
     <use xlink:href="#ArialMT-74" transform="translate(1334.179688 0)"/>
     <use xlink:href="#ArialMT-69" transform="translate(1361.962891 0)"/>
     <use xlink:href="#ArialMT-6f" transform="translate(1384.179688 0)"/>
     <use xlink:href="#ArialMT-6e" transform="translate(1439.794922 0)"/>
     <use xlink:href="#ArialMT-20" transform="translate(1495.410156 0)"/>
     <use xlink:href="#ArialMT-43" transform="translate(1523.193359 0)"/>
     <use xlink:href="#ArialMT-75" transform="translate(1595.410156 0)"/>
     <use xlink:href="#ArialMT-72" transform="translate(1651.025391 0)"/>
     <use xlink:href="#ArialMT-76" transform="translate(1684.326172 0)"/>
     <use xlink:href="#ArialMT-65" transform="translate(1734.326172 0)"/>
     <use xlink:href="#ArialMT-73" transform="translate(1789.941406 0)"/>
     <use xlink:href="#ArialMT-20" transform="translate(1839.941406 0)"/>
     <use xlink:href="#ArialMT-28" transform="translate(1867.724609 0)"/>
     <use xlink:href="#ArialMT-35" transform="translate(1901.025391 0)"/>
     <use xlink:href="#ArialMT-29" transform="translate(1956.640625 0)"/>
    </g>
   </g>
   <g id="legend_1">
    <g id="line2d_36">
     <path d="M 909.891939 37.577563 
L 919.571939 37.577563 
L 929.251939 37.577563 
" style="fill: none; stroke: #1f77b4; stroke-width: 2.5; stroke-linecap: round"/>
    </g>
    <g id="text_18">
     <!-- Baseload -->
     <g style="fill: #262626" transform="translate(936.995939 40.965563) scale(0.0968 -0.0968)">
      <defs>
       <path id="ArialMT-42" d="M 469 0 
L 469 4581 
L 2188 4581 
Q 2713 4581 3030 4442 
Q 3347 4303 3526 4014 
Q 3706 3725 3706 3409 
Q 3706 3116 3547 2856 
Q 3388 2597 3066 2438 
Q 3481 2316 3704 2022 
Q 3928 1728 3928 1328 
Q 3928 1006 3792 729 
Q 3656 453 3456 303 
Q 3256 153 2954 76 
Q 2653 0 2216 0 
L 469 0 
z
M 1075 2656 
L 2066 2656 
Q 2469 2656 2644 2709 
Q 2875 2778 2992 2937 
Q 3109 3097 3109 3338 
Q 3109 3566 3000 3739 
Q 2891 3913 2687 3977 
Q 2484 4041 1991 4041 
L 1075 4041 
L 1075 2656 
z
M 1075 541 
L 2216 541 
Q 2509 541 2628 563 
Q 2838 600 2978 687 
Q 3119 775 3209 942 
Q 3300 1109 3300 1328 
Q 3300 1584 3169 1773 
Q 3038 1963 2805 2039 
Q 2572 2116 2134 2116 
L 1075 2116 
L 1075 541 
z
" transform="scale(0.015625)"/>
      </defs>
      <use xlink:href="#ArialMT-42"/>
      <use xlink:href="#ArialMT-61" transform="translate(66.699219 0)"/>
      <use xlink:href="#ArialMT-73" transform="translate(122.314453 0)"/>
      <use xlink:href="#ArialMT-65" transform="translate(172.314453 0)"/>
      <use xlink:href="#ArialMT-6c" transform="translate(227.929688 0)"/>
      <use xlink:href="#ArialMT-6f" transform="translate(250.146484 0)"/>
      <use xlink:href="#ArialMT-61" transform="translate(305.761719 0)"/>
      <use xlink:href="#ArialMT-64" transform="translate(361.376953 0)"/>
     </g>
    </g>
    <g id="line2d_37">
     <path d="M 909.891939 51.270225 
L 919.571939 51.270225 
L 929.251939 51.270225 
" style="fill: none; stroke: #ff7f0e; stroke-width: 2.5; stroke-linecap: round"/>
    </g>
    <g id="text_19">
     <!-- MidMerit -->
     <g style="fill: #262626" transform="translate(936.995939 54.658225) scale(0.0968 -0.0968)">
      <defs>
       <path id="ArialMT-4d" d="M 475 0 
L 475 4581 
L 1388 4581 
L 2472 1338 
Q 2622 884 2691 659 
Q 2769 909 2934 1394 
L 4031 4581 
L 4847 4581 
L 4847 0 
L 4263 0 
L 4263 3834 
L 2931 0 
L 2384 0 
L 1059 3900 
L 1059 0 
L 475 0 
z
" transform="scale(0.015625)"/>
      </defs>
      <use xlink:href="#ArialMT-4d"/>
      <use xlink:href="#ArialMT-69" transform="translate(83.300781 0)"/>
      <use xlink:href="#ArialMT-64" transform="translate(105.517578 0)"/>
      <use xlink:href="#ArialMT-4d" transform="translate(161.132812 0)"/>
      <use xlink:href="#ArialMT-65" transform="translate(244.433594 0)"/>
      <use xlink:href="#ArialMT-72" transform="translate(300.048828 0)"/>
      <use xlink:href="#ArialMT-69" transform="translate(333.349609 0)"/>
      <use xlink:href="#ArialMT-74" transform="translate(355.566406 0)"/>
     </g>
    </g>
    <g id="line2d_38">
     <path d="M 909.891939 64.962887 
L 919.571939 64.962887 
L 929.251939 64.962887 
" style="fill: none; stroke: #2ca02c; stroke-width: 2.5; stroke-linecap: round"/>
    </g>
    <g id="text_20">
     <!-- Peak -->
     <g style="fill: #262626" transform="translate(936.995939 68.350887) scale(0.0968 -0.0968)">
      <defs>
       <path id="ArialMT-50" d="M 494 0 
L 494 4581 
L 2222 4581 
Q 2678 4581 2919 4538 
Q 3256 4481 3484 4323 
Q 3713 4166 3852 3881 
Q 3991 3597 3991 3256 
Q 3991 2672 3619 2267 
Q 3247 1863 2275 1863 
L 1100 1863 
L 1100 0 
L 494 0 
z
M 1100 2403 
L 2284 2403 
Q 2872 2403 3119 2622 
Q 3366 2841 3366 3238 
Q 3366 3525 3220 3729 
Q 3075 3934 2838 4000 
Q 2684 4041 2272 4041 
L 1100 4041 
L 1100 2403 
z
" transform="scale(0.015625)"/>
       <path id="ArialMT-6b" d="M 425 0 
L 425 4581 
L 988 4581 
L 988 1969 
L 2319 3319 
L 3047 3319 
L 1778 2088 
L 3175 0 
L 2481 0 
L 1384 1697 
L 988 1316 
L 988 0 
L 425 0 
z
" transform="scale(0.015625)"/>
      </defs>
      <use xlink:href="#ArialMT-50"/>
      <use xlink:href="#ArialMT-65" transform="translate(66.699219 0)"/>
      <use xlink:href="#ArialMT-61" transform="translate(122.314453 0)"/>
      <use xlink:href="#ArialMT-6b" transform="translate(177.929688 0)"/>
     </g>
    </g>
    <g id="line2d_39">
     <path d="M 909.891939 78.65555 
L 919.571939 78.65555 
L 929.251939 78.65555 
" style="fill: none; stroke: #d62728; stroke-width: 2.5; stroke-linecap: round"/>
    </g>
    <g id="text_21">
     <!-- LV_MED -->
     <g style="fill: #262626" transform="translate(936.995939 82.04355) scale(0.0968 -0.0968)">
      <defs>
       <path id="ArialMT-56" d="M 1803 0 
L 28 4581 
L 684 4581 
L 1875 1253 
Q 2019 853 2116 503 
Q 2222 878 2363 1253 
L 3600 4581 
L 4219 4581 
L 2425 0 
L 1803 0 
z
" transform="scale(0.015625)"/>
       <path id="ArialMT-5f" d="M -97 -1272 
L -97 -866 
L 3631 -866 
L 3631 -1272 
L -97 -1272 
z
" transform="scale(0.015625)"/>
       <path id="ArialMT-45" d="M 506 0 
L 506 4581 
L 3819 4581 
L 3819 4041 
L 1113 4041 
L 1113 2638 
L 3647 2638 
L 3647 2100 
L 1113 2100 
L 1113 541 
L 3925 541 
L 3925 0 
L 506 0 
z
" transform="scale(0.015625)"/>
      </defs>
      <use xlink:href="#ArialMT-4c"/>
      <use xlink:href="#ArialMT-56" transform="translate(48.240234 0)"/>
      <use xlink:href="#ArialMT-5f" transform="translate(114.939453 0)"/>
      <use xlink:href="#ArialMT-4d" transform="translate(170.554688 0)"/>
      <use xlink:href="#ArialMT-45" transform="translate(253.855469 0)"/>
      <use xlink:href="#ArialMT-44" transform="translate(320.554688 0)"/>
     </g>
    </g>
    <g id="line2d_40">
     <path d="M 909.891939 92.472238 
L 919.571939 92.472238 
L 929.251939 92.472238 
" style="fill: none; stroke: #9467bd; stroke-width: 2.5; stroke-linecap: round"/>
    </g>
    <g id="text_22">
     <!-- MV_LOAD -->
     <g style="fill: #262626" transform="translate(936.995939 95.860238) scale(0.0968 -0.0968)">
      <defs>
       <path id="ArialMT-41" d="M -9 0 
L 1750 4581 
L 2403 4581 
L 4278 0 
L 3588 0 
L 3053 1388 
L 1138 1388 
L 634 0 
L -9 0 
z
M 1313 1881 
L 2866 1881 
L 2388 3150 
Q 2169 3728 2063 4100 
Q 1975 3659 1816 3225 
L 1313 1881 
z
" transform="scale(0.015625)"/>
      </defs>
      <use xlink:href="#ArialMT-4d"/>
      <use xlink:href="#ArialMT-56" transform="translate(83.300781 0)"/>
      <use xlink:href="#ArialMT-5f" transform="translate(150 0)"/>
      <use xlink:href="#ArialMT-4c" transform="translate(205.615234 0)"/>
      <use xlink:href="#ArialMT-4f" transform="translate(261.230469 0)"/>
      <use xlink:href="#ArialMT-41" transform="translate(339.013672 0)"/>
      <use xlink:href="#ArialMT-44" transform="translate(405.712891 0)"/>
     </g>
    </g>
    <g id="line2d_41">
     <path d="M 909.891939 106.282875 
L 919.571939 106.282875 
L 929.251939 106.282875 
" style="fill: none; stroke: #8c564b; stroke-width: 2.5; stroke-linecap: round"/>
    </g>
    <g id="text_23">
     <!-- LV_HIGH -->
     <g style="fill: #262626" transform="translate(936.995939 109.670875) scale(0.0968 -0.0968)">
      <use xlink:href="#ArialMT-4c"/>
      <use xlink:href="#ArialMT-56" transform="translate(48.240234 0)"/>
      <use xlink:href="#ArialMT-5f" transform="translate(114.939453 0)"/>
      <use xlink:href="#ArialMT-48" transform="translate(170.554688 0)"/>
      <use xlink:href="#ArialMT-49" transform="translate(242.771484 0)"/>
      <use xlink:href="#ArialMT-47" transform="translate(270.554688 0)"/>
      <use xlink:href="#ArialMT-48" transform="translate(348.337891 0)"/>
     </g>
    </g>
    <g id="line2d_42">
     <path d="M 909.891939 120.099563 
L 919.571939 120.099563 
L 929.251939 120.099563 
" style="fill: none; stroke: #e377c2; stroke-width: 2.5; stroke-linecap: round"/>
    </g>
    <g id="text_24">
     <!-- LV_LOW -->
     <g style="fill: #262626" transform="translate(936.995939 123.487563) scale(0.0968 -0.0968)">
      <use xlink:href="#ArialMT-4c"/>
      <use xlink:href="#ArialMT-56" transform="translate(48.240234 0)"/>
      <use xlink:href="#ArialMT-5f" transform="translate(114.939453 0)"/>
      <use xlink:href="#ArialMT-4c" transform="translate(170.554688 0)"/>
      <use xlink:href="#ArialMT-4f" transform="translate(226.169922 0)"/>
      <use xlink:href="#ArialMT-57" transform="translate(303.953125 0)"/>
     </g>
    </g>
   </g>
  </g>
 </g>
 <defs>
  <clipPath id="p5f1d914d0b">
   <rect x="44.7648" y="25.3248" width="947.205976" height="508.2504"/>
  </clipPath>
 </defs>
</svg>
