<?xml version="1.0" encoding="utf-8" standalone="no"?>
<!DOCTYPE svg PUBLIC "-//W3C//DTD SVG 1.1//EN"
  "http://www.w3.org/Graphics/SVG/1.1/DTD/svg11.dtd">
<svg xmlns:xlink="http://www.w3.org/1999/xlink" width="1157.134906pt" height="864.157762pt" viewBox="0 0 1157.134906 864.157762" xmlns="http://www.w3.org/2000/svg" version="1.1">
 <metadata>
  <rdf:RDF xmlns:dc="http://purl.org/dc/elements/1.1/" xmlns:cc="http://creativecommons.org/ns#" xmlns:rdf="http://www.w3.org/1999/02/22-rdf-syntax-ns#">
   <cc:Work>
    <dc:type rdf:resource="http://purl.org/dc/dcmitype/StillImage"/>
    <dc:date>2025-11-30T21:17:33.273921</dc:date>
    <dc:format>image/svg+xml</dc:format>
    <dc:creator>
     <cc:Agent>
      <dc:title>Matplotlib v3.10.3, https://matplotlib.org/</dc:title>
     </cc:Agent>
    </dc:creator>
   </cc:Work>
  </rdf:RDF>
 </metadata>
 <defs>
  <style type="text/css">*{stroke-linejoin: round; stroke-linecap: butt}</style>
 </defs>
 <g id="figure_1">
  <g id="patch_1">
   <path d="M 0 864.157762 
L 1157.134906 864.157762 
L 1157.134906 0 
L 0 0 
z
" style="fill: #ffffff"/>
  </g>
  <g id="axes_1">
   <g id="patch_2">
    <path d="M 50.0651 303.7016 
L 1139.318302 303.7016 
L 1139.318302 76.3296 
L 50.0651 76.3296 
z
" style="fill: #ffffff"/>
   </g>
   <g id="matplotlib.axis_1">
    <g id="xtick_1">
     <g id="line2d_1">
      <path d="M 99.576609 303.7016 
L 99.576609 76.3296 
" clip-path="url(#pf2e538798e)" style="fill: none; stroke: #cccccc; stroke-opacity: 0.3; stroke-width: 0.8; stroke-linecap: round"/>
     </g>
     <g id="line2d_2">
      <defs>
       <path id="mfbb4a246c3" d="M 0 0 
L 0 4.8 
" style="stroke: #262626"/>
      </defs>
      <g>
       <use xlink:href="#mfbb4a246c3" x="99.576609" y="303.7016" style="fill: #262626; stroke: #262626"/>
      </g>
     </g>
    </g>
    <g id="xtick_2">
     <g id="line2d_3">
      <path d="M 272.090578 303.7016 
L 272.090578 76.3296 
" clip-path="url(#pf2e538798e)" style="fill: none; stroke: #cccccc; stroke-opacity: 0.3; stroke-width: 0.8; stroke-linecap: round"/>
     </g>
     <g id="line2d_4">
      <g>
       <use xlink:href="#mfbb4a246c3" x="272.090578" y="303.7016" style="fill: #262626; stroke: #262626"/>
      </g>
     </g>
    </g>
    <g id="xtick_3">
     <g id="line2d_5">
      <path d="M 444.604548 303.7016 
L 444.604548 76.3296 
" clip-path="url(#pf2e538798e)" style="fill: none; stroke: #cccccc; stroke-opacity: 0.3; stroke-width: 0.8; stroke-linecap: round"/>
     </g>
     <g id="line2d_6">
      <g>
       <use xlink:href="#mfbb4a246c3" x="444.604548" y="303.7016" style="fill: #262626; stroke: #262626"/>
      </g>
     </g>
    </g>
    <g id="xtick_4">
     <g id="line2d_7">
      <path d="M 617.118517 303.7016 
L 617.118517 76.3296 
" clip-path="url(#pf2e538798e)" style="fill: none; stroke: #cccccc; stroke-opacity: 0.3; stroke-width: 0.8; stroke-linecap: round"/>
     </g>
     <g id="line2d_8">
      <g>
       <use xlink:href="#mfbb4a246c3" x="617.118517" y="303.7016" style="fill: #262626; stroke: #262626"/>
      </g>
     </g>
    </g>
    <g id="xtick_5">
     <g id="line2d_9">
      <path d="M 789.632486 303.7016 
L 789.632486 76.3296 
" clip-path="url(#pf2e538798e)" style="fill: none; stroke: #cccccc; stroke-opacity: 0.3; stroke-width: 0.8; stroke-linecap: round"/>
     </g>
     <g id="line2d_10">
      <g>
       <use xlink:href="#mfbb4a246c3" x="789.632486" y="303.7016" style="fill: #262626; stroke: #262626"/>
      </g>
     </g>
    </g>
    <g id="xtick_6">
     <g id="line2d_11">
      <path d="M 962.146455 303.7016 
L 962.146455 76.3296 
" clip-path="url(#pf2e538798e)" style="fill: none; stroke: #cccccc; stroke-opacity: 0.3; stroke-width: 0.8; stroke-linecap: round"/>
     </g>
     <g id="line2d_12">
      <g>
       <use xlink:href="#mfbb4a246c3" x="962.146455" y="303.7016" style="fill: #262626; stroke: #262626"/>
      </g>
     </g>
    </g>
    <g id="xtick_7">
     <g id="line2d_13">
      <path d="M 1134.660425 303.7016 
L 1134.660425 76.3296 
" clip-path="url(#pf2e538798e)" style="fill: none; stroke: #cccccc; stroke-opacity: 0.3; stroke-width: 0.8; stroke-linecap: round"/>
     </g>
     <g id="line2d_14">
      <g>
       <use xlink:href="#mfbb4a246c3" x="1134.660425" y="303.7016" style="fill: #262626; stroke: #262626"/>
      </g>
     </g>
    </g>
   </g>
   <g id="matplotlib.axis_2">
    <g id="ytick_1">
     <g id="line2d_15">
      <path d="M 50.0651 288.33006 
L 1139.318302 288.33006 
" clip-path="url(#pf2e538798e)" style="fill: none; stroke: #cccccc; stroke-opacity: 0.3; stroke-width: 0.8; stroke-linecap: round"/>
     </g>
     <g id="line2d_16">
      <defs>
       <path id="mb221ea22e0" d="M 0 0 
L -4.8 0 
" style="stroke: #262626"/>
      </defs>
      <g>
       <use xlink:href="#mb221ea22e0" x="50.0651" y="288.33006" style="fill: #262626; stroke: #262626"/>
      </g>
     </g>
     <g id="text_1">
      <!-- 0.1 -->
      <g style="fill: #262626" transform="translate(28.3099 291.794441) scale(0.0968 -0.0968)">
       <defs>
        <path id="ArialMT-30" d="M 266 2259 
Q 266 3072 433 3567 
Q 600 4063 929 4331 
Q 1259 4600 1759 4600 
Q 2128 4600 2406 4451 
Q 2684 4303 2865 4023 
Q 3047 3744 3150 3342 
Q 3253 2941 3253 2259 
Q 3253 1453 3087 958 
Q 2922 463 2592 192 
Q 2263 -78 1759 -78 
Q 1097 -78 719 397 
Q 266 969 266 2259 
z
M 844 2259 
Q 844 1131 1108 757 
Q 1372 384 1759 384 
Q 2147 384 2411 759 
Q 2675 1134 2675 2259 
Q 2675 3391 2411 3762 
Q 2147 4134 1753 4134 
Q 1366 4134 1134 3806 
Q 844 3388 844 2259 
z
" transform="scale(0.015625)"/>
        <path id="ArialMT-2e" d="M 581 0 
L 581 641 
L 1222 641 
L 1222 0 
L 581 0 
z
" transform="scale(0.015625)"/>
        <path id="ArialMT-31" d="M 2384 0 
L 1822 0 
L 1822 3584 
Q 1619 3391 1289 3197 
Q 959 3003 697 2906 
L 697 3450 
Q 1169 3672 1522 3987 
Q 1875 4303 2022 4600 
L 2384 4600 
L 2384 0 
z
" transform="scale(0.015625)"/>
       </defs>
       <use xlink:href="#ArialMT-30"/>
       <use xlink:href="#ArialMT-2e" transform="translate(55.615234 0)"/>
       <use xlink:href="#ArialMT-31" transform="translate(83.398438 0)"/>
      </g>
     </g>
    </g>
    <g id="ytick_2">
     <g id="line2d_17">
      <path d="M 50.0651 261.738461 
L 1139.318302 261.738461 
" clip-path="url(#pf2e538798e)" style="fill: none; stroke: #cccccc; stroke-opacity: 0.3; stroke-width: 0.8; stroke-linecap: round"/>
     </g>
     <g id="line2d_18">
      <g>
       <use xlink:href="#mb221ea22e0" x="50.0651" y="261.738461" style="fill: #262626; stroke: #262626"/>
      </g>
     </g>
     <g id="text_2">
      <!-- 0.2 -->
      <g style="fill: #262626" transform="translate(28.3099 265.202842) scale(0.0968 -0.0968)">
       <defs>
        <path id="ArialMT-32" d="M 3222 541 
L 3222 0 
L 194 0 
Q 188 203 259 391 
Q 375 700 629 1000 
Q 884 1300 1366 1694 
Q 2113 2306 2375 2664 
Q 2638 3022 2638 3341 
Q 2638 3675 2398 3904 
Q 2159 4134 1775 4134 
Q 1369 4134 1125 3890 
Q 881 3647 878 3216 
L 300 3275 
Q 359 3922 746 4261 
Q 1134 4600 1788 4600 
Q 2447 4600 2831 4234 
Q 3216 3869 3216 3328 
Q 3216 3053 3103 2787 
Q 2991 2522 2730 2228 
Q 2469 1934 1863 1422 
Q 1356 997 1212 845 
Q 1069 694 975 541 
L 3222 541 
z
" transform="scale(0.015625)"/>
       </defs>
       <use xlink:href="#ArialMT-30"/>
       <use xlink:href="#ArialMT-2e" transform="translate(55.615234 0)"/>
       <use xlink:href="#ArialMT-32" transform="translate(83.398438 0)"/>
      </g>
     </g>
    </g>
    <g id="ytick_3">
     <g id="line2d_19">
      <path d="M 50.0651 235.146862 
L 1139.318302 235.146862 
" clip-path="url(#pf2e538798e)" style="fill: none; stroke: #cccccc; stroke-opacity: 0.3; stroke-width: 0.8; stroke-linecap: round"/>
     </g>
     <g id="line2d_20">
      <g>
       <use xlink:href="#mb221ea22e0" x="50.0651" y="235.146862" style="fill: #262626; stroke: #262626"/>
      </g>
     </g>
     <g id="text_3">
      <!-- 0.3 -->
      <g style="fill: #262626" transform="translate(28.3099 238.611243) scale(0.0968 -0.0968)">
       <defs>
        <path id="ArialMT-33" d="M 269 1209 
L 831 1284 
Q 928 806 1161 595 
Q 1394 384 1728 384 
Q 2125 384 2398 659 
Q 2672 934 2672 1341 
Q 2672 1728 2419 1979 
Q 2166 2231 1775 2231 
Q 1616 2231 1378 2169 
L 1441 2663 
Q 1497 2656 1531 2656 
Q 1891 2656 2178 2843 
Q 2466 3031 2466 3422 
Q 2466 3731 2256 3934 
Q 2047 4138 1716 4138 
Q 1388 4138 1169 3931 
Q 950 3725 888 3313 
L 325 3413 
Q 428 3978 793 4289 
Q 1159 4600 1703 4600 
Q 2078 4600 2393 4439 
Q 2709 4278 2876 4000 
Q 3044 3722 3044 3409 
Q 3044 3113 2884 2869 
Q 2725 2625 2413 2481 
Q 2819 2388 3044 2092 
Q 3269 1797 3269 1353 
Q 3269 753 2831 336 
Q 2394 -81 1725 -81 
Q 1122 -81 723 278 
Q 325 638 269 1209 
z
" transform="scale(0.015625)"/>
       </defs>
       <use xlink:href="#ArialMT-30"/>
       <use xlink:href="#ArialMT-2e" transform="translate(55.615234 0)"/>
       <use xlink:href="#ArialMT-33" transform="translate(83.398438 0)"/>
      </g>
     </g>
    </g>
    <g id="ytick_4">
     <g id="line2d_21">
      <path d="M 50.0651 208.555263 
L 1139.318302 208.555263 
" clip-path="url(#pf2e538798e)" style="fill: none; stroke: #cccccc; stroke-opacity: 0.3; stroke-width: 0.8; stroke-linecap: round"/>
     </g>
     <g id="line2d_22">
      <g>
       <use xlink:href="#mb221ea22e0" x="50.0651" y="208.555263" style="fill: #262626; stroke: #262626"/>
      </g>
     </g>
     <g id="text_4">
      <!-- 0.4 -->
      <g style="fill: #262626" transform="translate(28.3099 212.019644) scale(0.0968 -0.0968)">
       <defs>
        <path id="ArialMT-34" d="M 2069 0 
L 2069 1097 
L 81 1097 
L 81 1613 
L 2172 4581 
L 2631 4581 
L 2631 1613 
L 3250 1613 
L 3250 1097 
L 2631 1097 
L 2631 0 
L 2069 0 
z
M 2069 1613 
L 2069 3678 
L 634 1613 
L 2069 1613 
z
" transform="scale(0.015625)"/>
       </defs>
       <use xlink:href="#ArialMT-30"/>
       <use xlink:href="#ArialMT-2e" transform="translate(55.615234 0)"/>
       <use xlink:href="#ArialMT-34" transform="translate(83.398438 0)"/>
      </g>
     </g>
    </g>
    <g id="ytick_5">
     <g id="line2d_23">
      <path d="M 50.0651 181.963664 
L 1139.318302 181.963664 
" clip-path="url(#pf2e538798e)" style="fill: none; stroke: #cccccc; stroke-opacity: 0.3; stroke-width: 0.8; stroke-linecap: round"/>
     </g>
     <g id="line2d_24">
      <g>
       <use xlink:href="#mb221ea22e0" x="50.0651" y="181.963664" style="fill: #262626; stroke: #262626"/>
      </g>
     </g>
     <g id="text_5">
      <!-- 0.5 -->
      <g style="fill: #262626" transform="translate(28.3099 185.428045) scale(0.0968 -0.0968)">
       <defs>
        <path id="ArialMT-35" d="M 266 1200 
L 856 1250 
Q 922 819 1161 601 
Q 1400 384 1738 384 
Q 2144 384 2425 690 
Q 2706 997 2706 1503 
Q 2706 1984 2436 2262 
Q 2166 2541 1728 2541 
Q 1456 2541 1237 2417 
Q 1019 2294 894 2097 
L 366 2166 
L 809 4519 
L 3088 4519 
L 3088 3981 
L 1259 3981 
L 1013 2750 
Q 1425 3038 1878 3038 
Q 2478 3038 2890 2622 
Q 3303 2206 3303 1553 
Q 3303 931 2941 478 
Q 2500 -78 1738 -78 
Q 1113 -78 717 272 
Q 322 622 266 1200 
z
" transform="scale(0.015625)"/>
       </defs>
       <use xlink:href="#ArialMT-30"/>
       <use xlink:href="#ArialMT-2e" transform="translate(55.615234 0)"/>
       <use xlink:href="#ArialMT-35" transform="translate(83.398438 0)"/>
      </g>
     </g>
    </g>
    <g id="ytick_6">
     <g id="line2d_25">
      <path d="M 50.0651 155.372065 
L 1139.318302 155.372065 
" clip-path="url(#pf2e538798e)" style="fill: none; stroke: #cccccc; stroke-opacity: 0.3; stroke-width: 0.8; stroke-linecap: round"/>
     </g>
     <g id="line2d_26">
      <g>
       <use xlink:href="#mb221ea22e0" x="50.0651" y="155.372065" style="fill: #262626; stroke: #262626"/>
      </g>
     </g>
     <g id="text_6">
      <!-- 0.6 -->
      <g style="fill: #262626" transform="translate(28.3099 158.836446) scale(0.0968 -0.0968)">
       <defs>
        <path id="ArialMT-36" d="M 3184 3459 
L 2625 3416 
Q 2550 3747 2413 3897 
Q 2184 4138 1850 4138 
Q 1581 4138 1378 3988 
Q 1113 3794 959 3422 
Q 806 3050 800 2363 
Q 1003 2672 1297 2822 
Q 1591 2972 1913 2972 
Q 2475 2972 2870 2558 
Q 3266 2144 3266 1488 
Q 3266 1056 3080 686 
Q 2894 316 2569 119 
Q 2244 -78 1831 -78 
Q 1128 -78 684 439 
Q 241 956 241 2144 
Q 241 3472 731 4075 
Q 1159 4600 1884 4600 
Q 2425 4600 2770 4297 
Q 3116 3994 3184 3459 
z
M 888 1484 
Q 888 1194 1011 928 
Q 1134 663 1356 523 
Q 1578 384 1822 384 
Q 2178 384 2434 671 
Q 2691 959 2691 1453 
Q 2691 1928 2437 2201 
Q 2184 2475 1800 2475 
Q 1419 2475 1153 2201 
Q 888 1928 888 1484 
z
" transform="scale(0.015625)"/>
       </defs>
       <use xlink:href="#ArialMT-30"/>
       <use xlink:href="#ArialMT-2e" transform="translate(55.615234 0)"/>
       <use xlink:href="#ArialMT-36" transform="translate(83.398438 0)"/>
      </g>
     </g>
    </g>
    <g id="ytick_7">
     <g id="line2d_27">
      <path d="M 50.0651 128.780466 
L 1139.318302 128.780466 
" clip-path="url(#pf2e538798e)" style="fill: none; stroke: #cccccc; stroke-opacity: 0.3; stroke-width: 0.8; stroke-linecap: round"/>
     </g>
     <g id="line2d_28">
      <g>
       <use xlink:href="#mb221ea22e0" x="50.0651" y="128.780466" style="fill: #262626; stroke: #262626"/>
      </g>
     </g>
     <g id="text_7">
      <!-- 0.7 -->
      <g style="fill: #262626" transform="translate(28.3099 132.244847) scale(0.0968 -0.0968)">
       <defs>
        <path id="ArialMT-37" d="M 303 3981 
L 303 4522 
L 3269 4522 
L 3269 4084 
Q 2831 3619 2401 2847 
Q 1972 2075 1738 1259 
Q 1569 684 1522 0 
L 944 0 
Q 953 541 1156 1306 
Q 1359 2072 1739 2783 
Q 2119 3494 2547 3981 
L 303 3981 
z
" transform="scale(0.015625)"/>
       </defs>
       <use xlink:href="#ArialMT-30"/>
       <use xlink:href="#ArialMT-2e" transform="translate(55.615234 0)"/>
       <use xlink:href="#ArialMT-37" transform="translate(83.398438 0)"/>
      </g>
     </g>
    </g>
    <g id="ytick_8">
     <g id="line2d_29">
      <path d="M 50.0651 102.188866 
L 1139.318302 102.188866 
" clip-path="url(#pf2e538798e)" style="fill: none; stroke: #cccccc; stroke-opacity: 0.3; stroke-width: 0.8; stroke-linecap: round"/>
     </g>
     <g id="line2d_30">
      <g>
       <use xlink:href="#mb221ea22e0" x="50.0651" y="102.188866" style="fill: #262626; stroke: #262626"/>
      </g>
     </g>
     <g id="text_8">
      <!-- 0.8 -->
      <g style="fill: #262626" transform="translate(28.3099 105.653248) scale(0.0968 -0.0968)">
       <defs>
        <path id="ArialMT-38" d="M 1131 2484 
Q 781 2613 612 2850 
Q 444 3088 444 3419 
Q 444 3919 803 4259 
Q 1163 4600 1759 4600 
Q 2359 4600 2725 4251 
Q 3091 3903 3091 3403 
Q 3091 3084 2923 2848 
Q 2756 2613 2416 2484 
Q 2838 2347 3058 2040 
Q 3278 1734 3278 1309 
Q 3278 722 2862 322 
Q 2447 -78 1769 -78 
Q 1091 -78 675 323 
Q 259 725 259 1325 
Q 259 1772 486 2073 
Q 713 2375 1131 2484 
z
M 1019 3438 
Q 1019 3113 1228 2906 
Q 1438 2700 1772 2700 
Q 2097 2700 2305 2904 
Q 2513 3109 2513 3406 
Q 2513 3716 2298 3927 
Q 2084 4138 1766 4138 
Q 1444 4138 1231 3931 
Q 1019 3725 1019 3438 
z
M 838 1322 
Q 838 1081 952 856 
Q 1066 631 1291 507 
Q 1516 384 1775 384 
Q 2178 384 2440 643 
Q 2703 903 2703 1303 
Q 2703 1709 2433 1975 
Q 2163 2241 1756 2241 
Q 1359 2241 1098 1978 
Q 838 1716 838 1322 
z
" transform="scale(0.015625)"/>
       </defs>
       <use xlink:href="#ArialMT-30"/>
       <use xlink:href="#ArialMT-2e" transform="translate(55.615234 0)"/>
       <use xlink:href="#ArialMT-38" transform="translate(83.398438 0)"/>
      </g>
     </g>
    </g>
    <g id="text_9">
     <!-- Price (M€/GWh) -->
     <g style="fill: #262626" transform="translate(22.08735 227.855875) rotate(-90) scale(0.1056 -0.1056)">
      <defs>
       <path id="ArialMT-50" d="M 494 0 
L 494 4581 
L 2222 4581 
Q 2678 4581 2919 4538 
Q 3256 4481 3484 4323 
Q 3713 4166 3852 3881 
Q 3991 3597 3991 3256 
Q 3991 2672 3619 2267 
Q 3247 1863 2275 1863 
L 1100 1863 
L 1100 0 
L 494 0 
z
M 1100 2403 
L 2284 2403 
Q 2872 2403 3119 2622 
Q 3366 2841 3366 3238 
Q 3366 3525 3220 3729 
Q 3075 3934 2838 4000 
Q 2684 4041 2272 4041 
L 1100 4041 
L 1100 2403 
z
" transform="scale(0.015625)"/>
       <path id="ArialMT-72" d="M 416 0 
L 416 3319 
L 922 3319 
L 922 2816 
Q 1116 3169 1280 3281 
Q 1444 3394 1641 3394 
Q 1925 3394 2219 3213 
L 2025 2691 
Q 1819 2813 1613 2813 
Q 1428 2813 1281 2702 
Q 1134 2591 1072 2394 
Q 978 2094 978 1738 
L 978 0 
L 416 0 
z
" transform="scale(0.015625)"/>
       <path id="ArialMT-69" d="M 425 3934 
L 425 4581 
L 988 4581 
L 988 3934 
L 425 3934 
z
M 425 0 
L 425 3319 
L 988 3319 
L 988 0 
L 425 0 
z
" transform="scale(0.015625)"/>
       <path id="ArialMT-63" d="M 2588 1216 
L 3141 1144 
Q 3050 572 2676 248 
Q 2303 -75 1759 -75 
Q 1078 -75 664 370 
Q 250 816 250 1647 
Q 250 2184 428 2587 
Q 606 2991 970 3192 
Q 1334 3394 1763 3394 
Q 2303 3394 2647 3120 
Q 2991 2847 3088 2344 
L 2541 2259 
Q 2463 2594 2264 2762 
Q 2066 2931 1784 2931 
Q 1359 2931 1093 2626 
Q 828 2322 828 1663 
Q 828 994 1084 691 
Q 1341 388 1753 388 
Q 2084 388 2306 591 
Q 2528 794 2588 1216 
z
" transform="scale(0.015625)"/>
       <path id="ArialMT-65" d="M 2694 1069 
L 3275 997 
Q 3138 488 2766 206 
Q 2394 -75 1816 -75 
Q 1088 -75 661 373 
Q 234 822 234 1631 
Q 234 2469 665 2931 
Q 1097 3394 1784 3394 
Q 2450 3394 2872 2941 
Q 3294 2488 3294 1666 
Q 3294 1616 3291 1516 
L 816 1516 
Q 847 969 1125 678 
Q 1403 388 1819 388 
Q 2128 388 2347 550 
Q 2566 713 2694 1069 
z
M 847 1978 
L 2700 1978 
Q 2663 2397 2488 2606 
Q 2219 2931 1791 2931 
Q 1403 2931 1139 2672 
Q 875 2413 847 1978 
z
" transform="scale(0.015625)"/>
       <path id="ArialMT-20" transform="scale(0.015625)"/>
       <path id="ArialMT-28" d="M 1497 -1347 
Q 1031 -759 709 28 
Q 388 816 388 1659 
Q 388 2403 628 3084 
Q 909 3875 1497 4659 
L 1900 4659 
Q 1522 4009 1400 3731 
Q 1209 3300 1100 2831 
Q 966 2247 966 1656 
Q 966 153 1900 -1347 
L 1497 -1347 
z
" transform="scale(0.015625)"/>
       <path id="ArialMT-4d" d="M 475 0 
L 475 4581 
L 1388 4581 
L 2472 1338 
Q 2622 884 2691 659 
Q 2769 909 2934 1394 
L 4031 4581 
L 4847 4581 
L 4847 0 
L 4263 0 
L 4263 3834 
L 2931 0 
L 2384 0 
L 1059 3900 
L 1059 0 
L 475 0 
z
" transform="scale(0.015625)"/>
       <path id="ArialMT-20ac" d="M 2469 4141 
Q 1944 4141 1588 3888 
Q 1375 3738 1203 3463 
Q 1028 3178 997 2922 
L 3128 2922 
L 3044 2503 
L 947 2503 
Q 944 2438 944 2378 
Q 944 2138 947 2091 
L 2959 2091 
L 2872 1672 
L 1013 1672 
Q 1144 956 1644 656 
Q 2003 441 2422 441 
Q 3006 441 3334 747 
L 3334 103 
Q 2944 -78 2472 -78 
Q 1059 -78 563 1097 
Q 463 1334 391 1672 
L -88 1672 
L 0 2091 
L 328 2091 
Q 319 2222 319 2375 
Q 319 2438 322 2503 
L -88 2503 
L 0 2922 
L 363 2922 
Q 556 3941 1372 4384 
Q 1875 4659 2481 4659 
Q 3063 4659 3459 4406 
L 3334 3825 
Q 2953 4141 2469 4141 
z
" transform="scale(0.015625)"/>
       <path id="ArialMT-2f" d="M 0 -78 
L 1328 4659 
L 1778 4659 
L 453 -78 
L 0 -78 
z
" transform="scale(0.015625)"/>
       <path id="ArialMT-47" d="M 2638 1797 
L 2638 2334 
L 4578 2338 
L 4578 638 
Q 4131 281 3656 101 
Q 3181 -78 2681 -78 
Q 2006 -78 1454 211 
Q 903 500 622 1047 
Q 341 1594 341 2269 
Q 341 2938 620 3517 
Q 900 4097 1425 4378 
Q 1950 4659 2634 4659 
Q 3131 4659 3532 4498 
Q 3934 4338 4162 4050 
Q 4391 3763 4509 3300 
L 3963 3150 
Q 3859 3500 3706 3700 
Q 3553 3900 3268 4020 
Q 2984 4141 2638 4141 
Q 2222 4141 1919 4014 
Q 1616 3888 1430 3681 
Q 1244 3475 1141 3228 
Q 966 2803 966 2306 
Q 966 1694 1177 1281 
Q 1388 869 1791 669 
Q 2194 469 2647 469 
Q 3041 469 3416 620 
Q 3791 772 3984 944 
L 3984 1797 
L 2638 1797 
z
" transform="scale(0.015625)"/>
       <path id="ArialMT-57" d="M 1294 0 
L 78 4581 
L 700 4581 
L 1397 1578 
Q 1509 1106 1591 641 
Q 1766 1375 1797 1488 
L 2669 4581 
L 3400 4581 
L 4056 2263 
Q 4303 1400 4413 641 
Q 4500 1075 4641 1638 
L 5359 4581 
L 5969 4581 
L 4713 0 
L 4128 0 
L 3163 3491 
Q 3041 3928 3019 4028 
Q 2947 3713 2884 3491 
L 1913 0 
L 1294 0 
z
" transform="scale(0.015625)"/>
       <path id="ArialMT-68" d="M 422 0 
L 422 4581 
L 984 4581 
L 984 2938 
Q 1378 3394 1978 3394 
Q 2347 3394 2619 3248 
Q 2891 3103 3008 2847 
Q 3125 2591 3125 2103 
L 3125 0 
L 2563 0 
L 2563 2103 
Q 2563 2525 2380 2717 
Q 2197 2909 1863 2909 
Q 1613 2909 1392 2779 
Q 1172 2650 1078 2428 
Q 984 2206 984 1816 
L 984 0 
L 422 0 
z
" transform="scale(0.015625)"/>
       <path id="ArialMT-29" d="M 791 -1347 
L 388 -1347 
Q 1322 153 1322 1656 
Q 1322 2244 1188 2822 
Q 1081 3291 891 3722 
Q 769 4003 388 4659 
L 791 4659 
Q 1378 3875 1659 3084 
Q 1900 2403 1900 1659 
Q 1900 816 1576 28 
Q 1253 -759 791 -1347 
z
" transform="scale(0.015625)"/>
      </defs>
      <use xlink:href="#ArialMT-50"/>
      <use xlink:href="#ArialMT-72" transform="translate(66.699219 0)"/>
      <use xlink:href="#ArialMT-69" transform="translate(100 0)"/>
      <use xlink:href="#ArialMT-63" transform="translate(122.216797 0)"/>
      <use xlink:href="#ArialMT-65" transform="translate(172.216797 0)"/>
      <use xlink:href="#ArialMT-20" transform="translate(227.832031 0)"/>
      <use xlink:href="#ArialMT-28" transform="translate(255.615234 0)"/>
      <use xlink:href="#ArialMT-4d" transform="translate(288.916016 0)"/>
      <use xlink:href="#ArialMT-20ac" transform="translate(372.216797 0)"/>
      <use xlink:href="#ArialMT-2f" transform="translate(427.832031 0)"/>
      <use xlink:href="#ArialMT-47" transform="translate(455.615234 0)"/>
      <use xlink:href="#ArialMT-57" transform="translate(533.398438 0)"/>
      <use xlink:href="#ArialMT-68" transform="translate(627.783203 0)"/>
      <use xlink:href="#ArialMT-29" transform="translate(683.398438 0)"/>
     </g>
    </g>
   </g>
   <g id="line2d_31">
    <path d="M 99.576609 288.814027 
L 103.026889 291.733785 
L 109.927447 291.723148 
L 113.377727 290.986561 
L 116.828006 288.577362 
L 120.278285 287.558904 
L 123.728565 286.657449 
L 127.178844 274.874711 
L 137.529682 274.46786 
L 140.979962 274.292355 
L 144.430241 274.342879 
L 147.880521 274.898644 
L 151.3308 274.393403 
L 154.781079 248.192701 
L 158.231359 86.664691 
L 161.681638 147.72698 
L 165.131917 193.568238 
L 168.582197 274.792277 
L 172.032476 287.308943 
L 175.482756 288.175829 
L 178.933035 288.564066 
L 182.383314 291.84547 
L 185.833594 292.526215 
L 189.283873 292.433144 
L 192.734153 292.582057 
L 196.184432 292.209775 
L 199.634711 291.374798 
L 203.084991 288.250285 
L 206.53527 287.691862 
L 213.435829 287.298306 
L 216.886108 287.72909 
L 227.236946 287.606769 
L 230.687226 288.181147 
L 234.137505 288.415153 
L 237.587785 287.072278 
L 241.038064 286.793066 
L 244.488343 274.584863 
L 247.938623 274.840142 
L 251.388902 287.41265 
L 254.839181 288.016279 
L 258.289461 288.739571 
L 261.73974 291.068995 
L 265.19002 291.603486 
L 268.640299 292.600671 
L 275.540858 292.73097 
L 282.441417 291.138133 
L 285.891696 288.609272 
L 289.341975 287.753023 
L 292.792255 287.439242 
L 296.242534 287.409991 
L 299.692813 287.617405 
L 303.143093 287.681225 
L 306.593372 287.279692 
L 310.043652 287.237145 
L 313.493931 287.92055 
L 316.94421 287.939164 
L 320.39449 286.886136 
L 323.844769 287.043027 
L 327.295049 274.526361 
L 330.745328 274.49711 
L 334.195607 287.298306 
L 337.645887 287.976392 
L 341.096166 288.835301 
L 344.546445 291.108882 
L 347.996725 291.632737 
L 351.447004 292.305504 
L 354.897284 292.366665 
L 358.347563 292.292208 
L 365.248122 291.199294 
L 368.698401 288.303469 
L 372.148681 286.918046 
L 379.049239 286.832953 
L 382.499519 287.505721 
L 385.949798 287.375422 
L 389.400077 286.258575 
L 392.850357 274.914598 
L 396.300636 287.691862 
L 399.750916 287.82482 
L 403.201195 274.919917 
L 406.651474 275.087444 
L 413.552033 274.406699 
L 417.002313 287.120142 
L 420.452592 288.042871 
L 423.902871 288.61459 
L 427.353151 290.959969 
L 430.80343 292.116704 
L 434.253709 292.962317 
L 441.154268 293.347895 
L 444.604548 292.41453 
L 448.054827 292.028952 
L 451.505106 288.577362 
L 454.955386 288.061485 
L 458.405665 287.715794 
L 461.855945 287.753023 
L 465.306224 287.98171 
L 468.756503 287.859389 
L 472.206783 287.09621 
L 475.657062 286.753178 
L 479.107341 287.47647 
L 482.557621 288.037553 
L 486.0079 274.800255 
L 489.45818 287.019094 
L 492.908459 274.40404 
L 496.358738 274.598158 
L 499.809018 286.30644 
L 503.259297 287.774296 
L 506.709577 288.577362 
L 510.159856 288.80605 
L 513.610135 291.667306 
L 517.060415 292.284231 
L 520.510694 292.707037 
L 523.960973 292.672468 
L 527.411253 291.68592 
L 530.861532 290.999857 
L 534.311812 288.396539 
L 537.762091 286.957934 
L 541.21237 286.97123 
L 544.66265 287.394036 
L 548.112929 287.654634 
L 551.563209 287.22385 
L 555.013488 286.952615 
L 558.463767 287.114824 
L 561.914047 287.511039 
L 565.364326 287.436582 
L 568.814605 274.848119 
L 572.264885 286.896773 
L 575.715164 274.539657 
L 579.165444 274.419995 
L 582.615723 286.436738 
L 586.066002 287.417968 
L 589.516282 288.540134 
L 592.966561 288.861892 
L 596.416841 291.68592 
L 599.86712 292.805426 
L 603.317399 292.520896 
L 606.767679 292.632581 
L 610.217958 292.212434 
L 613.668237 291.247159 
L 617.118517 288.460359 
L 620.568796 287.56954 
L 624.019076 287.114824 
L 627.469355 287.19194 
L 630.919634 287.452537 
L 634.369914 287.907254 
L 637.820193 287.279692 
L 644.720752 288.287514 
L 648.171031 288.348674 
L 651.621311 287.069618 
L 655.07159 287.465833 
L 658.521869 286.987184 
L 661.972149 274.536998 
L 665.422428 287.125461 
L 672.322987 288.407176 
L 675.773266 288.691706 
L 679.223546 291.888016 
L 682.673825 292.566102 
L 689.574384 292.744266 
L 693.024663 291.914608 
L 696.474943 291.582213 
L 699.925222 288.439086 
L 706.825781 287.197258 
L 710.27606 287.612087 
L 713.72634 287.433923 
L 717.176619 288.300809 
L 724.077178 287.875344 
L 727.527457 288.484291 
L 730.977737 291.071654 
L 734.428016 287.715794 
L 737.878295 287.907254 
L 741.328575 287.303624 
L 744.778854 286.976548 
L 748.229133 287.465833 
L 751.679413 287.667929 
L 755.129692 288.593317 
L 758.579972 288.976236 
L 762.030251 291.276409 
L 765.48053 292.172546 
L 768.93081 292.241684 
L 772.381089 292.611308 
L 775.831369 291.632737 
L 779.281648 291.295024 
L 782.731927 287.941823 
L 786.182207 287.330216 
L 789.632486 286.952615 
L 793.082765 287.104188 
L 799.983324 288.324742 
L 803.433604 288.008302 
L 810.334162 288.021598 
L 813.784442 288.782117 
L 817.234721 287.484447 
L 820.685001 287.72909 
L 824.13528 287.114824 
L 827.585559 274.792277 
L 831.035839 286.912728 
L 834.486118 287.893958 
L 837.936397 288.71032 
L 841.386677 288.960281 
L 844.836956 291.055699 
L 848.287236 291.997042 
L 851.737515 292.127341 
L 855.187794 291.978428 
L 858.638074 291.409367 
L 862.088353 288.790095 
L 868.988912 286.979207 
L 872.439191 275.052875 
L 875.889471 275.044897 
L 879.33975 287.308943 
L 886.240309 287.511039 
L 889.690588 287.768977 
L 893.140868 288.258263 
L 896.591147 288.478973 
L 900.041426 287.351489 
L 903.491706 287.25576 
L 906.941985 274.699207 
L 910.392265 274.640705 
L 913.842544 286.896773 
L 917.292823 287.580177 
L 920.743103 288.497587 
L 924.193382 290.874876 
L 927.643661 291.345548 
L 931.093941 292.369324 
L 934.54422 292.659173 
L 937.9945 292.691082 
L 941.444779 291.627419 
L 944.895058 291.659328 
L 948.345338 288.619909 
L 951.795617 287.473811 
L 955.245897 287.471152 
L 958.696176 287.154712 
L 962.146455 287.651974 
L 965.596735 287.816842 
L 969.047014 287.580177 
L 975.947573 288.752867 
L 979.397852 288.712979 
L 982.848132 287.878003 
L 986.298411 287.245123 
L 989.74869 287.157371 
L 993.19897 274.999692 
L 996.649249 287.707817 
L 1000.099529 288.170511 
L 1003.549808 291.14877 
L 1007.000087 291.598168 
L 1010.450367 292.183183 
L 1013.900646 293.366509 
L 1017.350925 293.100593 
L 1020.801205 293.191005 
L 1027.701764 291.661988 
L 1031.152043 288.486951 
L 1038.052602 286.949956 
L 1041.502881 286.96857 
L 1048.40344 287.516357 
L 1051.853719 286.957934 
L 1055.303999 287.590814 
L 1058.754278 287.550926 
L 1062.204557 287.992347 
L 1065.654837 287.457856 
L 1069.105116 287.037709 
L 1072.555396 274.704525 
L 1076.005675 274.321606 
L 1079.455954 274.954486 
L 1082.906234 287.750363 
L 1086.356513 288.502906 
L 1089.806793 288.939008 
L 1089.806793 288.939008 
" clip-path="url(#pf2e538798e)" style="fill: none; stroke: #800080; stroke-width: 1.5; stroke-linecap: round"/>
   </g>
   <g id="patch_3">
    <path d="M 50.0651 303.7016 
L 50.0651 76.3296 
" style="fill: none; stroke: #cccccc; stroke-linejoin: miter; stroke-linecap: square"/>
   </g>
   <g id="patch_4">
    <path d="M 1139.318302 303.7016 
L 1139.318302 76.3296 
" style="fill: none; stroke: #cccccc; stroke-linejoin: miter; stroke-linecap: square"/>
   </g>
   <g id="patch_5">
    <path d="M 50.0651 303.7016 
L 1139.318302 303.7016 
" style="fill: none; stroke: #cccccc; stroke-linejoin: miter; stroke-linecap: square"/>
   </g>
   <g id="patch_6">
    <path d="M 50.0651 76.3296 
L 1139.318302 76.3296 
" style="fill: none; stroke: #cccccc; stroke-linejoin: miter; stroke-linecap: square"/>
   </g>
   <g id="text_10">
    <!-- Scenario 3 - 3.EOM El.+ CVAR -->
    <g style="fill: #262626" transform="translate(521.868951 70.3296) scale(0.1056 -0.1056)">
     <defs>
      <path id="ArialMT-53" d="M 288 1472 
L 859 1522 
Q 900 1178 1048 958 
Q 1197 738 1509 602 
Q 1822 466 2213 466 
Q 2559 466 2825 569 
Q 3091 672 3220 851 
Q 3350 1031 3350 1244 
Q 3350 1459 3225 1620 
Q 3100 1781 2813 1891 
Q 2628 1963 1997 2114 
Q 1366 2266 1113 2400 
Q 784 2572 623 2826 
Q 463 3081 463 3397 
Q 463 3744 659 4045 
Q 856 4347 1234 4503 
Q 1613 4659 2075 4659 
Q 2584 4659 2973 4495 
Q 3363 4331 3572 4012 
Q 3781 3694 3797 3291 
L 3216 3247 
Q 3169 3681 2898 3903 
Q 2628 4125 2100 4125 
Q 1550 4125 1298 3923 
Q 1047 3722 1047 3438 
Q 1047 3191 1225 3031 
Q 1400 2872 2139 2705 
Q 2878 2538 3153 2413 
Q 3553 2228 3743 1945 
Q 3934 1663 3934 1294 
Q 3934 928 3725 604 
Q 3516 281 3123 101 
Q 2731 -78 2241 -78 
Q 1619 -78 1198 103 
Q 778 284 539 648 
Q 300 1013 288 1472 
z
" transform="scale(0.015625)"/>
      <path id="ArialMT-6e" d="M 422 0 
L 422 3319 
L 928 3319 
L 928 2847 
Q 1294 3394 1984 3394 
Q 2284 3394 2536 3286 
Q 2788 3178 2913 3003 
Q 3038 2828 3088 2588 
Q 3119 2431 3119 2041 
L 3119 0 
L 2556 0 
L 2556 2019 
Q 2556 2363 2490 2533 
Q 2425 2703 2258 2804 
Q 2091 2906 1866 2906 
Q 1506 2906 1245 2678 
Q 984 2450 984 1813 
L 984 0 
L 422 0 
z
" transform="scale(0.015625)"/>
      <path id="ArialMT-61" d="M 2588 409 
Q 2275 144 1986 34 
Q 1697 -75 1366 -75 
Q 819 -75 525 192 
Q 231 459 231 875 
Q 231 1119 342 1320 
Q 453 1522 633 1644 
Q 813 1766 1038 1828 
Q 1203 1872 1538 1913 
Q 2219 1994 2541 2106 
Q 2544 2222 2544 2253 
Q 2544 2597 2384 2738 
Q 2169 2928 1744 2928 
Q 1347 2928 1158 2789 
Q 969 2650 878 2297 
L 328 2372 
Q 403 2725 575 2942 
Q 747 3159 1072 3276 
Q 1397 3394 1825 3394 
Q 2250 3394 2515 3294 
Q 2781 3194 2906 3042 
Q 3031 2891 3081 2659 
Q 3109 2516 3109 2141 
L 3109 1391 
Q 3109 606 3145 398 
Q 3181 191 3288 0 
L 2700 0 
Q 2613 175 2588 409 
z
M 2541 1666 
Q 2234 1541 1622 1453 
Q 1275 1403 1131 1340 
Q 988 1278 909 1158 
Q 831 1038 831 891 
Q 831 666 1001 516 
Q 1172 366 1500 366 
Q 1825 366 2078 508 
Q 2331 650 2450 897 
Q 2541 1088 2541 1459 
L 2541 1666 
z
" transform="scale(0.015625)"/>
      <path id="ArialMT-6f" d="M 213 1659 
Q 213 2581 725 3025 
Q 1153 3394 1769 3394 
Q 2453 3394 2887 2945 
Q 3322 2497 3322 1706 
Q 3322 1066 3130 698 
Q 2938 331 2570 128 
Q 2203 -75 1769 -75 
Q 1072 -75 642 372 
Q 213 819 213 1659 
z
M 791 1659 
Q 791 1022 1069 705 
Q 1347 388 1769 388 
Q 2188 388 2466 706 
Q 2744 1025 2744 1678 
Q 2744 2294 2464 2611 
Q 2184 2928 1769 2928 
Q 1347 2928 1069 2612 
Q 791 2297 791 1659 
z
" transform="scale(0.015625)"/>
      <path id="ArialMT-2d" d="M 203 1375 
L 203 1941 
L 1931 1941 
L 1931 1375 
L 203 1375 
z
" transform="scale(0.015625)"/>
      <path id="ArialMT-45" d="M 506 0 
L 506 4581 
L 3819 4581 
L 3819 4041 
L 1113 4041 
L 1113 2638 
L 3647 2638 
L 3647 2100 
L 1113 2100 
L 1113 541 
L 3925 541 
L 3925 0 
L 506 0 
z
" transform="scale(0.015625)"/>
      <path id="ArialMT-4f" d="M 309 2231 
Q 309 3372 921 4017 
Q 1534 4663 2503 4663 
Q 3138 4663 3647 4359 
Q 4156 4056 4423 3514 
Q 4691 2972 4691 2284 
Q 4691 1588 4409 1038 
Q 4128 488 3612 205 
Q 3097 -78 2500 -78 
Q 1853 -78 1343 234 
Q 834 547 571 1087 
Q 309 1628 309 2231 
z
M 934 2222 
Q 934 1394 1379 917 
Q 1825 441 2497 441 
Q 3181 441 3623 922 
Q 4066 1403 4066 2288 
Q 4066 2847 3877 3264 
Q 3688 3681 3323 3911 
Q 2959 4141 2506 4141 
Q 1863 4141 1398 3698 
Q 934 3256 934 2222 
z
" transform="scale(0.015625)"/>
      <path id="ArialMT-6c" d="M 409 0 
L 409 4581 
L 972 4581 
L 972 0 
L 409 0 
z
" transform="scale(0.015625)"/>
      <path id="ArialMT-2b" d="M 1603 741 
L 1603 1997 
L 356 1997 
L 356 2522 
L 1603 2522 
L 1603 3769 
L 2134 3769 
L 2134 2522 
L 3381 2522 
L 3381 1997 
L 2134 1997 
L 2134 741 
L 1603 741 
z
" transform="scale(0.015625)"/>
      <path id="ArialMT-43" d="M 3763 1606 
L 4369 1453 
Q 4178 706 3683 314 
Q 3188 -78 2472 -78 
Q 1731 -78 1267 223 
Q 803 525 561 1097 
Q 319 1669 319 2325 
Q 319 3041 592 3573 
Q 866 4106 1370 4382 
Q 1875 4659 2481 4659 
Q 3169 4659 3637 4309 
Q 4106 3959 4291 3325 
L 3694 3184 
Q 3534 3684 3231 3912 
Q 2928 4141 2469 4141 
Q 1941 4141 1586 3887 
Q 1231 3634 1087 3207 
Q 944 2781 944 2328 
Q 944 1744 1114 1308 
Q 1284 872 1643 656 
Q 2003 441 2422 441 
Q 2931 441 3284 734 
Q 3638 1028 3763 1606 
z
" transform="scale(0.015625)"/>
      <path id="ArialMT-56" d="M 1803 0 
L 28 4581 
L 684 4581 
L 1875 1253 
Q 2019 853 2116 503 
Q 2222 878 2363 1253 
L 3600 4581 
L 4219 4581 
L 2425 0 
L 1803 0 
z
" transform="scale(0.015625)"/>
      <path id="ArialMT-41" d="M -9 0 
L 1750 4581 
L 2403 4581 
L 4278 0 
L 3588 0 
L 3053 1388 
L 1138 1388 
L 634 0 
L -9 0 
z
M 1313 1881 
L 2866 1881 
L 2388 3150 
Q 2169 3728 2063 4100 
Q 1975 3659 1816 3225 
L 1313 1881 
z
" transform="scale(0.015625)"/>
      <path id="ArialMT-52" d="M 503 0 
L 503 4581 
L 2534 4581 
Q 3147 4581 3465 4457 
Q 3784 4334 3975 4021 
Q 4166 3709 4166 3331 
Q 4166 2844 3850 2509 
Q 3534 2175 2875 2084 
Q 3116 1969 3241 1856 
Q 3506 1613 3744 1247 
L 4541 0 
L 3778 0 
L 3172 953 
Q 2906 1366 2734 1584 
Q 2563 1803 2427 1890 
Q 2291 1978 2150 2013 
Q 2047 2034 1813 2034 
L 1109 2034 
L 1109 0 
L 503 0 
z
M 1109 2559 
L 2413 2559 
Q 2828 2559 3062 2645 
Q 3297 2731 3419 2920 
Q 3541 3109 3541 3331 
Q 3541 3656 3305 3865 
Q 3069 4075 2559 4075 
L 1109 4075 
L 1109 2559 
z
" transform="scale(0.015625)"/>
     </defs>
     <use xlink:href="#ArialMT-53"/>
     <use xlink:href="#ArialMT-63" transform="translate(66.699219 0)"/>
     <use xlink:href="#ArialMT-65" transform="translate(116.699219 0)"/>
     <use xlink:href="#ArialMT-6e" transform="translate(172.314453 0)"/>
     <use xlink:href="#ArialMT-61" transform="translate(227.929688 0)"/>
     <use xlink:href="#ArialMT-72" transform="translate(283.544922 0)"/>
     <use xlink:href="#ArialMT-69" transform="translate(316.845703 0)"/>
     <use xlink:href="#ArialMT-6f" transform="translate(339.0625 0)"/>
     <use xlink:href="#ArialMT-20" transform="translate(394.677734 0)"/>
     <use xlink:href="#ArialMT-33" transform="translate(422.460938 0)"/>
     <use xlink:href="#ArialMT-20" transform="translate(478.076172 0)"/>
     <use xlink:href="#ArialMT-2d" transform="translate(505.859375 0)"/>
     <use xlink:href="#ArialMT-20" transform="translate(539.160156 0)"/>
     <use xlink:href="#ArialMT-33" transform="translate(566.943359 0)"/>
     <use xlink:href="#ArialMT-2e" transform="translate(622.558594 0)"/>
     <use xlink:href="#ArialMT-45" transform="translate(650.341797 0)"/>
     <use xlink:href="#ArialMT-4f" transform="translate(717.041016 0)"/>
     <use xlink:href="#ArialMT-4d" transform="translate(794.824219 0)"/>
     <use xlink:href="#ArialMT-20" transform="translate(878.125 0)"/>
     <use xlink:href="#ArialMT-45" transform="translate(905.908203 0)"/>
     <use xlink:href="#ArialMT-6c" transform="translate(972.607422 0)"/>
     <use xlink:href="#ArialMT-2e" transform="translate(994.824219 0)"/>
     <use xlink:href="#ArialMT-2b" transform="translate(1022.607422 0)"/>
     <use xlink:href="#ArialMT-20" transform="translate(1081.005859 0)"/>
     <use xlink:href="#ArialMT-43" transform="translate(1108.789062 0)"/>
     <use xlink:href="#ArialMT-56" transform="translate(1181.005859 0)"/>
     <use xlink:href="#ArialMT-41" transform="translate(1240.330078 0)"/>
     <use xlink:href="#ArialMT-52" transform="translate(1307.029297 0)"/>
    </g>
   </g>
   <g id="legend_1">
    <g id="line2d_32">
     <path d="M 1081.448539 88.582363 
L 1091.128539 88.582363 
L 1100.808539 88.582363 
" style="fill: none; stroke: #800080; stroke-width: 1.5; stroke-linecap: round"/>
    </g>
    <g id="text_11">
     <!-- Price -->
     <g style="fill: #262626" transform="translate(1108.552539 91.970363) scale(0.0968 -0.0968)">
      <use xlink:href="#ArialMT-50"/>
      <use xlink:href="#ArialMT-72" transform="translate(66.699219 0)"/>
      <use xlink:href="#ArialMT-69" transform="translate(100 0)"/>
      <use xlink:href="#ArialMT-63" transform="translate(122.216797 0)"/>
      <use xlink:href="#ArialMT-65" transform="translate(172.216797 0)"/>
     </g>
    </g>
   </g>
  </g>
  <g id="axes_2">
   <g id="patch_7">
    <path d="M 50.0651 561.1984 
L 1139.318302 561.1984 
L 1139.318302 333.8264 
L 50.0651 333.8264 
z
" style="fill: #ffffff"/>
   </g>
   <g id="matplotlib.axis_3">
    <g id="xtick_8">
     <g id="line2d_33">
      <path d="M 99.576609 561.1984 
L 99.576609 333.8264 
" clip-path="url(#p58c1c86324)" style="fill: none; stroke: #cccccc; stroke-opacity: 0.3; stroke-width: 0.8; stroke-linecap: round"/>
     </g>
     <g id="line2d_34">
      <g>
       <use xlink:href="#mfbb4a246c3" x="99.576609" y="561.1984" style="fill: #262626; stroke: #262626"/>
      </g>
     </g>
    </g>
    <g id="xtick_9">
     <g id="line2d_35">
      <path d="M 272.090578 561.1984 
L 272.090578 333.8264 
" clip-path="url(#p58c1c86324)" style="fill: none; stroke: #cccccc; stroke-opacity: 0.3; stroke-width: 0.8; stroke-linecap: round"/>
     </g>
     <g id="line2d_36">
      <g>
       <use xlink:href="#mfbb4a246c3" x="272.090578" y="561.1984" style="fill: #262626; stroke: #262626"/>
      </g>
     </g>
    </g>
    <g id="xtick_10">
     <g id="line2d_37">
      <path d="M 444.604548 561.1984 
L 444.604548 333.8264 
" clip-path="url(#p58c1c86324)" style="fill: none; stroke: #cccccc; stroke-opacity: 0.3; stroke-width: 0.8; stroke-linecap: round"/>
     </g>
     <g id="line2d_38">
      <g>
       <use xlink:href="#mfbb4a246c3" x="444.604548" y="561.1984" style="fill: #262626; stroke: #262626"/>
      </g>
     </g>
    </g>
    <g id="xtick_11">
     <g id="line2d_39">
      <path d="M 617.118517 561.1984 
L 617.118517 333.8264 
" clip-path="url(#p58c1c86324)" style="fill: none; stroke: #cccccc; stroke-opacity: 0.3; stroke-width: 0.8; stroke-linecap: round"/>
     </g>
     <g id="line2d_40">
      <g>
       <use xlink:href="#mfbb4a246c3" x="617.118517" y="561.1984" style="fill: #262626; stroke: #262626"/>
      </g>
     </g>
    </g>
    <g id="xtick_12">
     <g id="line2d_41">
      <path d="M 789.632486 561.1984 
L 789.632486 333.8264 
" clip-path="url(#p58c1c86324)" style="fill: none; stroke: #cccccc; stroke-opacity: 0.3; stroke-width: 0.8; stroke-linecap: round"/>
     </g>
     <g id="line2d_42">
      <g>
       <use xlink:href="#mfbb4a246c3" x="789.632486" y="561.1984" style="fill: #262626; stroke: #262626"/>
      </g>
     </g>
    </g>
    <g id="xtick_13">
     <g id="line2d_43">
      <path d="M 962.146455 561.1984 
L 962.146455 333.8264 
" clip-path="url(#p58c1c86324)" style="fill: none; stroke: #cccccc; stroke-opacity: 0.3; stroke-width: 0.8; stroke-linecap: round"/>
     </g>
     <g id="line2d_44">
      <g>
       <use xlink:href="#mfbb4a246c3" x="962.146455" y="561.1984" style="fill: #262626; stroke: #262626"/>
      </g>
     </g>
    </g>
    <g id="xtick_14">
     <g id="line2d_45">
      <path d="M 1134.660425 561.1984 
L 1134.660425 333.8264 
" clip-path="url(#p58c1c86324)" style="fill: none; stroke: #cccccc; stroke-opacity: 0.3; stroke-width: 0.8; stroke-linecap: round"/>
     </g>
     <g id="line2d_46">
      <g>
       <use xlink:href="#mfbb4a246c3" x="1134.660425" y="561.1984" style="fill: #262626; stroke: #262626"/>
      </g>
     </g>
    </g>
   </g>
   <g id="matplotlib.axis_4">
    <g id="ytick_9">
     <g id="line2d_47">
      <path d="M 50.0651 545.783843 
L 1139.318302 545.783843 
" clip-path="url(#p58c1c86324)" style="fill: none; stroke: #cccccc; stroke-opacity: 0.3; stroke-width: 0.8; stroke-linecap: round"/>
     </g>
     <g id="line2d_48">
      <g>
       <use xlink:href="#mb221ea22e0" x="50.0651" y="545.783843" style="fill: #262626; stroke: #262626"/>
      </g>
     </g>
     <g id="text_12">
      <!-- 0.1 -->
      <g style="fill: #262626" transform="translate(28.3099 549.248224) scale(0.0968 -0.0968)">
       <use xlink:href="#ArialMT-30"/>
       <use xlink:href="#ArialMT-2e" transform="translate(55.615234 0)"/>
       <use xlink:href="#ArialMT-31" transform="translate(83.398438 0)"/>
      </g>
     </g>
    </g>
    <g id="ytick_10">
     <g id="line2d_49">
      <path d="M 50.0651 518.95095 
L 1139.318302 518.95095 
" clip-path="url(#p58c1c86324)" style="fill: none; stroke: #cccccc; stroke-opacity: 0.3; stroke-width: 0.8; stroke-linecap: round"/>
     </g>
     <g id="line2d_50">
      <g>
       <use xlink:href="#mb221ea22e0" x="50.0651" y="518.95095" style="fill: #262626; stroke: #262626"/>
      </g>
     </g>
     <g id="text_13">
      <!-- 0.2 -->
      <g style="fill: #262626" transform="translate(28.3099 522.415332) scale(0.0968 -0.0968)">
       <use xlink:href="#ArialMT-30"/>
       <use xlink:href="#ArialMT-2e" transform="translate(55.615234 0)"/>
       <use xlink:href="#ArialMT-32" transform="translate(83.398438 0)"/>
      </g>
     </g>
    </g>
    <g id="ytick_11">
     <g id="line2d_51">
      <path d="M 50.0651 492.118058 
L 1139.318302 492.118058 
" clip-path="url(#p58c1c86324)" style="fill: none; stroke: #cccccc; stroke-opacity: 0.3; stroke-width: 0.8; stroke-linecap: round"/>
     </g>
     <g id="line2d_52">
      <g>
       <use xlink:href="#mb221ea22e0" x="50.0651" y="492.118058" style="fill: #262626; stroke: #262626"/>
      </g>
     </g>
     <g id="text_14">
      <!-- 0.3 -->
      <g style="fill: #262626" transform="translate(28.3099 495.58244) scale(0.0968 -0.0968)">
       <use xlink:href="#ArialMT-30"/>
       <use xlink:href="#ArialMT-2e" transform="translate(55.615234 0)"/>
       <use xlink:href="#ArialMT-33" transform="translate(83.398438 0)"/>
      </g>
     </g>
    </g>
    <g id="ytick_12">
     <g id="line2d_53">
      <path d="M 50.0651 465.285166 
L 1139.318302 465.285166 
" clip-path="url(#p58c1c86324)" style="fill: none; stroke: #cccccc; stroke-opacity: 0.3; stroke-width: 0.8; stroke-linecap: round"/>
     </g>
     <g id="line2d_54">
      <g>
       <use xlink:href="#mb221ea22e0" x="50.0651" y="465.285166" style="fill: #262626; stroke: #262626"/>
      </g>
     </g>
     <g id="text_15">
      <!-- 0.4 -->
      <g style="fill: #262626" transform="translate(28.3099 468.749547) scale(0.0968 -0.0968)">
       <use xlink:href="#ArialMT-30"/>
       <use xlink:href="#ArialMT-2e" transform="translate(55.615234 0)"/>
       <use xlink:href="#ArialMT-34" transform="translate(83.398438 0)"/>
      </g>
     </g>
    </g>
    <g id="ytick_13">
     <g id="line2d_55">
      <path d="M 50.0651 438.452274 
L 1139.318302 438.452274 
" clip-path="url(#p58c1c86324)" style="fill: none; stroke: #cccccc; stroke-opacity: 0.3; stroke-width: 0.8; stroke-linecap: round"/>
     </g>
     <g id="line2d_56">
      <g>
       <use xlink:href="#mb221ea22e0" x="50.0651" y="438.452274" style="fill: #262626; stroke: #262626"/>
      </g>
     </g>
     <g id="text_16">
      <!-- 0.5 -->
      <g style="fill: #262626" transform="translate(28.3099 441.916655) scale(0.0968 -0.0968)">
       <use xlink:href="#ArialMT-30"/>
       <use xlink:href="#ArialMT-2e" transform="translate(55.615234 0)"/>
       <use xlink:href="#ArialMT-35" transform="translate(83.398438 0)"/>
      </g>
     </g>
    </g>
    <g id="ytick_14">
     <g id="line2d_57">
      <path d="M 50.0651 411.619382 
L 1139.318302 411.619382 
" clip-path="url(#p58c1c86324)" style="fill: none; stroke: #cccccc; stroke-opacity: 0.3; stroke-width: 0.8; stroke-linecap: round"/>
     </g>
     <g id="line2d_58">
      <g>
       <use xlink:href="#mb221ea22e0" x="50.0651" y="411.619382" style="fill: #262626; stroke: #262626"/>
      </g>
     </g>
     <g id="text_17">
      <!-- 0.6 -->
      <g style="fill: #262626" transform="translate(28.3099 415.083763) scale(0.0968 -0.0968)">
       <use xlink:href="#ArialMT-30"/>
       <use xlink:href="#ArialMT-2e" transform="translate(55.615234 0)"/>
       <use xlink:href="#ArialMT-36" transform="translate(83.398438 0)"/>
      </g>
     </g>
    </g>
    <g id="ytick_15">
     <g id="line2d_59">
      <path d="M 50.0651 384.78649 
L 1139.318302 384.78649 
" clip-path="url(#p58c1c86324)" style="fill: none; stroke: #cccccc; stroke-opacity: 0.3; stroke-width: 0.8; stroke-linecap: round"/>
     </g>
     <g id="line2d_60">
      <g>
       <use xlink:href="#mb221ea22e0" x="50.0651" y="384.78649" style="fill: #262626; stroke: #262626"/>
      </g>
     </g>
     <g id="text_18">
      <!-- 0.7 -->
      <g style="fill: #262626" transform="translate(28.3099 388.250871) scale(0.0968 -0.0968)">
       <use xlink:href="#ArialMT-30"/>
       <use xlink:href="#ArialMT-2e" transform="translate(55.615234 0)"/>
       <use xlink:href="#ArialMT-37" transform="translate(83.398438 0)"/>
      </g>
     </g>
    </g>
    <g id="ytick_16">
     <g id="line2d_61">
      <path d="M 50.0651 357.953597 
L 1139.318302 357.953597 
" clip-path="url(#p58c1c86324)" style="fill: none; stroke: #cccccc; stroke-opacity: 0.3; stroke-width: 0.8; stroke-linecap: round"/>
     </g>
     <g id="line2d_62">
      <g>
       <use xlink:href="#mb221ea22e0" x="50.0651" y="357.953597" style="fill: #262626; stroke: #262626"/>
      </g>
     </g>
     <g id="text_19">
      <!-- 0.8 -->
      <g style="fill: #262626" transform="translate(28.3099 361.417979) scale(0.0968 -0.0968)">
       <use xlink:href="#ArialMT-30"/>
       <use xlink:href="#ArialMT-2e" transform="translate(55.615234 0)"/>
       <use xlink:href="#ArialMT-38" transform="translate(83.398438 0)"/>
      </g>
     </g>
    </g>
    <g id="text_20">
     <!-- Price (M€/GWh) -->
     <g style="fill: #262626" transform="translate(22.08735 485.352675) rotate(-90) scale(0.1056 -0.1056)">
      <use xlink:href="#ArialMT-50"/>
      <use xlink:href="#ArialMT-72" transform="translate(66.699219 0)"/>
      <use xlink:href="#ArialMT-69" transform="translate(100 0)"/>
      <use xlink:href="#ArialMT-63" transform="translate(122.216797 0)"/>
      <use xlink:href="#ArialMT-65" transform="translate(172.216797 0)"/>
      <use xlink:href="#ArialMT-20" transform="translate(227.832031 0)"/>
      <use xlink:href="#ArialMT-28" transform="translate(255.615234 0)"/>
      <use xlink:href="#ArialMT-4d" transform="translate(288.916016 0)"/>
      <use xlink:href="#ArialMT-20ac" transform="translate(372.216797 0)"/>
      <use xlink:href="#ArialMT-2f" transform="translate(427.832031 0)"/>
      <use xlink:href="#ArialMT-47" transform="translate(455.615234 0)"/>
      <use xlink:href="#ArialMT-57" transform="translate(533.398438 0)"/>
      <use xlink:href="#ArialMT-68" transform="translate(627.783203 0)"/>
      <use xlink:href="#ArialMT-29" transform="translate(683.398438 0)"/>
     </g>
    </g>
   </g>
   <g id="line2d_63">
    <path d="M 99.576609 546.242685 
L 103.026889 549.21577 
L 109.927447 549.20772 
L 113.377727 548.544947 
L 116.828006 546.006556 
L 120.278285 544.978856 
L 123.728565 544.069221 
L 127.178844 532.246649 
L 137.529682 531.838789 
L 140.979962 531.659008 
L 144.430241 531.709991 
L 147.880521 532.270798 
L 151.3308 531.760973 
L 154.781079 507.259859 
L 158.231359 344.161491 
L 161.681638 405.785911 
L 165.131917 452.190715 
L 168.582197 532.163467 
L 172.032476 544.726627 
L 175.482756 545.601379 
L 178.933035 545.993139 
L 182.383314 549.331151 
L 185.833594 550.01539 
L 189.283873 549.924158 
L 192.734153 550.074422 
L 196.184432 549.698762 
L 199.634711 548.861575 
L 203.084991 545.676511 
L 206.53527 545.11302 
L 213.435829 544.715893 
L 216.886108 545.150586 
L 227.236946 545.027155 
L 230.687226 545.606746 
L 234.137505 545.842875 
L 237.587785 544.487814 
L 241.038064 544.208752 
L 244.488343 531.95417 
L 247.938623 532.211766 
L 251.388902 544.833958 
L 254.839181 545.440382 
L 258.289461 546.170236 
L 261.73974 548.601296 
L 265.19002 549.086972 
L 268.640299 550.093205 
L 275.540858 550.224686 
L 278.991137 549.360667 
L 282.441417 548.652279 
L 285.891696 546.038755 
L 289.341975 545.174736 
L 292.792255 544.858108 
L 296.242534 544.828592 
L 299.692813 545.037888 
L 303.143093 545.102287 
L 306.593372 544.69711 
L 310.043652 544.654178 
L 313.493931 545.343783 
L 316.94421 545.362566 
L 320.39449 544.302667 
L 323.844769 544.460981 
L 327.295049 531.895138 
L 330.745328 531.865621 
L 334.195607 544.715893 
L 337.645887 545.400132 
L 341.096166 546.261468 
L 344.546445 548.630812 
L 347.996725 549.116488 
L 351.447004 549.79536 
L 354.897284 549.854392 
L 358.347563 549.77926 
L 361.797842 549.180887 
L 365.248122 548.700578 
L 368.698401 545.730177 
L 372.148681 544.332183 
L 379.049239 544.246318 
L 382.499519 544.92519 
L 385.949798 544.793709 
L 389.400077 543.720393 
L 392.850357 532.286898 
L 396.300636 545.11302 
L 399.750916 545.247185 
L 403.201195 532.292264 
L 406.651474 532.463995 
L 413.552033 531.777073 
L 417.002313 544.536113 
L 420.452592 545.467214 
L 423.902871 546.044122 
L 427.353151 548.528847 
L 430.80343 549.604846 
L 434.253709 550.455449 
L 441.154268 550.844526 
L 444.604548 549.905375 
L 448.054827 549.516298 
L 451.505106 546.006556 
L 454.955386 545.485998 
L 458.405665 545.13717 
L 461.855945 545.174736 
L 465.306224 545.405499 
L 468.756503 545.282068 
L 472.206783 544.514647 
L 475.657062 544.168502 
L 479.107341 544.895674 
L 482.557621 545.461848 
L 486.0079 532.171516 
L 489.45818 544.434148 
L 492.908459 531.771706 
L 496.358738 531.97027 
L 499.809018 543.744543 
L 503.259297 545.196202 
L 506.709577 546.006556 
L 510.159856 546.234635 
L 513.610135 549.151371 
L 517.060415 549.773894 
L 520.510694 550.200537 
L 523.960973 550.165654 
L 527.411253 549.170154 
L 530.861532 548.552997 
L 534.311812 545.824092 
L 537.762091 544.372432 
L 541.21237 544.385849 
L 544.66265 544.812492 
L 548.112929 545.075454 
L 551.563209 544.640761 
L 555.013488 544.367066 
L 558.463767 544.530747 
L 561.914047 544.93324 
L 565.364326 544.855425 
L 568.814605 532.219816 
L 572.264885 544.310717 
L 575.715164 531.908554 
L 579.165444 531.787806 
L 582.615723 543.851874 
L 586.066002 544.836642 
L 589.516282 545.96899 
L 592.966561 546.285618 
L 596.416841 549.170154 
L 599.86712 550.297135 
L 603.317399 550.012706 
L 606.767679 550.122721 
L 610.217958 549.701445 
L 613.668237 548.743511 
L 617.118517 545.888491 
L 620.568796 544.989589 
L 624.019076 544.53343 
L 627.469355 544.611245 
L 630.919634 544.871524 
L 634.369914 545.330367 
L 637.820193 544.69711 
L 644.720752 545.714077 
L 648.171031 545.775793 
L 651.621311 544.485131 
L 655.07159 544.884941 
L 658.521869 544.404632 
L 661.972149 531.905871 
L 665.422428 544.54148 
L 672.322987 545.834825 
L 675.773266 546.121937 
L 679.223546 549.374084 
L 682.673825 550.058322 
L 689.574384 550.235419 
L 693.024663 549.400916 
L 696.474943 549.065505 
L 699.925222 545.867025 
L 706.825781 544.613929 
L 710.27606 545.032522 
L 713.72634 544.855425 
L 717.176619 545.727494 
L 724.077178 545.298167 
L 727.527457 545.91264 
L 730.977737 548.60398 
L 734.428016 545.13717 
L 737.878295 545.330367 
L 741.328575 544.72126 
L 744.778854 544.391216 
L 748.229133 544.884941 
L 751.679413 545.091554 
L 755.129692 546.022655 
L 758.579972 546.371483 
L 762.030251 548.76766 
L 765.48053 549.658512 
L 768.93081 549.730961 
L 772.381089 550.103938 
L 775.831369 549.116488 
L 779.281648 548.786443 
L 782.731927 545.365249 
L 786.182207 544.748093 
L 789.632486 544.369749 
L 793.082765 544.522697 
L 799.983324 545.751643 
L 803.433604 545.435015 
L 810.334162 545.445748 
L 813.784442 546.210486 
L 817.234721 544.903724 
L 820.685001 545.150586 
L 824.13528 544.530747 
L 827.585559 532.163467 
L 831.035839 544.326817 
L 834.486118 545.319634 
L 837.936397 546.14072 
L 841.386677 546.355383 
L 844.836956 548.590563 
L 848.287236 549.481415 
L 851.737515 549.61558 
L 855.187794 549.465315 
L 858.638074 548.893775 
L 862.088353 546.218535 
L 868.988912 544.396582 
L 872.439191 532.426429 
L 875.889471 532.418379 
L 879.33975 544.726627 
L 886.240309 544.93324 
L 889.690588 545.190836 
L 893.140868 545.684561 
L 896.591147 545.907274 
L 900.041426 544.769559 
L 903.491706 544.672961 
L 906.941985 532.069551 
L 910.392265 532.010519 
L 913.842544 544.3134 
L 917.292823 545.000322 
L 920.743103 545.926057 
L 924.193382 548.477865 
L 927.643661 548.832059 
L 931.093941 549.859759 
L 934.54422 550.152237 
L 937.9945 550.181754 
L 941.444779 549.111121 
L 944.895058 549.143321 
L 948.345338 546.049488 
L 951.795617 544.892991 
L 955.245897 544.890307 
L 958.696176 544.570996 
L 962.146455 545.072771 
L 965.596735 545.239135 
L 969.047014 545.003005 
L 975.947573 546.180969 
L 979.397852 546.143403 
L 982.848132 545.300851 
L 986.298411 544.664911 
L 989.74869 544.576362 
L 993.19897 532.372763 
L 996.649249 545.12912 
L 1000.099529 545.596012 
L 1003.549808 548.660329 
L 1007.000087 549.081605 
L 1010.450367 549.671929 
L 1013.900646 550.863309 
L 1017.350925 550.59498 
L 1020.801205 550.686212 
L 1027.701764 549.146004 
L 1031.152043 545.915324 
L 1038.052602 544.364383 
L 1041.502881 544.383166 
L 1048.40344 544.938607 
L 1051.853719 544.372432 
L 1055.303999 545.011055 
L 1058.754278 544.970806 
L 1062.204557 545.416232 
L 1065.654837 544.876891 
L 1069.105116 544.452931 
L 1072.555396 532.074918 
L 1076.005675 531.688524 
L 1079.455954 532.327147 
L 1082.906234 545.174736 
L 1086.356513 545.931424 
L 1089.806793 546.34465 
L 1089.806793 546.34465 
" clip-path="url(#p58c1c86324)" style="fill: none; stroke: #800080; stroke-width: 1.5; stroke-linecap: round"/>
   </g>
   <g id="patch_8">
    <path d="M 50.0651 561.1984 
L 50.0651 333.8264 
" style="fill: none; stroke: #cccccc; stroke-linejoin: miter; stroke-linecap: square"/>
   </g>
   <g id="patch_9">
    <path d="M 1139.318302 561.1984 
L 1139.318302 333.8264 
" style="fill: none; stroke: #cccccc; stroke-linejoin: miter; stroke-linecap: square"/>
   </g>
   <g id="patch_10">
    <path d="M 50.0651 561.1984 
L 1139.318302 561.1984 
" style="fill: none; stroke: #cccccc; stroke-linejoin: miter; stroke-linecap: square"/>
   </g>
   <g id="patch_11">
    <path d="M 50.0651 333.8264 
L 1139.318302 333.8264 
" style="fill: none; stroke: #cccccc; stroke-linejoin: miter; stroke-linecap: square"/>
   </g>
   <g id="text_21">
    <!-- Scenario 5 - 5.EOM El.+ CM+ CVAR -->
    <g style="fill: #262626" transform="translate(509.107026 327.8264) scale(0.1056 -0.1056)">
     <use xlink:href="#ArialMT-53"/>
     <use xlink:href="#ArialMT-63" transform="translate(66.699219 0)"/>
     <use xlink:href="#ArialMT-65" transform="translate(116.699219 0)"/>
     <use xlink:href="#ArialMT-6e" transform="translate(172.314453 0)"/>
     <use xlink:href="#ArialMT-61" transform="translate(227.929688 0)"/>
     <use xlink:href="#ArialMT-72" transform="translate(283.544922 0)"/>
     <use xlink:href="#ArialMT-69" transform="translate(316.845703 0)"/>
     <use xlink:href="#ArialMT-6f" transform="translate(339.0625 0)"/>
     <use xlink:href="#ArialMT-20" transform="translate(394.677734 0)"/>
     <use xlink:href="#ArialMT-35" transform="translate(422.460938 0)"/>
     <use xlink:href="#ArialMT-20" transform="translate(478.076172 0)"/>
     <use xlink:href="#ArialMT-2d" transform="translate(505.859375 0)"/>
     <use xlink:href="#ArialMT-20" transform="translate(539.160156 0)"/>
     <use xlink:href="#ArialMT-35" transform="translate(566.943359 0)"/>
     <use xlink:href="#ArialMT-2e" transform="translate(622.558594 0)"/>
     <use xlink:href="#ArialMT-45" transform="translate(650.341797 0)"/>
     <use xlink:href="#ArialMT-4f" transform="translate(717.041016 0)"/>
     <use xlink:href="#ArialMT-4d" transform="translate(794.824219 0)"/>
     <use xlink:href="#ArialMT-20" transform="translate(878.125 0)"/>
     <use xlink:href="#ArialMT-45" transform="translate(905.908203 0)"/>
     <use xlink:href="#ArialMT-6c" transform="translate(972.607422 0)"/>
     <use xlink:href="#ArialMT-2e" transform="translate(994.824219 0)"/>
     <use xlink:href="#ArialMT-2b" transform="translate(1022.607422 0)"/>
     <use xlink:href="#ArialMT-20" transform="translate(1081.005859 0)"/>
     <use xlink:href="#ArialMT-43" transform="translate(1108.789062 0)"/>
     <use xlink:href="#ArialMT-4d" transform="translate(1181.005859 0)"/>
     <use xlink:href="#ArialMT-2b" transform="translate(1264.306641 0)"/>
     <use xlink:href="#ArialMT-20" transform="translate(1322.705078 0)"/>
     <use xlink:href="#ArialMT-43" transform="translate(1350.488281 0)"/>
     <use xlink:href="#ArialMT-56" transform="translate(1422.705078 0)"/>
     <use xlink:href="#ArialMT-41" transform="translate(1482.029297 0)"/>
     <use xlink:href="#ArialMT-52" transform="translate(1548.728516 0)"/>
    </g>
   </g>
   <g id="legend_2">
    <g id="line2d_64">
     <path d="M 1081.448539 346.079162 
L 1091.128539 346.079162 
L 1100.808539 346.079162 
" style="fill: none; stroke: #800080; stroke-width: 1.5; stroke-linecap: round"/>
    </g>
    <g id="text_22">
     <!-- Price -->
     <g style="fill: #262626" transform="translate(1108.552539 349.467162) scale(0.0968 -0.0968)">
      <use xlink:href="#ArialMT-50"/>
      <use xlink:href="#ArialMT-72" transform="translate(66.699219 0)"/>
      <use xlink:href="#ArialMT-69" transform="translate(100 0)"/>
      <use xlink:href="#ArialMT-63" transform="translate(122.216797 0)"/>
      <use xlink:href="#ArialMT-65" transform="translate(172.216797 0)"/>
     </g>
    </g>
   </g>
  </g>
  <g id="axes_3">
   <g id="patch_12">
    <path d="M 50.0651 818.6952 
L 1139.318302 818.6952 
L 1139.318302 591.3232 
L 50.0651 591.3232 
z
" style="fill: #ffffff"/>
   </g>
   <g id="matplotlib.axis_5">
    <g id="xtick_15">
     <g id="line2d_65">
      <path d="M 99.576609 818.6952 
L 99.576609 591.3232 
" clip-path="url(#p0ab736b5f1)" style="fill: none; stroke: #cccccc; stroke-opacity: 0.3; stroke-width: 0.8; stroke-linecap: round"/>
     </g>
     <g id="line2d_66">
      <g>
       <use xlink:href="#mfbb4a246c3" x="99.576609" y="818.6952" style="fill: #262626; stroke: #262626"/>
      </g>
     </g>
     <g id="text_23">
      <!-- 0 -->
      <g style="fill: #262626" transform="translate(96.885115 833.923963) scale(0.0968 -0.0968)">
       <use xlink:href="#ArialMT-30"/>
      </g>
     </g>
    </g>
    <g id="xtick_16">
     <g id="line2d_67">
      <path d="M 272.090578 818.6952 
L 272.090578 591.3232 
" clip-path="url(#p0ab736b5f1)" style="fill: none; stroke: #cccccc; stroke-opacity: 0.3; stroke-width: 0.8; stroke-linecap: round"/>
     </g>
     <g id="line2d_68">
      <g>
       <use xlink:href="#mfbb4a246c3" x="272.090578" y="818.6952" style="fill: #262626; stroke: #262626"/>
      </g>
     </g>
     <g id="text_24">
      <!-- 50 -->
      <g style="fill: #262626" transform="translate(266.707591 833.923963) scale(0.0968 -0.0968)">
       <use xlink:href="#ArialMT-35"/>
       <use xlink:href="#ArialMT-30" transform="translate(55.615234 0)"/>
      </g>
     </g>
    </g>
    <g id="xtick_17">
     <g id="line2d_69">
      <path d="M 444.604548 818.6952 
L 444.604548 591.3232 
" clip-path="url(#p0ab736b5f1)" style="fill: none; stroke: #cccccc; stroke-opacity: 0.3; stroke-width: 0.8; stroke-linecap: round"/>
     </g>
     <g id="line2d_70">
      <g>
       <use xlink:href="#mfbb4a246c3" x="444.604548" y="818.6952" style="fill: #262626; stroke: #262626"/>
      </g>
     </g>
     <g id="text_25">
      <!-- 100 -->
      <g style="fill: #262626" transform="translate(436.530066 833.923963) scale(0.0968 -0.0968)">
       <use xlink:href="#ArialMT-31"/>
       <use xlink:href="#ArialMT-30" transform="translate(55.615234 0)"/>
       <use xlink:href="#ArialMT-30" transform="translate(111.230469 0)"/>
      </g>
     </g>
    </g>
    <g id="xtick_18">
     <g id="line2d_71">
      <path d="M 617.118517 818.6952 
L 617.118517 591.3232 
" clip-path="url(#p0ab736b5f1)" style="fill: none; stroke: #cccccc; stroke-opacity: 0.3; stroke-width: 0.8; stroke-linecap: round"/>
     </g>
     <g id="line2d_72">
      <g>
       <use xlink:href="#mfbb4a246c3" x="617.118517" y="818.6952" style="fill: #262626; stroke: #262626"/>
      </g>
     </g>
     <g id="text_26">
      <!-- 150 -->
      <g style="fill: #262626" transform="translate(609.044036 833.923963) scale(0.0968 -0.0968)">
       <use xlink:href="#ArialMT-31"/>
       <use xlink:href="#ArialMT-35" transform="translate(55.615234 0)"/>
       <use xlink:href="#ArialMT-30" transform="translate(111.230469 0)"/>
      </g>
     </g>
    </g>
    <g id="xtick_19">
     <g id="line2d_73">
      <path d="M 789.632486 818.6952 
L 789.632486 591.3232 
" clip-path="url(#p0ab736b5f1)" style="fill: none; stroke: #cccccc; stroke-opacity: 0.3; stroke-width: 0.8; stroke-linecap: round"/>
     </g>
     <g id="line2d_74">
      <g>
       <use xlink:href="#mfbb4a246c3" x="789.632486" y="818.6952" style="fill: #262626; stroke: #262626"/>
      </g>
     </g>
     <g id="text_27">
      <!-- 200 -->
      <g style="fill: #262626" transform="translate(781.558005 833.923963) scale(0.0968 -0.0968)">
       <use xlink:href="#ArialMT-32"/>
       <use xlink:href="#ArialMT-30" transform="translate(55.615234 0)"/>
       <use xlink:href="#ArialMT-30" transform="translate(111.230469 0)"/>
      </g>
     </g>
    </g>
    <g id="xtick_20">
     <g id="line2d_75">
      <path d="M 962.146455 818.6952 
L 962.146455 591.3232 
" clip-path="url(#p0ab736b5f1)" style="fill: none; stroke: #cccccc; stroke-opacity: 0.3; stroke-width: 0.8; stroke-linecap: round"/>
     </g>
     <g id="line2d_76">
      <g>
       <use xlink:href="#mfbb4a246c3" x="962.146455" y="818.6952" style="fill: #262626; stroke: #262626"/>
      </g>
     </g>
     <g id="text_28">
      <!-- 250 -->
      <g style="fill: #262626" transform="translate(954.071974 833.923963) scale(0.0968 -0.0968)">
       <use xlink:href="#ArialMT-32"/>
       <use xlink:href="#ArialMT-35" transform="translate(55.615234 0)"/>
       <use xlink:href="#ArialMT-30" transform="translate(111.230469 0)"/>
      </g>
     </g>
    </g>
    <g id="xtick_21">
     <g id="line2d_77">
      <path d="M 1134.660425 818.6952 
L 1134.660425 591.3232 
" clip-path="url(#p0ab736b5f1)" style="fill: none; stroke: #cccccc; stroke-opacity: 0.3; stroke-width: 0.8; stroke-linecap: round"/>
     </g>
     <g id="line2d_78">
      <g>
       <use xlink:href="#mfbb4a246c3" x="1134.660425" y="818.6952" style="fill: #262626; stroke: #262626"/>
      </g>
     </g>
     <g id="text_29">
      <!-- 300 -->
      <g style="fill: #262626" transform="translate(1126.585943 833.923963) scale(0.0968 -0.0968)">
       <use xlink:href="#ArialMT-33"/>
       <use xlink:href="#ArialMT-30" transform="translate(55.615234 0)"/>
       <use xlink:href="#ArialMT-30" transform="translate(111.230469 0)"/>
      </g>
     </g>
    </g>
    <g id="text_30">
     <!-- Timestep (hour) -->
     <g style="fill: #262626" transform="translate(557.628576 847.535212) scale(0.1056 -0.1056)">
      <defs>
       <path id="ArialMT-54" d="M 1659 0 
L 1659 4041 
L 150 4041 
L 150 4581 
L 3781 4581 
L 3781 4041 
L 2266 4041 
L 2266 0 
L 1659 0 
z
" transform="scale(0.015625)"/>
       <path id="ArialMT-6d" d="M 422 0 
L 422 3319 
L 925 3319 
L 925 2853 
Q 1081 3097 1340 3245 
Q 1600 3394 1931 3394 
Q 2300 3394 2536 3241 
Q 2772 3088 2869 2813 
Q 3263 3394 3894 3394 
Q 4388 3394 4653 3120 
Q 4919 2847 4919 2278 
L 4919 0 
L 4359 0 
L 4359 2091 
Q 4359 2428 4304 2576 
Q 4250 2725 4106 2815 
Q 3963 2906 3769 2906 
Q 3419 2906 3187 2673 
Q 2956 2441 2956 1928 
L 2956 0 
L 2394 0 
L 2394 2156 
Q 2394 2531 2256 2718 
Q 2119 2906 1806 2906 
Q 1569 2906 1367 2781 
Q 1166 2656 1075 2415 
Q 984 2175 984 1722 
L 984 0 
L 422 0 
z
" transform="scale(0.015625)"/>
       <path id="ArialMT-73" d="M 197 991 
L 753 1078 
Q 800 744 1014 566 
Q 1228 388 1613 388 
Q 2000 388 2187 545 
Q 2375 703 2375 916 
Q 2375 1106 2209 1216 
Q 2094 1291 1634 1406 
Q 1016 1563 777 1677 
Q 538 1791 414 1992 
Q 291 2194 291 2438 
Q 291 2659 392 2848 
Q 494 3038 669 3163 
Q 800 3259 1026 3326 
Q 1253 3394 1513 3394 
Q 1903 3394 2198 3281 
Q 2494 3169 2634 2976 
Q 2775 2784 2828 2463 
L 2278 2388 
Q 2241 2644 2061 2787 
Q 1881 2931 1553 2931 
Q 1166 2931 1000 2803 
Q 834 2675 834 2503 
Q 834 2394 903 2306 
Q 972 2216 1119 2156 
Q 1203 2125 1616 2013 
Q 2213 1853 2448 1751 
Q 2684 1650 2818 1456 
Q 2953 1263 2953 975 
Q 2953 694 2789 445 
Q 2625 197 2315 61 
Q 2006 -75 1616 -75 
Q 969 -75 630 194 
Q 291 463 197 991 
z
" transform="scale(0.015625)"/>
       <path id="ArialMT-74" d="M 1650 503 
L 1731 6 
Q 1494 -44 1306 -44 
Q 1000 -44 831 53 
Q 663 150 594 308 
Q 525 466 525 972 
L 525 2881 
L 113 2881 
L 113 3319 
L 525 3319 
L 525 4141 
L 1084 4478 
L 1084 3319 
L 1650 3319 
L 1650 2881 
L 1084 2881 
L 1084 941 
Q 1084 700 1114 631 
Q 1144 563 1211 522 
Q 1278 481 1403 481 
Q 1497 481 1650 503 
z
" transform="scale(0.015625)"/>
       <path id="ArialMT-70" d="M 422 -1272 
L 422 3319 
L 934 3319 
L 934 2888 
Q 1116 3141 1344 3267 
Q 1572 3394 1897 3394 
Q 2322 3394 2647 3175 
Q 2972 2956 3137 2557 
Q 3303 2159 3303 1684 
Q 3303 1175 3120 767 
Q 2938 359 2589 142 
Q 2241 -75 1856 -75 
Q 1575 -75 1351 44 
Q 1128 163 984 344 
L 984 -1272 
L 422 -1272 
z
M 931 1641 
Q 931 1000 1190 694 
Q 1450 388 1819 388 
Q 2194 388 2461 705 
Q 2728 1022 2728 1688 
Q 2728 2322 2467 2637 
Q 2206 2953 1844 2953 
Q 1484 2953 1207 2617 
Q 931 2281 931 1641 
z
" transform="scale(0.015625)"/>
       <path id="ArialMT-75" d="M 2597 0 
L 2597 488 
Q 2209 -75 1544 -75 
Q 1250 -75 995 37 
Q 741 150 617 320 
Q 494 491 444 738 
Q 409 903 409 1263 
L 409 3319 
L 972 3319 
L 972 1478 
Q 972 1038 1006 884 
Q 1059 663 1231 536 
Q 1403 409 1656 409 
Q 1909 409 2131 539 
Q 2353 669 2445 892 
Q 2538 1116 2538 1541 
L 2538 3319 
L 3100 3319 
L 3100 0 
L 2597 0 
z
" transform="scale(0.015625)"/>
      </defs>
      <use xlink:href="#ArialMT-54"/>
      <use xlink:href="#ArialMT-69" transform="translate(57.333984 0)"/>
      <use xlink:href="#ArialMT-6d" transform="translate(79.550781 0)"/>
      <use xlink:href="#ArialMT-65" transform="translate(162.851562 0)"/>
      <use xlink:href="#ArialMT-73" transform="translate(218.466797 0)"/>
      <use xlink:href="#ArialMT-74" transform="translate(268.466797 0)"/>
      <use xlink:href="#ArialMT-65" transform="translate(296.25 0)"/>
      <use xlink:href="#ArialMT-70" transform="translate(351.865234 0)"/>
      <use xlink:href="#ArialMT-20" transform="translate(407.480469 0)"/>
      <use xlink:href="#ArialMT-28" transform="translate(435.263672 0)"/>
      <use xlink:href="#ArialMT-68" transform="translate(468.564453 0)"/>
      <use xlink:href="#ArialMT-6f" transform="translate(524.179688 0)"/>
      <use xlink:href="#ArialMT-75" transform="translate(579.794922 0)"/>
      <use xlink:href="#ArialMT-72" transform="translate(635.410156 0)"/>
      <use xlink:href="#ArialMT-29" transform="translate(668.710938 0)"/>
     </g>
    </g>
   </g>
   <g id="matplotlib.axis_6">
    <g id="ytick_17">
     <g id="line2d_79">
      <path d="M 50.0651 803.328914 
L 1139.318302 803.328914 
" clip-path="url(#p0ab736b5f1)" style="fill: none; stroke: #cccccc; stroke-opacity: 0.3; stroke-width: 0.8; stroke-linecap: round"/>
     </g>
     <g id="line2d_80">
      <g>
       <use xlink:href="#mb221ea22e0" x="50.0651" y="803.328914" style="fill: #262626; stroke: #262626"/>
      </g>
     </g>
     <g id="text_31">
      <!-- 0.1 -->
      <g style="fill: #262626" transform="translate(28.3099 806.793295) scale(0.0968 -0.0968)">
       <use xlink:href="#ArialMT-30"/>
       <use xlink:href="#ArialMT-2e" transform="translate(55.615234 0)"/>
       <use xlink:href="#ArialMT-31" transform="translate(83.398438 0)"/>
      </g>
     </g>
    </g>
    <g id="ytick_18">
     <g id="line2d_81">
      <path d="M 50.0651 776.736973 
L 1139.318302 776.736973 
" clip-path="url(#p0ab736b5f1)" style="fill: none; stroke: #cccccc; stroke-opacity: 0.3; stroke-width: 0.8; stroke-linecap: round"/>
     </g>
     <g id="line2d_82">
      <g>
       <use xlink:href="#mb221ea22e0" x="50.0651" y="776.736973" style="fill: #262626; stroke: #262626"/>
      </g>
     </g>
     <g id="text_32">
      <!-- 0.2 -->
      <g style="fill: #262626" transform="translate(28.3099 780.201354) scale(0.0968 -0.0968)">
       <use xlink:href="#ArialMT-30"/>
       <use xlink:href="#ArialMT-2e" transform="translate(55.615234 0)"/>
       <use xlink:href="#ArialMT-32" transform="translate(83.398438 0)"/>
      </g>
     </g>
    </g>
    <g id="ytick_19">
     <g id="line2d_83">
      <path d="M 50.0651 750.145031 
L 1139.318302 750.145031 
" clip-path="url(#p0ab736b5f1)" style="fill: none; stroke: #cccccc; stroke-opacity: 0.3; stroke-width: 0.8; stroke-linecap: round"/>
     </g>
     <g id="line2d_84">
      <g>
       <use xlink:href="#mb221ea22e0" x="50.0651" y="750.145031" style="fill: #262626; stroke: #262626"/>
      </g>
     </g>
     <g id="text_33">
      <!-- 0.3 -->
      <g style="fill: #262626" transform="translate(28.3099 753.609413) scale(0.0968 -0.0968)">
       <use xlink:href="#ArialMT-30"/>
       <use xlink:href="#ArialMT-2e" transform="translate(55.615234 0)"/>
       <use xlink:href="#ArialMT-33" transform="translate(83.398438 0)"/>
      </g>
     </g>
    </g>
    <g id="ytick_20">
     <g id="line2d_85">
      <path d="M 50.0651 723.55309 
L 1139.318302 723.55309 
" clip-path="url(#p0ab736b5f1)" style="fill: none; stroke: #cccccc; stroke-opacity: 0.3; stroke-width: 0.8; stroke-linecap: round"/>
     </g>
     <g id="line2d_86">
      <g>
       <use xlink:href="#mb221ea22e0" x="50.0651" y="723.55309" style="fill: #262626; stroke: #262626"/>
      </g>
     </g>
     <g id="text_34">
      <!-- 0.4 -->
      <g style="fill: #262626" transform="translate(28.3099 727.017471) scale(0.0968 -0.0968)">
       <use xlink:href="#ArialMT-30"/>
       <use xlink:href="#ArialMT-2e" transform="translate(55.615234 0)"/>
       <use xlink:href="#ArialMT-34" transform="translate(83.398438 0)"/>
      </g>
     </g>
    </g>
    <g id="ytick_21">
     <g id="line2d_87">
      <path d="M 50.0651 696.961149 
L 1139.318302 696.961149 
" clip-path="url(#p0ab736b5f1)" style="fill: none; stroke: #cccccc; stroke-opacity: 0.3; stroke-width: 0.8; stroke-linecap: round"/>
     </g>
     <g id="line2d_88">
      <g>
       <use xlink:href="#mb221ea22e0" x="50.0651" y="696.961149" style="fill: #262626; stroke: #262626"/>
      </g>
     </g>
     <g id="text_35">
      <!-- 0.5 -->
      <g style="fill: #262626" transform="translate(28.3099 700.42553) scale(0.0968 -0.0968)">
       <use xlink:href="#ArialMT-30"/>
       <use xlink:href="#ArialMT-2e" transform="translate(55.615234 0)"/>
       <use xlink:href="#ArialMT-35" transform="translate(83.398438 0)"/>
      </g>
     </g>
    </g>
    <g id="ytick_22">
     <g id="line2d_89">
      <path d="M 50.0651 670.369208 
L 1139.318302 670.369208 
" clip-path="url(#p0ab736b5f1)" style="fill: none; stroke: #cccccc; stroke-opacity: 0.3; stroke-width: 0.8; stroke-linecap: round"/>
     </g>
     <g id="line2d_90">
      <g>
       <use xlink:href="#mb221ea22e0" x="50.0651" y="670.369208" style="fill: #262626; stroke: #262626"/>
      </g>
     </g>
     <g id="text_36">
      <!-- 0.6 -->
      <g style="fill: #262626" transform="translate(28.3099 673.833589) scale(0.0968 -0.0968)">
       <use xlink:href="#ArialMT-30"/>
       <use xlink:href="#ArialMT-2e" transform="translate(55.615234 0)"/>
       <use xlink:href="#ArialMT-36" transform="translate(83.398438 0)"/>
      </g>
     </g>
    </g>
    <g id="ytick_23">
     <g id="line2d_91">
      <path d="M 50.0651 643.777267 
L 1139.318302 643.777267 
" clip-path="url(#p0ab736b5f1)" style="fill: none; stroke: #cccccc; stroke-opacity: 0.3; stroke-width: 0.8; stroke-linecap: round"/>
     </g>
     <g id="line2d_92">
      <g>
       <use xlink:href="#mb221ea22e0" x="50.0651" y="643.777267" style="fill: #262626; stroke: #262626"/>
      </g>
     </g>
     <g id="text_37">
      <!-- 0.7 -->
      <g style="fill: #262626" transform="translate(28.3099 647.241648) scale(0.0968 -0.0968)">
       <use xlink:href="#ArialMT-30"/>
       <use xlink:href="#ArialMT-2e" transform="translate(55.615234 0)"/>
       <use xlink:href="#ArialMT-37" transform="translate(83.398438 0)"/>
      </g>
     </g>
    </g>
    <g id="ytick_24">
     <g id="line2d_93">
      <path d="M 50.0651 617.185325 
L 1139.318302 617.185325 
" clip-path="url(#p0ab736b5f1)" style="fill: none; stroke: #cccccc; stroke-opacity: 0.3; stroke-width: 0.8; stroke-linecap: round"/>
     </g>
     <g id="line2d_94">
      <g>
       <use xlink:href="#mb221ea22e0" x="50.0651" y="617.185325" style="fill: #262626; stroke: #262626"/>
      </g>
     </g>
     <g id="text_38">
      <!-- 0.8 -->
      <g style="fill: #262626" transform="translate(28.3099 620.649707) scale(0.0968 -0.0968)">
       <use xlink:href="#ArialMT-30"/>
       <use xlink:href="#ArialMT-2e" transform="translate(55.615234 0)"/>
       <use xlink:href="#ArialMT-38" transform="translate(83.398438 0)"/>
      </g>
     </g>
    </g>
    <g id="text_39">
     <!-- Price (M€/GWh) -->
     <g style="fill: #262626" transform="translate(22.08735 742.849475) rotate(-90) scale(0.1056 -0.1056)">
      <use xlink:href="#ArialMT-50"/>
      <use xlink:href="#ArialMT-72" transform="translate(66.699219 0)"/>
      <use xlink:href="#ArialMT-69" transform="translate(100 0)"/>
      <use xlink:href="#ArialMT-63" transform="translate(122.216797 0)"/>
      <use xlink:href="#ArialMT-65" transform="translate(172.216797 0)"/>
      <use xlink:href="#ArialMT-20" transform="translate(227.832031 0)"/>
      <use xlink:href="#ArialMT-28" transform="translate(255.615234 0)"/>
      <use xlink:href="#ArialMT-4d" transform="translate(288.916016 0)"/>
      <use xlink:href="#ArialMT-20ac" transform="translate(372.216797 0)"/>
      <use xlink:href="#ArialMT-2f" transform="translate(427.832031 0)"/>
      <use xlink:href="#ArialMT-47" transform="translate(455.615234 0)"/>
      <use xlink:href="#ArialMT-57" transform="translate(533.398438 0)"/>
      <use xlink:href="#ArialMT-68" transform="translate(627.783203 0)"/>
      <use xlink:href="#ArialMT-29" transform="translate(683.398438 0)"/>
     </g>
    </g>
   </g>
   <g id="line2d_95">
    <path d="M 99.576609 803.810228 
L 103.026889 806.727364 
L 109.927447 806.719386 
L 113.377727 805.988108 
L 116.828006 803.57356 
L 120.278285 802.555088 
L 123.728565 801.661599 
L 127.178844 789.870732 
L 137.529682 789.466535 
L 140.979962 789.291028 
L 144.430241 789.338894 
L 147.880521 789.894665 
L 151.3308 789.392077 
L 154.781079 763.185719 
L 158.231359 601.658291 
L 161.681638 662.724025 
L 165.131917 708.565872 
L 168.582197 789.788297 
L 172.032476 802.305124 
L 175.482756 803.172021 
L 178.933035 803.560264 
L 182.383314 806.83905 
L 185.833594 807.519804 
L 189.283873 807.429391 
L 192.734153 807.578306 
L 196.184432 807.206019 
L 199.634711 806.371032 
L 203.084991 803.246479 
L 206.53527 802.688048 
L 213.435829 802.294487 
L 216.886108 802.725277 
L 227.236946 802.602954 
L 230.687226 803.17734 
L 234.137505 803.411349 
L 237.587785 802.068456 
L 241.038064 801.78924 
L 244.488343 789.58088 
L 247.938623 789.836163 
L 251.388902 802.411492 
L 254.839181 803.01247 
L 258.289461 803.735771 
L 261.73974 806.070543 
L 265.19002 806.599723 
L 268.640299 807.59692 
L 275.540858 807.724562 
L 278.991137 806.87096 
L 282.441417 806.139682 
L 285.891696 803.60547 
L 289.341975 802.749209 
L 292.792255 802.435425 
L 296.242534 802.406173 
L 299.692813 802.613591 
L 303.143093 802.677411 
L 306.593372 802.275873 
L 310.043652 802.233326 
L 313.493931 802.916739 
L 316.94421 802.935353 
L 320.39449 801.884971 
L 323.844769 802.041864 
L 327.295049 789.522378 
L 330.745328 789.493127 
L 334.195607 802.294487 
L 337.645887 802.972582 
L 341.096166 803.828842 
L 344.546445 806.110431 
L 347.996725 806.628974 
L 351.447004 807.299091 
L 354.897284 807.360252 
L 358.347563 807.285795 
L 365.248122 806.198184 
L 368.698401 803.299663 
L 372.148681 801.914223 
L 379.049239 801.829128 
L 382.499519 802.501904 
L 385.949798 802.371604 
L 389.400077 801.281334 
L 392.850357 789.91062 
L 396.300636 802.688048 
L 399.750916 802.821008 
L 403.201195 789.918598 
L 406.651474 790.083468 
L 413.552033 789.405373 
L 417.002313 802.116321 
L 420.452592 803.039062 
L 423.902871 803.610788 
L 427.353151 805.958857 
L 430.80343 807.112947 
L 434.253709 807.955912 
L 441.154268 808.341495 
L 444.604548 807.408118 
L 448.054827 807.025194 
L 451.505106 803.57356 
L 454.955386 803.057676 
L 458.405665 802.711981 
L 461.855945 802.749209 
L 465.306224 802.9779 
L 468.756503 802.855577 
L 472.206783 802.095048 
L 475.657062 801.752012 
L 479.107341 802.472653 
L 482.557621 803.033743 
L 486.0079 789.796275 
L 489.45818 802.015272 
L 492.908459 789.400055 
L 496.358738 789.596835 
L 499.809018 801.326541 
L 503.259297 802.770483 
L 506.709577 803.57356 
L 510.159856 803.80225 
L 513.610135 806.663543 
L 517.060415 807.280476 
L 520.510694 807.700629 
L 523.960973 807.668719 
L 527.411253 806.682158 
L 530.861532 805.998745 
L 534.311812 803.392734 
L 537.762091 801.95411 
L 541.21237 801.967406 
L 544.66265 802.390218 
L 548.112929 802.650819 
L 551.563209 802.22003 
L 555.013488 801.948792 
L 558.463767 802.111003 
L 561.914047 802.509882 
L 565.364326 802.432765 
L 568.814605 789.84414 
L 572.264885 801.892949 
L 575.715164 789.535674 
L 579.165444 789.41601 
L 582.615723 801.454182 
L 586.066002 802.414151 
L 589.516282 803.536331 
L 592.966561 803.855434 
L 596.416841 806.682158 
L 599.86712 807.799019 
L 603.317399 807.517145 
L 606.767679 807.626172 
L 610.217958 807.208678 
L 613.668237 806.24605 
L 617.118517 803.456555 
L 620.568796 802.565725 
L 624.019076 802.113662 
L 627.469355 802.190779 
L 630.919634 802.448721 
L 634.369914 802.903443 
L 637.820193 802.275873 
L 644.720752 803.283708 
L 648.171031 803.344869 
L 651.621311 802.065797 
L 655.07159 802.462017 
L 658.521869 801.986021 
L 661.972149 789.533015 
L 665.422428 802.12164 
L 672.322987 803.403371 
L 675.773266 803.687905 
L 679.223546 806.884256 
L 682.673825 807.562351 
L 689.574384 807.737858 
L 693.024663 806.910848 
L 696.474943 806.578449 
L 699.925222 803.435282 
L 706.825781 802.193438 
L 710.27606 802.610931 
L 713.72634 802.432765 
L 717.176619 803.297003 
L 724.077178 802.871532 
L 727.527457 803.480488 
L 730.977737 806.073202 
L 734.428016 802.711981 
L 737.878295 802.903443 
L 741.328575 802.299806 
L 744.778854 801.972725 
L 748.229133 802.462017 
L 751.679413 802.666774 
L 755.129692 803.586856 
L 758.579972 803.96978 
L 762.030251 806.272642 
L 765.48053 807.166131 
L 768.93081 807.23527 
L 772.381089 807.607557 
L 775.831369 806.628974 
L 779.281648 806.293915 
L 782.731927 802.938012 
L 786.182207 802.326398 
L 789.632486 801.951451 
L 793.082765 802.103025 
L 799.983324 803.320936 
L 803.433604 803.007151 
L 810.334162 803.017788 
L 813.784442 803.778318 
L 817.234721 802.480631 
L 820.685001 802.725277 
L 824.13528 802.111003 
L 827.585559 789.788297 
L 831.035839 801.908904 
L 834.486118 802.892806 
L 837.936397 803.706519 
L 841.386677 803.953824 
L 844.836956 806.057247 
L 848.287236 806.990624 
L 851.737515 807.123584 
L 855.187794 806.97201 
L 858.638074 806.405601 
L 862.088353 803.786295 
L 868.988912 801.975384 
L 872.439191 790.048898 
L 875.889471 790.040921 
L 879.33975 802.305124 
L 886.240309 802.509882 
L 889.690588 802.765165 
L 893.140868 803.254456 
L 896.591147 803.475169 
L 900.041426 802.347671 
L 903.491706 802.25194 
L 906.941985 789.695226 
L 910.392265 789.636723 
L 913.842544 801.895608 
L 917.292823 802.576362 
L 920.743103 803.493784 
L 924.193382 805.863126 
L 927.643661 806.341781 
L 931.093941 807.362911 
L 934.54422 807.652763 
L 937.9945 807.684674 
L 941.444779 806.623655 
L 944.895058 806.655566 
L 948.345338 803.616107 
L 951.795617 802.469994 
L 955.245897 802.469994 
L 958.696176 802.150891 
L 962.146455 802.64816 
L 965.596735 802.81303 
L 969.047014 802.579021 
L 975.947573 803.749066 
L 979.397852 803.709179 
L 982.848132 802.874192 
L 986.298411 802.243963 
L 989.74869 802.156209 
L 993.19897 789.995714 
L 996.649249 802.704003 
L 1000.099529 803.166703 
L 1003.549808 806.14766 
L 1007.000087 806.594404 
L 1010.450367 807.179427 
L 1013.900646 808.360109 
L 1017.350925 808.09419 
L 1020.801205 808.184602 
L 1027.701764 806.658225 
L 1031.152043 803.483147 
L 1038.052602 801.946133 
L 1041.502881 801.964747 
L 1048.40344 802.5152 
L 1051.853719 801.95411 
L 1055.303999 802.586999 
L 1058.754278 802.547111 
L 1062.204557 802.988537 
L 1065.654837 802.454039 
L 1069.105116 802.033886 
L 1072.555396 789.700544 
L 1076.005675 789.31762 
L 1079.455954 789.950508 
L 1082.906234 802.749209 
L 1086.356513 803.499102 
L 1089.806793 803.932551 
L 1089.806793 803.932551 
" clip-path="url(#p0ab736b5f1)" style="fill: none; stroke: #800080; stroke-width: 1.5; stroke-linecap: round"/>
   </g>
   <g id="patch_13">
    <path d="M 50.0651 818.6952 
L 50.0651 591.3232 
" style="fill: none; stroke: #cccccc; stroke-linejoin: miter; stroke-linecap: square"/>
   </g>
   <g id="patch_14">
    <path d="M 1139.318302 818.6952 
L 1139.318302 591.3232 
" style="fill: none; stroke: #cccccc; stroke-linejoin: miter; stroke-linecap: square"/>
   </g>
   <g id="patch_15">
    <path d="M 50.0651 818.6952 
L 1139.318302 818.6952 
" style="fill: none; stroke: #cccccc; stroke-linejoin: miter; stroke-linecap: square"/>
   </g>
   <g id="patch_16">
    <path d="M 50.0651 591.3232 
L 1139.318302 591.3232 
" style="fill: none; stroke: #cccccc; stroke-linejoin: miter; stroke-linecap: square"/>
   </g>
   <g id="text_40">
    <!-- Scenario 7 - 7.EOM El.+ RO+ CVAR -->
    <g style="fill: #262626" transform="translate(509.398251 585.3232) scale(0.1056 -0.1056)">
     <use xlink:href="#ArialMT-53"/>
     <use xlink:href="#ArialMT-63" transform="translate(66.699219 0)"/>
     <use xlink:href="#ArialMT-65" transform="translate(116.699219 0)"/>
     <use xlink:href="#ArialMT-6e" transform="translate(172.314453 0)"/>
     <use xlink:href="#ArialMT-61" transform="translate(227.929688 0)"/>
     <use xlink:href="#ArialMT-72" transform="translate(283.544922 0)"/>
     <use xlink:href="#ArialMT-69" transform="translate(316.845703 0)"/>
     <use xlink:href="#ArialMT-6f" transform="translate(339.0625 0)"/>
     <use xlink:href="#ArialMT-20" transform="translate(394.677734 0)"/>
     <use xlink:href="#ArialMT-37" transform="translate(422.460938 0)"/>
     <use xlink:href="#ArialMT-20" transform="translate(478.076172 0)"/>
     <use xlink:href="#ArialMT-2d" transform="translate(505.859375 0)"/>
     <use xlink:href="#ArialMT-20" transform="translate(539.160156 0)"/>
     <use xlink:href="#ArialMT-37" transform="translate(566.943359 0)"/>
     <use xlink:href="#ArialMT-2e" transform="translate(622.558594 0)"/>
     <use xlink:href="#ArialMT-45" transform="translate(650.341797 0)"/>
     <use xlink:href="#ArialMT-4f" transform="translate(717.041016 0)"/>
     <use xlink:href="#ArialMT-4d" transform="translate(794.824219 0)"/>
     <use xlink:href="#ArialMT-20" transform="translate(878.125 0)"/>
     <use xlink:href="#ArialMT-45" transform="translate(905.908203 0)"/>
     <use xlink:href="#ArialMT-6c" transform="translate(972.607422 0)"/>
     <use xlink:href="#ArialMT-2e" transform="translate(994.824219 0)"/>
     <use xlink:href="#ArialMT-2b" transform="translate(1022.607422 0)"/>
     <use xlink:href="#ArialMT-20" transform="translate(1081.005859 0)"/>
     <use xlink:href="#ArialMT-52" transform="translate(1108.789062 0)"/>
     <use xlink:href="#ArialMT-4f" transform="translate(1181.005859 0)"/>
     <use xlink:href="#ArialMT-2b" transform="translate(1258.789062 0)"/>
     <use xlink:href="#ArialMT-20" transform="translate(1317.1875 0)"/>
     <use xlink:href="#ArialMT-43" transform="translate(1344.970703 0)"/>
     <use xlink:href="#ArialMT-56" transform="translate(1417.1875 0)"/>
     <use xlink:href="#ArialMT-41" transform="translate(1476.511719 0)"/>
     <use xlink:href="#ArialMT-52" transform="translate(1543.210938 0)"/>
    </g>
   </g>
   <g id="legend_3">
    <g id="line2d_96">
     <path d="M 1081.448539 603.575962 
L 1091.128539 603.575962 
L 1100.808539 603.575962 
" style="fill: none; stroke: #800080; stroke-width: 1.5; stroke-linecap: round"/>
    </g>
    <g id="text_41">
     <!-- Price -->
     <g style="fill: #262626" transform="translate(1108.552539 606.963962) scale(0.0968 -0.0968)">
      <use xlink:href="#ArialMT-50"/>
      <use xlink:href="#ArialMT-72" transform="translate(66.699219 0)"/>
      <use xlink:href="#ArialMT-69" transform="translate(100 0)"/>
      <use xlink:href="#ArialMT-63" transform="translate(122.216797 0)"/>
      <use xlink:href="#ArialMT-65" transform="translate(172.216797 0)"/>
     </g>
    </g>
   </g>
  </g>
  <g id="text_42">
   <!-- Price Timeseries by Scenario -->
   <g style="fill: #262626" transform="translate(462.33155 27.503437) scale(0.18 -0.18)">
    <defs>
     <path id="ArialMT-62" d="M 941 0 
L 419 0 
L 419 4581 
L 981 4581 
L 981 2947 
Q 1338 3394 1891 3394 
Q 2197 3394 2470 3270 
Q 2744 3147 2920 2923 
Q 3097 2700 3197 2384 
Q 3297 2069 3297 1709 
Q 3297 856 2875 390 
Q 2453 -75 1863 -75 
Q 1275 -75 941 416 
L 941 0 
z
M 934 1684 
Q 934 1088 1097 822 
Q 1363 388 1816 388 
Q 2184 388 2453 708 
Q 2722 1028 2722 1663 
Q 2722 2313 2464 2622 
Q 2206 2931 1841 2931 
Q 1472 2931 1203 2611 
Q 934 2291 934 1684 
z
" transform="scale(0.015625)"/>
     <path id="ArialMT-79" d="M 397 -1278 
L 334 -750 
Q 519 -800 656 -800 
Q 844 -800 956 -737 
Q 1069 -675 1141 -563 
Q 1194 -478 1313 -144 
Q 1328 -97 1363 -6 
L 103 3319 
L 709 3319 
L 1400 1397 
Q 1534 1031 1641 628 
Q 1738 1016 1872 1384 
L 2581 3319 
L 3144 3319 
L 1881 -56 
Q 1678 -603 1566 -809 
Q 1416 -1088 1222 -1217 
Q 1028 -1347 759 -1347 
Q 597 -1347 397 -1278 
z
" transform="scale(0.015625)"/>
    </defs>
    <use xlink:href="#ArialMT-50"/>
    <use xlink:href="#ArialMT-72" transform="translate(66.699219 0)"/>
    <use xlink:href="#ArialMT-69" transform="translate(100 0)"/>
    <use xlink:href="#ArialMT-63" transform="translate(122.216797 0)"/>
    <use xlink:href="#ArialMT-65" transform="translate(172.216797 0)"/>
    <use xlink:href="#ArialMT-20" transform="translate(227.832031 0)"/>
    <use xlink:href="#ArialMT-54" transform="translate(253.865234 0)"/>
    <use xlink:href="#ArialMT-69" transform="translate(311.199219 0)"/>
    <use xlink:href="#ArialMT-6d" transform="translate(333.416016 0)"/>
    <use xlink:href="#ArialMT-65" transform="translate(416.716797 0)"/>
    <use xlink:href="#ArialMT-73" transform="translate(472.332031 0)"/>
    <use xlink:href="#ArialMT-65" transform="translate(522.332031 0)"/>
    <use xlink:href="#ArialMT-72" transform="translate(577.947266 0)"/>
    <use xlink:href="#ArialMT-69" transform="translate(611.248047 0)"/>
    <use xlink:href="#ArialMT-65" transform="translate(633.464844 0)"/>
    <use xlink:href="#ArialMT-73" transform="translate(689.080078 0)"/>
    <use xlink:href="#ArialMT-20" transform="translate(739.080078 0)"/>
    <use xlink:href="#ArialMT-62" transform="translate(766.863281 0)"/>
    <use xlink:href="#ArialMT-79" transform="translate(822.478516 0)"/>
    <use xlink:href="#ArialMT-20" transform="translate(872.478516 0)"/>
    <use xlink:href="#ArialMT-53" transform="translate(900.261719 0)"/>
    <use xlink:href="#ArialMT-63" transform="translate(966.960938 0)"/>
    <use xlink:href="#ArialMT-65" transform="translate(1016.960938 0)"/>
    <use xlink:href="#ArialMT-6e" transform="translate(1072.576172 0)"/>
    <use xlink:href="#ArialMT-61" transform="translate(1128.191406 0)"/>
    <use xlink:href="#ArialMT-72" transform="translate(1183.806641 0)"/>
    <use xlink:href="#ArialMT-69" transform="translate(1217.107422 0)"/>
    <use xlink:href="#ArialMT-6f" transform="translate(1239.324219 0)"/>
   </g>
  </g>
 </g>
 <defs>
  <clipPath id="pf2e538798e">
   <rect x="50.0651" y="76.3296" width="1089.253202" height="227.372"/>
  </clipPath>
  <clipPath id="p58c1c86324">
   <rect x="50.0651" y="333.8264" width="1089.253202" height="227.372"/>
  </clipPath>
  <clipPath id="p0ab736b5f1">
   <rect x="50.0651" y="591.3232" width="1089.253202" height="227.372"/>
  </clipPath>
 </defs>
</svg>
