<?xml version="1.0" encoding="utf-8" standalone="no"?>
<!DOCTYPE svg PUBLIC "-//W3C//DTD SVG 1.1//EN"
  "http://www.w3.org/Graphics/SVG/1.1/DTD/svg11.dtd">
<svg xmlns:xlink="http://www.w3.org/1999/xlink" width="1060.945975pt" height="539.714225pt" viewBox="0 0 1060.945975 539.714225" xmlns="http://www.w3.org/2000/svg" version="1.1">
 <metadata>
  <rdf:RDF xmlns:dc="http://purl.org/dc/elements/1.1/" xmlns:cc="http://creativecommons.org/ns#" xmlns:rdf="http://www.w3.org/1999/02/22-rdf-syntax-ns#">
   <cc:Work>
    <dc:type rdf:resource="http://purl.org/dc/dcmitype/StillImage"/>
    <dc:date>2025-11-30T21:17:25.074121</dc:date>
    <dc:format>image/svg+xml</dc:format>
    <dc:creator>
     <cc:Agent>
      <dc:title>Matplotlib v3.10.3, https://matplotlib.org/</dc:title>
     </cc:Agent>
    </dc:creator>
   </cc:Work>
  </rdf:RDF>
 </metadata>
 <defs>
  <style type="text/css">*{stroke-linejoin: round; stroke-linecap: butt}</style>
 </defs>
 <g id="figure_1">
  <g id="patch_1">
   <path d="M 0 539.714225 
L 1060.945975 539.714225 
L 1060.945975 0 
L 0 0 
z
" style="fill: #ffffff"/>
  </g>
  <g id="axes_1">
   <g id="patch_2">
    <path d="M 50.6041 491.023438 
L 831.8041 491.023438 
L 831.8041 47.503438 
L 50.6041 47.503438 
z
" style="fill: #ffffff"/>
   </g>
   <g id="matplotlib.axis_1">
    <g id="xtick_1">
     <g id="line2d_1">
      <path d="M 86.113191 491.023438 
L 86.113191 47.503438 
" clip-path="url(#pfa37fbb85c)" style="fill: none; stroke: #cccccc; stroke-opacity: 0.3; stroke-width: 0.8; stroke-linecap: round"/>
     </g>
     <g id="line2d_2">
      <defs>
       <path id="m7ba2e156d1" d="M 0 0 
L 0 4.8 
" style="stroke: #262626"/>
      </defs>
      <g>
       <use xlink:href="#m7ba2e156d1" x="86.113191" y="491.023438" style="fill: #262626; stroke: #262626"/>
      </g>
     </g>
     <g id="text_1">
      <!-- 0 -->
      <g style="fill: #262626" transform="translate(83.421697 506.2522) scale(0.0968 -0.0968)">
       <defs>
        <path id="ArialMT-30" d="M 266 2259 
Q 266 3072 433 3567 
Q 600 4063 929 4331 
Q 1259 4600 1759 4600 
Q 2128 4600 2406 4451 
Q 2684 4303 2865 4023 
Q 3047 3744 3150 3342 
Q 3253 2941 3253 2259 
Q 3253 1453 3087 958 
Q 2922 463 2592 192 
Q 2263 -78 1759 -78 
Q 1097 -78 719 397 
Q 266 969 266 2259 
z
M 844 2259 
Q 844 1131 1108 757 
Q 1372 384 1759 384 
Q 2147 384 2411 759 
Q 2675 1134 2675 2259 
Q 2675 3391 2411 3762 
Q 2147 4134 1753 4134 
Q 1366 4134 1134 3806 
Q 844 3388 844 2259 
z
" transform="scale(0.015625)"/>
       </defs>
       <use xlink:href="#ArialMT-30"/>
      </g>
     </g>
    </g>
    <g id="xtick_2">
     <g id="line2d_3">
      <path d="M 209.838246 491.023438 
L 209.838246 47.503438 
" clip-path="url(#pfa37fbb85c)" style="fill: none; stroke: #cccccc; stroke-opacity: 0.3; stroke-width: 0.8; stroke-linecap: round"/>
     </g>
     <g id="line2d_4">
      <g>
       <use xlink:href="#m7ba2e156d1" x="209.838246" y="491.023438" style="fill: #262626; stroke: #262626"/>
      </g>
     </g>
     <g id="text_2">
      <!-- 50 -->
      <g style="fill: #262626" transform="translate(204.455259 506.2522) scale(0.0968 -0.0968)">
       <defs>
        <path id="ArialMT-35" d="M 266 1200 
L 856 1250 
Q 922 819 1161 601 
Q 1400 384 1738 384 
Q 2144 384 2425 690 
Q 2706 997 2706 1503 
Q 2706 1984 2436 2262 
Q 2166 2541 1728 2541 
Q 1456 2541 1237 2417 
Q 1019 2294 894 2097 
L 366 2166 
L 809 4519 
L 3088 4519 
L 3088 3981 
L 1259 3981 
L 1013 2750 
Q 1425 3038 1878 3038 
Q 2478 3038 2890 2622 
Q 3303 2206 3303 1553 
Q 3303 931 2941 478 
Q 2500 -78 1738 -78 
Q 1113 -78 717 272 
Q 322 622 266 1200 
z
" transform="scale(0.015625)"/>
       </defs>
       <use xlink:href="#ArialMT-35"/>
       <use xlink:href="#ArialMT-30" transform="translate(55.615234 0)"/>
      </g>
     </g>
    </g>
    <g id="xtick_3">
     <g id="line2d_5">
      <path d="M 333.563302 491.023438 
L 333.563302 47.503438 
" clip-path="url(#pfa37fbb85c)" style="fill: none; stroke: #cccccc; stroke-opacity: 0.3; stroke-width: 0.8; stroke-linecap: round"/>
     </g>
     <g id="line2d_6">
      <g>
       <use xlink:href="#m7ba2e156d1" x="333.563302" y="491.023438" style="fill: #262626; stroke: #262626"/>
      </g>
     </g>
     <g id="text_3">
      <!-- 100 -->
      <g style="fill: #262626" transform="translate(325.488821 506.2522) scale(0.0968 -0.0968)">
       <defs>
        <path id="ArialMT-31" d="M 2384 0 
L 1822 0 
L 1822 3584 
Q 1619 3391 1289 3197 
Q 959 3003 697 2906 
L 697 3450 
Q 1169 3672 1522 3987 
Q 1875 4303 2022 4600 
L 2384 4600 
L 2384 0 
z
" transform="scale(0.015625)"/>
       </defs>
       <use xlink:href="#ArialMT-31"/>
       <use xlink:href="#ArialMT-30" transform="translate(55.615234 0)"/>
       <use xlink:href="#ArialMT-30" transform="translate(111.230469 0)"/>
      </g>
     </g>
    </g>
    <g id="xtick_4">
     <g id="line2d_7">
      <path d="M 457.288357 491.023438 
L 457.288357 47.503438 
" clip-path="url(#pfa37fbb85c)" style="fill: none; stroke: #cccccc; stroke-opacity: 0.3; stroke-width: 0.8; stroke-linecap: round"/>
     </g>
     <g id="line2d_8">
      <g>
       <use xlink:href="#m7ba2e156d1" x="457.288357" y="491.023438" style="fill: #262626; stroke: #262626"/>
      </g>
     </g>
     <g id="text_4">
      <!-- 150 -->
      <g style="fill: #262626" transform="translate(449.213876 506.2522) scale(0.0968 -0.0968)">
       <use xlink:href="#ArialMT-31"/>
       <use xlink:href="#ArialMT-35" transform="translate(55.615234 0)"/>
       <use xlink:href="#ArialMT-30" transform="translate(111.230469 0)"/>
      </g>
     </g>
    </g>
    <g id="xtick_5">
     <g id="line2d_9">
      <path d="M 581.013413 491.023438 
L 581.013413 47.503438 
" clip-path="url(#pfa37fbb85c)" style="fill: none; stroke: #cccccc; stroke-opacity: 0.3; stroke-width: 0.8; stroke-linecap: round"/>
     </g>
     <g id="line2d_10">
      <g>
       <use xlink:href="#m7ba2e156d1" x="581.013413" y="491.023438" style="fill: #262626; stroke: #262626"/>
      </g>
     </g>
     <g id="text_5">
      <!-- 200 -->
      <g style="fill: #262626" transform="translate(572.938931 506.2522) scale(0.0968 -0.0968)">
       <defs>
        <path id="ArialMT-32" d="M 3222 541 
L 3222 0 
L 194 0 
Q 188 203 259 391 
Q 375 700 629 1000 
Q 884 1300 1366 1694 
Q 2113 2306 2375 2664 
Q 2638 3022 2638 3341 
Q 2638 3675 2398 3904 
Q 2159 4134 1775 4134 
Q 1369 4134 1125 3890 
Q 881 3647 878 3216 
L 300 3275 
Q 359 3922 746 4261 
Q 1134 4600 1788 4600 
Q 2447 4600 2831 4234 
Q 3216 3869 3216 3328 
Q 3216 3053 3103 2787 
Q 2991 2522 2730 2228 
Q 2469 1934 1863 1422 
Q 1356 997 1212 845 
Q 1069 694 975 541 
L 3222 541 
z
" transform="scale(0.015625)"/>
       </defs>
       <use xlink:href="#ArialMT-32"/>
       <use xlink:href="#ArialMT-30" transform="translate(55.615234 0)"/>
       <use xlink:href="#ArialMT-30" transform="translate(111.230469 0)"/>
      </g>
     </g>
    </g>
    <g id="xtick_6">
     <g id="line2d_11">
      <path d="M 704.738468 491.023438 
L 704.738468 47.503438 
" clip-path="url(#pfa37fbb85c)" style="fill: none; stroke: #cccccc; stroke-opacity: 0.3; stroke-width: 0.8; stroke-linecap: round"/>
     </g>
     <g id="line2d_12">
      <g>
       <use xlink:href="#m7ba2e156d1" x="704.738468" y="491.023438" style="fill: #262626; stroke: #262626"/>
      </g>
     </g>
     <g id="text_6">
      <!-- 250 -->
      <g style="fill: #262626" transform="translate(696.663987 506.2522) scale(0.0968 -0.0968)">
       <use xlink:href="#ArialMT-32"/>
       <use xlink:href="#ArialMT-35" transform="translate(55.615234 0)"/>
       <use xlink:href="#ArialMT-30" transform="translate(111.230469 0)"/>
      </g>
     </g>
    </g>
    <g id="xtick_7">
     <g id="line2d_13">
      <path d="M 828.463524 491.023438 
L 828.463524 47.503438 
" clip-path="url(#pfa37fbb85c)" style="fill: none; stroke: #cccccc; stroke-opacity: 0.3; stroke-width: 0.8; stroke-linecap: round"/>
     </g>
     <g id="line2d_14">
      <g>
       <use xlink:href="#m7ba2e156d1" x="828.463524" y="491.023438" style="fill: #262626; stroke: #262626"/>
      </g>
     </g>
     <g id="text_7">
      <!-- 300 -->
      <g style="fill: #262626" transform="translate(820.389042 506.2522) scale(0.0968 -0.0968)">
       <defs>
        <path id="ArialMT-33" d="M 269 1209 
L 831 1284 
Q 928 806 1161 595 
Q 1394 384 1728 384 
Q 2125 384 2398 659 
Q 2672 934 2672 1341 
Q 2672 1728 2419 1979 
Q 2166 2231 1775 2231 
Q 1616 2231 1378 2169 
L 1441 2663 
Q 1497 2656 1531 2656 
Q 1891 2656 2178 2843 
Q 2466 3031 2466 3422 
Q 2466 3731 2256 3934 
Q 2047 4138 1716 4138 
Q 1388 4138 1169 3931 
Q 950 3725 888 3313 
L 325 3413 
Q 428 3978 793 4289 
Q 1159 4600 1703 4600 
Q 2078 4600 2393 4439 
Q 2709 4278 2876 4000 
Q 3044 3722 3044 3409 
Q 3044 3113 2884 2869 
Q 2725 2625 2413 2481 
Q 2819 2388 3044 2092 
Q 3269 1797 3269 1353 
Q 3269 753 2831 336 
Q 2394 -81 1725 -81 
Q 1122 -81 723 278 
Q 325 638 269 1209 
z
" transform="scale(0.015625)"/>
       </defs>
       <use xlink:href="#ArialMT-33"/>
       <use xlink:href="#ArialMT-30" transform="translate(55.615234 0)"/>
       <use xlink:href="#ArialMT-30" transform="translate(111.230469 0)"/>
      </g>
     </g>
    </g>
    <g id="text_8">
     <!-- Hour (sorted) -->
     <g style="fill: #262626" transform="translate(399.973006 522.367663) scale(0.14 -0.14)">
      <defs>
       <path id="ArialMT-48" d="M 513 0 
L 513 4581 
L 1119 4581 
L 1119 2700 
L 3500 2700 
L 3500 4581 
L 4106 4581 
L 4106 0 
L 3500 0 
L 3500 2159 
L 1119 2159 
L 1119 0 
L 513 0 
z
" transform="scale(0.015625)"/>
       <path id="ArialMT-6f" d="M 213 1659 
Q 213 2581 725 3025 
Q 1153 3394 1769 3394 
Q 2453 3394 2887 2945 
Q 3322 2497 3322 1706 
Q 3322 1066 3130 698 
Q 2938 331 2570 128 
Q 2203 -75 1769 -75 
Q 1072 -75 642 372 
Q 213 819 213 1659 
z
M 791 1659 
Q 791 1022 1069 705 
Q 1347 388 1769 388 
Q 2188 388 2466 706 
Q 2744 1025 2744 1678 
Q 2744 2294 2464 2611 
Q 2184 2928 1769 2928 
Q 1347 2928 1069 2612 
Q 791 2297 791 1659 
z
" transform="scale(0.015625)"/>
       <path id="ArialMT-75" d="M 2597 0 
L 2597 488 
Q 2209 -75 1544 -75 
Q 1250 -75 995 37 
Q 741 150 617 320 
Q 494 491 444 738 
Q 409 903 409 1263 
L 409 3319 
L 972 3319 
L 972 1478 
Q 972 1038 1006 884 
Q 1059 663 1231 536 
Q 1403 409 1656 409 
Q 1909 409 2131 539 
Q 2353 669 2445 892 
Q 2538 1116 2538 1541 
L 2538 3319 
L 3100 3319 
L 3100 0 
L 2597 0 
z
" transform="scale(0.015625)"/>
       <path id="ArialMT-72" d="M 416 0 
L 416 3319 
L 922 3319 
L 922 2816 
Q 1116 3169 1280 3281 
Q 1444 3394 1641 3394 
Q 1925 3394 2219 3213 
L 2025 2691 
Q 1819 2813 1613 2813 
Q 1428 2813 1281 2702 
Q 1134 2591 1072 2394 
Q 978 2094 978 1738 
L 978 0 
L 416 0 
z
" transform="scale(0.015625)"/>
       <path id="ArialMT-20" transform="scale(0.015625)"/>
       <path id="ArialMT-28" d="M 1497 -1347 
Q 1031 -759 709 28 
Q 388 816 388 1659 
Q 388 2403 628 3084 
Q 909 3875 1497 4659 
L 1900 4659 
Q 1522 4009 1400 3731 
Q 1209 3300 1100 2831 
Q 966 2247 966 1656 
Q 966 153 1900 -1347 
L 1497 -1347 
z
" transform="scale(0.015625)"/>
       <path id="ArialMT-73" d="M 197 991 
L 753 1078 
Q 800 744 1014 566 
Q 1228 388 1613 388 
Q 2000 388 2187 545 
Q 2375 703 2375 916 
Q 2375 1106 2209 1216 
Q 2094 1291 1634 1406 
Q 1016 1563 777 1677 
Q 538 1791 414 1992 
Q 291 2194 291 2438 
Q 291 2659 392 2848 
Q 494 3038 669 3163 
Q 800 3259 1026 3326 
Q 1253 3394 1513 3394 
Q 1903 3394 2198 3281 
Q 2494 3169 2634 2976 
Q 2775 2784 2828 2463 
L 2278 2388 
Q 2241 2644 2061 2787 
Q 1881 2931 1553 2931 
Q 1166 2931 1000 2803 
Q 834 2675 834 2503 
Q 834 2394 903 2306 
Q 972 2216 1119 2156 
Q 1203 2125 1616 2013 
Q 2213 1853 2448 1751 
Q 2684 1650 2818 1456 
Q 2953 1263 2953 975 
Q 2953 694 2789 445 
Q 2625 197 2315 61 
Q 2006 -75 1616 -75 
Q 969 -75 630 194 
Q 291 463 197 991 
z
" transform="scale(0.015625)"/>
       <path id="ArialMT-74" d="M 1650 503 
L 1731 6 
Q 1494 -44 1306 -44 
Q 1000 -44 831 53 
Q 663 150 594 308 
Q 525 466 525 972 
L 525 2881 
L 113 2881 
L 113 3319 
L 525 3319 
L 525 4141 
L 1084 4478 
L 1084 3319 
L 1650 3319 
L 1650 2881 
L 1084 2881 
L 1084 941 
Q 1084 700 1114 631 
Q 1144 563 1211 522 
Q 1278 481 1403 481 
Q 1497 481 1650 503 
z
" transform="scale(0.015625)"/>
       <path id="ArialMT-65" d="M 2694 1069 
L 3275 997 
Q 3138 488 2766 206 
Q 2394 -75 1816 -75 
Q 1088 -75 661 373 
Q 234 822 234 1631 
Q 234 2469 665 2931 
Q 1097 3394 1784 3394 
Q 2450 3394 2872 2941 
Q 3294 2488 3294 1666 
Q 3294 1616 3291 1516 
L 816 1516 
Q 847 969 1125 678 
Q 1403 388 1819 388 
Q 2128 388 2347 550 
Q 2566 713 2694 1069 
z
M 847 1978 
L 2700 1978 
Q 2663 2397 2488 2606 
Q 2219 2931 1791 2931 
Q 1403 2931 1139 2672 
Q 875 2413 847 1978 
z
" transform="scale(0.015625)"/>
       <path id="ArialMT-64" d="M 2575 0 
L 2575 419 
Q 2259 -75 1647 -75 
Q 1250 -75 917 144 
Q 584 363 401 755 
Q 219 1147 219 1656 
Q 219 2153 384 2558 
Q 550 2963 881 3178 
Q 1213 3394 1622 3394 
Q 1922 3394 2156 3267 
Q 2391 3141 2538 2938 
L 2538 4581 
L 3097 4581 
L 3097 0 
L 2575 0 
z
M 797 1656 
Q 797 1019 1065 703 
Q 1334 388 1700 388 
Q 2069 388 2326 689 
Q 2584 991 2584 1609 
Q 2584 2291 2321 2609 
Q 2059 2928 1675 2928 
Q 1300 2928 1048 2622 
Q 797 2316 797 1656 
z
" transform="scale(0.015625)"/>
       <path id="ArialMT-29" d="M 791 -1347 
L 388 -1347 
Q 1322 153 1322 1656 
Q 1322 2244 1188 2822 
Q 1081 3291 891 3722 
Q 769 4003 388 4659 
L 791 4659 
Q 1378 3875 1659 3084 
Q 1900 2403 1900 1659 
Q 1900 816 1576 28 
Q 1253 -759 791 -1347 
z
" transform="scale(0.015625)"/>
      </defs>
      <use xlink:href="#ArialMT-48"/>
      <use xlink:href="#ArialMT-6f" transform="translate(72.216797 0)"/>
      <use xlink:href="#ArialMT-75" transform="translate(127.832031 0)"/>
      <use xlink:href="#ArialMT-72" transform="translate(183.447266 0)"/>
      <use xlink:href="#ArialMT-20" transform="translate(216.748047 0)"/>
      <use xlink:href="#ArialMT-28" transform="translate(244.53125 0)"/>
      <use xlink:href="#ArialMT-73" transform="translate(277.832031 0)"/>
      <use xlink:href="#ArialMT-6f" transform="translate(327.832031 0)"/>
      <use xlink:href="#ArialMT-72" transform="translate(383.447266 0)"/>
      <use xlink:href="#ArialMT-74" transform="translate(416.748047 0)"/>
      <use xlink:href="#ArialMT-65" transform="translate(444.53125 0)"/>
      <use xlink:href="#ArialMT-64" transform="translate(500.146484 0)"/>
      <use xlink:href="#ArialMT-29" transform="translate(555.761719 0)"/>
     </g>
    </g>
   </g>
   <g id="matplotlib.axis_2">
    <g id="ytick_1">
     <g id="line2d_15">
      <path d="M 50.6041 487.745606 
L 831.8041 487.745606 
" clip-path="url(#pfa37fbb85c)" style="fill: none; stroke: #cccccc; stroke-opacity: 0.3; stroke-width: 0.8; stroke-linecap: round"/>
     </g>
     <g id="line2d_16">
      <defs>
       <path id="m54eab99500" d="M 0 0 
L -4.8 0 
" style="stroke: #262626"/>
      </defs>
      <g>
       <use xlink:href="#m54eab99500" x="50.6041" y="487.745606" style="fill: #262626; stroke: #262626"/>
      </g>
     </g>
     <g id="text_9">
      <!-- 2 -->
      <g style="fill: #262626" transform="translate(36.921113 491.209987) scale(0.0968 -0.0968)">
       <use xlink:href="#ArialMT-32"/>
      </g>
     </g>
    </g>
    <g id="ytick_2">
     <g id="line2d_17">
      <path d="M 50.6041 409.005986 
L 831.8041 409.005986 
" clip-path="url(#pfa37fbb85c)" style="fill: none; stroke: #cccccc; stroke-opacity: 0.3; stroke-width: 0.8; stroke-linecap: round"/>
     </g>
     <g id="line2d_18">
      <g>
       <use xlink:href="#m54eab99500" x="50.6041" y="409.005986" style="fill: #262626; stroke: #262626"/>
      </g>
     </g>
     <g id="text_10">
      <!-- 4 -->
      <g style="fill: #262626" transform="translate(36.921113 412.470368) scale(0.0968 -0.0968)">
       <defs>
        <path id="ArialMT-34" d="M 2069 0 
L 2069 1097 
L 81 1097 
L 81 1613 
L 2172 4581 
L 2631 4581 
L 2631 1613 
L 3250 1613 
L 3250 1097 
L 2631 1097 
L 2631 0 
L 2069 0 
z
M 2069 1613 
L 2069 3678 
L 634 1613 
L 2069 1613 
z
" transform="scale(0.015625)"/>
       </defs>
       <use xlink:href="#ArialMT-34"/>
      </g>
     </g>
    </g>
    <g id="ytick_3">
     <g id="line2d_19">
      <path d="M 50.6041 330.266367 
L 831.8041 330.266367 
" clip-path="url(#pfa37fbb85c)" style="fill: none; stroke: #cccccc; stroke-opacity: 0.3; stroke-width: 0.8; stroke-linecap: round"/>
     </g>
     <g id="line2d_20">
      <g>
       <use xlink:href="#m54eab99500" x="50.6041" y="330.266367" style="fill: #262626; stroke: #262626"/>
      </g>
     </g>
     <g id="text_11">
      <!-- 6 -->
      <g style="fill: #262626" transform="translate(36.921113 333.730748) scale(0.0968 -0.0968)">
       <defs>
        <path id="ArialMT-36" d="M 3184 3459 
L 2625 3416 
Q 2550 3747 2413 3897 
Q 2184 4138 1850 4138 
Q 1581 4138 1378 3988 
Q 1113 3794 959 3422 
Q 806 3050 800 2363 
Q 1003 2672 1297 2822 
Q 1591 2972 1913 2972 
Q 2475 2972 2870 2558 
Q 3266 2144 3266 1488 
Q 3266 1056 3080 686 
Q 2894 316 2569 119 
Q 2244 -78 1831 -78 
Q 1128 -78 684 439 
Q 241 956 241 2144 
Q 241 3472 731 4075 
Q 1159 4600 1884 4600 
Q 2425 4600 2770 4297 
Q 3116 3994 3184 3459 
z
M 888 1484 
Q 888 1194 1011 928 
Q 1134 663 1356 523 
Q 1578 384 1822 384 
Q 2178 384 2434 671 
Q 2691 959 2691 1453 
Q 2691 1928 2437 2201 
Q 2184 2475 1800 2475 
Q 1419 2475 1153 2201 
Q 888 1928 888 1484 
z
" transform="scale(0.015625)"/>
       </defs>
       <use xlink:href="#ArialMT-36"/>
      </g>
     </g>
    </g>
    <g id="ytick_4">
     <g id="line2d_21">
      <path d="M 50.6041 251.526748 
L 831.8041 251.526748 
" clip-path="url(#pfa37fbb85c)" style="fill: none; stroke: #cccccc; stroke-opacity: 0.3; stroke-width: 0.8; stroke-linecap: round"/>
     </g>
     <g id="line2d_22">
      <g>
       <use xlink:href="#m54eab99500" x="50.6041" y="251.526748" style="fill: #262626; stroke: #262626"/>
      </g>
     </g>
     <g id="text_12">
      <!-- 8 -->
      <g style="fill: #262626" transform="translate(36.921113 254.991129) scale(0.0968 -0.0968)">
       <defs>
        <path id="ArialMT-38" d="M 1131 2484 
Q 781 2613 612 2850 
Q 444 3088 444 3419 
Q 444 3919 803 4259 
Q 1163 4600 1759 4600 
Q 2359 4600 2725 4251 
Q 3091 3903 3091 3403 
Q 3091 3084 2923 2848 
Q 2756 2613 2416 2484 
Q 2838 2347 3058 2040 
Q 3278 1734 3278 1309 
Q 3278 722 2862 322 
Q 2447 -78 1769 -78 
Q 1091 -78 675 323 
Q 259 725 259 1325 
Q 259 1772 486 2073 
Q 713 2375 1131 2484 
z
M 1019 3438 
Q 1019 3113 1228 2906 
Q 1438 2700 1772 2700 
Q 2097 2700 2305 2904 
Q 2513 3109 2513 3406 
Q 2513 3716 2298 3927 
Q 2084 4138 1766 4138 
Q 1444 4138 1231 3931 
Q 1019 3725 1019 3438 
z
M 838 1322 
Q 838 1081 952 856 
Q 1066 631 1291 507 
Q 1516 384 1775 384 
Q 2178 384 2440 643 
Q 2703 903 2703 1303 
Q 2703 1709 2433 1975 
Q 2163 2241 1756 2241 
Q 1359 2241 1098 1978 
Q 838 1716 838 1322 
z
" transform="scale(0.015625)"/>
       </defs>
       <use xlink:href="#ArialMT-38"/>
      </g>
     </g>
    </g>
    <g id="ytick_5">
     <g id="line2d_23">
      <path d="M 50.6041 172.787128 
L 831.8041 172.787128 
" clip-path="url(#pfa37fbb85c)" style="fill: none; stroke: #cccccc; stroke-opacity: 0.3; stroke-width: 0.8; stroke-linecap: round"/>
     </g>
     <g id="line2d_24">
      <g>
       <use xlink:href="#m54eab99500" x="50.6041" y="172.787128" style="fill: #262626; stroke: #262626"/>
      </g>
     </g>
     <g id="text_13">
      <!-- 10 -->
      <g style="fill: #262626" transform="translate(31.538125 176.25151) scale(0.0968 -0.0968)">
       <use xlink:href="#ArialMT-31"/>
       <use xlink:href="#ArialMT-30" transform="translate(55.615234 0)"/>
      </g>
     </g>
    </g>
    <g id="ytick_6">
     <g id="line2d_25">
      <path d="M 50.6041 94.047509 
L 831.8041 94.047509 
" clip-path="url(#pfa37fbb85c)" style="fill: none; stroke: #cccccc; stroke-opacity: 0.3; stroke-width: 0.8; stroke-linecap: round"/>
     </g>
     <g id="line2d_26">
      <g>
       <use xlink:href="#m54eab99500" x="50.6041" y="94.047509" style="fill: #262626; stroke: #262626"/>
      </g>
     </g>
     <g id="text_14">
      <!-- 12 -->
      <g style="fill: #262626" transform="translate(31.538125 97.51189) scale(0.0968 -0.0968)">
       <use xlink:href="#ArialMT-31"/>
       <use xlink:href="#ArialMT-32" transform="translate(55.615234 0)"/>
      </g>
     </g>
    </g>
    <g id="text_15">
     <!-- Residual Load (GW) -->
     <g style="fill: #262626" transform="translate(24.591563 332.673594) rotate(-90) scale(0.14 -0.14)">
      <defs>
       <path id="ArialMT-52" d="M 503 0 
L 503 4581 
L 2534 4581 
Q 3147 4581 3465 4457 
Q 3784 4334 3975 4021 
Q 4166 3709 4166 3331 
Q 4166 2844 3850 2509 
Q 3534 2175 2875 2084 
Q 3116 1969 3241 1856 
Q 3506 1613 3744 1247 
L 4541 0 
L 3778 0 
L 3172 953 
Q 2906 1366 2734 1584 
Q 2563 1803 2427 1890 
Q 2291 1978 2150 2013 
Q 2047 2034 1813 2034 
L 1109 2034 
L 1109 0 
L 503 0 
z
M 1109 2559 
L 2413 2559 
Q 2828 2559 3062 2645 
Q 3297 2731 3419 2920 
Q 3541 3109 3541 3331 
Q 3541 3656 3305 3865 
Q 3069 4075 2559 4075 
L 1109 4075 
L 1109 2559 
z
" transform="scale(0.015625)"/>
       <path id="ArialMT-69" d="M 425 3934 
L 425 4581 
L 988 4581 
L 988 3934 
L 425 3934 
z
M 425 0 
L 425 3319 
L 988 3319 
L 988 0 
L 425 0 
z
" transform="scale(0.015625)"/>
       <path id="ArialMT-61" d="M 2588 409 
Q 2275 144 1986 34 
Q 1697 -75 1366 -75 
Q 819 -75 525 192 
Q 231 459 231 875 
Q 231 1119 342 1320 
Q 453 1522 633 1644 
Q 813 1766 1038 1828 
Q 1203 1872 1538 1913 
Q 2219 1994 2541 2106 
Q 2544 2222 2544 2253 
Q 2544 2597 2384 2738 
Q 2169 2928 1744 2928 
Q 1347 2928 1158 2789 
Q 969 2650 878 2297 
L 328 2372 
Q 403 2725 575 2942 
Q 747 3159 1072 3276 
Q 1397 3394 1825 3394 
Q 2250 3394 2515 3294 
Q 2781 3194 2906 3042 
Q 3031 2891 3081 2659 
Q 3109 2516 3109 2141 
L 3109 1391 
Q 3109 606 3145 398 
Q 3181 191 3288 0 
L 2700 0 
Q 2613 175 2588 409 
z
M 2541 1666 
Q 2234 1541 1622 1453 
Q 1275 1403 1131 1340 
Q 988 1278 909 1158 
Q 831 1038 831 891 
Q 831 666 1001 516 
Q 1172 366 1500 366 
Q 1825 366 2078 508 
Q 2331 650 2450 897 
Q 2541 1088 2541 1459 
L 2541 1666 
z
" transform="scale(0.015625)"/>
       <path id="ArialMT-6c" d="M 409 0 
L 409 4581 
L 972 4581 
L 972 0 
L 409 0 
z
" transform="scale(0.015625)"/>
       <path id="ArialMT-4c" d="M 469 0 
L 469 4581 
L 1075 4581 
L 1075 541 
L 3331 541 
L 3331 0 
L 469 0 
z
" transform="scale(0.015625)"/>
       <path id="ArialMT-47" d="M 2638 1797 
L 2638 2334 
L 4578 2338 
L 4578 638 
Q 4131 281 3656 101 
Q 3181 -78 2681 -78 
Q 2006 -78 1454 211 
Q 903 500 622 1047 
Q 341 1594 341 2269 
Q 341 2938 620 3517 
Q 900 4097 1425 4378 
Q 1950 4659 2634 4659 
Q 3131 4659 3532 4498 
Q 3934 4338 4162 4050 
Q 4391 3763 4509 3300 
L 3963 3150 
Q 3859 3500 3706 3700 
Q 3553 3900 3268 4020 
Q 2984 4141 2638 4141 
Q 2222 4141 1919 4014 
Q 1616 3888 1430 3681 
Q 1244 3475 1141 3228 
Q 966 2803 966 2306 
Q 966 1694 1177 1281 
Q 1388 869 1791 669 
Q 2194 469 2647 469 
Q 3041 469 3416 620 
Q 3791 772 3984 944 
L 3984 1797 
L 2638 1797 
z
" transform="scale(0.015625)"/>
       <path id="ArialMT-57" d="M 1294 0 
L 78 4581 
L 700 4581 
L 1397 1578 
Q 1509 1106 1591 641 
Q 1766 1375 1797 1488 
L 2669 4581 
L 3400 4581 
L 4056 2263 
Q 4303 1400 4413 641 
Q 4500 1075 4641 1638 
L 5359 4581 
L 5969 4581 
L 4713 0 
L 4128 0 
L 3163 3491 
Q 3041 3928 3019 4028 
Q 2947 3713 2884 3491 
L 1913 0 
L 1294 0 
z
" transform="scale(0.015625)"/>
      </defs>
      <use xlink:href="#ArialMT-52"/>
      <use xlink:href="#ArialMT-65" transform="translate(72.216797 0)"/>
      <use xlink:href="#ArialMT-73" transform="translate(127.832031 0)"/>
      <use xlink:href="#ArialMT-69" transform="translate(177.832031 0)"/>
      <use xlink:href="#ArialMT-64" transform="translate(200.048828 0)"/>
      <use xlink:href="#ArialMT-75" transform="translate(255.664062 0)"/>
      <use xlink:href="#ArialMT-61" transform="translate(311.279297 0)"/>
      <use xlink:href="#ArialMT-6c" transform="translate(366.894531 0)"/>
      <use xlink:href="#ArialMT-20" transform="translate(389.111328 0)"/>
      <use xlink:href="#ArialMT-4c" transform="translate(416.894531 0)"/>
      <use xlink:href="#ArialMT-6f" transform="translate(472.509766 0)"/>
      <use xlink:href="#ArialMT-61" transform="translate(528.125 0)"/>
      <use xlink:href="#ArialMT-64" transform="translate(583.740234 0)"/>
      <use xlink:href="#ArialMT-20" transform="translate(639.355469 0)"/>
      <use xlink:href="#ArialMT-28" transform="translate(667.138672 0)"/>
      <use xlink:href="#ArialMT-47" transform="translate(700.439453 0)"/>
      <use xlink:href="#ArialMT-57" transform="translate(778.222656 0)"/>
      <use xlink:href="#ArialMT-29" transform="translate(872.607422 0)"/>
     </g>
    </g>
   </g>
   <g id="line2d_27">
    <path d="M 86.113191 67.678792 
L 88.587692 72.307894 
L 91.062193 72.634663 
L 96.011195 76.992508 
L 98.485696 77.259435 
L 100.960198 82.518454 
L 103.434699 84.025137 
L 108.383701 84.403087 
L 110.858202 84.862139 
L 113.332703 86.001895 
L 115.807204 88.674318 
L 118.281705 89.754625 
L 120.756206 91.414456 
L 123.230708 94.179398 
L 125.705209 95.353406 
L 128.17971 95.482932 
L 130.654211 95.49435 
L 133.128712 99.643928 
L 135.603213 99.880934 
L 138.077714 100.923053 
L 143.026716 101.089981 
L 145.501218 101.811236 
L 147.975719 102.913984 
L 150.45022 103.541539 
L 152.924721 104.543107 
L 155.399222 107.473402 
L 157.873723 109.688741 
L 160.348224 110.79582 
L 162.822725 112.405651 
L 165.297226 112.698956 
L 167.771727 114.36863 
L 170.246229 115.348938 
L 172.72073 116.071374 
L 177.669732 116.669402 
L 180.144233 117.387113 
L 182.618734 119.177652 
L 185.093235 119.914655 
L 187.567736 119.957962 
L 190.042237 122.047711 
L 192.516739 122.854399 
L 194.99124 123.915809 
L 197.465741 127.367754 
L 199.940242 127.405549 
L 202.414743 127.564997 
L 204.889244 128.842547 
L 207.363745 129.389 
L 209.838246 130.137814 
L 212.312747 131.167334 
L 217.26175 131.367333 
L 219.736251 132.300397 
L 222.210752 133.681097 
L 224.685253 133.911016 
L 227.159754 134.610224 
L 229.634255 137.873194 
L 232.108756 137.958233 
L 234.583257 139.272397 
L 237.057759 139.54956 
L 242.006761 140.586955 
L 244.481262 141.51372 
L 246.955763 141.61057 
L 249.430264 141.925135 
L 251.904765 143.116859 
L 254.379266 143.20111 
L 256.853767 143.94205 
L 264.277271 144.381023 
L 266.751772 145.8381 
L 269.226273 146.492033 
L 271.700774 148.821938 
L 274.175275 150.051457 
L 276.649776 150.299881 
L 279.124277 151.128615 
L 281.598778 151.128615 
L 284.07328 151.337275 
L 286.547781 152.07349 
L 289.022282 152.174277 
L 291.496783 152.827029 
L 293.971284 153.843951 
L 296.445785 154.187649 
L 301.394787 156.398658 
L 303.869288 157.688806 
L 306.34379 157.963608 
L 308.818291 159.566746 
L 311.292792 160.387607 
L 313.767293 161.90925 
L 318.716295 164.306871 
L 321.190796 165.117496 
L 326.139798 165.595839 
L 328.6143 167.848973 
L 336.037803 168.526134 
L 338.512304 168.968257 
L 340.986805 169.026131 
L 343.461306 169.732425 
L 348.410308 169.893447 
L 350.88481 170.649348 
L 353.359311 171.208005 
L 355.833812 172.30721 
L 358.308313 172.470201 
L 360.782814 172.480044 
L 363.257315 172.775711 
L 368.206317 172.976497 
L 370.680818 173.900113 
L 375.629821 173.963498 
L 378.104322 174.600502 
L 380.578823 174.807981 
L 383.053324 176.093405 
L 385.527825 176.346947 
L 388.002326 176.937887 
L 390.476827 177.047336 
L 392.951328 177.691032 
L 395.425829 177.747724 
L 397.900331 178.520554 
L 400.374832 179.492594 
L 402.849333 179.917001 
L 405.323834 180.035504 
L 407.798335 180.882742 
L 410.272836 184.877597 
L 415.221838 185.237831 
L 417.696339 187.602381 
L 420.170841 187.606318 
L 422.645342 188.434266 
L 425.119843 191.347631 
L 427.594344 191.67007 
L 430.068845 192.45038 
L 432.543346 192.828724 
L 435.017847 196.213346 
L 437.492348 196.653107 
L 439.966849 201.053864 
L 442.441351 201.871182 
L 444.915852 202.335745 
L 447.390353 203.549517 
L 452.339355 205.08927 
L 454.813856 205.912099 
L 457.288357 206.85225 
L 459.762858 211.303007 
L 462.237359 212.034498 
L 467.186362 212.513629 
L 469.660863 213.166774 
L 472.135364 214.436844 
L 474.609865 214.993927 
L 477.084366 216.425807 
L 479.558867 220.308457 
L 482.033368 222.172618 
L 484.507869 222.695449 
L 486.982371 224.370634 
L 489.456872 228.222576 
L 491.931373 230.232011 
L 494.405874 230.448545 
L 496.880375 232.548531 
L 499.354876 233.848522 
L 501.829377 235.8615 
L 504.303878 236.075279 
L 506.778379 237.05165 
L 511.727382 237.221727 
L 514.201883 238.744552 
L 516.676384 243.982705 
L 519.150885 247.666538 
L 521.625386 250.185812 
L 524.099887 251.112577 
L 526.574388 253.67319 
L 529.048889 256.595217 
L 531.52339 258.53733 
L 533.997892 259.946375 
L 536.472393 268.117973 
L 538.946894 268.373089 
L 541.421395 273.991161 
L 543.895896 276.495475 
L 546.370397 284.745812 
L 548.844898 285.53124 
L 551.319399 287.991459 
L 553.7939 289.574519 
L 556.268402 291.444979 
L 558.742903 292.311902 
L 561.217404 292.60442 
L 563.691905 295.50125 
L 566.166406 297.111869 
L 568.640907 298.103988 
L 573.589909 298.215799 
L 576.06441 299.255555 
L 578.538912 300.576019 
L 583.487914 301.398454 
L 585.962415 306.648418 
L 588.436916 308.007858 
L 590.911417 310.194457 
L 593.385918 313.807031 
L 595.860419 315.07277 
L 598.33492 315.600326 
L 600.809422 317.075119 
L 603.283923 318.974318 
L 605.758424 324.076252 
L 608.232925 325.371519 
L 610.707426 326.266788 
L 613.181927 332.880916 
L 615.656428 335.252553 
L 618.130929 336.010422 
L 620.60543 336.465144 
L 623.079931 338.297414 
L 625.554433 338.887568 
L 628.028934 340.40803 
L 630.503435 341.691092 
L 632.977936 342.061168 
L 637.926938 346.665074 
L 640.401439 348.087111 
L 642.87594 349.170962 
L 645.350441 351.796928 
L 647.824943 353.448886 
L 650.299444 355.393754 
L 652.773945 365.41219 
L 655.248446 366.360608 
L 657.722947 366.605489 
L 660.197448 368.027133 
L 662.671949 368.363744 
L 665.14645 368.393272 
L 667.620951 369.983418 
L 672.569954 370.407038 
L 675.044455 371.508211 
L 677.518956 371.512148 
L 679.993457 372.12986 
L 682.467958 373.520796 
L 684.942459 373.689692 
L 687.41696 374.268428 
L 689.891461 380.892005 
L 692.365963 382.753804 
L 694.840464 383.473484 
L 697.314965 385.03489 
L 699.789466 388.762818 
L 702.263967 389.83407 
L 704.738468 391.854529 
L 707.212969 397.019848 
L 709.68747 397.628505 
L 712.161971 400.225338 
L 714.636473 400.953285 
L 717.110974 402.505243 
L 719.585475 402.679652 
L 722.059976 404.361136 
L 724.534477 406.965843 
L 727.008978 407.313478 
L 729.483479 408.163866 
L 731.95798 411.722503 
L 734.432481 411.941006 
L 736.906982 412.29494 
L 739.381484 414.594531 
L 741.855985 415.742161 
L 744.330486 420.948424 
L 746.804987 421.172045 
L 749.279488 423.616123 
L 751.753989 424.573203 
L 754.22849 425.675164 
L 756.702991 426.317679 
L 759.177492 426.323584 
L 761.651994 427.463734 
L 769.075497 429.930253 
L 774.024499 431.951499 
L 776.499 433.368418 
L 778.973501 434.11172 
L 781.448002 437.743585 
L 783.922504 447.010451 
L 786.397005 455.141891 
L 788.871506 459.497767 
L 791.346007 460.486343 
L 793.820508 469.865413 
L 796.295009 470.86265 
L 796.295009 470.86265 
" clip-path="url(#pfa37fbb85c)" style="fill: none; stroke: #1f77b4; stroke-width: 2.5; stroke-linecap: round"/>
   </g>
   <g id="line2d_28">
    <path d="M 86.113191 67.663438 
L 88.587692 72.29254 
L 91.062193 72.619309 
L 96.011195 76.976366 
L 98.485696 77.243293 
L 100.960198 82.503494 
L 103.434699 84.009389 
L 108.383701 84.388126 
L 113.332703 85.271585 
L 115.807204 87.968417 
L 120.756206 91.424299 
L 123.230708 94.164044 
L 125.705209 94.76089 
L 128.17971 94.771126 
L 130.654211 95.338445 
L 133.128712 99.629361 
L 135.603213 99.866367 
L 138.077714 100.910848 
L 143.026716 101.07502 
L 145.501218 101.821078 
L 147.975719 102.899417 
L 150.45022 103.552169 
L 152.924721 104.528146 
L 155.399222 107.458835 
L 157.873723 109.698583 
L 160.348224 110.780859 
L 162.822725 112.416281 
L 165.297226 112.68439 
L 167.771727 114.354063 
L 170.246229 115.358781 
L 172.72073 116.081217 
L 177.669732 116.678457 
L 180.144233 117.39735 
L 182.618734 119.161904 
L 185.093235 119.900482 
L 187.567736 119.967804 
L 190.042237 122.05716 
L 192.516739 122.863454 
L 194.99124 123.926832 
L 197.465741 127.352793 
L 202.414743 127.574052 
L 204.889244 128.828374 
L 207.363745 129.374433 
L 209.838246 130.147262 
L 212.312747 131.176783 
L 217.26175 131.376782 
L 219.736251 132.309846 
L 222.210752 133.690152 
L 224.685253 133.919678 
L 227.159754 134.597626 
L 229.634255 137.882249 
L 232.108756 137.942878 
L 234.583257 139.258224 
L 237.057759 139.559403 
L 242.006761 140.597191 
L 244.481262 141.523169 
L 246.955763 141.620806 
L 249.430264 141.93419 
L 251.904765 143.125914 
L 254.379266 143.210165 
L 256.853767 143.950711 
L 264.277271 144.390078 
L 266.751772 145.823927 
L 269.226273 146.479041 
L 271.700774 148.83178 
L 274.175275 150.060512 
L 276.649776 150.30618 
L 279.124277 151.114836 
L 281.598778 151.13767 
L 284.07328 151.346724 
L 286.547781 152.083333 
L 289.022282 152.183726 
L 291.496783 152.836871 
L 293.971284 153.853793 
L 296.445785 154.186862 
L 301.394787 156.408107 
L 303.869288 157.698649 
L 306.34379 157.972663 
L 308.818291 159.57462 
L 311.292792 160.397449 
L 313.767293 161.917911 
L 318.716295 164.315533 
L 321.190796 165.126551 
L 326.139798 165.605681 
L 328.6143 167.858422 
L 331.088801 168.094641 
L 333.563302 168.443064 
L 336.037803 168.53637 
L 338.512304 168.977312 
L 340.986805 169.035579 
L 343.461306 169.74148 
L 348.410308 169.902109 
L 350.88481 170.658403 
L 353.359311 171.216667 
L 355.833812 172.316265 
L 358.308313 172.47965 
L 360.782814 172.487918 
L 363.257315 172.784766 
L 368.206317 172.985159 
L 370.680818 173.908774 
L 375.629821 173.97216 
L 378.104322 174.609163 
L 380.578823 174.817036 
L 383.053324 176.10246 
L 385.527825 176.356002 
L 388.002326 176.946549 
L 390.476827 177.056784 
L 392.951328 177.700087 
L 395.425829 177.757173 
L 397.900331 178.528428 
L 400.374832 179.501256 
L 402.849333 179.925269 
L 405.323834 180.044953 
L 407.798335 180.891797 
L 410.272836 184.886258 
L 415.221838 185.247279 
L 417.696339 187.610649 
L 420.170841 187.614586 
L 422.645342 188.442927 
L 425.119843 191.356687 
L 427.594344 191.679125 
L 430.068845 192.459435 
L 432.543346 192.837779 
L 435.017847 196.222401 
L 437.492348 196.662162 
L 439.966849 201.062526 
L 442.441351 201.88063 
L 444.915852 202.343619 
L 447.390353 203.557391 
L 452.339355 205.098719 
L 454.813856 205.919973 
L 457.288357 206.860911 
L 459.762858 211.312062 
L 462.237359 212.042766 
L 467.186362 212.52229 
L 469.660863 213.176222 
L 472.135364 214.445899 
L 474.609865 215.002194 
L 477.084366 216.434468 
L 479.558867 220.317119 
L 482.033368 222.180885 
L 484.507869 222.702535 
L 486.982371 224.377721 
L 489.456872 228.230057 
L 491.931373 230.240673 
L 494.405874 230.456813 
L 496.880375 232.556799 
L 499.354876 233.856396 
L 501.829377 235.870162 
L 504.303878 236.057562 
L 506.778379 237.058736 
L 511.727382 237.229601 
L 514.201883 238.751638 
L 516.676384 243.990579 
L 519.150885 247.673624 
L 521.625386 250.192899 
L 524.099887 251.120058 
L 526.574388 253.680276 
L 529.048889 256.602304 
L 531.52339 258.544416 
L 533.997892 259.954249 
L 536.472393 268.125059 
L 538.946894 268.379388 
L 541.421395 273.999035 
L 543.895896 276.502561 
L 546.370397 284.752505 
L 548.844898 285.537145 
L 551.319399 287.998546 
L 553.7939 289.581606 
L 556.268402 291.452065 
L 558.742903 292.318201 
L 561.217404 292.610325 
L 563.691905 295.507156 
L 566.166406 297.117381 
L 568.640907 298.109894 
L 573.589909 298.221704 
L 576.06441 299.261855 
L 578.538912 300.582712 
L 583.487914 301.405541 
L 585.962415 306.654324 
L 588.436916 308.013763 
L 590.911417 310.200756 
L 593.385918 313.813724 
L 595.860419 315.079069 
L 598.33492 315.605837 
L 600.809422 317.081811 
L 603.283923 318.980617 
L 605.758424 324.086882 
L 608.232925 325.384117 
L 610.707426 326.27978 
L 613.181927 332.855719 
L 615.656428 335.233262 
L 618.130929 335.995462 
L 620.60543 336.448215 
L 623.079931 338.286391 
L 625.554433 338.876544 
L 628.028934 340.399369 
L 630.503435 341.682824 
L 632.977936 342.054082 
L 637.926938 346.661531 
L 640.401439 348.084749 
L 642.87594 349.168994 
L 645.350441 351.795747 
L 647.824943 353.447705 
L 650.299444 355.392967 
L 652.773945 365.411796 
L 655.248446 366.360215 
L 657.722947 366.605489 
L 660.197448 368.027133 
L 662.671949 368.363744 
L 665.14645 368.393272 
L 667.620951 369.983418 
L 672.569954 370.407038 
L 675.044455 371.508211 
L 677.518956 371.512148 
L 679.993457 372.12986 
L 682.467958 373.520796 
L 684.942459 373.689692 
L 687.41696 374.268428 
L 689.891461 380.892005 
L 692.365963 382.753804 
L 694.840464 383.473484 
L 697.314965 385.03489 
L 699.789466 388.763211 
L 702.263967 389.834464 
L 704.738468 391.854529 
L 707.212969 397.019848 
L 709.68747 397.628899 
L 712.161971 400.225731 
L 714.636473 400.953285 
L 717.110974 402.505243 
L 719.585475 402.680045 
L 722.059976 404.361136 
L 724.534477 406.966236 
L 727.008978 407.313872 
L 729.483479 408.163866 
L 731.95798 411.722503 
L 734.432481 411.941399 
L 736.906982 412.295334 
L 739.381484 414.594924 
L 741.855985 415.742554 
L 744.330486 420.948818 
L 746.804987 421.172439 
L 749.279488 423.616516 
L 751.753989 424.573596 
L 754.22849 425.675557 
L 756.702991 426.318073 
L 759.177492 426.323978 
L 761.651994 427.463734 
L 769.075497 429.930646 
L 774.024499 431.951499 
L 776.499 433.368812 
L 778.973501 434.112114 
L 781.448002 437.743979 
L 783.922504 447.010845 
L 786.397005 455.142285 
L 788.871506 459.497767 
L 791.346007 460.486737 
L 793.820508 469.865807 
L 796.295009 470.863044 
L 796.295009 470.863044 
" clip-path="url(#pfa37fbb85c)" style="fill: none; stroke: #ff7f0e; stroke-width: 2.5; stroke-linecap: round"/>
   </g>
   <g id="line2d_29">
    <path d="M 86.113191 67.679579 
L 88.587692 72.308681 
L 91.062193 72.635451 
L 96.011195 76.993295 
L 98.485696 77.260222 
L 100.960198 82.518848 
L 103.434699 84.02553 
L 108.383701 84.403481 
L 110.858202 84.862926 
L 113.332703 86.00347 
L 115.807204 88.675892 
L 118.281705 89.755019 
L 120.756206 91.41485 
L 123.230708 94.180185 
L 125.705209 95.354193 
L 128.17971 95.48372 
L 130.654211 95.495137 
L 133.128712 99.644321 
L 135.603213 99.881721 
L 138.077714 100.91321 
L 143.026716 101.090768 
L 145.501218 101.811629 
L 147.975719 102.914771 
L 150.45022 103.542326 
L 152.924721 104.543894 
L 155.399222 107.474976 
L 157.873723 109.689528 
L 160.348224 110.796607 
L 162.822725 112.406439 
L 165.297226 112.699744 
L 167.771727 114.369417 
L 170.246229 115.350119 
L 172.72073 116.072162 
L 177.669732 116.670189 
L 180.144233 117.387901 
L 182.618734 119.17844 
L 185.093235 119.915443 
L 187.567736 119.958749 
L 190.042237 122.048499 
L 192.516739 122.854793 
L 194.99124 123.91699 
L 197.465741 127.368541 
L 199.940242 127.406336 
L 202.414743 127.56539 
L 204.889244 128.842941 
L 207.363745 129.389787 
L 209.838246 130.138601 
L 212.312747 131.168122 
L 217.26175 131.36812 
L 219.736251 132.301185 
L 222.210752 133.681884 
L 224.685253 133.911804 
L 227.159754 134.610618 
L 229.634255 137.873981 
L 232.108756 137.95902 
L 234.583257 139.272791 
L 237.057759 139.550348 
L 242.006761 140.588136 
L 244.481262 141.514508 
L 246.955763 141.611357 
L 249.430264 141.925922 
L 251.904765 143.117646 
L 254.379266 143.201898 
L 256.853767 143.942837 
L 264.277271 144.381811 
L 266.751772 145.838887 
L 269.226273 146.49282 
L 271.700774 148.822725 
L 274.175275 150.052244 
L 276.649776 150.293975 
L 279.124277 151.129402 
L 281.598778 151.129402 
L 284.07328 151.338062 
L 286.547781 152.074278 
L 289.022282 152.175065 
L 291.496783 152.827816 
L 293.971284 153.844738 
L 296.445785 154.180563 
L 301.394787 156.399445 
L 303.869288 157.689594 
L 306.34379 157.964395 
L 308.818291 159.564778 
L 311.292792 160.388394 
L 313.767293 161.910037 
L 318.716295 164.307659 
L 321.190796 165.118283 
L 326.139798 165.596626 
L 328.6143 167.849761 
L 336.037803 168.527315 
L 338.512304 168.969044 
L 340.986805 169.026918 
L 343.461306 169.733212 
L 348.410308 169.894235 
L 350.88481 170.650135 
L 353.359311 171.208399 
L 355.833812 172.307998 
L 358.308313 172.470989 
L 360.782814 172.480438 
L 363.257315 172.776499 
L 368.206317 172.977285 
L 370.680818 173.9009 
L 375.629821 173.964286 
L 378.104322 174.601289 
L 380.578823 174.808768 
L 383.053324 176.094586 
L 385.527825 176.347734 
L 388.002326 176.938675 
L 390.476827 177.048123 
L 392.951328 177.691819 
L 395.425829 177.748512 
L 397.900331 178.520947 
L 400.374832 179.493382 
L 402.849333 179.917395 
L 405.323834 180.036291 
L 407.798335 180.88353 
L 410.272836 184.877991 
L 415.221838 185.238618 
L 417.696339 187.603169 
L 420.170841 187.606712 
L 422.645342 188.434659 
L 425.119843 191.348419 
L 427.594344 191.670858 
L 430.068845 192.451167 
L 432.543346 192.829511 
L 435.017847 196.21374 
L 437.492348 196.653894 
L 439.966849 201.054652 
L 442.441351 201.872363 
L 444.915852 202.336139 
L 447.390353 203.550304 
L 452.339355 205.090451 
L 454.813856 205.912493 
L 457.288357 206.853037 
L 459.762858 211.303794 
L 462.237359 212.035285 
L 467.186362 212.514416 
L 469.660863 213.167561 
L 472.135364 214.437631 
L 474.609865 214.994714 
L 477.084366 216.426594 
L 479.558867 220.309245 
L 482.033368 222.173405 
L 484.507869 222.696236 
L 486.982371 224.371028 
L 489.456872 228.223364 
L 491.931373 230.232799 
L 494.405874 230.449333 
L 496.880375 232.549318 
L 499.354876 233.849309 
L 501.829377 235.862288 
L 504.303878 236.074885 
L 506.778379 237.052437 
L 511.727382 237.222515 
L 514.201883 238.745339 
L 516.676384 243.983492 
L 519.150885 247.667325 
L 521.625386 250.186206 
L 524.099887 251.113365 
L 526.574388 253.673977 
L 529.048889 256.595611 
L 531.52339 258.538117 
L 533.997892 259.947163 
L 536.472393 268.11876 
L 538.946894 268.373483 
L 541.421395 273.991948 
L 543.895896 276.496262 
L 546.370397 284.746206 
L 548.844898 285.531633 
L 551.319399 287.991853 
L 553.7939 289.575307 
L 556.268402 291.445766 
L 558.742903 292.312689 
L 561.217404 292.604813 
L 563.691905 295.502038 
L 566.166406 297.112263 
L 568.640907 298.104776 
L 573.589909 298.216586 
L 576.06441 299.256343 
L 578.538912 300.576412 
L 583.487914 301.399241 
L 585.962415 306.649206 
L 588.436916 308.008251 
L 590.911417 310.195244 
L 593.385918 313.807818 
L 595.860419 315.073557 
L 598.33492 315.601113 
L 600.809422 317.075906 
L 603.283923 318.975106 
L 605.758424 324.077433 
L 608.232925 325.372306 
L 610.707426 326.267969 
L 613.181927 332.883278 
L 615.656428 335.252553 
L 618.130929 336.010029 
L 620.60543 336.46475 
L 623.079931 338.297021 
L 625.554433 338.886781 
L 628.028934 340.407636 
L 630.503435 341.690698 
L 632.977936 342.060775 
L 637.926938 346.665468 
L 640.401439 348.087111 
L 642.87594 349.171356 
L 645.350441 351.797322 
L 647.824943 353.449279 
L 650.299444 355.394148 
L 652.773945 365.412583 
L 655.248446 366.361002 
L 657.722947 366.606276 
L 660.197448 368.027526 
L 662.671949 368.364532 
L 665.14645 368.393665 
L 667.620951 369.984206 
L 672.569954 370.407825 
L 675.044455 371.508998 
L 677.518956 371.512542 
L 679.993457 372.130648 
L 682.467958 373.521189 
L 684.942459 373.690086 
L 687.41696 374.268822 
L 689.891461 380.892399 
L 692.365963 382.754591 
L 694.840464 383.473877 
L 697.314965 385.035678 
L 699.789466 388.763605 
L 702.263967 389.834857 
L 704.738468 391.855316 
L 707.212969 397.020635 
L 709.68747 397.629292 
L 712.161971 400.226125 
L 714.636473 400.954073 
L 717.110974 402.506031 
L 719.585475 402.680439 
L 722.059976 404.361924 
L 724.534477 406.96663 
L 727.008978 407.314266 
L 729.483479 408.16426 
L 731.95798 411.722897 
L 734.432481 411.941793 
L 736.906982 412.296121 
L 739.381484 414.595318 
L 741.855985 415.742948 
L 744.330486 420.949212 
L 746.804987 421.172832 
L 749.279488 423.61691 
L 751.753989 424.57399 
L 754.22849 425.675951 
L 756.702991 426.318466 
L 759.177492 426.324372 
L 761.651994 427.464522 
L 769.075497 429.93104 
L 774.024499 431.951892 
L 776.499 433.369206 
L 778.973501 434.112508 
L 781.448002 437.744373 
L 783.922504 447.011238 
L 786.397005 455.142679 
L 788.871506 459.498555 
L 791.346007 460.48713 
L 793.820508 469.8662 
L 796.295009 470.863438 
L 796.295009 470.863438 
" clip-path="url(#pfa37fbb85c)" style="fill: none; stroke: #2ca02c; stroke-width: 2.5; stroke-linecap: round"/>
   </g>
   <g id="patch_3">
    <path d="M 50.6041 491.023438 
L 50.6041 47.503438 
" style="fill: none; stroke: #cccccc; stroke-linejoin: miter; stroke-linecap: square"/>
   </g>
   <g id="patch_4">
    <path d="M 831.8041 491.023438 
L 831.8041 47.503438 
" style="fill: none; stroke: #cccccc; stroke-linejoin: miter; stroke-linecap: square"/>
   </g>
   <g id="patch_5">
    <path d="M 50.6041 491.023438 
L 831.8041 491.023438 
" style="fill: none; stroke: #cccccc; stroke-linejoin: miter; stroke-linecap: square"/>
   </g>
   <g id="patch_6">
    <path d="M 50.6041 47.503438 
L 831.8041 47.503438 
" style="fill: none; stroke: #cccccc; stroke-linejoin: miter; stroke-linecap: square"/>
   </g>
   <g id="text_16">
    <!-- Residual Load Duration Curve (All Scenarios) -->
    <g style="fill: #262626" transform="translate(259.627694 27.503438) scale(0.18 -0.18)">
     <defs>
      <path id="ArialMT-44" d="M 494 0 
L 494 4581 
L 2072 4581 
Q 2606 4581 2888 4516 
Q 3281 4425 3559 4188 
Q 3922 3881 4101 3404 
Q 4281 2928 4281 2316 
Q 4281 1794 4159 1391 
Q 4038 988 3847 723 
Q 3656 459 3429 307 
Q 3203 156 2883 78 
Q 2563 0 2147 0 
L 494 0 
z
M 1100 541 
L 2078 541 
Q 2531 541 2789 625 
Q 3047 709 3200 863 
Q 3416 1078 3536 1442 
Q 3656 1806 3656 2325 
Q 3656 3044 3420 3430 
Q 3184 3816 2847 3947 
Q 2603 4041 2063 4041 
L 1100 4041 
L 1100 541 
z
" transform="scale(0.015625)"/>
      <path id="ArialMT-6e" d="M 422 0 
L 422 3319 
L 928 3319 
L 928 2847 
Q 1294 3394 1984 3394 
Q 2284 3394 2536 3286 
Q 2788 3178 2913 3003 
Q 3038 2828 3088 2588 
Q 3119 2431 3119 2041 
L 3119 0 
L 2556 0 
L 2556 2019 
Q 2556 2363 2490 2533 
Q 2425 2703 2258 2804 
Q 2091 2906 1866 2906 
Q 1506 2906 1245 2678 
Q 984 2450 984 1813 
L 984 0 
L 422 0 
z
" transform="scale(0.015625)"/>
      <path id="ArialMT-43" d="M 3763 1606 
L 4369 1453 
Q 4178 706 3683 314 
Q 3188 -78 2472 -78 
Q 1731 -78 1267 223 
Q 803 525 561 1097 
Q 319 1669 319 2325 
Q 319 3041 592 3573 
Q 866 4106 1370 4382 
Q 1875 4659 2481 4659 
Q 3169 4659 3637 4309 
Q 4106 3959 4291 3325 
L 3694 3184 
Q 3534 3684 3231 3912 
Q 2928 4141 2469 4141 
Q 1941 4141 1586 3887 
Q 1231 3634 1087 3207 
Q 944 2781 944 2328 
Q 944 1744 1114 1308 
Q 1284 872 1643 656 
Q 2003 441 2422 441 
Q 2931 441 3284 734 
Q 3638 1028 3763 1606 
z
" transform="scale(0.015625)"/>
      <path id="ArialMT-76" d="M 1344 0 
L 81 3319 
L 675 3319 
L 1388 1331 
Q 1503 1009 1600 663 
Q 1675 925 1809 1294 
L 2547 3319 
L 3125 3319 
L 1869 0 
L 1344 0 
z
" transform="scale(0.015625)"/>
      <path id="ArialMT-41" d="M -9 0 
L 1750 4581 
L 2403 4581 
L 4278 0 
L 3588 0 
L 3053 1388 
L 1138 1388 
L 634 0 
L -9 0 
z
M 1313 1881 
L 2866 1881 
L 2388 3150 
Q 2169 3728 2063 4100 
Q 1975 3659 1816 3225 
L 1313 1881 
z
" transform="scale(0.015625)"/>
      <path id="ArialMT-53" d="M 288 1472 
L 859 1522 
Q 900 1178 1048 958 
Q 1197 738 1509 602 
Q 1822 466 2213 466 
Q 2559 466 2825 569 
Q 3091 672 3220 851 
Q 3350 1031 3350 1244 
Q 3350 1459 3225 1620 
Q 3100 1781 2813 1891 
Q 2628 1963 1997 2114 
Q 1366 2266 1113 2400 
Q 784 2572 623 2826 
Q 463 3081 463 3397 
Q 463 3744 659 4045 
Q 856 4347 1234 4503 
Q 1613 4659 2075 4659 
Q 2584 4659 2973 4495 
Q 3363 4331 3572 4012 
Q 3781 3694 3797 3291 
L 3216 3247 
Q 3169 3681 2898 3903 
Q 2628 4125 2100 4125 
Q 1550 4125 1298 3923 
Q 1047 3722 1047 3438 
Q 1047 3191 1225 3031 
Q 1400 2872 2139 2705 
Q 2878 2538 3153 2413 
Q 3553 2228 3743 1945 
Q 3934 1663 3934 1294 
Q 3934 928 3725 604 
Q 3516 281 3123 101 
Q 2731 -78 2241 -78 
Q 1619 -78 1198 103 
Q 778 284 539 648 
Q 300 1013 288 1472 
z
" transform="scale(0.015625)"/>
      <path id="ArialMT-63" d="M 2588 1216 
L 3141 1144 
Q 3050 572 2676 248 
Q 2303 -75 1759 -75 
Q 1078 -75 664 370 
Q 250 816 250 1647 
Q 250 2184 428 2587 
Q 606 2991 970 3192 
Q 1334 3394 1763 3394 
Q 2303 3394 2647 3120 
Q 2991 2847 3088 2344 
L 2541 2259 
Q 2463 2594 2264 2762 
Q 2066 2931 1784 2931 
Q 1359 2931 1093 2626 
Q 828 2322 828 1663 
Q 828 994 1084 691 
Q 1341 388 1753 388 
Q 2084 388 2306 591 
Q 2528 794 2588 1216 
z
" transform="scale(0.015625)"/>
     </defs>
     <use xlink:href="#ArialMT-52"/>
     <use xlink:href="#ArialMT-65" transform="translate(72.216797 0)"/>
     <use xlink:href="#ArialMT-73" transform="translate(127.832031 0)"/>
     <use xlink:href="#ArialMT-69" transform="translate(177.832031 0)"/>
     <use xlink:href="#ArialMT-64" transform="translate(200.048828 0)"/>
     <use xlink:href="#ArialMT-75" transform="translate(255.664062 0)"/>
     <use xlink:href="#ArialMT-61" transform="translate(311.279297 0)"/>
     <use xlink:href="#ArialMT-6c" transform="translate(366.894531 0)"/>
     <use xlink:href="#ArialMT-20" transform="translate(389.111328 0)"/>
     <use xlink:href="#ArialMT-4c" transform="translate(416.894531 0)"/>
     <use xlink:href="#ArialMT-6f" transform="translate(472.509766 0)"/>
     <use xlink:href="#ArialMT-61" transform="translate(528.125 0)"/>
     <use xlink:href="#ArialMT-64" transform="translate(583.740234 0)"/>
     <use xlink:href="#ArialMT-20" transform="translate(639.355469 0)"/>
     <use xlink:href="#ArialMT-44" transform="translate(667.138672 0)"/>
     <use xlink:href="#ArialMT-75" transform="translate(739.355469 0)"/>
     <use xlink:href="#ArialMT-72" transform="translate(794.970703 0)"/>
     <use xlink:href="#ArialMT-61" transform="translate(828.271484 0)"/>
     <use xlink:href="#ArialMT-74" transform="translate(883.886719 0)"/>
     <use xlink:href="#ArialMT-69" transform="translate(911.669922 0)"/>
     <use xlink:href="#ArialMT-6f" transform="translate(933.886719 0)"/>
     <use xlink:href="#ArialMT-6e" transform="translate(989.501953 0)"/>
     <use xlink:href="#ArialMT-20" transform="translate(1045.117188 0)"/>
     <use xlink:href="#ArialMT-43" transform="translate(1072.900391 0)"/>
     <use xlink:href="#ArialMT-75" transform="translate(1145.117188 0)"/>
     <use xlink:href="#ArialMT-72" transform="translate(1200.732422 0)"/>
     <use xlink:href="#ArialMT-76" transform="translate(1234.033203 0)"/>
     <use xlink:href="#ArialMT-65" transform="translate(1284.033203 0)"/>
     <use xlink:href="#ArialMT-20" transform="translate(1339.648438 0)"/>
     <use xlink:href="#ArialMT-28" transform="translate(1367.431641 0)"/>
     <use xlink:href="#ArialMT-41" transform="translate(1400.732422 0)"/>
     <use xlink:href="#ArialMT-6c" transform="translate(1467.431641 0)"/>
     <use xlink:href="#ArialMT-6c" transform="translate(1489.648438 0)"/>
     <use xlink:href="#ArialMT-20" transform="translate(1511.865234 0)"/>
     <use xlink:href="#ArialMT-53" transform="translate(1539.648438 0)"/>
     <use xlink:href="#ArialMT-63" transform="translate(1606.347656 0)"/>
     <use xlink:href="#ArialMT-65" transform="translate(1656.347656 0)"/>
     <use xlink:href="#ArialMT-6e" transform="translate(1711.962891 0)"/>
     <use xlink:href="#ArialMT-61" transform="translate(1767.578125 0)"/>
     <use xlink:href="#ArialMT-72" transform="translate(1823.193359 0)"/>
     <use xlink:href="#ArialMT-69" transform="translate(1856.494141 0)"/>
     <use xlink:href="#ArialMT-6f" transform="translate(1878.710938 0)"/>
     <use xlink:href="#ArialMT-73" transform="translate(1934.326172 0)"/>
     <use xlink:href="#ArialMT-29" transform="translate(1984.326172 0)"/>
    </g>
   </g>
   <g id="legend_1">
    <g id="line2d_30">
     <path d="M 881.6641 62.692812 
L 893.6641 62.692812 
L 905.6641 62.692812 
" style="fill: none; stroke: #1f77b4; stroke-width: 2.5; stroke-linecap: round"/>
    </g>
    <g id="text_17">
     <!-- 3.EOM El.+ CVAR -->
     <g style="fill: #262626" transform="translate(915.2641 66.892812) scale(0.12 -0.12)">
      <defs>
       <path id="ArialMT-2e" d="M 581 0 
L 581 641 
L 1222 641 
L 1222 0 
L 581 0 
z
" transform="scale(0.015625)"/>
       <path id="ArialMT-45" d="M 506 0 
L 506 4581 
L 3819 4581 
L 3819 4041 
L 1113 4041 
L 1113 2638 
L 3647 2638 
L 3647 2100 
L 1113 2100 
L 1113 541 
L 3925 541 
L 3925 0 
L 506 0 
z
" transform="scale(0.015625)"/>
       <path id="ArialMT-4f" d="M 309 2231 
Q 309 3372 921 4017 
Q 1534 4663 2503 4663 
Q 3138 4663 3647 4359 
Q 4156 4056 4423 3514 
Q 4691 2972 4691 2284 
Q 4691 1588 4409 1038 
Q 4128 488 3612 205 
Q 3097 -78 2500 -78 
Q 1853 -78 1343 234 
Q 834 547 571 1087 
Q 309 1628 309 2231 
z
M 934 2222 
Q 934 1394 1379 917 
Q 1825 441 2497 441 
Q 3181 441 3623 922 
Q 4066 1403 4066 2288 
Q 4066 2847 3877 3264 
Q 3688 3681 3323 3911 
Q 2959 4141 2506 4141 
Q 1863 4141 1398 3698 
Q 934 3256 934 2222 
z
" transform="scale(0.015625)"/>
       <path id="ArialMT-4d" d="M 475 0 
L 475 4581 
L 1388 4581 
L 2472 1338 
Q 2622 884 2691 659 
Q 2769 909 2934 1394 
L 4031 4581 
L 4847 4581 
L 4847 0 
L 4263 0 
L 4263 3834 
L 2931 0 
L 2384 0 
L 1059 3900 
L 1059 0 
L 475 0 
z
" transform="scale(0.015625)"/>
       <path id="ArialMT-2b" d="M 1603 741 
L 1603 1997 
L 356 1997 
L 356 2522 
L 1603 2522 
L 1603 3769 
L 2134 3769 
L 2134 2522 
L 3381 2522 
L 3381 1997 
L 2134 1997 
L 2134 741 
L 1603 741 
z
" transform="scale(0.015625)"/>
       <path id="ArialMT-56" d="M 1803 0 
L 28 4581 
L 684 4581 
L 1875 1253 
Q 2019 853 2116 503 
Q 2222 878 2363 1253 
L 3600 4581 
L 4219 4581 
L 2425 0 
L 1803 0 
z
" transform="scale(0.015625)"/>
      </defs>
      <use xlink:href="#ArialMT-33"/>
      <use xlink:href="#ArialMT-2e" transform="translate(55.615234 0)"/>
      <use xlink:href="#ArialMT-45" transform="translate(83.398438 0)"/>
      <use xlink:href="#ArialMT-4f" transform="translate(150.097656 0)"/>
      <use xlink:href="#ArialMT-4d" transform="translate(227.880859 0)"/>
      <use xlink:href="#ArialMT-20" transform="translate(311.181641 0)"/>
      <use xlink:href="#ArialMT-45" transform="translate(338.964844 0)"/>
      <use xlink:href="#ArialMT-6c" transform="translate(405.664062 0)"/>
      <use xlink:href="#ArialMT-2e" transform="translate(427.880859 0)"/>
      <use xlink:href="#ArialMT-2b" transform="translate(455.664062 0)"/>
      <use xlink:href="#ArialMT-20" transform="translate(514.0625 0)"/>
      <use xlink:href="#ArialMT-43" transform="translate(541.845703 0)"/>
      <use xlink:href="#ArialMT-56" transform="translate(614.0625 0)"/>
      <use xlink:href="#ArialMT-41" transform="translate(673.386719 0)"/>
      <use xlink:href="#ArialMT-52" transform="translate(740.085938 0)"/>
     </g>
    </g>
    <g id="line2d_31">
     <path d="M 881.6641 79.667187 
L 893.6641 79.667187 
L 905.6641 79.667187 
" style="fill: none; stroke: #ff7f0e; stroke-width: 2.5; stroke-linecap: round"/>
    </g>
    <g id="text_18">
     <!-- 5.EOM El.+ CM+ CVAR -->
     <g style="fill: #262626" transform="translate(915.2641 83.867188) scale(0.12 -0.12)">
      <use xlink:href="#ArialMT-35"/>
      <use xlink:href="#ArialMT-2e" transform="translate(55.615234 0)"/>
      <use xlink:href="#ArialMT-45" transform="translate(83.398438 0)"/>
      <use xlink:href="#ArialMT-4f" transform="translate(150.097656 0)"/>
      <use xlink:href="#ArialMT-4d" transform="translate(227.880859 0)"/>
      <use xlink:href="#ArialMT-20" transform="translate(311.181641 0)"/>
      <use xlink:href="#ArialMT-45" transform="translate(338.964844 0)"/>
      <use xlink:href="#ArialMT-6c" transform="translate(405.664062 0)"/>
      <use xlink:href="#ArialMT-2e" transform="translate(427.880859 0)"/>
      <use xlink:href="#ArialMT-2b" transform="translate(455.664062 0)"/>
      <use xlink:href="#ArialMT-20" transform="translate(514.0625 0)"/>
      <use xlink:href="#ArialMT-43" transform="translate(541.845703 0)"/>
      <use xlink:href="#ArialMT-4d" transform="translate(614.0625 0)"/>
      <use xlink:href="#ArialMT-2b" transform="translate(697.363281 0)"/>
      <use xlink:href="#ArialMT-20" transform="translate(755.761719 0)"/>
      <use xlink:href="#ArialMT-43" transform="translate(783.544922 0)"/>
      <use xlink:href="#ArialMT-56" transform="translate(855.761719 0)"/>
      <use xlink:href="#ArialMT-41" transform="translate(915.085938 0)"/>
      <use xlink:href="#ArialMT-52" transform="translate(981.785156 0)"/>
     </g>
    </g>
    <g id="line2d_32">
     <path d="M 881.6641 96.641563 
L 893.6641 96.641563 
L 905.6641 96.641563 
" style="fill: none; stroke: #2ca02c; stroke-width: 2.5; stroke-linecap: round"/>
    </g>
    <g id="text_19">
     <!-- 7.EOM El.+ RO+ CVAR -->
     <g style="fill: #262626" transform="translate(915.2641 100.841563) scale(0.12 -0.12)">
      <defs>
       <path id="ArialMT-37" d="M 303 3981 
L 303 4522 
L 3269 4522 
L 3269 4084 
Q 2831 3619 2401 2847 
Q 1972 2075 1738 1259 
Q 1569 684 1522 0 
L 944 0 
Q 953 541 1156 1306 
Q 1359 2072 1739 2783 
Q 2119 3494 2547 3981 
L 303 3981 
z
" transform="scale(0.015625)"/>
      </defs>
      <use xlink:href="#ArialMT-37"/>
      <use xlink:href="#ArialMT-2e" transform="translate(55.615234 0)"/>
      <use xlink:href="#ArialMT-45" transform="translate(83.398438 0)"/>
      <use xlink:href="#ArialMT-4f" transform="translate(150.097656 0)"/>
      <use xlink:href="#ArialMT-4d" transform="translate(227.880859 0)"/>
      <use xlink:href="#ArialMT-20" transform="translate(311.181641 0)"/>
      <use xlink:href="#ArialMT-45" transform="translate(338.964844 0)"/>
      <use xlink:href="#ArialMT-6c" transform="translate(405.664062 0)"/>
      <use xlink:href="#ArialMT-2e" transform="translate(427.880859 0)"/>
      <use xlink:href="#ArialMT-2b" transform="translate(455.664062 0)"/>
      <use xlink:href="#ArialMT-20" transform="translate(514.0625 0)"/>
      <use xlink:href="#ArialMT-52" transform="translate(541.845703 0)"/>
      <use xlink:href="#ArialMT-4f" transform="translate(614.0625 0)"/>
      <use xlink:href="#ArialMT-2b" transform="translate(691.845703 0)"/>
      <use xlink:href="#ArialMT-20" transform="translate(750.244141 0)"/>
      <use xlink:href="#ArialMT-43" transform="translate(778.027344 0)"/>
      <use xlink:href="#ArialMT-56" transform="translate(850.244141 0)"/>
      <use xlink:href="#ArialMT-41" transform="translate(909.568359 0)"/>
      <use xlink:href="#ArialMT-52" transform="translate(976.267578 0)"/>
     </g>
    </g>
   </g>
  </g>
 </g>
 <defs>
  <clipPath id="pfa37fbb85c">
   <rect x="50.6041" y="47.503438" width="781.2" height="443.52"/>
  </clipPath>
 </defs>
</svg>
