<?xml version="1.0" encoding="utf-8" standalone="no"?>
<!DOCTYPE svg PUBLIC "-//W3C//DTD SVG 1.1//EN"
  "http://www.w3.org/Graphics/SVG/1.1/DTD/svg11.dtd">
<svg xmlns:xlink="http://www.w3.org/1999/xlink" width="1008pt" height="576pt" viewBox="0 0 1008 576" xmlns="http://www.w3.org/2000/svg" version="1.1">
 <metadata>
  <rdf:RDF xmlns:dc="http://purl.org/dc/elements/1.1/" xmlns:cc="http://creativecommons.org/ns#" xmlns:rdf="http://www.w3.org/1999/02/22-rdf-syntax-ns#">
   <cc:Work>
    <dc:type rdf:resource="http://purl.org/dc/dcmitype/StillImage"/>
    <dc:date>2025-11-30T21:17:24.482731</dc:date>
    <dc:format>image/svg+xml</dc:format>
    <dc:creator>
     <cc:Agent>
      <dc:title>Matplotlib v3.10.3, https://matplotlib.org/</dc:title>
     </cc:Agent>
    </dc:creator>
   </cc:Work>
  </rdf:RDF>
 </metadata>
 <defs>
  <style type="text/css">*{stroke-linejoin: round; stroke-linecap: butt}</style>
 </defs>
 <g id="figure_1">
  <g id="patch_1">
   <path d="M 0 576 
L 1008 576 
L 1008 0 
L 0 0 
z
" style="fill: #ffffff"/>
  </g>
  <g id="axes_1">
   <g id="patch_2">
    <path d="M 44.4048 533.5752 
L 991.970776 533.5752 
L 991.970776 25.3248 
L 44.4048 25.3248 
z
" style="fill: #ffffff"/>
   </g>
   <g id="matplotlib.axis_1">
    <g id="xtick_1">
     <g id="line2d_1">
      <path d="M 87.475981 533.5752 
L 87.475981 25.3248 
" clip-path="url(#pd1990d73f5)" style="fill: none; stroke: #cccccc; stroke-width: 0.8; stroke-linecap: round"/>
     </g>
     <g id="line2d_2">
      <defs>
       <path id="m23d1ebb008" d="M 0 0 
L 0 4.8 
" style="stroke: #262626"/>
      </defs>
      <g>
       <use xlink:href="#m23d1ebb008" x="87.475981" y="533.5752" style="fill: #262626; stroke: #262626"/>
      </g>
     </g>
     <g id="text_1">
      <!-- 0 -->
      <g style="fill: #262626" transform="translate(84.784487 548.803963) scale(0.0968 -0.0968)">
       <defs>
        <path id="ArialMT-30" d="M 266 2259 
Q 266 3072 433 3567 
Q 600 4063 929 4331 
Q 1259 4600 1759 4600 
Q 2128 4600 2406 4451 
Q 2684 4303 2865 4023 
Q 3047 3744 3150 3342 
Q 3253 2941 3253 2259 
Q 3253 1453 3087 958 
Q 2922 463 2592 192 
Q 2263 -78 1759 -78 
Q 1097 -78 719 397 
Q 266 969 266 2259 
z
M 844 2259 
Q 844 1131 1108 757 
Q 1372 384 1759 384 
Q 2147 384 2411 759 
Q 2675 1134 2675 2259 
Q 2675 3391 2411 3762 
Q 2147 4134 1753 4134 
Q 1366 4134 1134 3806 
Q 844 3388 844 2259 
z
" transform="scale(0.015625)"/>
       </defs>
       <use xlink:href="#ArialMT-30"/>
      </g>
     </g>
    </g>
    <g id="xtick_2">
     <g id="line2d_3">
      <path d="M 237.549781 533.5752 
L 237.549781 25.3248 
" clip-path="url(#pd1990d73f5)" style="fill: none; stroke: #cccccc; stroke-width: 0.8; stroke-linecap: round"/>
     </g>
     <g id="line2d_4">
      <g>
       <use xlink:href="#m23d1ebb008" x="237.549781" y="533.5752" style="fill: #262626; stroke: #262626"/>
      </g>
     </g>
     <g id="text_2">
      <!-- 50 -->
      <g style="fill: #262626" transform="translate(232.166794 548.803963) scale(0.0968 -0.0968)">
       <defs>
        <path id="ArialMT-35" d="M 266 1200 
L 856 1250 
Q 922 819 1161 601 
Q 1400 384 1738 384 
Q 2144 384 2425 690 
Q 2706 997 2706 1503 
Q 2706 1984 2436 2262 
Q 2166 2541 1728 2541 
Q 1456 2541 1237 2417 
Q 1019 2294 894 2097 
L 366 2166 
L 809 4519 
L 3088 4519 
L 3088 3981 
L 1259 3981 
L 1013 2750 
Q 1425 3038 1878 3038 
Q 2478 3038 2890 2622 
Q 3303 2206 3303 1553 
Q 3303 931 2941 478 
Q 2500 -78 1738 -78 
Q 1113 -78 717 272 
Q 322 622 266 1200 
z
" transform="scale(0.015625)"/>
       </defs>
       <use xlink:href="#ArialMT-35"/>
       <use xlink:href="#ArialMT-30" transform="translate(55.615234 0)"/>
      </g>
     </g>
    </g>
    <g id="xtick_3">
     <g id="line2d_5">
      <path d="M 387.623582 533.5752 
L 387.623582 25.3248 
" clip-path="url(#pd1990d73f5)" style="fill: none; stroke: #cccccc; stroke-width: 0.8; stroke-linecap: round"/>
     </g>
     <g id="line2d_6">
      <g>
       <use xlink:href="#m23d1ebb008" x="387.623582" y="533.5752" style="fill: #262626; stroke: #262626"/>
      </g>
     </g>
     <g id="text_3">
      <!-- 100 -->
      <g style="fill: #262626" transform="translate(379.549101 548.803963) scale(0.0968 -0.0968)">
       <defs>
        <path id="ArialMT-31" d="M 2384 0 
L 1822 0 
L 1822 3584 
Q 1619 3391 1289 3197 
Q 959 3003 697 2906 
L 697 3450 
Q 1169 3672 1522 3987 
Q 1875 4303 2022 4600 
L 2384 4600 
L 2384 0 
z
" transform="scale(0.015625)"/>
       </defs>
       <use xlink:href="#ArialMT-31"/>
       <use xlink:href="#ArialMT-30" transform="translate(55.615234 0)"/>
       <use xlink:href="#ArialMT-30" transform="translate(111.230469 0)"/>
      </g>
     </g>
    </g>
    <g id="xtick_4">
     <g id="line2d_7">
      <path d="M 537.697382 533.5752 
L 537.697382 25.3248 
" clip-path="url(#pd1990d73f5)" style="fill: none; stroke: #cccccc; stroke-width: 0.8; stroke-linecap: round"/>
     </g>
     <g id="line2d_8">
      <g>
       <use xlink:href="#m23d1ebb008" x="537.697382" y="533.5752" style="fill: #262626; stroke: #262626"/>
      </g>
     </g>
     <g id="text_4">
      <!-- 150 -->
      <g style="fill: #262626" transform="translate(529.622901 548.803963) scale(0.0968 -0.0968)">
       <use xlink:href="#ArialMT-31"/>
       <use xlink:href="#ArialMT-35" transform="translate(55.615234 0)"/>
       <use xlink:href="#ArialMT-30" transform="translate(111.230469 0)"/>
      </g>
     </g>
    </g>
    <g id="xtick_5">
     <g id="line2d_9">
      <path d="M 687.771183 533.5752 
L 687.771183 25.3248 
" clip-path="url(#pd1990d73f5)" style="fill: none; stroke: #cccccc; stroke-width: 0.8; stroke-linecap: round"/>
     </g>
     <g id="line2d_10">
      <g>
       <use xlink:href="#m23d1ebb008" x="687.771183" y="533.5752" style="fill: #262626; stroke: #262626"/>
      </g>
     </g>
     <g id="text_5">
      <!-- 200 -->
      <g style="fill: #262626" transform="translate(679.696702 548.803963) scale(0.0968 -0.0968)">
       <defs>
        <path id="ArialMT-32" d="M 3222 541 
L 3222 0 
L 194 0 
Q 188 203 259 391 
Q 375 700 629 1000 
Q 884 1300 1366 1694 
Q 2113 2306 2375 2664 
Q 2638 3022 2638 3341 
Q 2638 3675 2398 3904 
Q 2159 4134 1775 4134 
Q 1369 4134 1125 3890 
Q 881 3647 878 3216 
L 300 3275 
Q 359 3922 746 4261 
Q 1134 4600 1788 4600 
Q 2447 4600 2831 4234 
Q 3216 3869 3216 3328 
Q 3216 3053 3103 2787 
Q 2991 2522 2730 2228 
Q 2469 1934 1863 1422 
Q 1356 997 1212 845 
Q 1069 694 975 541 
L 3222 541 
z
" transform="scale(0.015625)"/>
       </defs>
       <use xlink:href="#ArialMT-32"/>
       <use xlink:href="#ArialMT-30" transform="translate(55.615234 0)"/>
       <use xlink:href="#ArialMT-30" transform="translate(111.230469 0)"/>
      </g>
     </g>
    </g>
    <g id="xtick_6">
     <g id="line2d_11">
      <path d="M 837.844983 533.5752 
L 837.844983 25.3248 
" clip-path="url(#pd1990d73f5)" style="fill: none; stroke: #cccccc; stroke-width: 0.8; stroke-linecap: round"/>
     </g>
     <g id="line2d_12">
      <g>
       <use xlink:href="#m23d1ebb008" x="837.844983" y="533.5752" style="fill: #262626; stroke: #262626"/>
      </g>
     </g>
     <g id="text_6">
      <!-- 250 -->
      <g style="fill: #262626" transform="translate(829.770502 548.803963) scale(0.0968 -0.0968)">
       <use xlink:href="#ArialMT-32"/>
       <use xlink:href="#ArialMT-35" transform="translate(55.615234 0)"/>
       <use xlink:href="#ArialMT-30" transform="translate(111.230469 0)"/>
      </g>
     </g>
    </g>
    <g id="xtick_7">
     <g id="line2d_13">
      <path d="M 987.918784 533.5752 
L 987.918784 25.3248 
" clip-path="url(#pd1990d73f5)" style="fill: none; stroke: #cccccc; stroke-width: 0.8; stroke-linecap: round"/>
     </g>
     <g id="line2d_14">
      <g>
       <use xlink:href="#m23d1ebb008" x="987.918784" y="533.5752" style="fill: #262626; stroke: #262626"/>
      </g>
     </g>
     <g id="text_7">
      <!-- 300 -->
      <g style="fill: #262626" transform="translate(979.844303 548.803963) scale(0.0968 -0.0968)">
       <defs>
        <path id="ArialMT-33" d="M 269 1209 
L 831 1284 
Q 928 806 1161 595 
Q 1394 384 1728 384 
Q 2125 384 2398 659 
Q 2672 934 2672 1341 
Q 2672 1728 2419 1979 
Q 2166 2231 1775 2231 
Q 1616 2231 1378 2169 
L 1441 2663 
Q 1497 2656 1531 2656 
Q 1891 2656 2178 2843 
Q 2466 3031 2466 3422 
Q 2466 3731 2256 3934 
Q 2047 4138 1716 4138 
Q 1388 4138 1169 3931 
Q 950 3725 888 3313 
L 325 3413 
Q 428 3978 793 4289 
Q 1159 4600 1703 4600 
Q 2078 4600 2393 4439 
Q 2709 4278 2876 4000 
Q 3044 3722 3044 3409 
Q 3044 3113 2884 2869 
Q 2725 2625 2413 2481 
Q 2819 2388 3044 2092 
Q 3269 1797 3269 1353 
Q 3269 753 2831 336 
Q 2394 -81 1725 -81 
Q 1122 -81 723 278 
Q 325 638 269 1209 
z
" transform="scale(0.015625)"/>
       </defs>
       <use xlink:href="#ArialMT-33"/>
       <use xlink:href="#ArialMT-30" transform="translate(55.615234 0)"/>
       <use xlink:href="#ArialMT-30" transform="translate(111.230469 0)"/>
      </g>
     </g>
    </g>
    <g id="text_8">
     <!-- Hour (sorted) -->
     <g style="fill: #262626" transform="translate(487.087763 562.415213) scale(0.1056 -0.1056)">
      <defs>
       <path id="ArialMT-48" d="M 513 0 
L 513 4581 
L 1119 4581 
L 1119 2700 
L 3500 2700 
L 3500 4581 
L 4106 4581 
L 4106 0 
L 3500 0 
L 3500 2159 
L 1119 2159 
L 1119 0 
L 513 0 
z
" transform="scale(0.015625)"/>
       <path id="ArialMT-6f" d="M 213 1659 
Q 213 2581 725 3025 
Q 1153 3394 1769 3394 
Q 2453 3394 2887 2945 
Q 3322 2497 3322 1706 
Q 3322 1066 3130 698 
Q 2938 331 2570 128 
Q 2203 -75 1769 -75 
Q 1072 -75 642 372 
Q 213 819 213 1659 
z
M 791 1659 
Q 791 1022 1069 705 
Q 1347 388 1769 388 
Q 2188 388 2466 706 
Q 2744 1025 2744 1678 
Q 2744 2294 2464 2611 
Q 2184 2928 1769 2928 
Q 1347 2928 1069 2612 
Q 791 2297 791 1659 
z
" transform="scale(0.015625)"/>
       <path id="ArialMT-75" d="M 2597 0 
L 2597 488 
Q 2209 -75 1544 -75 
Q 1250 -75 995 37 
Q 741 150 617 320 
Q 494 491 444 738 
Q 409 903 409 1263 
L 409 3319 
L 972 3319 
L 972 1478 
Q 972 1038 1006 884 
Q 1059 663 1231 536 
Q 1403 409 1656 409 
Q 1909 409 2131 539 
Q 2353 669 2445 892 
Q 2538 1116 2538 1541 
L 2538 3319 
L 3100 3319 
L 3100 0 
L 2597 0 
z
" transform="scale(0.015625)"/>
       <path id="ArialMT-72" d="M 416 0 
L 416 3319 
L 922 3319 
L 922 2816 
Q 1116 3169 1280 3281 
Q 1444 3394 1641 3394 
Q 1925 3394 2219 3213 
L 2025 2691 
Q 1819 2813 1613 2813 
Q 1428 2813 1281 2702 
Q 1134 2591 1072 2394 
Q 978 2094 978 1738 
L 978 0 
L 416 0 
z
" transform="scale(0.015625)"/>
       <path id="ArialMT-20" transform="scale(0.015625)"/>
       <path id="ArialMT-28" d="M 1497 -1347 
Q 1031 -759 709 28 
Q 388 816 388 1659 
Q 388 2403 628 3084 
Q 909 3875 1497 4659 
L 1900 4659 
Q 1522 4009 1400 3731 
Q 1209 3300 1100 2831 
Q 966 2247 966 1656 
Q 966 153 1900 -1347 
L 1497 -1347 
z
" transform="scale(0.015625)"/>
       <path id="ArialMT-73" d="M 197 991 
L 753 1078 
Q 800 744 1014 566 
Q 1228 388 1613 388 
Q 2000 388 2187 545 
Q 2375 703 2375 916 
Q 2375 1106 2209 1216 
Q 2094 1291 1634 1406 
Q 1016 1563 777 1677 
Q 538 1791 414 1992 
Q 291 2194 291 2438 
Q 291 2659 392 2848 
Q 494 3038 669 3163 
Q 800 3259 1026 3326 
Q 1253 3394 1513 3394 
Q 1903 3394 2198 3281 
Q 2494 3169 2634 2976 
Q 2775 2784 2828 2463 
L 2278 2388 
Q 2241 2644 2061 2787 
Q 1881 2931 1553 2931 
Q 1166 2931 1000 2803 
Q 834 2675 834 2503 
Q 834 2394 903 2306 
Q 972 2216 1119 2156 
Q 1203 2125 1616 2013 
Q 2213 1853 2448 1751 
Q 2684 1650 2818 1456 
Q 2953 1263 2953 975 
Q 2953 694 2789 445 
Q 2625 197 2315 61 
Q 2006 -75 1616 -75 
Q 969 -75 630 194 
Q 291 463 197 991 
z
" transform="scale(0.015625)"/>
       <path id="ArialMT-74" d="M 1650 503 
L 1731 6 
Q 1494 -44 1306 -44 
Q 1000 -44 831 53 
Q 663 150 594 308 
Q 525 466 525 972 
L 525 2881 
L 113 2881 
L 113 3319 
L 525 3319 
L 525 4141 
L 1084 4478 
L 1084 3319 
L 1650 3319 
L 1650 2881 
L 1084 2881 
L 1084 941 
Q 1084 700 1114 631 
Q 1144 563 1211 522 
Q 1278 481 1403 481 
Q 1497 481 1650 503 
z
" transform="scale(0.015625)"/>
       <path id="ArialMT-65" d="M 2694 1069 
L 3275 997 
Q 3138 488 2766 206 
Q 2394 -75 1816 -75 
Q 1088 -75 661 373 
Q 234 822 234 1631 
Q 234 2469 665 2931 
Q 1097 3394 1784 3394 
Q 2450 3394 2872 2941 
Q 3294 2488 3294 1666 
Q 3294 1616 3291 1516 
L 816 1516 
Q 847 969 1125 678 
Q 1403 388 1819 388 
Q 2128 388 2347 550 
Q 2566 713 2694 1069 
z
M 847 1978 
L 2700 1978 
Q 2663 2397 2488 2606 
Q 2219 2931 1791 2931 
Q 1403 2931 1139 2672 
Q 875 2413 847 1978 
z
" transform="scale(0.015625)"/>
       <path id="ArialMT-64" d="M 2575 0 
L 2575 419 
Q 2259 -75 1647 -75 
Q 1250 -75 917 144 
Q 584 363 401 755 
Q 219 1147 219 1656 
Q 219 2153 384 2558 
Q 550 2963 881 3178 
Q 1213 3394 1622 3394 
Q 1922 3394 2156 3267 
Q 2391 3141 2538 2938 
L 2538 4581 
L 3097 4581 
L 3097 0 
L 2575 0 
z
M 797 1656 
Q 797 1019 1065 703 
Q 1334 388 1700 388 
Q 2069 388 2326 689 
Q 2584 991 2584 1609 
Q 2584 2291 2321 2609 
Q 2059 2928 1675 2928 
Q 1300 2928 1048 2622 
Q 797 2316 797 1656 
z
" transform="scale(0.015625)"/>
       <path id="ArialMT-29" d="M 791 -1347 
L 388 -1347 
Q 1322 153 1322 1656 
Q 1322 2244 1188 2822 
Q 1081 3291 891 3722 
Q 769 4003 388 4659 
L 791 4659 
Q 1378 3875 1659 3084 
Q 1900 2403 1900 1659 
Q 1900 816 1576 28 
Q 1253 -759 791 -1347 
z
" transform="scale(0.015625)"/>
      </defs>
      <use xlink:href="#ArialMT-48"/>
      <use xlink:href="#ArialMT-6f" transform="translate(72.216797 0)"/>
      <use xlink:href="#ArialMT-75" transform="translate(127.832031 0)"/>
      <use xlink:href="#ArialMT-72" transform="translate(183.447266 0)"/>
      <use xlink:href="#ArialMT-20" transform="translate(216.748047 0)"/>
      <use xlink:href="#ArialMT-28" transform="translate(244.53125 0)"/>
      <use xlink:href="#ArialMT-73" transform="translate(277.832031 0)"/>
      <use xlink:href="#ArialMT-6f" transform="translate(327.832031 0)"/>
      <use xlink:href="#ArialMT-72" transform="translate(383.447266 0)"/>
      <use xlink:href="#ArialMT-74" transform="translate(416.748047 0)"/>
      <use xlink:href="#ArialMT-65" transform="translate(444.53125 0)"/>
      <use xlink:href="#ArialMT-64" transform="translate(500.146484 0)"/>
      <use xlink:href="#ArialMT-29" transform="translate(555.761719 0)"/>
     </g>
    </g>
   </g>
   <g id="matplotlib.axis_2">
    <g id="ytick_1">
     <g id="line2d_15">
      <path d="M 44.4048 525.56493 
L 991.970776 525.56493 
" clip-path="url(#pd1990d73f5)" style="fill: none; stroke: #cccccc; stroke-width: 0.8; stroke-linecap: round"/>
     </g>
     <g id="line2d_16">
      <defs>
       <path id="m914114d12e" d="M 0 0 
L -4.8 0 
" style="stroke: #262626"/>
      </defs>
      <g>
       <use xlink:href="#m914114d12e" x="44.4048" y="525.56493" style="fill: #262626; stroke: #262626"/>
      </g>
     </g>
     <g id="text_9">
      <!-- 4 -->
      <g style="fill: #262626" transform="translate(30.721812 529.029312) scale(0.0968 -0.0968)">
       <defs>
        <path id="ArialMT-34" d="M 2069 0 
L 2069 1097 
L 81 1097 
L 81 1613 
L 2172 4581 
L 2631 4581 
L 2631 1613 
L 3250 1613 
L 3250 1097 
L 2631 1097 
L 2631 0 
L 2069 0 
z
M 2069 1613 
L 2069 3678 
L 634 1613 
L 2069 1613 
z
" transform="scale(0.015625)"/>
       </defs>
       <use xlink:href="#ArialMT-34"/>
      </g>
     </g>
    </g>
    <g id="ytick_2">
     <g id="line2d_17">
      <path d="M 44.4048 424.39163 
L 991.970776 424.39163 
" clip-path="url(#pd1990d73f5)" style="fill: none; stroke: #cccccc; stroke-width: 0.8; stroke-linecap: round"/>
     </g>
     <g id="line2d_18">
      <g>
       <use xlink:href="#m914114d12e" x="44.4048" y="424.39163" style="fill: #262626; stroke: #262626"/>
      </g>
     </g>
     <g id="text_10">
      <!-- 6 -->
      <g style="fill: #262626" transform="translate(30.721812 427.856011) scale(0.0968 -0.0968)">
       <defs>
        <path id="ArialMT-36" d="M 3184 3459 
L 2625 3416 
Q 2550 3747 2413 3897 
Q 2184 4138 1850 4138 
Q 1581 4138 1378 3988 
Q 1113 3794 959 3422 
Q 806 3050 800 2363 
Q 1003 2672 1297 2822 
Q 1591 2972 1913 2972 
Q 2475 2972 2870 2558 
Q 3266 2144 3266 1488 
Q 3266 1056 3080 686 
Q 2894 316 2569 119 
Q 2244 -78 1831 -78 
Q 1128 -78 684 439 
Q 241 956 241 2144 
Q 241 3472 731 4075 
Q 1159 4600 1884 4600 
Q 2425 4600 2770 4297 
Q 3116 3994 3184 3459 
z
M 888 1484 
Q 888 1194 1011 928 
Q 1134 663 1356 523 
Q 1578 384 1822 384 
Q 2178 384 2434 671 
Q 2691 959 2691 1453 
Q 2691 1928 2437 2201 
Q 2184 2475 1800 2475 
Q 1419 2475 1153 2201 
Q 888 1928 888 1484 
z
" transform="scale(0.015625)"/>
       </defs>
       <use xlink:href="#ArialMT-36"/>
      </g>
     </g>
    </g>
    <g id="ytick_3">
     <g id="line2d_19">
      <path d="M 44.4048 323.218329 
L 991.970776 323.218329 
" clip-path="url(#pd1990d73f5)" style="fill: none; stroke: #cccccc; stroke-width: 0.8; stroke-linecap: round"/>
     </g>
     <g id="line2d_20">
      <g>
       <use xlink:href="#m914114d12e" x="44.4048" y="323.218329" style="fill: #262626; stroke: #262626"/>
      </g>
     </g>
     <g id="text_11">
      <!-- 8 -->
      <g style="fill: #262626" transform="translate(30.721812 326.68271) scale(0.0968 -0.0968)">
       <defs>
        <path id="ArialMT-38" d="M 1131 2484 
Q 781 2613 612 2850 
Q 444 3088 444 3419 
Q 444 3919 803 4259 
Q 1163 4600 1759 4600 
Q 2359 4600 2725 4251 
Q 3091 3903 3091 3403 
Q 3091 3084 2923 2848 
Q 2756 2613 2416 2484 
Q 2838 2347 3058 2040 
Q 3278 1734 3278 1309 
Q 3278 722 2862 322 
Q 2447 -78 1769 -78 
Q 1091 -78 675 323 
Q 259 725 259 1325 
Q 259 1772 486 2073 
Q 713 2375 1131 2484 
z
M 1019 3438 
Q 1019 3113 1228 2906 
Q 1438 2700 1772 2700 
Q 2097 2700 2305 2904 
Q 2513 3109 2513 3406 
Q 2513 3716 2298 3927 
Q 2084 4138 1766 4138 
Q 1444 4138 1231 3931 
Q 1019 3725 1019 3438 
z
M 838 1322 
Q 838 1081 952 856 
Q 1066 631 1291 507 
Q 1516 384 1775 384 
Q 2178 384 2440 643 
Q 2703 903 2703 1303 
Q 2703 1709 2433 1975 
Q 2163 2241 1756 2241 
Q 1359 2241 1098 1978 
Q 838 1716 838 1322 
z
" transform="scale(0.015625)"/>
       </defs>
       <use xlink:href="#ArialMT-38"/>
      </g>
     </g>
    </g>
    <g id="ytick_4">
     <g id="line2d_21">
      <path d="M 44.4048 222.045028 
L 991.970776 222.045028 
" clip-path="url(#pd1990d73f5)" style="fill: none; stroke: #cccccc; stroke-width: 0.8; stroke-linecap: round"/>
     </g>
     <g id="line2d_22">
      <g>
       <use xlink:href="#m914114d12e" x="44.4048" y="222.045028" style="fill: #262626; stroke: #262626"/>
      </g>
     </g>
     <g id="text_12">
      <!-- 10 -->
      <g style="fill: #262626" transform="translate(25.338825 225.509409) scale(0.0968 -0.0968)">
       <use xlink:href="#ArialMT-31"/>
       <use xlink:href="#ArialMT-30" transform="translate(55.615234 0)"/>
      </g>
     </g>
    </g>
    <g id="ytick_5">
     <g id="line2d_23">
      <path d="M 44.4048 120.871727 
L 991.970776 120.871727 
" clip-path="url(#pd1990d73f5)" style="fill: none; stroke: #cccccc; stroke-width: 0.8; stroke-linecap: round"/>
     </g>
     <g id="line2d_24">
      <g>
       <use xlink:href="#m914114d12e" x="44.4048" y="120.871727" style="fill: #262626; stroke: #262626"/>
      </g>
     </g>
     <g id="text_13">
      <!-- 12 -->
      <g style="fill: #262626" transform="translate(25.338825 124.336108) scale(0.0968 -0.0968)">
       <use xlink:href="#ArialMT-31"/>
       <use xlink:href="#ArialMT-32" transform="translate(55.615234 0)"/>
      </g>
     </g>
    </g>
    <g id="text_14">
     <!-- Total Load (GW) -->
     <g style="fill: #262626" transform="translate(19.116275 317.8851) rotate(-90) scale(0.1056 -0.1056)">
      <defs>
       <path id="ArialMT-54" d="M 1659 0 
L 1659 4041 
L 150 4041 
L 150 4581 
L 3781 4581 
L 3781 4041 
L 2266 4041 
L 2266 0 
L 1659 0 
z
" transform="scale(0.015625)"/>
       <path id="ArialMT-61" d="M 2588 409 
Q 2275 144 1986 34 
Q 1697 -75 1366 -75 
Q 819 -75 525 192 
Q 231 459 231 875 
Q 231 1119 342 1320 
Q 453 1522 633 1644 
Q 813 1766 1038 1828 
Q 1203 1872 1538 1913 
Q 2219 1994 2541 2106 
Q 2544 2222 2544 2253 
Q 2544 2597 2384 2738 
Q 2169 2928 1744 2928 
Q 1347 2928 1158 2789 
Q 969 2650 878 2297 
L 328 2372 
Q 403 2725 575 2942 
Q 747 3159 1072 3276 
Q 1397 3394 1825 3394 
Q 2250 3394 2515 3294 
Q 2781 3194 2906 3042 
Q 3031 2891 3081 2659 
Q 3109 2516 3109 2141 
L 3109 1391 
Q 3109 606 3145 398 
Q 3181 191 3288 0 
L 2700 0 
Q 2613 175 2588 409 
z
M 2541 1666 
Q 2234 1541 1622 1453 
Q 1275 1403 1131 1340 
Q 988 1278 909 1158 
Q 831 1038 831 891 
Q 831 666 1001 516 
Q 1172 366 1500 366 
Q 1825 366 2078 508 
Q 2331 650 2450 897 
Q 2541 1088 2541 1459 
L 2541 1666 
z
" transform="scale(0.015625)"/>
       <path id="ArialMT-6c" d="M 409 0 
L 409 4581 
L 972 4581 
L 972 0 
L 409 0 
z
" transform="scale(0.015625)"/>
       <path id="ArialMT-4c" d="M 469 0 
L 469 4581 
L 1075 4581 
L 1075 541 
L 3331 541 
L 3331 0 
L 469 0 
z
" transform="scale(0.015625)"/>
       <path id="ArialMT-47" d="M 2638 1797 
L 2638 2334 
L 4578 2338 
L 4578 638 
Q 4131 281 3656 101 
Q 3181 -78 2681 -78 
Q 2006 -78 1454 211 
Q 903 500 622 1047 
Q 341 1594 341 2269 
Q 341 2938 620 3517 
Q 900 4097 1425 4378 
Q 1950 4659 2634 4659 
Q 3131 4659 3532 4498 
Q 3934 4338 4162 4050 
Q 4391 3763 4509 3300 
L 3963 3150 
Q 3859 3500 3706 3700 
Q 3553 3900 3268 4020 
Q 2984 4141 2638 4141 
Q 2222 4141 1919 4014 
Q 1616 3888 1430 3681 
Q 1244 3475 1141 3228 
Q 966 2803 966 2306 
Q 966 1694 1177 1281 
Q 1388 869 1791 669 
Q 2194 469 2647 469 
Q 3041 469 3416 620 
Q 3791 772 3984 944 
L 3984 1797 
L 2638 1797 
z
" transform="scale(0.015625)"/>
       <path id="ArialMT-57" d="M 1294 0 
L 78 4581 
L 700 4581 
L 1397 1578 
Q 1509 1106 1591 641 
Q 1766 1375 1797 1488 
L 2669 4581 
L 3400 4581 
L 4056 2263 
Q 4303 1400 4413 641 
Q 4500 1075 4641 1638 
L 5359 4581 
L 5969 4581 
L 4713 0 
L 4128 0 
L 3163 3491 
Q 3041 3928 3019 4028 
Q 2947 3713 2884 3491 
L 1913 0 
L 1294 0 
z
" transform="scale(0.015625)"/>
      </defs>
      <use xlink:href="#ArialMT-54"/>
      <use xlink:href="#ArialMT-6f" transform="translate(49.958984 0)"/>
      <use xlink:href="#ArialMT-74" transform="translate(105.574219 0)"/>
      <use xlink:href="#ArialMT-61" transform="translate(133.357422 0)"/>
      <use xlink:href="#ArialMT-6c" transform="translate(188.972656 0)"/>
      <use xlink:href="#ArialMT-20" transform="translate(211.189453 0)"/>
      <use xlink:href="#ArialMT-4c" transform="translate(238.972656 0)"/>
      <use xlink:href="#ArialMT-6f" transform="translate(294.587891 0)"/>
      <use xlink:href="#ArialMT-61" transform="translate(350.203125 0)"/>
      <use xlink:href="#ArialMT-64" transform="translate(405.818359 0)"/>
      <use xlink:href="#ArialMT-20" transform="translate(461.433594 0)"/>
      <use xlink:href="#ArialMT-28" transform="translate(489.216797 0)"/>
      <use xlink:href="#ArialMT-47" transform="translate(522.517578 0)"/>
      <use xlink:href="#ArialMT-57" transform="translate(600.300781 0)"/>
      <use xlink:href="#ArialMT-29" transform="translate(694.685547 0)"/>
     </g>
    </g>
   </g>
   <g id="line2d_25">
    <path d="M 87.475981 48.447326 
L 90.477457 51.496183 
L 93.478933 59.673515 
L 96.480409 65.227929 
L 99.481885 67.551374 
L 102.483361 70.174292 
L 105.484837 70.302276 
L 108.486313 70.594161 
L 111.487789 75.609828 
L 114.489265 76.376215 
L 117.490741 77.447641 
L 120.492217 78.821574 
L 126.495169 80.746396 
L 129.496645 84.459962 
L 132.498121 85.273901 
L 135.499597 85.570339 
L 138.501073 86.127298 
L 141.502549 87.391964 
L 144.504025 90.058387 
L 147.505501 90.171701 
L 150.506977 91.332158 
L 153.508453 93.91663 
L 156.509929 93.960135 
L 162.512881 97.11573 
L 165.514357 98.924709 
L 168.515833 101.717092 
L 171.517309 103.273137 
L 174.518785 103.441085 
L 177.520261 104.665788 
L 180.521737 106.650302 
L 183.523213 106.792956 
L 186.524689 107.138463 
L 192.527641 108.058129 
L 195.529117 108.25744 
L 198.530593 110.058325 
L 201.532069 110.081595 
L 204.533545 110.334528 
L 210.536497 112.296784 
L 213.537973 112.836544 
L 216.539449 113.610519 
L 219.540925 114.91262 
L 222.542401 114.977371 
L 225.543877 115.358794 
L 228.545353 118.246786 
L 231.546829 118.410687 
L 234.548305 118.764793 
L 237.549781 120.091175 
L 240.551257 122.70347 
L 243.552733 122.758609 
L 246.554209 123.053023 
L 249.555685 123.091469 
L 252.557161 124.898424 
L 255.558637 125.034503 
L 258.560113 125.514064 
L 261.561589 128.682812 
L 267.564541 130.418946 
L 270.566017 132.07667 
L 273.567493 132.952325 
L 276.568969 132.985712 
L 279.570445 135.029413 
L 282.571921 135.953125 
L 288.574873 136.61834 
L 294.577825 137.820784 
L 300.580777 140.079984 
L 303.582254 140.223144 
L 306.58373 140.92124 
L 309.585206 142.706443 
L 312.586682 143.068138 
L 315.588158 144.403119 
L 324.592586 145.86305 
L 327.594062 146.368917 
L 330.595538 147.409484 
L 333.597014 148.158672 
L 336.59849 149.065691 
L 339.599966 149.744564 
L 342.601442 150.613136 
L 345.602918 151.021371 
L 348.604394 153.345827 
L 351.60587 154.112215 
L 354.607346 154.38083 
L 357.608822 154.894791 
L 360.610298 155.197805 
L 363.611774 156.950632 
L 366.61325 157.349761 
L 369.614726 157.470157 
L 372.616202 157.777724 
L 375.617678 159.136987 
L 378.619154 159.332757 
L 381.62063 160.818993 
L 387.623582 163.433817 
L 390.625058 163.647799 
L 393.626534 164.78094 
L 396.62801 165.156293 
L 399.629486 165.818472 
L 402.630962 166.899003 
L 405.632438 167.237933 
L 408.633914 167.30926 
L 411.63539 168.110553 
L 420.639818 169.283657 
L 423.641294 169.931167 
L 426.64277 170.036387 
L 429.644246 171.372886 
L 432.645722 172.027477 
L 438.648674 172.284458 
L 441.65015 173.623992 
L 447.653102 173.936112 
L 450.654578 174.488012 
L 453.656054 174.620549 
L 456.65753 175.399583 
L 459.659006 175.476475 
L 462.660482 176.122467 
L 465.661958 180.089978 
L 468.663434 181.58886 
L 471.66491 181.850393 
L 474.666386 181.899968 
L 477.667862 182.597052 
L 480.669338 184.18092 
L 486.67229 184.776325 
L 489.673766 185.132961 
L 492.675242 186.130024 
L 495.676718 186.333888 
L 498.678194 188.436775 
L 501.67967 188.86575 
L 504.681146 189.775804 
L 507.682622 189.793003 
L 510.684098 190.400549 
L 513.685574 192.133142 
L 516.68705 194.255252 
L 519.688526 194.824857 
L 522.690002 195.55634 
L 525.691478 198.878871 
L 531.69443 199.811183 
L 534.695906 200.825952 
L 537.697382 202.098712 
L 543.700334 202.928333 
L 546.70181 203.056317 
L 549.703286 207.074415 
L 552.704762 208.440254 
L 555.706238 210.261374 
L 558.707714 210.379746 
L 561.70919 213.764499 
L 564.710666 214.377609 
L 567.712142 216.88266 
L 570.713618 219.079638 
L 573.715094 221.013566 
L 576.71657 222.493226 
L 579.718046 223.10583 
L 582.719522 230.519809 
L 585.720998 238.822091 
L 588.722474 240.680138 
L 591.723951 245.073589 
L 594.725427 246.564883 
L 597.726903 247.746587 
L 600.728379 247.78048 
L 603.729855 250.030575 
L 606.731331 259.960734 
L 609.732807 261.486933 
L 615.735759 265.819174 
L 618.737235 267.13898 
L 621.738711 268.196747 
L 624.740187 270.763513 
L 627.741663 274.685496 
L 630.743139 276.180838 
L 633.744615 279.343515 
L 636.746091 279.434571 
L 639.747567 289.625758 
L 642.749043 292.559278 
L 645.750519 300.667306 
L 648.751995 301.780212 
L 651.753471 303.814301 
L 654.754947 318.097442 
L 657.756423 322.503033 
L 660.757899 323.659444 
L 663.759375 325.292887 
L 666.760851 325.756261 
L 669.762327 328.929562 
L 672.763803 330.388986 
L 675.765279 334.648382 
L 678.766755 341.426488 
L 681.768231 341.853439 
L 684.769707 343.57035 
L 687.771183 346.787155 
L 690.772659 347.98707 
L 693.774135 350.793112 
L 696.775611 356.957601 
L 699.777087 363.579899 
L 702.778563 364.425708 
L 705.780039 364.900717 
L 708.781515 371.373279 
L 711.782991 371.612048 
L 714.784467 372.99964 
L 717.785943 373.055791 
L 720.787419 373.683571 
L 723.788895 376.236679 
L 726.790371 377.127004 
L 729.791847 380.015502 
L 732.793323 380.553744 
L 735.794799 381.723308 
L 738.796275 383.610695 
L 741.797751 384.552113 
L 744.799227 386.855323 
L 747.800703 387.877174 
L 750.802179 389.052301 
L 753.803655 389.394773 
L 756.805131 389.612296 
L 759.806607 393.686544 
L 762.808083 396.536091 
L 765.809559 397.924694 
L 768.811035 401.975673 
L 771.812511 403.154342 
L 774.813987 403.535259 
L 777.815463 405.950772 
L 780.816939 406.31449 
L 783.818415 407.394009 
L 786.819891 412.278656 
L 789.821367 418.872626 
L 792.822843 421.264869 
L 795.824319 421.335184 
L 798.825795 423.548856 
L 801.827271 425.34367 
L 804.828747 425.75494 
L 807.830223 426.742391 
L 810.831699 427.084863 
L 816.834651 427.302891 
L 822.837603 427.382818 
L 825.839079 427.853274 
L 828.840555 430.091733 
L 831.842031 431.025057 
L 834.843507 434.18217 
L 837.844983 446.643685 
L 840.846459 458.249781 
L 843.847935 468.204727 
L 846.849411 469.548309 
L 849.850887 470.586347 
L 855.853839 471.033027 
L 858.855315 471.862142 
L 861.856791 472.905239 
L 864.858267 473.357484 
L 867.859743 474.235668 
L 873.862695 475.583802 
L 876.864171 475.890357 
L 879.865648 476.790294 
L 882.867124 477.854637 
L 885.8686 478.621531 
L 888.870076 478.954897 
L 891.871552 478.974625 
L 894.873028 479.447105 
L 897.874504 480.598457 
L 900.87598 481.531781 
L 903.877456 481.828218 
L 906.878932 484.023679 
L 909.880408 487.818689 
L 912.881884 488.181902 
L 915.88336 488.857739 
L 918.884836 490.280742 
L 921.886312 491.550973 
L 924.887788 498.63715 
L 927.889264 499.049432 
L 930.89074 500.330792 
L 933.892216 502.369939 
L 936.893692 502.690659 
L 939.895168 503.303769 
L 945.89812 505.841195 
L 948.899596 510.472403 
L 948.899596 510.472403 
" clip-path="url(#pd1990d73f5)" style="fill: none; stroke: #1f77b4; stroke-width: 2.5; stroke-linecap: round"/>
   </g>
   <g id="line2d_26">
    <path d="M 87.475981 48.427091 
L 90.477457 51.475442 
L 93.478933 59.653786 
L 96.480409 65.208706 
L 99.481885 67.531645 
L 102.483361 70.154563 
L 105.484837 70.282547 
L 108.486313 70.574432 
L 111.487789 75.590099 
L 114.489265 76.356992 
L 117.490741 77.428418 
L 120.492217 78.802857 
L 126.495169 80.725655 
L 129.496645 84.441245 
L 132.498121 85.28756 
L 135.499597 85.551116 
L 138.501073 86.108075 
L 141.502549 87.373247 
L 144.504025 90.039164 
L 147.505501 90.184347 
L 150.506977 91.344805 
L 153.508453 93.897913 
L 156.509929 93.972782 
L 162.512881 97.127365 
L 165.514357 98.938367 
L 168.515833 101.729233 
L 171.517309 103.28629 
L 174.518785 103.42085 
L 177.520261 104.650106 
L 180.521737 106.231445 
L 183.523213 106.662949 
L 186.524689 106.773733 
L 189.526165 107.319058 
L 192.527641 107.622577 
L 195.529117 108.070269 
L 198.530593 110.070465 
L 201.532069 110.093229 
L 204.533545 110.346163 
L 207.535021 110.406361 
L 210.536497 112.278573 
L 213.537973 112.695913 
L 216.539449 112.817826 
L 219.540925 114.925266 
L 222.542401 114.989006 
L 225.543877 115.340077 
L 228.545353 118.259938 
L 231.546829 118.422321 
L 234.548305 118.745064 
L 237.549781 120.103316 
L 240.551257 122.715611 
L 243.552733 122.771256 
L 246.554209 123.06567 
L 249.555685 123.072246 
L 252.557161 124.910059 
L 255.558637 125.047149 
L 258.560113 125.527217 
L 261.561589 128.695458 
L 267.564541 130.431086 
L 270.566017 132.089317 
L 273.567493 132.964972 
L 276.568969 132.997853 
L 279.570445 135.041048 
L 282.571921 135.965772 
L 288.574873 136.630986 
L 294.577825 137.833431 
L 300.580777 140.091619 
L 303.582254 140.234273 
L 306.58373 140.902017 
L 309.585206 142.718584 
L 312.586682 143.079772 
L 315.588158 144.41526 
L 324.592586 145.873673 
L 327.594062 146.350705 
L 330.595538 147.420613 
L 333.597014 148.170813 
L 336.59849 149.078337 
L 339.599966 149.75721 
L 342.601442 150.625277 
L 345.602918 151.033512 
L 348.604394 153.357968 
L 351.60587 154.095521 
L 354.607346 154.392465 
L 357.608822 154.893779 
L 360.610298 155.209945 
L 363.611774 156.962773 
L 366.61325 157.361396 
L 369.614726 157.481792 
L 372.616202 157.789359 
L 375.617678 159.149128 
L 378.619154 159.31657 
L 381.62063 160.800276 
L 387.623582 163.445452 
L 390.625058 163.658422 
L 393.626534 164.792575 
L 396.62801 165.167928 
L 399.629486 165.830107 
L 402.630962 166.881297 
L 405.632438 167.249568 
L 408.633914 167.32039 
L 411.63539 168.118647 
L 420.639818 169.295798 
L 423.641294 169.942296 
L 426.64277 170.04701 
L 429.644246 171.384521 
L 432.645722 172.039618 
L 438.648674 172.296092 
L 441.65015 173.635627 
L 447.653102 173.947747 
L 450.654578 174.499141 
L 453.656054 174.632184 
L 456.65753 175.411218 
L 459.659006 175.48811 
L 462.660482 176.132584 
L 465.661958 180.101613 
L 468.663434 181.599989 
L 471.66491 181.861522 
L 474.666386 181.910591 
L 477.667862 182.608687 
L 480.669338 184.192049 
L 486.67229 184.787454 
L 489.673766 185.14409 
L 492.675242 186.141659 
L 495.676718 186.345523 
L 498.678194 188.446892 
L 501.67967 188.876879 
L 504.681146 189.786933 
L 507.682622 189.804132 
L 510.684098 190.412184 
L 513.685574 192.144271 
L 516.68705 194.267392 
L 519.688526 194.83548 
L 522.690002 195.566457 
L 525.691478 198.89 
L 531.69443 199.823324 
L 534.695906 200.836069 
L 537.697382 202.108829 
L 543.700334 202.939462 
L 546.70181 203.067952 
L 549.703286 207.085544 
L 552.704762 208.451383 
L 555.706238 210.271997 
L 558.707714 210.39037 
L 561.70919 213.775122 
L 564.710666 214.388738 
L 567.712142 216.893283 
L 570.713618 219.089756 
L 573.715094 221.024189 
L 576.71657 222.503343 
L 579.718046 223.115947 
L 582.719522 230.497045 
L 585.720998 238.832208 
L 588.722474 240.690256 
L 591.723951 245.082694 
L 594.725427 246.573989 
L 597.726903 247.756199 
L 600.728379 247.789586 
L 603.729855 250.040186 
L 606.731331 259.96984 
L 609.732807 261.496039 
L 615.735759 265.82828 
L 618.737235 267.148085 
L 621.738711 268.205852 
L 624.740187 270.772619 
L 627.741663 274.695614 
L 630.743139 276.190449 
L 633.744615 279.352621 
L 636.746091 279.444183 
L 639.747567 289.634863 
L 642.749043 292.568383 
L 645.750519 300.676411 
L 648.751995 301.789318 
L 651.753471 303.823407 
L 654.754947 318.106042 
L 657.756423 322.511633 
L 660.757899 323.667032 
L 663.759375 325.300981 
L 666.760851 325.764355 
L 669.762327 328.937655 
L 672.763803 330.398092 
L 675.765279 334.656476 
L 678.766755 341.435087 
L 681.768231 341.861027 
L 684.769707 343.578444 
L 687.771183 346.794743 
L 690.772659 347.994658 
L 693.774135 350.8007 
L 696.775611 356.965189 
L 699.777087 363.586982 
L 702.778563 364.416603 
L 705.780039 364.886553 
L 708.781515 371.381879 
L 711.782991 371.58726 
L 714.784467 373.007734 
L 717.785943 373.045168 
L 720.787419 373.672442 
L 723.788895 376.244267 
L 726.790371 377.143192 
L 729.791847 380.029161 
L 732.793323 380.570438 
L 735.794799 381.718755 
L 738.796275 383.609178 
L 741.797751 384.530361 
L 744.799227 386.855323 
L 747.800703 387.870597 
L 750.802179 389.019926 
L 753.803655 389.402867 
L 756.805131 389.619378 
L 759.806607 393.686544 
L 762.808083 396.536091 
L 765.809559 397.924188 
L 768.811035 401.974155 
L 771.812511 403.151813 
L 774.813987 403.534754 
L 777.815463 405.950772 
L 780.816939 406.311455 
L 783.818415 407.379845 
L 786.819891 412.278656 
L 789.821367 418.872626 
L 792.822843 421.264869 
L 795.824319 421.335184 
L 798.825795 423.548856 
L 801.827271 425.34367 
L 804.828747 425.755446 
L 807.830223 426.742391 
L 810.831699 427.083851 
L 816.834651 427.302891 
L 822.837603 427.382818 
L 825.839079 427.853274 
L 828.840555 430.091733 
L 831.842031 431.025057 
L 834.843507 434.182676 
L 837.844983 446.643685 
L 840.846459 458.250286 
L 843.847935 468.205233 
L 846.849411 469.548309 
L 849.850887 470.586853 
L 855.853839 471.033533 
L 858.855315 471.862648 
L 861.856791 472.905745 
L 864.858267 473.357484 
L 867.859743 474.236174 
L 873.862695 475.584308 
L 876.864171 475.890863 
L 879.865648 476.7908 
L 882.867124 477.855143 
L 885.8686 478.621531 
L 888.870076 478.954897 
L 891.871552 478.974625 
L 894.873028 479.447611 
L 897.874504 480.598963 
L 900.87598 481.532286 
L 903.877456 481.828724 
L 906.878932 484.024185 
L 909.880408 487.818689 
L 912.881884 488.182407 
L 915.88336 488.857739 
L 918.884836 490.280742 
L 921.886312 491.551478 
L 924.887788 498.637656 
L 927.889264 499.049938 
L 930.89074 500.331297 
L 933.892216 502.370445 
L 936.893692 502.690659 
L 939.895168 503.304275 
L 945.89812 505.841195 
L 948.899596 510.472403 
L 948.899596 510.472403 
" clip-path="url(#pd1990d73f5)" style="fill: none; stroke: #ff7f0e; stroke-width: 2.5; stroke-linecap: round"/>
   </g>
   <g id="line2d_27">
    <path d="M 87.475981 48.448337 
L 90.477457 51.497195 
L 93.478933 59.674527 
L 96.480409 65.228435 
L 99.481885 67.55188 
L 102.483361 70.175304 
L 105.484837 70.303288 
L 108.486313 70.595173 
L 111.487789 75.610839 
L 114.489265 76.377227 
L 117.490741 77.448652 
L 120.492217 78.822586 
L 126.495169 80.747408 
L 129.496645 84.460974 
L 132.498121 85.274913 
L 135.499597 85.570845 
L 138.501073 86.12831 
L 141.502549 87.392976 
L 144.504025 90.059398 
L 147.505501 90.172207 
L 150.506977 91.333676 
L 153.508453 93.917136 
L 156.509929 93.961147 
L 162.512881 97.116236 
L 165.514357 98.925721 
L 168.515833 101.718104 
L 171.517309 103.274655 
L 174.518785 103.441591 
L 177.520261 104.653141 
L 180.521737 106.651314 
L 183.523213 106.793968 
L 186.524689 107.140487 
L 192.527641 108.05914 
L 195.529117 108.259463 
L 198.530593 110.059336 
L 201.532069 110.0821 
L 204.533545 110.33554 
L 210.536497 112.297796 
L 213.537973 112.837555 
L 216.539449 113.611531 
L 219.540925 114.913126 
L 222.542401 114.978382 
L 225.543877 115.360817 
L 228.545353 118.247798 
L 231.546829 118.411192 
L 234.548305 118.765805 
L 237.549781 120.092187 
L 240.551257 122.704481 
L 243.552733 122.759621 
L 246.554209 123.054035 
L 249.555685 123.092481 
L 252.557161 124.899436 
L 255.558637 125.035514 
L 258.560113 125.515582 
L 261.561589 128.683824 
L 267.564541 130.419957 
L 270.566017 132.077682 
L 273.567493 132.953843 
L 276.568969 132.986724 
L 279.570445 135.030425 
L 282.571921 135.954137 
L 288.574873 136.619351 
L 294.577825 137.821796 
L 300.580777 140.080996 
L 303.582254 140.224156 
L 306.58373 140.922252 
L 309.585206 142.707455 
L 312.586682 143.069149 
L 315.588158 144.404131 
L 324.592586 145.863556 
L 327.594062 146.369928 
L 330.595538 147.410496 
L 333.597014 148.159684 
L 336.59849 149.066703 
L 339.599966 149.745575 
L 342.601442 150.614148 
L 345.602918 151.022382 
L 348.604394 153.346839 
L 351.60587 154.113227 
L 354.607346 154.381842 
L 357.608822 154.885685 
L 360.610298 155.198816 
L 363.611774 156.951644 
L 366.61325 157.350772 
L 369.614726 157.471169 
L 372.616202 157.778736 
L 375.617678 159.137999 
L 378.619154 159.333263 
L 381.62063 160.820005 
L 387.623582 163.434829 
L 390.625058 163.64881 
L 393.626534 164.781951 
L 396.62801 165.157304 
L 399.629486 165.819484 
L 402.630962 166.900014 
L 405.632438 167.238945 
L 408.633914 167.310272 
L 411.63539 168.102965 
L 420.639818 169.284669 
L 423.641294 169.932178 
L 426.64277 170.037398 
L 429.644246 171.373898 
L 432.645722 172.028489 
L 438.648674 172.285469 
L 441.65015 173.625004 
L 447.653102 173.937629 
L 450.654578 174.488518 
L 453.656054 174.621561 
L 456.65753 175.400595 
L 459.659006 175.477487 
L 462.660482 176.122973 
L 465.661958 180.090989 
L 468.663434 181.589872 
L 471.66491 181.851405 
L 474.666386 181.900474 
L 477.667862 182.598064 
L 480.669338 184.181932 
L 486.67229 184.777337 
L 489.673766 185.133973 
L 492.675242 186.13053 
L 495.676718 186.3349 
L 498.678194 188.437281 
L 501.67967 188.866762 
L 504.681146 189.776309 
L 507.682622 189.793509 
L 510.684098 190.40156 
L 513.685574 192.134153 
L 516.68705 194.256263 
L 519.688526 194.825363 
L 522.690002 195.557352 
L 525.691478 198.879883 
L 531.69443 199.812701 
L 534.695906 200.826457 
L 537.697382 202.096182 
L 543.700334 202.929344 
L 546.70181 203.057329 
L 549.703286 207.075426 
L 552.704762 208.441266 
L 555.706238 210.262385 
L 558.707714 210.380758 
L 561.70919 213.765511 
L 564.710666 214.378621 
L 567.712142 216.883672 
L 570.713618 219.080144 
L 573.715094 221.014578 
L 576.71657 222.494237 
L 579.718046 223.106842 
L 582.719522 230.519304 
L 585.720998 238.823102 
L 588.722474 240.68115 
L 591.723951 245.074095 
L 594.725427 246.565389 
L 597.726903 247.747599 
L 600.728379 247.780986 
L 603.729855 250.031586 
L 606.731331 259.961746 
L 609.732807 261.487439 
L 615.735759 265.820186 
L 618.737235 267.139992 
L 621.738711 268.197758 
L 624.740187 270.764525 
L 627.741663 274.686508 
L 630.743139 276.181849 
L 633.744615 279.344527 
L 636.746091 279.435583 
L 639.747567 289.626264 
L 642.749043 292.560289 
L 645.750519 300.668318 
L 648.751995 301.780718 
L 651.753471 303.815313 
L 654.754947 318.097948 
L 657.756423 322.503539 
L 660.757899 323.65995 
L 663.759375 325.293899 
L 666.760851 325.757273 
L 669.762327 328.930067 
L 672.763803 330.389998 
L 675.765279 334.649394 
L 678.766755 341.427499 
L 681.768231 341.853945 
L 684.769707 343.571362 
L 687.771183 346.788167 
L 690.772659 347.987576 
L 693.774135 350.794124 
L 696.775611 356.958613 
L 699.777087 363.580405 
L 702.778563 364.425202 
L 705.780039 364.899705 
L 708.781515 371.374291 
L 711.782991 371.612048 
L 714.784467 373.000651 
L 717.785943 373.055285 
L 720.787419 373.683065 
L 723.788895 376.237691 
L 726.790371 377.128016 
L 729.791847 380.01702 
L 732.793323 380.555262 
L 735.794799 381.723813 
L 738.796275 383.611201 
L 741.797751 384.551607 
L 744.799227 386.856335 
L 747.800703 387.877174 
L 750.802179 389.055337 
L 753.803655 389.395785 
L 756.805131 389.613307 
L 759.806607 393.687556 
L 762.808083 396.537102 
L 765.809559 397.9252 
L 768.811035 401.976179 
L 771.812511 403.154848 
L 774.813987 403.535765 
L 777.815463 405.951784 
L 780.816939 406.31449 
L 783.818415 407.393503 
L 786.819891 412.279668 
L 789.821367 418.873132 
L 792.822843 421.26588 
L 795.824319 421.336196 
L 798.825795 423.549868 
L 801.827271 425.344682 
L 804.828747 425.755952 
L 807.830223 426.742897 
L 810.831699 427.085369 
L 816.834651 427.303903 
L 822.837603 427.383324 
L 825.839079 427.85378 
L 828.840555 430.092745 
L 831.842031 431.026069 
L 834.843507 434.183687 
L 837.844983 446.644697 
L 840.846459 458.250792 
L 843.847935 468.205739 
L 846.849411 469.548815 
L 849.850887 470.587359 
L 855.853839 471.034039 
L 858.855315 471.863154 
L 861.856791 472.906251 
L 864.858267 473.35799 
L 867.859743 474.23668 
L 873.862695 475.584814 
L 876.864171 475.891369 
L 879.865648 476.791306 
L 882.867124 477.855649 
L 885.8686 478.622542 
L 888.870076 478.955402 
L 891.871552 478.975131 
L 894.873028 479.448116 
L 897.874504 480.599469 
L 900.87598 481.532792 
L 903.877456 481.82923 
L 906.878932 484.024691 
L 909.880408 487.819701 
L 912.881884 488.182913 
L 915.88336 488.858751 
L 918.884836 490.281753 
L 921.886312 491.551984 
L 924.887788 498.638162 
L 927.889264 499.050443 
L 930.89074 500.331803 
L 933.892216 502.370951 
L 936.893692 502.691165 
L 939.895168 503.304781 
L 945.89812 505.842207 
L 948.899596 510.472909 
L 948.899596 510.472909 
" clip-path="url(#pd1990d73f5)" style="fill: none; stroke: #2ca02c; stroke-width: 2.5; stroke-linecap: round"/>
   </g>
   <g id="patch_3">
    <path d="M 44.4048 533.5752 
L 44.4048 25.3248 
" style="fill: none; stroke: #cccccc; stroke-linejoin: miter; stroke-linecap: square"/>
   </g>
   <g id="patch_4">
    <path d="M 991.970776 533.5752 
L 991.970776 25.3248 
" style="fill: none; stroke: #cccccc; stroke-linejoin: miter; stroke-linecap: square"/>
   </g>
   <g id="patch_5">
    <path d="M 44.4048 533.5752 
L 991.970776 533.5752 
" style="fill: none; stroke: #cccccc; stroke-linejoin: miter; stroke-linecap: square"/>
   </g>
   <g id="patch_6">
    <path d="M 44.4048 25.3248 
L 991.970776 25.3248 
" style="fill: none; stroke: #cccccc; stroke-linejoin: miter; stroke-linecap: square"/>
   </g>
   <g id="text_15">
    <!-- Total Load Duration Curve (All Scenarios) -->
    <g style="fill: #262626" transform="translate(421.057238 19.3248) scale(0.1056 -0.1056)">
     <defs>
      <path id="ArialMT-44" d="M 494 0 
L 494 4581 
L 2072 4581 
Q 2606 4581 2888 4516 
Q 3281 4425 3559 4188 
Q 3922 3881 4101 3404 
Q 4281 2928 4281 2316 
Q 4281 1794 4159 1391 
Q 4038 988 3847 723 
Q 3656 459 3429 307 
Q 3203 156 2883 78 
Q 2563 0 2147 0 
L 494 0 
z
M 1100 541 
L 2078 541 
Q 2531 541 2789 625 
Q 3047 709 3200 863 
Q 3416 1078 3536 1442 
Q 3656 1806 3656 2325 
Q 3656 3044 3420 3430 
Q 3184 3816 2847 3947 
Q 2603 4041 2063 4041 
L 1100 4041 
L 1100 541 
z
" transform="scale(0.015625)"/>
      <path id="ArialMT-69" d="M 425 3934 
L 425 4581 
L 988 4581 
L 988 3934 
L 425 3934 
z
M 425 0 
L 425 3319 
L 988 3319 
L 988 0 
L 425 0 
z
" transform="scale(0.015625)"/>
      <path id="ArialMT-6e" d="M 422 0 
L 422 3319 
L 928 3319 
L 928 2847 
Q 1294 3394 1984 3394 
Q 2284 3394 2536 3286 
Q 2788 3178 2913 3003 
Q 3038 2828 3088 2588 
Q 3119 2431 3119 2041 
L 3119 0 
L 2556 0 
L 2556 2019 
Q 2556 2363 2490 2533 
Q 2425 2703 2258 2804 
Q 2091 2906 1866 2906 
Q 1506 2906 1245 2678 
Q 984 2450 984 1813 
L 984 0 
L 422 0 
z
" transform="scale(0.015625)"/>
      <path id="ArialMT-43" d="M 3763 1606 
L 4369 1453 
Q 4178 706 3683 314 
Q 3188 -78 2472 -78 
Q 1731 -78 1267 223 
Q 803 525 561 1097 
Q 319 1669 319 2325 
Q 319 3041 592 3573 
Q 866 4106 1370 4382 
Q 1875 4659 2481 4659 
Q 3169 4659 3637 4309 
Q 4106 3959 4291 3325 
L 3694 3184 
Q 3534 3684 3231 3912 
Q 2928 4141 2469 4141 
Q 1941 4141 1586 3887 
Q 1231 3634 1087 3207 
Q 944 2781 944 2328 
Q 944 1744 1114 1308 
Q 1284 872 1643 656 
Q 2003 441 2422 441 
Q 2931 441 3284 734 
Q 3638 1028 3763 1606 
z
" transform="scale(0.015625)"/>
      <path id="ArialMT-76" d="M 1344 0 
L 81 3319 
L 675 3319 
L 1388 1331 
Q 1503 1009 1600 663 
Q 1675 925 1809 1294 
L 2547 3319 
L 3125 3319 
L 1869 0 
L 1344 0 
z
" transform="scale(0.015625)"/>
      <path id="ArialMT-41" d="M -9 0 
L 1750 4581 
L 2403 4581 
L 4278 0 
L 3588 0 
L 3053 1388 
L 1138 1388 
L 634 0 
L -9 0 
z
M 1313 1881 
L 2866 1881 
L 2388 3150 
Q 2169 3728 2063 4100 
Q 1975 3659 1816 3225 
L 1313 1881 
z
" transform="scale(0.015625)"/>
      <path id="ArialMT-53" d="M 288 1472 
L 859 1522 
Q 900 1178 1048 958 
Q 1197 738 1509 602 
Q 1822 466 2213 466 
Q 2559 466 2825 569 
Q 3091 672 3220 851 
Q 3350 1031 3350 1244 
Q 3350 1459 3225 1620 
Q 3100 1781 2813 1891 
Q 2628 1963 1997 2114 
Q 1366 2266 1113 2400 
Q 784 2572 623 2826 
Q 463 3081 463 3397 
Q 463 3744 659 4045 
Q 856 4347 1234 4503 
Q 1613 4659 2075 4659 
Q 2584 4659 2973 4495 
Q 3363 4331 3572 4012 
Q 3781 3694 3797 3291 
L 3216 3247 
Q 3169 3681 2898 3903 
Q 2628 4125 2100 4125 
Q 1550 4125 1298 3923 
Q 1047 3722 1047 3438 
Q 1047 3191 1225 3031 
Q 1400 2872 2139 2705 
Q 2878 2538 3153 2413 
Q 3553 2228 3743 1945 
Q 3934 1663 3934 1294 
Q 3934 928 3725 604 
Q 3516 281 3123 101 
Q 2731 -78 2241 -78 
Q 1619 -78 1198 103 
Q 778 284 539 648 
Q 300 1013 288 1472 
z
" transform="scale(0.015625)"/>
      <path id="ArialMT-63" d="M 2588 1216 
L 3141 1144 
Q 3050 572 2676 248 
Q 2303 -75 1759 -75 
Q 1078 -75 664 370 
Q 250 816 250 1647 
Q 250 2184 428 2587 
Q 606 2991 970 3192 
Q 1334 3394 1763 3394 
Q 2303 3394 2647 3120 
Q 2991 2847 3088 2344 
L 2541 2259 
Q 2463 2594 2264 2762 
Q 2066 2931 1784 2931 
Q 1359 2931 1093 2626 
Q 828 2322 828 1663 
Q 828 994 1084 691 
Q 1341 388 1753 388 
Q 2084 388 2306 591 
Q 2528 794 2588 1216 
z
" transform="scale(0.015625)"/>
     </defs>
     <use xlink:href="#ArialMT-54"/>
     <use xlink:href="#ArialMT-6f" transform="translate(49.958984 0)"/>
     <use xlink:href="#ArialMT-74" transform="translate(105.574219 0)"/>
     <use xlink:href="#ArialMT-61" transform="translate(133.357422 0)"/>
     <use xlink:href="#ArialMT-6c" transform="translate(188.972656 0)"/>
     <use xlink:href="#ArialMT-20" transform="translate(211.189453 0)"/>
     <use xlink:href="#ArialMT-4c" transform="translate(238.972656 0)"/>
     <use xlink:href="#ArialMT-6f" transform="translate(294.587891 0)"/>
     <use xlink:href="#ArialMT-61" transform="translate(350.203125 0)"/>
     <use xlink:href="#ArialMT-64" transform="translate(405.818359 0)"/>
     <use xlink:href="#ArialMT-20" transform="translate(461.433594 0)"/>
     <use xlink:href="#ArialMT-44" transform="translate(489.216797 0)"/>
     <use xlink:href="#ArialMT-75" transform="translate(561.433594 0)"/>
     <use xlink:href="#ArialMT-72" transform="translate(617.048828 0)"/>
     <use xlink:href="#ArialMT-61" transform="translate(650.349609 0)"/>
     <use xlink:href="#ArialMT-74" transform="translate(705.964844 0)"/>
     <use xlink:href="#ArialMT-69" transform="translate(733.748047 0)"/>
     <use xlink:href="#ArialMT-6f" transform="translate(755.964844 0)"/>
     <use xlink:href="#ArialMT-6e" transform="translate(811.580078 0)"/>
     <use xlink:href="#ArialMT-20" transform="translate(867.195312 0)"/>
     <use xlink:href="#ArialMT-43" transform="translate(894.978516 0)"/>
     <use xlink:href="#ArialMT-75" transform="translate(967.195312 0)"/>
     <use xlink:href="#ArialMT-72" transform="translate(1022.810547 0)"/>
     <use xlink:href="#ArialMT-76" transform="translate(1056.111328 0)"/>
     <use xlink:href="#ArialMT-65" transform="translate(1106.111328 0)"/>
     <use xlink:href="#ArialMT-20" transform="translate(1161.726562 0)"/>
     <use xlink:href="#ArialMT-28" transform="translate(1189.509766 0)"/>
     <use xlink:href="#ArialMT-41" transform="translate(1222.810547 0)"/>
     <use xlink:href="#ArialMT-6c" transform="translate(1289.509766 0)"/>
     <use xlink:href="#ArialMT-6c" transform="translate(1311.726562 0)"/>
     <use xlink:href="#ArialMT-20" transform="translate(1333.943359 0)"/>
     <use xlink:href="#ArialMT-53" transform="translate(1361.726562 0)"/>
     <use xlink:href="#ArialMT-63" transform="translate(1428.425781 0)"/>
     <use xlink:href="#ArialMT-65" transform="translate(1478.425781 0)"/>
     <use xlink:href="#ArialMT-6e" transform="translate(1534.041016 0)"/>
     <use xlink:href="#ArialMT-61" transform="translate(1589.65625 0)"/>
     <use xlink:href="#ArialMT-72" transform="translate(1645.271484 0)"/>
     <use xlink:href="#ArialMT-69" transform="translate(1678.572266 0)"/>
     <use xlink:href="#ArialMT-6f" transform="translate(1700.789062 0)"/>
     <use xlink:href="#ArialMT-73" transform="translate(1756.404297 0)"/>
     <use xlink:href="#ArialMT-29" transform="translate(1806.404297 0)"/>
    </g>
   </g>
   <g id="legend_1">
    <g id="line2d_28">
     <path d="M 950.771789 37.577563 
L 960.451789 37.577563 
L 970.131789 37.577563 
" style="fill: none; stroke: #1f77b4; stroke-width: 2.5; stroke-linecap: round"/>
    </g>
    <g id="text_16">
     <!-- 3 -->
     <g style="fill: #262626" transform="translate(977.875789 40.965563) scale(0.0968 -0.0968)">
      <use xlink:href="#ArialMT-33"/>
     </g>
    </g>
    <g id="line2d_29">
     <path d="M 950.771789 51.270225 
L 960.451789 51.270225 
L 970.131789 51.270225 
" style="fill: none; stroke: #ff7f0e; stroke-width: 2.5; stroke-linecap: round"/>
    </g>
    <g id="text_17">
     <!-- 5 -->
     <g style="fill: #262626" transform="translate(977.875789 54.658225) scale(0.0968 -0.0968)">
      <use xlink:href="#ArialMT-35"/>
     </g>
    </g>
    <g id="line2d_30">
     <path d="M 950.771789 64.962888 
L 960.451789 64.962888 
L 970.131789 64.962888 
" style="fill: none; stroke: #2ca02c; stroke-width: 2.5; stroke-linecap: round"/>
    </g>
    <g id="text_18">
     <!-- 7 -->
     <g style="fill: #262626" transform="translate(977.875789 68.350888) scale(0.0968 -0.0968)">
      <defs>
       <path id="ArialMT-37" d="M 303 3981 
L 303 4522 
L 3269 4522 
L 3269 4084 
Q 2831 3619 2401 2847 
Q 1972 2075 1738 1259 
Q 1569 684 1522 0 
L 944 0 
Q 953 541 1156 1306 
Q 1359 2072 1739 2783 
Q 2119 3494 2547 3981 
L 303 3981 
z
" transform="scale(0.015625)"/>
      </defs>
      <use xlink:href="#ArialMT-37"/>
     </g>
    </g>
   </g>
  </g>
 </g>
 <defs>
  <clipPath id="pd1990d73f5">
   <rect x="44.4048" y="25.3248" width="947.565976" height="508.2504"/>
  </clipPath>
 </defs>
</svg>
